M48
; DRILL file {KiCad (5.99.0-7356-g63088e8bdb)} date Tue Jun 15 12:34:32 2021
; FORMAT={-:-/ absolute / metric / decimal}
; #@! TF.CreationDate,2021-06-15T12:34:32+08:00
; #@! TF.GenerationSoftware,Kicad,Pcbnew,(5.99.0-7356-g63088e8bdb)
; #@! TF.FileFunction,Plated,1,2,PTH
FMAT,2
METRIC
T1C0.800
T2C1.000
T3C3.200
%
G90
G05
T1
X118.554Y-108.966
X118.554Y-111.466
T2
X107.061Y-42.926
X107.061Y-45.466
X107.061Y-48.006
X107.061Y-50.546
X107.061Y-53.086
X107.061Y-55.626
X107.061Y-58.166
X107.061Y-60.706
X107.061Y-63.246
X107.061Y-65.786
X107.061Y-68.326
X107.061Y-70.866
X107.061Y-73.406
X107.061Y-75.946
X107.061Y-78.486
X107.061Y-81.026
X107.061Y-83.566
X107.061Y-86.106
X107.061Y-88.646
X107.061Y-91.186
X107.061Y-93.726
X107.061Y-96.266
X107.061Y-98.806
X107.061Y-101.346
X107.061Y-103.886
X107.061Y-106.426
X107.061Y-108.966
X107.061Y-111.506
X107.061Y-114.046
X107.061Y-116.586
X112.141Y-42.926
X112.141Y-45.466
X112.141Y-48.006
X112.141Y-50.546
X112.141Y-53.086
X112.141Y-55.626
X112.141Y-58.166
X112.141Y-60.706
X112.141Y-63.246
X112.141Y-65.786
X112.141Y-68.326
X112.141Y-70.866
X112.141Y-73.406
X112.141Y-75.946
X112.141Y-78.486
X112.141Y-81.026
X112.141Y-83.566
X112.141Y-86.106
X112.141Y-88.646
X112.141Y-91.186
X112.141Y-93.726
X112.141Y-96.266
X112.141Y-98.806
X112.141Y-101.346
X112.141Y-103.886
X112.141Y-106.426
X112.141Y-108.966
X112.141Y-111.506
X112.141Y-114.046
X112.141Y-116.586
X125.603Y-50.546
X125.603Y-53.086
X125.603Y-55.626
X125.603Y-58.166
X125.603Y-60.706
X125.603Y-63.246
X125.603Y-65.786
X125.603Y-68.326
X125.603Y-70.866
X125.603Y-73.406
X125.603Y-75.946
X125.603Y-78.486
X125.603Y-81.026
X125.603Y-83.566
X125.603Y-86.106
X128.143Y-50.546
X128.143Y-53.086
X128.143Y-55.626
X128.143Y-58.166
X128.143Y-60.706
X128.143Y-63.246
X128.143Y-65.786
X128.143Y-68.326
X128.143Y-70.866
X128.143Y-73.406
X128.143Y-75.946
X128.143Y-78.486
X128.143Y-81.026
X128.143Y-83.566
X128.143Y-86.106
T3
X94.0Y-37.0
X94.0Y-122.0
X129.0Y-37.1
T0
M30
