%TF.GenerationSoftware,KiCad,Pcbnew,(5.99.0-7356-g63088e8bdb)*%
%TF.CreationDate,2021-06-15T12:34:33+08:00*%
%TF.ProjectId,AdapterCartdrigeProd,41646170-7465-4724-9361-727464726967,rev?*%
%TF.SameCoordinates,Original*%
%TF.FileFunction,Copper,L2,Bot*%
%TF.FilePolarity,Positive*%
%FSLAX46Y46*%
G04 Gerber Fmt 4.6, Leading zero omitted, Abs format (unit mm)*
G04 Created by KiCad (PCBNEW (5.99.0-7356-g63088e8bdb)) date 2021-06-15 12:34:33*
%MOMM*%
%LPD*%
G01*
G04 APERTURE LIST*
%TA.AperFunction,ComponentPad*%
%ADD10C,3.200000*%
%TD*%
%TA.AperFunction,ComponentPad*%
%ADD11R,1.700000X1.700000*%
%TD*%
%TA.AperFunction,ComponentPad*%
%ADD12O,1.700000X1.700000*%
%TD*%
%TA.AperFunction,ComponentPad*%
%ADD13C,1.600000*%
%TD*%
%TA.AperFunction,Conductor*%
%ADD14C,0.250000*%
%TD*%
G04 APERTURE END LIST*
D10*
%TO.P,H3,1,1*%
%TO.N,GND*%
X129000000Y-37100000D03*
%TD*%
%TO.P,H2,*%
%TO.N,GND*%
X94000000Y-122000000D03*
%TD*%
D11*
%TO.P,J1,1,Pin_1*%
%TO.N,/A14*%
X125603000Y-50546000D03*
D12*
%TO.P,J1,2,Pin_2*%
%TO.N,/A12*%
X128143000Y-50546000D03*
%TO.P,J1,3,Pin_3*%
%TO.N,/A7*%
X125603000Y-53086000D03*
%TO.P,J1,4,Pin_4*%
%TO.N,/A6*%
X128143000Y-53086000D03*
%TO.P,J1,5,Pin_5*%
%TO.N,/A5*%
X125603000Y-55626000D03*
%TO.P,J1,6,Pin_6*%
%TO.N,/A4*%
X128143000Y-55626000D03*
%TO.P,J1,7,Pin_7*%
%TO.N,/A3*%
X125603000Y-58166000D03*
%TO.P,J1,8,Pin_8*%
%TO.N,/A2*%
X128143000Y-58166000D03*
%TO.P,J1,9,Pin_9*%
%TO.N,/A1*%
X125603000Y-60706000D03*
%TO.P,J1,10,Pin_10*%
%TO.N,/A0*%
X128143000Y-60706000D03*
%TO.P,J1,11,Pin_11*%
%TO.N,/D0*%
X125603000Y-63246000D03*
%TO.P,J1,12,Pin_12*%
%TO.N,/D1*%
X128143000Y-63246000D03*
%TO.P,J1,13,Pin_13*%
%TO.N,/D2*%
X125603000Y-65786000D03*
%TO.P,J1,14,Pin_14*%
%TO.N,GND*%
X128143000Y-65786000D03*
%TO.P,J1,15,Pin_15*%
%TO.N,/D3*%
X125603000Y-68326000D03*
%TO.P,J1,16,Pin_16*%
%TO.N,/D4*%
X128143000Y-68326000D03*
%TO.P,J1,17,Pin_17*%
%TO.N,/D5*%
X125603000Y-70866000D03*
%TO.P,J1,18,Pin_18*%
%TO.N,/D6*%
X128143000Y-70866000D03*
%TO.P,J1,19,Pin_19*%
%TO.N,/D7*%
X125603000Y-73406000D03*
%TO.P,J1,20,Pin_20*%
%TO.N,CS*%
X128143000Y-73406000D03*
%TO.P,J1,21,Pin_21*%
%TO.N,/A10*%
X125603000Y-75946000D03*
%TO.P,J1,22,Pin_22*%
%TO.N,OE*%
X128143000Y-75946000D03*
%TO.P,J1,23,Pin_23*%
%TO.N,/A11*%
X125603000Y-78486000D03*
%TO.P,J1,24,Pin_24*%
%TO.N,/A9*%
X128143000Y-78486000D03*
%TO.P,J1,25,Pin_25*%
%TO.N,/A8*%
X125603000Y-81026000D03*
%TO.P,J1,26,Pin_26*%
%TO.N,/A13*%
X128143000Y-81026000D03*
%TO.P,J1,27,Pin_27*%
%TO.N,+5V*%
X125603000Y-83566000D03*
%TO.P,J1,28,Pin_28*%
X128143000Y-83566000D03*
%TO.P,J1,29,Pin_29*%
%TO.N,GND*%
X125603000Y-86106000D03*
%TO.P,J1,30,Pin_30*%
X128143000Y-86106000D03*
%TD*%
D10*
%TO.P,H1,*%
%TO.N,GND*%
X94000000Y-37000000D03*
%TD*%
D13*
%TO.P,C1,1*%
%TO.N,+5V*%
X118553798Y-108966000D03*
%TO.P,C1,2*%
%TO.N,GND*%
X118553798Y-111466000D03*
%TD*%
D11*
%TO.P,U1,1,A14*%
%TO.N,/A14*%
X112141000Y-42926000D03*
X107061000Y-42926000D03*
D12*
%TO.P,U1,2,A12*%
%TO.N,/A12*%
X107061000Y-45466000D03*
X112141000Y-45466000D03*
%TO.P,U1,3,A7*%
%TO.N,/A7*%
X112141000Y-48006000D03*
X107061000Y-48006000D03*
%TO.P,U1,4,A6*%
%TO.N,/A6*%
X112141000Y-50546000D03*
X107061000Y-50546000D03*
%TO.P,U1,5,A5*%
%TO.N,/A5*%
X107061000Y-53086000D03*
X112141000Y-53086000D03*
%TO.P,U1,6,A4*%
%TO.N,/A4*%
X107061000Y-55626000D03*
X112141000Y-55626000D03*
%TO.P,U1,7,A3*%
%TO.N,/A3*%
X107061000Y-58166000D03*
X112141000Y-58166000D03*
%TO.P,U1,8,A2*%
%TO.N,/A2*%
X107061000Y-60706000D03*
X112141000Y-60706000D03*
%TO.P,U1,9,A1*%
%TO.N,/A1*%
X107061000Y-63246000D03*
X112141000Y-63246000D03*
%TO.P,U1,10,A0*%
%TO.N,/A0*%
X107061000Y-65786000D03*
X112141000Y-65786000D03*
%TO.P,U1,11,D0*%
%TO.N,/D0*%
X107061000Y-68326000D03*
X112141000Y-68326000D03*
%TO.P,U1,12,D1*%
%TO.N,/D1*%
X112141000Y-70866000D03*
X107061000Y-70866000D03*
%TO.P,U1,13,D2*%
%TO.N,/D2*%
X107061000Y-73406000D03*
X112141000Y-73406000D03*
%TO.P,U1,14,GND*%
%TO.N,GND*%
X107061000Y-75946000D03*
X112141000Y-75946000D03*
%TO.P,U1,15,D3*%
%TO.N,/D3*%
X112141000Y-78486000D03*
X107061000Y-78486000D03*
%TO.P,U1,16,D4*%
%TO.N,/D4*%
X112141000Y-81026000D03*
X107061000Y-81026000D03*
%TO.P,U1,17,D5*%
%TO.N,/D5*%
X107061000Y-83566000D03*
X112141000Y-83566000D03*
%TO.P,U1,18,D6*%
%TO.N,/D6*%
X112141000Y-86106000D03*
X107061000Y-86106000D03*
%TO.P,U1,19,D7*%
%TO.N,/D7*%
X112141000Y-88646000D03*
X107061000Y-88646000D03*
%TO.P,U1,20,~CS*%
%TO.N,CS*%
X107061000Y-91186000D03*
X112141000Y-91186000D03*
%TO.P,U1,21,A10*%
%TO.N,/A10*%
X112141000Y-93726000D03*
X107061000Y-93726000D03*
%TO.P,U1,22,~OE*%
%TO.N,OE*%
X107061000Y-96266000D03*
X112141000Y-96266000D03*
%TO.P,U1,23,A11*%
%TO.N,/A11*%
X107061000Y-98806000D03*
X112141000Y-98806000D03*
%TO.P,U1,24,A9*%
%TO.N,/A9*%
X107061000Y-101346000D03*
X112141000Y-101346000D03*
%TO.P,U1,25,A8*%
%TO.N,/A8*%
X107061000Y-103886000D03*
X112141000Y-103886000D03*
%TO.P,U1,26,A13*%
%TO.N,/A13*%
X107061000Y-106426000D03*
X112141000Y-106426000D03*
%TO.P,U1,27,~WE*%
%TO.N,+5V*%
X107061000Y-108966000D03*
X112141000Y-108966000D03*
%TO.P,U1,28,VCC*%
X107061000Y-111506000D03*
X112141000Y-111506000D03*
%TO.P,U1,29*%
%TO.N,GND*%
X112141000Y-114046000D03*
X107061000Y-114046000D03*
%TO.P,U1,30*%
X107061000Y-116586000D03*
X112141000Y-116586000D03*
%TD*%
D14*
%TO.N,/A13*%
X126873000Y-82296000D02*
X128143000Y-81026000D01*
X124333000Y-82296000D02*
X126873000Y-82296000D01*
X123571000Y-83058000D02*
X123571000Y-94996000D01*
X112141000Y-106426000D02*
X123571000Y-94996000D01*
X123571000Y-83058000D02*
X124333000Y-82296000D01*
%TO.N,/A9*%
X122555000Y-82334998D02*
X125133998Y-79756000D01*
X112141000Y-101346000D02*
X122555000Y-90932000D01*
X125133998Y-79756000D02*
X126873000Y-79756000D01*
X122555000Y-90932000D02*
X122555000Y-82334998D01*
X126873000Y-79756000D02*
X128143000Y-78486000D01*
%TO.N,OE*%
X112141000Y-96266000D02*
X121539000Y-86868000D01*
X121539000Y-80010000D02*
X124333000Y-77216000D01*
X124333000Y-77216000D02*
X126873000Y-77216000D01*
X126873000Y-77216000D02*
X128143000Y-75946000D01*
X121539000Y-86868000D02*
X121539000Y-80010000D01*
%TO.N,CS*%
X112141000Y-91186000D02*
X120523000Y-82804000D01*
X120523000Y-78486000D02*
X124333000Y-74676000D01*
X124333000Y-74676000D02*
X126873000Y-74676000D01*
X120523000Y-82804000D02*
X120523000Y-78486000D01*
X126873000Y-74676000D02*
X128143000Y-73406000D01*
%TO.N,/D6*%
X126873000Y-72136000D02*
X128143000Y-70866000D01*
X119507000Y-78740000D02*
X119507000Y-76962000D01*
X119507000Y-76962000D02*
X124333000Y-72136000D01*
X124333000Y-72136000D02*
X126873000Y-72136000D01*
X112141000Y-86106000D02*
X119507000Y-78740000D01*
%TO.N,/D4*%
X126619000Y-69596000D02*
X127889000Y-68326000D01*
X112903000Y-81026000D02*
X117475000Y-76454000D01*
X112141000Y-81026000D02*
X112903000Y-81026000D01*
X124333000Y-69596000D02*
X126619000Y-69596000D01*
X117475000Y-76454000D02*
X124333000Y-69596000D01*
%TO.N,/D1*%
X126873000Y-64516000D02*
X128143000Y-63246000D01*
X124333000Y-64516000D02*
X126873000Y-64516000D01*
X117983000Y-70866000D02*
X124333000Y-64516000D01*
X112141000Y-70866000D02*
X117983000Y-70866000D01*
%TO.N,/A0*%
X120523000Y-65786000D02*
X124333000Y-61976000D01*
X126873000Y-61976000D02*
X128143000Y-60706000D01*
X124333000Y-61976000D02*
X126873000Y-61976000D01*
X112141000Y-65786000D02*
X120523000Y-65786000D01*
%TO.N,/A2*%
X112141000Y-60706000D02*
X123063000Y-60706000D01*
X124333000Y-59436000D02*
X126873000Y-59436000D01*
X126873000Y-59436000D02*
X128143000Y-58166000D01*
X123063000Y-60706000D02*
X124333000Y-59436000D01*
%TO.N,/A4*%
X124333000Y-56896000D02*
X126873000Y-56896000D01*
X126873000Y-56896000D02*
X128143000Y-55626000D01*
X112141000Y-55626000D02*
X123063000Y-55626000D01*
X123063000Y-55626000D02*
X124333000Y-56896000D01*
%TO.N,/A6*%
X126873000Y-51816000D02*
X128143000Y-53086000D01*
X123063000Y-50546000D02*
X124333000Y-51816000D01*
X124333000Y-51816000D02*
X126873000Y-51816000D01*
X112141000Y-50546000D02*
X123063000Y-50546000D01*
%TO.N,/A12*%
X119761000Y-45466000D02*
X123571000Y-49276000D01*
X126873000Y-49276000D02*
X128143000Y-50546000D01*
X112141000Y-45466000D02*
X119761000Y-45466000D01*
X123571000Y-49276000D02*
X126873000Y-49276000D01*
%TD*%
%TA.AperFunction,Conductor*%
%TO.N,GND*%
G36*
X128939245Y-32509707D02*
G01*
X128951700Y-32511779D01*
X128951709Y-32511780D01*
X128956496Y-32512576D01*
X129134383Y-32514420D01*
X129138514Y-32514531D01*
X129187749Y-32516681D01*
X129233480Y-32518678D01*
X129238964Y-32519037D01*
X129413802Y-32534333D01*
X129542780Y-32545617D01*
X129548210Y-32546212D01*
X129594932Y-32552363D01*
X129623181Y-32556082D01*
X129628613Y-32556918D01*
X129733849Y-32575473D01*
X129928950Y-32609875D01*
X129934266Y-32610932D01*
X130008119Y-32627305D01*
X130013452Y-32628610D01*
X130308022Y-32707540D01*
X130313274Y-32709071D01*
X130385420Y-32731818D01*
X130390565Y-32733565D01*
X130549632Y-32791461D01*
X130677147Y-32837873D01*
X130682270Y-32839865D01*
X130752131Y-32868802D01*
X130757163Y-32871016D01*
X130890484Y-32933184D01*
X131033493Y-32999870D01*
X131038424Y-33002302D01*
X131105533Y-33037237D01*
X131110352Y-33039881D01*
X131374412Y-33192337D01*
X131379112Y-33195189D01*
X131442869Y-33235807D01*
X131447440Y-33238861D01*
X131697237Y-33413771D01*
X131701653Y-33417008D01*
X131761676Y-33463066D01*
X131765941Y-33466489D01*
X131999519Y-33662484D01*
X132003652Y-33666109D01*
X132059445Y-33717234D01*
X132063416Y-33721036D01*
X132278975Y-33936595D01*
X132282777Y-33940566D01*
X132333888Y-33996344D01*
X132337513Y-34000477D01*
X132356064Y-34022585D01*
X132533516Y-34234064D01*
X132536938Y-34238329D01*
X132569673Y-34280990D01*
X132582989Y-34298344D01*
X132586239Y-34302776D01*
X132761140Y-34552560D01*
X132764167Y-34557090D01*
X132804811Y-34620888D01*
X132804817Y-34620897D01*
X132807668Y-34625596D01*
X132960115Y-34889642D01*
X132962760Y-34894462D01*
X132997696Y-34961574D01*
X133000127Y-34966504D01*
X133074376Y-35125731D01*
X133128984Y-35242837D01*
X133128995Y-35242861D01*
X133131193Y-35247856D01*
X133160160Y-35317789D01*
X133162120Y-35322832D01*
X133266422Y-35609397D01*
X133268176Y-35614561D01*
X133290925Y-35686711D01*
X133292463Y-35691988D01*
X133371391Y-35986551D01*
X133372697Y-35991890D01*
X133389052Y-36065661D01*
X133390123Y-36071045D01*
X133421368Y-36248237D01*
X133443084Y-36371396D01*
X133443920Y-36376830D01*
X133453784Y-36451758D01*
X133454382Y-36457222D01*
X133480963Y-36761027D01*
X133481321Y-36766475D01*
X133485468Y-36861457D01*
X133485580Y-36865620D01*
X133487390Y-37040226D01*
X133488070Y-37044646D01*
X133488070Y-37044648D01*
X133490536Y-37060679D01*
X133492000Y-37079834D01*
X133492000Y-121918573D01*
X133490293Y-121939245D01*
X133488221Y-121951700D01*
X133488220Y-121951709D01*
X133487424Y-121956496D01*
X133485580Y-122134383D01*
X133485469Y-122138514D01*
X133483495Y-122183711D01*
X133481322Y-122233478D01*
X133480963Y-122238962D01*
X133469977Y-122364539D01*
X133454393Y-122542678D01*
X133454385Y-122542765D01*
X133453788Y-122548210D01*
X133453429Y-122550940D01*
X133443918Y-122623181D01*
X133443082Y-122628613D01*
X133429714Y-122704427D01*
X133390125Y-122928950D01*
X133389066Y-122934275D01*
X133372689Y-123008143D01*
X133371392Y-123013444D01*
X133292461Y-123308012D01*
X133290924Y-123313287D01*
X133268189Y-123385397D01*
X133266423Y-123390598D01*
X133162117Y-123677175D01*
X133160163Y-123682202D01*
X133131181Y-123752172D01*
X133128990Y-123757151D01*
X133000126Y-124033500D01*
X132997695Y-124038429D01*
X132962757Y-124105544D01*
X132960149Y-124110300D01*
X132829907Y-124335885D01*
X132807670Y-124374400D01*
X132804818Y-124379099D01*
X132764180Y-124442888D01*
X132761126Y-124447458D01*
X132586246Y-124697214D01*
X132583011Y-124701628D01*
X132536920Y-124761694D01*
X132533497Y-124765958D01*
X132337513Y-124999522D01*
X132333889Y-125003655D01*
X132282777Y-125059434D01*
X132278975Y-125063405D01*
X132063416Y-125278964D01*
X132059446Y-125282766D01*
X132003652Y-125333892D01*
X131999518Y-125337517D01*
X131765947Y-125533506D01*
X131761670Y-125536939D01*
X131701627Y-125583011D01*
X131697242Y-125586227D01*
X131447445Y-125761137D01*
X131442922Y-125764159D01*
X131379101Y-125804818D01*
X131379093Y-125804823D01*
X131374394Y-125807674D01*
X131110350Y-125960120D01*
X131105531Y-125962764D01*
X131093036Y-125969269D01*
X131038425Y-125997698D01*
X131033541Y-126000106D01*
X130871511Y-126075662D01*
X130757148Y-126128990D01*
X130752121Y-126131202D01*
X130682233Y-126160151D01*
X130677142Y-126162130D01*
X130390603Y-126266421D01*
X130390598Y-126266423D01*
X130385393Y-126268190D01*
X130313300Y-126290921D01*
X130308031Y-126292457D01*
X130160739Y-126331924D01*
X130013456Y-126371389D01*
X130008118Y-126372695D01*
X129934302Y-126389060D01*
X129928958Y-126390123D01*
X129628581Y-126443088D01*
X129623189Y-126443917D01*
X129574465Y-126450332D01*
X129548241Y-126453784D01*
X129542778Y-126454382D01*
X129238973Y-126480963D01*
X129233525Y-126481321D01*
X129138515Y-126485469D01*
X129134380Y-126485580D01*
X128959774Y-126487390D01*
X128955354Y-126488070D01*
X128955352Y-126488070D01*
X128949585Y-126488957D01*
X128939318Y-126490536D01*
X128920166Y-126492000D01*
X94081427Y-126492000D01*
X94060755Y-126490293D01*
X94048300Y-126488221D01*
X94048291Y-126488220D01*
X94043504Y-126487424D01*
X93865617Y-126485580D01*
X93861486Y-126485469D01*
X93816289Y-126483495D01*
X93766522Y-126481322D01*
X93761038Y-126480963D01*
X93574133Y-126464612D01*
X93457219Y-126454383D01*
X93451790Y-126453788D01*
X93405068Y-126447637D01*
X93376819Y-126443918D01*
X93371387Y-126443082D01*
X93254403Y-126422455D01*
X93071050Y-126390125D01*
X93065725Y-126389066D01*
X92991857Y-126372689D01*
X92986556Y-126371392D01*
X92691988Y-126292461D01*
X92686713Y-126290924D01*
X92614603Y-126268189D01*
X92609396Y-126266421D01*
X92608506Y-126266097D01*
X92322825Y-126162117D01*
X92317798Y-126160163D01*
X92247828Y-126131181D01*
X92242862Y-126128996D01*
X91966500Y-126000126D01*
X91961571Y-125997695D01*
X91942854Y-125987952D01*
X91894456Y-125962757D01*
X91889700Y-125960149D01*
X91625600Y-125807670D01*
X91620901Y-125804818D01*
X91557112Y-125764180D01*
X91552542Y-125761126D01*
X91302786Y-125586246D01*
X91298372Y-125583011D01*
X91238306Y-125536920D01*
X91234042Y-125533497D01*
X91000478Y-125337513D01*
X90996345Y-125333889D01*
X90940566Y-125282777D01*
X90936595Y-125278975D01*
X90721036Y-125063416D01*
X90717234Y-125059446D01*
X90666108Y-125003652D01*
X90662483Y-124999518D01*
X90466494Y-124765947D01*
X90463054Y-124761661D01*
X90416989Y-124701627D01*
X90413764Y-124697229D01*
X90238863Y-124447445D01*
X90235841Y-124442922D01*
X90195176Y-124379091D01*
X90192326Y-124374394D01*
X90039880Y-124110350D01*
X90037236Y-124105531D01*
X90013999Y-124060894D01*
X90002302Y-124038425D01*
X89999894Y-124033541D01*
X89871010Y-123757148D01*
X89868796Y-123752117D01*
X89867830Y-123749785D01*
X89839849Y-123682233D01*
X89837867Y-123677133D01*
X89831887Y-123660699D01*
X92704573Y-123660699D01*
X92711628Y-123670671D01*
X92754718Y-123706701D01*
X92761650Y-123711736D01*
X92997860Y-123859911D01*
X93005412Y-123863960D01*
X93259555Y-123978711D01*
X93267586Y-123981697D01*
X93534950Y-124060894D01*
X93543302Y-124062761D01*
X93818947Y-124104940D01*
X93827481Y-124105656D01*
X94106295Y-124110037D01*
X94114846Y-124109588D01*
X94391673Y-124076089D01*
X94400087Y-124074484D01*
X94669810Y-124003724D01*
X94677926Y-124000993D01*
X94935549Y-123894281D01*
X94943217Y-123890475D01*
X95183979Y-123749785D01*
X95191060Y-123744972D01*
X95285935Y-123670581D01*
X95294406Y-123658721D01*
X95287890Y-123647100D01*
X94012812Y-122372022D01*
X93998868Y-122364408D01*
X93997035Y-122364539D01*
X93990420Y-122368790D01*
X92711865Y-123647345D01*
X92704573Y-123660699D01*
X89831887Y-123660699D01*
X89831156Y-123658693D01*
X89733576Y-123390596D01*
X89731810Y-123385393D01*
X89709079Y-123313300D01*
X89707540Y-123308022D01*
X89707538Y-123308012D01*
X89628608Y-123013444D01*
X89627305Y-123008118D01*
X89627302Y-123008104D01*
X89610940Y-122934302D01*
X89609873Y-122928938D01*
X89609870Y-122928921D01*
X89556912Y-122628581D01*
X89556080Y-122623171D01*
X89554971Y-122614742D01*
X89546216Y-122548241D01*
X89545618Y-122542778D01*
X89519037Y-122238973D01*
X89518679Y-122233525D01*
X89514531Y-122138515D01*
X89514419Y-122134353D01*
X89513460Y-122041777D01*
X89512842Y-121982153D01*
X91887363Y-121982153D01*
X91903415Y-122260542D01*
X91904488Y-122269042D01*
X91958174Y-122542678D01*
X91960387Y-122550940D01*
X92050714Y-122814765D01*
X92054030Y-122822651D01*
X92179325Y-123071774D01*
X92183681Y-123079140D01*
X92327378Y-123288218D01*
X92337633Y-123296563D01*
X92351373Y-123289417D01*
X93627978Y-122012812D01*
X93634355Y-122001132D01*
X94364408Y-122001132D01*
X94364539Y-122002965D01*
X94368790Y-122009580D01*
X95647318Y-123288108D01*
X95659527Y-123294775D01*
X95671027Y-123286085D01*
X95781524Y-123135661D01*
X95786111Y-123128433D01*
X95919166Y-122883377D01*
X95922734Y-122875583D01*
X96021298Y-122614742D01*
X96023775Y-122606536D01*
X96086027Y-122334730D01*
X96087367Y-122326269D01*
X96112317Y-122046716D01*
X96112563Y-122041777D01*
X96112974Y-122002485D01*
X96112831Y-121997519D01*
X96093742Y-121717510D01*
X96092581Y-121709036D01*
X96036032Y-121435969D01*
X96033733Y-121427734D01*
X95940647Y-121164868D01*
X95937250Y-121157018D01*
X95809350Y-120909216D01*
X95804922Y-120901904D01*
X95671865Y-120712583D01*
X95661343Y-120704203D01*
X95647955Y-120711255D01*
X94372022Y-121987188D01*
X94364408Y-122001132D01*
X93634355Y-122001132D01*
X93635592Y-121998868D01*
X93635461Y-121997035D01*
X93631210Y-121990420D01*
X92352107Y-120711317D01*
X92340097Y-120704758D01*
X92328357Y-120713726D01*
X92206685Y-120883052D01*
X92202163Y-120890346D01*
X92071689Y-121136768D01*
X92068203Y-121144596D01*
X91972372Y-121406468D01*
X91969986Y-121414679D01*
X91910581Y-121687137D01*
X91909332Y-121695599D01*
X91887452Y-121973603D01*
X91887363Y-121982153D01*
X89512842Y-121982153D01*
X89512610Y-121959774D01*
X89509464Y-121939318D01*
X89508000Y-121920166D01*
X89508000Y-120341307D01*
X92705390Y-120341307D01*
X92711785Y-120352575D01*
X93987188Y-121627978D01*
X94001132Y-121635592D01*
X94002965Y-121635461D01*
X94009580Y-121631210D01*
X95287720Y-120353070D01*
X95294911Y-120339901D01*
X95287589Y-120329664D01*
X95227339Y-120280351D01*
X95220367Y-120275396D01*
X94982595Y-120129688D01*
X94975025Y-120125731D01*
X94719682Y-120013644D01*
X94711622Y-120010742D01*
X94443445Y-119934350D01*
X94435070Y-119932570D01*
X94159004Y-119893280D01*
X94150456Y-119892653D01*
X93871610Y-119891192D01*
X93863076Y-119891729D01*
X93586606Y-119928127D01*
X93578208Y-119929820D01*
X93309250Y-120003399D01*
X93301155Y-120006218D01*
X93044660Y-120115622D01*
X93037038Y-120119506D01*
X92797767Y-120262707D01*
X92790729Y-120267598D01*
X92713860Y-120329181D01*
X92705390Y-120341307D01*
X89508000Y-120341307D01*
X89508000Y-116858423D01*
X105729255Y-116858423D01*
X105737638Y-116910471D01*
X105740212Y-116920793D01*
X105811230Y-117128810D01*
X105815497Y-117138533D01*
X105920556Y-117331625D01*
X105926402Y-117340491D01*
X106062486Y-117513113D01*
X106069750Y-117520875D01*
X106232967Y-117668094D01*
X106241444Y-117674528D01*
X106427122Y-117792136D01*
X106436567Y-117797053D01*
X106639406Y-117881694D01*
X106649545Y-117884950D01*
X106789345Y-117917096D01*
X106803422Y-117916257D01*
X106807000Y-117906999D01*
X106807000Y-116858115D01*
X106805659Y-116853548D01*
X107315000Y-116853548D01*
X107315000Y-117905941D01*
X107319151Y-117920079D01*
X107329798Y-117921774D01*
X107333192Y-117921096D01*
X107544333Y-117859954D01*
X107554259Y-117856143D01*
X107752065Y-117760307D01*
X107761212Y-117754876D01*
X107940041Y-117627083D01*
X107948149Y-117620182D01*
X108102893Y-117464082D01*
X108109706Y-117455933D01*
X108235940Y-117275988D01*
X108241295Y-117266787D01*
X108335399Y-117068156D01*
X108339123Y-117058197D01*
X108395089Y-116858423D01*
X110809255Y-116858423D01*
X110817638Y-116910471D01*
X110820212Y-116920793D01*
X110891230Y-117128810D01*
X110895497Y-117138533D01*
X111000556Y-117331625D01*
X111006402Y-117340491D01*
X111142486Y-117513113D01*
X111149750Y-117520875D01*
X111312967Y-117668094D01*
X111321444Y-117674528D01*
X111507122Y-117792136D01*
X111516567Y-117797053D01*
X111719406Y-117881694D01*
X111729545Y-117884950D01*
X111869345Y-117917096D01*
X111883422Y-117916257D01*
X111887000Y-117906999D01*
X111887000Y-116858115D01*
X111885659Y-116853548D01*
X112395000Y-116853548D01*
X112395000Y-117905941D01*
X112399151Y-117920079D01*
X112409798Y-117921774D01*
X112413192Y-117921096D01*
X112624333Y-117859954D01*
X112634259Y-117856143D01*
X112832065Y-117760307D01*
X112841212Y-117754876D01*
X113020041Y-117627083D01*
X113028149Y-117620182D01*
X113182893Y-117464082D01*
X113189706Y-117455933D01*
X113315940Y-117275988D01*
X113321295Y-117266787D01*
X113415399Y-117068156D01*
X113419123Y-117058197D01*
X113476968Y-116851718D01*
X113475430Y-116843351D01*
X113463137Y-116840000D01*
X112413115Y-116840000D01*
X112397876Y-116844475D01*
X112396671Y-116845865D01*
X112395000Y-116853548D01*
X111885659Y-116853548D01*
X111882525Y-116842876D01*
X111881135Y-116841671D01*
X111873452Y-116840000D01*
X110824403Y-116840000D01*
X110811222Y-116843870D01*
X110809255Y-116858423D01*
X108395089Y-116858423D01*
X108396968Y-116851718D01*
X108395430Y-116843351D01*
X108383137Y-116840000D01*
X107333115Y-116840000D01*
X107317876Y-116844475D01*
X107316671Y-116845865D01*
X107315000Y-116853548D01*
X106805659Y-116853548D01*
X106802525Y-116842876D01*
X106801135Y-116841671D01*
X106793452Y-116840000D01*
X105744403Y-116840000D01*
X105731222Y-116843870D01*
X105729255Y-116858423D01*
X89508000Y-116858423D01*
X89508000Y-114318423D01*
X105729255Y-114318423D01*
X105737638Y-114370471D01*
X105740212Y-114380793D01*
X105811230Y-114588810D01*
X105815497Y-114598533D01*
X105920556Y-114791625D01*
X105926402Y-114800491D01*
X106062486Y-114973113D01*
X106069750Y-114980875D01*
X106232967Y-115128094D01*
X106241444Y-115134528D01*
X106360188Y-115209740D01*
X106407033Y-115263088D01*
X106417600Y-115333294D01*
X106388533Y-115398067D01*
X106358132Y-115423903D01*
X106262486Y-115481942D01*
X106253896Y-115488206D01*
X106087884Y-115632264D01*
X106080464Y-115639895D01*
X105941100Y-115809860D01*
X105935075Y-115818627D01*
X105826342Y-116009644D01*
X105821877Y-116019308D01*
X105746882Y-116225916D01*
X105744111Y-116236184D01*
X105730008Y-116314174D01*
X105731427Y-116327414D01*
X105746062Y-116332000D01*
X106788885Y-116332000D01*
X106804124Y-116327525D01*
X106805329Y-116326135D01*
X106807000Y-116318452D01*
X106807000Y-114318115D01*
X106805659Y-114313548D01*
X107315000Y-114313548D01*
X107315000Y-116313885D01*
X107319475Y-116329124D01*
X107320865Y-116330329D01*
X107328548Y-116332000D01*
X108380079Y-116332000D01*
X108393610Y-116328027D01*
X108394876Y-116319218D01*
X108347954Y-116138433D01*
X108344419Y-116128395D01*
X108254147Y-115927998D01*
X108248967Y-115918692D01*
X108126218Y-115736366D01*
X108119557Y-115728080D01*
X107967830Y-115569030D01*
X107959873Y-115561990D01*
X107783524Y-115430783D01*
X107770523Y-115422721D01*
X107723170Y-115369823D01*
X107711933Y-115299721D01*
X107740380Y-115234673D01*
X107763666Y-115213122D01*
X107940041Y-115087083D01*
X107948149Y-115080182D01*
X108102893Y-114924082D01*
X108109706Y-114915933D01*
X108235940Y-114735988D01*
X108241295Y-114726787D01*
X108335399Y-114528156D01*
X108339123Y-114518197D01*
X108395089Y-114318423D01*
X110809255Y-114318423D01*
X110817638Y-114370471D01*
X110820212Y-114380793D01*
X110891230Y-114588810D01*
X110895497Y-114598533D01*
X111000556Y-114791625D01*
X111006402Y-114800491D01*
X111142486Y-114973113D01*
X111149750Y-114980875D01*
X111312967Y-115128094D01*
X111321444Y-115134528D01*
X111440188Y-115209740D01*
X111487033Y-115263088D01*
X111497600Y-115333294D01*
X111468533Y-115398067D01*
X111438132Y-115423903D01*
X111342486Y-115481942D01*
X111333896Y-115488206D01*
X111167884Y-115632264D01*
X111160464Y-115639895D01*
X111021100Y-115809860D01*
X111015075Y-115818627D01*
X110906342Y-116009644D01*
X110901877Y-116019308D01*
X110826882Y-116225916D01*
X110824111Y-116236184D01*
X110810008Y-116314174D01*
X110811427Y-116327414D01*
X110826062Y-116332000D01*
X111868885Y-116332000D01*
X111884124Y-116327525D01*
X111885329Y-116326135D01*
X111887000Y-116318452D01*
X111887000Y-114318115D01*
X111885659Y-114313548D01*
X112395000Y-114313548D01*
X112395000Y-116313885D01*
X112399475Y-116329124D01*
X112400865Y-116330329D01*
X112408548Y-116332000D01*
X113460079Y-116332000D01*
X113473610Y-116328027D01*
X113474876Y-116319218D01*
X113427954Y-116138433D01*
X113424419Y-116128395D01*
X113334147Y-115927998D01*
X113328967Y-115918692D01*
X113206218Y-115736366D01*
X113199557Y-115728080D01*
X113047830Y-115569030D01*
X113039873Y-115561990D01*
X112863524Y-115430783D01*
X112850523Y-115422721D01*
X112803170Y-115369823D01*
X112791933Y-115299721D01*
X112820380Y-115234673D01*
X112843666Y-115213122D01*
X113020041Y-115087083D01*
X113028149Y-115080182D01*
X113182893Y-114924082D01*
X113189706Y-114915933D01*
X113315940Y-114735988D01*
X113321295Y-114726787D01*
X113415399Y-114528156D01*
X113419123Y-114518197D01*
X113476968Y-114311718D01*
X113475430Y-114303351D01*
X113463137Y-114300000D01*
X112413115Y-114300000D01*
X112397876Y-114304475D01*
X112396671Y-114305865D01*
X112395000Y-114313548D01*
X111885659Y-114313548D01*
X111882525Y-114302876D01*
X111881135Y-114301671D01*
X111873452Y-114300000D01*
X110824403Y-114300000D01*
X110811222Y-114303870D01*
X110809255Y-114318423D01*
X108395089Y-114318423D01*
X108396968Y-114311718D01*
X108395430Y-114303351D01*
X108383137Y-114300000D01*
X107333115Y-114300000D01*
X107317876Y-114304475D01*
X107316671Y-114305865D01*
X107315000Y-114313548D01*
X106805659Y-114313548D01*
X106802525Y-114302876D01*
X106801135Y-114301671D01*
X106793452Y-114300000D01*
X105744403Y-114300000D01*
X105731222Y-114303870D01*
X105729255Y-114318423D01*
X89508000Y-114318423D01*
X89508000Y-78588233D01*
X105701338Y-78588233D01*
X105738002Y-78815861D01*
X105812494Y-79034056D01*
X105922685Y-79236580D01*
X106065424Y-79417644D01*
X106069389Y-79421220D01*
X106232659Y-79568489D01*
X106232665Y-79568494D01*
X106236629Y-79572069D01*
X106241142Y-79574928D01*
X106241144Y-79574929D01*
X106359242Y-79649731D01*
X106406087Y-79703079D01*
X106416654Y-79773285D01*
X106387587Y-79838058D01*
X106357186Y-79863894D01*
X106262196Y-79921535D01*
X106262189Y-79921540D01*
X106257631Y-79924306D01*
X106253601Y-79927803D01*
X106160426Y-80008656D01*
X106083492Y-80075415D01*
X106080109Y-80079541D01*
X106080105Y-80079545D01*
X106007768Y-80167767D01*
X105937304Y-80253705D01*
X105934665Y-80258341D01*
X105934663Y-80258344D01*
X105859558Y-80390285D01*
X105823245Y-80454077D01*
X105744578Y-80670802D01*
X105743629Y-80676051D01*
X105743628Y-80676054D01*
X105721890Y-80796265D01*
X105703551Y-80897683D01*
X105703500Y-80903023D01*
X105702097Y-81049210D01*
X105701338Y-81128233D01*
X105738002Y-81355861D01*
X105812494Y-81574056D01*
X105922685Y-81776580D01*
X106065424Y-81957644D01*
X106069389Y-81961220D01*
X106232659Y-82108489D01*
X106232665Y-82108494D01*
X106236629Y-82112069D01*
X106241142Y-82114928D01*
X106241144Y-82114929D01*
X106359242Y-82189731D01*
X106406087Y-82243079D01*
X106416654Y-82313285D01*
X106387587Y-82378058D01*
X106357186Y-82403894D01*
X106262196Y-82461535D01*
X106262189Y-82461540D01*
X106257631Y-82464306D01*
X106253601Y-82467803D01*
X106150204Y-82557526D01*
X106083492Y-82615415D01*
X106080109Y-82619541D01*
X106080105Y-82619545D01*
X106007768Y-82707767D01*
X105937304Y-82793705D01*
X105934665Y-82798341D01*
X105934663Y-82798344D01*
X105859558Y-82930285D01*
X105823245Y-82994077D01*
X105744578Y-83210802D01*
X105743629Y-83216051D01*
X105743628Y-83216054D01*
X105721890Y-83336265D01*
X105703551Y-83437683D01*
X105702919Y-83503537D01*
X105702097Y-83589210D01*
X105701338Y-83668233D01*
X105738002Y-83895861D01*
X105812494Y-84114056D01*
X105922685Y-84316580D01*
X106065424Y-84497644D01*
X106069389Y-84501220D01*
X106232659Y-84648489D01*
X106232665Y-84648494D01*
X106236629Y-84652069D01*
X106241142Y-84654928D01*
X106241144Y-84654929D01*
X106359242Y-84729731D01*
X106406087Y-84783079D01*
X106416654Y-84853285D01*
X106387587Y-84918058D01*
X106357186Y-84943894D01*
X106262196Y-85001535D01*
X106262189Y-85001540D01*
X106257631Y-85004306D01*
X106253601Y-85007803D01*
X106159995Y-85089030D01*
X106083492Y-85155415D01*
X106080109Y-85159541D01*
X106080105Y-85159545D01*
X106007768Y-85247767D01*
X105937304Y-85333705D01*
X105934665Y-85338341D01*
X105934663Y-85338344D01*
X105875156Y-85442882D01*
X105823245Y-85534077D01*
X105744578Y-85750802D01*
X105743629Y-85756051D01*
X105743628Y-85756054D01*
X105721890Y-85876265D01*
X105703551Y-85977683D01*
X105703500Y-85983023D01*
X105702097Y-86129210D01*
X105701338Y-86208233D01*
X105738002Y-86435861D01*
X105812494Y-86654056D01*
X105922685Y-86856580D01*
X106065424Y-87037644D01*
X106069389Y-87041220D01*
X106232659Y-87188489D01*
X106232665Y-87188494D01*
X106236629Y-87192069D01*
X106241142Y-87194928D01*
X106241144Y-87194929D01*
X106359242Y-87269731D01*
X106406087Y-87323079D01*
X106416654Y-87393285D01*
X106387587Y-87458058D01*
X106357186Y-87483894D01*
X106262196Y-87541535D01*
X106262189Y-87541540D01*
X106257631Y-87544306D01*
X106253601Y-87547803D01*
X106094810Y-87685594D01*
X106083492Y-87695415D01*
X106080109Y-87699541D01*
X106080105Y-87699545D01*
X106007768Y-87787767D01*
X105937304Y-87873705D01*
X105823245Y-88074077D01*
X105744578Y-88290802D01*
X105743629Y-88296051D01*
X105743628Y-88296054D01*
X105721890Y-88416265D01*
X105703551Y-88517683D01*
X105703500Y-88523023D01*
X105702097Y-88669210D01*
X105701338Y-88748233D01*
X105738002Y-88975861D01*
X105812494Y-89194056D01*
X105922685Y-89396580D01*
X106065424Y-89577644D01*
X106069389Y-89581220D01*
X106232659Y-89728489D01*
X106232665Y-89728494D01*
X106236629Y-89732069D01*
X106241142Y-89734928D01*
X106241144Y-89734929D01*
X106359242Y-89809731D01*
X106406087Y-89863079D01*
X106416654Y-89933285D01*
X106387587Y-89998058D01*
X106357186Y-90023894D01*
X106262196Y-90081535D01*
X106262189Y-90081540D01*
X106257631Y-90084306D01*
X106253601Y-90087803D01*
X106160426Y-90168656D01*
X106083492Y-90235415D01*
X106080109Y-90239541D01*
X106080105Y-90239545D01*
X106007768Y-90327767D01*
X105937304Y-90413705D01*
X105823245Y-90614077D01*
X105744578Y-90830802D01*
X105743629Y-90836051D01*
X105743628Y-90836054D01*
X105721890Y-90956265D01*
X105703551Y-91057683D01*
X105703500Y-91063023D01*
X105702097Y-91209210D01*
X105701338Y-91288233D01*
X105738002Y-91515861D01*
X105812494Y-91734056D01*
X105815044Y-91738743D01*
X105815045Y-91738745D01*
X105867589Y-91835318D01*
X105922685Y-91936580D01*
X106065424Y-92117644D01*
X106069389Y-92121220D01*
X106232659Y-92268489D01*
X106232665Y-92268494D01*
X106236629Y-92272069D01*
X106241142Y-92274928D01*
X106241144Y-92274929D01*
X106359242Y-92349731D01*
X106406087Y-92403079D01*
X106416654Y-92473285D01*
X106387587Y-92538058D01*
X106357186Y-92563894D01*
X106262196Y-92621535D01*
X106262189Y-92621540D01*
X106257631Y-92624306D01*
X106253601Y-92627803D01*
X106160426Y-92708656D01*
X106083492Y-92775415D01*
X106080109Y-92779541D01*
X106080105Y-92779545D01*
X106007768Y-92867767D01*
X105937304Y-92953705D01*
X105823245Y-93154077D01*
X105744578Y-93370802D01*
X105743629Y-93376051D01*
X105743628Y-93376054D01*
X105721890Y-93496265D01*
X105703551Y-93597683D01*
X105703500Y-93603023D01*
X105702097Y-93749210D01*
X105701338Y-93828233D01*
X105738002Y-94055861D01*
X105812494Y-94274056D01*
X105922685Y-94476580D01*
X106065424Y-94657644D01*
X106069389Y-94661220D01*
X106232659Y-94808489D01*
X106232665Y-94808494D01*
X106236629Y-94812069D01*
X106241142Y-94814928D01*
X106241144Y-94814929D01*
X106359242Y-94889731D01*
X106406087Y-94943079D01*
X106416654Y-95013285D01*
X106387587Y-95078058D01*
X106357186Y-95103894D01*
X106262196Y-95161535D01*
X106262189Y-95161540D01*
X106257631Y-95164306D01*
X106253601Y-95167803D01*
X106130069Y-95274998D01*
X106083492Y-95315415D01*
X106080109Y-95319541D01*
X106080105Y-95319545D01*
X106001045Y-95415967D01*
X105937304Y-95493705D01*
X105823245Y-95694077D01*
X105744578Y-95910802D01*
X105743629Y-95916051D01*
X105743628Y-95916054D01*
X105721890Y-96036265D01*
X105703551Y-96137683D01*
X105703500Y-96143023D01*
X105702097Y-96289210D01*
X105701338Y-96368233D01*
X105738002Y-96595861D01*
X105812494Y-96814056D01*
X105922685Y-97016580D01*
X106065424Y-97197644D01*
X106069389Y-97201220D01*
X106232659Y-97348489D01*
X106232665Y-97348494D01*
X106236629Y-97352069D01*
X106241142Y-97354928D01*
X106241144Y-97354929D01*
X106359242Y-97429731D01*
X106406087Y-97483079D01*
X106416654Y-97553285D01*
X106387587Y-97618058D01*
X106357186Y-97643894D01*
X106262196Y-97701535D01*
X106262189Y-97701540D01*
X106257631Y-97704306D01*
X106253601Y-97707803D01*
X106160426Y-97788656D01*
X106083492Y-97855415D01*
X106080109Y-97859541D01*
X106080105Y-97859545D01*
X106007768Y-97947767D01*
X105937304Y-98033705D01*
X105823245Y-98234077D01*
X105744578Y-98450802D01*
X105743629Y-98456051D01*
X105743628Y-98456054D01*
X105721890Y-98576265D01*
X105703551Y-98677683D01*
X105703500Y-98683023D01*
X105702097Y-98829210D01*
X105701338Y-98908233D01*
X105738002Y-99135861D01*
X105812494Y-99354056D01*
X105922685Y-99556580D01*
X106065424Y-99737644D01*
X106069389Y-99741220D01*
X106232659Y-99888489D01*
X106232665Y-99888494D01*
X106236629Y-99892069D01*
X106241142Y-99894928D01*
X106241144Y-99894929D01*
X106359242Y-99969731D01*
X106406087Y-100023079D01*
X106416654Y-100093285D01*
X106387587Y-100158058D01*
X106357186Y-100183894D01*
X106262196Y-100241535D01*
X106262189Y-100241540D01*
X106257631Y-100244306D01*
X106253601Y-100247803D01*
X106160426Y-100328656D01*
X106083492Y-100395415D01*
X106080109Y-100399541D01*
X106080105Y-100399545D01*
X106007768Y-100487767D01*
X105937304Y-100573705D01*
X105823245Y-100774077D01*
X105744578Y-100990802D01*
X105743629Y-100996051D01*
X105743628Y-100996054D01*
X105721890Y-101116265D01*
X105703551Y-101217683D01*
X105703500Y-101223023D01*
X105702097Y-101369210D01*
X105701338Y-101448233D01*
X105738002Y-101675861D01*
X105812494Y-101894056D01*
X105922685Y-102096580D01*
X106065424Y-102277644D01*
X106069389Y-102281220D01*
X106232659Y-102428489D01*
X106232665Y-102428494D01*
X106236629Y-102432069D01*
X106241142Y-102434928D01*
X106241144Y-102434929D01*
X106359242Y-102509731D01*
X106406087Y-102563079D01*
X106416654Y-102633285D01*
X106387587Y-102698058D01*
X106357186Y-102723894D01*
X106262196Y-102781535D01*
X106262189Y-102781540D01*
X106257631Y-102784306D01*
X106253601Y-102787803D01*
X106160426Y-102868656D01*
X106083492Y-102935415D01*
X106080109Y-102939541D01*
X106080105Y-102939545D01*
X106007768Y-103027767D01*
X105937304Y-103113705D01*
X105823245Y-103314077D01*
X105744578Y-103530802D01*
X105743629Y-103536051D01*
X105743628Y-103536054D01*
X105721890Y-103656265D01*
X105703551Y-103757683D01*
X105703500Y-103763023D01*
X105702097Y-103909210D01*
X105701338Y-103988233D01*
X105738002Y-104215861D01*
X105812494Y-104434056D01*
X105922685Y-104636580D01*
X106065424Y-104817644D01*
X106069389Y-104821220D01*
X106232659Y-104968489D01*
X106232665Y-104968494D01*
X106236629Y-104972069D01*
X106241142Y-104974928D01*
X106241144Y-104974929D01*
X106359242Y-105049731D01*
X106406087Y-105103079D01*
X106416654Y-105173285D01*
X106387587Y-105238058D01*
X106357186Y-105263894D01*
X106262196Y-105321535D01*
X106262189Y-105321540D01*
X106257631Y-105324306D01*
X106253601Y-105327803D01*
X106160426Y-105408656D01*
X106083492Y-105475415D01*
X106080109Y-105479541D01*
X106080105Y-105479545D01*
X106007768Y-105567767D01*
X105937304Y-105653705D01*
X105823245Y-105854077D01*
X105744578Y-106070802D01*
X105743629Y-106076051D01*
X105743628Y-106076054D01*
X105721890Y-106196265D01*
X105703551Y-106297683D01*
X105703500Y-106303023D01*
X105702097Y-106449210D01*
X105701338Y-106528233D01*
X105738002Y-106755861D01*
X105812494Y-106974056D01*
X105922685Y-107176580D01*
X106065424Y-107357644D01*
X106069389Y-107361220D01*
X106232659Y-107508489D01*
X106232665Y-107508494D01*
X106236629Y-107512069D01*
X106241142Y-107514928D01*
X106241144Y-107514929D01*
X106359242Y-107589731D01*
X106406087Y-107643079D01*
X106416654Y-107713285D01*
X106387587Y-107778058D01*
X106357186Y-107803894D01*
X106262196Y-107861535D01*
X106262189Y-107861540D01*
X106257631Y-107864306D01*
X106253601Y-107867803D01*
X106160426Y-107948656D01*
X106083492Y-108015415D01*
X106080109Y-108019541D01*
X106080105Y-108019545D01*
X106007768Y-108107767D01*
X105937304Y-108193705D01*
X105934665Y-108198341D01*
X105934663Y-108198344D01*
X105868693Y-108314237D01*
X105823245Y-108394077D01*
X105744578Y-108610802D01*
X105743629Y-108616051D01*
X105743628Y-108616054D01*
X105704501Y-108832429D01*
X105703551Y-108837683D01*
X105703500Y-108843023D01*
X105702097Y-108989210D01*
X105701338Y-109068233D01*
X105738002Y-109295861D01*
X105812494Y-109514056D01*
X105922685Y-109716580D01*
X106065424Y-109897644D01*
X106069389Y-109901220D01*
X106232659Y-110048489D01*
X106232665Y-110048494D01*
X106236629Y-110052069D01*
X106241142Y-110054928D01*
X106241144Y-110054929D01*
X106359242Y-110129731D01*
X106406087Y-110183079D01*
X106416654Y-110253285D01*
X106387587Y-110318058D01*
X106357186Y-110343894D01*
X106262196Y-110401535D01*
X106262189Y-110401540D01*
X106257631Y-110404306D01*
X106253601Y-110407803D01*
X106160426Y-110488656D01*
X106083492Y-110555415D01*
X106080109Y-110559541D01*
X106080105Y-110559545D01*
X106007768Y-110647767D01*
X105937304Y-110733705D01*
X105934665Y-110738341D01*
X105934663Y-110738344D01*
X105931117Y-110744574D01*
X105823245Y-110934077D01*
X105744578Y-111150802D01*
X105743629Y-111156051D01*
X105743628Y-111156054D01*
X105721890Y-111276265D01*
X105703551Y-111377683D01*
X105703500Y-111383023D01*
X105702097Y-111529210D01*
X105701338Y-111608233D01*
X105738002Y-111835861D01*
X105812494Y-112054056D01*
X105922685Y-112256580D01*
X106065424Y-112437644D01*
X106069389Y-112441220D01*
X106232659Y-112588489D01*
X106232665Y-112588494D01*
X106236629Y-112592069D01*
X106241142Y-112594928D01*
X106241144Y-112594929D01*
X106359712Y-112670029D01*
X106406557Y-112723377D01*
X106417124Y-112793583D01*
X106388057Y-112858357D01*
X106357656Y-112884192D01*
X106262486Y-112941942D01*
X106253896Y-112948206D01*
X106087884Y-113092264D01*
X106080464Y-113099895D01*
X105941100Y-113269860D01*
X105935075Y-113278627D01*
X105826342Y-113469644D01*
X105821877Y-113479308D01*
X105746882Y-113685916D01*
X105744111Y-113696184D01*
X105730008Y-113774174D01*
X105731427Y-113787414D01*
X105746062Y-113792000D01*
X108380079Y-113792000D01*
X108393610Y-113788027D01*
X108394876Y-113779218D01*
X108347954Y-113598433D01*
X108344419Y-113588395D01*
X108254147Y-113387998D01*
X108248967Y-113378692D01*
X108126218Y-113196366D01*
X108119557Y-113188080D01*
X107967830Y-113029030D01*
X107959873Y-113021990D01*
X107783524Y-112890783D01*
X107770981Y-112883005D01*
X107723628Y-112830107D01*
X107712391Y-112760005D01*
X107740838Y-112694957D01*
X107764122Y-112673409D01*
X107944711Y-112544357D01*
X108107030Y-112380617D01*
X108194043Y-112256580D01*
X108236375Y-112196236D01*
X108236376Y-112196234D01*
X108239439Y-112191868D01*
X108270168Y-112127008D01*
X108335868Y-111988331D01*
X108338153Y-111983508D01*
X108400349Y-111761494D01*
X108424249Y-111532176D01*
X108424500Y-111506000D01*
X108421010Y-111464868D01*
X108405458Y-111281576D01*
X108405457Y-111281572D01*
X108405007Y-111276265D01*
X108347084Y-111053098D01*
X108295731Y-110939098D01*
X108254578Y-110847743D01*
X108254577Y-110847741D01*
X108252388Y-110842882D01*
X108123627Y-110651626D01*
X107964482Y-110484799D01*
X107779504Y-110347171D01*
X107774743Y-110344751D01*
X107771425Y-110342693D01*
X107724071Y-110289796D01*
X107712832Y-110219695D01*
X107741277Y-110154645D01*
X107764564Y-110133093D01*
X107810355Y-110100370D01*
X107944711Y-110004357D01*
X108107030Y-109840617D01*
X108194043Y-109716580D01*
X108236375Y-109656236D01*
X108236376Y-109656234D01*
X108239439Y-109651868D01*
X108338153Y-109443508D01*
X108400349Y-109221494D01*
X108402652Y-109199402D01*
X108423941Y-108995127D01*
X108424249Y-108992176D01*
X108424500Y-108966000D01*
X108424250Y-108963052D01*
X108405458Y-108741576D01*
X108405457Y-108741572D01*
X108405007Y-108736265D01*
X108347084Y-108513098D01*
X108295731Y-108399098D01*
X108254578Y-108307743D01*
X108254577Y-108307741D01*
X108252388Y-108302882D01*
X108123627Y-108111626D01*
X107964482Y-107944799D01*
X107779504Y-107807171D01*
X107774743Y-107804751D01*
X107771425Y-107802693D01*
X107724071Y-107749796D01*
X107712832Y-107679695D01*
X107741277Y-107614645D01*
X107764564Y-107593093D01*
X107773304Y-107586847D01*
X107944711Y-107464357D01*
X108107030Y-107300617D01*
X108194043Y-107176580D01*
X108236375Y-107116236D01*
X108236376Y-107116234D01*
X108239439Y-107111868D01*
X108338153Y-106903508D01*
X108400349Y-106681494D01*
X108424249Y-106452176D01*
X108424500Y-106426000D01*
X108424250Y-106423052D01*
X108405458Y-106201576D01*
X108405457Y-106201572D01*
X108405007Y-106196265D01*
X108403668Y-106191104D01*
X108348426Y-105978269D01*
X108347084Y-105973098D01*
X108295731Y-105859098D01*
X108254578Y-105767743D01*
X108254577Y-105767741D01*
X108252388Y-105762882D01*
X108123627Y-105571626D01*
X107964482Y-105404799D01*
X107779504Y-105267171D01*
X107774743Y-105264751D01*
X107771425Y-105262693D01*
X107724071Y-105209796D01*
X107712832Y-105139695D01*
X107741277Y-105074645D01*
X107764564Y-105053093D01*
X107773304Y-105046847D01*
X107944711Y-104924357D01*
X108107030Y-104760617D01*
X108194043Y-104636580D01*
X108236375Y-104576236D01*
X108236376Y-104576234D01*
X108239439Y-104571868D01*
X108338153Y-104363508D01*
X108400349Y-104141494D01*
X108424249Y-103912176D01*
X108424500Y-103886000D01*
X108423523Y-103874486D01*
X108405458Y-103661576D01*
X108405457Y-103661572D01*
X108405007Y-103656265D01*
X108347084Y-103433098D01*
X108295731Y-103319098D01*
X108254578Y-103227743D01*
X108254577Y-103227741D01*
X108252388Y-103222882D01*
X108123627Y-103031626D01*
X107964482Y-102864799D01*
X107779504Y-102727171D01*
X107774743Y-102724751D01*
X107771425Y-102722693D01*
X107724071Y-102669796D01*
X107712832Y-102599695D01*
X107741277Y-102534645D01*
X107764564Y-102513093D01*
X107773304Y-102506847D01*
X107944711Y-102384357D01*
X108107030Y-102220617D01*
X108194043Y-102096580D01*
X108236375Y-102036236D01*
X108236376Y-102036234D01*
X108239439Y-102031868D01*
X108338153Y-101823508D01*
X108400349Y-101601494D01*
X108424249Y-101372176D01*
X108424500Y-101346000D01*
X108424250Y-101343052D01*
X108405458Y-101121576D01*
X108405457Y-101121572D01*
X108405007Y-101116265D01*
X108403668Y-101111104D01*
X108348426Y-100898269D01*
X108347084Y-100893098D01*
X108295731Y-100779098D01*
X108254578Y-100687743D01*
X108254577Y-100687741D01*
X108252388Y-100682882D01*
X108123627Y-100491626D01*
X107964482Y-100324799D01*
X107779504Y-100187171D01*
X107774743Y-100184751D01*
X107771425Y-100182693D01*
X107724071Y-100129796D01*
X107712832Y-100059695D01*
X107741277Y-99994645D01*
X107764564Y-99973093D01*
X107773304Y-99966847D01*
X107944711Y-99844357D01*
X108107030Y-99680617D01*
X108194043Y-99556580D01*
X108236375Y-99496236D01*
X108236376Y-99496234D01*
X108239439Y-99491868D01*
X108338153Y-99283508D01*
X108400349Y-99061494D01*
X108424249Y-98832176D01*
X108424500Y-98806000D01*
X108423523Y-98794486D01*
X108405458Y-98581576D01*
X108405457Y-98581572D01*
X108405007Y-98576265D01*
X108347084Y-98353098D01*
X108295731Y-98239098D01*
X108254578Y-98147743D01*
X108254577Y-98147741D01*
X108252388Y-98142882D01*
X108123627Y-97951626D01*
X107964482Y-97784799D01*
X107779504Y-97647171D01*
X107774743Y-97644751D01*
X107771425Y-97642693D01*
X107724071Y-97589796D01*
X107712832Y-97519695D01*
X107741277Y-97454645D01*
X107764564Y-97433093D01*
X107773304Y-97426847D01*
X107944711Y-97304357D01*
X108107030Y-97140617D01*
X108194043Y-97016580D01*
X108236375Y-96956236D01*
X108236376Y-96956234D01*
X108239439Y-96951868D01*
X108338153Y-96743508D01*
X108400349Y-96521494D01*
X108424249Y-96292176D01*
X108424500Y-96266000D01*
X108424250Y-96263052D01*
X108405458Y-96041576D01*
X108405457Y-96041572D01*
X108405007Y-96036265D01*
X108403668Y-96031104D01*
X108348426Y-95818269D01*
X108347084Y-95813098D01*
X108295731Y-95699098D01*
X108254578Y-95607743D01*
X108254577Y-95607741D01*
X108252388Y-95602882D01*
X108123627Y-95411626D01*
X107964482Y-95244799D01*
X107779504Y-95107171D01*
X107774743Y-95104751D01*
X107771425Y-95102693D01*
X107724071Y-95049796D01*
X107712832Y-94979695D01*
X107741277Y-94914645D01*
X107764564Y-94893093D01*
X107773304Y-94886847D01*
X107944711Y-94764357D01*
X108107030Y-94600617D01*
X108194043Y-94476580D01*
X108236375Y-94416236D01*
X108236376Y-94416234D01*
X108239439Y-94411868D01*
X108338153Y-94203508D01*
X108400349Y-93981494D01*
X108424249Y-93752176D01*
X108424500Y-93726000D01*
X108423523Y-93714486D01*
X108405458Y-93501576D01*
X108405457Y-93501572D01*
X108405007Y-93496265D01*
X108347084Y-93273098D01*
X108295731Y-93159098D01*
X108254578Y-93067743D01*
X108254577Y-93067741D01*
X108252388Y-93062882D01*
X108123627Y-92871626D01*
X107964482Y-92704799D01*
X107779504Y-92567171D01*
X107774743Y-92564751D01*
X107771425Y-92562693D01*
X107724071Y-92509796D01*
X107712832Y-92439695D01*
X107741277Y-92374645D01*
X107764564Y-92353093D01*
X107773304Y-92346847D01*
X107944711Y-92224357D01*
X108107030Y-92060617D01*
X108194043Y-91936580D01*
X108236375Y-91876236D01*
X108236376Y-91876234D01*
X108239439Y-91871868D01*
X108338153Y-91663508D01*
X108400349Y-91441494D01*
X108424249Y-91212176D01*
X108424500Y-91186000D01*
X108424250Y-91183052D01*
X108405458Y-90961576D01*
X108405457Y-90961572D01*
X108405007Y-90956265D01*
X108403668Y-90951104D01*
X108348426Y-90738269D01*
X108347084Y-90733098D01*
X108335103Y-90706500D01*
X108254578Y-90527743D01*
X108254577Y-90527741D01*
X108252388Y-90522882D01*
X108123627Y-90331626D01*
X107964482Y-90164799D01*
X107779504Y-90027171D01*
X107774743Y-90024751D01*
X107771425Y-90022693D01*
X107724071Y-89969796D01*
X107712832Y-89899695D01*
X107741277Y-89834645D01*
X107764564Y-89813093D01*
X107773304Y-89806847D01*
X107944711Y-89684357D01*
X108107030Y-89520617D01*
X108194043Y-89396580D01*
X108236375Y-89336236D01*
X108236376Y-89336234D01*
X108239439Y-89331868D01*
X108338153Y-89123508D01*
X108400349Y-88901494D01*
X108424249Y-88672176D01*
X108424500Y-88646000D01*
X108423523Y-88634486D01*
X108405458Y-88421576D01*
X108405457Y-88421572D01*
X108405007Y-88416265D01*
X108347084Y-88193098D01*
X108295731Y-88079098D01*
X108254578Y-87987743D01*
X108254577Y-87987741D01*
X108252388Y-87982882D01*
X108123627Y-87791626D01*
X107964482Y-87624799D01*
X107779504Y-87487171D01*
X107774743Y-87484751D01*
X107771425Y-87482693D01*
X107724071Y-87429796D01*
X107712832Y-87359695D01*
X107741277Y-87294645D01*
X107764564Y-87273093D01*
X107773304Y-87266847D01*
X107944711Y-87144357D01*
X108107030Y-86980617D01*
X108110316Y-86975933D01*
X108236375Y-86796236D01*
X108236376Y-86796234D01*
X108239439Y-86791868D01*
X108338153Y-86583508D01*
X108400349Y-86361494D01*
X108424249Y-86132176D01*
X108424500Y-86106000D01*
X108424250Y-86103052D01*
X108405458Y-85881576D01*
X108405457Y-85881572D01*
X108405007Y-85876265D01*
X108403668Y-85871104D01*
X108348426Y-85658269D01*
X108347084Y-85653098D01*
X108295731Y-85539098D01*
X108254578Y-85447743D01*
X108254577Y-85447741D01*
X108252388Y-85442882D01*
X108123627Y-85251626D01*
X107964482Y-85084799D01*
X107779504Y-84947171D01*
X107774743Y-84944751D01*
X107771425Y-84942693D01*
X107724071Y-84889796D01*
X107712832Y-84819695D01*
X107741277Y-84754645D01*
X107764564Y-84733093D01*
X107773304Y-84726847D01*
X107944711Y-84604357D01*
X108107030Y-84440617D01*
X108197330Y-84311895D01*
X108236375Y-84256236D01*
X108236376Y-84256234D01*
X108239439Y-84251868D01*
X108338153Y-84043508D01*
X108400349Y-83821494D01*
X108424249Y-83592176D01*
X108424500Y-83566000D01*
X108422810Y-83546084D01*
X108405458Y-83341576D01*
X108405457Y-83341572D01*
X108405007Y-83336265D01*
X108400891Y-83320404D01*
X108348426Y-83118269D01*
X108347084Y-83113098D01*
X108295731Y-82999098D01*
X108254578Y-82907743D01*
X108254577Y-82907741D01*
X108252388Y-82902882D01*
X108123627Y-82711626D01*
X107964482Y-82544799D01*
X107779504Y-82407171D01*
X107774743Y-82404751D01*
X107771425Y-82402693D01*
X107724071Y-82349796D01*
X107712832Y-82279695D01*
X107741277Y-82214645D01*
X107764564Y-82193093D01*
X107773304Y-82186847D01*
X107944711Y-82064357D01*
X108107030Y-81900617D01*
X108194043Y-81776580D01*
X108236375Y-81716236D01*
X108236376Y-81716234D01*
X108239439Y-81711868D01*
X108338153Y-81503508D01*
X108400349Y-81281494D01*
X108424249Y-81052176D01*
X108424500Y-81026000D01*
X108424250Y-81023052D01*
X108405458Y-80801576D01*
X108405457Y-80801572D01*
X108405007Y-80796265D01*
X108347084Y-80573098D01*
X108295731Y-80459098D01*
X108254578Y-80367743D01*
X108254577Y-80367741D01*
X108252388Y-80362882D01*
X108123627Y-80171626D01*
X107964482Y-80004799D01*
X107779504Y-79867171D01*
X107774743Y-79864751D01*
X107771425Y-79862693D01*
X107724071Y-79809796D01*
X107712832Y-79739695D01*
X107741277Y-79674645D01*
X107764564Y-79653093D01*
X107773304Y-79646847D01*
X107944711Y-79524357D01*
X108107030Y-79360617D01*
X108194043Y-79236580D01*
X108236375Y-79176236D01*
X108236376Y-79176234D01*
X108239439Y-79171868D01*
X108338153Y-78963508D01*
X108400349Y-78741494D01*
X108424249Y-78512176D01*
X108424500Y-78486000D01*
X108419359Y-78425405D01*
X108405458Y-78261576D01*
X108405457Y-78261572D01*
X108405007Y-78256265D01*
X108347084Y-78033098D01*
X108295731Y-77919098D01*
X108254578Y-77827743D01*
X108254577Y-77827741D01*
X108252388Y-77822882D01*
X108123627Y-77631626D01*
X107964482Y-77464799D01*
X107779504Y-77327171D01*
X107774742Y-77324750D01*
X107770967Y-77322409D01*
X107723613Y-77269512D01*
X107712374Y-77199410D01*
X107740819Y-77134361D01*
X107764107Y-77112809D01*
X107940034Y-76987089D01*
X107948149Y-76980182D01*
X108102893Y-76824082D01*
X108109706Y-76815933D01*
X108235940Y-76635988D01*
X108241295Y-76626787D01*
X108335399Y-76428156D01*
X108339123Y-76418197D01*
X108396968Y-76211718D01*
X108395430Y-76203351D01*
X108383137Y-76200000D01*
X105744403Y-76200000D01*
X105731222Y-76203870D01*
X105729255Y-76218423D01*
X105737638Y-76270471D01*
X105740212Y-76280793D01*
X105811230Y-76488810D01*
X105815497Y-76498533D01*
X105920556Y-76691625D01*
X105926402Y-76700491D01*
X106062486Y-76873113D01*
X106069750Y-76880875D01*
X106232967Y-77028094D01*
X106241444Y-77034528D01*
X106359717Y-77109442D01*
X106406562Y-77162790D01*
X106417129Y-77232996D01*
X106388062Y-77297770D01*
X106357662Y-77323605D01*
X106275057Y-77373731D01*
X106257631Y-77384306D01*
X106253601Y-77387803D01*
X106160426Y-77468656D01*
X106083492Y-77535415D01*
X106080109Y-77539541D01*
X106080105Y-77539545D01*
X106007768Y-77627767D01*
X105937304Y-77713705D01*
X105934665Y-77718341D01*
X105934663Y-77718344D01*
X105859558Y-77850285D01*
X105823245Y-77914077D01*
X105744578Y-78130802D01*
X105743629Y-78136051D01*
X105743628Y-78136054D01*
X105721890Y-78256265D01*
X105703551Y-78357683D01*
X105702901Y-78425405D01*
X105702097Y-78509210D01*
X105701338Y-78588233D01*
X89508000Y-78588233D01*
X89508000Y-42076000D01*
X105697500Y-42076000D01*
X105697500Y-43776000D01*
X105702727Y-43849079D01*
X105743904Y-43989316D01*
X105748775Y-43996895D01*
X105818051Y-44104691D01*
X105818053Y-44104694D01*
X105822923Y-44112271D01*
X105829733Y-44118172D01*
X105926569Y-44202082D01*
X105926572Y-44202084D01*
X105933381Y-44207984D01*
X106066330Y-44268700D01*
X106072639Y-44269607D01*
X106131244Y-44307269D01*
X106160738Y-44371849D01*
X106150636Y-44442123D01*
X106118601Y-44484949D01*
X106083492Y-44515415D01*
X106080109Y-44519541D01*
X106080105Y-44519545D01*
X106007768Y-44607767D01*
X105937304Y-44693705D01*
X105934665Y-44698341D01*
X105934663Y-44698344D01*
X105860257Y-44829056D01*
X105823245Y-44894077D01*
X105744578Y-45110802D01*
X105743629Y-45116051D01*
X105743628Y-45116054D01*
X105721890Y-45236265D01*
X105703551Y-45337683D01*
X105703500Y-45343023D01*
X105702097Y-45489210D01*
X105701338Y-45568233D01*
X105738002Y-45795861D01*
X105812494Y-46014056D01*
X105922685Y-46216580D01*
X106065424Y-46397644D01*
X106069389Y-46401220D01*
X106232659Y-46548489D01*
X106232665Y-46548494D01*
X106236629Y-46552069D01*
X106241142Y-46554928D01*
X106241144Y-46554929D01*
X106359242Y-46629731D01*
X106406087Y-46683079D01*
X106416654Y-46753285D01*
X106387587Y-46818058D01*
X106357186Y-46843894D01*
X106262196Y-46901535D01*
X106262189Y-46901540D01*
X106257631Y-46904306D01*
X106253601Y-46907803D01*
X106160426Y-46988656D01*
X106083492Y-47055415D01*
X106080109Y-47059541D01*
X106080105Y-47059545D01*
X106007768Y-47147767D01*
X105937304Y-47233705D01*
X105823245Y-47434077D01*
X105744578Y-47650802D01*
X105743629Y-47656051D01*
X105743628Y-47656054D01*
X105721890Y-47776265D01*
X105703551Y-47877683D01*
X105703500Y-47883023D01*
X105702097Y-48029210D01*
X105701338Y-48108233D01*
X105738002Y-48335861D01*
X105812494Y-48554056D01*
X105815044Y-48558743D01*
X105815045Y-48558745D01*
X105859771Y-48640949D01*
X105922685Y-48756580D01*
X106065424Y-48937644D01*
X106069389Y-48941220D01*
X106232659Y-49088489D01*
X106232665Y-49088494D01*
X106236629Y-49092069D01*
X106241142Y-49094928D01*
X106241144Y-49094929D01*
X106359242Y-49169731D01*
X106406087Y-49223079D01*
X106416654Y-49293285D01*
X106387587Y-49358058D01*
X106357186Y-49383894D01*
X106262196Y-49441535D01*
X106262189Y-49441540D01*
X106257631Y-49444306D01*
X106253601Y-49447803D01*
X106160426Y-49528656D01*
X106083492Y-49595415D01*
X106080109Y-49599541D01*
X106080105Y-49599545D01*
X106011681Y-49682995D01*
X105937304Y-49773705D01*
X105934665Y-49778341D01*
X105934663Y-49778344D01*
X105859626Y-49910165D01*
X105823245Y-49974077D01*
X105744578Y-50190802D01*
X105743629Y-50196051D01*
X105743628Y-50196054D01*
X105721890Y-50316265D01*
X105703551Y-50417683D01*
X105703500Y-50423023D01*
X105701446Y-50637018D01*
X105701338Y-50648233D01*
X105738002Y-50875861D01*
X105812494Y-51094056D01*
X105922685Y-51296580D01*
X106065424Y-51477644D01*
X106069389Y-51481220D01*
X106232659Y-51628489D01*
X106232665Y-51628494D01*
X106236629Y-51632069D01*
X106241142Y-51634928D01*
X106241144Y-51634929D01*
X106359242Y-51709731D01*
X106406087Y-51763079D01*
X106416654Y-51833285D01*
X106387587Y-51898058D01*
X106357186Y-51923894D01*
X106262196Y-51981535D01*
X106262189Y-51981540D01*
X106257631Y-51984306D01*
X106253601Y-51987803D01*
X106160426Y-52068656D01*
X106083492Y-52135415D01*
X106080109Y-52139541D01*
X106080105Y-52139545D01*
X106018557Y-52214609D01*
X105937304Y-52313705D01*
X105934665Y-52318341D01*
X105934663Y-52318344D01*
X105857338Y-52454184D01*
X105823245Y-52514077D01*
X105744578Y-52730802D01*
X105743629Y-52736051D01*
X105743628Y-52736054D01*
X105721890Y-52856265D01*
X105703551Y-52957683D01*
X105703500Y-52963023D01*
X105702097Y-53109210D01*
X105701338Y-53188233D01*
X105738002Y-53415861D01*
X105812494Y-53634056D01*
X105922685Y-53836580D01*
X106065424Y-54017644D01*
X106069389Y-54021220D01*
X106232659Y-54168489D01*
X106232665Y-54168494D01*
X106236629Y-54172069D01*
X106241142Y-54174928D01*
X106241144Y-54174929D01*
X106359242Y-54249731D01*
X106406087Y-54303079D01*
X106416654Y-54373285D01*
X106387587Y-54438058D01*
X106357186Y-54463894D01*
X106262196Y-54521535D01*
X106262189Y-54521540D01*
X106257631Y-54524306D01*
X106253601Y-54527803D01*
X106160426Y-54608656D01*
X106083492Y-54675415D01*
X106080109Y-54679541D01*
X106080105Y-54679545D01*
X106007768Y-54767767D01*
X105937304Y-54853705D01*
X105934666Y-54858339D01*
X105934663Y-54858344D01*
X105860257Y-54989056D01*
X105823245Y-55054077D01*
X105744578Y-55270802D01*
X105743629Y-55276051D01*
X105743628Y-55276054D01*
X105721890Y-55396265D01*
X105703551Y-55497683D01*
X105703500Y-55503023D01*
X105701643Y-55696493D01*
X105701338Y-55728233D01*
X105738002Y-55955861D01*
X105812494Y-56174056D01*
X105922685Y-56376580D01*
X106065424Y-56557644D01*
X106069389Y-56561220D01*
X106232659Y-56708489D01*
X106232665Y-56708494D01*
X106236629Y-56712069D01*
X106241142Y-56714928D01*
X106241144Y-56714929D01*
X106359242Y-56789731D01*
X106406087Y-56843079D01*
X106416654Y-56913285D01*
X106387587Y-56978058D01*
X106357186Y-57003894D01*
X106262196Y-57061535D01*
X106262189Y-57061540D01*
X106257631Y-57064306D01*
X106253601Y-57067803D01*
X106160426Y-57148656D01*
X106083492Y-57215415D01*
X106080109Y-57219541D01*
X106080105Y-57219545D01*
X106018557Y-57294609D01*
X105937304Y-57393705D01*
X105934665Y-57398341D01*
X105934663Y-57398344D01*
X105859558Y-57530285D01*
X105823245Y-57594077D01*
X105744578Y-57810802D01*
X105743629Y-57816051D01*
X105743628Y-57816054D01*
X105721890Y-57936265D01*
X105703551Y-58037683D01*
X105703500Y-58043023D01*
X105702097Y-58189210D01*
X105701338Y-58268233D01*
X105738002Y-58495861D01*
X105812494Y-58714056D01*
X105922685Y-58916580D01*
X106065424Y-59097644D01*
X106069389Y-59101220D01*
X106232659Y-59248489D01*
X106232665Y-59248494D01*
X106236629Y-59252069D01*
X106241142Y-59254928D01*
X106241144Y-59254929D01*
X106359242Y-59329731D01*
X106406087Y-59383079D01*
X106416654Y-59453285D01*
X106387587Y-59518058D01*
X106357186Y-59543894D01*
X106262196Y-59601535D01*
X106262189Y-59601540D01*
X106257631Y-59604306D01*
X106253601Y-59607803D01*
X106160426Y-59688656D01*
X106083492Y-59755415D01*
X106080109Y-59759541D01*
X106080105Y-59759545D01*
X106007768Y-59847767D01*
X105937304Y-59933705D01*
X105934665Y-59938341D01*
X105934663Y-59938344D01*
X105859936Y-60069620D01*
X105823245Y-60134077D01*
X105744578Y-60350802D01*
X105743629Y-60356051D01*
X105743628Y-60356054D01*
X105721890Y-60476265D01*
X105703551Y-60577683D01*
X105702993Y-60635867D01*
X105702097Y-60729210D01*
X105701338Y-60808233D01*
X105738002Y-61035861D01*
X105812494Y-61254056D01*
X105815044Y-61258743D01*
X105815045Y-61258745D01*
X105820321Y-61268442D01*
X105922685Y-61456580D01*
X106065424Y-61637644D01*
X106069389Y-61641220D01*
X106232659Y-61788489D01*
X106232665Y-61788494D01*
X106236629Y-61792069D01*
X106241142Y-61794928D01*
X106241144Y-61794929D01*
X106359242Y-61869731D01*
X106406087Y-61923079D01*
X106416654Y-61993285D01*
X106387587Y-62058058D01*
X106357186Y-62083894D01*
X106262196Y-62141535D01*
X106262189Y-62141540D01*
X106257631Y-62144306D01*
X106253601Y-62147803D01*
X106160426Y-62228656D01*
X106083492Y-62295415D01*
X106080109Y-62299541D01*
X106080105Y-62299545D01*
X106007768Y-62387767D01*
X105937304Y-62473705D01*
X105934665Y-62478341D01*
X105934663Y-62478344D01*
X105859558Y-62610285D01*
X105823245Y-62674077D01*
X105744578Y-62890802D01*
X105743629Y-62896051D01*
X105743628Y-62896054D01*
X105721890Y-63016265D01*
X105703551Y-63117683D01*
X105702862Y-63189454D01*
X105702097Y-63269210D01*
X105701338Y-63348233D01*
X105738002Y-63575861D01*
X105812494Y-63794056D01*
X105922685Y-63996580D01*
X106065424Y-64177644D01*
X106069389Y-64181220D01*
X106232659Y-64328489D01*
X106232665Y-64328494D01*
X106236629Y-64332069D01*
X106241142Y-64334928D01*
X106241144Y-64334929D01*
X106359242Y-64409731D01*
X106406087Y-64463079D01*
X106416654Y-64533285D01*
X106387587Y-64598058D01*
X106357186Y-64623894D01*
X106262196Y-64681535D01*
X106262189Y-64681540D01*
X106257631Y-64684306D01*
X106253601Y-64687803D01*
X106159995Y-64769030D01*
X106083492Y-64835415D01*
X106080109Y-64839541D01*
X106080105Y-64839545D01*
X106007768Y-64927767D01*
X105937304Y-65013705D01*
X105934665Y-65018341D01*
X105934663Y-65018344D01*
X105859936Y-65149621D01*
X105823245Y-65214077D01*
X105744578Y-65430802D01*
X105743629Y-65436051D01*
X105743628Y-65436054D01*
X105721890Y-65556265D01*
X105703551Y-65657683D01*
X105702993Y-65715867D01*
X105702097Y-65809210D01*
X105701338Y-65888233D01*
X105738002Y-66115861D01*
X105812494Y-66334056D01*
X105815044Y-66338743D01*
X105815045Y-66338745D01*
X105820321Y-66348442D01*
X105922685Y-66536580D01*
X106065424Y-66717644D01*
X106069389Y-66721220D01*
X106232659Y-66868489D01*
X106232665Y-66868494D01*
X106236629Y-66872069D01*
X106241142Y-66874928D01*
X106241144Y-66874929D01*
X106359242Y-66949731D01*
X106406087Y-67003079D01*
X106416654Y-67073285D01*
X106387587Y-67138058D01*
X106357186Y-67163894D01*
X106262196Y-67221535D01*
X106262191Y-67221539D01*
X106257631Y-67224306D01*
X106253601Y-67227803D01*
X106160426Y-67308656D01*
X106083492Y-67375415D01*
X106080109Y-67379541D01*
X106080105Y-67379545D01*
X106007768Y-67467767D01*
X105937304Y-67553705D01*
X105823245Y-67754077D01*
X105744578Y-67970802D01*
X105743629Y-67976051D01*
X105743628Y-67976054D01*
X105721890Y-68096265D01*
X105703551Y-68197683D01*
X105703500Y-68203023D01*
X105702097Y-68349210D01*
X105701338Y-68428233D01*
X105738002Y-68655861D01*
X105812494Y-68874056D01*
X105922685Y-69076580D01*
X106065424Y-69257644D01*
X106069389Y-69261220D01*
X106232659Y-69408489D01*
X106232665Y-69408494D01*
X106236629Y-69412069D01*
X106241142Y-69414928D01*
X106241144Y-69414929D01*
X106359242Y-69489731D01*
X106406087Y-69543079D01*
X106416654Y-69613285D01*
X106387587Y-69678058D01*
X106357186Y-69703894D01*
X106262196Y-69761535D01*
X106262189Y-69761540D01*
X106257631Y-69764306D01*
X106253601Y-69767803D01*
X106160426Y-69848656D01*
X106083492Y-69915415D01*
X106080109Y-69919541D01*
X106080105Y-69919545D01*
X106007768Y-70007767D01*
X105937304Y-70093705D01*
X105934665Y-70098341D01*
X105934663Y-70098344D01*
X105879088Y-70195976D01*
X105823245Y-70294077D01*
X105744578Y-70510802D01*
X105743629Y-70516051D01*
X105743628Y-70516054D01*
X105721890Y-70636265D01*
X105703551Y-70737683D01*
X105702993Y-70795867D01*
X105702097Y-70889210D01*
X105701338Y-70968233D01*
X105738002Y-71195861D01*
X105812494Y-71414056D01*
X105815044Y-71418743D01*
X105815045Y-71418745D01*
X105820321Y-71428442D01*
X105922685Y-71616580D01*
X106065424Y-71797644D01*
X106069389Y-71801220D01*
X106232659Y-71948489D01*
X106232665Y-71948494D01*
X106236629Y-71952069D01*
X106241142Y-71954928D01*
X106241144Y-71954929D01*
X106359242Y-72029731D01*
X106406087Y-72083079D01*
X106416654Y-72153285D01*
X106387587Y-72218058D01*
X106357186Y-72243894D01*
X106262196Y-72301535D01*
X106262189Y-72301540D01*
X106257631Y-72304306D01*
X106253601Y-72307803D01*
X106160426Y-72388656D01*
X106083492Y-72455415D01*
X106080109Y-72459541D01*
X106080105Y-72459545D01*
X106007768Y-72547767D01*
X105937304Y-72633705D01*
X105934665Y-72638341D01*
X105934663Y-72638344D01*
X105859558Y-72770285D01*
X105823245Y-72834077D01*
X105744578Y-73050802D01*
X105743629Y-73056051D01*
X105743628Y-73056054D01*
X105721890Y-73176265D01*
X105703551Y-73277683D01*
X105702862Y-73349454D01*
X105702097Y-73429210D01*
X105701338Y-73508233D01*
X105738002Y-73735861D01*
X105812494Y-73954056D01*
X105922685Y-74156580D01*
X106065424Y-74337644D01*
X106069389Y-74341220D01*
X106232659Y-74488489D01*
X106232665Y-74488494D01*
X106236629Y-74492069D01*
X106241142Y-74494928D01*
X106241144Y-74494929D01*
X106359712Y-74570029D01*
X106406557Y-74623377D01*
X106417124Y-74693583D01*
X106388057Y-74758357D01*
X106357656Y-74784192D01*
X106262486Y-74841942D01*
X106253896Y-74848206D01*
X106087884Y-74992264D01*
X106080464Y-74999895D01*
X105941100Y-75169860D01*
X105935075Y-75178627D01*
X105826342Y-75369644D01*
X105821877Y-75379308D01*
X105746882Y-75585916D01*
X105744111Y-75596184D01*
X105730008Y-75674174D01*
X105731427Y-75687414D01*
X105746062Y-75692000D01*
X108380079Y-75692000D01*
X108393610Y-75688027D01*
X108394876Y-75679218D01*
X108347954Y-75498433D01*
X108344419Y-75488395D01*
X108254147Y-75287998D01*
X108248967Y-75278692D01*
X108126218Y-75096366D01*
X108119557Y-75088080D01*
X107967830Y-74929030D01*
X107959873Y-74921990D01*
X107783524Y-74790783D01*
X107770981Y-74783005D01*
X107723628Y-74730107D01*
X107712391Y-74660005D01*
X107740838Y-74594957D01*
X107764122Y-74573409D01*
X107944711Y-74444357D01*
X108107030Y-74280617D01*
X108164440Y-74198779D01*
X108236375Y-74096236D01*
X108236376Y-74096234D01*
X108239439Y-74091868D01*
X108338153Y-73883508D01*
X108400349Y-73661494D01*
X108424249Y-73432176D01*
X108424500Y-73406000D01*
X108419702Y-73349454D01*
X108405458Y-73181576D01*
X108405457Y-73181572D01*
X108405007Y-73176265D01*
X108347084Y-72953098D01*
X108295731Y-72839098D01*
X108254578Y-72747743D01*
X108254577Y-72747741D01*
X108252388Y-72742882D01*
X108123627Y-72551626D01*
X107964482Y-72384799D01*
X107779504Y-72247171D01*
X107774743Y-72244751D01*
X107771425Y-72242693D01*
X107724071Y-72189796D01*
X107712832Y-72119695D01*
X107741277Y-72054645D01*
X107764564Y-72033093D01*
X107773304Y-72026847D01*
X107944711Y-71904357D01*
X108107030Y-71740617D01*
X108164440Y-71658779D01*
X108236375Y-71556236D01*
X108236376Y-71556234D01*
X108239439Y-71551868D01*
X108338153Y-71343508D01*
X108400349Y-71121494D01*
X108424249Y-70892176D01*
X108424500Y-70866000D01*
X108415662Y-70761841D01*
X108405458Y-70641576D01*
X108405457Y-70641572D01*
X108405007Y-70636265D01*
X108347084Y-70413098D01*
X108295731Y-70299098D01*
X108254578Y-70207743D01*
X108254577Y-70207741D01*
X108252388Y-70202882D01*
X108123627Y-70011626D01*
X107964482Y-69844799D01*
X107779504Y-69707171D01*
X107774743Y-69704751D01*
X107771425Y-69702693D01*
X107724071Y-69649796D01*
X107712832Y-69579695D01*
X107741277Y-69514645D01*
X107764564Y-69493093D01*
X107773304Y-69486847D01*
X107944711Y-69364357D01*
X108107030Y-69200617D01*
X108164440Y-69118779D01*
X108236375Y-69016236D01*
X108236376Y-69016234D01*
X108239439Y-69011868D01*
X108338153Y-68803508D01*
X108400349Y-68581494D01*
X108424249Y-68352176D01*
X108424500Y-68326000D01*
X108424250Y-68323052D01*
X108405458Y-68101576D01*
X108405457Y-68101572D01*
X108405007Y-68096265D01*
X108347084Y-67873098D01*
X108295731Y-67759098D01*
X108254578Y-67667743D01*
X108254577Y-67667741D01*
X108252388Y-67662882D01*
X108123627Y-67471626D01*
X107964482Y-67304799D01*
X107779504Y-67167171D01*
X107774743Y-67164751D01*
X107771425Y-67162693D01*
X107724071Y-67109796D01*
X107712832Y-67039695D01*
X107741277Y-66974645D01*
X107764564Y-66953093D01*
X107773304Y-66946847D01*
X107944711Y-66824357D01*
X108107030Y-66660617D01*
X108191103Y-66540771D01*
X108236375Y-66476236D01*
X108236376Y-66476234D01*
X108239439Y-66471868D01*
X108338153Y-66263508D01*
X108400349Y-66041494D01*
X108424249Y-65812176D01*
X108424500Y-65786000D01*
X108415662Y-65681841D01*
X108405458Y-65561576D01*
X108405457Y-65561572D01*
X108405007Y-65556265D01*
X108401665Y-65543386D01*
X108348426Y-65338269D01*
X108347084Y-65333098D01*
X108295731Y-65219098D01*
X108254578Y-65127743D01*
X108254577Y-65127741D01*
X108252388Y-65122882D01*
X108123627Y-64931626D01*
X107964482Y-64764799D01*
X107779504Y-64627171D01*
X107774743Y-64624751D01*
X107771425Y-64622693D01*
X107724071Y-64569796D01*
X107712832Y-64499695D01*
X107741277Y-64434645D01*
X107764564Y-64413093D01*
X107773304Y-64406847D01*
X107944711Y-64284357D01*
X108107030Y-64120617D01*
X108181737Y-64014122D01*
X108236375Y-63936236D01*
X108236376Y-63936234D01*
X108239439Y-63931868D01*
X108247982Y-63913837D01*
X108335868Y-63728331D01*
X108338153Y-63723508D01*
X108400349Y-63501494D01*
X108424249Y-63272176D01*
X108424500Y-63246000D01*
X108419702Y-63189454D01*
X108405458Y-63021576D01*
X108405457Y-63021572D01*
X108405007Y-63016265D01*
X108347084Y-62793098D01*
X108295731Y-62679098D01*
X108254578Y-62587743D01*
X108254577Y-62587741D01*
X108252388Y-62582882D01*
X108123627Y-62391626D01*
X107964482Y-62224799D01*
X107779504Y-62087171D01*
X107774743Y-62084751D01*
X107771425Y-62082693D01*
X107724071Y-62029796D01*
X107712832Y-61959695D01*
X107741277Y-61894645D01*
X107764564Y-61873093D01*
X107773304Y-61866847D01*
X107944711Y-61744357D01*
X108107030Y-61580617D01*
X108164440Y-61498779D01*
X108236375Y-61396236D01*
X108236376Y-61396234D01*
X108239439Y-61391868D01*
X108338153Y-61183508D01*
X108400349Y-60961494D01*
X108424249Y-60732176D01*
X108424500Y-60706000D01*
X108415662Y-60601841D01*
X108405458Y-60481576D01*
X108405457Y-60481572D01*
X108405007Y-60476265D01*
X108347084Y-60253098D01*
X108295731Y-60139098D01*
X108254578Y-60047743D01*
X108254577Y-60047741D01*
X108252388Y-60042882D01*
X108123627Y-59851626D01*
X107964482Y-59684799D01*
X107779504Y-59547171D01*
X107774743Y-59544751D01*
X107771425Y-59542693D01*
X107724071Y-59489796D01*
X107712832Y-59419695D01*
X107741277Y-59354645D01*
X107764564Y-59333093D01*
X107773304Y-59326847D01*
X107944711Y-59204357D01*
X108107030Y-59040617D01*
X108181737Y-58934122D01*
X108236375Y-58856236D01*
X108236376Y-58856234D01*
X108239439Y-58851868D01*
X108247982Y-58833837D01*
X108335868Y-58648331D01*
X108338153Y-58643508D01*
X108400349Y-58421494D01*
X108424249Y-58192176D01*
X108424500Y-58166000D01*
X108424250Y-58163052D01*
X108405458Y-57941576D01*
X108405457Y-57941572D01*
X108405007Y-57936265D01*
X108347084Y-57713098D01*
X108308146Y-57626658D01*
X108254578Y-57507743D01*
X108254577Y-57507741D01*
X108252388Y-57502882D01*
X108123627Y-57311626D01*
X108115394Y-57302995D01*
X107968161Y-57148656D01*
X107964482Y-57144799D01*
X107779504Y-57007171D01*
X107774743Y-57004751D01*
X107771425Y-57002693D01*
X107724071Y-56949796D01*
X107712832Y-56879695D01*
X107741277Y-56814645D01*
X107764564Y-56793093D01*
X107773304Y-56786847D01*
X107944711Y-56664357D01*
X108107030Y-56500617D01*
X108194043Y-56376580D01*
X108236375Y-56316236D01*
X108236376Y-56316234D01*
X108239439Y-56311868D01*
X108338153Y-56103508D01*
X108400349Y-55881494D01*
X108424249Y-55652176D01*
X108424500Y-55626000D01*
X108423024Y-55608608D01*
X108405458Y-55401576D01*
X108405457Y-55401572D01*
X108405007Y-55396265D01*
X108347084Y-55173098D01*
X108335519Y-55147423D01*
X108254578Y-54967743D01*
X108254577Y-54967741D01*
X108252388Y-54962882D01*
X108123627Y-54771626D01*
X107964482Y-54604799D01*
X107779504Y-54467171D01*
X107774743Y-54464751D01*
X107771425Y-54462693D01*
X107724071Y-54409796D01*
X107712832Y-54339695D01*
X107741277Y-54274645D01*
X107764564Y-54253093D01*
X107773304Y-54246847D01*
X107944711Y-54124357D01*
X108107030Y-53960617D01*
X108197330Y-53831895D01*
X108236375Y-53776236D01*
X108236376Y-53776234D01*
X108239439Y-53771868D01*
X108338153Y-53563508D01*
X108400349Y-53341494D01*
X108424249Y-53112176D01*
X108424500Y-53086000D01*
X108424250Y-53083052D01*
X108405458Y-52861576D01*
X108405457Y-52861572D01*
X108405007Y-52856265D01*
X108347084Y-52633098D01*
X108308146Y-52546658D01*
X108254578Y-52427743D01*
X108254577Y-52427741D01*
X108252388Y-52422882D01*
X108123627Y-52231626D01*
X108115394Y-52222995D01*
X107968161Y-52068656D01*
X107964482Y-52064799D01*
X107779504Y-51927171D01*
X107774743Y-51924751D01*
X107771425Y-51922693D01*
X107724071Y-51869796D01*
X107712832Y-51799695D01*
X107741277Y-51734645D01*
X107764564Y-51713093D01*
X107773304Y-51706847D01*
X107944711Y-51584357D01*
X108107030Y-51420617D01*
X108194043Y-51296580D01*
X108236375Y-51236236D01*
X108236376Y-51236234D01*
X108239439Y-51231868D01*
X108338153Y-51023508D01*
X108400349Y-50801494D01*
X108424249Y-50572176D01*
X108424500Y-50546000D01*
X108422498Y-50522404D01*
X108405458Y-50321576D01*
X108405457Y-50321572D01*
X108405007Y-50316265D01*
X108347084Y-50093098D01*
X108334939Y-50066136D01*
X108254578Y-49887743D01*
X108254577Y-49887741D01*
X108252388Y-49882882D01*
X108123627Y-49691626D01*
X108115394Y-49682995D01*
X107968161Y-49528656D01*
X107964482Y-49524799D01*
X107779504Y-49387171D01*
X107774743Y-49384751D01*
X107771425Y-49382693D01*
X107724071Y-49329796D01*
X107712832Y-49259695D01*
X107741277Y-49194645D01*
X107764564Y-49173093D01*
X107773304Y-49166847D01*
X107944711Y-49044357D01*
X108107030Y-48880617D01*
X108163540Y-48800062D01*
X108236375Y-48696236D01*
X108236376Y-48696234D01*
X108239439Y-48691868D01*
X108338153Y-48483508D01*
X108400349Y-48261494D01*
X108424249Y-48032176D01*
X108424500Y-48006000D01*
X108424250Y-48003052D01*
X108405458Y-47781576D01*
X108405457Y-47781572D01*
X108405007Y-47776265D01*
X108347084Y-47553098D01*
X108295731Y-47439098D01*
X108254578Y-47347743D01*
X108254577Y-47347741D01*
X108252388Y-47342882D01*
X108123627Y-47151626D01*
X107964482Y-46984799D01*
X107779504Y-46847171D01*
X107774743Y-46844751D01*
X107771425Y-46842693D01*
X107724071Y-46789796D01*
X107712832Y-46719695D01*
X107741277Y-46654645D01*
X107764564Y-46633093D01*
X107773304Y-46626847D01*
X107944711Y-46504357D01*
X108107030Y-46340617D01*
X108194043Y-46216580D01*
X108236375Y-46156236D01*
X108236376Y-46156234D01*
X108239439Y-46151868D01*
X108338153Y-45943508D01*
X108400349Y-45721494D01*
X108424249Y-45492176D01*
X108424500Y-45466000D01*
X108424250Y-45463052D01*
X108405458Y-45241576D01*
X108405457Y-45241572D01*
X108405007Y-45236265D01*
X108347084Y-45013098D01*
X108335519Y-44987423D01*
X108254578Y-44807743D01*
X108254577Y-44807741D01*
X108252388Y-44802882D01*
X108123627Y-44611626D01*
X108028508Y-44511915D01*
X107991868Y-44473507D01*
X107959321Y-44410410D01*
X107966052Y-44339733D01*
X108009926Y-44283916D01*
X108047538Y-44265640D01*
X108080545Y-44255948D01*
X108115670Y-44245635D01*
X108115672Y-44245634D01*
X108124316Y-44243096D01*
X108188135Y-44202082D01*
X108239691Y-44168949D01*
X108239694Y-44168947D01*
X108247271Y-44164077D01*
X108287048Y-44118172D01*
X108337082Y-44060431D01*
X108337084Y-44060428D01*
X108342984Y-44053619D01*
X108403700Y-43920670D01*
X108414962Y-43842340D01*
X108423861Y-43780448D01*
X108423862Y-43780441D01*
X108424500Y-43776000D01*
X108424500Y-42076000D01*
X110777500Y-42076000D01*
X110777500Y-43776000D01*
X110782727Y-43849079D01*
X110823904Y-43989316D01*
X110828775Y-43996895D01*
X110898051Y-44104691D01*
X110898053Y-44104694D01*
X110902923Y-44112271D01*
X110909733Y-44118172D01*
X111006569Y-44202082D01*
X111006572Y-44202084D01*
X111013381Y-44207984D01*
X111146330Y-44268700D01*
X111152639Y-44269607D01*
X111211244Y-44307269D01*
X111240738Y-44371849D01*
X111230636Y-44442123D01*
X111198601Y-44484949D01*
X111163492Y-44515415D01*
X111160109Y-44519541D01*
X111160105Y-44519545D01*
X111087768Y-44607767D01*
X111017304Y-44693705D01*
X111014665Y-44698341D01*
X111014663Y-44698344D01*
X110940257Y-44829056D01*
X110903245Y-44894077D01*
X110824578Y-45110802D01*
X110823629Y-45116051D01*
X110823628Y-45116054D01*
X110801890Y-45236265D01*
X110783551Y-45337683D01*
X110783500Y-45343023D01*
X110782097Y-45489210D01*
X110781338Y-45568233D01*
X110818002Y-45795861D01*
X110892494Y-46014056D01*
X111002685Y-46216580D01*
X111145424Y-46397644D01*
X111149389Y-46401220D01*
X111312659Y-46548489D01*
X111312665Y-46548494D01*
X111316629Y-46552069D01*
X111321142Y-46554928D01*
X111321144Y-46554929D01*
X111439242Y-46629731D01*
X111486087Y-46683079D01*
X111496654Y-46753285D01*
X111467587Y-46818058D01*
X111437186Y-46843894D01*
X111342196Y-46901535D01*
X111342189Y-46901540D01*
X111337631Y-46904306D01*
X111333601Y-46907803D01*
X111240426Y-46988656D01*
X111163492Y-47055415D01*
X111160109Y-47059541D01*
X111160105Y-47059545D01*
X111087768Y-47147767D01*
X111017304Y-47233705D01*
X110903245Y-47434077D01*
X110824578Y-47650802D01*
X110823629Y-47656051D01*
X110823628Y-47656054D01*
X110801890Y-47776265D01*
X110783551Y-47877683D01*
X110783500Y-47883023D01*
X110782097Y-48029210D01*
X110781338Y-48108233D01*
X110818002Y-48335861D01*
X110892494Y-48554056D01*
X110895044Y-48558743D01*
X110895045Y-48558745D01*
X110939771Y-48640949D01*
X111002685Y-48756580D01*
X111145424Y-48937644D01*
X111149389Y-48941220D01*
X111312659Y-49088489D01*
X111312665Y-49088494D01*
X111316629Y-49092069D01*
X111321142Y-49094928D01*
X111321144Y-49094929D01*
X111439242Y-49169731D01*
X111486087Y-49223079D01*
X111496654Y-49293285D01*
X111467587Y-49358058D01*
X111437186Y-49383894D01*
X111342196Y-49441535D01*
X111342189Y-49441540D01*
X111337631Y-49444306D01*
X111333601Y-49447803D01*
X111240426Y-49528656D01*
X111163492Y-49595415D01*
X111160109Y-49599541D01*
X111160105Y-49599545D01*
X111091681Y-49682995D01*
X111017304Y-49773705D01*
X111014665Y-49778341D01*
X111014663Y-49778344D01*
X110939626Y-49910165D01*
X110903245Y-49974077D01*
X110824578Y-50190802D01*
X110823629Y-50196051D01*
X110823628Y-50196054D01*
X110801890Y-50316265D01*
X110783551Y-50417683D01*
X110783500Y-50423023D01*
X110781446Y-50637018D01*
X110781338Y-50648233D01*
X110818002Y-50875861D01*
X110892494Y-51094056D01*
X111002685Y-51296580D01*
X111145424Y-51477644D01*
X111149389Y-51481220D01*
X111312659Y-51628489D01*
X111312665Y-51628494D01*
X111316629Y-51632069D01*
X111321142Y-51634928D01*
X111321144Y-51634929D01*
X111439242Y-51709731D01*
X111486087Y-51763079D01*
X111496654Y-51833285D01*
X111467587Y-51898058D01*
X111437186Y-51923894D01*
X111342196Y-51981535D01*
X111342189Y-51981540D01*
X111337631Y-51984306D01*
X111333601Y-51987803D01*
X111240426Y-52068656D01*
X111163492Y-52135415D01*
X111160109Y-52139541D01*
X111160105Y-52139545D01*
X111098557Y-52214609D01*
X111017304Y-52313705D01*
X111014665Y-52318341D01*
X111014663Y-52318344D01*
X110937338Y-52454184D01*
X110903245Y-52514077D01*
X110824578Y-52730802D01*
X110823629Y-52736051D01*
X110823628Y-52736054D01*
X110801890Y-52856265D01*
X110783551Y-52957683D01*
X110783500Y-52963023D01*
X110782097Y-53109210D01*
X110781338Y-53188233D01*
X110818002Y-53415861D01*
X110892494Y-53634056D01*
X111002685Y-53836580D01*
X111145424Y-54017644D01*
X111149389Y-54021220D01*
X111312659Y-54168489D01*
X111312665Y-54168494D01*
X111316629Y-54172069D01*
X111321142Y-54174928D01*
X111321144Y-54174929D01*
X111439242Y-54249731D01*
X111486087Y-54303079D01*
X111496654Y-54373285D01*
X111467587Y-54438058D01*
X111437186Y-54463894D01*
X111342196Y-54521535D01*
X111342189Y-54521540D01*
X111337631Y-54524306D01*
X111333601Y-54527803D01*
X111240426Y-54608656D01*
X111163492Y-54675415D01*
X111160109Y-54679541D01*
X111160105Y-54679545D01*
X111087768Y-54767767D01*
X111017304Y-54853705D01*
X111014666Y-54858339D01*
X111014663Y-54858344D01*
X110940257Y-54989056D01*
X110903245Y-55054077D01*
X110824578Y-55270802D01*
X110823629Y-55276051D01*
X110823628Y-55276054D01*
X110801890Y-55396265D01*
X110783551Y-55497683D01*
X110783500Y-55503023D01*
X110781643Y-55696493D01*
X110781338Y-55728233D01*
X110818002Y-55955861D01*
X110892494Y-56174056D01*
X111002685Y-56376580D01*
X111145424Y-56557644D01*
X111149389Y-56561220D01*
X111312659Y-56708489D01*
X111312665Y-56708494D01*
X111316629Y-56712069D01*
X111321142Y-56714928D01*
X111321144Y-56714929D01*
X111439242Y-56789731D01*
X111486087Y-56843079D01*
X111496654Y-56913285D01*
X111467587Y-56978058D01*
X111437186Y-57003894D01*
X111342196Y-57061535D01*
X111342189Y-57061540D01*
X111337631Y-57064306D01*
X111333601Y-57067803D01*
X111240426Y-57148656D01*
X111163492Y-57215415D01*
X111160109Y-57219541D01*
X111160105Y-57219545D01*
X111098557Y-57294609D01*
X111017304Y-57393705D01*
X111014665Y-57398341D01*
X111014663Y-57398344D01*
X110939558Y-57530285D01*
X110903245Y-57594077D01*
X110824578Y-57810802D01*
X110823629Y-57816051D01*
X110823628Y-57816054D01*
X110801890Y-57936265D01*
X110783551Y-58037683D01*
X110783500Y-58043023D01*
X110782097Y-58189210D01*
X110781338Y-58268233D01*
X110818002Y-58495861D01*
X110892494Y-58714056D01*
X111002685Y-58916580D01*
X111145424Y-59097644D01*
X111149389Y-59101220D01*
X111312659Y-59248489D01*
X111312665Y-59248494D01*
X111316629Y-59252069D01*
X111321142Y-59254928D01*
X111321144Y-59254929D01*
X111439242Y-59329731D01*
X111486087Y-59383079D01*
X111496654Y-59453285D01*
X111467587Y-59518058D01*
X111437186Y-59543894D01*
X111342196Y-59601535D01*
X111342189Y-59601540D01*
X111337631Y-59604306D01*
X111333601Y-59607803D01*
X111240426Y-59688656D01*
X111163492Y-59755415D01*
X111160109Y-59759541D01*
X111160105Y-59759545D01*
X111087768Y-59847767D01*
X111017304Y-59933705D01*
X111014665Y-59938341D01*
X111014663Y-59938344D01*
X110939936Y-60069620D01*
X110903245Y-60134077D01*
X110824578Y-60350802D01*
X110823629Y-60356051D01*
X110823628Y-60356054D01*
X110801890Y-60476265D01*
X110783551Y-60577683D01*
X110782993Y-60635867D01*
X110782097Y-60729210D01*
X110781338Y-60808233D01*
X110818002Y-61035861D01*
X110892494Y-61254056D01*
X110895044Y-61258743D01*
X110895045Y-61258745D01*
X110900321Y-61268442D01*
X111002685Y-61456580D01*
X111145424Y-61637644D01*
X111149389Y-61641220D01*
X111312659Y-61788489D01*
X111312665Y-61788494D01*
X111316629Y-61792069D01*
X111321142Y-61794928D01*
X111321144Y-61794929D01*
X111439242Y-61869731D01*
X111486087Y-61923079D01*
X111496654Y-61993285D01*
X111467587Y-62058058D01*
X111437186Y-62083894D01*
X111342196Y-62141535D01*
X111342189Y-62141540D01*
X111337631Y-62144306D01*
X111333601Y-62147803D01*
X111240426Y-62228656D01*
X111163492Y-62295415D01*
X111160109Y-62299541D01*
X111160105Y-62299545D01*
X111087768Y-62387767D01*
X111017304Y-62473705D01*
X111014665Y-62478341D01*
X111014663Y-62478344D01*
X110939558Y-62610285D01*
X110903245Y-62674077D01*
X110824578Y-62890802D01*
X110823629Y-62896051D01*
X110823628Y-62896054D01*
X110801890Y-63016265D01*
X110783551Y-63117683D01*
X110782862Y-63189454D01*
X110782097Y-63269210D01*
X110781338Y-63348233D01*
X110818002Y-63575861D01*
X110892494Y-63794056D01*
X111002685Y-63996580D01*
X111145424Y-64177644D01*
X111149389Y-64181220D01*
X111312659Y-64328489D01*
X111312665Y-64328494D01*
X111316629Y-64332069D01*
X111321142Y-64334928D01*
X111321144Y-64334929D01*
X111439242Y-64409731D01*
X111486087Y-64463079D01*
X111496654Y-64533285D01*
X111467587Y-64598058D01*
X111437186Y-64623894D01*
X111342196Y-64681535D01*
X111342189Y-64681540D01*
X111337631Y-64684306D01*
X111333601Y-64687803D01*
X111239995Y-64769030D01*
X111163492Y-64835415D01*
X111160109Y-64839541D01*
X111160105Y-64839545D01*
X111087768Y-64927767D01*
X111017304Y-65013705D01*
X111014665Y-65018341D01*
X111014663Y-65018344D01*
X110939936Y-65149621D01*
X110903245Y-65214077D01*
X110824578Y-65430802D01*
X110823629Y-65436051D01*
X110823628Y-65436054D01*
X110801890Y-65556265D01*
X110783551Y-65657683D01*
X110782993Y-65715867D01*
X110782097Y-65809210D01*
X110781338Y-65888233D01*
X110818002Y-66115861D01*
X110892494Y-66334056D01*
X110895044Y-66338743D01*
X110895045Y-66338745D01*
X110900321Y-66348442D01*
X111002685Y-66536580D01*
X111145424Y-66717644D01*
X111149389Y-66721220D01*
X111312659Y-66868489D01*
X111312665Y-66868494D01*
X111316629Y-66872069D01*
X111321142Y-66874928D01*
X111321144Y-66874929D01*
X111439242Y-66949731D01*
X111486087Y-67003079D01*
X111496654Y-67073285D01*
X111467587Y-67138058D01*
X111437186Y-67163894D01*
X111342196Y-67221535D01*
X111342191Y-67221539D01*
X111337631Y-67224306D01*
X111333601Y-67227803D01*
X111240426Y-67308656D01*
X111163492Y-67375415D01*
X111160109Y-67379541D01*
X111160105Y-67379545D01*
X111087768Y-67467767D01*
X111017304Y-67553705D01*
X110903245Y-67754077D01*
X110824578Y-67970802D01*
X110823629Y-67976051D01*
X110823628Y-67976054D01*
X110801890Y-68096265D01*
X110783551Y-68197683D01*
X110783500Y-68203023D01*
X110782097Y-68349210D01*
X110781338Y-68428233D01*
X110818002Y-68655861D01*
X110892494Y-68874056D01*
X111002685Y-69076580D01*
X111145424Y-69257644D01*
X111149389Y-69261220D01*
X111312659Y-69408489D01*
X111312665Y-69408494D01*
X111316629Y-69412069D01*
X111321142Y-69414928D01*
X111321144Y-69414929D01*
X111439242Y-69489731D01*
X111486087Y-69543079D01*
X111496654Y-69613285D01*
X111467587Y-69678058D01*
X111437186Y-69703894D01*
X111342196Y-69761535D01*
X111342189Y-69761540D01*
X111337631Y-69764306D01*
X111333601Y-69767803D01*
X111240426Y-69848656D01*
X111163492Y-69915415D01*
X111160109Y-69919541D01*
X111160105Y-69919545D01*
X111087768Y-70007767D01*
X111017304Y-70093705D01*
X111014665Y-70098341D01*
X111014663Y-70098344D01*
X110959088Y-70195976D01*
X110903245Y-70294077D01*
X110824578Y-70510802D01*
X110823629Y-70516051D01*
X110823628Y-70516054D01*
X110801890Y-70636265D01*
X110783551Y-70737683D01*
X110782993Y-70795867D01*
X110782097Y-70889210D01*
X110781338Y-70968233D01*
X110818002Y-71195861D01*
X110892494Y-71414056D01*
X110895044Y-71418743D01*
X110895045Y-71418745D01*
X110900321Y-71428442D01*
X111002685Y-71616580D01*
X111145424Y-71797644D01*
X111149389Y-71801220D01*
X111312659Y-71948489D01*
X111312665Y-71948494D01*
X111316629Y-71952069D01*
X111321142Y-71954928D01*
X111321144Y-71954929D01*
X111439242Y-72029731D01*
X111486087Y-72083079D01*
X111496654Y-72153285D01*
X111467587Y-72218058D01*
X111437186Y-72243894D01*
X111342196Y-72301535D01*
X111342189Y-72301540D01*
X111337631Y-72304306D01*
X111333601Y-72307803D01*
X111240426Y-72388656D01*
X111163492Y-72455415D01*
X111160109Y-72459541D01*
X111160105Y-72459545D01*
X111087768Y-72547767D01*
X111017304Y-72633705D01*
X111014665Y-72638341D01*
X111014663Y-72638344D01*
X110939558Y-72770285D01*
X110903245Y-72834077D01*
X110824578Y-73050802D01*
X110823629Y-73056051D01*
X110823628Y-73056054D01*
X110801890Y-73176265D01*
X110783551Y-73277683D01*
X110782862Y-73349454D01*
X110782097Y-73429210D01*
X110781338Y-73508233D01*
X110818002Y-73735861D01*
X110892494Y-73954056D01*
X111002685Y-74156580D01*
X111145424Y-74337644D01*
X111149389Y-74341220D01*
X111312659Y-74488489D01*
X111312665Y-74488494D01*
X111316629Y-74492069D01*
X111321142Y-74494928D01*
X111321144Y-74494929D01*
X111439712Y-74570029D01*
X111486557Y-74623377D01*
X111497124Y-74693583D01*
X111468057Y-74758357D01*
X111437656Y-74784192D01*
X111342486Y-74841942D01*
X111333896Y-74848206D01*
X111167884Y-74992264D01*
X111160464Y-74999895D01*
X111021100Y-75169860D01*
X111015075Y-75178627D01*
X110906342Y-75369644D01*
X110901877Y-75379308D01*
X110826882Y-75585916D01*
X110824111Y-75596184D01*
X110810008Y-75674174D01*
X110811427Y-75687414D01*
X110826062Y-75692000D01*
X113460079Y-75692000D01*
X113473610Y-75688027D01*
X113474876Y-75679218D01*
X113427954Y-75498433D01*
X113424419Y-75488395D01*
X113334147Y-75287998D01*
X113328967Y-75278692D01*
X113206218Y-75096366D01*
X113199557Y-75088080D01*
X113047830Y-74929030D01*
X113039873Y-74921990D01*
X112863524Y-74790783D01*
X112850981Y-74783005D01*
X112803628Y-74730107D01*
X112792391Y-74660005D01*
X112820838Y-74594957D01*
X112844122Y-74573409D01*
X113024711Y-74444357D01*
X113187030Y-74280617D01*
X113244440Y-74198779D01*
X113316375Y-74096236D01*
X113316376Y-74096234D01*
X113319439Y-74091868D01*
X113418153Y-73883508D01*
X113480349Y-73661494D01*
X113504249Y-73432176D01*
X113504500Y-73406000D01*
X113499702Y-73349454D01*
X113485458Y-73181576D01*
X113485457Y-73181572D01*
X113485007Y-73176265D01*
X113427084Y-72953098D01*
X113375731Y-72839098D01*
X113334578Y-72747743D01*
X113334577Y-72747741D01*
X113332388Y-72742882D01*
X113203627Y-72551626D01*
X113044482Y-72384799D01*
X112859504Y-72247171D01*
X112854743Y-72244751D01*
X112851425Y-72242693D01*
X112804071Y-72189796D01*
X112792832Y-72119695D01*
X112821277Y-72054645D01*
X112844564Y-72033093D01*
X112853304Y-72026847D01*
X113024711Y-71904357D01*
X113187030Y-71740617D01*
X113190090Y-71736255D01*
X113190095Y-71736249D01*
X113318547Y-71553140D01*
X113374043Y-71508859D01*
X113421697Y-71499500D01*
X117904617Y-71499500D01*
X117915521Y-71500014D01*
X117922912Y-71501666D01*
X117930837Y-71501417D01*
X117930838Y-71501417D01*
X117989853Y-71499562D01*
X117993811Y-71499500D01*
X118022578Y-71499500D01*
X118026502Y-71499004D01*
X118026504Y-71499004D01*
X118026852Y-71498960D01*
X118038698Y-71498027D01*
X118082883Y-71496638D01*
X118102339Y-71490986D01*
X118121679Y-71486981D01*
X118141788Y-71484440D01*
X118149158Y-71481522D01*
X118149162Y-71481521D01*
X118182900Y-71468163D01*
X118194130Y-71464318D01*
X118228968Y-71454197D01*
X118228969Y-71454197D01*
X118236578Y-71451986D01*
X118254012Y-71441676D01*
X118271764Y-71432980D01*
X118283225Y-71428442D01*
X118283224Y-71428442D01*
X118290600Y-71425522D01*
X118326375Y-71399530D01*
X118336294Y-71393014D01*
X118374341Y-71370513D01*
X118374759Y-71370145D01*
X118388842Y-71356062D01*
X118403867Y-71343228D01*
X118420083Y-71331446D01*
X118448030Y-71297664D01*
X118456019Y-71288885D01*
X124029037Y-65715867D01*
X124091349Y-65681841D01*
X124162164Y-65686906D01*
X124219000Y-65729453D01*
X124243811Y-65795973D01*
X124244126Y-65806164D01*
X124243338Y-65888233D01*
X124280002Y-66115861D01*
X124354494Y-66334056D01*
X124357044Y-66338743D01*
X124357045Y-66338745D01*
X124362321Y-66348442D01*
X124464685Y-66536580D01*
X124607424Y-66717644D01*
X124611389Y-66721220D01*
X124774659Y-66868489D01*
X124774665Y-66868494D01*
X124778629Y-66872069D01*
X124783142Y-66874928D01*
X124783144Y-66874929D01*
X124901242Y-66949731D01*
X124948087Y-67003079D01*
X124958654Y-67073285D01*
X124929587Y-67138058D01*
X124899186Y-67163894D01*
X124804196Y-67221535D01*
X124804191Y-67221539D01*
X124799631Y-67224306D01*
X124795601Y-67227803D01*
X124702426Y-67308656D01*
X124625492Y-67375415D01*
X124622109Y-67379541D01*
X124622105Y-67379545D01*
X124549768Y-67467767D01*
X124479304Y-67553705D01*
X124365245Y-67754077D01*
X124286578Y-67970802D01*
X124285629Y-67976051D01*
X124285628Y-67976054D01*
X124263890Y-68096265D01*
X124245551Y-68197683D01*
X124245500Y-68203023D01*
X124244097Y-68349210D01*
X124243338Y-68428233D01*
X124280002Y-68655861D01*
X124281727Y-68660913D01*
X124329779Y-68801664D01*
X124332859Y-68872594D01*
X124297103Y-68933928D01*
X124233221Y-68965358D01*
X124233117Y-68965361D01*
X124225500Y-68967574D01*
X124213667Y-68971012D01*
X124194305Y-68975022D01*
X124174212Y-68977560D01*
X124140349Y-68990967D01*
X124133108Y-68993834D01*
X124121878Y-68997679D01*
X124087034Y-69007802D01*
X124087032Y-69007803D01*
X124079421Y-69010014D01*
X124068900Y-69016236D01*
X124061989Y-69020323D01*
X124044236Y-69029020D01*
X124025400Y-69036478D01*
X124018985Y-69041139D01*
X123989626Y-69062469D01*
X123979707Y-69068984D01*
X123946758Y-69088471D01*
X123946755Y-69088473D01*
X123941659Y-69091487D01*
X123941241Y-69091855D01*
X123927158Y-69105938D01*
X123912133Y-69118772D01*
X123895917Y-69130554D01*
X123867971Y-69164335D01*
X123859981Y-69173115D01*
X113112175Y-79920921D01*
X113049863Y-79954947D01*
X112979048Y-79949882D01*
X112947867Y-79932915D01*
X112932572Y-79921535D01*
X112859504Y-79867171D01*
X112854743Y-79864751D01*
X112851425Y-79862693D01*
X112804071Y-79809796D01*
X112792832Y-79739695D01*
X112821277Y-79674645D01*
X112844564Y-79653093D01*
X112853304Y-79646847D01*
X113024711Y-79524357D01*
X113187030Y-79360617D01*
X113274043Y-79236580D01*
X113316375Y-79176236D01*
X113316376Y-79176234D01*
X113319439Y-79171868D01*
X113418153Y-78963508D01*
X113480349Y-78741494D01*
X113504249Y-78512176D01*
X113504500Y-78486000D01*
X113499359Y-78425405D01*
X113485458Y-78261576D01*
X113485457Y-78261572D01*
X113485007Y-78256265D01*
X113427084Y-78033098D01*
X113375731Y-77919098D01*
X113334578Y-77827743D01*
X113334577Y-77827741D01*
X113332388Y-77822882D01*
X113203627Y-77631626D01*
X113044482Y-77464799D01*
X112859504Y-77327171D01*
X112854742Y-77324750D01*
X112850967Y-77322409D01*
X112803613Y-77269512D01*
X112792374Y-77199410D01*
X112820819Y-77134361D01*
X112844107Y-77112809D01*
X113020034Y-76987089D01*
X113028149Y-76980182D01*
X113182893Y-76824082D01*
X113189706Y-76815933D01*
X113315940Y-76635988D01*
X113321295Y-76626787D01*
X113415399Y-76428156D01*
X113419123Y-76418197D01*
X113476968Y-76211718D01*
X113475430Y-76203351D01*
X113463137Y-76200000D01*
X110824403Y-76200000D01*
X110811222Y-76203870D01*
X110809255Y-76218423D01*
X110817638Y-76270471D01*
X110820212Y-76280793D01*
X110891230Y-76488810D01*
X110895497Y-76498533D01*
X111000556Y-76691625D01*
X111006402Y-76700491D01*
X111142486Y-76873113D01*
X111149750Y-76880875D01*
X111312967Y-77028094D01*
X111321444Y-77034528D01*
X111439717Y-77109442D01*
X111486562Y-77162790D01*
X111497129Y-77232996D01*
X111468062Y-77297770D01*
X111437662Y-77323605D01*
X111355057Y-77373731D01*
X111337631Y-77384306D01*
X111333601Y-77387803D01*
X111240426Y-77468656D01*
X111163492Y-77535415D01*
X111160109Y-77539541D01*
X111160105Y-77539545D01*
X111087768Y-77627767D01*
X111017304Y-77713705D01*
X111014665Y-77718341D01*
X111014663Y-77718344D01*
X110939558Y-77850285D01*
X110903245Y-77914077D01*
X110824578Y-78130802D01*
X110823629Y-78136051D01*
X110823628Y-78136054D01*
X110801890Y-78256265D01*
X110783551Y-78357683D01*
X110782901Y-78425405D01*
X110782097Y-78509210D01*
X110781338Y-78588233D01*
X110818002Y-78815861D01*
X110892494Y-79034056D01*
X111002685Y-79236580D01*
X111145424Y-79417644D01*
X111149389Y-79421220D01*
X111312659Y-79568489D01*
X111312665Y-79568494D01*
X111316629Y-79572069D01*
X111321142Y-79574928D01*
X111321144Y-79574929D01*
X111439242Y-79649731D01*
X111486087Y-79703079D01*
X111496654Y-79773285D01*
X111467587Y-79838058D01*
X111437186Y-79863894D01*
X111342196Y-79921535D01*
X111342189Y-79921540D01*
X111337631Y-79924306D01*
X111333601Y-79927803D01*
X111240426Y-80008656D01*
X111163492Y-80075415D01*
X111160109Y-80079541D01*
X111160105Y-80079545D01*
X111087768Y-80167767D01*
X111017304Y-80253705D01*
X111014665Y-80258341D01*
X111014663Y-80258344D01*
X110939558Y-80390285D01*
X110903245Y-80454077D01*
X110824578Y-80670802D01*
X110823629Y-80676051D01*
X110823628Y-80676054D01*
X110801890Y-80796265D01*
X110783551Y-80897683D01*
X110783500Y-80903023D01*
X110782097Y-81049210D01*
X110781338Y-81128233D01*
X110818002Y-81355861D01*
X110892494Y-81574056D01*
X111002685Y-81776580D01*
X111145424Y-81957644D01*
X111149389Y-81961220D01*
X111312659Y-82108489D01*
X111312665Y-82108494D01*
X111316629Y-82112069D01*
X111321142Y-82114928D01*
X111321144Y-82114929D01*
X111439242Y-82189731D01*
X111486087Y-82243079D01*
X111496654Y-82313285D01*
X111467587Y-82378058D01*
X111437186Y-82403894D01*
X111342196Y-82461535D01*
X111342189Y-82461540D01*
X111337631Y-82464306D01*
X111333601Y-82467803D01*
X111230204Y-82557526D01*
X111163492Y-82615415D01*
X111160109Y-82619541D01*
X111160105Y-82619545D01*
X111087768Y-82707767D01*
X111017304Y-82793705D01*
X111014665Y-82798341D01*
X111014663Y-82798344D01*
X110939558Y-82930285D01*
X110903245Y-82994077D01*
X110824578Y-83210802D01*
X110823629Y-83216051D01*
X110823628Y-83216054D01*
X110801890Y-83336265D01*
X110783551Y-83437683D01*
X110782919Y-83503537D01*
X110782097Y-83589210D01*
X110781338Y-83668233D01*
X110818002Y-83895861D01*
X110892494Y-84114056D01*
X111002685Y-84316580D01*
X111145424Y-84497644D01*
X111149389Y-84501220D01*
X111312659Y-84648489D01*
X111312665Y-84648494D01*
X111316629Y-84652069D01*
X111321142Y-84654928D01*
X111321144Y-84654929D01*
X111439242Y-84729731D01*
X111486087Y-84783079D01*
X111496654Y-84853285D01*
X111467587Y-84918058D01*
X111437186Y-84943894D01*
X111342196Y-85001535D01*
X111342189Y-85001540D01*
X111337631Y-85004306D01*
X111333601Y-85007803D01*
X111239995Y-85089030D01*
X111163492Y-85155415D01*
X111160109Y-85159541D01*
X111160105Y-85159545D01*
X111087768Y-85247767D01*
X111017304Y-85333705D01*
X111014665Y-85338341D01*
X111014663Y-85338344D01*
X110955156Y-85442882D01*
X110903245Y-85534077D01*
X110824578Y-85750802D01*
X110823629Y-85756051D01*
X110823628Y-85756054D01*
X110801890Y-85876265D01*
X110783551Y-85977683D01*
X110783500Y-85983023D01*
X110782097Y-86129210D01*
X110781338Y-86208233D01*
X110818002Y-86435861D01*
X110892494Y-86654056D01*
X111002685Y-86856580D01*
X111145424Y-87037644D01*
X111149389Y-87041220D01*
X111312659Y-87188489D01*
X111312665Y-87188494D01*
X111316629Y-87192069D01*
X111321142Y-87194928D01*
X111321144Y-87194929D01*
X111439242Y-87269731D01*
X111486087Y-87323079D01*
X111496654Y-87393285D01*
X111467587Y-87458058D01*
X111437186Y-87483894D01*
X111342196Y-87541535D01*
X111342189Y-87541540D01*
X111337631Y-87544306D01*
X111333601Y-87547803D01*
X111174810Y-87685594D01*
X111163492Y-87695415D01*
X111160109Y-87699541D01*
X111160105Y-87699545D01*
X111087768Y-87787767D01*
X111017304Y-87873705D01*
X110903245Y-88074077D01*
X110824578Y-88290802D01*
X110823629Y-88296051D01*
X110823628Y-88296054D01*
X110801890Y-88416265D01*
X110783551Y-88517683D01*
X110783500Y-88523023D01*
X110782097Y-88669210D01*
X110781338Y-88748233D01*
X110818002Y-88975861D01*
X110892494Y-89194056D01*
X111002685Y-89396580D01*
X111145424Y-89577644D01*
X111149389Y-89581220D01*
X111312659Y-89728489D01*
X111312665Y-89728494D01*
X111316629Y-89732069D01*
X111321142Y-89734928D01*
X111321144Y-89734929D01*
X111439242Y-89809731D01*
X111486087Y-89863079D01*
X111496654Y-89933285D01*
X111467587Y-89998058D01*
X111437186Y-90023894D01*
X111342196Y-90081535D01*
X111342189Y-90081540D01*
X111337631Y-90084306D01*
X111333601Y-90087803D01*
X111240426Y-90168656D01*
X111163492Y-90235415D01*
X111160109Y-90239541D01*
X111160105Y-90239545D01*
X111087768Y-90327767D01*
X111017304Y-90413705D01*
X110903245Y-90614077D01*
X110824578Y-90830802D01*
X110823629Y-90836051D01*
X110823628Y-90836054D01*
X110801890Y-90956265D01*
X110783551Y-91057683D01*
X110783500Y-91063023D01*
X110782097Y-91209210D01*
X110781338Y-91288233D01*
X110818002Y-91515861D01*
X110892494Y-91734056D01*
X110895044Y-91738743D01*
X110895045Y-91738745D01*
X110947589Y-91835318D01*
X111002685Y-91936580D01*
X111145424Y-92117644D01*
X111149389Y-92121220D01*
X111312659Y-92268489D01*
X111312665Y-92268494D01*
X111316629Y-92272069D01*
X111321142Y-92274928D01*
X111321144Y-92274929D01*
X111439242Y-92349731D01*
X111486087Y-92403079D01*
X111496654Y-92473285D01*
X111467587Y-92538058D01*
X111437186Y-92563894D01*
X111342196Y-92621535D01*
X111342189Y-92621540D01*
X111337631Y-92624306D01*
X111333601Y-92627803D01*
X111240426Y-92708656D01*
X111163492Y-92775415D01*
X111160109Y-92779541D01*
X111160105Y-92779545D01*
X111087768Y-92867767D01*
X111017304Y-92953705D01*
X110903245Y-93154077D01*
X110824578Y-93370802D01*
X110823629Y-93376051D01*
X110823628Y-93376054D01*
X110801890Y-93496265D01*
X110783551Y-93597683D01*
X110783500Y-93603023D01*
X110782097Y-93749210D01*
X110781338Y-93828233D01*
X110818002Y-94055861D01*
X110892494Y-94274056D01*
X111002685Y-94476580D01*
X111145424Y-94657644D01*
X111149389Y-94661220D01*
X111312659Y-94808489D01*
X111312665Y-94808494D01*
X111316629Y-94812069D01*
X111321142Y-94814928D01*
X111321144Y-94814929D01*
X111439242Y-94889731D01*
X111486087Y-94943079D01*
X111496654Y-95013285D01*
X111467587Y-95078058D01*
X111437186Y-95103894D01*
X111342196Y-95161535D01*
X111342189Y-95161540D01*
X111337631Y-95164306D01*
X111333601Y-95167803D01*
X111210069Y-95274998D01*
X111163492Y-95315415D01*
X111160109Y-95319541D01*
X111160105Y-95319545D01*
X111081045Y-95415967D01*
X111017304Y-95493705D01*
X110903245Y-95694077D01*
X110824578Y-95910802D01*
X110823629Y-95916051D01*
X110823628Y-95916054D01*
X110801890Y-96036265D01*
X110783551Y-96137683D01*
X110783500Y-96143023D01*
X110782097Y-96289210D01*
X110781338Y-96368233D01*
X110818002Y-96595861D01*
X110892494Y-96814056D01*
X111002685Y-97016580D01*
X111145424Y-97197644D01*
X111149389Y-97201220D01*
X111312659Y-97348489D01*
X111312665Y-97348494D01*
X111316629Y-97352069D01*
X111321142Y-97354928D01*
X111321144Y-97354929D01*
X111439242Y-97429731D01*
X111486087Y-97483079D01*
X111496654Y-97553285D01*
X111467587Y-97618058D01*
X111437186Y-97643894D01*
X111342196Y-97701535D01*
X111342189Y-97701540D01*
X111337631Y-97704306D01*
X111333601Y-97707803D01*
X111240426Y-97788656D01*
X111163492Y-97855415D01*
X111160109Y-97859541D01*
X111160105Y-97859545D01*
X111087768Y-97947767D01*
X111017304Y-98033705D01*
X110903245Y-98234077D01*
X110824578Y-98450802D01*
X110823629Y-98456051D01*
X110823628Y-98456054D01*
X110801890Y-98576265D01*
X110783551Y-98677683D01*
X110783500Y-98683023D01*
X110782097Y-98829210D01*
X110781338Y-98908233D01*
X110818002Y-99135861D01*
X110892494Y-99354056D01*
X111002685Y-99556580D01*
X111145424Y-99737644D01*
X111149389Y-99741220D01*
X111312659Y-99888489D01*
X111312665Y-99888494D01*
X111316629Y-99892069D01*
X111321142Y-99894928D01*
X111321144Y-99894929D01*
X111439242Y-99969731D01*
X111486087Y-100023079D01*
X111496654Y-100093285D01*
X111467587Y-100158058D01*
X111437186Y-100183894D01*
X111342196Y-100241535D01*
X111342189Y-100241540D01*
X111337631Y-100244306D01*
X111333601Y-100247803D01*
X111240426Y-100328656D01*
X111163492Y-100395415D01*
X111160109Y-100399541D01*
X111160105Y-100399545D01*
X111087768Y-100487767D01*
X111017304Y-100573705D01*
X110903245Y-100774077D01*
X110824578Y-100990802D01*
X110823629Y-100996051D01*
X110823628Y-100996054D01*
X110801890Y-101116265D01*
X110783551Y-101217683D01*
X110783500Y-101223023D01*
X110782097Y-101369210D01*
X110781338Y-101448233D01*
X110818002Y-101675861D01*
X110892494Y-101894056D01*
X111002685Y-102096580D01*
X111145424Y-102277644D01*
X111149389Y-102281220D01*
X111312659Y-102428489D01*
X111312665Y-102428494D01*
X111316629Y-102432069D01*
X111321142Y-102434928D01*
X111321144Y-102434929D01*
X111439242Y-102509731D01*
X111486087Y-102563079D01*
X111496654Y-102633285D01*
X111467587Y-102698058D01*
X111437186Y-102723894D01*
X111342196Y-102781535D01*
X111342189Y-102781540D01*
X111337631Y-102784306D01*
X111333601Y-102787803D01*
X111240426Y-102868656D01*
X111163492Y-102935415D01*
X111160109Y-102939541D01*
X111160105Y-102939545D01*
X111087768Y-103027767D01*
X111017304Y-103113705D01*
X110903245Y-103314077D01*
X110824578Y-103530802D01*
X110823629Y-103536051D01*
X110823628Y-103536054D01*
X110801890Y-103656265D01*
X110783551Y-103757683D01*
X110783500Y-103763023D01*
X110782097Y-103909210D01*
X110781338Y-103988233D01*
X110818002Y-104215861D01*
X110892494Y-104434056D01*
X111002685Y-104636580D01*
X111145424Y-104817644D01*
X111149389Y-104821220D01*
X111312659Y-104968489D01*
X111312665Y-104968494D01*
X111316629Y-104972069D01*
X111321142Y-104974928D01*
X111321144Y-104974929D01*
X111439242Y-105049731D01*
X111486087Y-105103079D01*
X111496654Y-105173285D01*
X111467587Y-105238058D01*
X111437186Y-105263894D01*
X111342196Y-105321535D01*
X111342189Y-105321540D01*
X111337631Y-105324306D01*
X111333601Y-105327803D01*
X111240426Y-105408656D01*
X111163492Y-105475415D01*
X111160109Y-105479541D01*
X111160105Y-105479545D01*
X111087768Y-105567767D01*
X111017304Y-105653705D01*
X110903245Y-105854077D01*
X110824578Y-106070802D01*
X110823629Y-106076051D01*
X110823628Y-106076054D01*
X110801890Y-106196265D01*
X110783551Y-106297683D01*
X110783500Y-106303023D01*
X110782097Y-106449210D01*
X110781338Y-106528233D01*
X110818002Y-106755861D01*
X110892494Y-106974056D01*
X111002685Y-107176580D01*
X111145424Y-107357644D01*
X111149389Y-107361220D01*
X111312659Y-107508489D01*
X111312665Y-107508494D01*
X111316629Y-107512069D01*
X111321142Y-107514928D01*
X111321144Y-107514929D01*
X111439242Y-107589731D01*
X111486087Y-107643079D01*
X111496654Y-107713285D01*
X111467587Y-107778058D01*
X111437186Y-107803894D01*
X111342196Y-107861535D01*
X111342189Y-107861540D01*
X111337631Y-107864306D01*
X111333601Y-107867803D01*
X111240426Y-107948656D01*
X111163492Y-108015415D01*
X111160109Y-108019541D01*
X111160105Y-108019545D01*
X111087768Y-108107767D01*
X111017304Y-108193705D01*
X111014665Y-108198341D01*
X111014663Y-108198344D01*
X110948693Y-108314237D01*
X110903245Y-108394077D01*
X110824578Y-108610802D01*
X110823629Y-108616051D01*
X110823628Y-108616054D01*
X110784501Y-108832429D01*
X110783551Y-108837683D01*
X110783500Y-108843023D01*
X110782097Y-108989210D01*
X110781338Y-109068233D01*
X110818002Y-109295861D01*
X110892494Y-109514056D01*
X111002685Y-109716580D01*
X111145424Y-109897644D01*
X111149389Y-109901220D01*
X111312659Y-110048489D01*
X111312665Y-110048494D01*
X111316629Y-110052069D01*
X111321142Y-110054928D01*
X111321144Y-110054929D01*
X111439242Y-110129731D01*
X111486087Y-110183079D01*
X111496654Y-110253285D01*
X111467587Y-110318058D01*
X111437186Y-110343894D01*
X111342196Y-110401535D01*
X111342189Y-110401540D01*
X111337631Y-110404306D01*
X111333601Y-110407803D01*
X111240426Y-110488656D01*
X111163492Y-110555415D01*
X111160109Y-110559541D01*
X111160105Y-110559545D01*
X111087768Y-110647767D01*
X111017304Y-110733705D01*
X111014665Y-110738341D01*
X111014663Y-110738344D01*
X111011117Y-110744574D01*
X110903245Y-110934077D01*
X110824578Y-111150802D01*
X110823629Y-111156051D01*
X110823628Y-111156054D01*
X110801890Y-111276265D01*
X110783551Y-111377683D01*
X110783500Y-111383023D01*
X110782097Y-111529210D01*
X110781338Y-111608233D01*
X110818002Y-111835861D01*
X110892494Y-112054056D01*
X111002685Y-112256580D01*
X111145424Y-112437644D01*
X111149389Y-112441220D01*
X111312659Y-112588489D01*
X111312665Y-112588494D01*
X111316629Y-112592069D01*
X111321142Y-112594928D01*
X111321144Y-112594929D01*
X111439712Y-112670029D01*
X111486557Y-112723377D01*
X111497124Y-112793583D01*
X111468057Y-112858357D01*
X111437656Y-112884192D01*
X111342486Y-112941942D01*
X111333896Y-112948206D01*
X111167884Y-113092264D01*
X111160464Y-113099895D01*
X111021100Y-113269860D01*
X111015075Y-113278627D01*
X110906342Y-113469644D01*
X110901877Y-113479308D01*
X110826882Y-113685916D01*
X110824111Y-113696184D01*
X110810008Y-113774174D01*
X110811427Y-113787414D01*
X110826062Y-113792000D01*
X113460079Y-113792000D01*
X113473610Y-113788027D01*
X113474876Y-113779218D01*
X113427954Y-113598433D01*
X113424419Y-113588395D01*
X113334147Y-113387998D01*
X113328967Y-113378692D01*
X113206218Y-113196366D01*
X113199557Y-113188080D01*
X113047830Y-113029030D01*
X113039873Y-113021990D01*
X112863524Y-112890783D01*
X112850981Y-112883005D01*
X112803628Y-112830107D01*
X112792391Y-112760005D01*
X112820838Y-112694957D01*
X112844122Y-112673409D01*
X113013926Y-112552064D01*
X117832288Y-112552064D01*
X117841582Y-112564078D01*
X117892790Y-112599934D01*
X117902285Y-112605417D01*
X118099741Y-112697491D01*
X118110037Y-112701239D01*
X118320488Y-112757630D01*
X118331275Y-112759532D01*
X118548323Y-112778521D01*
X118559273Y-112778521D01*
X118776321Y-112759532D01*
X118787108Y-112757630D01*
X118997559Y-112701239D01*
X119007855Y-112697491D01*
X119205311Y-112605417D01*
X119214806Y-112599934D01*
X119266848Y-112563494D01*
X119275224Y-112553015D01*
X119268157Y-112539570D01*
X118566609Y-111838021D01*
X118552666Y-111830408D01*
X118550832Y-111830539D01*
X118544218Y-111834790D01*
X117838715Y-112540294D01*
X117832288Y-112552064D01*
X113013926Y-112552064D01*
X113024711Y-112544357D01*
X113187030Y-112380617D01*
X113274043Y-112256580D01*
X113316375Y-112196236D01*
X113316376Y-112196234D01*
X113319439Y-112191868D01*
X113350168Y-112127008D01*
X113415868Y-111988331D01*
X113418153Y-111983508D01*
X113480349Y-111761494D01*
X113504249Y-111532176D01*
X113504500Y-111506000D01*
X113501010Y-111464868D01*
X113500642Y-111460525D01*
X117241277Y-111460525D01*
X117241277Y-111471475D01*
X117260266Y-111688523D01*
X117262168Y-111699310D01*
X117318559Y-111909761D01*
X117322307Y-111920057D01*
X117414381Y-112117513D01*
X117419864Y-112127008D01*
X117456304Y-112179050D01*
X117466783Y-112187426D01*
X117480228Y-112180359D01*
X118181777Y-111478811D01*
X118188153Y-111467132D01*
X118918206Y-111467132D01*
X118918337Y-111468966D01*
X118922588Y-111475580D01*
X119628092Y-112181083D01*
X119639862Y-112187510D01*
X119651876Y-112178216D01*
X119687732Y-112127008D01*
X119693215Y-112117513D01*
X119785289Y-111920057D01*
X119789037Y-111909761D01*
X119845428Y-111699310D01*
X119847330Y-111688523D01*
X119866319Y-111471475D01*
X119866319Y-111460525D01*
X119847330Y-111243477D01*
X119845428Y-111232690D01*
X119789037Y-111022239D01*
X119785289Y-111011943D01*
X119693215Y-110814487D01*
X119687732Y-110804992D01*
X119651292Y-110752950D01*
X119640813Y-110744574D01*
X119627368Y-110751641D01*
X118925819Y-111453189D01*
X118918206Y-111467132D01*
X118188153Y-111467132D01*
X118189390Y-111464868D01*
X118189259Y-111463034D01*
X118185008Y-111456420D01*
X117479504Y-110750917D01*
X117467734Y-110744490D01*
X117455720Y-110753784D01*
X117419864Y-110804992D01*
X117414381Y-110814487D01*
X117322307Y-111011943D01*
X117318559Y-111022239D01*
X117262168Y-111232690D01*
X117260266Y-111243477D01*
X117241277Y-111460525D01*
X113500642Y-111460525D01*
X113485458Y-111281576D01*
X113485457Y-111281572D01*
X113485007Y-111276265D01*
X113427084Y-111053098D01*
X113375731Y-110939098D01*
X113334578Y-110847743D01*
X113334577Y-110847741D01*
X113332388Y-110842882D01*
X113203627Y-110651626D01*
X113044482Y-110484799D01*
X112859504Y-110347171D01*
X112854743Y-110344751D01*
X112851425Y-110342693D01*
X112804071Y-110289796D01*
X112792832Y-110219695D01*
X112821277Y-110154645D01*
X112844564Y-110133093D01*
X112890355Y-110100370D01*
X113024711Y-110004357D01*
X113187030Y-109840617D01*
X113274043Y-109716580D01*
X113316375Y-109656236D01*
X113316376Y-109656234D01*
X113319439Y-109651868D01*
X113418153Y-109443508D01*
X113480349Y-109221494D01*
X113482652Y-109199402D01*
X113503941Y-108995127D01*
X113504249Y-108992176D01*
X113504500Y-108966000D01*
X117240298Y-108966000D01*
X117260253Y-109194087D01*
X117261677Y-109199400D01*
X117261677Y-109199402D01*
X117268975Y-109226636D01*
X117319512Y-109415243D01*
X117321834Y-109420224D01*
X117321835Y-109420225D01*
X117413948Y-109617763D01*
X117413951Y-109617768D01*
X117416274Y-109622750D01*
X117419430Y-109627257D01*
X117419431Y-109627259D01*
X117436663Y-109651868D01*
X117547599Y-109810302D01*
X117709496Y-109972199D01*
X117714004Y-109975356D01*
X117714007Y-109975358D01*
X117892543Y-110100370D01*
X117892546Y-110100372D01*
X117897048Y-110103524D01*
X117902030Y-110105847D01*
X117904323Y-110107171D01*
X117953315Y-110158554D01*
X117966750Y-110228268D01*
X117940363Y-110294178D01*
X117904319Y-110325409D01*
X117892794Y-110332062D01*
X117840748Y-110368506D01*
X117832372Y-110378985D01*
X117839439Y-110392430D01*
X118540987Y-111093979D01*
X118554930Y-111101592D01*
X118556764Y-111101461D01*
X118563378Y-111097210D01*
X119268881Y-110391706D01*
X119275308Y-110379936D01*
X119266014Y-110367922D01*
X119214802Y-110332062D01*
X119203277Y-110325409D01*
X119154283Y-110274027D01*
X119140845Y-110204314D01*
X119167231Y-110138403D01*
X119203273Y-110107171D01*
X119205566Y-110105847D01*
X119210548Y-110103524D01*
X119215050Y-110100372D01*
X119215053Y-110100370D01*
X119393589Y-109975358D01*
X119393592Y-109975356D01*
X119398100Y-109972199D01*
X119559997Y-109810302D01*
X119670934Y-109651868D01*
X119688165Y-109627259D01*
X119688166Y-109627257D01*
X119691322Y-109622750D01*
X119693645Y-109617768D01*
X119693648Y-109617763D01*
X119785761Y-109420225D01*
X119785762Y-109420224D01*
X119788084Y-109415243D01*
X119838622Y-109226636D01*
X119845919Y-109199402D01*
X119845919Y-109199400D01*
X119847343Y-109194087D01*
X119867298Y-108966000D01*
X119847343Y-108737913D01*
X119814691Y-108616054D01*
X119789507Y-108522067D01*
X119789506Y-108522065D01*
X119788084Y-108516757D01*
X119733219Y-108399098D01*
X119693648Y-108314237D01*
X119693645Y-108314232D01*
X119691322Y-108309250D01*
X119610417Y-108193705D01*
X119563156Y-108126209D01*
X119563154Y-108126206D01*
X119559997Y-108121698D01*
X119398100Y-107959801D01*
X119393592Y-107956644D01*
X119393589Y-107956642D01*
X119215057Y-107831633D01*
X119215055Y-107831632D01*
X119210548Y-107828476D01*
X119205566Y-107826153D01*
X119205561Y-107826150D01*
X119008023Y-107734037D01*
X119008022Y-107734036D01*
X119003041Y-107731714D01*
X118997733Y-107730292D01*
X118997731Y-107730291D01*
X118787200Y-107673879D01*
X118787198Y-107673879D01*
X118781885Y-107672455D01*
X118553798Y-107652500D01*
X118325711Y-107672455D01*
X118320398Y-107673879D01*
X118320396Y-107673879D01*
X118109865Y-107730291D01*
X118109863Y-107730292D01*
X118104555Y-107731714D01*
X118099574Y-107734036D01*
X118099573Y-107734037D01*
X117902035Y-107826150D01*
X117902030Y-107826153D01*
X117897048Y-107828476D01*
X117892541Y-107831632D01*
X117892539Y-107831633D01*
X117714007Y-107956642D01*
X117714004Y-107956644D01*
X117709496Y-107959801D01*
X117547599Y-108121698D01*
X117544442Y-108126206D01*
X117544440Y-108126209D01*
X117497179Y-108193705D01*
X117416274Y-108309250D01*
X117413951Y-108314232D01*
X117413948Y-108314237D01*
X117374377Y-108399098D01*
X117319512Y-108516757D01*
X117318090Y-108522065D01*
X117318089Y-108522067D01*
X117292905Y-108616054D01*
X117260253Y-108737913D01*
X117240298Y-108966000D01*
X113504500Y-108966000D01*
X113504250Y-108963052D01*
X113485458Y-108741576D01*
X113485457Y-108741572D01*
X113485007Y-108736265D01*
X113427084Y-108513098D01*
X113375731Y-108399098D01*
X113334578Y-108307743D01*
X113334577Y-108307741D01*
X113332388Y-108302882D01*
X113203627Y-108111626D01*
X113044482Y-107944799D01*
X112859504Y-107807171D01*
X112854743Y-107804751D01*
X112851425Y-107802693D01*
X112804071Y-107749796D01*
X112792832Y-107679695D01*
X112821277Y-107614645D01*
X112844564Y-107593093D01*
X112853304Y-107586847D01*
X113024711Y-107464357D01*
X113187030Y-107300617D01*
X113274043Y-107176580D01*
X113316375Y-107116236D01*
X113316376Y-107116234D01*
X113319439Y-107111868D01*
X113418153Y-106903508D01*
X113480349Y-106681494D01*
X113504249Y-106452176D01*
X113504500Y-106426000D01*
X113504250Y-106423052D01*
X113485458Y-106201576D01*
X113485457Y-106201572D01*
X113485007Y-106196265D01*
X113483668Y-106191105D01*
X113483668Y-106191104D01*
X113458119Y-106092670D01*
X113460366Y-106021709D01*
X113490983Y-105971921D01*
X123963523Y-95499382D01*
X123971601Y-95492031D01*
X123977995Y-95487973D01*
X124023855Y-95439137D01*
X124026609Y-95436296D01*
X124046938Y-95415967D01*
X124049374Y-95412827D01*
X124049597Y-95412540D01*
X124057293Y-95403530D01*
X124082128Y-95377082D01*
X124087557Y-95371301D01*
X124097313Y-95353555D01*
X124108164Y-95337036D01*
X124115722Y-95327292D01*
X124115725Y-95327287D01*
X124120583Y-95321024D01*
X124138139Y-95280454D01*
X124143362Y-95269792D01*
X124160843Y-95237995D01*
X124160843Y-95237994D01*
X124164662Y-95231048D01*
X124166635Y-95223365D01*
X124169702Y-95211423D01*
X124176103Y-95192725D01*
X124180999Y-95181410D01*
X124184147Y-95174136D01*
X124191063Y-95130472D01*
X124193470Y-95118851D01*
X124202987Y-95081782D01*
X124202987Y-95081781D01*
X124204465Y-95076025D01*
X124204500Y-95075469D01*
X124204500Y-95055547D01*
X124206051Y-95035836D01*
X124207944Y-95023884D01*
X124209184Y-95016056D01*
X124205059Y-94972417D01*
X124204500Y-94960560D01*
X124204500Y-86872555D01*
X124224502Y-86804434D01*
X124278158Y-86757941D01*
X124348432Y-86747837D01*
X124413012Y-86777331D01*
X124441178Y-86812336D01*
X124462550Y-86851617D01*
X124468402Y-86860491D01*
X124604486Y-87033113D01*
X124611750Y-87040875D01*
X124774967Y-87188094D01*
X124783444Y-87194528D01*
X124969122Y-87312136D01*
X124978567Y-87317053D01*
X125181406Y-87401694D01*
X125191545Y-87404950D01*
X125331345Y-87437096D01*
X125345422Y-87436257D01*
X125349000Y-87426999D01*
X125349000Y-86373548D01*
X125857000Y-86373548D01*
X125857000Y-87425941D01*
X125861151Y-87440079D01*
X125871798Y-87441774D01*
X125875192Y-87441096D01*
X126086333Y-87379954D01*
X126096259Y-87376143D01*
X126294065Y-87280307D01*
X126303212Y-87274876D01*
X126482041Y-87147083D01*
X126490149Y-87140182D01*
X126644893Y-86984082D01*
X126651706Y-86975933D01*
X126770687Y-86806327D01*
X126826183Y-86762047D01*
X126896809Y-86754800D01*
X126960141Y-86786886D01*
X126984516Y-86818469D01*
X127002556Y-86851625D01*
X127008402Y-86860491D01*
X127144486Y-87033113D01*
X127151750Y-87040875D01*
X127314967Y-87188094D01*
X127323444Y-87194528D01*
X127509122Y-87312136D01*
X127518567Y-87317053D01*
X127721406Y-87401694D01*
X127731545Y-87404950D01*
X127871345Y-87437096D01*
X127885422Y-87436257D01*
X127889000Y-87426999D01*
X127889000Y-86378115D01*
X127887659Y-86373548D01*
X128397000Y-86373548D01*
X128397000Y-87425941D01*
X128401151Y-87440079D01*
X128411798Y-87441774D01*
X128415192Y-87441096D01*
X128626333Y-87379954D01*
X128636259Y-87376143D01*
X128834065Y-87280307D01*
X128843212Y-87274876D01*
X129022041Y-87147083D01*
X129030149Y-87140182D01*
X129184893Y-86984082D01*
X129191706Y-86975933D01*
X129317940Y-86795988D01*
X129323295Y-86786787D01*
X129417399Y-86588156D01*
X129421123Y-86578197D01*
X129478968Y-86371718D01*
X129477430Y-86363351D01*
X129465137Y-86360000D01*
X128415115Y-86360000D01*
X128399876Y-86364475D01*
X128398671Y-86365865D01*
X128397000Y-86373548D01*
X127887659Y-86373548D01*
X127884525Y-86362876D01*
X127883135Y-86361671D01*
X127875452Y-86360000D01*
X125875115Y-86360000D01*
X125859876Y-86364475D01*
X125858671Y-86365865D01*
X125857000Y-86373548D01*
X125349000Y-86373548D01*
X125349000Y-85978000D01*
X125369002Y-85909879D01*
X125422658Y-85863386D01*
X125475000Y-85852000D01*
X129462079Y-85852000D01*
X129475610Y-85848027D01*
X129476876Y-85839218D01*
X129429954Y-85658433D01*
X129426419Y-85648395D01*
X129336147Y-85447998D01*
X129330967Y-85438692D01*
X129208218Y-85256366D01*
X129201557Y-85248080D01*
X129049830Y-85089030D01*
X129041873Y-85081990D01*
X128865524Y-84950783D01*
X128852981Y-84943005D01*
X128805628Y-84890107D01*
X128794391Y-84820005D01*
X128822838Y-84754957D01*
X128846122Y-84733409D01*
X129026711Y-84604357D01*
X129189030Y-84440617D01*
X129279330Y-84311895D01*
X129318375Y-84256236D01*
X129318376Y-84256234D01*
X129321439Y-84251868D01*
X129420153Y-84043508D01*
X129482349Y-83821494D01*
X129506249Y-83592176D01*
X129506500Y-83566000D01*
X129504810Y-83546084D01*
X129487458Y-83341576D01*
X129487457Y-83341572D01*
X129487007Y-83336265D01*
X129482891Y-83320404D01*
X129430426Y-83118269D01*
X129429084Y-83113098D01*
X129377731Y-82999098D01*
X129336578Y-82907743D01*
X129336577Y-82907741D01*
X129334388Y-82902882D01*
X129205627Y-82711626D01*
X129046482Y-82544799D01*
X128861504Y-82407171D01*
X128856743Y-82404751D01*
X128853425Y-82402693D01*
X128806071Y-82349796D01*
X128794832Y-82279695D01*
X128823277Y-82214645D01*
X128846564Y-82193093D01*
X128855304Y-82186847D01*
X129026711Y-82064357D01*
X129189030Y-81900617D01*
X129276043Y-81776580D01*
X129318375Y-81716236D01*
X129318376Y-81716234D01*
X129321439Y-81711868D01*
X129420153Y-81503508D01*
X129482349Y-81281494D01*
X129506249Y-81052176D01*
X129506500Y-81026000D01*
X129506250Y-81023052D01*
X129487458Y-80801576D01*
X129487457Y-80801572D01*
X129487007Y-80796265D01*
X129429084Y-80573098D01*
X129377731Y-80459098D01*
X129336578Y-80367743D01*
X129336577Y-80367741D01*
X129334388Y-80362882D01*
X129205627Y-80171626D01*
X129046482Y-80004799D01*
X128861504Y-79867171D01*
X128856743Y-79864751D01*
X128853425Y-79862693D01*
X128806071Y-79809796D01*
X128794832Y-79739695D01*
X128823277Y-79674645D01*
X128846564Y-79653093D01*
X128855304Y-79646847D01*
X129026711Y-79524357D01*
X129189030Y-79360617D01*
X129276043Y-79236580D01*
X129318375Y-79176236D01*
X129318376Y-79176234D01*
X129321439Y-79171868D01*
X129420153Y-78963508D01*
X129482349Y-78741494D01*
X129506249Y-78512176D01*
X129506500Y-78486000D01*
X129501359Y-78425405D01*
X129487458Y-78261576D01*
X129487457Y-78261572D01*
X129487007Y-78256265D01*
X129429084Y-78033098D01*
X129377731Y-77919098D01*
X129336578Y-77827743D01*
X129336577Y-77827741D01*
X129334388Y-77822882D01*
X129205627Y-77631626D01*
X129046482Y-77464799D01*
X128861504Y-77327171D01*
X128856743Y-77324751D01*
X128853425Y-77322693D01*
X128806071Y-77269796D01*
X128794832Y-77199695D01*
X128823277Y-77134645D01*
X128846564Y-77113093D01*
X128956504Y-77034528D01*
X129026711Y-76984357D01*
X129127653Y-76882531D01*
X129185277Y-76824403D01*
X129185278Y-76824402D01*
X129189030Y-76820617D01*
X129249355Y-76734624D01*
X129318375Y-76636236D01*
X129318376Y-76636234D01*
X129321439Y-76631868D01*
X129420153Y-76423508D01*
X129482349Y-76201494D01*
X129506249Y-75972176D01*
X129506500Y-75946000D01*
X129501702Y-75889454D01*
X129487458Y-75721576D01*
X129487457Y-75721572D01*
X129487007Y-75716265D01*
X129477392Y-75679218D01*
X129430426Y-75498269D01*
X129429084Y-75493098D01*
X129347355Y-75311666D01*
X129336578Y-75287743D01*
X129336577Y-75287741D01*
X129334388Y-75282882D01*
X129205627Y-75091626D01*
X129046482Y-74924799D01*
X128861504Y-74787171D01*
X128856743Y-74784751D01*
X128853425Y-74782693D01*
X128806071Y-74729796D01*
X128794832Y-74659695D01*
X128823277Y-74594645D01*
X128846564Y-74573093D01*
X128855304Y-74566847D01*
X129026711Y-74444357D01*
X129189030Y-74280617D01*
X129246440Y-74198779D01*
X129318375Y-74096236D01*
X129318376Y-74096234D01*
X129321439Y-74091868D01*
X129420153Y-73883508D01*
X129482349Y-73661494D01*
X129506249Y-73432176D01*
X129506500Y-73406000D01*
X129501702Y-73349454D01*
X129487458Y-73181576D01*
X129487457Y-73181572D01*
X129487007Y-73176265D01*
X129429084Y-72953098D01*
X129377731Y-72839098D01*
X129336578Y-72747743D01*
X129336577Y-72747741D01*
X129334388Y-72742882D01*
X129205627Y-72551626D01*
X129046482Y-72384799D01*
X128861504Y-72247171D01*
X128856743Y-72244751D01*
X128853425Y-72242693D01*
X128806071Y-72189796D01*
X128794832Y-72119695D01*
X128823277Y-72054645D01*
X128846564Y-72033093D01*
X128855304Y-72026847D01*
X129026711Y-71904357D01*
X129189030Y-71740617D01*
X129246440Y-71658779D01*
X129318375Y-71556236D01*
X129318376Y-71556234D01*
X129321439Y-71551868D01*
X129420153Y-71343508D01*
X129482349Y-71121494D01*
X129506249Y-70892176D01*
X129506500Y-70866000D01*
X129497662Y-70761841D01*
X129487458Y-70641576D01*
X129487457Y-70641572D01*
X129487007Y-70636265D01*
X129429084Y-70413098D01*
X129377731Y-70299098D01*
X129336578Y-70207743D01*
X129336577Y-70207741D01*
X129334388Y-70202882D01*
X129205627Y-70011626D01*
X129046482Y-69844799D01*
X128861504Y-69707171D01*
X128856743Y-69704751D01*
X128853425Y-69702693D01*
X128806071Y-69649796D01*
X128794832Y-69579695D01*
X128823277Y-69514645D01*
X128846564Y-69493093D01*
X128855304Y-69486847D01*
X129026711Y-69364357D01*
X129189030Y-69200617D01*
X129246440Y-69118779D01*
X129318375Y-69016236D01*
X129318376Y-69016234D01*
X129321439Y-69011868D01*
X129420153Y-68803508D01*
X129482349Y-68581494D01*
X129506249Y-68352176D01*
X129506500Y-68326000D01*
X129506250Y-68323052D01*
X129487458Y-68101576D01*
X129487457Y-68101572D01*
X129487007Y-68096265D01*
X129429084Y-67873098D01*
X129377731Y-67759098D01*
X129336578Y-67667743D01*
X129336577Y-67667741D01*
X129334388Y-67662882D01*
X129205627Y-67471626D01*
X129046482Y-67304799D01*
X128861504Y-67167171D01*
X128856742Y-67164750D01*
X128852967Y-67162409D01*
X128805613Y-67109512D01*
X128794374Y-67039410D01*
X128822819Y-66974361D01*
X128846107Y-66952809D01*
X129022034Y-66827089D01*
X129030149Y-66820182D01*
X129184893Y-66664082D01*
X129191706Y-66655933D01*
X129317940Y-66475988D01*
X129323295Y-66466787D01*
X129417399Y-66268156D01*
X129421123Y-66258197D01*
X129478968Y-66051718D01*
X129477430Y-66043351D01*
X129465137Y-66040000D01*
X128015000Y-66040000D01*
X127946879Y-66019998D01*
X127900386Y-65966342D01*
X127889000Y-65914000D01*
X127889000Y-65658000D01*
X127909002Y-65589879D01*
X127962658Y-65543386D01*
X128015000Y-65532000D01*
X129462079Y-65532000D01*
X129475610Y-65528027D01*
X129476876Y-65519218D01*
X129429954Y-65338433D01*
X129426419Y-65328395D01*
X129336147Y-65127998D01*
X129330967Y-65118692D01*
X129208218Y-64936366D01*
X129201557Y-64928080D01*
X129049830Y-64769030D01*
X129041873Y-64761990D01*
X128865524Y-64630783D01*
X128852981Y-64623005D01*
X128805628Y-64570107D01*
X128794391Y-64500005D01*
X128822838Y-64434957D01*
X128846122Y-64413409D01*
X129026711Y-64284357D01*
X129189030Y-64120617D01*
X129263737Y-64014122D01*
X129318375Y-63936236D01*
X129318376Y-63936234D01*
X129321439Y-63931868D01*
X129329982Y-63913837D01*
X129417868Y-63728331D01*
X129420153Y-63723508D01*
X129482349Y-63501494D01*
X129506249Y-63272176D01*
X129506500Y-63246000D01*
X129501702Y-63189454D01*
X129487458Y-63021576D01*
X129487457Y-63021572D01*
X129487007Y-63016265D01*
X129429084Y-62793098D01*
X129377731Y-62679098D01*
X129336578Y-62587743D01*
X129336577Y-62587741D01*
X129334388Y-62582882D01*
X129205627Y-62391626D01*
X129046482Y-62224799D01*
X128861504Y-62087171D01*
X128856743Y-62084751D01*
X128853425Y-62082693D01*
X128806071Y-62029796D01*
X128794832Y-61959695D01*
X128823277Y-61894645D01*
X128846564Y-61873093D01*
X128855304Y-61866847D01*
X129026711Y-61744357D01*
X129189030Y-61580617D01*
X129246440Y-61498779D01*
X129318375Y-61396236D01*
X129318376Y-61396234D01*
X129321439Y-61391868D01*
X129420153Y-61183508D01*
X129482349Y-60961494D01*
X129506249Y-60732176D01*
X129506500Y-60706000D01*
X129497662Y-60601841D01*
X129487458Y-60481576D01*
X129487457Y-60481572D01*
X129487007Y-60476265D01*
X129429084Y-60253098D01*
X129377731Y-60139098D01*
X129336578Y-60047743D01*
X129336577Y-60047741D01*
X129334388Y-60042882D01*
X129205627Y-59851626D01*
X129046482Y-59684799D01*
X128861504Y-59547171D01*
X128856743Y-59544751D01*
X128853425Y-59542693D01*
X128806071Y-59489796D01*
X128794832Y-59419695D01*
X128823277Y-59354645D01*
X128846564Y-59333093D01*
X128855304Y-59326847D01*
X129026711Y-59204357D01*
X129189030Y-59040617D01*
X129263737Y-58934122D01*
X129318375Y-58856236D01*
X129318376Y-58856234D01*
X129321439Y-58851868D01*
X129329982Y-58833837D01*
X129417868Y-58648331D01*
X129420153Y-58643508D01*
X129482349Y-58421494D01*
X129506249Y-58192176D01*
X129506500Y-58166000D01*
X129506250Y-58163052D01*
X129487458Y-57941576D01*
X129487457Y-57941572D01*
X129487007Y-57936265D01*
X129429084Y-57713098D01*
X129390146Y-57626658D01*
X129336578Y-57507743D01*
X129336577Y-57507741D01*
X129334388Y-57502882D01*
X129205627Y-57311626D01*
X129197394Y-57302995D01*
X129050161Y-57148656D01*
X129046482Y-57144799D01*
X128861504Y-57007171D01*
X128856743Y-57004751D01*
X128853425Y-57002693D01*
X128806071Y-56949796D01*
X128794832Y-56879695D01*
X128823277Y-56814645D01*
X128846564Y-56793093D01*
X128855304Y-56786847D01*
X129026711Y-56664357D01*
X129189030Y-56500617D01*
X129276043Y-56376580D01*
X129318375Y-56316236D01*
X129318376Y-56316234D01*
X129321439Y-56311868D01*
X129420153Y-56103508D01*
X129482349Y-55881494D01*
X129506249Y-55652176D01*
X129506500Y-55626000D01*
X129505024Y-55608608D01*
X129487458Y-55401576D01*
X129487457Y-55401572D01*
X129487007Y-55396265D01*
X129429084Y-55173098D01*
X129417519Y-55147423D01*
X129336578Y-54967743D01*
X129336577Y-54967741D01*
X129334388Y-54962882D01*
X129205627Y-54771626D01*
X129046482Y-54604799D01*
X128861504Y-54467171D01*
X128856743Y-54464751D01*
X128853425Y-54462693D01*
X128806071Y-54409796D01*
X128794832Y-54339695D01*
X128823277Y-54274645D01*
X128846564Y-54253093D01*
X128855304Y-54246847D01*
X129026711Y-54124357D01*
X129189030Y-53960617D01*
X129279330Y-53831895D01*
X129318375Y-53776236D01*
X129318376Y-53776234D01*
X129321439Y-53771868D01*
X129420153Y-53563508D01*
X129482349Y-53341494D01*
X129506249Y-53112176D01*
X129506500Y-53086000D01*
X129506250Y-53083052D01*
X129487458Y-52861576D01*
X129487457Y-52861572D01*
X129487007Y-52856265D01*
X129429084Y-52633098D01*
X129390146Y-52546658D01*
X129336578Y-52427743D01*
X129336577Y-52427741D01*
X129334388Y-52422882D01*
X129205627Y-52231626D01*
X129197394Y-52222995D01*
X129050161Y-52068656D01*
X129046482Y-52064799D01*
X128861504Y-51927171D01*
X128856743Y-51924751D01*
X128853425Y-51922693D01*
X128806071Y-51869796D01*
X128794832Y-51799695D01*
X128823277Y-51734645D01*
X128846564Y-51713093D01*
X128855304Y-51706847D01*
X129026711Y-51584357D01*
X129189030Y-51420617D01*
X129276043Y-51296580D01*
X129318375Y-51236236D01*
X129318376Y-51236234D01*
X129321439Y-51231868D01*
X129420153Y-51023508D01*
X129482349Y-50801494D01*
X129506249Y-50572176D01*
X129506500Y-50546000D01*
X129504498Y-50522404D01*
X129487458Y-50321576D01*
X129487457Y-50321572D01*
X129487007Y-50316265D01*
X129429084Y-50093098D01*
X129416939Y-50066136D01*
X129336578Y-49887743D01*
X129336577Y-49887741D01*
X129334388Y-49882882D01*
X129205627Y-49691626D01*
X129197394Y-49682995D01*
X129050161Y-49528656D01*
X129046482Y-49524799D01*
X128861504Y-49387171D01*
X128856753Y-49384755D01*
X128856749Y-49384753D01*
X128660740Y-49285097D01*
X128660739Y-49285097D01*
X128655982Y-49282678D01*
X128545887Y-49248492D01*
X128440895Y-49215891D01*
X128440889Y-49215890D01*
X128435792Y-49214307D01*
X128330798Y-49200391D01*
X128212515Y-49184714D01*
X128212510Y-49184714D01*
X128207230Y-49184014D01*
X128201900Y-49184214D01*
X128201899Y-49184214D01*
X128092030Y-49188339D01*
X127976831Y-49192663D01*
X127917966Y-49205014D01*
X127802826Y-49229173D01*
X127732050Y-49223586D01*
X127687857Y-49194953D01*
X127376391Y-48883487D01*
X127369031Y-48875399D01*
X127364973Y-48869005D01*
X127316121Y-48823130D01*
X127313280Y-48820376D01*
X127292966Y-48800062D01*
X127289555Y-48797417D01*
X127280533Y-48789711D01*
X127254077Y-48764867D01*
X127248301Y-48759443D01*
X127241357Y-48755626D01*
X127241355Y-48755624D01*
X127230547Y-48749682D01*
X127214023Y-48738828D01*
X127204286Y-48731275D01*
X127204285Y-48731275D01*
X127198023Y-48726417D01*
X127190750Y-48723270D01*
X127190747Y-48723268D01*
X127170335Y-48714435D01*
X127157458Y-48708863D01*
X127146800Y-48703642D01*
X127114994Y-48686156D01*
X127114990Y-48686154D01*
X127108048Y-48682338D01*
X127100373Y-48680368D01*
X127100372Y-48680367D01*
X127088426Y-48677300D01*
X127069719Y-48670895D01*
X127058410Y-48666001D01*
X127058408Y-48666001D01*
X127051135Y-48662853D01*
X127043307Y-48661613D01*
X127043306Y-48661613D01*
X127007473Y-48655938D01*
X126995848Y-48653530D01*
X126958782Y-48644013D01*
X126958780Y-48644013D01*
X126953025Y-48642535D01*
X126952469Y-48642500D01*
X126932546Y-48642500D01*
X126912837Y-48640949D01*
X126893055Y-48637816D01*
X126885163Y-48638562D01*
X126849418Y-48641941D01*
X126837560Y-48642500D01*
X123885594Y-48642500D01*
X123817473Y-48622498D01*
X123796499Y-48605595D01*
X120264391Y-45073487D01*
X120257031Y-45065399D01*
X120252973Y-45059005D01*
X120204121Y-45013130D01*
X120201280Y-45010376D01*
X120180966Y-44990062D01*
X120177555Y-44987417D01*
X120168533Y-44979711D01*
X120142077Y-44954867D01*
X120136301Y-44949443D01*
X120129357Y-44945626D01*
X120129355Y-44945624D01*
X120118547Y-44939682D01*
X120102023Y-44928828D01*
X120092286Y-44921275D01*
X120092285Y-44921275D01*
X120086023Y-44916417D01*
X120078750Y-44913270D01*
X120078747Y-44913268D01*
X120058335Y-44904435D01*
X120045458Y-44898863D01*
X120034800Y-44893642D01*
X120002994Y-44876156D01*
X120002990Y-44876154D01*
X119996048Y-44872338D01*
X119988373Y-44870368D01*
X119988372Y-44870367D01*
X119976426Y-44867300D01*
X119957719Y-44860895D01*
X119946410Y-44856001D01*
X119946408Y-44856001D01*
X119939135Y-44852853D01*
X119931307Y-44851613D01*
X119931306Y-44851613D01*
X119895473Y-44845938D01*
X119883848Y-44843530D01*
X119846782Y-44834013D01*
X119846780Y-44834013D01*
X119841025Y-44832535D01*
X119840469Y-44832500D01*
X119820546Y-44832500D01*
X119800837Y-44830949D01*
X119781055Y-44827816D01*
X119773163Y-44828562D01*
X119737418Y-44831941D01*
X119725560Y-44832500D01*
X113419394Y-44832500D01*
X113351273Y-44812498D01*
X113314874Y-44776867D01*
X113206607Y-44616053D01*
X113203627Y-44611626D01*
X113108508Y-44511915D01*
X113071868Y-44473507D01*
X113039321Y-44410410D01*
X113046052Y-44339733D01*
X113089926Y-44283916D01*
X113127538Y-44265640D01*
X113160545Y-44255948D01*
X113195670Y-44245635D01*
X113195672Y-44245634D01*
X113204316Y-44243096D01*
X113268135Y-44202082D01*
X113319691Y-44168949D01*
X113319694Y-44168947D01*
X113327271Y-44164077D01*
X113367048Y-44118172D01*
X113417082Y-44060431D01*
X113417084Y-44060428D01*
X113422984Y-44053619D01*
X113483700Y-43920670D01*
X113494962Y-43842340D01*
X113503861Y-43780448D01*
X113503862Y-43780441D01*
X113504500Y-43776000D01*
X113504500Y-42076000D01*
X113499273Y-42002921D01*
X113458096Y-41862684D01*
X113412393Y-41791569D01*
X113383949Y-41747309D01*
X113383947Y-41747306D01*
X113379077Y-41739729D01*
X113372267Y-41733828D01*
X113275431Y-41649918D01*
X113275428Y-41649916D01*
X113268619Y-41644016D01*
X113135670Y-41583300D01*
X113126755Y-41582018D01*
X113126754Y-41582018D01*
X112995448Y-41563139D01*
X112995441Y-41563138D01*
X112991000Y-41562500D01*
X111291000Y-41562500D01*
X111217921Y-41567727D01*
X111164884Y-41583300D01*
X111086330Y-41606365D01*
X111086328Y-41606366D01*
X111077684Y-41608904D01*
X111070105Y-41613775D01*
X110962309Y-41683051D01*
X110962306Y-41683053D01*
X110954729Y-41687923D01*
X110948828Y-41694733D01*
X110864918Y-41791569D01*
X110864916Y-41791572D01*
X110859016Y-41798381D01*
X110798300Y-41931330D01*
X110797018Y-41940245D01*
X110797018Y-41940246D01*
X110778139Y-42071552D01*
X110778138Y-42071559D01*
X110777500Y-42076000D01*
X108424500Y-42076000D01*
X108419273Y-42002921D01*
X108378096Y-41862684D01*
X108332393Y-41791569D01*
X108303949Y-41747309D01*
X108303947Y-41747306D01*
X108299077Y-41739729D01*
X108292267Y-41733828D01*
X108195431Y-41649918D01*
X108195428Y-41649916D01*
X108188619Y-41644016D01*
X108055670Y-41583300D01*
X108046755Y-41582018D01*
X108046754Y-41582018D01*
X107915448Y-41563139D01*
X107915441Y-41563138D01*
X107911000Y-41562500D01*
X106211000Y-41562500D01*
X106137921Y-41567727D01*
X106084884Y-41583300D01*
X106006330Y-41606365D01*
X106006328Y-41606366D01*
X105997684Y-41608904D01*
X105990105Y-41613775D01*
X105882309Y-41683051D01*
X105882306Y-41683053D01*
X105874729Y-41687923D01*
X105868828Y-41694733D01*
X105784918Y-41791569D01*
X105784916Y-41791572D01*
X105779016Y-41798381D01*
X105718300Y-41931330D01*
X105717018Y-41940245D01*
X105717018Y-41940246D01*
X105698139Y-42071552D01*
X105698138Y-42071559D01*
X105697500Y-42076000D01*
X89508000Y-42076000D01*
X89508000Y-38660699D01*
X92704573Y-38660699D01*
X92711628Y-38670671D01*
X92754718Y-38706701D01*
X92761650Y-38711736D01*
X92997860Y-38859911D01*
X93005412Y-38863960D01*
X93259555Y-38978711D01*
X93267586Y-38981697D01*
X93534950Y-39060894D01*
X93543302Y-39062761D01*
X93818947Y-39104940D01*
X93827481Y-39105656D01*
X94106295Y-39110037D01*
X94114846Y-39109588D01*
X94391673Y-39076089D01*
X94400087Y-39074484D01*
X94669810Y-39003724D01*
X94677926Y-39000993D01*
X94935549Y-38894281D01*
X94943217Y-38890475D01*
X95165301Y-38760699D01*
X127704573Y-38760699D01*
X127711628Y-38770671D01*
X127754718Y-38806701D01*
X127761650Y-38811736D01*
X127997860Y-38959911D01*
X128005412Y-38963960D01*
X128259555Y-39078711D01*
X128267586Y-39081697D01*
X128534950Y-39160894D01*
X128543302Y-39162761D01*
X128818947Y-39204940D01*
X128827481Y-39205656D01*
X129106295Y-39210037D01*
X129114846Y-39209588D01*
X129391673Y-39176089D01*
X129400087Y-39174484D01*
X129669810Y-39103724D01*
X129677926Y-39100993D01*
X129935549Y-38994281D01*
X129943217Y-38990475D01*
X130183979Y-38849785D01*
X130191060Y-38844972D01*
X130285935Y-38770581D01*
X130294406Y-38758721D01*
X130287890Y-38747100D01*
X129012812Y-37472022D01*
X128998868Y-37464408D01*
X128997035Y-37464539D01*
X128990420Y-37468790D01*
X127711865Y-38747345D01*
X127704573Y-38760699D01*
X95165301Y-38760699D01*
X95183979Y-38749785D01*
X95191060Y-38744972D01*
X95285935Y-38670581D01*
X95294406Y-38658721D01*
X95287890Y-38647100D01*
X94012812Y-37372022D01*
X93998868Y-37364408D01*
X93997035Y-37364539D01*
X93990420Y-37368790D01*
X92711865Y-38647345D01*
X92704573Y-38660699D01*
X89508000Y-38660699D01*
X89508000Y-37081427D01*
X89509707Y-37060755D01*
X89511779Y-37048300D01*
X89511780Y-37048291D01*
X89512576Y-37043504D01*
X89513211Y-36982153D01*
X91887363Y-36982153D01*
X91903415Y-37260542D01*
X91904488Y-37269042D01*
X91958174Y-37542678D01*
X91960387Y-37550940D01*
X92050714Y-37814765D01*
X92054030Y-37822651D01*
X92179325Y-38071774D01*
X92183681Y-38079140D01*
X92327378Y-38288218D01*
X92337633Y-38296563D01*
X92351373Y-38289417D01*
X93627978Y-37012812D01*
X93634355Y-37001132D01*
X94364408Y-37001132D01*
X94364539Y-37002965D01*
X94368790Y-37009580D01*
X95647318Y-38288108D01*
X95659527Y-38294775D01*
X95671027Y-38286085D01*
X95781524Y-38135661D01*
X95786111Y-38128433D01*
X95919166Y-37883377D01*
X95922734Y-37875583D01*
X96021298Y-37614742D01*
X96023775Y-37606536D01*
X96086027Y-37334730D01*
X96087367Y-37326269D01*
X96109154Y-37082153D01*
X126887363Y-37082153D01*
X126903415Y-37360542D01*
X126904488Y-37369042D01*
X126958174Y-37642678D01*
X126960387Y-37650940D01*
X127050714Y-37914765D01*
X127054030Y-37922651D01*
X127179325Y-38171774D01*
X127183681Y-38179140D01*
X127327378Y-38388218D01*
X127337633Y-38396563D01*
X127351373Y-38389417D01*
X128627978Y-37112812D01*
X128634355Y-37101132D01*
X129364408Y-37101132D01*
X129364539Y-37102965D01*
X129368790Y-37109580D01*
X130647318Y-38388108D01*
X130659527Y-38394775D01*
X130671027Y-38386085D01*
X130781524Y-38235661D01*
X130786111Y-38228433D01*
X130919166Y-37983377D01*
X130922734Y-37975583D01*
X131021298Y-37714742D01*
X131023775Y-37706536D01*
X131086027Y-37434730D01*
X131087367Y-37426269D01*
X131112317Y-37146716D01*
X131112563Y-37141777D01*
X131112974Y-37102485D01*
X131112831Y-37097519D01*
X131093742Y-36817510D01*
X131092581Y-36809036D01*
X131036032Y-36535969D01*
X131033733Y-36527734D01*
X130940647Y-36264868D01*
X130937250Y-36257018D01*
X130809350Y-36009216D01*
X130804922Y-36001904D01*
X130671865Y-35812583D01*
X130661343Y-35804203D01*
X130647955Y-35811255D01*
X129372022Y-37087188D01*
X129364408Y-37101132D01*
X128634355Y-37101132D01*
X128635592Y-37098868D01*
X128635461Y-37097035D01*
X128631210Y-37090420D01*
X127352107Y-35811317D01*
X127340097Y-35804758D01*
X127328357Y-35813726D01*
X127206685Y-35983052D01*
X127202163Y-35990346D01*
X127071689Y-36236768D01*
X127068203Y-36244596D01*
X126972372Y-36506468D01*
X126969986Y-36514679D01*
X126910581Y-36787137D01*
X126909332Y-36795599D01*
X126887452Y-37073603D01*
X126887363Y-37082153D01*
X96109154Y-37082153D01*
X96112317Y-37046716D01*
X96112563Y-37041777D01*
X96112974Y-37002485D01*
X96112831Y-36997519D01*
X96093742Y-36717510D01*
X96092581Y-36709036D01*
X96036032Y-36435969D01*
X96033733Y-36427734D01*
X95940647Y-36164868D01*
X95937250Y-36157018D01*
X95809350Y-35909216D01*
X95804922Y-35901904D01*
X95671865Y-35712583D01*
X95661343Y-35704203D01*
X95647955Y-35711255D01*
X94372022Y-36987188D01*
X94364408Y-37001132D01*
X93634355Y-37001132D01*
X93635592Y-36998868D01*
X93635461Y-36997035D01*
X93631210Y-36990420D01*
X92352107Y-35711317D01*
X92340097Y-35704758D01*
X92328357Y-35713726D01*
X92206685Y-35883052D01*
X92202163Y-35890346D01*
X92071689Y-36136768D01*
X92068203Y-36144596D01*
X91972372Y-36406468D01*
X91969986Y-36414679D01*
X91910581Y-36687137D01*
X91909332Y-36695599D01*
X91887452Y-36973603D01*
X91887363Y-36982153D01*
X89513211Y-36982153D01*
X89514420Y-36865617D01*
X89514532Y-36861457D01*
X89517408Y-36795599D01*
X89518678Y-36766520D01*
X89519037Y-36761036D01*
X89538727Y-36535969D01*
X89545617Y-36457220D01*
X89546214Y-36451769D01*
X89546216Y-36451758D01*
X89552363Y-36405068D01*
X89556082Y-36376819D01*
X89556918Y-36371387D01*
X89594716Y-36157018D01*
X89609875Y-36071050D01*
X89610932Y-36065734D01*
X89627305Y-35991881D01*
X89628610Y-35986548D01*
X89707540Y-35691978D01*
X89709075Y-35686711D01*
X89731818Y-35614580D01*
X89733571Y-35609418D01*
X89790478Y-35453070D01*
X89816945Y-35380351D01*
X89831156Y-35341307D01*
X92705390Y-35341307D01*
X92711785Y-35352575D01*
X93987188Y-36627978D01*
X94001132Y-36635592D01*
X94002965Y-36635461D01*
X94009580Y-36631210D01*
X95199483Y-35441307D01*
X127705390Y-35441307D01*
X127711785Y-35452575D01*
X128987188Y-36727978D01*
X129001132Y-36735592D01*
X129002965Y-36735461D01*
X129009580Y-36731210D01*
X130287720Y-35453070D01*
X130294911Y-35439901D01*
X130287589Y-35429664D01*
X130227339Y-35380351D01*
X130220367Y-35375396D01*
X129982595Y-35229688D01*
X129975025Y-35225731D01*
X129719682Y-35113644D01*
X129711622Y-35110742D01*
X129443445Y-35034350D01*
X129435070Y-35032570D01*
X129159004Y-34993280D01*
X129150456Y-34992653D01*
X128871610Y-34991192D01*
X128863076Y-34991729D01*
X128586606Y-35028127D01*
X128578208Y-35029820D01*
X128309250Y-35103399D01*
X128301155Y-35106218D01*
X128044660Y-35215622D01*
X128037038Y-35219506D01*
X127797767Y-35362707D01*
X127790729Y-35367598D01*
X127713860Y-35429181D01*
X127705390Y-35441307D01*
X95199483Y-35441307D01*
X95287720Y-35353070D01*
X95294911Y-35339901D01*
X95287589Y-35329664D01*
X95227339Y-35280351D01*
X95220367Y-35275396D01*
X94982595Y-35129688D01*
X94975025Y-35125731D01*
X94719682Y-35013644D01*
X94711622Y-35010742D01*
X94443445Y-34934350D01*
X94435070Y-34932570D01*
X94159004Y-34893280D01*
X94150456Y-34892653D01*
X93871610Y-34891192D01*
X93863076Y-34891729D01*
X93586606Y-34928127D01*
X93578208Y-34929820D01*
X93309250Y-35003399D01*
X93301155Y-35006218D01*
X93044660Y-35115622D01*
X93037038Y-35119506D01*
X92797767Y-35262707D01*
X92790729Y-35267598D01*
X92713860Y-35329181D01*
X92705390Y-35341307D01*
X89831156Y-35341307D01*
X89837873Y-35322853D01*
X89839865Y-35317730D01*
X89868802Y-35247869D01*
X89871016Y-35242837D01*
X89936037Y-35103399D01*
X89999873Y-34966500D01*
X90002302Y-34961576D01*
X90037237Y-34894467D01*
X90039881Y-34889648D01*
X90113066Y-34762888D01*
X90192340Y-34625583D01*
X90195189Y-34620888D01*
X90235807Y-34557131D01*
X90238861Y-34552560D01*
X90413771Y-34302763D01*
X90417011Y-34298344D01*
X90463066Y-34238324D01*
X90466489Y-34234059D01*
X90662484Y-34000481D01*
X90666109Y-33996348D01*
X90717234Y-33940555D01*
X90721036Y-33936584D01*
X90936595Y-33721025D01*
X90940566Y-33717223D01*
X90996344Y-33666112D01*
X91000477Y-33662487D01*
X91091115Y-33586433D01*
X91234064Y-33466484D01*
X91238329Y-33463062D01*
X91298344Y-33417011D01*
X91302776Y-33413761D01*
X91463569Y-33301172D01*
X91552566Y-33238856D01*
X91557090Y-33235833D01*
X91620911Y-33195175D01*
X91625596Y-33192332D01*
X91889642Y-33039885D01*
X91894462Y-33037240D01*
X91961574Y-33002304D01*
X91966504Y-32999873D01*
X92159393Y-32909927D01*
X92242875Y-32870999D01*
X92247856Y-32868807D01*
X92317789Y-32839840D01*
X92322832Y-32837880D01*
X92609411Y-32733573D01*
X92614561Y-32731824D01*
X92686730Y-32709070D01*
X92691988Y-32707537D01*
X92986551Y-32628609D01*
X92991880Y-32627305D01*
X93065680Y-32610944D01*
X93071045Y-32609877D01*
X93371406Y-32556914D01*
X93376818Y-32556082D01*
X93433924Y-32548564D01*
X93451758Y-32546216D01*
X93457222Y-32545618D01*
X93761027Y-32519037D01*
X93766475Y-32518679D01*
X93861485Y-32514531D01*
X93865620Y-32514420D01*
X94040226Y-32512610D01*
X94044646Y-32511930D01*
X94044648Y-32511930D01*
X94050415Y-32511043D01*
X94060682Y-32509464D01*
X94079834Y-32508000D01*
X128918573Y-32508000D01*
X128939245Y-32509707D01*
G37*
%TD.AperFunction*%
%TD*%
M02*
