M48
; DRILL file {KiCad (5.99.0-7356-g63088e8bdb)} date Tue Dec 15 21:09:28 2020
; FORMAT={-:-/ absolute / metric / decimal}
; #@! TF.CreationDate,2020-12-15T21:09:28+08:00
; #@! TF.GenerationSoftware,Kicad,Pcbnew,(5.99.0-7356-g63088e8bdb)
; #@! TF.FileFunction,Plated,1,2,PTH
FMAT,2
METRIC
T1C0.800
T2C1.000
%
G90
G05
T1
X101.854Y-51.054
X101.854Y-53.594
X101.854Y-56.134
X101.854Y-58.674
X101.854Y-61.214
X101.854Y-63.754
X101.854Y-66.294
X101.854Y-68.834
X101.854Y-71.374
X101.854Y-73.914
X101.854Y-76.454
X101.854Y-78.994
X101.854Y-81.534
X101.854Y-84.074
X117.094Y-51.054
X117.094Y-53.594
X117.094Y-56.134
X117.094Y-58.674
X117.094Y-61.214
X117.094Y-63.754
X117.094Y-66.294
X117.094Y-68.834
X117.094Y-71.374
X117.094Y-73.914
X117.094Y-76.454
X117.094Y-78.994
X117.094Y-81.534
X117.094Y-84.074
T2
X121.92Y-51.054
X121.92Y-53.594
X121.92Y-56.134
X121.92Y-58.674
X121.92Y-61.214
X121.92Y-63.754
X121.92Y-66.294
X121.92Y-68.834
X121.92Y-71.374
X121.92Y-73.914
X121.92Y-76.454
X121.92Y-78.994
X121.92Y-81.534
X121.92Y-84.074
X124.46Y-51.054
X124.46Y-53.594
X124.46Y-56.134
X124.46Y-58.674
X124.46Y-61.214
X124.46Y-63.754
X124.46Y-66.294
X124.46Y-68.834
X124.46Y-71.374
X124.46Y-73.914
X124.46Y-76.454
X124.46Y-78.994
X124.46Y-81.534
X124.46Y-84.074
T0
M30
