%TF.GenerationSoftware,KiCad,Pcbnew,(5.99.0-7356-g63088e8bdb)*%
%TF.CreationDate,2021-06-15T12:34:33+08:00*%
%TF.ProjectId,AdapterCartdrigeProd,41646170-7465-4724-9361-727464726967,rev?*%
%TF.SameCoordinates,Original*%
%TF.FileFunction,Copper,L1,Top*%
%TF.FilePolarity,Positive*%
%FSLAX46Y46*%
G04 Gerber Fmt 4.6, Leading zero omitted, Abs format (unit mm)*
G04 Created by KiCad (PCBNEW (5.99.0-7356-g63088e8bdb)) date 2021-06-15 12:34:33*
%MOMM*%
%LPD*%
G01*
G04 APERTURE LIST*
%TA.AperFunction,ComponentPad*%
%ADD10C,3.200000*%
%TD*%
%TA.AperFunction,ComponentPad*%
%ADD11R,1.700000X1.700000*%
%TD*%
%TA.AperFunction,ComponentPad*%
%ADD12O,1.700000X1.700000*%
%TD*%
%TA.AperFunction,ComponentPad*%
%ADD13C,1.600000*%
%TD*%
%TA.AperFunction,Conductor*%
%ADD14C,0.500000*%
%TD*%
%TA.AperFunction,Conductor*%
%ADD15C,0.250000*%
%TD*%
G04 APERTURE END LIST*
D10*
%TO.P,H3,1,1*%
%TO.N,GND*%
X129000000Y-37100000D03*
%TD*%
%TO.P,H2,*%
%TO.N,GND*%
X94000000Y-122000000D03*
%TD*%
D11*
%TO.P,J1,1,Pin_1*%
%TO.N,/A14*%
X125603000Y-50546000D03*
D12*
%TO.P,J1,2,Pin_2*%
%TO.N,/A12*%
X128143000Y-50546000D03*
%TO.P,J1,3,Pin_3*%
%TO.N,/A7*%
X125603000Y-53086000D03*
%TO.P,J1,4,Pin_4*%
%TO.N,/A6*%
X128143000Y-53086000D03*
%TO.P,J1,5,Pin_5*%
%TO.N,/A5*%
X125603000Y-55626000D03*
%TO.P,J1,6,Pin_6*%
%TO.N,/A4*%
X128143000Y-55626000D03*
%TO.P,J1,7,Pin_7*%
%TO.N,/A3*%
X125603000Y-58166000D03*
%TO.P,J1,8,Pin_8*%
%TO.N,/A2*%
X128143000Y-58166000D03*
%TO.P,J1,9,Pin_9*%
%TO.N,/A1*%
X125603000Y-60706000D03*
%TO.P,J1,10,Pin_10*%
%TO.N,/A0*%
X128143000Y-60706000D03*
%TO.P,J1,11,Pin_11*%
%TO.N,/D0*%
X125603000Y-63246000D03*
%TO.P,J1,12,Pin_12*%
%TO.N,/D1*%
X128143000Y-63246000D03*
%TO.P,J1,13,Pin_13*%
%TO.N,/D2*%
X125603000Y-65786000D03*
%TO.P,J1,14,Pin_14*%
%TO.N,GND*%
X128143000Y-65786000D03*
%TO.P,J1,15,Pin_15*%
%TO.N,/D3*%
X125603000Y-68326000D03*
%TO.P,J1,16,Pin_16*%
%TO.N,/D4*%
X128143000Y-68326000D03*
%TO.P,J1,17,Pin_17*%
%TO.N,/D5*%
X125603000Y-70866000D03*
%TO.P,J1,18,Pin_18*%
%TO.N,/D6*%
X128143000Y-70866000D03*
%TO.P,J1,19,Pin_19*%
%TO.N,/D7*%
X125603000Y-73406000D03*
%TO.P,J1,20,Pin_20*%
%TO.N,CS*%
X128143000Y-73406000D03*
%TO.P,J1,21,Pin_21*%
%TO.N,/A10*%
X125603000Y-75946000D03*
%TO.P,J1,22,Pin_22*%
%TO.N,OE*%
X128143000Y-75946000D03*
%TO.P,J1,23,Pin_23*%
%TO.N,/A11*%
X125603000Y-78486000D03*
%TO.P,J1,24,Pin_24*%
%TO.N,/A9*%
X128143000Y-78486000D03*
%TO.P,J1,25,Pin_25*%
%TO.N,/A8*%
X125603000Y-81026000D03*
%TO.P,J1,26,Pin_26*%
%TO.N,/A13*%
X128143000Y-81026000D03*
%TO.P,J1,27,Pin_27*%
%TO.N,+5V*%
X125603000Y-83566000D03*
%TO.P,J1,28,Pin_28*%
X128143000Y-83566000D03*
%TO.P,J1,29,Pin_29*%
%TO.N,GND*%
X125603000Y-86106000D03*
%TO.P,J1,30,Pin_30*%
X128143000Y-86106000D03*
%TD*%
D10*
%TO.P,H1,*%
%TO.N,GND*%
X94000000Y-37000000D03*
%TD*%
D13*
%TO.P,C1,1*%
%TO.N,+5V*%
X118553798Y-108966000D03*
%TO.P,C1,2*%
%TO.N,GND*%
X118553798Y-111466000D03*
%TD*%
D11*
%TO.P,U1,1,A14*%
%TO.N,/A14*%
X112141000Y-42926000D03*
X107061000Y-42926000D03*
D12*
%TO.P,U1,2,A12*%
%TO.N,/A12*%
X107061000Y-45466000D03*
X112141000Y-45466000D03*
%TO.P,U1,3,A7*%
%TO.N,/A7*%
X112141000Y-48006000D03*
X107061000Y-48006000D03*
%TO.P,U1,4,A6*%
%TO.N,/A6*%
X112141000Y-50546000D03*
X107061000Y-50546000D03*
%TO.P,U1,5,A5*%
%TO.N,/A5*%
X107061000Y-53086000D03*
X112141000Y-53086000D03*
%TO.P,U1,6,A4*%
%TO.N,/A4*%
X107061000Y-55626000D03*
X112141000Y-55626000D03*
%TO.P,U1,7,A3*%
%TO.N,/A3*%
X107061000Y-58166000D03*
X112141000Y-58166000D03*
%TO.P,U1,8,A2*%
%TO.N,/A2*%
X107061000Y-60706000D03*
X112141000Y-60706000D03*
%TO.P,U1,9,A1*%
%TO.N,/A1*%
X107061000Y-63246000D03*
X112141000Y-63246000D03*
%TO.P,U1,10,A0*%
%TO.N,/A0*%
X107061000Y-65786000D03*
X112141000Y-65786000D03*
%TO.P,U1,11,D0*%
%TO.N,/D0*%
X107061000Y-68326000D03*
X112141000Y-68326000D03*
%TO.P,U1,12,D1*%
%TO.N,/D1*%
X112141000Y-70866000D03*
X107061000Y-70866000D03*
%TO.P,U1,13,D2*%
%TO.N,/D2*%
X107061000Y-73406000D03*
X112141000Y-73406000D03*
%TO.P,U1,14,GND*%
%TO.N,GND*%
X107061000Y-75946000D03*
X112141000Y-75946000D03*
%TO.P,U1,15,D3*%
%TO.N,/D3*%
X112141000Y-78486000D03*
X107061000Y-78486000D03*
%TO.P,U1,16,D4*%
%TO.N,/D4*%
X112141000Y-81026000D03*
X107061000Y-81026000D03*
%TO.P,U1,17,D5*%
%TO.N,/D5*%
X107061000Y-83566000D03*
X112141000Y-83566000D03*
%TO.P,U1,18,D6*%
%TO.N,/D6*%
X112141000Y-86106000D03*
X107061000Y-86106000D03*
%TO.P,U1,19,D7*%
%TO.N,/D7*%
X112141000Y-88646000D03*
X107061000Y-88646000D03*
%TO.P,U1,20,~CS*%
%TO.N,CS*%
X107061000Y-91186000D03*
X112141000Y-91186000D03*
%TO.P,U1,21,A10*%
%TO.N,/A10*%
X112141000Y-93726000D03*
X107061000Y-93726000D03*
%TO.P,U1,22,~OE*%
%TO.N,OE*%
X107061000Y-96266000D03*
X112141000Y-96266000D03*
%TO.P,U1,23,A11*%
%TO.N,/A11*%
X107061000Y-98806000D03*
X112141000Y-98806000D03*
%TO.P,U1,24,A9*%
%TO.N,/A9*%
X107061000Y-101346000D03*
X112141000Y-101346000D03*
%TO.P,U1,25,A8*%
%TO.N,/A8*%
X107061000Y-103886000D03*
X112141000Y-103886000D03*
%TO.P,U1,26,A13*%
%TO.N,/A13*%
X107061000Y-106426000D03*
X112141000Y-106426000D03*
%TO.P,U1,27,~WE*%
%TO.N,+5V*%
X107061000Y-108966000D03*
X112141000Y-108966000D03*
%TO.P,U1,28,VCC*%
X107061000Y-111506000D03*
X112141000Y-111506000D03*
%TO.P,U1,29*%
%TO.N,GND*%
X112141000Y-114046000D03*
X107061000Y-114046000D03*
%TO.P,U1,30*%
X107061000Y-116586000D03*
X112141000Y-116586000D03*
%TD*%
D14*
%TO.N,+5V*%
X128143000Y-83566000D02*
X125603000Y-83566000D01*
X129159000Y-108966000D02*
X112141000Y-108966000D01*
X129667000Y-83566000D02*
X130683000Y-84582000D01*
X107061000Y-111506000D02*
X112141000Y-111506000D01*
X107061000Y-108966000D02*
X107061000Y-111506000D01*
X130683000Y-84582000D02*
X130683000Y-107442000D01*
X130683000Y-107442000D02*
X129159000Y-108966000D01*
X112141000Y-108966000D02*
X112141000Y-111506000D01*
X107061000Y-108966000D02*
X112141000Y-108966000D01*
X128143000Y-83566000D02*
X129667000Y-83566000D01*
D15*
%TO.N,/A13*%
X107061000Y-106426000D02*
X112141000Y-106426000D01*
%TO.N,/A8*%
X124841000Y-81026000D02*
X123063000Y-82804000D01*
X112141000Y-103886000D02*
X123063000Y-92964000D01*
X123063000Y-82804000D02*
X123063000Y-92964000D01*
X112141000Y-103886000D02*
X107061000Y-103886000D01*
X125603000Y-81026000D02*
X124841000Y-81026000D01*
%TO.N,/A9*%
X107061000Y-101346000D02*
X112141000Y-101346000D01*
%TO.N,/A11*%
X122047000Y-88900000D02*
X122047000Y-82042000D01*
X112141000Y-98806000D02*
X122047000Y-88900000D01*
X122047000Y-82042000D02*
X125603000Y-78486000D01*
X112141000Y-98806000D02*
X107061000Y-98806000D01*
%TO.N,OE*%
X107061000Y-96266000D02*
X112141000Y-96266000D01*
%TO.N,/A10*%
X121031000Y-79756000D02*
X124841000Y-75946000D01*
X121031000Y-84836000D02*
X121031000Y-79756000D01*
X107061000Y-93726000D02*
X112141000Y-93726000D01*
X112141000Y-93726000D02*
X121031000Y-84836000D01*
X124841000Y-75946000D02*
X125603000Y-75946000D01*
%TO.N,CS*%
X107061000Y-91186000D02*
X112141000Y-91186000D01*
%TO.N,/D7*%
X120015000Y-78232000D02*
X124841000Y-73406000D01*
X120015000Y-80772000D02*
X120015000Y-78232000D01*
X124841000Y-73406000D02*
X125603000Y-73406000D01*
X112141000Y-88646000D02*
X120015000Y-80772000D01*
X107061000Y-88646000D02*
X112141000Y-88646000D01*
%TO.N,/D6*%
X107061000Y-86106000D02*
X112141000Y-86106000D01*
%TO.N,/D5*%
X118999000Y-76708000D02*
X124841000Y-70866000D01*
X112903000Y-83566000D02*
X118999000Y-77470000D01*
X118999000Y-77470000D02*
X118999000Y-76708000D01*
X124841000Y-70866000D02*
X125603000Y-70866000D01*
X107061000Y-83566000D02*
X112141000Y-83566000D01*
X112141000Y-83566000D02*
X112903000Y-83566000D01*
%TO.N,/D4*%
X107061000Y-81026000D02*
X112141000Y-81026000D01*
%TO.N,/D3*%
X124777500Y-68326000D02*
X125603000Y-68326000D01*
X107061000Y-78486000D02*
X112141000Y-78486000D01*
X112141000Y-78486000D02*
X114617500Y-78486000D01*
X114617500Y-78486000D02*
X124777500Y-68326000D01*
%TO.N,/D2*%
X112141000Y-73406000D02*
X117983000Y-73406000D01*
X117983000Y-73406000D02*
X125603000Y-65786000D01*
X107061000Y-73406000D02*
X112141000Y-73406000D01*
%TO.N,/D1*%
X107061000Y-70866000D02*
X112141000Y-70866000D01*
%TO.N,/D0*%
X112141000Y-68326000D02*
X119761000Y-68326000D01*
X107061000Y-68326000D02*
X112141000Y-68326000D01*
X119761000Y-68326000D02*
X124841000Y-63246000D01*
X124841000Y-63246000D02*
X125603000Y-63246000D01*
%TO.N,/A0*%
X107061000Y-65786000D02*
X112141000Y-65786000D01*
%TO.N,/A1*%
X107061000Y-63246000D02*
X112141000Y-63246000D01*
X112141000Y-63246000D02*
X122301000Y-63246000D01*
X124841000Y-60706000D02*
X125603000Y-60706000D01*
X122301000Y-63246000D02*
X124841000Y-60706000D01*
%TO.N,/A2*%
X107061000Y-60706000D02*
X112141000Y-60706000D01*
%TO.N,/A3*%
X107061000Y-58166000D02*
X112141000Y-58166000D01*
X112141000Y-58166000D02*
X125603000Y-58166000D01*
%TO.N,/A4*%
X107061000Y-55626000D02*
X112141000Y-55626000D01*
%TO.N,/A5*%
X123063000Y-53086000D02*
X125603000Y-55626000D01*
X107061000Y-53086000D02*
X112141000Y-53086000D01*
X112141000Y-53086000D02*
X123063000Y-53086000D01*
%TO.N,/A6*%
X107061000Y-50546000D02*
X112141000Y-50546000D01*
%TO.N,/A7*%
X112141000Y-48006000D02*
X119761000Y-48006000D01*
X119761000Y-48006000D02*
X124841000Y-53086000D01*
X124841000Y-53086000D02*
X125603000Y-53086000D01*
X107061000Y-48006000D02*
X112141000Y-48006000D01*
%TO.N,/A12*%
X107061000Y-45466000D02*
X112141000Y-45466000D01*
%TO.N,/A14*%
X107061000Y-42926000D02*
X112141000Y-42926000D01*
X112141000Y-42926000D02*
X116459000Y-42926000D01*
X124079000Y-50546000D02*
X125603000Y-50546000D01*
X116459000Y-42926000D02*
X124079000Y-50546000D01*
%TD*%
M02*
