%TF.GenerationSoftware,KiCad,Pcbnew,(5.99.0-7356-g63088e8bdb)*%
%TF.CreationDate,2021-07-04T12:01:15+08:00*%
%TF.ProjectId,AdapterCartdrigeDev,41646170-7465-4724-9361-727464726967,rev?*%
%TF.SameCoordinates,Original*%
%TF.FileFunction,Legend,Top*%
%TF.FilePolarity,Positive*%
%FSLAX46Y46*%
G04 Gerber Fmt 4.6, Leading zero omitted, Abs format (unit mm)*
G04 Created by KiCad (PCBNEW (5.99.0-7356-g63088e8bdb)) date 2021-07-04 12:01:15*
%MOMM*%
%LPD*%
G01*
G04 APERTURE LIST*
%ADD10C,0.300000*%
%ADD11C,0.150000*%
%ADD12C,0.120000*%
G04 APERTURE END LIST*
D10*
%TO.C,XiaoNiuNiu*%
X132365428Y-114550857D02*
X133889428Y-113534857D01*
X132365428Y-113534857D02*
X133889428Y-114550857D01*
X133889428Y-112954285D02*
X132873428Y-112954285D01*
X132365428Y-112954285D02*
X132438000Y-113026857D01*
X132510571Y-112954285D01*
X132438000Y-112881714D01*
X132365428Y-112954285D01*
X132510571Y-112954285D01*
X133889428Y-111575428D02*
X133091142Y-111575428D01*
X132946000Y-111648000D01*
X132873428Y-111793142D01*
X132873428Y-112083428D01*
X132946000Y-112228571D01*
X133816857Y-111575428D02*
X133889428Y-111720571D01*
X133889428Y-112083428D01*
X133816857Y-112228571D01*
X133671714Y-112301142D01*
X133526571Y-112301142D01*
X133381428Y-112228571D01*
X133308857Y-112083428D01*
X133308857Y-111720571D01*
X133236285Y-111575428D01*
X133889428Y-110632000D02*
X133816857Y-110777142D01*
X133744285Y-110849714D01*
X133599142Y-110922285D01*
X133163714Y-110922285D01*
X133018571Y-110849714D01*
X132946000Y-110777142D01*
X132873428Y-110632000D01*
X132873428Y-110414285D01*
X132946000Y-110269142D01*
X133018571Y-110196571D01*
X133163714Y-110124000D01*
X133599142Y-110124000D01*
X133744285Y-110196571D01*
X133816857Y-110269142D01*
X133889428Y-110414285D01*
X133889428Y-110632000D01*
X133889428Y-109470857D02*
X132365428Y-109470857D01*
X133889428Y-108600000D01*
X132365428Y-108600000D01*
X133889428Y-107874285D02*
X132873428Y-107874285D01*
X132365428Y-107874285D02*
X132438000Y-107946857D01*
X132510571Y-107874285D01*
X132438000Y-107801714D01*
X132365428Y-107874285D01*
X132510571Y-107874285D01*
X132873428Y-106495428D02*
X133889428Y-106495428D01*
X132873428Y-107148571D02*
X133671714Y-107148571D01*
X133816857Y-107076000D01*
X133889428Y-106930857D01*
X133889428Y-106713142D01*
X133816857Y-106568000D01*
X133744285Y-106495428D01*
X133889428Y-105769714D02*
X132365428Y-105769714D01*
X133889428Y-104898857D01*
X132365428Y-104898857D01*
X133889428Y-104173142D02*
X132873428Y-104173142D01*
X132365428Y-104173142D02*
X132438000Y-104245714D01*
X132510571Y-104173142D01*
X132438000Y-104100571D01*
X132365428Y-104173142D01*
X132510571Y-104173142D01*
X132873428Y-102794285D02*
X133889428Y-102794285D01*
X132873428Y-103447428D02*
X133671714Y-103447428D01*
X133816857Y-103374857D01*
X133889428Y-103229714D01*
X133889428Y-103012000D01*
X133816857Y-102866857D01*
X133744285Y-102794285D01*
D11*
%TO.C,J1*%
X128766666Y-45952380D02*
X128766666Y-46666666D01*
X128719047Y-46809523D01*
X128623809Y-46904761D01*
X128480952Y-46952380D01*
X128385714Y-46952380D01*
X129766666Y-46952380D02*
X129195238Y-46952380D01*
X129480952Y-46952380D02*
X129480952Y-45952380D01*
X129385714Y-46095238D01*
X129290476Y-46190476D01*
X129195238Y-46238095D01*
%TO.C,C1*%
X126880142Y-44092666D02*
X126927761Y-44140285D01*
X126975380Y-44283142D01*
X126975380Y-44378380D01*
X126927761Y-44521238D01*
X126832523Y-44616476D01*
X126737285Y-44664095D01*
X126546809Y-44711714D01*
X126403952Y-44711714D01*
X126213476Y-44664095D01*
X126118238Y-44616476D01*
X126023000Y-44521238D01*
X125975380Y-44378380D01*
X125975380Y-44283142D01*
X126023000Y-44140285D01*
X126070619Y-44092666D01*
X126975380Y-43140285D02*
X126975380Y-43711714D01*
X126975380Y-43426000D02*
X125975380Y-43426000D01*
X126118238Y-43521238D01*
X126213476Y-43616476D01*
X126261095Y-43711714D01*
%TO.C,U1*%
X109251095Y-37152380D02*
X109251095Y-37961904D01*
X109298714Y-38057142D01*
X109346333Y-38104761D01*
X109441571Y-38152380D01*
X109632047Y-38152380D01*
X109727285Y-38104761D01*
X109774904Y-38057142D01*
X109822523Y-37961904D01*
X109822523Y-37152380D01*
X110822523Y-38152380D02*
X110251095Y-38152380D01*
X110536809Y-38152380D02*
X110536809Y-37152380D01*
X110441571Y-37295238D01*
X110346333Y-37390476D01*
X110251095Y-37438095D01*
%TO.C,XiaoNiuNiu*%
G36*
X127777057Y-117096369D02*
G01*
X127865577Y-117158050D01*
X127937394Y-117264331D01*
X127951303Y-117376962D01*
X127906340Y-117487978D01*
X127905652Y-117488964D01*
X127818675Y-117566784D01*
X127711161Y-117598394D01*
X127600358Y-117584942D01*
X127503514Y-117527575D01*
X127451607Y-117458747D01*
X127418777Y-117343297D01*
X127435460Y-117239201D01*
X127490643Y-117154460D01*
X127573313Y-117097074D01*
X127672455Y-117075044D01*
X127777057Y-117096369D01*
G37*
G36*
X127768824Y-118584791D02*
G01*
X127799870Y-118598695D01*
X127902021Y-118678736D01*
X127950591Y-118778891D01*
X127943860Y-118888349D01*
X127880108Y-118996300D01*
X127865577Y-119011639D01*
X127759253Y-119083600D01*
X127647168Y-119096673D01*
X127535974Y-119050324D01*
X127521092Y-119039249D01*
X127446790Y-118950459D01*
X127421088Y-118850605D01*
X127436764Y-118751099D01*
X127486597Y-118663352D01*
X127563366Y-118598777D01*
X127659849Y-118568786D01*
X127768824Y-118584791D01*
G37*
G36*
X130087825Y-118296108D02*
G01*
X130106205Y-118312172D01*
X130158239Y-118392122D01*
X130154366Y-118477420D01*
X130094122Y-118575737D01*
X130090058Y-118580615D01*
X129999444Y-118658677D01*
X129890506Y-118710844D01*
X129785396Y-118728159D01*
X129742150Y-118721255D01*
X129661428Y-118669263D01*
X129615103Y-118587384D01*
X129614656Y-118497170D01*
X129617826Y-118487859D01*
X129681951Y-118383719D01*
X129776038Y-118307068D01*
X129885063Y-118263313D01*
X129994000Y-118257858D01*
X130087825Y-118296108D01*
G37*
G36*
X126812252Y-122022621D02*
G01*
X126718923Y-121937234D01*
X126613329Y-121832171D01*
X126595358Y-121813491D01*
X126461678Y-121668654D01*
X126360936Y-121545377D01*
X126280102Y-121425703D01*
X126206145Y-121291674D01*
X126182955Y-121245174D01*
X126109226Y-121076629D01*
X126051251Y-120908436D01*
X126012300Y-120753694D01*
X125995644Y-120625500D01*
X126004556Y-120536953D01*
X126005462Y-120534495D01*
X126008553Y-120500193D01*
X125996417Y-120499313D01*
X125957508Y-120518123D01*
X125879580Y-120556026D01*
X125778082Y-120605505D01*
X125757216Y-120615687D01*
X125535800Y-120702000D01*
X125373707Y-120731420D01*
X125273959Y-120736126D01*
X125214744Y-120727861D01*
X125176366Y-120700523D01*
X125147838Y-120661443D01*
X125118002Y-120606127D01*
X125108494Y-120548976D01*
X125117674Y-120467554D01*
X125129336Y-120407954D01*
X125161641Y-120292604D01*
X125212356Y-120154020D01*
X125270557Y-120022020D01*
X125271119Y-120020877D01*
X125377406Y-119804881D01*
X125288815Y-119609499D01*
X125139111Y-119209548D01*
X125038365Y-118784614D01*
X124986589Y-118344654D01*
X124984284Y-117976827D01*
X125139851Y-117976827D01*
X125148626Y-118431296D01*
X125198581Y-118843844D01*
X125290296Y-119217565D01*
X125424353Y-119555557D01*
X125443245Y-119593729D01*
X125481836Y-119664071D01*
X125510987Y-119688444D01*
X125546968Y-119675778D01*
X125567510Y-119661927D01*
X125673769Y-119621446D01*
X125802449Y-119622087D01*
X125935240Y-119660072D01*
X126053831Y-119731625D01*
X126094962Y-119770736D01*
X126166863Y-119889189D01*
X126204242Y-120035637D01*
X126201050Y-120184555D01*
X126197357Y-120202691D01*
X126173686Y-120284732D01*
X126148671Y-120340548D01*
X126143458Y-120347186D01*
X126130734Y-120394138D01*
X126131453Y-120484898D01*
X126143621Y-120604655D01*
X126165245Y-120738596D01*
X126194330Y-120871906D01*
X126228884Y-120989773D01*
X126230590Y-120994630D01*
X126281993Y-121115973D01*
X126353183Y-121254925D01*
X126423806Y-121373508D01*
X126503325Y-121486714D01*
X126594132Y-121602820D01*
X126686939Y-121711451D01*
X126772458Y-121802236D01*
X126841402Y-121864799D01*
X126884483Y-121888768D01*
X126885141Y-121888783D01*
X126909314Y-121861119D01*
X126936809Y-121787981D01*
X126964284Y-121684147D01*
X126988401Y-121564397D01*
X127005818Y-121443509D01*
X127013195Y-121336262D01*
X127013228Y-121322059D01*
X127002509Y-121202700D01*
X126977429Y-121083991D01*
X126968219Y-121055250D01*
X126933218Y-120950140D01*
X126922552Y-120880962D01*
X126943156Y-120843431D01*
X127001967Y-120833263D01*
X127105921Y-120846172D01*
X127257040Y-120876814D01*
X127415681Y-120902168D01*
X127607192Y-120919416D01*
X127814460Y-120928326D01*
X128020373Y-120928663D01*
X128207820Y-120920193D01*
X128359688Y-120902684D01*
X128408830Y-120892557D01*
X128575078Y-120839663D01*
X128769263Y-120759704D01*
X128971014Y-120662233D01*
X129159958Y-120556806D01*
X129257392Y-120494596D01*
X129440173Y-120356348D01*
X129638839Y-120182000D01*
X129837247Y-119986923D01*
X130019253Y-119786484D01*
X130085289Y-119706444D01*
X130266747Y-119479117D01*
X130155245Y-119465025D01*
X130092145Y-119457049D01*
X129957999Y-119429759D01*
X129816161Y-119385609D01*
X129756505Y-119361257D01*
X129534933Y-119227964D01*
X129348998Y-119046850D01*
X129197789Y-118816852D01*
X129101487Y-118597697D01*
X129056753Y-118419633D01*
X129034559Y-118207943D01*
X129034738Y-118092490D01*
X129169862Y-118092490D01*
X129190582Y-118343065D01*
X129254968Y-118585371D01*
X129363647Y-118810427D01*
X129517247Y-119009246D01*
X129558237Y-119049610D01*
X129653967Y-119131265D01*
X129749824Y-119200353D01*
X129817925Y-119238449D01*
X129904446Y-119260977D01*
X130024469Y-119275908D01*
X130155245Y-119282214D01*
X130274027Y-119278867D01*
X130358066Y-119264838D01*
X130362964Y-119263088D01*
X130405784Y-119222852D01*
X130461888Y-119136151D01*
X130526202Y-119014295D01*
X130593655Y-118868593D01*
X130659171Y-118710354D01*
X130717679Y-118550887D01*
X130764104Y-118401502D01*
X130782741Y-118327327D01*
X130798944Y-118174762D01*
X130790823Y-117989351D01*
X130759754Y-117793149D01*
X130745669Y-117733548D01*
X130705015Y-117598982D01*
X130649188Y-117445533D01*
X130585335Y-117290066D01*
X130520600Y-117149449D01*
X130462132Y-117040547D01*
X130434701Y-116999587D01*
X130356684Y-116943728D01*
X130239316Y-116914163D01*
X130097562Y-116910271D01*
X129946389Y-116931434D01*
X129800763Y-116977031D01*
X129699281Y-117030052D01*
X129511086Y-117187202D01*
X129363419Y-117381004D01*
X129256907Y-117602476D01*
X129192179Y-117842633D01*
X129169862Y-118092490D01*
X129034738Y-118092490D01*
X129034905Y-117985276D01*
X129057791Y-117774282D01*
X129101487Y-117602303D01*
X129221500Y-117342608D01*
X129375206Y-117123907D01*
X129557860Y-116950383D01*
X129764719Y-116826214D01*
X129991038Y-116755583D01*
X130075195Y-116744173D01*
X130171252Y-116732281D01*
X130237384Y-116718012D01*
X130257756Y-116706499D01*
X130239400Y-116676401D01*
X130189351Y-116609774D01*
X130115144Y-116516310D01*
X130024310Y-116405702D01*
X130019453Y-116399879D01*
X129722667Y-116080547D01*
X129406382Y-115808573D01*
X129075546Y-115587260D01*
X128735108Y-115419913D01*
X128390016Y-115309835D01*
X128385230Y-115308729D01*
X128261041Y-115290685D01*
X128093517Y-115280965D01*
X127899335Y-115279308D01*
X127695169Y-115285448D01*
X127497695Y-115299122D01*
X127323588Y-115320065D01*
X127287350Y-115326105D01*
X127124794Y-115353797D01*
X127014653Y-115366081D01*
X126949795Y-115358905D01*
X126923087Y-115328215D01*
X126927398Y-115269958D01*
X126955593Y-115180081D01*
X126961713Y-115162955D01*
X127227667Y-115162955D01*
X127254027Y-115168672D01*
X127322843Y-115164021D01*
X127385859Y-115155246D01*
X127555938Y-115135391D01*
X127753886Y-115124658D01*
X127962634Y-115122789D01*
X128165112Y-115129527D01*
X128344253Y-115144613D01*
X128482988Y-115167789D01*
X128499761Y-115172084D01*
X128864740Y-115302361D01*
X129220274Y-115489665D01*
X129562337Y-115730642D01*
X129886901Y-116021941D01*
X130189936Y-116360210D01*
X130467415Y-116742097D01*
X130556861Y-116883978D01*
X130623905Y-117002506D01*
X130694330Y-117140501D01*
X130762212Y-117284633D01*
X130821627Y-117421569D01*
X130866650Y-117537978D01*
X130891359Y-117620528D01*
X130894272Y-117643302D01*
X130919566Y-117681069D01*
X130978236Y-117716910D01*
X131044465Y-117735823D01*
X131054288Y-117736277D01*
X131094008Y-117717107D01*
X131166239Y-117665519D01*
X131259116Y-117590396D01*
X131321496Y-117536225D01*
X131474072Y-117407789D01*
X131598964Y-117321320D01*
X131706095Y-117271241D01*
X131805391Y-117251972D01*
X131828434Y-117251312D01*
X131949155Y-117279573D01*
X132060023Y-117356429D01*
X132155229Y-117469989D01*
X132228961Y-117608362D01*
X132275409Y-117759657D01*
X132288764Y-117911983D01*
X132263213Y-118053450D01*
X132243110Y-118099938D01*
X132161705Y-118205372D01*
X132040649Y-118299659D01*
X131900722Y-118366845D01*
X131891578Y-118369859D01*
X131739178Y-118433221D01*
X131599464Y-118524658D01*
X131466772Y-118650372D01*
X131335436Y-118816566D01*
X131199794Y-119029440D01*
X131064363Y-119275612D01*
X130952641Y-119478718D01*
X130857999Y-119626322D01*
X130778801Y-119720585D01*
X130713413Y-119763665D01*
X130692148Y-119767064D01*
X130613179Y-119750601D01*
X130521385Y-119710249D01*
X130443644Y-119659569D01*
X130412403Y-119625931D01*
X130383907Y-119587169D01*
X130361118Y-119600980D01*
X130346837Y-119623706D01*
X130249447Y-119762638D01*
X130112843Y-119924872D01*
X129947961Y-120099653D01*
X129765732Y-120276224D01*
X129577093Y-120443828D01*
X129392978Y-120591707D01*
X129281429Y-120671804D01*
X129137078Y-120756771D01*
X128955236Y-120845068D01*
X128757707Y-120927421D01*
X128566295Y-120994553D01*
X128442075Y-121028826D01*
X128308057Y-121050225D01*
X128133007Y-121064519D01*
X127936125Y-121071447D01*
X127736612Y-121070747D01*
X127553669Y-121062159D01*
X127406496Y-121045420D01*
X127393442Y-121043094D01*
X127302574Y-121027626D01*
X127247196Y-121023884D01*
X127229913Y-121035471D01*
X127253330Y-121065994D01*
X127320052Y-121119058D01*
X127432683Y-121198268D01*
X127575298Y-121294784D01*
X127827812Y-121453865D01*
X128066673Y-121580111D01*
X128317443Y-121686915D01*
X128340250Y-121695572D01*
X128470336Y-121741461D01*
X128558304Y-121761126D01*
X128617332Y-121753199D01*
X128660594Y-121716312D01*
X128696206Y-121658582D01*
X128780192Y-121539635D01*
X128895247Y-121424589D01*
X129023088Y-121328761D01*
X129145431Y-121267473D01*
X129172562Y-121259453D01*
X129264211Y-121240647D01*
X129392401Y-121218888D01*
X129533446Y-121198115D01*
X129572864Y-121192902D01*
X129709534Y-121171785D01*
X129836422Y-121145997D01*
X129931706Y-121120156D01*
X129951742Y-121112720D01*
X130073595Y-121043920D01*
X130173167Y-120954427D01*
X130234105Y-120859771D01*
X130241218Y-120837796D01*
X130288463Y-120763866D01*
X130379228Y-120707527D01*
X130499097Y-120669769D01*
X130633656Y-120651584D01*
X130768488Y-120653961D01*
X130889180Y-120677892D01*
X130981317Y-120724364D01*
X131026995Y-120783816D01*
X131044830Y-120864525D01*
X131034631Y-120951231D01*
X130992788Y-121050398D01*
X130915688Y-121168491D01*
X130799720Y-121311974D01*
X130641273Y-121487313D01*
X130623249Y-121506534D01*
X130515546Y-121622995D01*
X130424544Y-121725052D01*
X130357615Y-121804150D01*
X130322131Y-121851732D01*
X130318377Y-121860355D01*
X130323629Y-121873755D01*
X130346474Y-121877637D01*
X130397543Y-121870639D01*
X130487469Y-121851399D01*
X130606324Y-121823465D01*
X131019024Y-121696652D01*
X131424224Y-121517689D01*
X131811026Y-121293296D01*
X132168531Y-121030193D01*
X132485842Y-120735101D01*
X132625419Y-120578379D01*
X132772240Y-120401956D01*
X132663799Y-120251013D01*
X132526225Y-120011008D01*
X132444874Y-119757838D01*
X132419141Y-119499064D01*
X132448425Y-119242247D01*
X132532120Y-118994949D01*
X132669623Y-118764730D01*
X132793918Y-118621428D01*
X132958847Y-118484066D01*
X133144615Y-118375363D01*
X133331751Y-118305762D01*
X133412069Y-118289867D01*
X133531265Y-118273880D01*
X133531265Y-118081431D01*
X133529727Y-117976560D01*
X133521091Y-117917029D01*
X133499321Y-117887568D01*
X133458381Y-117872907D01*
X133447911Y-117870528D01*
X133217228Y-117804805D01*
X133027306Y-117714831D01*
X132859987Y-117590618D01*
X132759450Y-117491832D01*
X132601541Y-117282051D01*
X132490544Y-117045752D01*
X132430044Y-116794651D01*
X132423623Y-116540461D01*
X132437314Y-116438831D01*
X132471118Y-116305287D01*
X132521935Y-116162873D01*
X132582045Y-116028940D01*
X132643730Y-115920839D01*
X132695259Y-115859093D01*
X132735277Y-115810142D01*
X132731048Y-115755872D01*
X132680491Y-115682167D01*
X132666832Y-115666338D01*
X132612929Y-115612507D01*
X132571650Y-115600369D01*
X132523816Y-115620391D01*
X132461798Y-115637703D01*
X132342239Y-115653095D01*
X132168197Y-115666280D01*
X131942731Y-115676968D01*
X131909665Y-115678165D01*
X131713562Y-115685429D01*
X131564751Y-115692902D01*
X131449933Y-115702656D01*
X131355810Y-115716762D01*
X131269082Y-115737293D01*
X131176450Y-115766319D01*
X131064614Y-115805913D01*
X131045823Y-115812723D01*
X130844782Y-115879239D01*
X130683351Y-115917522D01*
X130550859Y-115930497D01*
X130446865Y-115928655D01*
X130380443Y-115914227D01*
X130328705Y-115878992D01*
X130287515Y-115835923D01*
X130221126Y-115744460D01*
X130176115Y-115636419D01*
X130149371Y-115499246D01*
X130137783Y-115320382D01*
X130136684Y-115227129D01*
X130131227Y-115062791D01*
X130116140Y-114930574D01*
X130094504Y-114848251D01*
X130054289Y-114784660D01*
X129981425Y-114695326D01*
X129888387Y-114594985D01*
X129836867Y-114544008D01*
X129745041Y-114452849D01*
X129672673Y-114375049D01*
X129629335Y-114321233D01*
X129621241Y-114304617D01*
X129593306Y-114288577D01*
X129516942Y-114282726D01*
X129403314Y-114286133D01*
X129263584Y-114297862D01*
X129108915Y-114316982D01*
X128950470Y-114342558D01*
X128801581Y-114373152D01*
X128678051Y-114402569D01*
X128578888Y-114427467D01*
X128517440Y-114444425D01*
X128504210Y-114449380D01*
X128494321Y-114481649D01*
X128477782Y-114558529D01*
X128457803Y-114664818D01*
X128453347Y-114690165D01*
X128427176Y-114813232D01*
X128395658Y-114921894D01*
X128365194Y-114994418D01*
X128362414Y-114998903D01*
X128333181Y-115037957D01*
X128299015Y-115059934D01*
X128244367Y-115068338D01*
X128153688Y-115066670D01*
X128079863Y-115062553D01*
X127886075Y-115038564D01*
X127737206Y-114991113D01*
X127716333Y-114980949D01*
X127629197Y-114944687D01*
X127557697Y-114929613D01*
X127535306Y-114932098D01*
X127483855Y-114960177D01*
X127411162Y-115009034D01*
X127333758Y-115066266D01*
X127268175Y-115119467D01*
X127230943Y-115156232D01*
X127227667Y-115162955D01*
X126961713Y-115162955D01*
X126968219Y-115144749D01*
X126996106Y-115035252D01*
X127011971Y-114911249D01*
X127013228Y-114877940D01*
X127007672Y-114774067D01*
X126991568Y-114654302D01*
X126968256Y-114533424D01*
X126941076Y-114426213D01*
X126913369Y-114347448D01*
X126888474Y-114311907D01*
X126885141Y-114311217D01*
X126842817Y-114334100D01*
X126774400Y-114395835D01*
X126689178Y-114486047D01*
X126596439Y-114594363D01*
X126505471Y-114710409D01*
X126425561Y-114823811D01*
X126423806Y-114826491D01*
X126272773Y-115105420D01*
X126175907Y-115401195D01*
X126138982Y-115614558D01*
X126126701Y-115744333D01*
X126127849Y-115830593D01*
X126143232Y-115889115D01*
X126154005Y-115909017D01*
X126186895Y-115983193D01*
X126196181Y-116034220D01*
X126201915Y-116061814D01*
X126226595Y-116080053D01*
X126281441Y-116091742D01*
X126377672Y-116099684D01*
X126477860Y-116104611D01*
X126665557Y-116120569D01*
X126805104Y-116153082D01*
X126907906Y-116207400D01*
X126985371Y-116288770D01*
X127026757Y-116357160D01*
X127077367Y-116503146D01*
X127101033Y-116685855D01*
X127100150Y-116893583D01*
X127077111Y-117114627D01*
X127034310Y-117337284D01*
X126974140Y-117549851D01*
X126898994Y-117740625D01*
X126811268Y-117897903D01*
X126713354Y-118009982D01*
X126684240Y-118031802D01*
X126544586Y-118089830D01*
X126386340Y-118098842D01*
X126222970Y-118061268D01*
X126067944Y-117979541D01*
X125978502Y-117904365D01*
X125928924Y-117836484D01*
X125872588Y-117731856D01*
X125820717Y-117611629D01*
X125814980Y-117596213D01*
X125743302Y-117419423D01*
X125675170Y-117300163D01*
X125605146Y-117236014D01*
X125527792Y-117224555D01*
X125437671Y-117263366D01*
X125329343Y-117350026D01*
X125307613Y-117370403D01*
X125150998Y-117519803D01*
X125139851Y-117976827D01*
X124984284Y-117976827D01*
X124983799Y-117899623D01*
X125030009Y-117459479D01*
X125125233Y-117034179D01*
X125269487Y-116633680D01*
X125284462Y-116600101D01*
X125368700Y-116414319D01*
X125268102Y-116219033D01*
X125182234Y-116026339D01*
X125131874Y-115854240D01*
X125117487Y-115709136D01*
X125139537Y-115597428D01*
X125198488Y-115525517D01*
X125217084Y-115515385D01*
X125311391Y-115499214D01*
X125442759Y-115513750D01*
X125597804Y-115556085D01*
X125763139Y-115623311D01*
X125802159Y-115642468D01*
X125908793Y-115689159D01*
X125981401Y-115705502D01*
X126013850Y-115691287D01*
X126001919Y-115649326D01*
X125991826Y-115587969D01*
X126003811Y-115484640D01*
X126034476Y-115352372D01*
X126080424Y-115204203D01*
X126138257Y-115053166D01*
X126182955Y-114954826D01*
X126257408Y-114812842D01*
X126334762Y-114690691D01*
X126428048Y-114570417D01*
X126550297Y-114434063D01*
X126595358Y-114386509D01*
X126702060Y-114278998D01*
X126798074Y-114189783D01*
X126873853Y-114127216D01*
X126919849Y-114099650D01*
X126923920Y-114099045D01*
X126967939Y-114127199D01*
X127014909Y-114203761D01*
X127061160Y-114316880D01*
X127103019Y-114454708D01*
X127136815Y-114605395D01*
X127158876Y-114757091D01*
X127165661Y-114879182D01*
X127166109Y-115037958D01*
X127394312Y-114874221D01*
X127804685Y-114616937D01*
X128245880Y-114411793D01*
X128717513Y-114258955D01*
X128901867Y-114215221D01*
X129162212Y-114173622D01*
X129457705Y-114150235D01*
X129768340Y-114145015D01*
X130074109Y-114157920D01*
X130355005Y-114188905D01*
X130514754Y-114218716D01*
X130999902Y-114357347D01*
X131451433Y-114546236D01*
X131870894Y-114786263D01*
X132259835Y-115078306D01*
X132602539Y-115404804D01*
X132862347Y-115680796D01*
X132950842Y-115617782D01*
X133147133Y-115509364D01*
X133371512Y-115437394D01*
X133531265Y-115413614D01*
X133681386Y-115411436D01*
X133789136Y-115436010D01*
X133869708Y-115495072D01*
X133938290Y-115596357D01*
X133955608Y-115629713D01*
X133979803Y-115680350D01*
X133998366Y-115728955D01*
X134012185Y-115784418D01*
X134022150Y-115855631D01*
X134029150Y-115951483D01*
X134034074Y-116080865D01*
X134037812Y-116252667D01*
X134041253Y-116475780D01*
X134041422Y-116487629D01*
X134043260Y-116808799D01*
X134038033Y-117075191D01*
X134024568Y-117292363D01*
X134001691Y-117465870D01*
X133968229Y-117601270D01*
X133923007Y-117704118D01*
X133864853Y-117779970D01*
X133792593Y-117834384D01*
X133752745Y-117854434D01*
X133699335Y-117881474D01*
X133671469Y-117913828D01*
X133661858Y-117969504D01*
X133663209Y-118066511D01*
X133663510Y-118074856D01*
X133669436Y-118175977D01*
X133684041Y-118235502D01*
X133716520Y-118272452D01*
X133774900Y-118305267D01*
X133874984Y-118383866D01*
X133951309Y-118510121D01*
X134006465Y-118688642D01*
X134015887Y-118734711D01*
X134027718Y-118833008D01*
X134036343Y-118977971D01*
X134041866Y-119157772D01*
X134044388Y-119360586D01*
X134044014Y-119574586D01*
X134040847Y-119787946D01*
X134034990Y-119988840D01*
X134026546Y-120165442D01*
X134015619Y-120305926D01*
X134002312Y-120398465D01*
X134001319Y-120402736D01*
X133945923Y-120557804D01*
X133863333Y-120661407D01*
X133746556Y-120719239D01*
X133590650Y-120736993D01*
X133405338Y-120718351D01*
X133214890Y-120667732D01*
X133045843Y-120593097D01*
X132986640Y-120555815D01*
X132895394Y-120490842D01*
X132538926Y-120851298D01*
X132264524Y-121111438D01*
X131996993Y-121327110D01*
X131720491Y-121510050D01*
X131455012Y-121654357D01*
X131017467Y-121838921D01*
X130563828Y-121967477D01*
X130346474Y-122001714D01*
X130099841Y-122040565D01*
X129631253Y-122058726D01*
X129163811Y-122022502D01*
X128703262Y-121932432D01*
X128255352Y-121789058D01*
X127825828Y-121592922D01*
X127420436Y-121344562D01*
X127310083Y-121264265D01*
X127166109Y-121155528D01*
X127165661Y-121317561D01*
X127156648Y-121461752D01*
X127132786Y-121614821D01*
X127097717Y-121764969D01*
X127055082Y-121900396D01*
X127008522Y-122009304D01*
X126961678Y-122079893D01*
X126923920Y-122100954D01*
X126885141Y-122080697D01*
X126883767Y-122079979D01*
X126812252Y-122022621D01*
G37*
G36*
X129962558Y-117499481D02*
G01*
X130061448Y-117566006D01*
X130120847Y-117644354D01*
X130159650Y-117738622D01*
X130157328Y-117806360D01*
X130112536Y-117866777D01*
X130104802Y-117873943D01*
X130011536Y-117921112D01*
X129900448Y-117922903D01*
X129787680Y-117884147D01*
X129689377Y-117809677D01*
X129634847Y-117733281D01*
X129598733Y-117650320D01*
X129599096Y-117593252D01*
X129637845Y-117538171D01*
X129651551Y-117524105D01*
X129740497Y-117474145D01*
X129849870Y-117467399D01*
X129962558Y-117499481D01*
G37*
D12*
%TO.C,J1*%
X126606000Y-50550000D02*
X126606000Y-86170000D01*
X129206000Y-50550000D02*
X129206000Y-47950000D01*
X126606000Y-49280000D02*
X126606000Y-47950000D01*
X126606000Y-50550000D02*
X129206000Y-50550000D01*
X131806000Y-47950000D02*
X131806000Y-86170000D01*
X126606000Y-47950000D02*
X127936000Y-47950000D01*
X129206000Y-47950000D02*
X131806000Y-47950000D01*
X126606000Y-86170000D02*
X131806000Y-86170000D01*
%TO.C,C1*%
X122613000Y-46566000D02*
X125353000Y-46566000D01*
X122613000Y-46566000D02*
X122613000Y-41326000D01*
X122613000Y-41326000D02*
X125353000Y-41326000D01*
X125353000Y-46566000D02*
X125353000Y-41326000D01*
%TO.C,U1*%
X121563000Y-38600000D02*
X98463000Y-38600000D01*
X97443000Y-50530000D02*
X97443000Y-47990000D01*
X121563000Y-89200000D02*
X121563000Y-38600000D01*
X98463000Y-45360000D02*
X98463000Y-89200000D01*
X98463000Y-38600000D02*
X98463000Y-40460000D01*
X100743000Y-38600000D02*
X100743000Y-40860000D01*
X98463000Y-89200000D02*
X121563000Y-89200000D01*
X101743000Y-42910000D02*
G75*
G03*
X101743000Y-42910000I-2550000J0D01*
G01*
X100093000Y-42910000D02*
G75*
G03*
X100093000Y-42910000I-900000J0D01*
G01*
%TD*%
M02*
