M48
; DRILL file {KiCad (5.99.0-7356-g63088e8bdb)} date Sun Jul  4 12:01:13 2021
; FORMAT={-:-/ absolute / metric / decimal}
; #@! TF.CreationDate,2021-07-04T12:01:13+08:00
; #@! TF.GenerationSoftware,Kicad,Pcbnew,(5.99.0-7356-g63088e8bdb)
; #@! TF.FileFunction,Plated,1,2,PTH
FMAT,2
METRIC
T1C0.800
T2C1.000
T3C3.200
%
G90
G05
T1
X123.983Y-42.696
X123.983Y-45.196
T2
X102.393Y-49.26
X102.393Y-51.8
X102.393Y-54.34
X102.393Y-56.88
X102.393Y-59.42
X102.393Y-61.96
X102.393Y-64.5
X102.393Y-67.04
X102.393Y-69.58
X102.393Y-72.12
X102.393Y-74.66
X102.393Y-77.2
X102.393Y-79.74
X102.393Y-82.28
X117.633Y-49.26
X117.633Y-51.8
X117.633Y-54.34
X117.633Y-56.88
X117.633Y-59.42
X117.633Y-61.96
X117.633Y-64.5
X117.633Y-67.04
X117.633Y-69.58
X117.633Y-72.12
X117.633Y-74.66
X117.633Y-77.2
X117.633Y-79.74
X117.633Y-82.28
X127.936Y-49.28
X127.936Y-51.82
X127.936Y-54.36
X127.936Y-56.9
X127.936Y-59.44
X127.936Y-61.98
X127.936Y-64.52
X127.936Y-67.06
X127.936Y-69.6
X127.936Y-72.14
X127.936Y-74.68
X127.936Y-77.22
X127.936Y-79.76
X127.936Y-82.3
X127.936Y-84.84
X130.476Y-49.28
X130.476Y-51.82
X130.476Y-54.36
X130.476Y-56.9
X130.476Y-59.44
X130.476Y-61.98
X130.476Y-64.52
X130.476Y-67.06
X130.476Y-69.6
X130.476Y-72.14
X130.476Y-74.68
X130.476Y-77.22
X130.476Y-79.76
X130.476Y-82.3
X130.476Y-84.84
T3
X96.0Y-34.0
X96.0Y-119.0
X131.0Y-34.0
T0
M30
