%TF.GenerationSoftware,KiCad,Pcbnew,7.0.3*%
%TF.CreationDate,2023-05-28T21:57:32+08:00*%
%TF.ProjectId,CartdrigeProto,43617274-6472-4696-9765-50726f746f2e,rev?*%
%TF.SameCoordinates,Original*%
%TF.FileFunction,Legend,Bot*%
%TF.FilePolarity,Positive*%
%FSLAX46Y46*%
G04 Gerber Fmt 4.6, Leading zero omitted, Abs format (unit mm)*
G04 Created by KiCad (PCBNEW 7.0.3) date 2023-05-28 21:57:32*
%MOMM*%
%LPD*%
G01*
G04 APERTURE LIST*
%ADD10C,0.150000*%
G04 APERTURE END LIST*
D10*
X148361133Y-77260220D02*
X148361133Y-76498316D01*
X147980180Y-76879268D02*
X148742085Y-76879268D01*
X148980180Y-75545935D02*
X148980180Y-76022125D01*
X148980180Y-76022125D02*
X148503990Y-76069744D01*
X148503990Y-76069744D02*
X148551609Y-76022125D01*
X148551609Y-76022125D02*
X148599228Y-75926887D01*
X148599228Y-75926887D02*
X148599228Y-75688792D01*
X148599228Y-75688792D02*
X148551609Y-75593554D01*
X148551609Y-75593554D02*
X148503990Y-75545935D01*
X148503990Y-75545935D02*
X148408752Y-75498316D01*
X148408752Y-75498316D02*
X148170657Y-75498316D01*
X148170657Y-75498316D02*
X148075419Y-75545935D01*
X148075419Y-75545935D02*
X148027800Y-75593554D01*
X148027800Y-75593554D02*
X147980180Y-75688792D01*
X147980180Y-75688792D02*
X147980180Y-75926887D01*
X147980180Y-75926887D02*
X148027800Y-76022125D01*
X148027800Y-76022125D02*
X148075419Y-76069744D01*
X148980180Y-75212601D02*
X147980180Y-74879268D01*
X147980180Y-74879268D02*
X148980180Y-74545935D01*
X135819895Y-77053839D02*
X135819895Y-76577649D01*
X135534180Y-77149077D02*
X136534180Y-76815744D01*
X136534180Y-76815744D02*
X135534180Y-76482411D01*
X135534180Y-75625268D02*
X135534180Y-76196696D01*
X135534180Y-75910982D02*
X136534180Y-75910982D01*
X136534180Y-75910982D02*
X136391323Y-76006220D01*
X136391323Y-76006220D02*
X136296085Y-76101458D01*
X136296085Y-76101458D02*
X136248466Y-76196696D01*
X136534180Y-74720506D02*
X136534180Y-75196696D01*
X136534180Y-75196696D02*
X136057990Y-75244315D01*
X136057990Y-75244315D02*
X136105609Y-75196696D01*
X136105609Y-75196696D02*
X136153228Y-75101458D01*
X136153228Y-75101458D02*
X136153228Y-74863363D01*
X136153228Y-74863363D02*
X136105609Y-74768125D01*
X136105609Y-74768125D02*
X136057990Y-74720506D01*
X136057990Y-74720506D02*
X135962752Y-74672887D01*
X135962752Y-74672887D02*
X135724657Y-74672887D01*
X135724657Y-74672887D02*
X135629419Y-74720506D01*
X135629419Y-74720506D02*
X135581800Y-74768125D01*
X135581800Y-74768125D02*
X135534180Y-74863363D01*
X135534180Y-74863363D02*
X135534180Y-75101458D01*
X135534180Y-75101458D02*
X135581800Y-75196696D01*
X135581800Y-75196696D02*
X135629419Y-75244315D01*
X115192180Y-77006220D02*
X116192180Y-77006220D01*
X116192180Y-77006220D02*
X116192180Y-76768125D01*
X116192180Y-76768125D02*
X116144561Y-76625268D01*
X116144561Y-76625268D02*
X116049323Y-76530030D01*
X116049323Y-76530030D02*
X115954085Y-76482411D01*
X115954085Y-76482411D02*
X115763609Y-76434792D01*
X115763609Y-76434792D02*
X115620752Y-76434792D01*
X115620752Y-76434792D02*
X115430276Y-76482411D01*
X115430276Y-76482411D02*
X115335038Y-76530030D01*
X115335038Y-76530030D02*
X115239800Y-76625268D01*
X115239800Y-76625268D02*
X115192180Y-76768125D01*
X115192180Y-76768125D02*
X115192180Y-77006220D01*
X116192180Y-75815744D02*
X116192180Y-75720506D01*
X116192180Y-75720506D02*
X116144561Y-75625268D01*
X116144561Y-75625268D02*
X116096942Y-75577649D01*
X116096942Y-75577649D02*
X116001704Y-75530030D01*
X116001704Y-75530030D02*
X115811228Y-75482411D01*
X115811228Y-75482411D02*
X115573133Y-75482411D01*
X115573133Y-75482411D02*
X115382657Y-75530030D01*
X115382657Y-75530030D02*
X115287419Y-75577649D01*
X115287419Y-75577649D02*
X115239800Y-75625268D01*
X115239800Y-75625268D02*
X115192180Y-75720506D01*
X115192180Y-75720506D02*
X115192180Y-75815744D01*
X115192180Y-75815744D02*
X115239800Y-75910982D01*
X115239800Y-75910982D02*
X115287419Y-75958601D01*
X115287419Y-75958601D02*
X115382657Y-76006220D01*
X115382657Y-76006220D02*
X115573133Y-76053839D01*
X115573133Y-76053839D02*
X115811228Y-76053839D01*
X115811228Y-76053839D02*
X116001704Y-76006220D01*
X116001704Y-76006220D02*
X116096942Y-75958601D01*
X116096942Y-75958601D02*
X116144561Y-75910982D01*
X116144561Y-75910982D02*
X116192180Y-75815744D01*
X110112180Y-76815792D02*
X110588371Y-77149125D01*
X110112180Y-77387220D02*
X111112180Y-77387220D01*
X111112180Y-77387220D02*
X111112180Y-77006268D01*
X111112180Y-77006268D02*
X111064561Y-76911030D01*
X111064561Y-76911030D02*
X111016942Y-76863411D01*
X111016942Y-76863411D02*
X110921704Y-76815792D01*
X110921704Y-76815792D02*
X110778847Y-76815792D01*
X110778847Y-76815792D02*
X110683609Y-76863411D01*
X110683609Y-76863411D02*
X110635990Y-76911030D01*
X110635990Y-76911030D02*
X110588371Y-77006268D01*
X110588371Y-77006268D02*
X110588371Y-77387220D01*
X110159800Y-76434839D02*
X110112180Y-76291982D01*
X110112180Y-76291982D02*
X110112180Y-76053887D01*
X110112180Y-76053887D02*
X110159800Y-75958649D01*
X110159800Y-75958649D02*
X110207419Y-75911030D01*
X110207419Y-75911030D02*
X110302657Y-75863411D01*
X110302657Y-75863411D02*
X110397895Y-75863411D01*
X110397895Y-75863411D02*
X110493133Y-75911030D01*
X110493133Y-75911030D02*
X110540752Y-75958649D01*
X110540752Y-75958649D02*
X110588371Y-76053887D01*
X110588371Y-76053887D02*
X110635990Y-76244363D01*
X110635990Y-76244363D02*
X110683609Y-76339601D01*
X110683609Y-76339601D02*
X110731228Y-76387220D01*
X110731228Y-76387220D02*
X110826466Y-76434839D01*
X110826466Y-76434839D02*
X110921704Y-76434839D01*
X110921704Y-76434839D02*
X111016942Y-76387220D01*
X111016942Y-76387220D02*
X111064561Y-76339601D01*
X111064561Y-76339601D02*
X111112180Y-76244363D01*
X111112180Y-76244363D02*
X111112180Y-76006268D01*
X111112180Y-76006268D02*
X111064561Y-75863411D01*
X111112180Y-75577696D02*
X111112180Y-75006268D01*
X110112180Y-75291982D02*
X111112180Y-75291982D01*
X112674180Y-77387220D02*
X113674180Y-77387220D01*
X113674180Y-77387220D02*
X113674180Y-77006268D01*
X113674180Y-77006268D02*
X113626561Y-76911030D01*
X113626561Y-76911030D02*
X113578942Y-76863411D01*
X113578942Y-76863411D02*
X113483704Y-76815792D01*
X113483704Y-76815792D02*
X113340847Y-76815792D01*
X113340847Y-76815792D02*
X113245609Y-76863411D01*
X113245609Y-76863411D02*
X113197990Y-76911030D01*
X113197990Y-76911030D02*
X113150371Y-77006268D01*
X113150371Y-77006268D02*
X113150371Y-77387220D01*
X113674180Y-76196744D02*
X113674180Y-76006268D01*
X113674180Y-76006268D02*
X113626561Y-75911030D01*
X113626561Y-75911030D02*
X113531323Y-75815792D01*
X113531323Y-75815792D02*
X113340847Y-75768173D01*
X113340847Y-75768173D02*
X113007514Y-75768173D01*
X113007514Y-75768173D02*
X112817038Y-75815792D01*
X112817038Y-75815792D02*
X112721800Y-75911030D01*
X112721800Y-75911030D02*
X112674180Y-76006268D01*
X112674180Y-76006268D02*
X112674180Y-76196744D01*
X112674180Y-76196744D02*
X112721800Y-76291982D01*
X112721800Y-76291982D02*
X112817038Y-76387220D01*
X112817038Y-76387220D02*
X113007514Y-76434839D01*
X113007514Y-76434839D02*
X113340847Y-76434839D01*
X113340847Y-76434839D02*
X113531323Y-76387220D01*
X113531323Y-76387220D02*
X113626561Y-76291982D01*
X113626561Y-76291982D02*
X113674180Y-76196744D01*
X112674180Y-74768173D02*
X113150371Y-75101506D01*
X112674180Y-75339601D02*
X113674180Y-75339601D01*
X113674180Y-75339601D02*
X113674180Y-74958649D01*
X113674180Y-74958649D02*
X113626561Y-74863411D01*
X113626561Y-74863411D02*
X113578942Y-74815792D01*
X113578942Y-74815792D02*
X113483704Y-74768173D01*
X113483704Y-74768173D02*
X113340847Y-74768173D01*
X113340847Y-74768173D02*
X113245609Y-74815792D01*
X113245609Y-74815792D02*
X113197990Y-74863411D01*
X113197990Y-74863411D02*
X113150371Y-74958649D01*
X113150371Y-74958649D02*
X113150371Y-75339601D01*
X113674180Y-74482458D02*
X113674180Y-73911030D01*
X112674180Y-74196744D02*
X113674180Y-74196744D01*
X113197990Y-73244363D02*
X113150371Y-73101506D01*
X113150371Y-73101506D02*
X113102752Y-73053887D01*
X113102752Y-73053887D02*
X113007514Y-73006268D01*
X113007514Y-73006268D02*
X112864657Y-73006268D01*
X112864657Y-73006268D02*
X112769419Y-73053887D01*
X112769419Y-73053887D02*
X112721800Y-73101506D01*
X112721800Y-73101506D02*
X112674180Y-73196744D01*
X112674180Y-73196744D02*
X112674180Y-73577696D01*
X112674180Y-73577696D02*
X113674180Y-73577696D01*
X113674180Y-73577696D02*
X113674180Y-73244363D01*
X113674180Y-73244363D02*
X113626561Y-73149125D01*
X113626561Y-73149125D02*
X113578942Y-73101506D01*
X113578942Y-73101506D02*
X113483704Y-73053887D01*
X113483704Y-73053887D02*
X113388466Y-73053887D01*
X113388466Y-73053887D02*
X113293228Y-73101506D01*
X113293228Y-73101506D02*
X113245609Y-73149125D01*
X113245609Y-73149125D02*
X113197990Y-73244363D01*
X113197990Y-73244363D02*
X113197990Y-73577696D01*
X74933133Y-86404220D02*
X74933133Y-85642316D01*
X74552180Y-86023268D02*
X75314085Y-86023268D01*
X75552180Y-84689935D02*
X75552180Y-85166125D01*
X75552180Y-85166125D02*
X75075990Y-85213744D01*
X75075990Y-85213744D02*
X75123609Y-85166125D01*
X75123609Y-85166125D02*
X75171228Y-85070887D01*
X75171228Y-85070887D02*
X75171228Y-84832792D01*
X75171228Y-84832792D02*
X75123609Y-84737554D01*
X75123609Y-84737554D02*
X75075990Y-84689935D01*
X75075990Y-84689935D02*
X74980752Y-84642316D01*
X74980752Y-84642316D02*
X74742657Y-84642316D01*
X74742657Y-84642316D02*
X74647419Y-84689935D01*
X74647419Y-84689935D02*
X74599800Y-84737554D01*
X74599800Y-84737554D02*
X74552180Y-84832792D01*
X74552180Y-84832792D02*
X74552180Y-85070887D01*
X74552180Y-85070887D02*
X74599800Y-85166125D01*
X74599800Y-85166125D02*
X74647419Y-85213744D01*
X75552180Y-84356601D02*
X74552180Y-84023268D01*
X74552180Y-84023268D02*
X75552180Y-83689935D01*
X145789419Y-76180792D02*
X145741800Y-76228411D01*
X145741800Y-76228411D02*
X145694180Y-76371268D01*
X145694180Y-76371268D02*
X145694180Y-76466506D01*
X145694180Y-76466506D02*
X145741800Y-76609363D01*
X145741800Y-76609363D02*
X145837038Y-76704601D01*
X145837038Y-76704601D02*
X145932276Y-76752220D01*
X145932276Y-76752220D02*
X146122752Y-76799839D01*
X146122752Y-76799839D02*
X146265609Y-76799839D01*
X146265609Y-76799839D02*
X146456085Y-76752220D01*
X146456085Y-76752220D02*
X146551323Y-76704601D01*
X146551323Y-76704601D02*
X146646561Y-76609363D01*
X146646561Y-76609363D02*
X146694180Y-76466506D01*
X146694180Y-76466506D02*
X146694180Y-76371268D01*
X146694180Y-76371268D02*
X146646561Y-76228411D01*
X146646561Y-76228411D02*
X146598942Y-76180792D01*
X145694180Y-75276030D02*
X145694180Y-75752220D01*
X145694180Y-75752220D02*
X146694180Y-75752220D01*
X145694180Y-74942696D02*
X146694180Y-74942696D01*
X145694180Y-74371268D02*
X146265609Y-74799839D01*
X146694180Y-74371268D02*
X146122752Y-74942696D01*
X132994180Y-77006220D02*
X133994180Y-77006220D01*
X133994180Y-77006220D02*
X133994180Y-76768125D01*
X133994180Y-76768125D02*
X133946561Y-76625268D01*
X133946561Y-76625268D02*
X133851323Y-76530030D01*
X133851323Y-76530030D02*
X133756085Y-76482411D01*
X133756085Y-76482411D02*
X133565609Y-76434792D01*
X133565609Y-76434792D02*
X133422752Y-76434792D01*
X133422752Y-76434792D02*
X133232276Y-76482411D01*
X133232276Y-76482411D02*
X133137038Y-76530030D01*
X133137038Y-76530030D02*
X133041800Y-76625268D01*
X133041800Y-76625268D02*
X132994180Y-76768125D01*
X132994180Y-76768125D02*
X132994180Y-77006220D01*
X133994180Y-76101458D02*
X133994180Y-75434792D01*
X133994180Y-75434792D02*
X132994180Y-75863363D01*
X118017895Y-85181839D02*
X118017895Y-84705649D01*
X117732180Y-85277077D02*
X118732180Y-84943744D01*
X118732180Y-84943744D02*
X117732180Y-84610411D01*
X118732180Y-84086601D02*
X118732180Y-83991363D01*
X118732180Y-83991363D02*
X118684561Y-83896125D01*
X118684561Y-83896125D02*
X118636942Y-83848506D01*
X118636942Y-83848506D02*
X118541704Y-83800887D01*
X118541704Y-83800887D02*
X118351228Y-83753268D01*
X118351228Y-83753268D02*
X118113133Y-83753268D01*
X118113133Y-83753268D02*
X117922657Y-83800887D01*
X117922657Y-83800887D02*
X117827419Y-83848506D01*
X117827419Y-83848506D02*
X117779800Y-83896125D01*
X117779800Y-83896125D02*
X117732180Y-83991363D01*
X117732180Y-83991363D02*
X117732180Y-84086601D01*
X117732180Y-84086601D02*
X117779800Y-84181839D01*
X117779800Y-84181839D02*
X117827419Y-84229458D01*
X117827419Y-84229458D02*
X117922657Y-84277077D01*
X117922657Y-84277077D02*
X118113133Y-84324696D01*
X118113133Y-84324696D02*
X118351228Y-84324696D01*
X118351228Y-84324696D02*
X118541704Y-84277077D01*
X118541704Y-84277077D02*
X118636942Y-84229458D01*
X118636942Y-84229458D02*
X118684561Y-84181839D01*
X118684561Y-84181839D02*
X118732180Y-84086601D01*
X143417895Y-77053839D02*
X143417895Y-76577649D01*
X143132180Y-77149077D02*
X144132180Y-76815744D01*
X144132180Y-76815744D02*
X143132180Y-76482411D01*
X143132180Y-75625268D02*
X143132180Y-76196696D01*
X143132180Y-75910982D02*
X144132180Y-75910982D01*
X144132180Y-75910982D02*
X143989323Y-76006220D01*
X143989323Y-76006220D02*
X143894085Y-76101458D01*
X143894085Y-76101458D02*
X143846466Y-76196696D01*
X144036942Y-75244315D02*
X144084561Y-75196696D01*
X144084561Y-75196696D02*
X144132180Y-75101458D01*
X144132180Y-75101458D02*
X144132180Y-74863363D01*
X144132180Y-74863363D02*
X144084561Y-74768125D01*
X144084561Y-74768125D02*
X144036942Y-74720506D01*
X144036942Y-74720506D02*
X143941704Y-74672887D01*
X143941704Y-74672887D02*
X143846466Y-74672887D01*
X143846466Y-74672887D02*
X143703609Y-74720506D01*
X143703609Y-74720506D02*
X143132180Y-75291934D01*
X143132180Y-75291934D02*
X143132180Y-74672887D01*
X112652180Y-86658220D02*
X113652180Y-86658220D01*
X112652180Y-85610602D02*
X113128371Y-85943935D01*
X112652180Y-86182030D02*
X113652180Y-86182030D01*
X113652180Y-86182030D02*
X113652180Y-85801078D01*
X113652180Y-85801078D02*
X113604561Y-85705840D01*
X113604561Y-85705840D02*
X113556942Y-85658221D01*
X113556942Y-85658221D02*
X113461704Y-85610602D01*
X113461704Y-85610602D02*
X113318847Y-85610602D01*
X113318847Y-85610602D02*
X113223609Y-85658221D01*
X113223609Y-85658221D02*
X113175990Y-85705840D01*
X113175990Y-85705840D02*
X113128371Y-85801078D01*
X113128371Y-85801078D02*
X113128371Y-86182030D01*
X112556942Y-84515364D02*
X112604561Y-84610602D01*
X112604561Y-84610602D02*
X112699800Y-84705840D01*
X112699800Y-84705840D02*
X112842657Y-84848697D01*
X112842657Y-84848697D02*
X112890276Y-84943935D01*
X112890276Y-84943935D02*
X112890276Y-85039173D01*
X112652180Y-84991554D02*
X112699800Y-85086792D01*
X112699800Y-85086792D02*
X112795038Y-85182030D01*
X112795038Y-85182030D02*
X112985514Y-85229649D01*
X112985514Y-85229649D02*
X113318847Y-85229649D01*
X113318847Y-85229649D02*
X113509323Y-85182030D01*
X113509323Y-85182030D02*
X113604561Y-85086792D01*
X113604561Y-85086792D02*
X113652180Y-84991554D01*
X113652180Y-84991554D02*
X113652180Y-84801078D01*
X113652180Y-84801078D02*
X113604561Y-84705840D01*
X113604561Y-84705840D02*
X113509323Y-84610602D01*
X113509323Y-84610602D02*
X113318847Y-84562983D01*
X113318847Y-84562983D02*
X112985514Y-84562983D01*
X112985514Y-84562983D02*
X112795038Y-84610602D01*
X112795038Y-84610602D02*
X112699800Y-84705840D01*
X112699800Y-84705840D02*
X112652180Y-84801078D01*
X112652180Y-84801078D02*
X112652180Y-84991554D01*
X113175990Y-83801078D02*
X113128371Y-83658221D01*
X113128371Y-83658221D02*
X113080752Y-83610602D01*
X113080752Y-83610602D02*
X112985514Y-83562983D01*
X112985514Y-83562983D02*
X112842657Y-83562983D01*
X112842657Y-83562983D02*
X112747419Y-83610602D01*
X112747419Y-83610602D02*
X112699800Y-83658221D01*
X112699800Y-83658221D02*
X112652180Y-83753459D01*
X112652180Y-83753459D02*
X112652180Y-84134411D01*
X112652180Y-84134411D02*
X113652180Y-84134411D01*
X113652180Y-84134411D02*
X113652180Y-83801078D01*
X113652180Y-83801078D02*
X113604561Y-83705840D01*
X113604561Y-83705840D02*
X113556942Y-83658221D01*
X113556942Y-83658221D02*
X113461704Y-83610602D01*
X113461704Y-83610602D02*
X113366466Y-83610602D01*
X113366466Y-83610602D02*
X113271228Y-83658221D01*
X113271228Y-83658221D02*
X113223609Y-83705840D01*
X113223609Y-83705840D02*
X113175990Y-83801078D01*
X113175990Y-83801078D02*
X113175990Y-84134411D01*
X107594180Y-77260220D02*
X108594180Y-77260220D01*
X108594180Y-77260220D02*
X108594180Y-77022125D01*
X108594180Y-77022125D02*
X108546561Y-76879268D01*
X108546561Y-76879268D02*
X108451323Y-76784030D01*
X108451323Y-76784030D02*
X108356085Y-76736411D01*
X108356085Y-76736411D02*
X108165609Y-76688792D01*
X108165609Y-76688792D02*
X108022752Y-76688792D01*
X108022752Y-76688792D02*
X107832276Y-76736411D01*
X107832276Y-76736411D02*
X107737038Y-76784030D01*
X107737038Y-76784030D02*
X107641800Y-76879268D01*
X107641800Y-76879268D02*
X107594180Y-77022125D01*
X107594180Y-77022125D02*
X107594180Y-77260220D01*
X107594180Y-76260220D02*
X108594180Y-76260220D01*
X108594180Y-76260220D02*
X107879895Y-75926887D01*
X107879895Y-75926887D02*
X108594180Y-75593554D01*
X108594180Y-75593554D02*
X107594180Y-75593554D01*
X107879895Y-75164982D02*
X107879895Y-74688792D01*
X107594180Y-75260220D02*
X108594180Y-74926887D01*
X108594180Y-74926887D02*
X107594180Y-74593554D01*
X108117990Y-73926887D02*
X108070371Y-73784030D01*
X108070371Y-73784030D02*
X108022752Y-73736411D01*
X108022752Y-73736411D02*
X107927514Y-73688792D01*
X107927514Y-73688792D02*
X107784657Y-73688792D01*
X107784657Y-73688792D02*
X107689419Y-73736411D01*
X107689419Y-73736411D02*
X107641800Y-73784030D01*
X107641800Y-73784030D02*
X107594180Y-73879268D01*
X107594180Y-73879268D02*
X107594180Y-74260220D01*
X107594180Y-74260220D02*
X108594180Y-74260220D01*
X108594180Y-74260220D02*
X108594180Y-73926887D01*
X108594180Y-73926887D02*
X108546561Y-73831649D01*
X108546561Y-73831649D02*
X108498942Y-73784030D01*
X108498942Y-73784030D02*
X108403704Y-73736411D01*
X108403704Y-73736411D02*
X108308466Y-73736411D01*
X108308466Y-73736411D02*
X108213228Y-73784030D01*
X108213228Y-73784030D02*
X108165609Y-73831649D01*
X108165609Y-73831649D02*
X108117990Y-73926887D01*
X108117990Y-73926887D02*
X108117990Y-74260220D01*
X105054180Y-77260220D02*
X106054180Y-77260220D01*
X106054180Y-77260220D02*
X105054180Y-76688792D01*
X105054180Y-76688792D02*
X106054180Y-76688792D01*
X105054180Y-76212601D02*
X106054180Y-76212601D01*
X106054180Y-76212601D02*
X105339895Y-75879268D01*
X105339895Y-75879268D02*
X106054180Y-75545935D01*
X106054180Y-75545935D02*
X105054180Y-75545935D01*
X105054180Y-75069744D02*
X106054180Y-75069744D01*
X105577990Y-74260221D02*
X105530371Y-74117364D01*
X105530371Y-74117364D02*
X105482752Y-74069745D01*
X105482752Y-74069745D02*
X105387514Y-74022126D01*
X105387514Y-74022126D02*
X105244657Y-74022126D01*
X105244657Y-74022126D02*
X105149419Y-74069745D01*
X105149419Y-74069745D02*
X105101800Y-74117364D01*
X105101800Y-74117364D02*
X105054180Y-74212602D01*
X105054180Y-74212602D02*
X105054180Y-74593554D01*
X105054180Y-74593554D02*
X106054180Y-74593554D01*
X106054180Y-74593554D02*
X106054180Y-74260221D01*
X106054180Y-74260221D02*
X106006561Y-74164983D01*
X106006561Y-74164983D02*
X105958942Y-74117364D01*
X105958942Y-74117364D02*
X105863704Y-74069745D01*
X105863704Y-74069745D02*
X105768466Y-74069745D01*
X105768466Y-74069745D02*
X105673228Y-74117364D01*
X105673228Y-74117364D02*
X105625609Y-74164983D01*
X105625609Y-74164983D02*
X105577990Y-74260221D01*
X105577990Y-74260221D02*
X105577990Y-74593554D01*
X111064561Y-85753411D02*
X111112180Y-85848649D01*
X111112180Y-85848649D02*
X111112180Y-85991506D01*
X111112180Y-85991506D02*
X111064561Y-86134363D01*
X111064561Y-86134363D02*
X110969323Y-86229601D01*
X110969323Y-86229601D02*
X110874085Y-86277220D01*
X110874085Y-86277220D02*
X110683609Y-86324839D01*
X110683609Y-86324839D02*
X110540752Y-86324839D01*
X110540752Y-86324839D02*
X110350276Y-86277220D01*
X110350276Y-86277220D02*
X110255038Y-86229601D01*
X110255038Y-86229601D02*
X110159800Y-86134363D01*
X110159800Y-86134363D02*
X110112180Y-85991506D01*
X110112180Y-85991506D02*
X110112180Y-85896268D01*
X110112180Y-85896268D02*
X110159800Y-85753411D01*
X110159800Y-85753411D02*
X110207419Y-85705792D01*
X110207419Y-85705792D02*
X110540752Y-85705792D01*
X110540752Y-85705792D02*
X110540752Y-85896268D01*
X110112180Y-85277220D02*
X111112180Y-85277220D01*
X111112180Y-85277220D02*
X110112180Y-84705792D01*
X110112180Y-84705792D02*
X111112180Y-84705792D01*
X110112180Y-84229601D02*
X111112180Y-84229601D01*
X111112180Y-84229601D02*
X111112180Y-83991506D01*
X111112180Y-83991506D02*
X111064561Y-83848649D01*
X111064561Y-83848649D02*
X110969323Y-83753411D01*
X110969323Y-83753411D02*
X110874085Y-83705792D01*
X110874085Y-83705792D02*
X110683609Y-83658173D01*
X110683609Y-83658173D02*
X110540752Y-83658173D01*
X110540752Y-83658173D02*
X110350276Y-83705792D01*
X110350276Y-83705792D02*
X110255038Y-83753411D01*
X110255038Y-83753411D02*
X110159800Y-83848649D01*
X110159800Y-83848649D02*
X110112180Y-83991506D01*
X110112180Y-83991506D02*
X110112180Y-84229601D01*
X107572180Y-86467792D02*
X108048371Y-86801125D01*
X107572180Y-87039220D02*
X108572180Y-87039220D01*
X108572180Y-87039220D02*
X108572180Y-86658268D01*
X108572180Y-86658268D02*
X108524561Y-86563030D01*
X108524561Y-86563030D02*
X108476942Y-86515411D01*
X108476942Y-86515411D02*
X108381704Y-86467792D01*
X108381704Y-86467792D02*
X108238847Y-86467792D01*
X108238847Y-86467792D02*
X108143609Y-86515411D01*
X108143609Y-86515411D02*
X108095990Y-86563030D01*
X108095990Y-86563030D02*
X108048371Y-86658268D01*
X108048371Y-86658268D02*
X108048371Y-87039220D01*
X107857895Y-86086839D02*
X107857895Y-85610649D01*
X107572180Y-86182077D02*
X108572180Y-85848744D01*
X108572180Y-85848744D02*
X107572180Y-85515411D01*
X107572180Y-85182077D02*
X108572180Y-85182077D01*
X108572180Y-85182077D02*
X107857895Y-84848744D01*
X107857895Y-84848744D02*
X108572180Y-84515411D01*
X108572180Y-84515411D02*
X107572180Y-84515411D01*
X108095990Y-83705887D02*
X108048371Y-83563030D01*
X108048371Y-83563030D02*
X108000752Y-83515411D01*
X108000752Y-83515411D02*
X107905514Y-83467792D01*
X107905514Y-83467792D02*
X107762657Y-83467792D01*
X107762657Y-83467792D02*
X107667419Y-83515411D01*
X107667419Y-83515411D02*
X107619800Y-83563030D01*
X107619800Y-83563030D02*
X107572180Y-83658268D01*
X107572180Y-83658268D02*
X107572180Y-84039220D01*
X107572180Y-84039220D02*
X108572180Y-84039220D01*
X108572180Y-84039220D02*
X108572180Y-83705887D01*
X108572180Y-83705887D02*
X108524561Y-83610649D01*
X108524561Y-83610649D02*
X108476942Y-83563030D01*
X108476942Y-83563030D02*
X108381704Y-83515411D01*
X108381704Y-83515411D02*
X108286466Y-83515411D01*
X108286466Y-83515411D02*
X108191228Y-83563030D01*
X108191228Y-83563030D02*
X108143609Y-83610649D01*
X108143609Y-83610649D02*
X108095990Y-83705887D01*
X108095990Y-83705887D02*
X108095990Y-84039220D01*
X148910561Y-85626411D02*
X148958180Y-85721649D01*
X148958180Y-85721649D02*
X148958180Y-85864506D01*
X148958180Y-85864506D02*
X148910561Y-86007363D01*
X148910561Y-86007363D02*
X148815323Y-86102601D01*
X148815323Y-86102601D02*
X148720085Y-86150220D01*
X148720085Y-86150220D02*
X148529609Y-86197839D01*
X148529609Y-86197839D02*
X148386752Y-86197839D01*
X148386752Y-86197839D02*
X148196276Y-86150220D01*
X148196276Y-86150220D02*
X148101038Y-86102601D01*
X148101038Y-86102601D02*
X148005800Y-86007363D01*
X148005800Y-86007363D02*
X147958180Y-85864506D01*
X147958180Y-85864506D02*
X147958180Y-85769268D01*
X147958180Y-85769268D02*
X148005800Y-85626411D01*
X148005800Y-85626411D02*
X148053419Y-85578792D01*
X148053419Y-85578792D02*
X148386752Y-85578792D01*
X148386752Y-85578792D02*
X148386752Y-85769268D01*
X147958180Y-85150220D02*
X148958180Y-85150220D01*
X148958180Y-85150220D02*
X147958180Y-84578792D01*
X147958180Y-84578792D02*
X148958180Y-84578792D01*
X147958180Y-84102601D02*
X148958180Y-84102601D01*
X148958180Y-84102601D02*
X148958180Y-83864506D01*
X148958180Y-83864506D02*
X148910561Y-83721649D01*
X148910561Y-83721649D02*
X148815323Y-83626411D01*
X148815323Y-83626411D02*
X148720085Y-83578792D01*
X148720085Y-83578792D02*
X148529609Y-83531173D01*
X148529609Y-83531173D02*
X148386752Y-83531173D01*
X148386752Y-83531173D02*
X148196276Y-83578792D01*
X148196276Y-83578792D02*
X148101038Y-83626411D01*
X148101038Y-83626411D02*
X148005800Y-83721649D01*
X148005800Y-83721649D02*
X147958180Y-83864506D01*
X147958180Y-83864506D02*
X147958180Y-84102601D01*
X115192180Y-84816792D02*
X115668371Y-85150125D01*
X115192180Y-85388220D02*
X116192180Y-85388220D01*
X116192180Y-85388220D02*
X116192180Y-85007268D01*
X116192180Y-85007268D02*
X116144561Y-84912030D01*
X116144561Y-84912030D02*
X116096942Y-84864411D01*
X116096942Y-84864411D02*
X116001704Y-84816792D01*
X116001704Y-84816792D02*
X115858847Y-84816792D01*
X115858847Y-84816792D02*
X115763609Y-84864411D01*
X115763609Y-84864411D02*
X115715990Y-84912030D01*
X115715990Y-84912030D02*
X115668371Y-85007268D01*
X115668371Y-85007268D02*
X115668371Y-85388220D01*
X116192180Y-84483458D02*
X115192180Y-84245363D01*
X115192180Y-84245363D02*
X115906466Y-84054887D01*
X115906466Y-84054887D02*
X115192180Y-83864411D01*
X115192180Y-83864411D02*
X116192180Y-83626316D01*
X145957895Y-86197839D02*
X145957895Y-85721649D01*
X145672180Y-86293077D02*
X146672180Y-85959744D01*
X146672180Y-85959744D02*
X145672180Y-85626411D01*
X145672180Y-84769268D02*
X145672180Y-85340696D01*
X145672180Y-85054982D02*
X146672180Y-85054982D01*
X146672180Y-85054982D02*
X146529323Y-85150220D01*
X146529323Y-85150220D02*
X146434085Y-85245458D01*
X146434085Y-85245458D02*
X146386466Y-85340696D01*
X145672180Y-83816887D02*
X145672180Y-84388315D01*
X145672180Y-84102601D02*
X146672180Y-84102601D01*
X146672180Y-84102601D02*
X146529323Y-84197839D01*
X146529323Y-84197839D02*
X146434085Y-84293077D01*
X146434085Y-84293077D02*
X146386466Y-84388315D01*
X116586000Y-76454000D02*
X132588000Y-76454000D01*
X136906000Y-76454000D02*
X142748000Y-76454000D01*
X145288000Y-84328000D02*
X119126000Y-84328000D01*
M02*
