M48
; DRILL file {KiCad 7.0.3} date Sun 28 May 2023 09:57:24 PM +08
; FORMAT={-:-/ absolute / inch / decimal}
; #@! TF.CreationDate,2023-05-28T21:57:24+08:00
; #@! TF.GenerationSoftware,Kicad,Pcbnew,7.0.3
; #@! TF.FileFunction,Plated,1,2,PTH
FMAT,2
INCH
; #@! TA.AperFunction,Plated,PTH,ViaDrill
T1C0.0157
; #@! TA.AperFunction,Plated,PTH,ComponentDrill
T2C0.0394
%
G90
G05
T1
X2.95Y-3.4
X4.25Y-3.4
X4.45Y-3.4
X4.55Y-3.4
X4.65Y-3.4
X4.75Y-3.4
X4.85Y-3.4
X4.95Y-3.4
X5.05Y-3.4
X5.15Y-3.4
X5.25Y-3.4
X5.35Y-3.4
X5.45Y-3.4
X5.55Y-3.4
X5.65Y-3.4
X5.75Y-3.4
T2
X2.95Y-3.12
X2.95Y-3.22
X3.05Y-3.12
X3.05Y-3.22
X3.15Y-3.12
X3.15Y-3.22
X3.25Y-3.12
X3.25Y-3.22
X3.35Y-3.12
X3.35Y-3.22
X3.45Y-3.12
X3.45Y-3.22
X3.55Y-3.12
X3.55Y-3.22
X3.65Y-3.12
X3.65Y-3.22
X3.75Y-3.12
X3.75Y-3.22
X3.85Y-3.12
X3.85Y-3.22
X3.95Y-3.12
X3.95Y-3.22
X4.05Y-3.12
X4.05Y-3.22
X4.15Y-3.12
X4.15Y-3.22
X4.25Y-3.12
X4.25Y-3.22
X4.35Y-3.12
X4.35Y-3.22
X4.45Y-3.12
X4.45Y-3.22
X4.55Y-3.12
X4.55Y-3.22
X4.65Y-3.12
X4.65Y-3.22
X4.75Y-3.12
X4.75Y-3.22
X4.85Y-3.12
X4.85Y-3.22
X4.95Y-3.12
X4.95Y-3.22
X5.05Y-3.12
X5.05Y-3.22
X5.15Y-3.12
X5.15Y-3.22
X5.25Y-3.12
X5.25Y-3.22
X5.35Y-3.12
X5.35Y-3.22
X5.45Y-3.12
X5.45Y-3.22
X5.55Y-3.12
X5.55Y-3.22
X5.65Y-3.12
X5.65Y-3.22
X5.75Y-3.12
X5.75Y-3.22
X5.85Y-3.12
X5.85Y-3.22
T0
M30
