%TF.GenerationSoftware,KiCad,Pcbnew,7.0.3*%
%TF.CreationDate,2023-05-28T21:57:32+08:00*%
%TF.ProjectId,CartdrigeProto,43617274-6472-4696-9765-50726f746f2e,rev?*%
%TF.SameCoordinates,Original*%
%TF.FileFunction,Soldermask,Top*%
%TF.FilePolarity,Negative*%
%FSLAX46Y46*%
G04 Gerber Fmt 4.6, Leading zero omitted, Abs format (unit mm)*
G04 Created by KiCad (PCBNEW 7.0.3) date 2023-05-28 21:57:32*
%MOMM*%
%LPD*%
G01*
G04 APERTURE LIST*
%ADD10R,1.780000X7.620000*%
%ADD11R,1.700000X1.700000*%
%ADD12O,1.700000X1.700000*%
G04 APERTURE END LIST*
D10*
%TO.C,J2*%
X148590000Y-91694000D03*
X146050000Y-91694000D03*
X143510000Y-91694000D03*
X140970000Y-91694000D03*
X138430000Y-91694000D03*
X135890000Y-91694000D03*
X133350000Y-91694000D03*
X130810000Y-91694000D03*
X128270000Y-91694000D03*
X125730000Y-91694000D03*
X123190000Y-91694000D03*
X120650000Y-91694000D03*
X118110000Y-91694000D03*
X115570000Y-91694000D03*
X113030000Y-91694000D03*
X110490000Y-91694000D03*
X107950000Y-91694000D03*
X105410000Y-91694000D03*
X102870000Y-91694000D03*
X100330000Y-91694000D03*
X97790000Y-91694000D03*
X95250000Y-91694000D03*
X92710000Y-91694000D03*
X90170000Y-91694000D03*
X87630000Y-91694000D03*
X85090000Y-91694000D03*
X82550000Y-91694000D03*
X80010000Y-91694000D03*
X77470000Y-91694000D03*
X74930000Y-91694000D03*
%TD*%
D11*
%TO.C,J1*%
X148590000Y-81788000D03*
D12*
X148590000Y-79248000D03*
X146050000Y-81788000D03*
X146050000Y-79248000D03*
X143510000Y-81788000D03*
X143510000Y-79248000D03*
X140970000Y-81788000D03*
X140970000Y-79248000D03*
X138430000Y-81788000D03*
X138430000Y-79248000D03*
X135890000Y-81788000D03*
X135890000Y-79248000D03*
X133350000Y-81788000D03*
X133350000Y-79248000D03*
X130810000Y-81788000D03*
X130810000Y-79248000D03*
X128270000Y-81788000D03*
X128270000Y-79248000D03*
X125730000Y-81788000D03*
X125730000Y-79248000D03*
X123190000Y-81788000D03*
X123190000Y-79248000D03*
X120650000Y-81788000D03*
X120650000Y-79248000D03*
X118110000Y-81788000D03*
X118110000Y-79248000D03*
X115570000Y-81788000D03*
X115570000Y-79248000D03*
X113030000Y-81788000D03*
X113030000Y-79248000D03*
X110490000Y-81788000D03*
X110490000Y-79248000D03*
X107950000Y-81788000D03*
X107950000Y-79248000D03*
X105410000Y-81788000D03*
X105410000Y-79248000D03*
X102870000Y-81788000D03*
X102870000Y-79248000D03*
X100330000Y-81788000D03*
X100330000Y-79248000D03*
X97790000Y-81788000D03*
X97790000Y-79248000D03*
X95250000Y-81788000D03*
X95250000Y-79248000D03*
X92710000Y-81788000D03*
X92710000Y-79248000D03*
X90170000Y-81788000D03*
X90170000Y-79248000D03*
X87630000Y-81788000D03*
X87630000Y-79248000D03*
X85090000Y-81788000D03*
X85090000Y-79248000D03*
X82550000Y-81788000D03*
X82550000Y-79248000D03*
X80010000Y-81788000D03*
X80010000Y-79248000D03*
X77470000Y-81788000D03*
X77470000Y-79248000D03*
X74930000Y-81788000D03*
X74930000Y-79248000D03*
%TD*%
M02*
