%TF.GenerationSoftware,KiCad,Pcbnew,7.0.3*%
%TF.CreationDate,2023-05-28T21:57:32+08:00*%
%TF.ProjectId,CartdrigeProto,43617274-6472-4696-9765-50726f746f2e,rev?*%
%TF.SameCoordinates,Original*%
%TF.FileFunction,Copper,L2,Bot*%
%TF.FilePolarity,Positive*%
%FSLAX46Y46*%
G04 Gerber Fmt 4.6, Leading zero omitted, Abs format (unit mm)*
G04 Created by KiCad (PCBNEW 7.0.3) date 2023-05-28 21:57:32*
%MOMM*%
%LPD*%
G01*
G04 APERTURE LIST*
%TA.AperFunction,ConnectorPad*%
%ADD10R,1.780000X7.620000*%
%TD*%
%TA.AperFunction,ComponentPad*%
%ADD11R,1.700000X1.700000*%
%TD*%
%TA.AperFunction,ComponentPad*%
%ADD12O,1.700000X1.700000*%
%TD*%
%TA.AperFunction,ViaPad*%
%ADD13C,0.800000*%
%TD*%
%TA.AperFunction,Conductor*%
%ADD14C,0.500000*%
%TD*%
%TA.AperFunction,Conductor*%
%ADD15C,0.250000*%
%TD*%
G04 APERTURE END LIST*
D10*
%TO.P,J2,1,Pin_1*%
%TO.N,GND*%
X148590000Y-91694000D03*
%TO.P,J2,3,Pin_3*%
%TO.N,/A11*%
X146050000Y-91694000D03*
%TO.P,J2,5,Pin_5*%
%TO.N,/A10*%
X143510000Y-91694000D03*
%TO.P,J2,7,Pin_7*%
%TO.N,/A9*%
X140970000Y-91694000D03*
%TO.P,J2,9,Pin_9*%
%TO.N,/A8*%
X138430000Y-91694000D03*
%TO.P,J2,11,Pin_11*%
%TO.N,/A7*%
X135890000Y-91694000D03*
%TO.P,J2,13,Pin_13*%
%TO.N,/A6*%
X133350000Y-91694000D03*
%TO.P,J2,15,Pin_15*%
%TO.N,/A5*%
X130810000Y-91694000D03*
%TO.P,J2,17,Pin_17*%
%TO.N,/A4*%
X128270000Y-91694000D03*
%TO.P,J2,19,Pin_19*%
%TO.N,/A3*%
X125730000Y-91694000D03*
%TO.P,J2,21,Pin_21*%
%TO.N,/A2*%
X123190000Y-91694000D03*
%TO.P,J2,23,Pin_23*%
%TO.N,/A1*%
X120650000Y-91694000D03*
%TO.P,J2,25,Pin_25*%
%TO.N,/A0*%
X118110000Y-91694000D03*
%TO.P,J2,27,Pin_27*%
%TO.N,/RW*%
X115570000Y-91694000D03*
%TO.P,J2,29,Pin_29*%
%TO.N,/IRQ3B*%
X113030000Y-91694000D03*
%TO.P,J2,31,Pin_31*%
%TO.N,GND*%
X110490000Y-91694000D03*
%TO.P,J2,33,Pin_33*%
%TO.N,/RAMCSB*%
X107950000Y-91694000D03*
%TO.P,J2,35,Pin_35*%
%TO.N,unconnected-(J2-Pin_35-Pad35)*%
X105410000Y-91694000D03*
%TO.P,J2,37,Pin_37*%
%TO.N,unconnected-(J2-Pin_37-Pad37)*%
X102870000Y-91694000D03*
%TO.P,J2,39,Pin_39*%
%TO.N,unconnected-(J2-Pin_39-Pad39)*%
X100330000Y-91694000D03*
%TO.P,J2,41,Pin_41*%
%TO.N,unconnected-(J2-Pin_41-Pad41)*%
X97790000Y-91694000D03*
%TO.P,J2,43,Pin_43*%
%TO.N,unconnected-(J2-Pin_43-Pad43)*%
X95250000Y-91694000D03*
%TO.P,J2,45,Pin_45*%
%TO.N,unconnected-(J2-Pin_45-Pad45)*%
X92710000Y-91694000D03*
%TO.P,J2,47,Pin_47*%
%TO.N,unconnected-(J2-Pin_47-Pad47)*%
X90170000Y-91694000D03*
%TO.P,J2,49,Pin_49*%
%TO.N,unconnected-(J2-Pin_49-Pad49)*%
X87630000Y-91694000D03*
%TO.P,J2,51,Pin_51*%
%TO.N,unconnected-(J2-Pin_51-Pad51)*%
X85090000Y-91694000D03*
%TO.P,J2,53,Pin_53*%
%TO.N,unconnected-(J2-Pin_53-Pad53)*%
X82550000Y-91694000D03*
%TO.P,J2,55,Pin_55*%
%TO.N,unconnected-(J2-Pin_55-Pad55)*%
X80010000Y-91694000D03*
%TO.P,J2,57,Pin_57*%
%TO.N,unconnected-(J2-Pin_57-Pad57)*%
X77470000Y-91694000D03*
%TO.P,J2,59,Pin_59*%
%TO.N,+5V*%
X74930000Y-91694000D03*
%TD*%
D11*
%TO.P,J1,1,Pin_1*%
%TO.N,GND*%
X148590000Y-81788000D03*
D12*
%TO.P,J1,2,Pin_2*%
%TO.N,+5V*%
X148590000Y-79248000D03*
%TO.P,J1,3,Pin_3*%
%TO.N,/A11*%
X146050000Y-81788000D03*
%TO.P,J1,4,Pin_4*%
%TO.N,/CLOCK*%
X146050000Y-79248000D03*
%TO.P,J1,5,Pin_5*%
%TO.N,/A10*%
X143510000Y-81788000D03*
%TO.P,J1,6,Pin_6*%
%TO.N,/A12*%
X143510000Y-79248000D03*
%TO.P,J1,7,Pin_7*%
%TO.N,/A9*%
X140970000Y-81788000D03*
%TO.P,J1,8,Pin_8*%
%TO.N,/A13*%
X140970000Y-79248000D03*
%TO.P,J1,9,Pin_9*%
%TO.N,/A8*%
X138430000Y-81788000D03*
%TO.P,J1,10,Pin_10*%
%TO.N,/A14*%
X138430000Y-79248000D03*
%TO.P,J1,11,Pin_11*%
%TO.N,/A7*%
X135890000Y-81788000D03*
%TO.P,J1,12,Pin_12*%
%TO.N,/A15*%
X135890000Y-79248000D03*
%TO.P,J1,13,Pin_13*%
%TO.N,/A6*%
X133350000Y-81788000D03*
%TO.P,J1,14,Pin_14*%
%TO.N,/D7*%
X133350000Y-79248000D03*
%TO.P,J1,15,Pin_15*%
%TO.N,/A5*%
X130810000Y-81788000D03*
%TO.P,J1,16,Pin_16*%
%TO.N,/D6*%
X130810000Y-79248000D03*
%TO.P,J1,17,Pin_17*%
%TO.N,/A4*%
X128270000Y-81788000D03*
%TO.P,J1,18,Pin_18*%
%TO.N,/D5*%
X128270000Y-79248000D03*
%TO.P,J1,19,Pin_19*%
%TO.N,/A3*%
X125730000Y-81788000D03*
%TO.P,J1,20,Pin_20*%
%TO.N,/D4*%
X125730000Y-79248000D03*
%TO.P,J1,21,Pin_21*%
%TO.N,/A2*%
X123190000Y-81788000D03*
%TO.P,J1,22,Pin_22*%
%TO.N,/D3*%
X123190000Y-79248000D03*
%TO.P,J1,23,Pin_23*%
%TO.N,/A1*%
X120650000Y-81788000D03*
%TO.P,J1,24,Pin_24*%
%TO.N,/D2*%
X120650000Y-79248000D03*
%TO.P,J1,25,Pin_25*%
%TO.N,/A0*%
X118110000Y-81788000D03*
%TO.P,J1,26,Pin_26*%
%TO.N,/D1*%
X118110000Y-79248000D03*
%TO.P,J1,27,Pin_27*%
%TO.N,/RW*%
X115570000Y-81788000D03*
%TO.P,J1,28,Pin_28*%
%TO.N,/D0*%
X115570000Y-79248000D03*
%TO.P,J1,29,Pin_29*%
%TO.N,/IRQ3B*%
X113030000Y-81788000D03*
%TO.P,J1,30,Pin_30*%
%TO.N,/PORT1CSB*%
X113030000Y-79248000D03*
%TO.P,J1,31,Pin_31*%
%TO.N,GND*%
X110490000Y-81788000D03*
%TO.P,J1,32,Pin_32*%
%TO.N,/RESET*%
X110490000Y-79248000D03*
%TO.P,J1,33,Pin_33*%
%TO.N,/RAMCSB*%
X107950000Y-81788000D03*
%TO.P,J1,34,Pin_34*%
%TO.N,/DMAB*%
X107950000Y-79248000D03*
%TO.P,J1,35,Pin_35*%
%TO.N,unconnected-(J1-Pin_35-Pad35)*%
X105410000Y-81788000D03*
%TO.P,J1,36,Pin_36*%
%TO.N,/NMIB*%
X105410000Y-79248000D03*
%TO.P,J1,37,Pin_37*%
%TO.N,unconnected-(J1-Pin_37-Pad37)*%
X102870000Y-81788000D03*
%TO.P,J1,38,Pin_38*%
%TO.N,unconnected-(J1-Pin_38-Pad38)*%
X102870000Y-79248000D03*
%TO.P,J1,39,Pin_39*%
%TO.N,unconnected-(J1-Pin_39-Pad39)*%
X100330000Y-81788000D03*
%TO.P,J1,40,Pin_40*%
%TO.N,unconnected-(J1-Pin_40-Pad40)*%
X100330000Y-79248000D03*
%TO.P,J1,41,Pin_41*%
%TO.N,unconnected-(J1-Pin_41-Pad41)*%
X97790000Y-81788000D03*
%TO.P,J1,42,Pin_42*%
%TO.N,unconnected-(J1-Pin_42-Pad42)*%
X97790000Y-79248000D03*
%TO.P,J1,43,Pin_43*%
%TO.N,unconnected-(J1-Pin_43-Pad43)*%
X95250000Y-81788000D03*
%TO.P,J1,44,Pin_44*%
%TO.N,unconnected-(J1-Pin_44-Pad44)*%
X95250000Y-79248000D03*
%TO.P,J1,45,Pin_45*%
%TO.N,unconnected-(J1-Pin_45-Pad45)*%
X92710000Y-81788000D03*
%TO.P,J1,46,Pin_46*%
%TO.N,unconnected-(J1-Pin_46-Pad46)*%
X92710000Y-79248000D03*
%TO.P,J1,47,Pin_47*%
%TO.N,unconnected-(J1-Pin_47-Pad47)*%
X90170000Y-81788000D03*
%TO.P,J1,48,Pin_48*%
%TO.N,unconnected-(J1-Pin_48-Pad48)*%
X90170000Y-79248000D03*
%TO.P,J1,49,Pin_49*%
%TO.N,unconnected-(J1-Pin_49-Pad49)*%
X87630000Y-81788000D03*
%TO.P,J1,50,Pin_50*%
%TO.N,unconnected-(J1-Pin_50-Pad50)*%
X87630000Y-79248000D03*
%TO.P,J1,51,Pin_51*%
%TO.N,unconnected-(J1-Pin_51-Pad51)*%
X85090000Y-81788000D03*
%TO.P,J1,52,Pin_52*%
%TO.N,unconnected-(J1-Pin_52-Pad52)*%
X85090000Y-79248000D03*
%TO.P,J1,53,Pin_53*%
%TO.N,unconnected-(J1-Pin_53-Pad53)*%
X82550000Y-81788000D03*
%TO.P,J1,54,Pin_54*%
%TO.N,unconnected-(J1-Pin_54-Pad54)*%
X82550000Y-79248000D03*
%TO.P,J1,55,Pin_55*%
%TO.N,unconnected-(J1-Pin_55-Pad55)*%
X80010000Y-81788000D03*
%TO.P,J1,56,Pin_56*%
%TO.N,unconnected-(J1-Pin_56-Pad56)*%
X80010000Y-79248000D03*
%TO.P,J1,57,Pin_57*%
%TO.N,unconnected-(J1-Pin_57-Pad57)*%
X77470000Y-81788000D03*
%TO.P,J1,58,Pin_58*%
%TO.N,unconnected-(J1-Pin_58-Pad58)*%
X77470000Y-79248000D03*
%TO.P,J1,59,Pin_59*%
%TO.N,+5V*%
X74930000Y-81788000D03*
%TO.P,J1,60,Pin_60*%
%TO.N,unconnected-(J1-Pin_60-Pad60)*%
X74930000Y-79248000D03*
%TD*%
D13*
%TO.N,+5V*%
X74930000Y-86360000D03*
%TO.N,/A8*%
X138430000Y-86360000D03*
%TO.N,/A9*%
X140970000Y-86360000D03*
%TO.N,/A11*%
X146050000Y-86360000D03*
%TO.N,/A10*%
X143510000Y-86360000D03*
%TO.N,/A0*%
X118110000Y-86360000D03*
%TO.N,/A1*%
X120650000Y-86360000D03*
%TO.N,/A2*%
X123190000Y-86360000D03*
%TO.N,/A3*%
X125730000Y-86360000D03*
%TO.N,/A4*%
X128270000Y-86360000D03*
%TO.N,/A5*%
X130810000Y-86360000D03*
%TO.N,/A6*%
X133350000Y-86360000D03*
%TO.N,/A7*%
X135890000Y-86360000D03*
%TO.N,/RW*%
X115570000Y-86360000D03*
%TO.N,/IRQ3B*%
X113030000Y-86360000D03*
%TO.N,/RAMCSB*%
X107950000Y-86360000D03*
%TD*%
D14*
%TO.N,+5V*%
X74930000Y-91694000D02*
X74930000Y-86360000D01*
D15*
%TO.N,/A8*%
X138430000Y-91694000D02*
X138430000Y-86360000D01*
%TO.N,/A9*%
X140970000Y-91694000D02*
X140970000Y-86360000D01*
%TO.N,/A11*%
X146050000Y-91694000D02*
X146050000Y-86360000D01*
%TO.N,/A10*%
X143510000Y-91694000D02*
X143510000Y-86360000D01*
%TO.N,/A0*%
X118110000Y-91694000D02*
X118110000Y-86360000D01*
%TO.N,/A1*%
X120650000Y-91694000D02*
X120650000Y-86360000D01*
%TO.N,/A2*%
X123190000Y-91694000D02*
X123190000Y-86360000D01*
%TO.N,/A3*%
X125730000Y-91694000D02*
X125730000Y-86360000D01*
%TO.N,/A4*%
X128270000Y-91694000D02*
X128270000Y-86360000D01*
%TO.N,/A5*%
X130810000Y-91694000D02*
X130810000Y-86360000D01*
%TO.N,/A6*%
X133350000Y-91694000D02*
X133350000Y-86360000D01*
%TO.N,/A7*%
X135890000Y-91694000D02*
X135890000Y-86360000D01*
%TO.N,/RW*%
X115570000Y-91694000D02*
X115570000Y-86360000D01*
%TO.N,/IRQ3B*%
X113030000Y-91694000D02*
X113030000Y-86360000D01*
%TO.N,/RAMCSB*%
X107950000Y-91694000D02*
X107950000Y-86360000D01*
%TD*%
%TA.AperFunction,Conductor*%
%TO.N,GND*%
G36*
X149117814Y-72136598D02*
G01*
X149227584Y-72142757D01*
X149404127Y-72153455D01*
X149410833Y-72154226D01*
X149542675Y-72176620D01*
X149695741Y-72204663D01*
X149701779Y-72206082D01*
X149835364Y-72244561D01*
X149836471Y-72244894D01*
X149979354Y-72289412D01*
X149984712Y-72291352D01*
X150030329Y-72310244D01*
X150115204Y-72345397D01*
X150116827Y-72346099D01*
X150251203Y-72406571D01*
X150255780Y-72408861D01*
X150380382Y-72477722D01*
X150382477Y-72478934D01*
X150384671Y-72480260D01*
X150507565Y-72554548D01*
X150511391Y-72557057D01*
X150627979Y-72639777D01*
X150630364Y-72641556D01*
X150744999Y-72731364D01*
X150748090Y-72733951D01*
X150817982Y-72796408D01*
X150854861Y-72829365D01*
X150857429Y-72831793D01*
X150960270Y-72934632D01*
X150962698Y-72937200D01*
X151058107Y-73043960D01*
X151060700Y-73047056D01*
X151139418Y-73147532D01*
X151150514Y-73161696D01*
X151152301Y-73164093D01*
X151234996Y-73280639D01*
X151237531Y-73284505D01*
X151313138Y-73409575D01*
X151314363Y-73411694D01*
X151383203Y-73536255D01*
X151385515Y-73540875D01*
X151445957Y-73675175D01*
X151446711Y-73676922D01*
X151500726Y-73807329D01*
X151502670Y-73812699D01*
X151547182Y-73955552D01*
X151547572Y-73956855D01*
X151585995Y-74090236D01*
X151587426Y-74096324D01*
X151615486Y-74249465D01*
X151636220Y-74371515D01*
X151638000Y-74392618D01*
X151638000Y-86283574D01*
X151637691Y-86487691D01*
X151617586Y-86555781D01*
X151563860Y-86602193D01*
X151511691Y-86613500D01*
X151155158Y-86613500D01*
X151154952Y-86613459D01*
X151129996Y-86613459D01*
X151129798Y-86613541D01*
X151129620Y-86613614D01*
X151129617Y-86613617D01*
X151129459Y-86614000D01*
X151129476Y-86639014D01*
X151129471Y-86639014D01*
X151129500Y-86639157D01*
X151129500Y-95631500D01*
X151109498Y-95699621D01*
X151055842Y-95746114D01*
X151003500Y-95757500D01*
X150106242Y-95757500D01*
X150038121Y-95737498D01*
X149991628Y-95683842D01*
X149980964Y-95618030D01*
X149987999Y-95552597D01*
X149988000Y-95552585D01*
X149988000Y-91948000D01*
X148462000Y-91948000D01*
X148393879Y-91927998D01*
X148347386Y-91874342D01*
X148336000Y-91822000D01*
X148336000Y-87376000D01*
X148844000Y-87376000D01*
X148844000Y-91440000D01*
X149988000Y-91440000D01*
X149988000Y-87835414D01*
X149987999Y-87835402D01*
X149981494Y-87774906D01*
X149930444Y-87638035D01*
X149930444Y-87638034D01*
X149842904Y-87521095D01*
X149725965Y-87433555D01*
X149589093Y-87382505D01*
X149528597Y-87376000D01*
X148844000Y-87376000D01*
X148336000Y-87376000D01*
X147651402Y-87376000D01*
X147590906Y-87382505D01*
X147454035Y-87433555D01*
X147395924Y-87477056D01*
X147329403Y-87501866D01*
X147260029Y-87486774D01*
X147244907Y-87477055D01*
X147186207Y-87433112D01*
X147186202Y-87433110D01*
X147049204Y-87382011D01*
X147049196Y-87382009D01*
X146988649Y-87375500D01*
X146988638Y-87375500D01*
X146809500Y-87375500D01*
X146741379Y-87355498D01*
X146694886Y-87301842D01*
X146683500Y-87249500D01*
X146683500Y-87062524D01*
X146703502Y-86994403D01*
X146715858Y-86978220D01*
X146789040Y-86896944D01*
X146884527Y-86731556D01*
X146943542Y-86549928D01*
X146963504Y-86360000D01*
X146943542Y-86170072D01*
X146884527Y-85988444D01*
X146789040Y-85823056D01*
X146789038Y-85823054D01*
X146789034Y-85823048D01*
X146661255Y-85681135D01*
X146506752Y-85568882D01*
X146332288Y-85491206D01*
X146145487Y-85451500D01*
X145954513Y-85451500D01*
X145767711Y-85491206D01*
X145593247Y-85568882D01*
X145438744Y-85681135D01*
X145310965Y-85823048D01*
X145310958Y-85823058D01*
X145215476Y-85988438D01*
X145215473Y-85988445D01*
X145156457Y-86170072D01*
X145136496Y-86360000D01*
X145156457Y-86549927D01*
X145177401Y-86614383D01*
X145215473Y-86731556D01*
X145310960Y-86896944D01*
X145384136Y-86978214D01*
X145414853Y-87042220D01*
X145416500Y-87062524D01*
X145416500Y-87249500D01*
X145396498Y-87317621D01*
X145342842Y-87364114D01*
X145290500Y-87375500D01*
X145111350Y-87375500D01*
X145050803Y-87382009D01*
X145050795Y-87382011D01*
X144913797Y-87433110D01*
X144855509Y-87476744D01*
X144788988Y-87501554D01*
X144719614Y-87486462D01*
X144704491Y-87476744D01*
X144686900Y-87463575D01*
X144646204Y-87433111D01*
X144646202Y-87433110D01*
X144509204Y-87382011D01*
X144509196Y-87382009D01*
X144448649Y-87375500D01*
X144448638Y-87375500D01*
X144269500Y-87375500D01*
X144201379Y-87355498D01*
X144154886Y-87301842D01*
X144143500Y-87249500D01*
X144143500Y-87062524D01*
X144163502Y-86994403D01*
X144175858Y-86978220D01*
X144249040Y-86896944D01*
X144344527Y-86731556D01*
X144403542Y-86549928D01*
X144423504Y-86360000D01*
X144403542Y-86170072D01*
X144344527Y-85988444D01*
X144249040Y-85823056D01*
X144249038Y-85823054D01*
X144249034Y-85823048D01*
X144121255Y-85681135D01*
X143966752Y-85568882D01*
X143792288Y-85491206D01*
X143605487Y-85451500D01*
X143414513Y-85451500D01*
X143227711Y-85491206D01*
X143053247Y-85568882D01*
X142898744Y-85681135D01*
X142770965Y-85823048D01*
X142770958Y-85823058D01*
X142675476Y-85988438D01*
X142675473Y-85988445D01*
X142616457Y-86170072D01*
X142596496Y-86360000D01*
X142616457Y-86549927D01*
X142637401Y-86614383D01*
X142675473Y-86731556D01*
X142770960Y-86896944D01*
X142844136Y-86978214D01*
X142874853Y-87042220D01*
X142876500Y-87062524D01*
X142876500Y-87249500D01*
X142856498Y-87317621D01*
X142802842Y-87364114D01*
X142750500Y-87375500D01*
X142571350Y-87375500D01*
X142510803Y-87382009D01*
X142510795Y-87382011D01*
X142373797Y-87433110D01*
X142315509Y-87476744D01*
X142248988Y-87501554D01*
X142179614Y-87486462D01*
X142164491Y-87476744D01*
X142146900Y-87463575D01*
X142106204Y-87433111D01*
X142106202Y-87433110D01*
X141969204Y-87382011D01*
X141969196Y-87382009D01*
X141908649Y-87375500D01*
X141908638Y-87375500D01*
X141729500Y-87375500D01*
X141661379Y-87355498D01*
X141614886Y-87301842D01*
X141603500Y-87249500D01*
X141603500Y-87062524D01*
X141623502Y-86994403D01*
X141635858Y-86978220D01*
X141709040Y-86896944D01*
X141804527Y-86731556D01*
X141863542Y-86549928D01*
X141883504Y-86360000D01*
X141863542Y-86170072D01*
X141804527Y-85988444D01*
X141709040Y-85823056D01*
X141709038Y-85823054D01*
X141709034Y-85823048D01*
X141581255Y-85681135D01*
X141426752Y-85568882D01*
X141252288Y-85491206D01*
X141065487Y-85451500D01*
X140874513Y-85451500D01*
X140687711Y-85491206D01*
X140513247Y-85568882D01*
X140358744Y-85681135D01*
X140230965Y-85823048D01*
X140230958Y-85823058D01*
X140135476Y-85988438D01*
X140135473Y-85988445D01*
X140076457Y-86170072D01*
X140056496Y-86360000D01*
X140076457Y-86549927D01*
X140097401Y-86614383D01*
X140135473Y-86731556D01*
X140230960Y-86896944D01*
X140304136Y-86978214D01*
X140334853Y-87042220D01*
X140336500Y-87062524D01*
X140336500Y-87249500D01*
X140316498Y-87317621D01*
X140262842Y-87364114D01*
X140210500Y-87375500D01*
X140031350Y-87375500D01*
X139970803Y-87382009D01*
X139970795Y-87382011D01*
X139833797Y-87433110D01*
X139775509Y-87476744D01*
X139708988Y-87501554D01*
X139639614Y-87486462D01*
X139624491Y-87476744D01*
X139606900Y-87463575D01*
X139566204Y-87433111D01*
X139566202Y-87433110D01*
X139429204Y-87382011D01*
X139429196Y-87382009D01*
X139368649Y-87375500D01*
X139368638Y-87375500D01*
X139189500Y-87375500D01*
X139121379Y-87355498D01*
X139074886Y-87301842D01*
X139063500Y-87249500D01*
X139063500Y-87062524D01*
X139083502Y-86994403D01*
X139095858Y-86978220D01*
X139169040Y-86896944D01*
X139264527Y-86731556D01*
X139323542Y-86549928D01*
X139343504Y-86360000D01*
X139323542Y-86170072D01*
X139264527Y-85988444D01*
X139169040Y-85823056D01*
X139169038Y-85823054D01*
X139169034Y-85823048D01*
X139041255Y-85681135D01*
X138886752Y-85568882D01*
X138712288Y-85491206D01*
X138525487Y-85451500D01*
X138334513Y-85451500D01*
X138147711Y-85491206D01*
X137973247Y-85568882D01*
X137818744Y-85681135D01*
X137690965Y-85823048D01*
X137690958Y-85823058D01*
X137595476Y-85988438D01*
X137595473Y-85988445D01*
X137536457Y-86170072D01*
X137516496Y-86360000D01*
X137536457Y-86549927D01*
X137557401Y-86614383D01*
X137595473Y-86731556D01*
X137690960Y-86896944D01*
X137764136Y-86978214D01*
X137794853Y-87042220D01*
X137796500Y-87062524D01*
X137796500Y-87249500D01*
X137776498Y-87317621D01*
X137722842Y-87364114D01*
X137670500Y-87375500D01*
X137491350Y-87375500D01*
X137430803Y-87382009D01*
X137430795Y-87382011D01*
X137293797Y-87433110D01*
X137235509Y-87476744D01*
X137168988Y-87501554D01*
X137099614Y-87486462D01*
X137084491Y-87476744D01*
X137066900Y-87463575D01*
X137026204Y-87433111D01*
X137026202Y-87433110D01*
X136889204Y-87382011D01*
X136889196Y-87382009D01*
X136828649Y-87375500D01*
X136828638Y-87375500D01*
X136649500Y-87375500D01*
X136581379Y-87355498D01*
X136534886Y-87301842D01*
X136523500Y-87249500D01*
X136523500Y-87062524D01*
X136543502Y-86994403D01*
X136555858Y-86978220D01*
X136629040Y-86896944D01*
X136724527Y-86731556D01*
X136783542Y-86549928D01*
X136803504Y-86360000D01*
X136783542Y-86170072D01*
X136724527Y-85988444D01*
X136629040Y-85823056D01*
X136629038Y-85823054D01*
X136629034Y-85823048D01*
X136501255Y-85681135D01*
X136346752Y-85568882D01*
X136172288Y-85491206D01*
X135985487Y-85451500D01*
X135794513Y-85451500D01*
X135607711Y-85491206D01*
X135433247Y-85568882D01*
X135278744Y-85681135D01*
X135150965Y-85823048D01*
X135150958Y-85823058D01*
X135055476Y-85988438D01*
X135055473Y-85988445D01*
X134996457Y-86170072D01*
X134976496Y-86360000D01*
X134996457Y-86549927D01*
X135017401Y-86614383D01*
X135055473Y-86731556D01*
X135150960Y-86896944D01*
X135224136Y-86978214D01*
X135254853Y-87042220D01*
X135256500Y-87062524D01*
X135256500Y-87249500D01*
X135236498Y-87317621D01*
X135182842Y-87364114D01*
X135130500Y-87375500D01*
X134951350Y-87375500D01*
X134890803Y-87382009D01*
X134890795Y-87382011D01*
X134753797Y-87433110D01*
X134695509Y-87476744D01*
X134628988Y-87501554D01*
X134559614Y-87486462D01*
X134544491Y-87476744D01*
X134526900Y-87463575D01*
X134486204Y-87433111D01*
X134486202Y-87433110D01*
X134349204Y-87382011D01*
X134349196Y-87382009D01*
X134288649Y-87375500D01*
X134288638Y-87375500D01*
X134109500Y-87375500D01*
X134041379Y-87355498D01*
X133994886Y-87301842D01*
X133983500Y-87249500D01*
X133983500Y-87062524D01*
X134003502Y-86994403D01*
X134015858Y-86978220D01*
X134089040Y-86896944D01*
X134184527Y-86731556D01*
X134243542Y-86549928D01*
X134263504Y-86360000D01*
X134243542Y-86170072D01*
X134184527Y-85988444D01*
X134089040Y-85823056D01*
X134089038Y-85823054D01*
X134089034Y-85823048D01*
X133961255Y-85681135D01*
X133806752Y-85568882D01*
X133632288Y-85491206D01*
X133445487Y-85451500D01*
X133254513Y-85451500D01*
X133067711Y-85491206D01*
X132893247Y-85568882D01*
X132738744Y-85681135D01*
X132610965Y-85823048D01*
X132610958Y-85823058D01*
X132515476Y-85988438D01*
X132515473Y-85988445D01*
X132456457Y-86170072D01*
X132436496Y-86360000D01*
X132456457Y-86549927D01*
X132477401Y-86614383D01*
X132515473Y-86731556D01*
X132610960Y-86896944D01*
X132684136Y-86978214D01*
X132714853Y-87042220D01*
X132716500Y-87062524D01*
X132716500Y-87249500D01*
X132696498Y-87317621D01*
X132642842Y-87364114D01*
X132590500Y-87375500D01*
X132411350Y-87375500D01*
X132350803Y-87382009D01*
X132350795Y-87382011D01*
X132213797Y-87433110D01*
X132213793Y-87433112D01*
X132155507Y-87476744D01*
X132088986Y-87501554D01*
X132019612Y-87486462D01*
X132004490Y-87476743D01*
X131946207Y-87433112D01*
X131946202Y-87433110D01*
X131809204Y-87382011D01*
X131809196Y-87382009D01*
X131748649Y-87375500D01*
X131748638Y-87375500D01*
X131569500Y-87375500D01*
X131501379Y-87355498D01*
X131454886Y-87301842D01*
X131443500Y-87249500D01*
X131443500Y-87062524D01*
X131463502Y-86994403D01*
X131475858Y-86978220D01*
X131549040Y-86896944D01*
X131644527Y-86731556D01*
X131703542Y-86549928D01*
X131723504Y-86360000D01*
X131703542Y-86170072D01*
X131644527Y-85988444D01*
X131549040Y-85823056D01*
X131549038Y-85823054D01*
X131549034Y-85823048D01*
X131421255Y-85681135D01*
X131266752Y-85568882D01*
X131092288Y-85491206D01*
X130905487Y-85451500D01*
X130714513Y-85451500D01*
X130527711Y-85491206D01*
X130353247Y-85568882D01*
X130198744Y-85681135D01*
X130070965Y-85823048D01*
X130070958Y-85823058D01*
X129975476Y-85988438D01*
X129975473Y-85988445D01*
X129916457Y-86170072D01*
X129896496Y-86360000D01*
X129916457Y-86549927D01*
X129937401Y-86614383D01*
X129975473Y-86731556D01*
X129975476Y-86731561D01*
X130070958Y-86896941D01*
X130070965Y-86896951D01*
X130144135Y-86978214D01*
X130174853Y-87042221D01*
X130176499Y-87062523D01*
X130176500Y-87249499D01*
X130156498Y-87317620D01*
X130102843Y-87364113D01*
X130050500Y-87375500D01*
X129871350Y-87375500D01*
X129810803Y-87382009D01*
X129810795Y-87382011D01*
X129673797Y-87433110D01*
X129615509Y-87476744D01*
X129548988Y-87501554D01*
X129479614Y-87486462D01*
X129464491Y-87476744D01*
X129446900Y-87463575D01*
X129406204Y-87433111D01*
X129406202Y-87433110D01*
X129269204Y-87382011D01*
X129269196Y-87382009D01*
X129208649Y-87375500D01*
X129208638Y-87375500D01*
X129029500Y-87375500D01*
X128961379Y-87355498D01*
X128914886Y-87301842D01*
X128903500Y-87249501D01*
X128903500Y-87249499D01*
X128903500Y-87062521D01*
X128923501Y-86994404D01*
X128935853Y-86978226D01*
X129009040Y-86896944D01*
X129104527Y-86731556D01*
X129163542Y-86549928D01*
X129183504Y-86360000D01*
X129163542Y-86170072D01*
X129104527Y-85988444D01*
X129009040Y-85823056D01*
X129009038Y-85823054D01*
X129009034Y-85823048D01*
X128881255Y-85681135D01*
X128726752Y-85568882D01*
X128552288Y-85491206D01*
X128365487Y-85451500D01*
X128174513Y-85451500D01*
X127987711Y-85491206D01*
X127813247Y-85568882D01*
X127658744Y-85681135D01*
X127530965Y-85823048D01*
X127530958Y-85823058D01*
X127435476Y-85988438D01*
X127435473Y-85988445D01*
X127376457Y-86170072D01*
X127356496Y-86359999D01*
X127376457Y-86549927D01*
X127397401Y-86614383D01*
X127435473Y-86731556D01*
X127530960Y-86896944D01*
X127604136Y-86978214D01*
X127634853Y-87042220D01*
X127636500Y-87062524D01*
X127636500Y-87249500D01*
X127616498Y-87317621D01*
X127562842Y-87364114D01*
X127510500Y-87375500D01*
X127331350Y-87375500D01*
X127270803Y-87382009D01*
X127270795Y-87382011D01*
X127133797Y-87433110D01*
X127075509Y-87476744D01*
X127008988Y-87501554D01*
X126939614Y-87486462D01*
X126924491Y-87476744D01*
X126906900Y-87463575D01*
X126866204Y-87433111D01*
X126866202Y-87433110D01*
X126729204Y-87382011D01*
X126729196Y-87382009D01*
X126668649Y-87375500D01*
X126668638Y-87375500D01*
X126489500Y-87375500D01*
X126421379Y-87355498D01*
X126374886Y-87301842D01*
X126363500Y-87249500D01*
X126363500Y-87062524D01*
X126383502Y-86994403D01*
X126395858Y-86978220D01*
X126469040Y-86896944D01*
X126564527Y-86731556D01*
X126623542Y-86549928D01*
X126643504Y-86360000D01*
X126623542Y-86170072D01*
X126564527Y-85988444D01*
X126469040Y-85823056D01*
X126469038Y-85823054D01*
X126469034Y-85823048D01*
X126341255Y-85681135D01*
X126186752Y-85568882D01*
X126012288Y-85491206D01*
X125825487Y-85451500D01*
X125634513Y-85451500D01*
X125447711Y-85491206D01*
X125273247Y-85568882D01*
X125118744Y-85681135D01*
X124990965Y-85823048D01*
X124990958Y-85823058D01*
X124895476Y-85988438D01*
X124895473Y-85988445D01*
X124836457Y-86170072D01*
X124816496Y-86359999D01*
X124836457Y-86549927D01*
X124857401Y-86614383D01*
X124895473Y-86731556D01*
X124895476Y-86731561D01*
X124990958Y-86896941D01*
X124990965Y-86896951D01*
X125064135Y-86978214D01*
X125094853Y-87042221D01*
X125096499Y-87062523D01*
X125096500Y-87249499D01*
X125076498Y-87317620D01*
X125022843Y-87364113D01*
X124970500Y-87375500D01*
X124791350Y-87375500D01*
X124730803Y-87382009D01*
X124730795Y-87382011D01*
X124593797Y-87433110D01*
X124535509Y-87476744D01*
X124468988Y-87501554D01*
X124399614Y-87486462D01*
X124384491Y-87476744D01*
X124366900Y-87463575D01*
X124326204Y-87433111D01*
X124326202Y-87433110D01*
X124189204Y-87382011D01*
X124189196Y-87382009D01*
X124128649Y-87375500D01*
X124128638Y-87375500D01*
X123949500Y-87375500D01*
X123881379Y-87355498D01*
X123834886Y-87301842D01*
X123823500Y-87249501D01*
X123823499Y-87062526D01*
X123843501Y-86994405D01*
X123855863Y-86978214D01*
X123855865Y-86978212D01*
X123929040Y-86896944D01*
X124024527Y-86731556D01*
X124083542Y-86549928D01*
X124103504Y-86360000D01*
X124083542Y-86170072D01*
X124024527Y-85988444D01*
X123929040Y-85823056D01*
X123929038Y-85823054D01*
X123929034Y-85823048D01*
X123801255Y-85681135D01*
X123646752Y-85568882D01*
X123472288Y-85491206D01*
X123285487Y-85451500D01*
X123094513Y-85451500D01*
X122907711Y-85491206D01*
X122733247Y-85568882D01*
X122578744Y-85681135D01*
X122450965Y-85823048D01*
X122450958Y-85823058D01*
X122355476Y-85988438D01*
X122355473Y-85988445D01*
X122296457Y-86170072D01*
X122276496Y-86359999D01*
X122296457Y-86549927D01*
X122317401Y-86614383D01*
X122355473Y-86731556D01*
X122450960Y-86896944D01*
X122524136Y-86978214D01*
X122554853Y-87042220D01*
X122556500Y-87062524D01*
X122556500Y-87249500D01*
X122536498Y-87317621D01*
X122482842Y-87364114D01*
X122430500Y-87375500D01*
X122251350Y-87375500D01*
X122190803Y-87382009D01*
X122190795Y-87382011D01*
X122053797Y-87433110D01*
X121995509Y-87476744D01*
X121928988Y-87501554D01*
X121859614Y-87486462D01*
X121844491Y-87476744D01*
X121826900Y-87463575D01*
X121786204Y-87433111D01*
X121786202Y-87433110D01*
X121649204Y-87382011D01*
X121649196Y-87382009D01*
X121588649Y-87375500D01*
X121588638Y-87375500D01*
X121409500Y-87375500D01*
X121341379Y-87355498D01*
X121294886Y-87301842D01*
X121283500Y-87249501D01*
X121283499Y-87062526D01*
X121303501Y-86994405D01*
X121315863Y-86978214D01*
X121315865Y-86978212D01*
X121389040Y-86896944D01*
X121484527Y-86731556D01*
X121543542Y-86549928D01*
X121563504Y-86360000D01*
X121543542Y-86170072D01*
X121484527Y-85988444D01*
X121389040Y-85823056D01*
X121389038Y-85823054D01*
X121389034Y-85823048D01*
X121261255Y-85681135D01*
X121106752Y-85568882D01*
X120932288Y-85491206D01*
X120745487Y-85451500D01*
X120554513Y-85451500D01*
X120367711Y-85491206D01*
X120193247Y-85568882D01*
X120038744Y-85681135D01*
X119910965Y-85823048D01*
X119910958Y-85823058D01*
X119815476Y-85988438D01*
X119815473Y-85988445D01*
X119756457Y-86170072D01*
X119736496Y-86359999D01*
X119756457Y-86549927D01*
X119777401Y-86614383D01*
X119815473Y-86731556D01*
X119910960Y-86896944D01*
X119984136Y-86978214D01*
X120014853Y-87042220D01*
X120016500Y-87062524D01*
X120016500Y-87249500D01*
X119996498Y-87317621D01*
X119942842Y-87364114D01*
X119890500Y-87375500D01*
X119711350Y-87375500D01*
X119650803Y-87382009D01*
X119650795Y-87382011D01*
X119513797Y-87433110D01*
X119455509Y-87476744D01*
X119388988Y-87501554D01*
X119319614Y-87486462D01*
X119304491Y-87476744D01*
X119286900Y-87463575D01*
X119246204Y-87433111D01*
X119246202Y-87433110D01*
X119109204Y-87382011D01*
X119109196Y-87382009D01*
X119048649Y-87375500D01*
X119048638Y-87375500D01*
X118869500Y-87375500D01*
X118801379Y-87355498D01*
X118754886Y-87301842D01*
X118743500Y-87249500D01*
X118743500Y-87062524D01*
X118763502Y-86994403D01*
X118775858Y-86978220D01*
X118849040Y-86896944D01*
X118944527Y-86731556D01*
X119003542Y-86549928D01*
X119023504Y-86360000D01*
X119003542Y-86170072D01*
X118944527Y-85988444D01*
X118849040Y-85823056D01*
X118849038Y-85823054D01*
X118849034Y-85823048D01*
X118721255Y-85681135D01*
X118566752Y-85568882D01*
X118392288Y-85491206D01*
X118205487Y-85451500D01*
X118014513Y-85451500D01*
X117827711Y-85491206D01*
X117653247Y-85568882D01*
X117498744Y-85681135D01*
X117370965Y-85823048D01*
X117370958Y-85823058D01*
X117275476Y-85988438D01*
X117275473Y-85988445D01*
X117216457Y-86170072D01*
X117196496Y-86359999D01*
X117216457Y-86549927D01*
X117237401Y-86614383D01*
X117275473Y-86731556D01*
X117370960Y-86896944D01*
X117444136Y-86978214D01*
X117474853Y-87042220D01*
X117476500Y-87062524D01*
X117476500Y-87249500D01*
X117456498Y-87317621D01*
X117402842Y-87364114D01*
X117350500Y-87375500D01*
X117171350Y-87375500D01*
X117110803Y-87382009D01*
X117110795Y-87382011D01*
X116973797Y-87433110D01*
X116915509Y-87476744D01*
X116848988Y-87501554D01*
X116779614Y-87486462D01*
X116764491Y-87476744D01*
X116746900Y-87463575D01*
X116706204Y-87433111D01*
X116706202Y-87433110D01*
X116569204Y-87382011D01*
X116569196Y-87382009D01*
X116508649Y-87375500D01*
X116508638Y-87375500D01*
X116329500Y-87375500D01*
X116261379Y-87355498D01*
X116214886Y-87301842D01*
X116203500Y-87249500D01*
X116203500Y-87062524D01*
X116223502Y-86994403D01*
X116235858Y-86978220D01*
X116309040Y-86896944D01*
X116404527Y-86731556D01*
X116463542Y-86549928D01*
X116483504Y-86360000D01*
X116463542Y-86170072D01*
X116404527Y-85988444D01*
X116309040Y-85823056D01*
X116309038Y-85823054D01*
X116309034Y-85823048D01*
X116181255Y-85681135D01*
X116026752Y-85568882D01*
X115852288Y-85491206D01*
X115665487Y-85451500D01*
X115474513Y-85451500D01*
X115287711Y-85491206D01*
X115113247Y-85568882D01*
X114958744Y-85681135D01*
X114830965Y-85823048D01*
X114830958Y-85823058D01*
X114735476Y-85988438D01*
X114735473Y-85988445D01*
X114676457Y-86170072D01*
X114656496Y-86359999D01*
X114676457Y-86549927D01*
X114697401Y-86614383D01*
X114735473Y-86731556D01*
X114735476Y-86731561D01*
X114830958Y-86896942D01*
X114830959Y-86896944D01*
X114904135Y-86978214D01*
X114934853Y-87042221D01*
X114936499Y-87062523D01*
X114936500Y-87249499D01*
X114916498Y-87317620D01*
X114862843Y-87364113D01*
X114810500Y-87375500D01*
X114631350Y-87375500D01*
X114570803Y-87382009D01*
X114570795Y-87382011D01*
X114433797Y-87433110D01*
X114375509Y-87476744D01*
X114308988Y-87501554D01*
X114239614Y-87486462D01*
X114224491Y-87476744D01*
X114206900Y-87463575D01*
X114166204Y-87433111D01*
X114166202Y-87433110D01*
X114029204Y-87382011D01*
X114029196Y-87382009D01*
X113968649Y-87375500D01*
X113968638Y-87375500D01*
X113789500Y-87375500D01*
X113721379Y-87355498D01*
X113674886Y-87301842D01*
X113663500Y-87249500D01*
X113663500Y-87062524D01*
X113683502Y-86994403D01*
X113695858Y-86978220D01*
X113769040Y-86896944D01*
X113864527Y-86731556D01*
X113923542Y-86549928D01*
X113943504Y-86360000D01*
X113923542Y-86170072D01*
X113864527Y-85988444D01*
X113769040Y-85823056D01*
X113769038Y-85823054D01*
X113769034Y-85823048D01*
X113641255Y-85681135D01*
X113486752Y-85568882D01*
X113312288Y-85491206D01*
X113125487Y-85451500D01*
X112934513Y-85451500D01*
X112747711Y-85491206D01*
X112573247Y-85568882D01*
X112418744Y-85681135D01*
X112290965Y-85823048D01*
X112290958Y-85823058D01*
X112195476Y-85988438D01*
X112195473Y-85988445D01*
X112136457Y-86170072D01*
X112116496Y-86359999D01*
X112136457Y-86549927D01*
X112157401Y-86614383D01*
X112195473Y-86731556D01*
X112195476Y-86731561D01*
X112290958Y-86896942D01*
X112290959Y-86896944D01*
X112364135Y-86978214D01*
X112394853Y-87042221D01*
X112396499Y-87062523D01*
X112396500Y-87249499D01*
X112376498Y-87317620D01*
X112322843Y-87364113D01*
X112270500Y-87375500D01*
X112091350Y-87375500D01*
X112030803Y-87382009D01*
X112030795Y-87382011D01*
X111893797Y-87433110D01*
X111893792Y-87433112D01*
X111835092Y-87477056D01*
X111768572Y-87501867D01*
X111699198Y-87486776D01*
X111684073Y-87477056D01*
X111625963Y-87433554D01*
X111489093Y-87382505D01*
X111428597Y-87376000D01*
X110744000Y-87376000D01*
X110744000Y-91822000D01*
X110723998Y-91890121D01*
X110670342Y-91936614D01*
X110618000Y-91948000D01*
X110362000Y-91948000D01*
X110293879Y-91927998D01*
X110247386Y-91874342D01*
X110236000Y-91822000D01*
X110236000Y-87376000D01*
X109551402Y-87376000D01*
X109490906Y-87382505D01*
X109354035Y-87433555D01*
X109295924Y-87477056D01*
X109229403Y-87501866D01*
X109160029Y-87486774D01*
X109144907Y-87477055D01*
X109086207Y-87433112D01*
X109086202Y-87433110D01*
X108949204Y-87382011D01*
X108949196Y-87382009D01*
X108888649Y-87375500D01*
X108888638Y-87375500D01*
X108709500Y-87375500D01*
X108641379Y-87355498D01*
X108594886Y-87301842D01*
X108583500Y-87249500D01*
X108583500Y-87062524D01*
X108603502Y-86994403D01*
X108615858Y-86978220D01*
X108689040Y-86896944D01*
X108784527Y-86731556D01*
X108843542Y-86549928D01*
X108863504Y-86360000D01*
X108843542Y-86170072D01*
X108784527Y-85988444D01*
X108689040Y-85823056D01*
X108689038Y-85823054D01*
X108689034Y-85823048D01*
X108561255Y-85681135D01*
X108406752Y-85568882D01*
X108232288Y-85491206D01*
X108045487Y-85451500D01*
X107854513Y-85451500D01*
X107667711Y-85491206D01*
X107493247Y-85568882D01*
X107338744Y-85681135D01*
X107210965Y-85823048D01*
X107210958Y-85823058D01*
X107115476Y-85988438D01*
X107115473Y-85988445D01*
X107056457Y-86170072D01*
X107036496Y-86360000D01*
X107056457Y-86549927D01*
X107077401Y-86614383D01*
X107115473Y-86731556D01*
X107210960Y-86896944D01*
X107284136Y-86978214D01*
X107314853Y-87042220D01*
X107316500Y-87062524D01*
X107316500Y-87249500D01*
X107296498Y-87317621D01*
X107242842Y-87364114D01*
X107190500Y-87375500D01*
X107011350Y-87375500D01*
X106950803Y-87382009D01*
X106950795Y-87382011D01*
X106813797Y-87433110D01*
X106755509Y-87476744D01*
X106688988Y-87501554D01*
X106619614Y-87486462D01*
X106604491Y-87476744D01*
X106586900Y-87463575D01*
X106546204Y-87433111D01*
X106546202Y-87433110D01*
X106409204Y-87382011D01*
X106409196Y-87382009D01*
X106348649Y-87375500D01*
X106348638Y-87375500D01*
X104471362Y-87375500D01*
X104471350Y-87375500D01*
X104410803Y-87382009D01*
X104410795Y-87382011D01*
X104273797Y-87433110D01*
X104215509Y-87476744D01*
X104148988Y-87501554D01*
X104079614Y-87486462D01*
X104064491Y-87476744D01*
X104046900Y-87463575D01*
X104006204Y-87433111D01*
X104006202Y-87433110D01*
X103869204Y-87382011D01*
X103869196Y-87382009D01*
X103808649Y-87375500D01*
X103808638Y-87375500D01*
X101931362Y-87375500D01*
X101931350Y-87375500D01*
X101870803Y-87382009D01*
X101870795Y-87382011D01*
X101733797Y-87433110D01*
X101675509Y-87476744D01*
X101608988Y-87501554D01*
X101539614Y-87486462D01*
X101524491Y-87476744D01*
X101506900Y-87463575D01*
X101466204Y-87433111D01*
X101466202Y-87433110D01*
X101329204Y-87382011D01*
X101329196Y-87382009D01*
X101268649Y-87375500D01*
X101268638Y-87375500D01*
X99391362Y-87375500D01*
X99391350Y-87375500D01*
X99330803Y-87382009D01*
X99330795Y-87382011D01*
X99193797Y-87433110D01*
X99135509Y-87476744D01*
X99068988Y-87501554D01*
X98999614Y-87486462D01*
X98984491Y-87476744D01*
X98966900Y-87463575D01*
X98926204Y-87433111D01*
X98926202Y-87433110D01*
X98789204Y-87382011D01*
X98789196Y-87382009D01*
X98728649Y-87375500D01*
X98728638Y-87375500D01*
X96851362Y-87375500D01*
X96851350Y-87375500D01*
X96790803Y-87382009D01*
X96790795Y-87382011D01*
X96653797Y-87433110D01*
X96595509Y-87476744D01*
X96528988Y-87501554D01*
X96459614Y-87486462D01*
X96444491Y-87476744D01*
X96426900Y-87463575D01*
X96386204Y-87433111D01*
X96386202Y-87433110D01*
X96249204Y-87382011D01*
X96249196Y-87382009D01*
X96188649Y-87375500D01*
X96188638Y-87375500D01*
X94311362Y-87375500D01*
X94311350Y-87375500D01*
X94250803Y-87382009D01*
X94250795Y-87382011D01*
X94113797Y-87433110D01*
X94055509Y-87476744D01*
X93988988Y-87501554D01*
X93919614Y-87486462D01*
X93904491Y-87476744D01*
X93886900Y-87463575D01*
X93846204Y-87433111D01*
X93846202Y-87433110D01*
X93709204Y-87382011D01*
X93709196Y-87382009D01*
X93648649Y-87375500D01*
X93648638Y-87375500D01*
X91771362Y-87375500D01*
X91771350Y-87375500D01*
X91710803Y-87382009D01*
X91710795Y-87382011D01*
X91573797Y-87433110D01*
X91573793Y-87433112D01*
X91515507Y-87476744D01*
X91448986Y-87501554D01*
X91379612Y-87486462D01*
X91364490Y-87476743D01*
X91306207Y-87433112D01*
X91306202Y-87433110D01*
X91169204Y-87382011D01*
X91169196Y-87382009D01*
X91108649Y-87375500D01*
X91108638Y-87375500D01*
X89231362Y-87375500D01*
X89231350Y-87375500D01*
X89170803Y-87382009D01*
X89170795Y-87382011D01*
X89033797Y-87433110D01*
X88975509Y-87476744D01*
X88908988Y-87501554D01*
X88839614Y-87486462D01*
X88824491Y-87476744D01*
X88806900Y-87463575D01*
X88766204Y-87433111D01*
X88766202Y-87433110D01*
X88629204Y-87382011D01*
X88629196Y-87382009D01*
X88568649Y-87375500D01*
X88568638Y-87375500D01*
X86691362Y-87375500D01*
X86691350Y-87375500D01*
X86630803Y-87382009D01*
X86630795Y-87382011D01*
X86493797Y-87433110D01*
X86435509Y-87476744D01*
X86368988Y-87501554D01*
X86299614Y-87486462D01*
X86284491Y-87476744D01*
X86266900Y-87463575D01*
X86226204Y-87433111D01*
X86226202Y-87433110D01*
X86089204Y-87382011D01*
X86089196Y-87382009D01*
X86028649Y-87375500D01*
X86028638Y-87375500D01*
X84151362Y-87375500D01*
X84151350Y-87375500D01*
X84090803Y-87382009D01*
X84090795Y-87382011D01*
X83953797Y-87433110D01*
X83895509Y-87476744D01*
X83828988Y-87501554D01*
X83759614Y-87486462D01*
X83744491Y-87476744D01*
X83726900Y-87463575D01*
X83686204Y-87433111D01*
X83686202Y-87433110D01*
X83549204Y-87382011D01*
X83549196Y-87382009D01*
X83488649Y-87375500D01*
X83488638Y-87375500D01*
X81611362Y-87375500D01*
X81611350Y-87375500D01*
X81550803Y-87382009D01*
X81550795Y-87382011D01*
X81413797Y-87433110D01*
X81413793Y-87433112D01*
X81355507Y-87476744D01*
X81288986Y-87501554D01*
X81219612Y-87486462D01*
X81204490Y-87476743D01*
X81146207Y-87433112D01*
X81146202Y-87433110D01*
X81009204Y-87382011D01*
X81009196Y-87382009D01*
X80948649Y-87375500D01*
X80948638Y-87375500D01*
X79071362Y-87375500D01*
X79071350Y-87375500D01*
X79010803Y-87382009D01*
X79010795Y-87382011D01*
X78873797Y-87433110D01*
X78815509Y-87476744D01*
X78748988Y-87501554D01*
X78679614Y-87486462D01*
X78664491Y-87476744D01*
X78646900Y-87463575D01*
X78606204Y-87433111D01*
X78606202Y-87433110D01*
X78469204Y-87382011D01*
X78469196Y-87382009D01*
X78408649Y-87375500D01*
X78408638Y-87375500D01*
X76531362Y-87375500D01*
X76531350Y-87375500D01*
X76470803Y-87382009D01*
X76470795Y-87382011D01*
X76333797Y-87433110D01*
X76275509Y-87476744D01*
X76208988Y-87501554D01*
X76139614Y-87486462D01*
X76124491Y-87476744D01*
X76106900Y-87463575D01*
X76066204Y-87433111D01*
X76066202Y-87433110D01*
X75929204Y-87382011D01*
X75929196Y-87382009D01*
X75868649Y-87375500D01*
X75868638Y-87375500D01*
X75814500Y-87375500D01*
X75746379Y-87355498D01*
X75699886Y-87301842D01*
X75688500Y-87249500D01*
X75688500Y-86896999D01*
X75705380Y-86834000D01*
X75764527Y-86731556D01*
X75823542Y-86549928D01*
X75843504Y-86360000D01*
X75823542Y-86170072D01*
X75764527Y-85988444D01*
X75669040Y-85823056D01*
X75669038Y-85823054D01*
X75669034Y-85823048D01*
X75541255Y-85681135D01*
X75386752Y-85568882D01*
X75212288Y-85491206D01*
X75025487Y-85451500D01*
X74834513Y-85451500D01*
X74647711Y-85491206D01*
X74473247Y-85568882D01*
X74318744Y-85681135D01*
X74190965Y-85823048D01*
X74190958Y-85823058D01*
X74095476Y-85988438D01*
X74095473Y-85988445D01*
X74036457Y-86170072D01*
X74016496Y-86360000D01*
X74036457Y-86549927D01*
X74057401Y-86614383D01*
X74095473Y-86731556D01*
X74154619Y-86834000D01*
X74171500Y-86896999D01*
X74171500Y-87249500D01*
X74151498Y-87317621D01*
X74097842Y-87364114D01*
X74045500Y-87375500D01*
X73991350Y-87375500D01*
X73930803Y-87382009D01*
X73930795Y-87382011D01*
X73793797Y-87433110D01*
X73793792Y-87433112D01*
X73676738Y-87520738D01*
X73589112Y-87637792D01*
X73589110Y-87637797D01*
X73538011Y-87774795D01*
X73538009Y-87774803D01*
X73531500Y-87835350D01*
X73531500Y-95552649D01*
X73538530Y-95618032D01*
X73525924Y-95687900D01*
X73477546Y-95739862D01*
X73413252Y-95757500D01*
X72262500Y-95757500D01*
X72194379Y-95737498D01*
X72147886Y-95683842D01*
X72136500Y-95631500D01*
X72136500Y-86639157D01*
X72136528Y-86639014D01*
X72136524Y-86639014D01*
X72136539Y-86614002D01*
X72136541Y-86614000D01*
X72136383Y-86613617D01*
X72136381Y-86613616D01*
X72136380Y-86613614D01*
X72136201Y-86613541D01*
X72136003Y-86613459D01*
X72111048Y-86613459D01*
X72110842Y-86613500D01*
X71754692Y-86613500D01*
X71686571Y-86593498D01*
X71640078Y-86539842D01*
X71628692Y-86487309D01*
X71635798Y-81788000D01*
X73566844Y-81788000D01*
X73584232Y-81997844D01*
X73585437Y-82012375D01*
X73640702Y-82230612D01*
X73640703Y-82230613D01*
X73731141Y-82436793D01*
X73854275Y-82625265D01*
X73854279Y-82625270D01*
X74006762Y-82790908D01*
X74061331Y-82833381D01*
X74184424Y-82929189D01*
X74382426Y-83036342D01*
X74382427Y-83036342D01*
X74382428Y-83036343D01*
X74494227Y-83074723D01*
X74595365Y-83109444D01*
X74817431Y-83146500D01*
X74817435Y-83146500D01*
X75042565Y-83146500D01*
X75042569Y-83146500D01*
X75264635Y-83109444D01*
X75477574Y-83036342D01*
X75675576Y-82929189D01*
X75853240Y-82790906D01*
X76005722Y-82625268D01*
X76005927Y-82624955D01*
X76011115Y-82617012D01*
X76094518Y-82489354D01*
X76148520Y-82443268D01*
X76218868Y-82433692D01*
X76283225Y-82463669D01*
X76305480Y-82489353D01*
X76338607Y-82540058D01*
X76394275Y-82625265D01*
X76394279Y-82625270D01*
X76546762Y-82790908D01*
X76601331Y-82833381D01*
X76724424Y-82929189D01*
X76922426Y-83036342D01*
X76922427Y-83036342D01*
X76922428Y-83036343D01*
X77034227Y-83074723D01*
X77135365Y-83109444D01*
X77357431Y-83146500D01*
X77357435Y-83146500D01*
X77582565Y-83146500D01*
X77582569Y-83146500D01*
X77804635Y-83109444D01*
X78017574Y-83036342D01*
X78215576Y-82929189D01*
X78393240Y-82790906D01*
X78545722Y-82625268D01*
X78545927Y-82624955D01*
X78551115Y-82617012D01*
X78634518Y-82489354D01*
X78688520Y-82443268D01*
X78758868Y-82433692D01*
X78823225Y-82463669D01*
X78845480Y-82489353D01*
X78878607Y-82540058D01*
X78934275Y-82625265D01*
X78934279Y-82625270D01*
X79086762Y-82790908D01*
X79141331Y-82833381D01*
X79264424Y-82929189D01*
X79462426Y-83036342D01*
X79462427Y-83036342D01*
X79462428Y-83036343D01*
X79574227Y-83074723D01*
X79675365Y-83109444D01*
X79897431Y-83146500D01*
X79897435Y-83146500D01*
X80122565Y-83146500D01*
X80122569Y-83146500D01*
X80344635Y-83109444D01*
X80557574Y-83036342D01*
X80755576Y-82929189D01*
X80933240Y-82790906D01*
X81085722Y-82625268D01*
X81085927Y-82624955D01*
X81091115Y-82617012D01*
X81174518Y-82489354D01*
X81228520Y-82443268D01*
X81298868Y-82433692D01*
X81363225Y-82463669D01*
X81385480Y-82489353D01*
X81418607Y-82540058D01*
X81474275Y-82625265D01*
X81474279Y-82625270D01*
X81626762Y-82790908D01*
X81681331Y-82833381D01*
X81804424Y-82929189D01*
X82002426Y-83036342D01*
X82002427Y-83036342D01*
X82002428Y-83036343D01*
X82114227Y-83074723D01*
X82215365Y-83109444D01*
X82437431Y-83146500D01*
X82437435Y-83146500D01*
X82662565Y-83146500D01*
X82662569Y-83146500D01*
X82884635Y-83109444D01*
X83097574Y-83036342D01*
X83295576Y-82929189D01*
X83473240Y-82790906D01*
X83625722Y-82625268D01*
X83625927Y-82624955D01*
X83631115Y-82617012D01*
X83714518Y-82489354D01*
X83768520Y-82443268D01*
X83838868Y-82433692D01*
X83903225Y-82463669D01*
X83925480Y-82489353D01*
X83958607Y-82540058D01*
X84014275Y-82625265D01*
X84014279Y-82625270D01*
X84166762Y-82790908D01*
X84221331Y-82833381D01*
X84344424Y-82929189D01*
X84542426Y-83036342D01*
X84542427Y-83036342D01*
X84542428Y-83036343D01*
X84654227Y-83074723D01*
X84755365Y-83109444D01*
X84977431Y-83146500D01*
X84977435Y-83146500D01*
X85202565Y-83146500D01*
X85202569Y-83146500D01*
X85424635Y-83109444D01*
X85637574Y-83036342D01*
X85835576Y-82929189D01*
X86013240Y-82790906D01*
X86165722Y-82625268D01*
X86165927Y-82624955D01*
X86171115Y-82617012D01*
X86254518Y-82489354D01*
X86308520Y-82443268D01*
X86378868Y-82433692D01*
X86443225Y-82463669D01*
X86465480Y-82489353D01*
X86498607Y-82540058D01*
X86554275Y-82625265D01*
X86554279Y-82625270D01*
X86706762Y-82790908D01*
X86761331Y-82833381D01*
X86884424Y-82929189D01*
X87082426Y-83036342D01*
X87082427Y-83036342D01*
X87082428Y-83036343D01*
X87194227Y-83074723D01*
X87295365Y-83109444D01*
X87517431Y-83146500D01*
X87517435Y-83146500D01*
X87742565Y-83146500D01*
X87742569Y-83146500D01*
X87964635Y-83109444D01*
X88177574Y-83036342D01*
X88375576Y-82929189D01*
X88553240Y-82790906D01*
X88705722Y-82625268D01*
X88705927Y-82624955D01*
X88711115Y-82617012D01*
X88794518Y-82489354D01*
X88848520Y-82443268D01*
X88918868Y-82433692D01*
X88983225Y-82463669D01*
X89005480Y-82489353D01*
X89038607Y-82540058D01*
X89094275Y-82625265D01*
X89094279Y-82625270D01*
X89246762Y-82790908D01*
X89301331Y-82833381D01*
X89424424Y-82929189D01*
X89622426Y-83036342D01*
X89622427Y-83036342D01*
X89622428Y-83036343D01*
X89734227Y-83074723D01*
X89835365Y-83109444D01*
X90057431Y-83146500D01*
X90057435Y-83146500D01*
X90282565Y-83146500D01*
X90282569Y-83146500D01*
X90504635Y-83109444D01*
X90717574Y-83036342D01*
X90915576Y-82929189D01*
X91093240Y-82790906D01*
X91245722Y-82625268D01*
X91245927Y-82624955D01*
X91251115Y-82617012D01*
X91334518Y-82489354D01*
X91388520Y-82443268D01*
X91458868Y-82433692D01*
X91523225Y-82463669D01*
X91545480Y-82489353D01*
X91578607Y-82540058D01*
X91634275Y-82625265D01*
X91634279Y-82625270D01*
X91786762Y-82790908D01*
X91841331Y-82833381D01*
X91964424Y-82929189D01*
X92162426Y-83036342D01*
X92162427Y-83036342D01*
X92162428Y-83036343D01*
X92274227Y-83074723D01*
X92375365Y-83109444D01*
X92597431Y-83146500D01*
X92597435Y-83146500D01*
X92822565Y-83146500D01*
X92822569Y-83146500D01*
X93044635Y-83109444D01*
X93257574Y-83036342D01*
X93455576Y-82929189D01*
X93633240Y-82790906D01*
X93785722Y-82625268D01*
X93874519Y-82489353D01*
X93928518Y-82443268D01*
X93998866Y-82433692D01*
X94063224Y-82463668D01*
X94085482Y-82489356D01*
X94174275Y-82625265D01*
X94174279Y-82625270D01*
X94326762Y-82790908D01*
X94381331Y-82833381D01*
X94504424Y-82929189D01*
X94702426Y-83036342D01*
X94702427Y-83036342D01*
X94702428Y-83036343D01*
X94814227Y-83074723D01*
X94915365Y-83109444D01*
X95137431Y-83146500D01*
X95137435Y-83146500D01*
X95362565Y-83146500D01*
X95362569Y-83146500D01*
X95584635Y-83109444D01*
X95797574Y-83036342D01*
X95995576Y-82929189D01*
X96173240Y-82790906D01*
X96325722Y-82625268D01*
X96325927Y-82624955D01*
X96331115Y-82617012D01*
X96414518Y-82489354D01*
X96468520Y-82443268D01*
X96538868Y-82433692D01*
X96603225Y-82463669D01*
X96625480Y-82489353D01*
X96658607Y-82540058D01*
X96714275Y-82625265D01*
X96714279Y-82625270D01*
X96866762Y-82790908D01*
X96921331Y-82833381D01*
X97044424Y-82929189D01*
X97242426Y-83036342D01*
X97242427Y-83036342D01*
X97242428Y-83036343D01*
X97354227Y-83074723D01*
X97455365Y-83109444D01*
X97677431Y-83146500D01*
X97677435Y-83146500D01*
X97902565Y-83146500D01*
X97902569Y-83146500D01*
X98124635Y-83109444D01*
X98337574Y-83036342D01*
X98535576Y-82929189D01*
X98713240Y-82790906D01*
X98865722Y-82625268D01*
X98865927Y-82624955D01*
X98871115Y-82617012D01*
X98954518Y-82489354D01*
X99008520Y-82443268D01*
X99078868Y-82433692D01*
X99143225Y-82463669D01*
X99165480Y-82489353D01*
X99198607Y-82540058D01*
X99254275Y-82625265D01*
X99254279Y-82625270D01*
X99406762Y-82790908D01*
X99461331Y-82833381D01*
X99584424Y-82929189D01*
X99782426Y-83036342D01*
X99782427Y-83036342D01*
X99782428Y-83036343D01*
X99894227Y-83074723D01*
X99995365Y-83109444D01*
X100217431Y-83146500D01*
X100217435Y-83146500D01*
X100442565Y-83146500D01*
X100442569Y-83146500D01*
X100664635Y-83109444D01*
X100877574Y-83036342D01*
X101075576Y-82929189D01*
X101253240Y-82790906D01*
X101405722Y-82625268D01*
X101405927Y-82624955D01*
X101411115Y-82617012D01*
X101494518Y-82489354D01*
X101548520Y-82443268D01*
X101618868Y-82433692D01*
X101683225Y-82463669D01*
X101705480Y-82489353D01*
X101738607Y-82540058D01*
X101794275Y-82625265D01*
X101794279Y-82625270D01*
X101946762Y-82790908D01*
X102001331Y-82833381D01*
X102124424Y-82929189D01*
X102322426Y-83036342D01*
X102322427Y-83036342D01*
X102322428Y-83036343D01*
X102434227Y-83074723D01*
X102535365Y-83109444D01*
X102757431Y-83146500D01*
X102757435Y-83146500D01*
X102982565Y-83146500D01*
X102982569Y-83146500D01*
X103204635Y-83109444D01*
X103417574Y-83036342D01*
X103615576Y-82929189D01*
X103793240Y-82790906D01*
X103945722Y-82625268D01*
X103945927Y-82624955D01*
X103951115Y-82617012D01*
X104034518Y-82489354D01*
X104088520Y-82443268D01*
X104158868Y-82433692D01*
X104223225Y-82463669D01*
X104245480Y-82489353D01*
X104278607Y-82540058D01*
X104334275Y-82625265D01*
X104334279Y-82625270D01*
X104486762Y-82790908D01*
X104541331Y-82833381D01*
X104664424Y-82929189D01*
X104862426Y-83036342D01*
X104862427Y-83036342D01*
X104862428Y-83036343D01*
X104974227Y-83074723D01*
X105075365Y-83109444D01*
X105297431Y-83146500D01*
X105297435Y-83146500D01*
X105522565Y-83146500D01*
X105522569Y-83146500D01*
X105744635Y-83109444D01*
X105957574Y-83036342D01*
X106155576Y-82929189D01*
X106333240Y-82790906D01*
X106485722Y-82625268D01*
X106485927Y-82624955D01*
X106574517Y-82489357D01*
X106628520Y-82443268D01*
X106698868Y-82433693D01*
X106763226Y-82463670D01*
X106785483Y-82489357D01*
X106874275Y-82625265D01*
X106874279Y-82625270D01*
X107026762Y-82790908D01*
X107081331Y-82833381D01*
X107204424Y-82929189D01*
X107402426Y-83036342D01*
X107402427Y-83036342D01*
X107402428Y-83036343D01*
X107514227Y-83074723D01*
X107615365Y-83109444D01*
X107837431Y-83146500D01*
X107837435Y-83146500D01*
X108062565Y-83146500D01*
X108062569Y-83146500D01*
X108284635Y-83109444D01*
X108497574Y-83036342D01*
X108695576Y-82929189D01*
X108873240Y-82790906D01*
X109025722Y-82625268D01*
X109025927Y-82624955D01*
X109114517Y-82489357D01*
X109114816Y-82488898D01*
X109168819Y-82442810D01*
X109239167Y-82433235D01*
X109303524Y-82463212D01*
X109325782Y-82488898D01*
X109414674Y-82624958D01*
X109567097Y-82790534D01*
X109744698Y-82928767D01*
X109744699Y-82928768D01*
X109942628Y-83035882D01*
X109942630Y-83035883D01*
X110155483Y-83108955D01*
X110155490Y-83108957D01*
X110235999Y-83122391D01*
X110235999Y-82221674D01*
X110347685Y-82272680D01*
X110454237Y-82288000D01*
X110525763Y-82288000D01*
X110632315Y-82272680D01*
X110744000Y-82221674D01*
X110744000Y-83122390D01*
X110824507Y-83108957D01*
X110824516Y-83108955D01*
X111037369Y-83035883D01*
X111037371Y-83035882D01*
X111235300Y-82928768D01*
X111235301Y-82928767D01*
X111412902Y-82790534D01*
X111565327Y-82624955D01*
X111654217Y-82488899D01*
X111708220Y-82442810D01*
X111778568Y-82433235D01*
X111842925Y-82463212D01*
X111865183Y-82488898D01*
X111954279Y-82625270D01*
X112106762Y-82790908D01*
X112161331Y-82833381D01*
X112284424Y-82929189D01*
X112482426Y-83036342D01*
X112482427Y-83036342D01*
X112482428Y-83036343D01*
X112594227Y-83074723D01*
X112695365Y-83109444D01*
X112917431Y-83146500D01*
X112917435Y-83146500D01*
X113142565Y-83146500D01*
X113142569Y-83146500D01*
X113364635Y-83109444D01*
X113577574Y-83036342D01*
X113775576Y-82929189D01*
X113953240Y-82790906D01*
X114105722Y-82625268D01*
X114194519Y-82489353D01*
X114248518Y-82443268D01*
X114318866Y-82433692D01*
X114383224Y-82463668D01*
X114405482Y-82489356D01*
X114494275Y-82625265D01*
X114494279Y-82625270D01*
X114646762Y-82790908D01*
X114701331Y-82833381D01*
X114824424Y-82929189D01*
X115022426Y-83036342D01*
X115022427Y-83036342D01*
X115022428Y-83036343D01*
X115134227Y-83074723D01*
X115235365Y-83109444D01*
X115457431Y-83146500D01*
X115457435Y-83146500D01*
X115682565Y-83146500D01*
X115682569Y-83146500D01*
X115904635Y-83109444D01*
X116117574Y-83036342D01*
X116315576Y-82929189D01*
X116493240Y-82790906D01*
X116645722Y-82625268D01*
X116645927Y-82624955D01*
X116651115Y-82617012D01*
X116734518Y-82489354D01*
X116788520Y-82443268D01*
X116858868Y-82433692D01*
X116923225Y-82463669D01*
X116945480Y-82489353D01*
X116978607Y-82540058D01*
X117034275Y-82625265D01*
X117034279Y-82625270D01*
X117186762Y-82790908D01*
X117241331Y-82833381D01*
X117364424Y-82929189D01*
X117562426Y-83036342D01*
X117562427Y-83036342D01*
X117562428Y-83036343D01*
X117674227Y-83074723D01*
X117775365Y-83109444D01*
X117997431Y-83146500D01*
X117997435Y-83146500D01*
X118222565Y-83146500D01*
X118222569Y-83146500D01*
X118444635Y-83109444D01*
X118657574Y-83036342D01*
X118855576Y-82929189D01*
X119033240Y-82790906D01*
X119185722Y-82625268D01*
X119185927Y-82624955D01*
X119191115Y-82617012D01*
X119274518Y-82489354D01*
X119328520Y-82443268D01*
X119398868Y-82433692D01*
X119463225Y-82463669D01*
X119485480Y-82489353D01*
X119518607Y-82540058D01*
X119574275Y-82625265D01*
X119574279Y-82625270D01*
X119726762Y-82790908D01*
X119781331Y-82833381D01*
X119904424Y-82929189D01*
X120102426Y-83036342D01*
X120102427Y-83036342D01*
X120102428Y-83036343D01*
X120214227Y-83074723D01*
X120315365Y-83109444D01*
X120537431Y-83146500D01*
X120537435Y-83146500D01*
X120762565Y-83146500D01*
X120762569Y-83146500D01*
X120984635Y-83109444D01*
X121197574Y-83036342D01*
X121395576Y-82929189D01*
X121573240Y-82790906D01*
X121725722Y-82625268D01*
X121725927Y-82624955D01*
X121731115Y-82617012D01*
X121814518Y-82489354D01*
X121868520Y-82443268D01*
X121938868Y-82433692D01*
X122003225Y-82463669D01*
X122025480Y-82489353D01*
X122058607Y-82540058D01*
X122114275Y-82625265D01*
X122114279Y-82625270D01*
X122266762Y-82790908D01*
X122321331Y-82833381D01*
X122444424Y-82929189D01*
X122642426Y-83036342D01*
X122642427Y-83036342D01*
X122642428Y-83036343D01*
X122754227Y-83074723D01*
X122855365Y-83109444D01*
X123077431Y-83146500D01*
X123077435Y-83146500D01*
X123302565Y-83146500D01*
X123302569Y-83146500D01*
X123524635Y-83109444D01*
X123737574Y-83036342D01*
X123935576Y-82929189D01*
X124113240Y-82790906D01*
X124265722Y-82625268D01*
X124265927Y-82624955D01*
X124271115Y-82617012D01*
X124354518Y-82489354D01*
X124408520Y-82443268D01*
X124478868Y-82433692D01*
X124543225Y-82463669D01*
X124565480Y-82489353D01*
X124598607Y-82540058D01*
X124654275Y-82625265D01*
X124654279Y-82625270D01*
X124806762Y-82790908D01*
X124861331Y-82833381D01*
X124984424Y-82929189D01*
X125182426Y-83036342D01*
X125182427Y-83036342D01*
X125182428Y-83036343D01*
X125294227Y-83074723D01*
X125395365Y-83109444D01*
X125617431Y-83146500D01*
X125617435Y-83146500D01*
X125842565Y-83146500D01*
X125842569Y-83146500D01*
X126064635Y-83109444D01*
X126277574Y-83036342D01*
X126475576Y-82929189D01*
X126653240Y-82790906D01*
X126805722Y-82625268D01*
X126805927Y-82624955D01*
X126894517Y-82489357D01*
X126948520Y-82443268D01*
X127018868Y-82433693D01*
X127083226Y-82463670D01*
X127105483Y-82489357D01*
X127194275Y-82625265D01*
X127194279Y-82625270D01*
X127346762Y-82790908D01*
X127401331Y-82833381D01*
X127524424Y-82929189D01*
X127722426Y-83036342D01*
X127722427Y-83036342D01*
X127722428Y-83036343D01*
X127834227Y-83074723D01*
X127935365Y-83109444D01*
X128157431Y-83146500D01*
X128157435Y-83146500D01*
X128382565Y-83146500D01*
X128382569Y-83146500D01*
X128604635Y-83109444D01*
X128817574Y-83036342D01*
X129015576Y-82929189D01*
X129193240Y-82790906D01*
X129345722Y-82625268D01*
X129434519Y-82489353D01*
X129488518Y-82443268D01*
X129558866Y-82433692D01*
X129623224Y-82463668D01*
X129645482Y-82489356D01*
X129734275Y-82625265D01*
X129734279Y-82625270D01*
X129886762Y-82790908D01*
X129941331Y-82833381D01*
X130064424Y-82929189D01*
X130262426Y-83036342D01*
X130262427Y-83036342D01*
X130262428Y-83036343D01*
X130374227Y-83074723D01*
X130475365Y-83109444D01*
X130697431Y-83146500D01*
X130697435Y-83146500D01*
X130922565Y-83146500D01*
X130922569Y-83146500D01*
X131144635Y-83109444D01*
X131357574Y-83036342D01*
X131555576Y-82929189D01*
X131733240Y-82790906D01*
X131885722Y-82625268D01*
X131885927Y-82624955D01*
X131891115Y-82617012D01*
X131974518Y-82489354D01*
X132028520Y-82443268D01*
X132098868Y-82433692D01*
X132163225Y-82463669D01*
X132185480Y-82489353D01*
X132218607Y-82540058D01*
X132274275Y-82625265D01*
X132274279Y-82625270D01*
X132426762Y-82790908D01*
X132481331Y-82833381D01*
X132604424Y-82929189D01*
X132802426Y-83036342D01*
X132802427Y-83036342D01*
X132802428Y-83036343D01*
X132914227Y-83074723D01*
X133015365Y-83109444D01*
X133237431Y-83146500D01*
X133237435Y-83146500D01*
X133462565Y-83146500D01*
X133462569Y-83146500D01*
X133684635Y-83109444D01*
X133897574Y-83036342D01*
X134095576Y-82929189D01*
X134273240Y-82790906D01*
X134425722Y-82625268D01*
X134425927Y-82624955D01*
X134431115Y-82617012D01*
X134514518Y-82489354D01*
X134568520Y-82443268D01*
X134638868Y-82433692D01*
X134703225Y-82463669D01*
X134725480Y-82489353D01*
X134758607Y-82540058D01*
X134814275Y-82625265D01*
X134814279Y-82625270D01*
X134966762Y-82790908D01*
X135021331Y-82833381D01*
X135144424Y-82929189D01*
X135342426Y-83036342D01*
X135342427Y-83036342D01*
X135342428Y-83036343D01*
X135454227Y-83074723D01*
X135555365Y-83109444D01*
X135777431Y-83146500D01*
X135777435Y-83146500D01*
X136002565Y-83146500D01*
X136002569Y-83146500D01*
X136224635Y-83109444D01*
X136437574Y-83036342D01*
X136635576Y-82929189D01*
X136813240Y-82790906D01*
X136965722Y-82625268D01*
X136965927Y-82624955D01*
X136971115Y-82617012D01*
X137054518Y-82489354D01*
X137108520Y-82443268D01*
X137178868Y-82433692D01*
X137243225Y-82463669D01*
X137265480Y-82489353D01*
X137298607Y-82540058D01*
X137354275Y-82625265D01*
X137354279Y-82625270D01*
X137506762Y-82790908D01*
X137561331Y-82833381D01*
X137684424Y-82929189D01*
X137882426Y-83036342D01*
X137882427Y-83036342D01*
X137882428Y-83036343D01*
X137994227Y-83074723D01*
X138095365Y-83109444D01*
X138317431Y-83146500D01*
X138317435Y-83146500D01*
X138542565Y-83146500D01*
X138542569Y-83146500D01*
X138764635Y-83109444D01*
X138977574Y-83036342D01*
X139175576Y-82929189D01*
X139353240Y-82790906D01*
X139505722Y-82625268D01*
X139505927Y-82624955D01*
X139511115Y-82617012D01*
X139594518Y-82489354D01*
X139648520Y-82443268D01*
X139718868Y-82433692D01*
X139783225Y-82463669D01*
X139805480Y-82489353D01*
X139838607Y-82540058D01*
X139894275Y-82625265D01*
X139894279Y-82625270D01*
X140046762Y-82790908D01*
X140101331Y-82833381D01*
X140224424Y-82929189D01*
X140422426Y-83036342D01*
X140422427Y-83036342D01*
X140422428Y-83036343D01*
X140534227Y-83074723D01*
X140635365Y-83109444D01*
X140857431Y-83146500D01*
X140857435Y-83146500D01*
X141082565Y-83146500D01*
X141082569Y-83146500D01*
X141304635Y-83109444D01*
X141517574Y-83036342D01*
X141715576Y-82929189D01*
X141893240Y-82790906D01*
X142045722Y-82625268D01*
X142045927Y-82624955D01*
X142051115Y-82617012D01*
X142134518Y-82489354D01*
X142188520Y-82443268D01*
X142258868Y-82433692D01*
X142323225Y-82463669D01*
X142345480Y-82489353D01*
X142378607Y-82540058D01*
X142434275Y-82625265D01*
X142434279Y-82625270D01*
X142586762Y-82790908D01*
X142641331Y-82833381D01*
X142764424Y-82929189D01*
X142962426Y-83036342D01*
X142962427Y-83036342D01*
X142962428Y-83036343D01*
X143074227Y-83074723D01*
X143175365Y-83109444D01*
X143397431Y-83146500D01*
X143397435Y-83146500D01*
X143622565Y-83146500D01*
X143622569Y-83146500D01*
X143844635Y-83109444D01*
X144057574Y-83036342D01*
X144255576Y-82929189D01*
X144433240Y-82790906D01*
X144585722Y-82625268D01*
X144585927Y-82624955D01*
X144591115Y-82617012D01*
X144674518Y-82489354D01*
X144728520Y-82443268D01*
X144798868Y-82433692D01*
X144863225Y-82463669D01*
X144885480Y-82489353D01*
X144918607Y-82540058D01*
X144974275Y-82625265D01*
X144974279Y-82625270D01*
X145126762Y-82790908D01*
X145181331Y-82833381D01*
X145304424Y-82929189D01*
X145502426Y-83036342D01*
X145502427Y-83036342D01*
X145502428Y-83036343D01*
X145614227Y-83074723D01*
X145715365Y-83109444D01*
X145937431Y-83146500D01*
X145937435Y-83146500D01*
X146162565Y-83146500D01*
X146162569Y-83146500D01*
X146384635Y-83109444D01*
X146597574Y-83036342D01*
X146795576Y-82929189D01*
X146973240Y-82790906D01*
X147034626Y-82724222D01*
X147095476Y-82687654D01*
X147166441Y-82689787D01*
X147224986Y-82729949D01*
X147245380Y-82765529D01*
X147289553Y-82883961D01*
X147289555Y-82883965D01*
X147377095Y-83000904D01*
X147494034Y-83088444D01*
X147630906Y-83139494D01*
X147691402Y-83145999D01*
X147691415Y-83146000D01*
X148336000Y-83146000D01*
X148336000Y-82221674D01*
X148447685Y-82272680D01*
X148554237Y-82288000D01*
X148625763Y-82288000D01*
X148732315Y-82272680D01*
X148844000Y-82221674D01*
X148844000Y-83146000D01*
X149488585Y-83146000D01*
X149488597Y-83145999D01*
X149549093Y-83139494D01*
X149685964Y-83088444D01*
X149685965Y-83088444D01*
X149802904Y-83000904D01*
X149890444Y-82883965D01*
X149890444Y-82883964D01*
X149941494Y-82747093D01*
X149947999Y-82686597D01*
X149948000Y-82686585D01*
X149948000Y-82042000D01*
X149021116Y-82042000D01*
X149049493Y-81997844D01*
X149090000Y-81859889D01*
X149090000Y-81716111D01*
X149049493Y-81578156D01*
X149021116Y-81534000D01*
X149948000Y-81534000D01*
X149948000Y-80889414D01*
X149947999Y-80889402D01*
X149941494Y-80828906D01*
X149890444Y-80692035D01*
X149890444Y-80692034D01*
X149802904Y-80575095D01*
X149685966Y-80487556D01*
X149570826Y-80444611D01*
X149513991Y-80402064D01*
X149489180Y-80335543D01*
X149504272Y-80266169D01*
X149522154Y-80241222D01*
X149665722Y-80085268D01*
X149788860Y-79896791D01*
X149879296Y-79690616D01*
X149934564Y-79472368D01*
X149953156Y-79248000D01*
X149934564Y-79023632D01*
X149879296Y-78805384D01*
X149788860Y-78599209D01*
X149782140Y-78588924D01*
X149665724Y-78410734D01*
X149665720Y-78410729D01*
X149513237Y-78245091D01*
X149431382Y-78181381D01*
X149335576Y-78106811D01*
X149137574Y-77999658D01*
X149137572Y-77999657D01*
X149137571Y-77999656D01*
X148924639Y-77926557D01*
X148924630Y-77926555D01*
X148880476Y-77919187D01*
X148702569Y-77889500D01*
X148477431Y-77889500D01*
X148329210Y-77914233D01*
X148255369Y-77926555D01*
X148255360Y-77926557D01*
X148042428Y-77999656D01*
X148042426Y-77999658D01*
X147844426Y-78106810D01*
X147844424Y-78106811D01*
X147666762Y-78245091D01*
X147514279Y-78410729D01*
X147425483Y-78546643D01*
X147371479Y-78592731D01*
X147301131Y-78602306D01*
X147236774Y-78572329D01*
X147214517Y-78546643D01*
X147125720Y-78410729D01*
X146973237Y-78245091D01*
X146891382Y-78181381D01*
X146795576Y-78106811D01*
X146597574Y-77999658D01*
X146597572Y-77999657D01*
X146597571Y-77999656D01*
X146384639Y-77926557D01*
X146384630Y-77926555D01*
X146340476Y-77919187D01*
X146162569Y-77889500D01*
X145937431Y-77889500D01*
X145789211Y-77914233D01*
X145715369Y-77926555D01*
X145715360Y-77926557D01*
X145502428Y-77999656D01*
X145502426Y-77999658D01*
X145304426Y-78106810D01*
X145304424Y-78106811D01*
X145126762Y-78245091D01*
X144974279Y-78410729D01*
X144885483Y-78546643D01*
X144831479Y-78592731D01*
X144761131Y-78602306D01*
X144696774Y-78572329D01*
X144674517Y-78546643D01*
X144585720Y-78410729D01*
X144433237Y-78245091D01*
X144351382Y-78181381D01*
X144255576Y-78106811D01*
X144057574Y-77999658D01*
X144057572Y-77999657D01*
X144057571Y-77999656D01*
X143844639Y-77926557D01*
X143844630Y-77926555D01*
X143800476Y-77919187D01*
X143622569Y-77889500D01*
X143397431Y-77889500D01*
X143249211Y-77914233D01*
X143175369Y-77926555D01*
X143175360Y-77926557D01*
X142962428Y-77999656D01*
X142962426Y-77999658D01*
X142764426Y-78106810D01*
X142764424Y-78106811D01*
X142586762Y-78245091D01*
X142434279Y-78410729D01*
X142345483Y-78546643D01*
X142291479Y-78592731D01*
X142221131Y-78602306D01*
X142156774Y-78572329D01*
X142134517Y-78546643D01*
X142045720Y-78410729D01*
X141893237Y-78245091D01*
X141811382Y-78181381D01*
X141715576Y-78106811D01*
X141517574Y-77999658D01*
X141517572Y-77999657D01*
X141517571Y-77999656D01*
X141304639Y-77926557D01*
X141304630Y-77926555D01*
X141260476Y-77919187D01*
X141082569Y-77889500D01*
X140857431Y-77889500D01*
X140709211Y-77914233D01*
X140635369Y-77926555D01*
X140635360Y-77926557D01*
X140422428Y-77999656D01*
X140422426Y-77999658D01*
X140224426Y-78106810D01*
X140224424Y-78106811D01*
X140046762Y-78245091D01*
X139894279Y-78410729D01*
X139805483Y-78546643D01*
X139751479Y-78592731D01*
X139681131Y-78602306D01*
X139616774Y-78572329D01*
X139594517Y-78546643D01*
X139505720Y-78410729D01*
X139353237Y-78245091D01*
X139271382Y-78181381D01*
X139175576Y-78106811D01*
X138977574Y-77999658D01*
X138977572Y-77999657D01*
X138977571Y-77999656D01*
X138764639Y-77926557D01*
X138764630Y-77926555D01*
X138720476Y-77919187D01*
X138542569Y-77889500D01*
X138317431Y-77889500D01*
X138169211Y-77914233D01*
X138095369Y-77926555D01*
X138095360Y-77926557D01*
X137882428Y-77999656D01*
X137882426Y-77999658D01*
X137684426Y-78106810D01*
X137684424Y-78106811D01*
X137506762Y-78245091D01*
X137354279Y-78410729D01*
X137265483Y-78546643D01*
X137211479Y-78592731D01*
X137141131Y-78602306D01*
X137076774Y-78572329D01*
X137054517Y-78546643D01*
X136965720Y-78410729D01*
X136813237Y-78245091D01*
X136731382Y-78181381D01*
X136635576Y-78106811D01*
X136437574Y-77999658D01*
X136437572Y-77999657D01*
X136437571Y-77999656D01*
X136224639Y-77926557D01*
X136224630Y-77926555D01*
X136180476Y-77919187D01*
X136002569Y-77889500D01*
X135777431Y-77889500D01*
X135629210Y-77914233D01*
X135555369Y-77926555D01*
X135555360Y-77926557D01*
X135342428Y-77999656D01*
X135342426Y-77999658D01*
X135144426Y-78106810D01*
X135144424Y-78106811D01*
X134966762Y-78245091D01*
X134814279Y-78410729D01*
X134725483Y-78546643D01*
X134671479Y-78592731D01*
X134601131Y-78602306D01*
X134536774Y-78572329D01*
X134514517Y-78546643D01*
X134425720Y-78410729D01*
X134273237Y-78245091D01*
X134191382Y-78181381D01*
X134095576Y-78106811D01*
X133897574Y-77999658D01*
X133897572Y-77999657D01*
X133897571Y-77999656D01*
X133684639Y-77926557D01*
X133684630Y-77926555D01*
X133640476Y-77919187D01*
X133462569Y-77889500D01*
X133237431Y-77889500D01*
X133089211Y-77914233D01*
X133015369Y-77926555D01*
X133015360Y-77926557D01*
X132802428Y-77999656D01*
X132802426Y-77999658D01*
X132604426Y-78106810D01*
X132604424Y-78106811D01*
X132426762Y-78245091D01*
X132274279Y-78410729D01*
X132185483Y-78546643D01*
X132131479Y-78592731D01*
X132061131Y-78602306D01*
X131996774Y-78572329D01*
X131974517Y-78546643D01*
X131885720Y-78410729D01*
X131733237Y-78245091D01*
X131651382Y-78181381D01*
X131555576Y-78106811D01*
X131357574Y-77999658D01*
X131357572Y-77999657D01*
X131357571Y-77999656D01*
X131144639Y-77926557D01*
X131144630Y-77926555D01*
X131100476Y-77919187D01*
X130922569Y-77889500D01*
X130697431Y-77889500D01*
X130549210Y-77914233D01*
X130475369Y-77926555D01*
X130475360Y-77926557D01*
X130262428Y-77999656D01*
X130262426Y-77999658D01*
X130064426Y-78106810D01*
X130064424Y-78106811D01*
X129886762Y-78245091D01*
X129734279Y-78410729D01*
X129645483Y-78546643D01*
X129591479Y-78592731D01*
X129521131Y-78602306D01*
X129456774Y-78572329D01*
X129434517Y-78546643D01*
X129345720Y-78410729D01*
X129193237Y-78245091D01*
X129111382Y-78181381D01*
X129015576Y-78106811D01*
X128817574Y-77999658D01*
X128817572Y-77999657D01*
X128817571Y-77999656D01*
X128604639Y-77926557D01*
X128604630Y-77926555D01*
X128560476Y-77919187D01*
X128382569Y-77889500D01*
X128157431Y-77889500D01*
X128009211Y-77914233D01*
X127935369Y-77926555D01*
X127935360Y-77926557D01*
X127722428Y-77999656D01*
X127722426Y-77999658D01*
X127524426Y-78106810D01*
X127524424Y-78106811D01*
X127346762Y-78245091D01*
X127194279Y-78410729D01*
X127194279Y-78410730D01*
X127105482Y-78546643D01*
X127051478Y-78592731D01*
X126981130Y-78602306D01*
X126916773Y-78572328D01*
X126894516Y-78546642D01*
X126805724Y-78410734D01*
X126805720Y-78410729D01*
X126653237Y-78245091D01*
X126571382Y-78181381D01*
X126475576Y-78106811D01*
X126277574Y-77999658D01*
X126277572Y-77999657D01*
X126277571Y-77999656D01*
X126064639Y-77926557D01*
X126064630Y-77926555D01*
X126020476Y-77919187D01*
X125842569Y-77889500D01*
X125617431Y-77889500D01*
X125469211Y-77914233D01*
X125395369Y-77926555D01*
X125395360Y-77926557D01*
X125182428Y-77999656D01*
X125182426Y-77999658D01*
X124984426Y-78106810D01*
X124984424Y-78106811D01*
X124806762Y-78245091D01*
X124654279Y-78410729D01*
X124565483Y-78546643D01*
X124511479Y-78592731D01*
X124441131Y-78602306D01*
X124376774Y-78572329D01*
X124354517Y-78546643D01*
X124265720Y-78410729D01*
X124113237Y-78245091D01*
X124031382Y-78181381D01*
X123935576Y-78106811D01*
X123737574Y-77999658D01*
X123737572Y-77999657D01*
X123737571Y-77999656D01*
X123524639Y-77926557D01*
X123524630Y-77926555D01*
X123480476Y-77919187D01*
X123302569Y-77889500D01*
X123077431Y-77889500D01*
X122929211Y-77914233D01*
X122855369Y-77926555D01*
X122855360Y-77926557D01*
X122642428Y-77999656D01*
X122642426Y-77999658D01*
X122444426Y-78106810D01*
X122444424Y-78106811D01*
X122266762Y-78245091D01*
X122114279Y-78410729D01*
X122025483Y-78546643D01*
X121971479Y-78592731D01*
X121901131Y-78602306D01*
X121836774Y-78572329D01*
X121814517Y-78546643D01*
X121725720Y-78410729D01*
X121573237Y-78245091D01*
X121491382Y-78181381D01*
X121395576Y-78106811D01*
X121197574Y-77999658D01*
X121197572Y-77999657D01*
X121197571Y-77999656D01*
X120984639Y-77926557D01*
X120984630Y-77926555D01*
X120940476Y-77919187D01*
X120762569Y-77889500D01*
X120537431Y-77889500D01*
X120389211Y-77914233D01*
X120315369Y-77926555D01*
X120315360Y-77926557D01*
X120102428Y-77999656D01*
X120102426Y-77999658D01*
X119904426Y-78106810D01*
X119904424Y-78106811D01*
X119726762Y-78245091D01*
X119574279Y-78410729D01*
X119574279Y-78410730D01*
X119485482Y-78546643D01*
X119431478Y-78592731D01*
X119361130Y-78602306D01*
X119296773Y-78572328D01*
X119274516Y-78546642D01*
X119185724Y-78410734D01*
X119185720Y-78410729D01*
X119033237Y-78245091D01*
X118951382Y-78181381D01*
X118855576Y-78106811D01*
X118657574Y-77999658D01*
X118657572Y-77999657D01*
X118657571Y-77999656D01*
X118444639Y-77926557D01*
X118444630Y-77926555D01*
X118400476Y-77919187D01*
X118222569Y-77889500D01*
X117997431Y-77889500D01*
X117849211Y-77914233D01*
X117775369Y-77926555D01*
X117775360Y-77926557D01*
X117562428Y-77999656D01*
X117562426Y-77999658D01*
X117364426Y-78106810D01*
X117364424Y-78106811D01*
X117186762Y-78245091D01*
X117034279Y-78410729D01*
X116945483Y-78546643D01*
X116891479Y-78592731D01*
X116821131Y-78602306D01*
X116756774Y-78572329D01*
X116734517Y-78546643D01*
X116645720Y-78410729D01*
X116493237Y-78245091D01*
X116411382Y-78181381D01*
X116315576Y-78106811D01*
X116117574Y-77999658D01*
X116117572Y-77999657D01*
X116117571Y-77999656D01*
X115904639Y-77926557D01*
X115904630Y-77926555D01*
X115860476Y-77919187D01*
X115682569Y-77889500D01*
X115457431Y-77889500D01*
X115309211Y-77914233D01*
X115235369Y-77926555D01*
X115235360Y-77926557D01*
X115022428Y-77999656D01*
X115022426Y-77999658D01*
X114824426Y-78106810D01*
X114824424Y-78106811D01*
X114646762Y-78245091D01*
X114494279Y-78410729D01*
X114405483Y-78546643D01*
X114351479Y-78592731D01*
X114281131Y-78602306D01*
X114216774Y-78572329D01*
X114194517Y-78546643D01*
X114105720Y-78410729D01*
X113953237Y-78245091D01*
X113871382Y-78181381D01*
X113775576Y-78106811D01*
X113577574Y-77999658D01*
X113577572Y-77999657D01*
X113577571Y-77999656D01*
X113364639Y-77926557D01*
X113364630Y-77926555D01*
X113320476Y-77919187D01*
X113142569Y-77889500D01*
X112917431Y-77889500D01*
X112769210Y-77914233D01*
X112695369Y-77926555D01*
X112695360Y-77926557D01*
X112482428Y-77999656D01*
X112482426Y-77999658D01*
X112284426Y-78106810D01*
X112284424Y-78106811D01*
X112106762Y-78245091D01*
X111954279Y-78410729D01*
X111865483Y-78546643D01*
X111811479Y-78592731D01*
X111741131Y-78602306D01*
X111676774Y-78572329D01*
X111654517Y-78546643D01*
X111565720Y-78410729D01*
X111413237Y-78245091D01*
X111331382Y-78181381D01*
X111235576Y-78106811D01*
X111037574Y-77999658D01*
X111037572Y-77999657D01*
X111037571Y-77999656D01*
X110824639Y-77926557D01*
X110824630Y-77926555D01*
X110780476Y-77919187D01*
X110602569Y-77889500D01*
X110377431Y-77889500D01*
X110229211Y-77914233D01*
X110155369Y-77926555D01*
X110155360Y-77926557D01*
X109942428Y-77999656D01*
X109942426Y-77999658D01*
X109744426Y-78106810D01*
X109744424Y-78106811D01*
X109566762Y-78245091D01*
X109414279Y-78410729D01*
X109325483Y-78546643D01*
X109271479Y-78592731D01*
X109201131Y-78602306D01*
X109136774Y-78572329D01*
X109114517Y-78546643D01*
X109025720Y-78410729D01*
X108873237Y-78245091D01*
X108791382Y-78181381D01*
X108695576Y-78106811D01*
X108497574Y-77999658D01*
X108497572Y-77999657D01*
X108497571Y-77999656D01*
X108284639Y-77926557D01*
X108284630Y-77926555D01*
X108240476Y-77919187D01*
X108062569Y-77889500D01*
X107837431Y-77889500D01*
X107689210Y-77914233D01*
X107615369Y-77926555D01*
X107615360Y-77926557D01*
X107402428Y-77999656D01*
X107402426Y-77999658D01*
X107204426Y-78106810D01*
X107204424Y-78106811D01*
X107026762Y-78245091D01*
X106874279Y-78410729D01*
X106874279Y-78410730D01*
X106785482Y-78546643D01*
X106731478Y-78592731D01*
X106661130Y-78602306D01*
X106596773Y-78572328D01*
X106574516Y-78546642D01*
X106485724Y-78410734D01*
X106485720Y-78410729D01*
X106333237Y-78245091D01*
X106251382Y-78181381D01*
X106155576Y-78106811D01*
X105957574Y-77999658D01*
X105957572Y-77999657D01*
X105957571Y-77999656D01*
X105744639Y-77926557D01*
X105744630Y-77926555D01*
X105700476Y-77919187D01*
X105522569Y-77889500D01*
X105297431Y-77889500D01*
X105149211Y-77914233D01*
X105075369Y-77926555D01*
X105075360Y-77926557D01*
X104862428Y-77999656D01*
X104862426Y-77999658D01*
X104664426Y-78106810D01*
X104664424Y-78106811D01*
X104486762Y-78245091D01*
X104334279Y-78410729D01*
X104245483Y-78546643D01*
X104191479Y-78592731D01*
X104121131Y-78602306D01*
X104056774Y-78572329D01*
X104034517Y-78546643D01*
X103945720Y-78410729D01*
X103793237Y-78245091D01*
X103711382Y-78181381D01*
X103615576Y-78106811D01*
X103417574Y-77999658D01*
X103417572Y-77999657D01*
X103417571Y-77999656D01*
X103204639Y-77926557D01*
X103204630Y-77926555D01*
X103160476Y-77919187D01*
X102982569Y-77889500D01*
X102757431Y-77889500D01*
X102609211Y-77914233D01*
X102535369Y-77926555D01*
X102535360Y-77926557D01*
X102322428Y-77999656D01*
X102322426Y-77999658D01*
X102124426Y-78106810D01*
X102124424Y-78106811D01*
X101946762Y-78245091D01*
X101794279Y-78410729D01*
X101705483Y-78546643D01*
X101651479Y-78592731D01*
X101581131Y-78602306D01*
X101516774Y-78572329D01*
X101494517Y-78546643D01*
X101405720Y-78410729D01*
X101253237Y-78245091D01*
X101171382Y-78181381D01*
X101075576Y-78106811D01*
X100877574Y-77999658D01*
X100877572Y-77999657D01*
X100877571Y-77999656D01*
X100664639Y-77926557D01*
X100664630Y-77926555D01*
X100620476Y-77919187D01*
X100442569Y-77889500D01*
X100217431Y-77889500D01*
X100069211Y-77914233D01*
X99995369Y-77926555D01*
X99995360Y-77926557D01*
X99782428Y-77999656D01*
X99782426Y-77999658D01*
X99584426Y-78106810D01*
X99584424Y-78106811D01*
X99406762Y-78245091D01*
X99254279Y-78410729D01*
X99254279Y-78410730D01*
X99165482Y-78546643D01*
X99111478Y-78592731D01*
X99041130Y-78602306D01*
X98976773Y-78572328D01*
X98954516Y-78546642D01*
X98865724Y-78410734D01*
X98865720Y-78410729D01*
X98713237Y-78245091D01*
X98631382Y-78181381D01*
X98535576Y-78106811D01*
X98337574Y-77999658D01*
X98337572Y-77999657D01*
X98337571Y-77999656D01*
X98124639Y-77926557D01*
X98124630Y-77926555D01*
X98080476Y-77919187D01*
X97902569Y-77889500D01*
X97677431Y-77889500D01*
X97529211Y-77914233D01*
X97455369Y-77926555D01*
X97455360Y-77926557D01*
X97242428Y-77999656D01*
X97242426Y-77999658D01*
X97044426Y-78106810D01*
X97044424Y-78106811D01*
X96866762Y-78245091D01*
X96714279Y-78410729D01*
X96625483Y-78546643D01*
X96571479Y-78592731D01*
X96501131Y-78602306D01*
X96436774Y-78572329D01*
X96414517Y-78546643D01*
X96325720Y-78410729D01*
X96173237Y-78245091D01*
X96091382Y-78181381D01*
X95995576Y-78106811D01*
X95797574Y-77999658D01*
X95797572Y-77999657D01*
X95797571Y-77999656D01*
X95584639Y-77926557D01*
X95584630Y-77926555D01*
X95540476Y-77919187D01*
X95362569Y-77889500D01*
X95137431Y-77889500D01*
X94989210Y-77914233D01*
X94915369Y-77926555D01*
X94915360Y-77926557D01*
X94702428Y-77999656D01*
X94702426Y-77999658D01*
X94504426Y-78106810D01*
X94504424Y-78106811D01*
X94326762Y-78245091D01*
X94174279Y-78410729D01*
X94085483Y-78546643D01*
X94031479Y-78592731D01*
X93961131Y-78602306D01*
X93896774Y-78572329D01*
X93874517Y-78546643D01*
X93785720Y-78410729D01*
X93633237Y-78245091D01*
X93551382Y-78181381D01*
X93455576Y-78106811D01*
X93257574Y-77999658D01*
X93257572Y-77999657D01*
X93257571Y-77999656D01*
X93044639Y-77926557D01*
X93044630Y-77926555D01*
X93000476Y-77919187D01*
X92822569Y-77889500D01*
X92597431Y-77889500D01*
X92449210Y-77914233D01*
X92375369Y-77926555D01*
X92375360Y-77926557D01*
X92162428Y-77999656D01*
X92162426Y-77999658D01*
X91964426Y-78106810D01*
X91964424Y-78106811D01*
X91786762Y-78245091D01*
X91634279Y-78410729D01*
X91545483Y-78546643D01*
X91491479Y-78592731D01*
X91421131Y-78602306D01*
X91356774Y-78572329D01*
X91334517Y-78546643D01*
X91245720Y-78410729D01*
X91093237Y-78245091D01*
X91011382Y-78181381D01*
X90915576Y-78106811D01*
X90717574Y-77999658D01*
X90717572Y-77999657D01*
X90717571Y-77999656D01*
X90504639Y-77926557D01*
X90504630Y-77926555D01*
X90460476Y-77919187D01*
X90282569Y-77889500D01*
X90057431Y-77889500D01*
X89909210Y-77914233D01*
X89835369Y-77926555D01*
X89835360Y-77926557D01*
X89622428Y-77999656D01*
X89622426Y-77999658D01*
X89424426Y-78106810D01*
X89424424Y-78106811D01*
X89246762Y-78245091D01*
X89094279Y-78410729D01*
X89005483Y-78546643D01*
X88951479Y-78592731D01*
X88881131Y-78602306D01*
X88816774Y-78572329D01*
X88794517Y-78546643D01*
X88705720Y-78410729D01*
X88553237Y-78245091D01*
X88471382Y-78181381D01*
X88375576Y-78106811D01*
X88177574Y-77999658D01*
X88177572Y-77999657D01*
X88177571Y-77999656D01*
X87964639Y-77926557D01*
X87964630Y-77926555D01*
X87920476Y-77919187D01*
X87742569Y-77889500D01*
X87517431Y-77889500D01*
X87369210Y-77914233D01*
X87295369Y-77926555D01*
X87295360Y-77926557D01*
X87082428Y-77999656D01*
X87082426Y-77999658D01*
X86884426Y-78106810D01*
X86884424Y-78106811D01*
X86706762Y-78245091D01*
X86554279Y-78410729D01*
X86465483Y-78546643D01*
X86411479Y-78592731D01*
X86341131Y-78602306D01*
X86276774Y-78572329D01*
X86254517Y-78546643D01*
X86165720Y-78410729D01*
X86013237Y-78245091D01*
X85931382Y-78181381D01*
X85835576Y-78106811D01*
X85637574Y-77999658D01*
X85637572Y-77999657D01*
X85637571Y-77999656D01*
X85424639Y-77926557D01*
X85424630Y-77926555D01*
X85380476Y-77919187D01*
X85202569Y-77889500D01*
X84977431Y-77889500D01*
X84829210Y-77914233D01*
X84755369Y-77926555D01*
X84755360Y-77926557D01*
X84542428Y-77999656D01*
X84542426Y-77999658D01*
X84344426Y-78106810D01*
X84344424Y-78106811D01*
X84166762Y-78245091D01*
X84014279Y-78410729D01*
X83925483Y-78546643D01*
X83871479Y-78592731D01*
X83801131Y-78602306D01*
X83736774Y-78572329D01*
X83714517Y-78546643D01*
X83625720Y-78410729D01*
X83473237Y-78245091D01*
X83391382Y-78181381D01*
X83295576Y-78106811D01*
X83097574Y-77999658D01*
X83097572Y-77999657D01*
X83097571Y-77999656D01*
X82884639Y-77926557D01*
X82884630Y-77926555D01*
X82840476Y-77919187D01*
X82662569Y-77889500D01*
X82437431Y-77889500D01*
X82289210Y-77914233D01*
X82215369Y-77926555D01*
X82215360Y-77926557D01*
X82002428Y-77999656D01*
X82002426Y-77999658D01*
X81804426Y-78106810D01*
X81804424Y-78106811D01*
X81626762Y-78245091D01*
X81474279Y-78410729D01*
X81385483Y-78546643D01*
X81331479Y-78592731D01*
X81261131Y-78602306D01*
X81196774Y-78572329D01*
X81174517Y-78546643D01*
X81085720Y-78410729D01*
X80933237Y-78245091D01*
X80851382Y-78181381D01*
X80755576Y-78106811D01*
X80557574Y-77999658D01*
X80557572Y-77999657D01*
X80557571Y-77999656D01*
X80344639Y-77926557D01*
X80344630Y-77926555D01*
X80300476Y-77919187D01*
X80122569Y-77889500D01*
X79897431Y-77889500D01*
X79749210Y-77914233D01*
X79675369Y-77926555D01*
X79675360Y-77926557D01*
X79462428Y-77999656D01*
X79462426Y-77999658D01*
X79264426Y-78106810D01*
X79264424Y-78106811D01*
X79086762Y-78245091D01*
X78934279Y-78410729D01*
X78845483Y-78546643D01*
X78791479Y-78592731D01*
X78721131Y-78602306D01*
X78656774Y-78572329D01*
X78634517Y-78546643D01*
X78545720Y-78410729D01*
X78393237Y-78245091D01*
X78311382Y-78181381D01*
X78215576Y-78106811D01*
X78017574Y-77999658D01*
X78017572Y-77999657D01*
X78017571Y-77999656D01*
X77804639Y-77926557D01*
X77804630Y-77926555D01*
X77760476Y-77919187D01*
X77582569Y-77889500D01*
X77357431Y-77889500D01*
X77209210Y-77914233D01*
X77135369Y-77926555D01*
X77135360Y-77926557D01*
X76922428Y-77999656D01*
X76922426Y-77999658D01*
X76724426Y-78106810D01*
X76724424Y-78106811D01*
X76546762Y-78245091D01*
X76394279Y-78410729D01*
X76305483Y-78546643D01*
X76251479Y-78592731D01*
X76181131Y-78602306D01*
X76116774Y-78572329D01*
X76094517Y-78546643D01*
X76005720Y-78410729D01*
X75853237Y-78245091D01*
X75771382Y-78181381D01*
X75675576Y-78106811D01*
X75477574Y-77999658D01*
X75477572Y-77999657D01*
X75477571Y-77999656D01*
X75264639Y-77926557D01*
X75264630Y-77926555D01*
X75220476Y-77919187D01*
X75042569Y-77889500D01*
X74817431Y-77889500D01*
X74669210Y-77914233D01*
X74595369Y-77926555D01*
X74595360Y-77926557D01*
X74382428Y-77999656D01*
X74382426Y-77999658D01*
X74184426Y-78106810D01*
X74184424Y-78106811D01*
X74006762Y-78245091D01*
X73854279Y-78410729D01*
X73854275Y-78410734D01*
X73731141Y-78599206D01*
X73640703Y-78805386D01*
X73640702Y-78805387D01*
X73585437Y-79023624D01*
X73566844Y-79248000D01*
X73585437Y-79472375D01*
X73640702Y-79690612D01*
X73640703Y-79690613D01*
X73731141Y-79896793D01*
X73854275Y-80085265D01*
X73854279Y-80085270D01*
X74006762Y-80250908D01*
X74061331Y-80293381D01*
X74184424Y-80389189D01*
X74217680Y-80407186D01*
X74268071Y-80457200D01*
X74283423Y-80526516D01*
X74258862Y-80593129D01*
X74217680Y-80628813D01*
X74184426Y-80646810D01*
X74184424Y-80646811D01*
X74006762Y-80785091D01*
X73854279Y-80950729D01*
X73854275Y-80950734D01*
X73731141Y-81139206D01*
X73640703Y-81345386D01*
X73640702Y-81345387D01*
X73585437Y-81563624D01*
X73585436Y-81563630D01*
X73585436Y-81563632D01*
X73566844Y-81788000D01*
X71635798Y-81788000D01*
X71637584Y-80606500D01*
X71646471Y-74728578D01*
X71646551Y-74728308D01*
X71646551Y-74677772D01*
X71646650Y-74674239D01*
X71647654Y-74656347D01*
X71653305Y-74555729D01*
X71663374Y-74388823D01*
X71664147Y-74382082D01*
X71687990Y-74241758D01*
X71714464Y-74097300D01*
X71715885Y-74091254D01*
X71755919Y-73952295D01*
X71756244Y-73951210D01*
X71799083Y-73813737D01*
X71801015Y-73808399D01*
X71856777Y-73673781D01*
X71857432Y-73672265D01*
X71916086Y-73541942D01*
X71918360Y-73537398D01*
X71989078Y-73409446D01*
X71990267Y-73407390D01*
X72063882Y-73285619D01*
X72066351Y-73281853D01*
X72151125Y-73162377D01*
X72152831Y-73160091D01*
X72240462Y-73048239D01*
X72243010Y-73045196D01*
X72340691Y-72935893D01*
X72343033Y-72933417D01*
X72443446Y-72833005D01*
X72445947Y-72830641D01*
X72555237Y-72732976D01*
X72558310Y-72730404D01*
X72670132Y-72642800D01*
X72672415Y-72641098D01*
X72791883Y-72556333D01*
X72795678Y-72553843D01*
X72917462Y-72480225D01*
X72919468Y-72479064D01*
X73047454Y-72408331D01*
X73051985Y-72406064D01*
X73182322Y-72347407D01*
X73183848Y-72346748D01*
X73318453Y-72290995D01*
X73323777Y-72289068D01*
X73461238Y-72246235D01*
X73462300Y-72245917D01*
X73601326Y-72205867D01*
X73607347Y-72204452D01*
X73751817Y-72177979D01*
X73892158Y-72154137D01*
X73898873Y-72153365D01*
X74058771Y-72143696D01*
X74185200Y-72136598D01*
X74188722Y-72136500D01*
X149114287Y-72136500D01*
X149117814Y-72136598D01*
G37*
%TD.AperFunction*%
%TD*%
M02*
