M48
; DRILL file {KiCad (5.99.0-7356-g63088e8bdb)} date Tue Dec 15 21:08:49 2020
; FORMAT={-:-/ absolute / metric / decimal}
; #@! TF.CreationDate,2020-12-15T21:08:49+08:00
; #@! TF.GenerationSoftware,Kicad,Pcbnew,(5.99.0-7356-g63088e8bdb)
; #@! TF.FileFunction,Plated,1,2,PTH
FMAT,2
METRIC
T1C0.300
T2C0.400
T3C0.800
T4C0.900
T5C1.000
T6C1.100
T7C3.200
%
G90
G05
T1
X42.164Y-103.378
X42.926Y-104.14
X43.688Y-104.902
X44.45Y-105.664
X45.212Y-106.426
X45.974Y-107.188
X46.736Y-107.95
X47.498Y-73.66
X48.26Y-74.422
X49.022Y-75.184
X49.784Y-75.946
X50.546Y-76.708
X51.308Y-77.47
X52.07Y-78.232
X52.832Y-78.994
X53.594Y-85.852
X54.356Y-86.614
X55.118Y-87.376
X55.88Y-88.138
X56.642Y-88.9
X57.404Y-89.662
X58.166Y-90.424
X61.722Y-79.756
X61.722Y-146.304
X62.484Y-80.518
X62.484Y-146.812
X63.246Y-81.28
X63.246Y-147.574
X64.008Y-82.042
X64.008Y-148.082
X64.77Y-82.804
X64.77Y-147.574
X65.532Y-83.566
X65.532Y-146.812
X66.294Y-84.328
X66.294Y-146.304
X67.056Y-85.09
X67.056Y-145.796
X67.818Y-109.728
X69.088Y-107.95
X69.85Y-107.188
X70.612Y-102.616
X71.374Y-104.902
X72.136Y-98.044
X72.898Y-98.806
X73.66Y-99.568
X74.422Y-100.33
X75.184Y-101.092
X75.946Y-101.854
X83.058Y-79.756
X83.82Y-80.518
X84.582Y-81.28
X85.344Y-82.042
X86.106Y-82.804
X86.868Y-83.566
X87.63Y-84.328
X88.392Y-85.09
X89.154Y-88.9
X89.916Y-90.424
X90.678Y-73.66
X91.44Y-74.422
X91.948Y-150.876
X92.202Y-75.184
X92.71Y-150.114
X92.964Y-75.946
X93.472Y-149.352
X93.726Y-76.708
X94.234Y-158.496
X94.488Y-77.47
X94.996Y-152.4
X95.25Y-78.232
X96.012Y-78.994
X96.774Y-79.756
X97.536Y-80.518
X98.298Y-81.28
X99.06Y-82.042
X99.822Y-82.804
X100.584Y-83.566
X101.346Y-84.328
X102.108Y-85.09
X102.87Y-85.852
X103.632Y-86.614
X104.394Y-87.376
X104.394Y-103.378
X105.156Y-88.138
X105.918Y-88.9
X106.68Y-89.662
X107.442Y-90.424
X108.204Y-86.614
X108.966Y-89.662
X109.728Y-85.852
X110.998Y-144.272
X112.268Y-145.034
X112.776Y-90.424
X113.03Y-145.796
X113.538Y-79.756
X113.792Y-148.59
X114.3Y-106.426
X114.3Y-107.95
X114.808Y-148.59
X115.062Y-105.664
X115.824Y-78.994
X115.824Y-80.518
X116.586Y-78.232
X116.586Y-81.28
X117.348Y-77.47
X117.348Y-82.042
X118.11Y-76.708
X118.11Y-82.804
X118.872Y-75.946
X118.872Y-83.566
X119.634Y-75.184
X119.634Y-84.328
X120.396Y-74.422
X120.396Y-85.09
X121.158Y-73.66
X121.158Y-89.662
X121.92Y-88.9
X122.682Y-88.138
X123.444Y-87.376
X124.206Y-86.614
X124.968Y-85.852
X125.73Y-104.14
X129.54Y-75.184
X130.302Y-75.946
X131.064Y-74.422
X131.826Y-73.66
X132.588Y-76.708
X133.35Y-77.47
X142.494Y-107.95
X143.256Y-98.044
X144.018Y-98.806
X144.69Y-150.876
X144.78Y-99.568
X145.542Y-100.33
X145.96Y-150.114
X146.304Y-101.092
X147.066Y-101.854
X147.23Y-149.352
X147.828Y-104.902
X148.59Y-102.616
X148.59Y-151.638
X149.352Y-107.188
X149.77Y-158.496
X151.04Y-157.734
X152.31Y-156.972
X153.58Y-156.21
X154.85Y-155.448
X156.12Y-154.686
X157.39Y-153.924
X158.66Y-153.162
X159.93Y-152.4
T2
X68.072Y-108.712
X112.014Y-108.712
X133.514Y-165.495
X143.674Y-165.495
T3
X37.846Y-133.898
X37.846Y-136.398
X40.64Y-113.538
X40.64Y-116.078
X40.64Y-118.618
X40.64Y-121.158
X40.64Y-123.698
X40.64Y-126.238
X40.64Y-128.778
X40.64Y-131.318
X40.64Y-133.858
X40.64Y-136.398
X40.64Y-138.938
X40.64Y-141.478
X40.64Y-144.018
X40.64Y-146.558
X40.64Y-149.098
X40.64Y-151.638
X40.64Y-154.178
X40.64Y-156.718
X40.64Y-159.258
X40.64Y-161.798
X45.212Y-46.482
X45.212Y-49.53
X45.212Y-52.578
X45.212Y-55.626
X45.212Y-58.674
X45.212Y-61.722
X45.212Y-64.77
X45.212Y-67.818
X45.212Y-70.866
X55.372Y-46.482
X55.372Y-49.53
X55.372Y-52.578
X55.372Y-55.626
X55.372Y-58.674
X55.372Y-61.722
X55.372Y-64.77
X55.372Y-67.818
X55.372Y-70.866
X55.88Y-113.538
X55.88Y-116.078
X55.88Y-118.618
X55.88Y-121.158
X55.88Y-123.698
X55.88Y-126.238
X55.88Y-128.778
X55.88Y-131.318
X55.88Y-133.858
X55.88Y-136.398
X55.88Y-138.938
X55.88Y-141.478
X55.88Y-144.018
X55.88Y-146.558
X55.88Y-149.098
X55.88Y-151.638
X55.88Y-154.178
X55.88Y-156.718
X55.88Y-159.258
X55.88Y-161.798
X60.198Y-136.938
X60.198Y-138.938
X71.374Y-130.81
X71.374Y-146.05
X78.994Y-130.81
X78.994Y-146.05
X90.364Y-113.538
X90.364Y-116.078
X90.364Y-118.618
X90.364Y-121.158
X90.364Y-123.698
X90.364Y-126.238
X90.364Y-128.778
X90.364Y-131.318
X90.364Y-133.858
X90.364Y-136.398
X90.364Y-138.938
X90.364Y-141.478
X90.364Y-144.018
X90.364Y-146.558
X105.604Y-113.538
X105.604Y-116.078
X105.604Y-118.618
X105.604Y-121.158
X105.604Y-123.698
X105.604Y-126.238
X105.604Y-128.778
X105.604Y-131.318
X105.604Y-133.858
X105.604Y-136.398
X105.604Y-138.938
X105.604Y-141.478
X105.604Y-144.018
X105.604Y-146.558
X108.458Y-111.038
X108.458Y-113.538
X112.268Y-128.778
X112.268Y-131.278
X115.276Y-113.538
X115.276Y-116.078
X115.276Y-118.618
X115.276Y-121.158
X115.276Y-123.698
X115.276Y-126.238
X115.276Y-128.778
X115.276Y-131.318
X115.276Y-133.858
X115.276Y-136.398
X115.276Y-138.938
X115.276Y-141.478
X115.276Y-144.018
X115.276Y-146.558
X122.896Y-113.538
X122.896Y-116.078
X122.896Y-118.618
X122.896Y-121.158
X122.896Y-123.698
X122.896Y-126.238
X122.896Y-128.778
X122.896Y-131.318
X122.896Y-133.858
X122.896Y-136.398
X122.896Y-138.938
X122.896Y-141.478
X122.896Y-144.018
X122.896Y-146.558
X127.254Y-131.858
X127.254Y-133.858
X130.556Y-48.149
X130.556Y-53.737
X130.556Y-58.637
X130.556Y-64.151
X132.588Y-113.538
X132.588Y-116.078
X132.588Y-118.618
X132.588Y-121.158
X132.588Y-123.698
X132.588Y-126.238
X132.588Y-128.778
X132.588Y-131.318
X133.056Y-48.149
X133.056Y-64.151
X138.176Y-53.848
X138.176Y-56.348
X140.208Y-113.538
X140.208Y-116.078
X140.208Y-118.618
X140.208Y-121.158
X140.208Y-123.698
X140.208Y-126.238
X140.208Y-128.778
X140.208Y-131.318
X140.97Y-38.608
X140.97Y-41.148
X140.97Y-43.688
X140.97Y-46.228
X140.97Y-48.768
X140.97Y-51.308
X140.97Y-53.848
X140.97Y-56.388
X140.97Y-58.928
X140.97Y-61.468
X140.97Y-64.008
X140.97Y-66.548
X140.97Y-69.088
X140.97Y-71.628
X143.764Y-114.3
X143.764Y-117.348
X143.764Y-120.396
X143.764Y-123.444
X143.764Y-126.492
X143.764Y-129.54
X148.59Y-38.608
X148.59Y-41.148
X148.59Y-43.688
X148.59Y-46.228
X148.59Y-48.768
X148.59Y-51.308
X148.59Y-53.848
X148.59Y-56.388
X148.59Y-58.928
X148.59Y-61.468
X148.59Y-64.008
X148.59Y-66.548
X148.59Y-69.088
X148.59Y-71.628
X152.908Y-56.928
X152.908Y-58.928
X153.924Y-114.3
X153.924Y-117.348
X153.924Y-120.396
X153.924Y-123.444
X153.924Y-126.492
X153.924Y-129.54
X154.2Y-66.548
X161.036Y-85.598
X161.036Y-95.758
X161.719Y-59.955
X164.219Y-59.955
X164.338Y-51.562
X164.338Y-53.562
X164.36Y-66.548
T4
X161.036Y-77.724
X161.036Y-80.264
T5
X61.917Y-35.011
X61.917Y-37.551
X61.917Y-40.091
X61.917Y-42.631
X61.917Y-45.171
X61.917Y-47.711
X61.917Y-50.251
X61.917Y-52.791
X61.917Y-55.331
X61.917Y-57.871
X61.917Y-60.411
X61.917Y-62.951
X61.917Y-65.491
X61.917Y-68.031
X61.917Y-70.571
X65.532Y-33.741
X65.532Y-36.281
X65.532Y-38.821
X65.532Y-41.361
X65.532Y-43.901
X65.532Y-46.441
X65.532Y-48.981
X65.532Y-51.521
X65.532Y-54.061
X65.532Y-56.601
X65.532Y-59.141
X65.532Y-61.681
X65.532Y-64.221
X65.532Y-66.761
X65.532Y-69.301
X108.537Y-35.011
X108.537Y-37.551
X108.537Y-40.091
X108.537Y-42.631
X108.537Y-45.171
X108.537Y-47.711
X108.537Y-50.251
X108.537Y-52.791
X108.537Y-55.331
X108.537Y-57.871
X108.537Y-60.411
X108.537Y-62.951
X108.537Y-65.491
X108.537Y-68.031
X108.537Y-70.571
X112.166Y-33.741
X112.166Y-36.281
X112.166Y-38.821
X112.166Y-41.361
X112.166Y-43.901
X112.166Y-46.441
X112.166Y-48.981
X112.166Y-51.521
X112.166Y-54.061
X112.166Y-56.601
X112.166Y-59.141
X112.166Y-61.681
X112.166Y-64.221
X112.166Y-66.761
X112.166Y-69.301
X125.64Y-179.832
X125.64Y-182.372
X128.18Y-179.832
X128.18Y-182.372
X130.72Y-179.832
X130.72Y-182.372
X133.26Y-179.832
X133.26Y-182.372
X135.8Y-179.832
X135.8Y-182.372
X138.34Y-179.832
X138.34Y-182.372
X140.88Y-179.832
X140.88Y-182.372
X143.42Y-179.832
X143.42Y-182.372
X145.96Y-179.832
X145.96Y-182.372
X148.5Y-179.832
X148.5Y-182.372
X151.04Y-179.832
X151.04Y-182.372
X153.58Y-179.832
X153.58Y-182.372
X156.12Y-179.832
X156.12Y-182.372
X157.48Y-118.11
X157.48Y-120.4
X157.48Y-122.69
X157.48Y-124.98
X157.48Y-127.27
X158.66Y-179.832
X158.66Y-182.372
X159.46Y-116.965
X159.46Y-119.255
X159.46Y-121.545
X159.46Y-123.835
X159.46Y-126.125
X161.44Y-118.11
X161.44Y-120.4
X161.44Y-122.69
X161.44Y-124.98
X161.44Y-127.27
T6
X48.946Y-165.964
X48.946Y-170.464
X55.446Y-165.964
X55.446Y-170.464
T7
X29.973Y-31.102
X29.973Y-181.102
X158.9Y-109.925
X158.9Y-134.925
X164.973Y-31.102
X164.973Y-181.102
T5
G00X158.724Y-43.156
M15
G01X158.724Y-44.156
M16
G05
G00X164.224Y-43.156
M15
G01X164.224Y-44.156
M16
G05
G00X166.624Y-41.156
M15
G01X166.624Y-42.156
M16
G05
T0
M30
