%TF.GenerationSoftware,KiCad,Pcbnew,(5.99.0-7356-g63088e8bdb)*%
%TF.CreationDate,2020-12-15T21:09:31+08:00*%
%TF.ProjectId,AdapterROM,41646170-7465-4725-924f-4d2e6b696361,rev?*%
%TF.SameCoordinates,Original*%
%TF.FileFunction,Soldermask,Top*%
%TF.FilePolarity,Negative*%
%FSLAX46Y46*%
G04 Gerber Fmt 4.6, Leading zero omitted, Abs format (unit mm)*
G04 Created by KiCad (PCBNEW (5.99.0-7356-g63088e8bdb)) date 2020-12-15 21:09:31*
%MOMM*%
%LPD*%
G01*
G04 APERTURE LIST*
%ADD10R,1.700000X1.700000*%
%ADD11O,1.700000X1.700000*%
%ADD12R,1.600000X1.600000*%
%ADD13O,1.600000X1.600000*%
G04 APERTURE END LIST*
D10*
%TO.C,J1*%
X121920000Y-51054000D03*
D11*
X124460000Y-51054000D03*
X121920000Y-53594000D03*
X124460000Y-53594000D03*
X121920000Y-56134000D03*
X124460000Y-56134000D03*
X121920000Y-58674000D03*
X124460000Y-58674000D03*
X121920000Y-61214000D03*
X124460000Y-61214000D03*
X121920000Y-63754000D03*
X124460000Y-63754000D03*
X121920000Y-66294000D03*
X124460000Y-66294000D03*
X121920000Y-68834000D03*
X124460000Y-68834000D03*
X121920000Y-71374000D03*
X124460000Y-71374000D03*
X121920000Y-73914000D03*
X124460000Y-73914000D03*
X121920000Y-76454000D03*
X124460000Y-76454000D03*
X121920000Y-78994000D03*
X124460000Y-78994000D03*
X121920000Y-81534000D03*
X124460000Y-81534000D03*
X121920000Y-84074000D03*
X124460000Y-84074000D03*
%TD*%
D12*
%TO.C,U1*%
X101854000Y-51054000D03*
D13*
X101854000Y-53594000D03*
X101854000Y-56134000D03*
X101854000Y-58674000D03*
X101854000Y-61214000D03*
X101854000Y-63754000D03*
X101854000Y-66294000D03*
X101854000Y-68834000D03*
X101854000Y-71374000D03*
X101854000Y-73914000D03*
X101854000Y-76454000D03*
X101854000Y-78994000D03*
X101854000Y-81534000D03*
X101854000Y-84074000D03*
X117094000Y-84074000D03*
X117094000Y-81534000D03*
X117094000Y-78994000D03*
X117094000Y-76454000D03*
X117094000Y-73914000D03*
X117094000Y-71374000D03*
X117094000Y-68834000D03*
X117094000Y-66294000D03*
X117094000Y-63754000D03*
X117094000Y-61214000D03*
X117094000Y-58674000D03*
X117094000Y-56134000D03*
X117094000Y-53594000D03*
X117094000Y-51054000D03*
%TD*%
M02*
