%TF.GenerationSoftware,KiCad,Pcbnew,7.0.6*%
%TF.CreationDate,2023-07-08T15:29:32+08:00*%
%TF.ProjectId,SerialBoard,53657269-616c-4426-9f61-72642e6b6963,rev?*%
%TF.SameCoordinates,Original*%
%TF.FileFunction,Drillmap*%
%TF.FilePolarity,Positive*%
%FSLAX45Y45*%
G04 Gerber Fmt 4.5, Leading zero omitted, Abs format (unit mm)*
G04 Created by KiCad (PCBNEW 7.0.6) date 2023-07-08 15:29:32*
%MOMM*%
%LPD*%
G01*
G04 APERTURE LIST*
%ADD10C,0.100000*%
%ADD11C,0.200000*%
%ADD12C,0.030000*%
%ADD13C,0.080000*%
G04 APERTURE END LIST*
D10*
X9431020Y-12446000D02*
G75*
G03*
X9558020Y-12573000I127000J0D01*
G01*
X19608800Y-12573000D02*
X21292820Y-12573000D01*
X21419820Y-12446000D02*
X21419820Y-6273800D01*
X21292820Y-12573000D02*
G75*
G03*
X21419820Y-12446000I0J127000D01*
G01*
X21419820Y-6273800D02*
G75*
G03*
X21292820Y-6146800I-127000J0D01*
G01*
X11607800Y-12573000D02*
X9558020Y-12573000D01*
X9431020Y-12446000D02*
X9431020Y-6273800D01*
X21292820Y-6146800D02*
X9558020Y-6146800D01*
X9558020Y-6146800D02*
G75*
G03*
X9431020Y-6273800I0J-127000D01*
G01*
D11*
D12*
X11923000Y-12431000D02*
X11953000Y-12461000D01*
X11953000Y-12431000D02*
X11923000Y-12461000D01*
X15479000Y-12431000D02*
X15509000Y-12461000D01*
X15509000Y-12431000D02*
X15479000Y-12461000D01*
X15606000Y-12431000D02*
X15636000Y-12461000D01*
X15636000Y-12431000D02*
X15606000Y-12461000D01*
X16241000Y-9891000D02*
X16271000Y-9921000D01*
X16271000Y-9891000D02*
X16241000Y-9921000D01*
X16368000Y-10018000D02*
X16398000Y-10048000D01*
X16398000Y-10018000D02*
X16368000Y-10048000D01*
X17892000Y-9129000D02*
X17922000Y-9159000D01*
X17922000Y-9129000D02*
X17892000Y-9159000D01*
X18400000Y-9891000D02*
X18430000Y-9921000D01*
X18430000Y-9891000D02*
X18400000Y-9921000D01*
X18654000Y-10018000D02*
X18684000Y-10048000D01*
X18684000Y-10018000D02*
X18654000Y-10048000D01*
X18908000Y-9637000D02*
X18938000Y-9667000D01*
X18938000Y-9637000D02*
X18908000Y-9667000D01*
X19162000Y-9383000D02*
X19192000Y-9413000D01*
X19192000Y-9383000D02*
X19162000Y-9413000D01*
X19416000Y-9256000D02*
X19446000Y-9286000D01*
X19446000Y-9256000D02*
X19416000Y-9286000D01*
X19797000Y-9510000D02*
X19827000Y-9540000D01*
X19827000Y-9510000D02*
X19797000Y-9540000D01*
X20051000Y-9764000D02*
X20081000Y-9794000D01*
X20081000Y-9764000D02*
X20051000Y-9794000D01*
D13*
X12232000Y-10164000D02*
G75*
G03*
X12232000Y-10164000I-40000J0D01*
G01*
X12232000Y-10414000D02*
G75*
G03*
X12232000Y-10414000I-40000J0D01*
G01*
X12613000Y-8890000D02*
G75*
G03*
X12613000Y-8890000I-40000J0D01*
G01*
X12613000Y-10414000D02*
G75*
G03*
X12613000Y-10414000I-40000J0D01*
G01*
X12867000Y-8890000D02*
G75*
G03*
X12867000Y-8890000I-40000J0D01*
G01*
X12867000Y-10414000D02*
G75*
G03*
X12867000Y-10414000I-40000J0D01*
G01*
X13121000Y-8890000D02*
G75*
G03*
X13121000Y-8890000I-40000J0D01*
G01*
X13121000Y-10414000D02*
G75*
G03*
X13121000Y-10414000I-40000J0D01*
G01*
X13375000Y-8890000D02*
G75*
G03*
X13375000Y-8890000I-40000J0D01*
G01*
X13375000Y-10414000D02*
G75*
G03*
X13375000Y-10414000I-40000J0D01*
G01*
X13629000Y-8890000D02*
G75*
G03*
X13629000Y-8890000I-40000J0D01*
G01*
X13629000Y-10414000D02*
G75*
G03*
X13629000Y-10414000I-40000J0D01*
G01*
X13883000Y-8890000D02*
G75*
G03*
X13883000Y-8890000I-40000J0D01*
G01*
X13883000Y-10414000D02*
G75*
G03*
X13883000Y-10414000I-40000J0D01*
G01*
X14137000Y-8890000D02*
G75*
G03*
X14137000Y-8890000I-40000J0D01*
G01*
X14137000Y-10414000D02*
G75*
G03*
X14137000Y-10414000I-40000J0D01*
G01*
X14391000Y-8001000D02*
G75*
G03*
X14391000Y-8001000I-40000J0D01*
G01*
X14391000Y-8509000D02*
G75*
G03*
X14391000Y-8509000I-40000J0D01*
G01*
X14391000Y-8890000D02*
G75*
G03*
X14391000Y-8890000I-40000J0D01*
G01*
X14391000Y-10414000D02*
G75*
G03*
X14391000Y-10414000I-40000J0D01*
G01*
X14645000Y-8890000D02*
G75*
G03*
X14645000Y-8890000I-40000J0D01*
G01*
X14645000Y-10414000D02*
G75*
G03*
X14645000Y-10414000I-40000J0D01*
G01*
X14879000Y-8001000D02*
G75*
G03*
X14879000Y-8001000I-40000J0D01*
G01*
X14899000Y-8890000D02*
G75*
G03*
X14899000Y-8890000I-40000J0D01*
G01*
X14899000Y-10414000D02*
G75*
G03*
X14899000Y-10414000I-40000J0D01*
G01*
X15153000Y-8890000D02*
G75*
G03*
X15153000Y-8890000I-40000J0D01*
G01*
X15153000Y-10414000D02*
G75*
G03*
X15153000Y-10414000I-40000J0D01*
G01*
X15407000Y-7886700D02*
G75*
G03*
X15407000Y-7886700I-40000J0D01*
G01*
X15407000Y-8136700D02*
G75*
G03*
X15407000Y-8136700I-40000J0D01*
G01*
X15407000Y-8509000D02*
G75*
G03*
X15407000Y-8509000I-40000J0D01*
G01*
X15407000Y-8890000D02*
G75*
G03*
X15407000Y-8890000I-40000J0D01*
G01*
X15407000Y-10414000D02*
G75*
G03*
X15407000Y-10414000I-40000J0D01*
G01*
X15661000Y-8890000D02*
G75*
G03*
X15661000Y-8890000I-40000J0D01*
G01*
X15661000Y-10414000D02*
G75*
G03*
X15661000Y-10414000I-40000J0D01*
G01*
X15915000Y-8890000D02*
G75*
G03*
X15915000Y-8890000I-40000J0D01*
G01*
X15915000Y-10414000D02*
G75*
G03*
X15915000Y-10414000I-40000J0D01*
G01*
D10*
X17653000Y-7951000D02*
X17653000Y-8051000D01*
X17603000Y-8001000D02*
X17703000Y-8001000D01*
X17653000Y-10364000D02*
X17653000Y-10464000D01*
X17603000Y-10414000D02*
X17703000Y-10414000D01*
X17907000Y-7951000D02*
X17907000Y-8051000D01*
X17857000Y-8001000D02*
X17957000Y-8001000D01*
X17907000Y-10364000D02*
X17907000Y-10464000D01*
X17857000Y-10414000D02*
X17957000Y-10414000D01*
X18161000Y-7951000D02*
X18161000Y-8051000D01*
X18111000Y-8001000D02*
X18211000Y-8001000D01*
X18161000Y-10364000D02*
X18161000Y-10464000D01*
X18111000Y-10414000D02*
X18211000Y-10414000D01*
X18415000Y-7951000D02*
X18415000Y-8051000D01*
X18365000Y-8001000D02*
X18465000Y-8001000D01*
X18415000Y-10364000D02*
X18415000Y-10464000D01*
X18365000Y-10414000D02*
X18465000Y-10414000D01*
X18669000Y-7951000D02*
X18669000Y-8051000D01*
X18619000Y-8001000D02*
X18719000Y-8001000D01*
X18669000Y-10364000D02*
X18669000Y-10464000D01*
X18619000Y-10414000D02*
X18719000Y-10414000D01*
X18923000Y-7951000D02*
X18923000Y-8051000D01*
X18873000Y-8001000D02*
X18973000Y-8001000D01*
X18923000Y-10364000D02*
X18923000Y-10464000D01*
X18873000Y-10414000D02*
X18973000Y-10414000D01*
X19177000Y-7951000D02*
X19177000Y-8051000D01*
X19127000Y-8001000D02*
X19227000Y-8001000D01*
X19177000Y-10364000D02*
X19177000Y-10464000D01*
X19127000Y-10414000D02*
X19227000Y-10414000D01*
X19431000Y-7951000D02*
X19431000Y-8051000D01*
X19381000Y-8001000D02*
X19481000Y-8001000D01*
X19431000Y-10364000D02*
X19431000Y-10464000D01*
X19381000Y-10414000D02*
X19481000Y-10414000D01*
X19812000Y-7951000D02*
X19812000Y-8051000D01*
X19762000Y-8001000D02*
X19862000Y-8001000D01*
X19812000Y-10364000D02*
X19812000Y-10464000D01*
X19762000Y-10414000D02*
X19862000Y-10414000D01*
X20066000Y-7951000D02*
X20066000Y-8051000D01*
X20016000Y-8001000D02*
X20116000Y-8001000D01*
X20066000Y-10364000D02*
X20066000Y-10464000D01*
X20016000Y-10414000D02*
X20116000Y-10414000D01*
X20320000Y-7951000D02*
X20320000Y-8051000D01*
X20270000Y-8001000D02*
X20370000Y-8001000D01*
X20320000Y-10364000D02*
X20320000Y-10464000D01*
X20270000Y-10414000D02*
X20370000Y-10414000D01*
D11*
X9686797Y-13804884D02*
X9686797Y-13604884D01*
X9686797Y-13604884D02*
X9734416Y-13604884D01*
X9734416Y-13604884D02*
X9762987Y-13614408D01*
X9762987Y-13614408D02*
X9782035Y-13633455D01*
X9782035Y-13633455D02*
X9791559Y-13652503D01*
X9791559Y-13652503D02*
X9801083Y-13690598D01*
X9801083Y-13690598D02*
X9801083Y-13719169D01*
X9801083Y-13719169D02*
X9791559Y-13757265D01*
X9791559Y-13757265D02*
X9782035Y-13776312D01*
X9782035Y-13776312D02*
X9762987Y-13795360D01*
X9762987Y-13795360D02*
X9734416Y-13804884D01*
X9734416Y-13804884D02*
X9686797Y-13804884D01*
X9886797Y-13804884D02*
X9886797Y-13671550D01*
X9886797Y-13709646D02*
X9896321Y-13690598D01*
X9896321Y-13690598D02*
X9905844Y-13681074D01*
X9905844Y-13681074D02*
X9924892Y-13671550D01*
X9924892Y-13671550D02*
X9943940Y-13671550D01*
X10010606Y-13804884D02*
X10010606Y-13671550D01*
X10010606Y-13604884D02*
X10001083Y-13614408D01*
X10001083Y-13614408D02*
X10010606Y-13623931D01*
X10010606Y-13623931D02*
X10020130Y-13614408D01*
X10020130Y-13614408D02*
X10010606Y-13604884D01*
X10010606Y-13604884D02*
X10010606Y-13623931D01*
X10134416Y-13804884D02*
X10115368Y-13795360D01*
X10115368Y-13795360D02*
X10105844Y-13776312D01*
X10105844Y-13776312D02*
X10105844Y-13604884D01*
X10239178Y-13804884D02*
X10220130Y-13795360D01*
X10220130Y-13795360D02*
X10210606Y-13776312D01*
X10210606Y-13776312D02*
X10210606Y-13604884D01*
X10467749Y-13804884D02*
X10467749Y-13604884D01*
X10467749Y-13604884D02*
X10534416Y-13747741D01*
X10534416Y-13747741D02*
X10601083Y-13604884D01*
X10601083Y-13604884D02*
X10601083Y-13804884D01*
X10782035Y-13804884D02*
X10782035Y-13700122D01*
X10782035Y-13700122D02*
X10772511Y-13681074D01*
X10772511Y-13681074D02*
X10753464Y-13671550D01*
X10753464Y-13671550D02*
X10715368Y-13671550D01*
X10715368Y-13671550D02*
X10696321Y-13681074D01*
X10782035Y-13795360D02*
X10762987Y-13804884D01*
X10762987Y-13804884D02*
X10715368Y-13804884D01*
X10715368Y-13804884D02*
X10696321Y-13795360D01*
X10696321Y-13795360D02*
X10686797Y-13776312D01*
X10686797Y-13776312D02*
X10686797Y-13757265D01*
X10686797Y-13757265D02*
X10696321Y-13738217D01*
X10696321Y-13738217D02*
X10715368Y-13728693D01*
X10715368Y-13728693D02*
X10762987Y-13728693D01*
X10762987Y-13728693D02*
X10782035Y-13719169D01*
X10877273Y-13671550D02*
X10877273Y-13871550D01*
X10877273Y-13681074D02*
X10896321Y-13671550D01*
X10896321Y-13671550D02*
X10934416Y-13671550D01*
X10934416Y-13671550D02*
X10953464Y-13681074D01*
X10953464Y-13681074D02*
X10962987Y-13690598D01*
X10962987Y-13690598D02*
X10972511Y-13709646D01*
X10972511Y-13709646D02*
X10972511Y-13766788D01*
X10972511Y-13766788D02*
X10962987Y-13785836D01*
X10962987Y-13785836D02*
X10953464Y-13795360D01*
X10953464Y-13795360D02*
X10934416Y-13804884D01*
X10934416Y-13804884D02*
X10896321Y-13804884D01*
X10896321Y-13804884D02*
X10877273Y-13795360D01*
X11058225Y-13785836D02*
X11067749Y-13795360D01*
X11067749Y-13795360D02*
X11058225Y-13804884D01*
X11058225Y-13804884D02*
X11048702Y-13795360D01*
X11048702Y-13795360D02*
X11058225Y-13785836D01*
X11058225Y-13785836D02*
X11058225Y-13804884D01*
X11058225Y-13681074D02*
X11067749Y-13690598D01*
X11067749Y-13690598D02*
X11058225Y-13700122D01*
X11058225Y-13700122D02*
X11048702Y-13690598D01*
X11048702Y-13690598D02*
X11058225Y-13681074D01*
X11058225Y-13681074D02*
X11058225Y-13700122D01*
D12*
X9396020Y-14118400D02*
X9426020Y-14148400D01*
X9426020Y-14118400D02*
X9396020Y-14148400D01*
D11*
X9724892Y-14024884D02*
X9743940Y-14024884D01*
X9743940Y-14024884D02*
X9762987Y-14034408D01*
X9762987Y-14034408D02*
X9772511Y-14043931D01*
X9772511Y-14043931D02*
X9782035Y-14062979D01*
X9782035Y-14062979D02*
X9791559Y-14101074D01*
X9791559Y-14101074D02*
X9791559Y-14148693D01*
X9791559Y-14148693D02*
X9782035Y-14186788D01*
X9782035Y-14186788D02*
X9772511Y-14205836D01*
X9772511Y-14205836D02*
X9762987Y-14215360D01*
X9762987Y-14215360D02*
X9743940Y-14224884D01*
X9743940Y-14224884D02*
X9724892Y-14224884D01*
X9724892Y-14224884D02*
X9705844Y-14215360D01*
X9705844Y-14215360D02*
X9696321Y-14205836D01*
X9696321Y-14205836D02*
X9686797Y-14186788D01*
X9686797Y-14186788D02*
X9677273Y-14148693D01*
X9677273Y-14148693D02*
X9677273Y-14101074D01*
X9677273Y-14101074D02*
X9686797Y-14062979D01*
X9686797Y-14062979D02*
X9696321Y-14043931D01*
X9696321Y-14043931D02*
X9705844Y-14034408D01*
X9705844Y-14034408D02*
X9724892Y-14024884D01*
X9877273Y-14205836D02*
X9886797Y-14215360D01*
X9886797Y-14215360D02*
X9877273Y-14224884D01*
X9877273Y-14224884D02*
X9867749Y-14215360D01*
X9867749Y-14215360D02*
X9877273Y-14205836D01*
X9877273Y-14205836D02*
X9877273Y-14224884D01*
X9953464Y-14024884D02*
X10077273Y-14024884D01*
X10077273Y-14024884D02*
X10010606Y-14101074D01*
X10010606Y-14101074D02*
X10039178Y-14101074D01*
X10039178Y-14101074D02*
X10058225Y-14110598D01*
X10058225Y-14110598D02*
X10067749Y-14120122D01*
X10067749Y-14120122D02*
X10077273Y-14139169D01*
X10077273Y-14139169D02*
X10077273Y-14186788D01*
X10077273Y-14186788D02*
X10067749Y-14205836D01*
X10067749Y-14205836D02*
X10058225Y-14215360D01*
X10058225Y-14215360D02*
X10039178Y-14224884D01*
X10039178Y-14224884D02*
X9982035Y-14224884D01*
X9982035Y-14224884D02*
X9962987Y-14215360D01*
X9962987Y-14215360D02*
X9953464Y-14205836D01*
X10201083Y-14024884D02*
X10220130Y-14024884D01*
X10220130Y-14024884D02*
X10239178Y-14034408D01*
X10239178Y-14034408D02*
X10248702Y-14043931D01*
X10248702Y-14043931D02*
X10258225Y-14062979D01*
X10258225Y-14062979D02*
X10267749Y-14101074D01*
X10267749Y-14101074D02*
X10267749Y-14148693D01*
X10267749Y-14148693D02*
X10258225Y-14186788D01*
X10258225Y-14186788D02*
X10248702Y-14205836D01*
X10248702Y-14205836D02*
X10239178Y-14215360D01*
X10239178Y-14215360D02*
X10220130Y-14224884D01*
X10220130Y-14224884D02*
X10201083Y-14224884D01*
X10201083Y-14224884D02*
X10182035Y-14215360D01*
X10182035Y-14215360D02*
X10172511Y-14205836D01*
X10172511Y-14205836D02*
X10162987Y-14186788D01*
X10162987Y-14186788D02*
X10153464Y-14148693D01*
X10153464Y-14148693D02*
X10153464Y-14101074D01*
X10153464Y-14101074D02*
X10162987Y-14062979D01*
X10162987Y-14062979D02*
X10172511Y-14043931D01*
X10172511Y-14043931D02*
X10182035Y-14034408D01*
X10182035Y-14034408D02*
X10201083Y-14024884D01*
X10391559Y-14024884D02*
X10410606Y-14024884D01*
X10410606Y-14024884D02*
X10429654Y-14034408D01*
X10429654Y-14034408D02*
X10439178Y-14043931D01*
X10439178Y-14043931D02*
X10448702Y-14062979D01*
X10448702Y-14062979D02*
X10458225Y-14101074D01*
X10458225Y-14101074D02*
X10458225Y-14148693D01*
X10458225Y-14148693D02*
X10448702Y-14186788D01*
X10448702Y-14186788D02*
X10439178Y-14205836D01*
X10439178Y-14205836D02*
X10429654Y-14215360D01*
X10429654Y-14215360D02*
X10410606Y-14224884D01*
X10410606Y-14224884D02*
X10391559Y-14224884D01*
X10391559Y-14224884D02*
X10372511Y-14215360D01*
X10372511Y-14215360D02*
X10362987Y-14205836D01*
X10362987Y-14205836D02*
X10353464Y-14186788D01*
X10353464Y-14186788D02*
X10343940Y-14148693D01*
X10343940Y-14148693D02*
X10343940Y-14101074D01*
X10343940Y-14101074D02*
X10353464Y-14062979D01*
X10353464Y-14062979D02*
X10362987Y-14043931D01*
X10362987Y-14043931D02*
X10372511Y-14034408D01*
X10372511Y-14034408D02*
X10391559Y-14024884D01*
X10543940Y-14224884D02*
X10543940Y-14091550D01*
X10543940Y-14110598D02*
X10553464Y-14101074D01*
X10553464Y-14101074D02*
X10572511Y-14091550D01*
X10572511Y-14091550D02*
X10601083Y-14091550D01*
X10601083Y-14091550D02*
X10620130Y-14101074D01*
X10620130Y-14101074D02*
X10629654Y-14120122D01*
X10629654Y-14120122D02*
X10629654Y-14224884D01*
X10629654Y-14120122D02*
X10639178Y-14101074D01*
X10639178Y-14101074D02*
X10658225Y-14091550D01*
X10658225Y-14091550D02*
X10686797Y-14091550D01*
X10686797Y-14091550D02*
X10705845Y-14101074D01*
X10705845Y-14101074D02*
X10715368Y-14120122D01*
X10715368Y-14120122D02*
X10715368Y-14224884D01*
X10810606Y-14224884D02*
X10810606Y-14091550D01*
X10810606Y-14110598D02*
X10820130Y-14101074D01*
X10820130Y-14101074D02*
X10839178Y-14091550D01*
X10839178Y-14091550D02*
X10867749Y-14091550D01*
X10867749Y-14091550D02*
X10886797Y-14101074D01*
X10886797Y-14101074D02*
X10896321Y-14120122D01*
X10896321Y-14120122D02*
X10896321Y-14224884D01*
X10896321Y-14120122D02*
X10905845Y-14101074D01*
X10905845Y-14101074D02*
X10924892Y-14091550D01*
X10924892Y-14091550D02*
X10953464Y-14091550D01*
X10953464Y-14091550D02*
X10972511Y-14101074D01*
X10972511Y-14101074D02*
X10982035Y-14120122D01*
X10982035Y-14120122D02*
X10982035Y-14224884D01*
X11372511Y-14015360D02*
X11201083Y-14272503D01*
X11629654Y-14024884D02*
X11648702Y-14024884D01*
X11648702Y-14024884D02*
X11667749Y-14034408D01*
X11667749Y-14034408D02*
X11677273Y-14043931D01*
X11677273Y-14043931D02*
X11686797Y-14062979D01*
X11686797Y-14062979D02*
X11696321Y-14101074D01*
X11696321Y-14101074D02*
X11696321Y-14148693D01*
X11696321Y-14148693D02*
X11686797Y-14186788D01*
X11686797Y-14186788D02*
X11677273Y-14205836D01*
X11677273Y-14205836D02*
X11667749Y-14215360D01*
X11667749Y-14215360D02*
X11648702Y-14224884D01*
X11648702Y-14224884D02*
X11629654Y-14224884D01*
X11629654Y-14224884D02*
X11610606Y-14215360D01*
X11610606Y-14215360D02*
X11601083Y-14205836D01*
X11601083Y-14205836D02*
X11591559Y-14186788D01*
X11591559Y-14186788D02*
X11582035Y-14148693D01*
X11582035Y-14148693D02*
X11582035Y-14101074D01*
X11582035Y-14101074D02*
X11591559Y-14062979D01*
X11591559Y-14062979D02*
X11601083Y-14043931D01*
X11601083Y-14043931D02*
X11610606Y-14034408D01*
X11610606Y-14034408D02*
X11629654Y-14024884D01*
X11782035Y-14205836D02*
X11791559Y-14215360D01*
X11791559Y-14215360D02*
X11782035Y-14224884D01*
X11782035Y-14224884D02*
X11772511Y-14215360D01*
X11772511Y-14215360D02*
X11782035Y-14205836D01*
X11782035Y-14205836D02*
X11782035Y-14224884D01*
X11915368Y-14024884D02*
X11934416Y-14024884D01*
X11934416Y-14024884D02*
X11953464Y-14034408D01*
X11953464Y-14034408D02*
X11962987Y-14043931D01*
X11962987Y-14043931D02*
X11972511Y-14062979D01*
X11972511Y-14062979D02*
X11982035Y-14101074D01*
X11982035Y-14101074D02*
X11982035Y-14148693D01*
X11982035Y-14148693D02*
X11972511Y-14186788D01*
X11972511Y-14186788D02*
X11962987Y-14205836D01*
X11962987Y-14205836D02*
X11953464Y-14215360D01*
X11953464Y-14215360D02*
X11934416Y-14224884D01*
X11934416Y-14224884D02*
X11915368Y-14224884D01*
X11915368Y-14224884D02*
X11896321Y-14215360D01*
X11896321Y-14215360D02*
X11886797Y-14205836D01*
X11886797Y-14205836D02*
X11877273Y-14186788D01*
X11877273Y-14186788D02*
X11867749Y-14148693D01*
X11867749Y-14148693D02*
X11867749Y-14101074D01*
X11867749Y-14101074D02*
X11877273Y-14062979D01*
X11877273Y-14062979D02*
X11886797Y-14043931D01*
X11886797Y-14043931D02*
X11896321Y-14034408D01*
X11896321Y-14034408D02*
X11915368Y-14024884D01*
X12172511Y-14224884D02*
X12058226Y-14224884D01*
X12115368Y-14224884D02*
X12115368Y-14024884D01*
X12115368Y-14024884D02*
X12096321Y-14053455D01*
X12096321Y-14053455D02*
X12077273Y-14072503D01*
X12077273Y-14072503D02*
X12058226Y-14082027D01*
X12362987Y-14224884D02*
X12248702Y-14224884D01*
X12305845Y-14224884D02*
X12305845Y-14024884D01*
X12305845Y-14024884D02*
X12286797Y-14053455D01*
X12286797Y-14053455D02*
X12267749Y-14072503D01*
X12267749Y-14072503D02*
X12248702Y-14082027D01*
X12477273Y-14110598D02*
X12458226Y-14101074D01*
X12458226Y-14101074D02*
X12448702Y-14091550D01*
X12448702Y-14091550D02*
X12439178Y-14072503D01*
X12439178Y-14072503D02*
X12439178Y-14062979D01*
X12439178Y-14062979D02*
X12448702Y-14043931D01*
X12448702Y-14043931D02*
X12458226Y-14034408D01*
X12458226Y-14034408D02*
X12477273Y-14024884D01*
X12477273Y-14024884D02*
X12515368Y-14024884D01*
X12515368Y-14024884D02*
X12534416Y-14034408D01*
X12534416Y-14034408D02*
X12543940Y-14043931D01*
X12543940Y-14043931D02*
X12553464Y-14062979D01*
X12553464Y-14062979D02*
X12553464Y-14072503D01*
X12553464Y-14072503D02*
X12543940Y-14091550D01*
X12543940Y-14091550D02*
X12534416Y-14101074D01*
X12534416Y-14101074D02*
X12515368Y-14110598D01*
X12515368Y-14110598D02*
X12477273Y-14110598D01*
X12477273Y-14110598D02*
X12458226Y-14120122D01*
X12458226Y-14120122D02*
X12448702Y-14129646D01*
X12448702Y-14129646D02*
X12439178Y-14148693D01*
X12439178Y-14148693D02*
X12439178Y-14186788D01*
X12439178Y-14186788D02*
X12448702Y-14205836D01*
X12448702Y-14205836D02*
X12458226Y-14215360D01*
X12458226Y-14215360D02*
X12477273Y-14224884D01*
X12477273Y-14224884D02*
X12515368Y-14224884D01*
X12515368Y-14224884D02*
X12534416Y-14215360D01*
X12534416Y-14215360D02*
X12543940Y-14205836D01*
X12543940Y-14205836D02*
X12553464Y-14186788D01*
X12553464Y-14186788D02*
X12553464Y-14148693D01*
X12553464Y-14148693D02*
X12543940Y-14129646D01*
X12543940Y-14129646D02*
X12534416Y-14120122D01*
X12534416Y-14120122D02*
X12515368Y-14110598D01*
X12629654Y-14024884D02*
X12629654Y-14062979D01*
X12705845Y-14024884D02*
X12705845Y-14062979D01*
X13001083Y-14301074D02*
X12991559Y-14291550D01*
X12991559Y-14291550D02*
X12972511Y-14262979D01*
X12972511Y-14262979D02*
X12962988Y-14243931D01*
X12962988Y-14243931D02*
X12953464Y-14215360D01*
X12953464Y-14215360D02*
X12943940Y-14167741D01*
X12943940Y-14167741D02*
X12943940Y-14129646D01*
X12943940Y-14129646D02*
X12953464Y-14082027D01*
X12953464Y-14082027D02*
X12962988Y-14053455D01*
X12962988Y-14053455D02*
X12972511Y-14034408D01*
X12972511Y-14034408D02*
X12991559Y-14005836D01*
X12991559Y-14005836D02*
X13001083Y-13996312D01*
X13182035Y-14224884D02*
X13067749Y-14224884D01*
X13124892Y-14224884D02*
X13124892Y-14024884D01*
X13124892Y-14024884D02*
X13105845Y-14053455D01*
X13105845Y-14053455D02*
X13086797Y-14072503D01*
X13086797Y-14072503D02*
X13067749Y-14082027D01*
X13248702Y-14024884D02*
X13372511Y-14024884D01*
X13372511Y-14024884D02*
X13305845Y-14101074D01*
X13305845Y-14101074D02*
X13334416Y-14101074D01*
X13334416Y-14101074D02*
X13353464Y-14110598D01*
X13353464Y-14110598D02*
X13362988Y-14120122D01*
X13362988Y-14120122D02*
X13372511Y-14139169D01*
X13372511Y-14139169D02*
X13372511Y-14186788D01*
X13372511Y-14186788D02*
X13362988Y-14205836D01*
X13362988Y-14205836D02*
X13353464Y-14215360D01*
X13353464Y-14215360D02*
X13334416Y-14224884D01*
X13334416Y-14224884D02*
X13277273Y-14224884D01*
X13277273Y-14224884D02*
X13258226Y-14215360D01*
X13258226Y-14215360D02*
X13248702Y-14205836D01*
X13610607Y-14224884D02*
X13610607Y-14024884D01*
X13696321Y-14224884D02*
X13696321Y-14120122D01*
X13696321Y-14120122D02*
X13686797Y-14101074D01*
X13686797Y-14101074D02*
X13667750Y-14091550D01*
X13667750Y-14091550D02*
X13639178Y-14091550D01*
X13639178Y-14091550D02*
X13620130Y-14101074D01*
X13620130Y-14101074D02*
X13610607Y-14110598D01*
X13820130Y-14224884D02*
X13801083Y-14215360D01*
X13801083Y-14215360D02*
X13791559Y-14205836D01*
X13791559Y-14205836D02*
X13782035Y-14186788D01*
X13782035Y-14186788D02*
X13782035Y-14129646D01*
X13782035Y-14129646D02*
X13791559Y-14110598D01*
X13791559Y-14110598D02*
X13801083Y-14101074D01*
X13801083Y-14101074D02*
X13820130Y-14091550D01*
X13820130Y-14091550D02*
X13848702Y-14091550D01*
X13848702Y-14091550D02*
X13867750Y-14101074D01*
X13867750Y-14101074D02*
X13877273Y-14110598D01*
X13877273Y-14110598D02*
X13886797Y-14129646D01*
X13886797Y-14129646D02*
X13886797Y-14186788D01*
X13886797Y-14186788D02*
X13877273Y-14205836D01*
X13877273Y-14205836D02*
X13867750Y-14215360D01*
X13867750Y-14215360D02*
X13848702Y-14224884D01*
X13848702Y-14224884D02*
X13820130Y-14224884D01*
X14001083Y-14224884D02*
X13982035Y-14215360D01*
X13982035Y-14215360D02*
X13972511Y-14196312D01*
X13972511Y-14196312D02*
X13972511Y-14024884D01*
X14153464Y-14215360D02*
X14134416Y-14224884D01*
X14134416Y-14224884D02*
X14096321Y-14224884D01*
X14096321Y-14224884D02*
X14077273Y-14215360D01*
X14077273Y-14215360D02*
X14067750Y-14196312D01*
X14067750Y-14196312D02*
X14067750Y-14120122D01*
X14067750Y-14120122D02*
X14077273Y-14101074D01*
X14077273Y-14101074D02*
X14096321Y-14091550D01*
X14096321Y-14091550D02*
X14134416Y-14091550D01*
X14134416Y-14091550D02*
X14153464Y-14101074D01*
X14153464Y-14101074D02*
X14162988Y-14120122D01*
X14162988Y-14120122D02*
X14162988Y-14139169D01*
X14162988Y-14139169D02*
X14067750Y-14158217D01*
X14239178Y-14215360D02*
X14258226Y-14224884D01*
X14258226Y-14224884D02*
X14296321Y-14224884D01*
X14296321Y-14224884D02*
X14315369Y-14215360D01*
X14315369Y-14215360D02*
X14324892Y-14196312D01*
X14324892Y-14196312D02*
X14324892Y-14186788D01*
X14324892Y-14186788D02*
X14315369Y-14167741D01*
X14315369Y-14167741D02*
X14296321Y-14158217D01*
X14296321Y-14158217D02*
X14267750Y-14158217D01*
X14267750Y-14158217D02*
X14248702Y-14148693D01*
X14248702Y-14148693D02*
X14239178Y-14129646D01*
X14239178Y-14129646D02*
X14239178Y-14120122D01*
X14239178Y-14120122D02*
X14248702Y-14101074D01*
X14248702Y-14101074D02*
X14267750Y-14091550D01*
X14267750Y-14091550D02*
X14296321Y-14091550D01*
X14296321Y-14091550D02*
X14315369Y-14101074D01*
X14391559Y-14301074D02*
X14401083Y-14291550D01*
X14401083Y-14291550D02*
X14420131Y-14262979D01*
X14420131Y-14262979D02*
X14429654Y-14243931D01*
X14429654Y-14243931D02*
X14439178Y-14215360D01*
X14439178Y-14215360D02*
X14448702Y-14167741D01*
X14448702Y-14167741D02*
X14448702Y-14129646D01*
X14448702Y-14129646D02*
X14439178Y-14082027D01*
X14439178Y-14082027D02*
X14429654Y-14053455D01*
X14429654Y-14053455D02*
X14420131Y-14034408D01*
X14420131Y-14034408D02*
X14401083Y-14005836D01*
X14401083Y-14005836D02*
X14391559Y-13996312D01*
D13*
X9426020Y-14397400D02*
G75*
G03*
X9426020Y-14397400I-40000J0D01*
G01*
D11*
X9724892Y-14288884D02*
X9743940Y-14288884D01*
X9743940Y-14288884D02*
X9762987Y-14298408D01*
X9762987Y-14298408D02*
X9772511Y-14307931D01*
X9772511Y-14307931D02*
X9782035Y-14326979D01*
X9782035Y-14326979D02*
X9791559Y-14365074D01*
X9791559Y-14365074D02*
X9791559Y-14412693D01*
X9791559Y-14412693D02*
X9782035Y-14450788D01*
X9782035Y-14450788D02*
X9772511Y-14469836D01*
X9772511Y-14469836D02*
X9762987Y-14479360D01*
X9762987Y-14479360D02*
X9743940Y-14488884D01*
X9743940Y-14488884D02*
X9724892Y-14488884D01*
X9724892Y-14488884D02*
X9705844Y-14479360D01*
X9705844Y-14479360D02*
X9696321Y-14469836D01*
X9696321Y-14469836D02*
X9686797Y-14450788D01*
X9686797Y-14450788D02*
X9677273Y-14412693D01*
X9677273Y-14412693D02*
X9677273Y-14365074D01*
X9677273Y-14365074D02*
X9686797Y-14326979D01*
X9686797Y-14326979D02*
X9696321Y-14307931D01*
X9696321Y-14307931D02*
X9705844Y-14298408D01*
X9705844Y-14298408D02*
X9724892Y-14288884D01*
X9877273Y-14469836D02*
X9886797Y-14479360D01*
X9886797Y-14479360D02*
X9877273Y-14488884D01*
X9877273Y-14488884D02*
X9867749Y-14479360D01*
X9867749Y-14479360D02*
X9877273Y-14469836D01*
X9877273Y-14469836D02*
X9877273Y-14488884D01*
X10001083Y-14374598D02*
X9982035Y-14365074D01*
X9982035Y-14365074D02*
X9972511Y-14355550D01*
X9972511Y-14355550D02*
X9962987Y-14336503D01*
X9962987Y-14336503D02*
X9962987Y-14326979D01*
X9962987Y-14326979D02*
X9972511Y-14307931D01*
X9972511Y-14307931D02*
X9982035Y-14298408D01*
X9982035Y-14298408D02*
X10001083Y-14288884D01*
X10001083Y-14288884D02*
X10039178Y-14288884D01*
X10039178Y-14288884D02*
X10058225Y-14298408D01*
X10058225Y-14298408D02*
X10067749Y-14307931D01*
X10067749Y-14307931D02*
X10077273Y-14326979D01*
X10077273Y-14326979D02*
X10077273Y-14336503D01*
X10077273Y-14336503D02*
X10067749Y-14355550D01*
X10067749Y-14355550D02*
X10058225Y-14365074D01*
X10058225Y-14365074D02*
X10039178Y-14374598D01*
X10039178Y-14374598D02*
X10001083Y-14374598D01*
X10001083Y-14374598D02*
X9982035Y-14384122D01*
X9982035Y-14384122D02*
X9972511Y-14393646D01*
X9972511Y-14393646D02*
X9962987Y-14412693D01*
X9962987Y-14412693D02*
X9962987Y-14450788D01*
X9962987Y-14450788D02*
X9972511Y-14469836D01*
X9972511Y-14469836D02*
X9982035Y-14479360D01*
X9982035Y-14479360D02*
X10001083Y-14488884D01*
X10001083Y-14488884D02*
X10039178Y-14488884D01*
X10039178Y-14488884D02*
X10058225Y-14479360D01*
X10058225Y-14479360D02*
X10067749Y-14469836D01*
X10067749Y-14469836D02*
X10077273Y-14450788D01*
X10077273Y-14450788D02*
X10077273Y-14412693D01*
X10077273Y-14412693D02*
X10067749Y-14393646D01*
X10067749Y-14393646D02*
X10058225Y-14384122D01*
X10058225Y-14384122D02*
X10039178Y-14374598D01*
X10201083Y-14288884D02*
X10220130Y-14288884D01*
X10220130Y-14288884D02*
X10239178Y-14298408D01*
X10239178Y-14298408D02*
X10248702Y-14307931D01*
X10248702Y-14307931D02*
X10258225Y-14326979D01*
X10258225Y-14326979D02*
X10267749Y-14365074D01*
X10267749Y-14365074D02*
X10267749Y-14412693D01*
X10267749Y-14412693D02*
X10258225Y-14450788D01*
X10258225Y-14450788D02*
X10248702Y-14469836D01*
X10248702Y-14469836D02*
X10239178Y-14479360D01*
X10239178Y-14479360D02*
X10220130Y-14488884D01*
X10220130Y-14488884D02*
X10201083Y-14488884D01*
X10201083Y-14488884D02*
X10182035Y-14479360D01*
X10182035Y-14479360D02*
X10172511Y-14469836D01*
X10172511Y-14469836D02*
X10162987Y-14450788D01*
X10162987Y-14450788D02*
X10153464Y-14412693D01*
X10153464Y-14412693D02*
X10153464Y-14365074D01*
X10153464Y-14365074D02*
X10162987Y-14326979D01*
X10162987Y-14326979D02*
X10172511Y-14307931D01*
X10172511Y-14307931D02*
X10182035Y-14298408D01*
X10182035Y-14298408D02*
X10201083Y-14288884D01*
X10391559Y-14288884D02*
X10410606Y-14288884D01*
X10410606Y-14288884D02*
X10429654Y-14298408D01*
X10429654Y-14298408D02*
X10439178Y-14307931D01*
X10439178Y-14307931D02*
X10448702Y-14326979D01*
X10448702Y-14326979D02*
X10458225Y-14365074D01*
X10458225Y-14365074D02*
X10458225Y-14412693D01*
X10458225Y-14412693D02*
X10448702Y-14450788D01*
X10448702Y-14450788D02*
X10439178Y-14469836D01*
X10439178Y-14469836D02*
X10429654Y-14479360D01*
X10429654Y-14479360D02*
X10410606Y-14488884D01*
X10410606Y-14488884D02*
X10391559Y-14488884D01*
X10391559Y-14488884D02*
X10372511Y-14479360D01*
X10372511Y-14479360D02*
X10362987Y-14469836D01*
X10362987Y-14469836D02*
X10353464Y-14450788D01*
X10353464Y-14450788D02*
X10343940Y-14412693D01*
X10343940Y-14412693D02*
X10343940Y-14365074D01*
X10343940Y-14365074D02*
X10353464Y-14326979D01*
X10353464Y-14326979D02*
X10362987Y-14307931D01*
X10362987Y-14307931D02*
X10372511Y-14298408D01*
X10372511Y-14298408D02*
X10391559Y-14288884D01*
X10543940Y-14488884D02*
X10543940Y-14355550D01*
X10543940Y-14374598D02*
X10553464Y-14365074D01*
X10553464Y-14365074D02*
X10572511Y-14355550D01*
X10572511Y-14355550D02*
X10601083Y-14355550D01*
X10601083Y-14355550D02*
X10620130Y-14365074D01*
X10620130Y-14365074D02*
X10629654Y-14384122D01*
X10629654Y-14384122D02*
X10629654Y-14488884D01*
X10629654Y-14384122D02*
X10639178Y-14365074D01*
X10639178Y-14365074D02*
X10658225Y-14355550D01*
X10658225Y-14355550D02*
X10686797Y-14355550D01*
X10686797Y-14355550D02*
X10705845Y-14365074D01*
X10705845Y-14365074D02*
X10715368Y-14384122D01*
X10715368Y-14384122D02*
X10715368Y-14488884D01*
X10810606Y-14488884D02*
X10810606Y-14355550D01*
X10810606Y-14374598D02*
X10820130Y-14365074D01*
X10820130Y-14365074D02*
X10839178Y-14355550D01*
X10839178Y-14355550D02*
X10867749Y-14355550D01*
X10867749Y-14355550D02*
X10886797Y-14365074D01*
X10886797Y-14365074D02*
X10896321Y-14384122D01*
X10896321Y-14384122D02*
X10896321Y-14488884D01*
X10896321Y-14384122D02*
X10905845Y-14365074D01*
X10905845Y-14365074D02*
X10924892Y-14355550D01*
X10924892Y-14355550D02*
X10953464Y-14355550D01*
X10953464Y-14355550D02*
X10972511Y-14365074D01*
X10972511Y-14365074D02*
X10982035Y-14384122D01*
X10982035Y-14384122D02*
X10982035Y-14488884D01*
X11372511Y-14279360D02*
X11201083Y-14536503D01*
X11629654Y-14288884D02*
X11648702Y-14288884D01*
X11648702Y-14288884D02*
X11667749Y-14298408D01*
X11667749Y-14298408D02*
X11677273Y-14307931D01*
X11677273Y-14307931D02*
X11686797Y-14326979D01*
X11686797Y-14326979D02*
X11696321Y-14365074D01*
X11696321Y-14365074D02*
X11696321Y-14412693D01*
X11696321Y-14412693D02*
X11686797Y-14450788D01*
X11686797Y-14450788D02*
X11677273Y-14469836D01*
X11677273Y-14469836D02*
X11667749Y-14479360D01*
X11667749Y-14479360D02*
X11648702Y-14488884D01*
X11648702Y-14488884D02*
X11629654Y-14488884D01*
X11629654Y-14488884D02*
X11610606Y-14479360D01*
X11610606Y-14479360D02*
X11601083Y-14469836D01*
X11601083Y-14469836D02*
X11591559Y-14450788D01*
X11591559Y-14450788D02*
X11582035Y-14412693D01*
X11582035Y-14412693D02*
X11582035Y-14365074D01*
X11582035Y-14365074D02*
X11591559Y-14326979D01*
X11591559Y-14326979D02*
X11601083Y-14307931D01*
X11601083Y-14307931D02*
X11610606Y-14298408D01*
X11610606Y-14298408D02*
X11629654Y-14288884D01*
X11782035Y-14469836D02*
X11791559Y-14479360D01*
X11791559Y-14479360D02*
X11782035Y-14488884D01*
X11782035Y-14488884D02*
X11772511Y-14479360D01*
X11772511Y-14479360D02*
X11782035Y-14469836D01*
X11782035Y-14469836D02*
X11782035Y-14488884D01*
X11915368Y-14288884D02*
X11934416Y-14288884D01*
X11934416Y-14288884D02*
X11953464Y-14298408D01*
X11953464Y-14298408D02*
X11962987Y-14307931D01*
X11962987Y-14307931D02*
X11972511Y-14326979D01*
X11972511Y-14326979D02*
X11982035Y-14365074D01*
X11982035Y-14365074D02*
X11982035Y-14412693D01*
X11982035Y-14412693D02*
X11972511Y-14450788D01*
X11972511Y-14450788D02*
X11962987Y-14469836D01*
X11962987Y-14469836D02*
X11953464Y-14479360D01*
X11953464Y-14479360D02*
X11934416Y-14488884D01*
X11934416Y-14488884D02*
X11915368Y-14488884D01*
X11915368Y-14488884D02*
X11896321Y-14479360D01*
X11896321Y-14479360D02*
X11886797Y-14469836D01*
X11886797Y-14469836D02*
X11877273Y-14450788D01*
X11877273Y-14450788D02*
X11867749Y-14412693D01*
X11867749Y-14412693D02*
X11867749Y-14365074D01*
X11867749Y-14365074D02*
X11877273Y-14326979D01*
X11877273Y-14326979D02*
X11886797Y-14307931D01*
X11886797Y-14307931D02*
X11896321Y-14298408D01*
X11896321Y-14298408D02*
X11915368Y-14288884D01*
X12048702Y-14288884D02*
X12172511Y-14288884D01*
X12172511Y-14288884D02*
X12105845Y-14365074D01*
X12105845Y-14365074D02*
X12134416Y-14365074D01*
X12134416Y-14365074D02*
X12153464Y-14374598D01*
X12153464Y-14374598D02*
X12162987Y-14384122D01*
X12162987Y-14384122D02*
X12172511Y-14403169D01*
X12172511Y-14403169D02*
X12172511Y-14450788D01*
X12172511Y-14450788D02*
X12162987Y-14469836D01*
X12162987Y-14469836D02*
X12153464Y-14479360D01*
X12153464Y-14479360D02*
X12134416Y-14488884D01*
X12134416Y-14488884D02*
X12077273Y-14488884D01*
X12077273Y-14488884D02*
X12058226Y-14479360D01*
X12058226Y-14479360D02*
X12048702Y-14469836D01*
X12362987Y-14488884D02*
X12248702Y-14488884D01*
X12305845Y-14488884D02*
X12305845Y-14288884D01*
X12305845Y-14288884D02*
X12286797Y-14317455D01*
X12286797Y-14317455D02*
X12267749Y-14336503D01*
X12267749Y-14336503D02*
X12248702Y-14346027D01*
X12543940Y-14288884D02*
X12448702Y-14288884D01*
X12448702Y-14288884D02*
X12439178Y-14384122D01*
X12439178Y-14384122D02*
X12448702Y-14374598D01*
X12448702Y-14374598D02*
X12467749Y-14365074D01*
X12467749Y-14365074D02*
X12515368Y-14365074D01*
X12515368Y-14365074D02*
X12534416Y-14374598D01*
X12534416Y-14374598D02*
X12543940Y-14384122D01*
X12543940Y-14384122D02*
X12553464Y-14403169D01*
X12553464Y-14403169D02*
X12553464Y-14450788D01*
X12553464Y-14450788D02*
X12543940Y-14469836D01*
X12543940Y-14469836D02*
X12534416Y-14479360D01*
X12534416Y-14479360D02*
X12515368Y-14488884D01*
X12515368Y-14488884D02*
X12467749Y-14488884D01*
X12467749Y-14488884D02*
X12448702Y-14479360D01*
X12448702Y-14479360D02*
X12439178Y-14469836D01*
X12629654Y-14288884D02*
X12629654Y-14326979D01*
X12705845Y-14288884D02*
X12705845Y-14326979D01*
X13001083Y-14565074D02*
X12991559Y-14555550D01*
X12991559Y-14555550D02*
X12972511Y-14526979D01*
X12972511Y-14526979D02*
X12962988Y-14507931D01*
X12962988Y-14507931D02*
X12953464Y-14479360D01*
X12953464Y-14479360D02*
X12943940Y-14431741D01*
X12943940Y-14431741D02*
X12943940Y-14393646D01*
X12943940Y-14393646D02*
X12953464Y-14346027D01*
X12953464Y-14346027D02*
X12962988Y-14317455D01*
X12962988Y-14317455D02*
X12972511Y-14298408D01*
X12972511Y-14298408D02*
X12991559Y-14269836D01*
X12991559Y-14269836D02*
X13001083Y-14260312D01*
X13058226Y-14288884D02*
X13182035Y-14288884D01*
X13182035Y-14288884D02*
X13115368Y-14365074D01*
X13115368Y-14365074D02*
X13143940Y-14365074D01*
X13143940Y-14365074D02*
X13162988Y-14374598D01*
X13162988Y-14374598D02*
X13172511Y-14384122D01*
X13172511Y-14384122D02*
X13182035Y-14403169D01*
X13182035Y-14403169D02*
X13182035Y-14450788D01*
X13182035Y-14450788D02*
X13172511Y-14469836D01*
X13172511Y-14469836D02*
X13162988Y-14479360D01*
X13162988Y-14479360D02*
X13143940Y-14488884D01*
X13143940Y-14488884D02*
X13086797Y-14488884D01*
X13086797Y-14488884D02*
X13067749Y-14479360D01*
X13067749Y-14479360D02*
X13058226Y-14469836D01*
X13353464Y-14288884D02*
X13315368Y-14288884D01*
X13315368Y-14288884D02*
X13296321Y-14298408D01*
X13296321Y-14298408D02*
X13286797Y-14307931D01*
X13286797Y-14307931D02*
X13267749Y-14336503D01*
X13267749Y-14336503D02*
X13258226Y-14374598D01*
X13258226Y-14374598D02*
X13258226Y-14450788D01*
X13258226Y-14450788D02*
X13267749Y-14469836D01*
X13267749Y-14469836D02*
X13277273Y-14479360D01*
X13277273Y-14479360D02*
X13296321Y-14488884D01*
X13296321Y-14488884D02*
X13334416Y-14488884D01*
X13334416Y-14488884D02*
X13353464Y-14479360D01*
X13353464Y-14479360D02*
X13362988Y-14469836D01*
X13362988Y-14469836D02*
X13372511Y-14450788D01*
X13372511Y-14450788D02*
X13372511Y-14403169D01*
X13372511Y-14403169D02*
X13362988Y-14384122D01*
X13362988Y-14384122D02*
X13353464Y-14374598D01*
X13353464Y-14374598D02*
X13334416Y-14365074D01*
X13334416Y-14365074D02*
X13296321Y-14365074D01*
X13296321Y-14365074D02*
X13277273Y-14374598D01*
X13277273Y-14374598D02*
X13267749Y-14384122D01*
X13267749Y-14384122D02*
X13258226Y-14403169D01*
X13610607Y-14488884D02*
X13610607Y-14288884D01*
X13696321Y-14488884D02*
X13696321Y-14384122D01*
X13696321Y-14384122D02*
X13686797Y-14365074D01*
X13686797Y-14365074D02*
X13667750Y-14355550D01*
X13667750Y-14355550D02*
X13639178Y-14355550D01*
X13639178Y-14355550D02*
X13620130Y-14365074D01*
X13620130Y-14365074D02*
X13610607Y-14374598D01*
X13820130Y-14488884D02*
X13801083Y-14479360D01*
X13801083Y-14479360D02*
X13791559Y-14469836D01*
X13791559Y-14469836D02*
X13782035Y-14450788D01*
X13782035Y-14450788D02*
X13782035Y-14393646D01*
X13782035Y-14393646D02*
X13791559Y-14374598D01*
X13791559Y-14374598D02*
X13801083Y-14365074D01*
X13801083Y-14365074D02*
X13820130Y-14355550D01*
X13820130Y-14355550D02*
X13848702Y-14355550D01*
X13848702Y-14355550D02*
X13867750Y-14365074D01*
X13867750Y-14365074D02*
X13877273Y-14374598D01*
X13877273Y-14374598D02*
X13886797Y-14393646D01*
X13886797Y-14393646D02*
X13886797Y-14450788D01*
X13886797Y-14450788D02*
X13877273Y-14469836D01*
X13877273Y-14469836D02*
X13867750Y-14479360D01*
X13867750Y-14479360D02*
X13848702Y-14488884D01*
X13848702Y-14488884D02*
X13820130Y-14488884D01*
X14001083Y-14488884D02*
X13982035Y-14479360D01*
X13982035Y-14479360D02*
X13972511Y-14460312D01*
X13972511Y-14460312D02*
X13972511Y-14288884D01*
X14153464Y-14479360D02*
X14134416Y-14488884D01*
X14134416Y-14488884D02*
X14096321Y-14488884D01*
X14096321Y-14488884D02*
X14077273Y-14479360D01*
X14077273Y-14479360D02*
X14067750Y-14460312D01*
X14067750Y-14460312D02*
X14067750Y-14384122D01*
X14067750Y-14384122D02*
X14077273Y-14365074D01*
X14077273Y-14365074D02*
X14096321Y-14355550D01*
X14096321Y-14355550D02*
X14134416Y-14355550D01*
X14134416Y-14355550D02*
X14153464Y-14365074D01*
X14153464Y-14365074D02*
X14162988Y-14384122D01*
X14162988Y-14384122D02*
X14162988Y-14403169D01*
X14162988Y-14403169D02*
X14067750Y-14422217D01*
X14239178Y-14479360D02*
X14258226Y-14488884D01*
X14258226Y-14488884D02*
X14296321Y-14488884D01*
X14296321Y-14488884D02*
X14315369Y-14479360D01*
X14315369Y-14479360D02*
X14324892Y-14460312D01*
X14324892Y-14460312D02*
X14324892Y-14450788D01*
X14324892Y-14450788D02*
X14315369Y-14431741D01*
X14315369Y-14431741D02*
X14296321Y-14422217D01*
X14296321Y-14422217D02*
X14267750Y-14422217D01*
X14267750Y-14422217D02*
X14248702Y-14412693D01*
X14248702Y-14412693D02*
X14239178Y-14393646D01*
X14239178Y-14393646D02*
X14239178Y-14384122D01*
X14239178Y-14384122D02*
X14248702Y-14365074D01*
X14248702Y-14365074D02*
X14267750Y-14355550D01*
X14267750Y-14355550D02*
X14296321Y-14355550D01*
X14296321Y-14355550D02*
X14315369Y-14365074D01*
X14391559Y-14565074D02*
X14401083Y-14555550D01*
X14401083Y-14555550D02*
X14420131Y-14526979D01*
X14420131Y-14526979D02*
X14429654Y-14507931D01*
X14429654Y-14507931D02*
X14439178Y-14479360D01*
X14439178Y-14479360D02*
X14448702Y-14431741D01*
X14448702Y-14431741D02*
X14448702Y-14393646D01*
X14448702Y-14393646D02*
X14439178Y-14346027D01*
X14439178Y-14346027D02*
X14429654Y-14317455D01*
X14429654Y-14317455D02*
X14420131Y-14298408D01*
X14420131Y-14298408D02*
X14401083Y-14269836D01*
X14401083Y-14269836D02*
X14391559Y-14260312D01*
D10*
X9376020Y-14611400D02*
X9376020Y-14711400D01*
X9326020Y-14661400D02*
X9426020Y-14661400D01*
D11*
X9791559Y-14752884D02*
X9677273Y-14752884D01*
X9734416Y-14752884D02*
X9734416Y-14552884D01*
X9734416Y-14552884D02*
X9715368Y-14581455D01*
X9715368Y-14581455D02*
X9696321Y-14600503D01*
X9696321Y-14600503D02*
X9677273Y-14610027D01*
X9877273Y-14733836D02*
X9886797Y-14743360D01*
X9886797Y-14743360D02*
X9877273Y-14752884D01*
X9877273Y-14752884D02*
X9867749Y-14743360D01*
X9867749Y-14743360D02*
X9877273Y-14733836D01*
X9877273Y-14733836D02*
X9877273Y-14752884D01*
X10010606Y-14552884D02*
X10029654Y-14552884D01*
X10029654Y-14552884D02*
X10048702Y-14562408D01*
X10048702Y-14562408D02*
X10058225Y-14571931D01*
X10058225Y-14571931D02*
X10067749Y-14590979D01*
X10067749Y-14590979D02*
X10077273Y-14629074D01*
X10077273Y-14629074D02*
X10077273Y-14676693D01*
X10077273Y-14676693D02*
X10067749Y-14714788D01*
X10067749Y-14714788D02*
X10058225Y-14733836D01*
X10058225Y-14733836D02*
X10048702Y-14743360D01*
X10048702Y-14743360D02*
X10029654Y-14752884D01*
X10029654Y-14752884D02*
X10010606Y-14752884D01*
X10010606Y-14752884D02*
X9991559Y-14743360D01*
X9991559Y-14743360D02*
X9982035Y-14733836D01*
X9982035Y-14733836D02*
X9972511Y-14714788D01*
X9972511Y-14714788D02*
X9962987Y-14676693D01*
X9962987Y-14676693D02*
X9962987Y-14629074D01*
X9962987Y-14629074D02*
X9972511Y-14590979D01*
X9972511Y-14590979D02*
X9982035Y-14571931D01*
X9982035Y-14571931D02*
X9991559Y-14562408D01*
X9991559Y-14562408D02*
X10010606Y-14552884D01*
X10201083Y-14552884D02*
X10220130Y-14552884D01*
X10220130Y-14552884D02*
X10239178Y-14562408D01*
X10239178Y-14562408D02*
X10248702Y-14571931D01*
X10248702Y-14571931D02*
X10258225Y-14590979D01*
X10258225Y-14590979D02*
X10267749Y-14629074D01*
X10267749Y-14629074D02*
X10267749Y-14676693D01*
X10267749Y-14676693D02*
X10258225Y-14714788D01*
X10258225Y-14714788D02*
X10248702Y-14733836D01*
X10248702Y-14733836D02*
X10239178Y-14743360D01*
X10239178Y-14743360D02*
X10220130Y-14752884D01*
X10220130Y-14752884D02*
X10201083Y-14752884D01*
X10201083Y-14752884D02*
X10182035Y-14743360D01*
X10182035Y-14743360D02*
X10172511Y-14733836D01*
X10172511Y-14733836D02*
X10162987Y-14714788D01*
X10162987Y-14714788D02*
X10153464Y-14676693D01*
X10153464Y-14676693D02*
X10153464Y-14629074D01*
X10153464Y-14629074D02*
X10162987Y-14590979D01*
X10162987Y-14590979D02*
X10172511Y-14571931D01*
X10172511Y-14571931D02*
X10182035Y-14562408D01*
X10182035Y-14562408D02*
X10201083Y-14552884D01*
X10391559Y-14552884D02*
X10410606Y-14552884D01*
X10410606Y-14552884D02*
X10429654Y-14562408D01*
X10429654Y-14562408D02*
X10439178Y-14571931D01*
X10439178Y-14571931D02*
X10448702Y-14590979D01*
X10448702Y-14590979D02*
X10458225Y-14629074D01*
X10458225Y-14629074D02*
X10458225Y-14676693D01*
X10458225Y-14676693D02*
X10448702Y-14714788D01*
X10448702Y-14714788D02*
X10439178Y-14733836D01*
X10439178Y-14733836D02*
X10429654Y-14743360D01*
X10429654Y-14743360D02*
X10410606Y-14752884D01*
X10410606Y-14752884D02*
X10391559Y-14752884D01*
X10391559Y-14752884D02*
X10372511Y-14743360D01*
X10372511Y-14743360D02*
X10362987Y-14733836D01*
X10362987Y-14733836D02*
X10353464Y-14714788D01*
X10353464Y-14714788D02*
X10343940Y-14676693D01*
X10343940Y-14676693D02*
X10343940Y-14629074D01*
X10343940Y-14629074D02*
X10353464Y-14590979D01*
X10353464Y-14590979D02*
X10362987Y-14571931D01*
X10362987Y-14571931D02*
X10372511Y-14562408D01*
X10372511Y-14562408D02*
X10391559Y-14552884D01*
X10543940Y-14752884D02*
X10543940Y-14619550D01*
X10543940Y-14638598D02*
X10553464Y-14629074D01*
X10553464Y-14629074D02*
X10572511Y-14619550D01*
X10572511Y-14619550D02*
X10601083Y-14619550D01*
X10601083Y-14619550D02*
X10620130Y-14629074D01*
X10620130Y-14629074D02*
X10629654Y-14648122D01*
X10629654Y-14648122D02*
X10629654Y-14752884D01*
X10629654Y-14648122D02*
X10639178Y-14629074D01*
X10639178Y-14629074D02*
X10658225Y-14619550D01*
X10658225Y-14619550D02*
X10686797Y-14619550D01*
X10686797Y-14619550D02*
X10705845Y-14629074D01*
X10705845Y-14629074D02*
X10715368Y-14648122D01*
X10715368Y-14648122D02*
X10715368Y-14752884D01*
X10810606Y-14752884D02*
X10810606Y-14619550D01*
X10810606Y-14638598D02*
X10820130Y-14629074D01*
X10820130Y-14629074D02*
X10839178Y-14619550D01*
X10839178Y-14619550D02*
X10867749Y-14619550D01*
X10867749Y-14619550D02*
X10886797Y-14629074D01*
X10886797Y-14629074D02*
X10896321Y-14648122D01*
X10896321Y-14648122D02*
X10896321Y-14752884D01*
X10896321Y-14648122D02*
X10905845Y-14629074D01*
X10905845Y-14629074D02*
X10924892Y-14619550D01*
X10924892Y-14619550D02*
X10953464Y-14619550D01*
X10953464Y-14619550D02*
X10972511Y-14629074D01*
X10972511Y-14629074D02*
X10982035Y-14648122D01*
X10982035Y-14648122D02*
X10982035Y-14752884D01*
X11372511Y-14543360D02*
X11201083Y-14800503D01*
X11629654Y-14552884D02*
X11648702Y-14552884D01*
X11648702Y-14552884D02*
X11667749Y-14562408D01*
X11667749Y-14562408D02*
X11677273Y-14571931D01*
X11677273Y-14571931D02*
X11686797Y-14590979D01*
X11686797Y-14590979D02*
X11696321Y-14629074D01*
X11696321Y-14629074D02*
X11696321Y-14676693D01*
X11696321Y-14676693D02*
X11686797Y-14714788D01*
X11686797Y-14714788D02*
X11677273Y-14733836D01*
X11677273Y-14733836D02*
X11667749Y-14743360D01*
X11667749Y-14743360D02*
X11648702Y-14752884D01*
X11648702Y-14752884D02*
X11629654Y-14752884D01*
X11629654Y-14752884D02*
X11610606Y-14743360D01*
X11610606Y-14743360D02*
X11601083Y-14733836D01*
X11601083Y-14733836D02*
X11591559Y-14714788D01*
X11591559Y-14714788D02*
X11582035Y-14676693D01*
X11582035Y-14676693D02*
X11582035Y-14629074D01*
X11582035Y-14629074D02*
X11591559Y-14590979D01*
X11591559Y-14590979D02*
X11601083Y-14571931D01*
X11601083Y-14571931D02*
X11610606Y-14562408D01*
X11610606Y-14562408D02*
X11629654Y-14552884D01*
X11782035Y-14733836D02*
X11791559Y-14743360D01*
X11791559Y-14743360D02*
X11782035Y-14752884D01*
X11782035Y-14752884D02*
X11772511Y-14743360D01*
X11772511Y-14743360D02*
X11782035Y-14733836D01*
X11782035Y-14733836D02*
X11782035Y-14752884D01*
X11915368Y-14552884D02*
X11934416Y-14552884D01*
X11934416Y-14552884D02*
X11953464Y-14562408D01*
X11953464Y-14562408D02*
X11962987Y-14571931D01*
X11962987Y-14571931D02*
X11972511Y-14590979D01*
X11972511Y-14590979D02*
X11982035Y-14629074D01*
X11982035Y-14629074D02*
X11982035Y-14676693D01*
X11982035Y-14676693D02*
X11972511Y-14714788D01*
X11972511Y-14714788D02*
X11962987Y-14733836D01*
X11962987Y-14733836D02*
X11953464Y-14743360D01*
X11953464Y-14743360D02*
X11934416Y-14752884D01*
X11934416Y-14752884D02*
X11915368Y-14752884D01*
X11915368Y-14752884D02*
X11896321Y-14743360D01*
X11896321Y-14743360D02*
X11886797Y-14733836D01*
X11886797Y-14733836D02*
X11877273Y-14714788D01*
X11877273Y-14714788D02*
X11867749Y-14676693D01*
X11867749Y-14676693D02*
X11867749Y-14629074D01*
X11867749Y-14629074D02*
X11877273Y-14590979D01*
X11877273Y-14590979D02*
X11886797Y-14571931D01*
X11886797Y-14571931D02*
X11896321Y-14562408D01*
X11896321Y-14562408D02*
X11915368Y-14552884D01*
X12048702Y-14552884D02*
X12172511Y-14552884D01*
X12172511Y-14552884D02*
X12105845Y-14629074D01*
X12105845Y-14629074D02*
X12134416Y-14629074D01*
X12134416Y-14629074D02*
X12153464Y-14638598D01*
X12153464Y-14638598D02*
X12162987Y-14648122D01*
X12162987Y-14648122D02*
X12172511Y-14667169D01*
X12172511Y-14667169D02*
X12172511Y-14714788D01*
X12172511Y-14714788D02*
X12162987Y-14733836D01*
X12162987Y-14733836D02*
X12153464Y-14743360D01*
X12153464Y-14743360D02*
X12134416Y-14752884D01*
X12134416Y-14752884D02*
X12077273Y-14752884D01*
X12077273Y-14752884D02*
X12058226Y-14743360D01*
X12058226Y-14743360D02*
X12048702Y-14733836D01*
X12267749Y-14752884D02*
X12305845Y-14752884D01*
X12305845Y-14752884D02*
X12324892Y-14743360D01*
X12324892Y-14743360D02*
X12334416Y-14733836D01*
X12334416Y-14733836D02*
X12353464Y-14705265D01*
X12353464Y-14705265D02*
X12362987Y-14667169D01*
X12362987Y-14667169D02*
X12362987Y-14590979D01*
X12362987Y-14590979D02*
X12353464Y-14571931D01*
X12353464Y-14571931D02*
X12343940Y-14562408D01*
X12343940Y-14562408D02*
X12324892Y-14552884D01*
X12324892Y-14552884D02*
X12286797Y-14552884D01*
X12286797Y-14552884D02*
X12267749Y-14562408D01*
X12267749Y-14562408D02*
X12258226Y-14571931D01*
X12258226Y-14571931D02*
X12248702Y-14590979D01*
X12248702Y-14590979D02*
X12248702Y-14638598D01*
X12248702Y-14638598D02*
X12258226Y-14657646D01*
X12258226Y-14657646D02*
X12267749Y-14667169D01*
X12267749Y-14667169D02*
X12286797Y-14676693D01*
X12286797Y-14676693D02*
X12324892Y-14676693D01*
X12324892Y-14676693D02*
X12343940Y-14667169D01*
X12343940Y-14667169D02*
X12353464Y-14657646D01*
X12353464Y-14657646D02*
X12362987Y-14638598D01*
X12534416Y-14619550D02*
X12534416Y-14752884D01*
X12486797Y-14543360D02*
X12439178Y-14686217D01*
X12439178Y-14686217D02*
X12562987Y-14686217D01*
X12629654Y-14552884D02*
X12629654Y-14590979D01*
X12705845Y-14552884D02*
X12705845Y-14590979D01*
X13001083Y-14829074D02*
X12991559Y-14819550D01*
X12991559Y-14819550D02*
X12972511Y-14790979D01*
X12972511Y-14790979D02*
X12962988Y-14771931D01*
X12962988Y-14771931D02*
X12953464Y-14743360D01*
X12953464Y-14743360D02*
X12943940Y-14695741D01*
X12943940Y-14695741D02*
X12943940Y-14657646D01*
X12943940Y-14657646D02*
X12953464Y-14610027D01*
X12953464Y-14610027D02*
X12962988Y-14581455D01*
X12962988Y-14581455D02*
X12972511Y-14562408D01*
X12972511Y-14562408D02*
X12991559Y-14533836D01*
X12991559Y-14533836D02*
X13001083Y-14524312D01*
X13067749Y-14571931D02*
X13077273Y-14562408D01*
X13077273Y-14562408D02*
X13096321Y-14552884D01*
X13096321Y-14552884D02*
X13143940Y-14552884D01*
X13143940Y-14552884D02*
X13162988Y-14562408D01*
X13162988Y-14562408D02*
X13172511Y-14571931D01*
X13172511Y-14571931D02*
X13182035Y-14590979D01*
X13182035Y-14590979D02*
X13182035Y-14610027D01*
X13182035Y-14610027D02*
X13172511Y-14638598D01*
X13172511Y-14638598D02*
X13058226Y-14752884D01*
X13058226Y-14752884D02*
X13182035Y-14752884D01*
X13258226Y-14571931D02*
X13267749Y-14562408D01*
X13267749Y-14562408D02*
X13286797Y-14552884D01*
X13286797Y-14552884D02*
X13334416Y-14552884D01*
X13334416Y-14552884D02*
X13353464Y-14562408D01*
X13353464Y-14562408D02*
X13362988Y-14571931D01*
X13362988Y-14571931D02*
X13372511Y-14590979D01*
X13372511Y-14590979D02*
X13372511Y-14610027D01*
X13372511Y-14610027D02*
X13362988Y-14638598D01*
X13362988Y-14638598D02*
X13248702Y-14752884D01*
X13248702Y-14752884D02*
X13372511Y-14752884D01*
X13610607Y-14752884D02*
X13610607Y-14552884D01*
X13696321Y-14752884D02*
X13696321Y-14648122D01*
X13696321Y-14648122D02*
X13686797Y-14629074D01*
X13686797Y-14629074D02*
X13667750Y-14619550D01*
X13667750Y-14619550D02*
X13639178Y-14619550D01*
X13639178Y-14619550D02*
X13620130Y-14629074D01*
X13620130Y-14629074D02*
X13610607Y-14638598D01*
X13820130Y-14752884D02*
X13801083Y-14743360D01*
X13801083Y-14743360D02*
X13791559Y-14733836D01*
X13791559Y-14733836D02*
X13782035Y-14714788D01*
X13782035Y-14714788D02*
X13782035Y-14657646D01*
X13782035Y-14657646D02*
X13791559Y-14638598D01*
X13791559Y-14638598D02*
X13801083Y-14629074D01*
X13801083Y-14629074D02*
X13820130Y-14619550D01*
X13820130Y-14619550D02*
X13848702Y-14619550D01*
X13848702Y-14619550D02*
X13867750Y-14629074D01*
X13867750Y-14629074D02*
X13877273Y-14638598D01*
X13877273Y-14638598D02*
X13886797Y-14657646D01*
X13886797Y-14657646D02*
X13886797Y-14714788D01*
X13886797Y-14714788D02*
X13877273Y-14733836D01*
X13877273Y-14733836D02*
X13867750Y-14743360D01*
X13867750Y-14743360D02*
X13848702Y-14752884D01*
X13848702Y-14752884D02*
X13820130Y-14752884D01*
X14001083Y-14752884D02*
X13982035Y-14743360D01*
X13982035Y-14743360D02*
X13972511Y-14724312D01*
X13972511Y-14724312D02*
X13972511Y-14552884D01*
X14153464Y-14743360D02*
X14134416Y-14752884D01*
X14134416Y-14752884D02*
X14096321Y-14752884D01*
X14096321Y-14752884D02*
X14077273Y-14743360D01*
X14077273Y-14743360D02*
X14067750Y-14724312D01*
X14067750Y-14724312D02*
X14067750Y-14648122D01*
X14067750Y-14648122D02*
X14077273Y-14629074D01*
X14077273Y-14629074D02*
X14096321Y-14619550D01*
X14096321Y-14619550D02*
X14134416Y-14619550D01*
X14134416Y-14619550D02*
X14153464Y-14629074D01*
X14153464Y-14629074D02*
X14162988Y-14648122D01*
X14162988Y-14648122D02*
X14162988Y-14667169D01*
X14162988Y-14667169D02*
X14067750Y-14686217D01*
X14239178Y-14743360D02*
X14258226Y-14752884D01*
X14258226Y-14752884D02*
X14296321Y-14752884D01*
X14296321Y-14752884D02*
X14315369Y-14743360D01*
X14315369Y-14743360D02*
X14324892Y-14724312D01*
X14324892Y-14724312D02*
X14324892Y-14714788D01*
X14324892Y-14714788D02*
X14315369Y-14695741D01*
X14315369Y-14695741D02*
X14296321Y-14686217D01*
X14296321Y-14686217D02*
X14267750Y-14686217D01*
X14267750Y-14686217D02*
X14248702Y-14676693D01*
X14248702Y-14676693D02*
X14239178Y-14657646D01*
X14239178Y-14657646D02*
X14239178Y-14648122D01*
X14239178Y-14648122D02*
X14248702Y-14629074D01*
X14248702Y-14629074D02*
X14267750Y-14619550D01*
X14267750Y-14619550D02*
X14296321Y-14619550D01*
X14296321Y-14619550D02*
X14315369Y-14629074D01*
X14391559Y-14829074D02*
X14401083Y-14819550D01*
X14401083Y-14819550D02*
X14420131Y-14790979D01*
X14420131Y-14790979D02*
X14429654Y-14771931D01*
X14429654Y-14771931D02*
X14439178Y-14743360D01*
X14439178Y-14743360D02*
X14448702Y-14695741D01*
X14448702Y-14695741D02*
X14448702Y-14657646D01*
X14448702Y-14657646D02*
X14439178Y-14610027D01*
X14439178Y-14610027D02*
X14429654Y-14581455D01*
X14429654Y-14581455D02*
X14420131Y-14562408D01*
X14420131Y-14562408D02*
X14401083Y-14533836D01*
X14401083Y-14533836D02*
X14391559Y-14524312D01*
M02*
