%TF.GenerationSoftware,KiCad,Pcbnew,7.0.6*%
%TF.CreationDate,2023-07-08T15:29:37+08:00*%
%TF.ProjectId,SerialBoard,53657269-616c-4426-9f61-72642e6b6963,rev?*%
%TF.SameCoordinates,Original*%
%TF.FileFunction,Copper,L1,Top*%
%TF.FilePolarity,Positive*%
%FSLAX46Y46*%
G04 Gerber Fmt 4.6, Leading zero omitted, Abs format (unit mm)*
G04 Created by KiCad (PCBNEW 7.0.6) date 2023-07-08 15:29:37*
%MOMM*%
%LPD*%
G01*
G04 APERTURE LIST*
%TA.AperFunction,ComponentPad*%
%ADD10R,1.600000X1.600000*%
%TD*%
%TA.AperFunction,ComponentPad*%
%ADD11O,1.600000X1.600000*%
%TD*%
%TA.AperFunction,ConnectorPad*%
%ADD12R,1.780000X7.620000*%
%TD*%
%TA.AperFunction,ComponentPad*%
%ADD13R,1.700000X1.700000*%
%TD*%
%TA.AperFunction,ComponentPad*%
%ADD14O,1.700000X1.700000*%
%TD*%
%TA.AperFunction,ComponentPad*%
%ADD15C,1.600000*%
%TD*%
%TA.AperFunction,ComponentPad*%
%ADD16C,1.500000*%
%TD*%
%TA.AperFunction,ViaPad*%
%ADD17C,0.600000*%
%TD*%
%TA.AperFunction,Conductor*%
%ADD18C,0.300000*%
%TD*%
%TA.AperFunction,Conductor*%
%ADD19C,0.500000*%
%TD*%
G04 APERTURE END LIST*
D10*
%TO.P,U1,1,GND*%
%TO.N,GND*%
X158750000Y-88900000D03*
D11*
%TO.P,U1,2,CS0*%
%TO.N,+5V*%
X156210000Y-88900000D03*
%TO.P,U1,3,~{CS1}*%
%TO.N,PORTCSB*%
X153670000Y-88900000D03*
%TO.P,U1,4,~{RESET}*%
%TO.N,RESET*%
X151130000Y-88900000D03*
%TO.P,U1,5,Rx_CLK*%
%TO.N,unconnected-(U1-Rx_CLK-Pad5)*%
X148590000Y-88900000D03*
%TO.P,U1,6,XTLI*%
%TO.N,Net-(U1-XTLI)*%
X146050000Y-88900000D03*
%TO.P,U1,7,XLT0*%
%TO.N,Net-(U1-XLT0)*%
X143510000Y-88900000D03*
%TO.P,U1,8,~{RTS}*%
%TO.N,RTS*%
X140970000Y-88900000D03*
%TO.P,U1,9,~{CTS}*%
%TO.N,CTS*%
X138430000Y-88900000D03*
%TO.P,U1,10,Tx_Data*%
%TO.N,TX*%
X135890000Y-88900000D03*
%TO.P,U1,11,~{DTR}*%
%TO.N,DTR*%
X133350000Y-88900000D03*
%TO.P,U1,12,Rx_Data*%
%TO.N,RX*%
X130810000Y-88900000D03*
%TO.P,U1,13,RS0*%
%TO.N,/A0*%
X128270000Y-88900000D03*
%TO.P,U1,14,RS1*%
%TO.N,/A1*%
X125730000Y-88900000D03*
%TO.P,U1,15,VCC*%
%TO.N,+5V*%
X125730000Y-104140000D03*
%TO.P,U1,16,~{DCD}*%
%TO.N,DCD*%
X128270000Y-104140000D03*
%TO.P,U1,17,~{DSR}*%
%TO.N,DSR*%
X130810000Y-104140000D03*
%TO.P,U1,18,D0*%
%TO.N,/D0*%
X133350000Y-104140000D03*
%TO.P,U1,19,D1*%
%TO.N,/D1*%
X135890000Y-104140000D03*
%TO.P,U1,20,D2*%
%TO.N,/D2*%
X138430000Y-104140000D03*
%TO.P,U1,21,D3*%
%TO.N,/D3*%
X140970000Y-104140000D03*
%TO.P,U1,22,D4*%
%TO.N,/D4*%
X143510000Y-104140000D03*
%TO.P,U1,23,D5*%
%TO.N,/D5*%
X146050000Y-104140000D03*
%TO.P,U1,24,D6*%
%TO.N,/D6*%
X148590000Y-104140000D03*
%TO.P,U1,25,D7*%
%TO.N,/D7*%
X151130000Y-104140000D03*
%TO.P,U1,26,~{IRQ}*%
%TO.N,IRQB*%
X153670000Y-104140000D03*
%TO.P,U1,27,PHI2*%
%TO.N,CLOCK*%
X156210000Y-104140000D03*
%TO.P,U1,28,R/~{W}*%
%TO.N,RW*%
X158750000Y-104140000D03*
%TD*%
D12*
%TO.P,J1,2,Pin_2*%
%TO.N,+5V*%
X193040000Y-130810000D03*
%TO.P,J1,4,Pin_4*%
%TO.N,CLOCK*%
X190500000Y-130810000D03*
%TO.P,J1,6,Pin_6*%
%TO.N,unconnected-(J1-Pin_6-Pad6)*%
X187960000Y-130810000D03*
%TO.P,J1,8,Pin_8*%
%TO.N,unconnected-(J1-Pin_8-Pad8)*%
X185420000Y-130810000D03*
%TO.P,J1,10,Pin_10*%
%TO.N,unconnected-(J1-Pin_10-Pad10)*%
X182880000Y-130810000D03*
%TO.P,J1,12,Pin_12*%
%TO.N,unconnected-(J1-Pin_12-Pad12)*%
X180340000Y-130810000D03*
%TO.P,J1,14,Pin_14*%
%TO.N,/D7*%
X177800000Y-130810000D03*
%TO.P,J1,16,Pin_16*%
%TO.N,/D6*%
X175260000Y-130810000D03*
%TO.P,J1,18,Pin_18*%
%TO.N,/D5*%
X172720000Y-130810000D03*
%TO.P,J1,20,Pin_20*%
%TO.N,/D4*%
X170180000Y-130810000D03*
%TO.P,J1,22,Pin_22*%
%TO.N,/D3*%
X167640000Y-130810000D03*
%TO.P,J1,24,Pin_24*%
%TO.N,/D2*%
X165100000Y-130810000D03*
%TO.P,J1,26,Pin_26*%
%TO.N,/D1*%
X162560000Y-130810000D03*
%TO.P,J1,28,Pin_28*%
%TO.N,/D0*%
X160020000Y-130810000D03*
%TO.P,J1,30,Pin_30*%
%TO.N,PORTCSB*%
X157480000Y-130810000D03*
%TO.P,J1,32,Pin_32*%
%TO.N,RESET*%
X154940000Y-130810000D03*
%TO.P,J1,34,Pin_34*%
%TO.N,unconnected-(J1-Pin_34-Pad34)*%
X152400000Y-130810000D03*
%TO.P,J1,36,Pin_36*%
%TO.N,unconnected-(J1-Pin_36-Pad36)*%
X149860000Y-130810000D03*
%TO.P,J1,38,Pin_38*%
%TO.N,unconnected-(J1-Pin_38-Pad38)*%
X147320000Y-130810000D03*
%TO.P,J1,40,Pin_40*%
%TO.N,unconnected-(J1-Pin_40-Pad40)*%
X144780000Y-130810000D03*
%TO.P,J1,42,Pin_42*%
%TO.N,unconnected-(J1-Pin_42-Pad42)*%
X142240000Y-130810000D03*
%TO.P,J1,44,Pin_44*%
%TO.N,unconnected-(J1-Pin_44-Pad44)*%
X139700000Y-130810000D03*
%TO.P,J1,46,Pin_46*%
%TO.N,unconnected-(J1-Pin_46-Pad46)*%
X137160000Y-130810000D03*
%TO.P,J1,48,Pin_48*%
%TO.N,unconnected-(J1-Pin_48-Pad48)*%
X134620000Y-130810000D03*
%TO.P,J1,50,Pin_50*%
%TO.N,unconnected-(J1-Pin_50-Pad50)*%
X132080000Y-130810000D03*
%TO.P,J1,52,Pin_52*%
%TO.N,unconnected-(J1-Pin_52-Pad52)*%
X129540000Y-130810000D03*
%TO.P,J1,54,Pin_54*%
%TO.N,unconnected-(J1-Pin_54-Pad54)*%
X127000000Y-130810000D03*
%TO.P,J1,56,Pin_56*%
%TO.N,unconnected-(J1-Pin_56-Pad56)*%
X124460000Y-130810000D03*
%TO.P,J1,58,Pin_58*%
%TO.N,unconnected-(J1-Pin_58-Pad58)*%
X121920000Y-130810000D03*
%TO.P,J1,60,Pin_60*%
%TO.N,unconnected-(J1-Pin_60-Pad60)*%
X119380000Y-130810000D03*
%TD*%
D13*
%TO.P,J2,1,Pin_1*%
%TO.N,TX*%
X198120000Y-80010000D03*
D14*
%TO.P,J2,2,Pin_2*%
%TO.N,RX*%
X200660000Y-80010000D03*
%TO.P,J2,3,Pin_3*%
%TO.N,GND*%
X203200000Y-80010000D03*
%TD*%
D13*
%TO.P,J3,1,Pin_1*%
%TO.N,GND*%
X176530000Y-80010000D03*
D14*
%TO.P,J3,2,Pin_2*%
%TO.N,RESET*%
X179070000Y-80010000D03*
%TO.P,J3,3,Pin_3*%
%TO.N,unconnected-(J3-Pin_3-Pad3)*%
X181610000Y-80010000D03*
%TO.P,J3,4,Pin_4*%
%TO.N,DCD*%
X184150000Y-80010000D03*
%TO.P,J3,5,Pin_5*%
%TO.N,DSR*%
X186690000Y-80010000D03*
%TO.P,J3,6,Pin_6*%
%TO.N,DTR*%
X189230000Y-80010000D03*
%TO.P,J3,7,Pin_7*%
%TO.N,CTS*%
X191770000Y-80010000D03*
%TO.P,J3,8,Pin_8*%
%TO.N,RTS*%
X194310000Y-80010000D03*
%TD*%
D13*
%TO.P,J4,1,Pin_1*%
%TO.N,unconnected-(J4-Pin_1-Pad1)*%
X176530000Y-104140000D03*
D14*
%TO.P,J4,2,Pin_2*%
%TO.N,unconnected-(J4-Pin_2-Pad2)*%
X179070000Y-104140000D03*
%TO.P,J4,3,Pin_3*%
%TO.N,unconnected-(J4-Pin_3-Pad3)*%
X181610000Y-104140000D03*
%TO.P,J4,4,Pin_4*%
%TO.N,unconnected-(J4-Pin_4-Pad4)*%
X184150000Y-104140000D03*
%TO.P,J4,5,Pin_5*%
%TO.N,unconnected-(J4-Pin_5-Pad5)*%
X186690000Y-104140000D03*
%TO.P,J4,6,Pin_6*%
%TO.N,unconnected-(J4-Pin_6-Pad6)*%
X189230000Y-104140000D03*
%TO.P,J4,7,Pin_7*%
%TO.N,unconnected-(J4-Pin_7-Pad7)*%
X191770000Y-104140000D03*
%TO.P,J4,8,Pin_8*%
%TO.N,unconnected-(J4-Pin_8-Pad8)*%
X194310000Y-104140000D03*
%TD*%
D15*
%TO.P,C2,1*%
%TO.N,+5V*%
X121920000Y-104140000D03*
%TO.P,C2,2*%
%TO.N,GND*%
X121920000Y-101640000D03*
%TD*%
%TO.P,C1,1*%
%TO.N,Net-(U1-XTLI)*%
X153670000Y-81367000D03*
%TO.P,C1,2*%
%TO.N,GND*%
X153670000Y-78867000D03*
%TD*%
D13*
%TO.P,J5,1,Pin_1*%
%TO.N,unconnected-(J5-Pin_1-Pad1)*%
X198120000Y-104140000D03*
D14*
%TO.P,J5,2,Pin_2*%
%TO.N,unconnected-(J5-Pin_2-Pad2)*%
X200660000Y-104140000D03*
%TO.P,J5,3,Pin_3*%
%TO.N,unconnected-(J5-Pin_3-Pad3)*%
X203200000Y-104140000D03*
%TD*%
D16*
%TO.P,Y1,1,1*%
%TO.N,Net-(U1-XLT0)*%
X143510000Y-80010000D03*
%TO.P,Y1,2,2*%
%TO.N,Net-(U1-XTLI)*%
X148390000Y-80010000D03*
%TD*%
D15*
%TO.P,R1,1*%
%TO.N,Net-(U1-XTLI)*%
X153670000Y-85090000D03*
D11*
%TO.P,R1,2*%
%TO.N,Net-(U1-XLT0)*%
X143510000Y-85090000D03*
%TD*%
D17*
%TO.N,+5V*%
X119380000Y-124460000D03*
%TO.N,/A1*%
X163830000Y-100330000D03*
%TO.N,/A0*%
X162560000Y-99060000D03*
%TO.N,PORTCSB*%
X156210000Y-124460000D03*
%TO.N,RESET*%
X179070000Y-91440000D03*
X154940000Y-124460000D03*
%TO.N,TX*%
X198120000Y-95250000D03*
%TO.N,RX*%
X200660000Y-97790000D03*
%TO.N,DCD*%
X184150000Y-99060000D03*
%TO.N,DSR*%
X186690000Y-100330000D03*
%TO.N,DTR*%
X189230000Y-96520000D03*
%TO.N,CTS*%
X191770000Y-93980000D03*
%TO.N,RTS*%
X194310000Y-92710000D03*
%TD*%
D18*
%TO.N,Net-(U1-XLT0)*%
X143510000Y-85090000D02*
X143510000Y-80010000D01*
X143510000Y-89321000D02*
X143510000Y-85090000D01*
%TO.N,Net-(U1-XTLI)*%
X146050000Y-88900000D02*
X146050000Y-85725000D01*
X153670000Y-81323500D02*
X153670000Y-85090000D01*
X152356500Y-80010000D02*
X153670000Y-81323500D01*
X146050000Y-85725000D02*
X146685000Y-85090000D01*
X148410000Y-80010000D02*
X152356500Y-80010000D01*
X146685000Y-85090000D02*
X153670000Y-85090000D01*
D19*
%TO.N,+5V*%
X120650000Y-104140000D02*
X125730000Y-104140000D01*
X119380000Y-105410000D02*
X120650000Y-104140000D01*
X95250000Y-123367800D02*
X95250000Y-63284100D01*
X119380000Y-124460000D02*
X96342200Y-124460000D01*
X119380000Y-124460000D02*
X119380000Y-105410000D01*
X156210000Y-88900000D02*
X156210000Y-62230000D01*
X212090000Y-62230000D02*
X213360000Y-63500000D01*
X213360000Y-123609100D02*
X212509100Y-124460000D01*
X193040000Y-126784100D02*
X193040000Y-130810000D01*
X96342200Y-124460000D02*
X95250000Y-123367800D01*
X195364100Y-124460000D02*
X193040000Y-126784100D01*
X212509100Y-124460000D02*
X195364100Y-124460000D01*
X95250000Y-63284100D02*
X96304100Y-62230000D01*
X213360000Y-63500000D02*
X213360000Y-123609100D01*
X96304100Y-62230000D02*
X212090000Y-62230000D01*
D18*
%TO.N,CLOCK*%
X156210000Y-106680000D02*
X157480000Y-107950000D01*
X156210000Y-104140000D02*
X156210000Y-106680000D01*
X189230000Y-107950000D02*
X190500000Y-109220000D01*
X157480000Y-107950000D02*
X189230000Y-107950000D01*
X190500000Y-109220000D02*
X190500000Y-129971800D01*
%TO.N,/D7*%
X151130000Y-104140000D02*
X151130000Y-107950000D01*
X152400000Y-109220000D02*
X176530000Y-109220000D01*
X177800000Y-110490000D02*
X177800000Y-129971800D01*
X176530000Y-109220000D02*
X177800000Y-110490000D01*
X151130000Y-107950000D02*
X152400000Y-109220000D01*
%TO.N,/D6*%
X175260000Y-111760000D02*
X175260000Y-129971800D01*
X148590000Y-109220000D02*
X149860000Y-110490000D01*
X173990000Y-110490000D02*
X175260000Y-111760000D01*
X148590000Y-104140000D02*
X148590000Y-109220000D01*
X149860000Y-110490000D02*
X173990000Y-110490000D01*
%TO.N,/D5*%
X146050000Y-110490000D02*
X147320000Y-111760000D01*
X171450000Y-111760000D02*
X172720000Y-113030000D01*
X147320000Y-111760000D02*
X171450000Y-111760000D01*
X172720000Y-113030000D02*
X172720000Y-129971800D01*
X146050000Y-104140000D02*
X146050000Y-110490000D01*
%TO.N,/D4*%
X168910000Y-113030000D02*
X170180000Y-114300000D01*
X143510000Y-111760000D02*
X144780000Y-113030000D01*
X170180000Y-114300000D02*
X170180000Y-129971800D01*
X143510000Y-104140000D02*
X143510000Y-111760000D01*
X144780000Y-113030000D02*
X168910000Y-113030000D01*
%TO.N,/D3*%
X166370000Y-114300000D02*
X167640000Y-115570000D01*
X140970000Y-113030000D02*
X142240000Y-114300000D01*
X167640000Y-115570000D02*
X167640000Y-129971800D01*
X142240000Y-114300000D02*
X166370000Y-114300000D01*
X140970000Y-104140000D02*
X140970000Y-113030000D01*
%TO.N,/A1*%
X127000000Y-100330000D02*
X125730000Y-99060000D01*
X125730000Y-99060000D02*
X125730000Y-88900000D01*
X163830000Y-100330000D02*
X127000000Y-100330000D01*
%TO.N,/D2*%
X163830000Y-115570000D02*
X165100000Y-116840000D01*
X139700000Y-115570000D02*
X163830000Y-115570000D01*
X138430000Y-104140000D02*
X138430000Y-114300000D01*
X138430000Y-114300000D02*
X139700000Y-115570000D01*
X165100000Y-116840000D02*
X165100000Y-129971800D01*
%TO.N,/A0*%
X129540000Y-99060000D02*
X128270000Y-97790000D01*
X128270000Y-97790000D02*
X128270000Y-88900000D01*
X162560000Y-99060000D02*
X129540000Y-99060000D01*
%TO.N,/D1*%
X162560000Y-118176842D02*
X162560000Y-130149600D01*
X135890000Y-115570000D02*
X137160000Y-116840000D01*
X137160000Y-116840000D02*
X161223158Y-116840000D01*
X161223158Y-116840000D02*
X162560000Y-118176842D01*
X135890000Y-104140000D02*
X135890000Y-115570000D01*
%TO.N,/D0*%
X160020000Y-119380000D02*
X160020000Y-129971800D01*
X133350000Y-104140000D02*
X133350000Y-116840000D01*
X158750000Y-118110000D02*
X160020000Y-119380000D01*
X133350000Y-116840000D02*
X134620000Y-118110000D01*
X134620000Y-118110000D02*
X158750000Y-118110000D01*
%TO.N,PORTCSB*%
X157480000Y-129971800D02*
X157480000Y-125730000D01*
X157480000Y-125730000D02*
X156210000Y-124460000D01*
%TO.N,RESET*%
X154940000Y-124460000D02*
X154940000Y-129971800D01*
X151130000Y-88900000D02*
X151130000Y-90170000D01*
X151130000Y-90170000D02*
X152400000Y-91440000D01*
X152400000Y-91440000D02*
X179070000Y-91440000D01*
%TO.N,TX*%
X137160000Y-95250000D02*
X135890000Y-93980000D01*
X135890000Y-93980000D02*
X135890000Y-88900000D01*
X198120000Y-95250000D02*
X137160000Y-95250000D01*
%TO.N,RX*%
X130810000Y-96520000D02*
X130810000Y-88900000D01*
X200660000Y-97790000D02*
X132080000Y-97790000D01*
X132080000Y-97790000D02*
X130810000Y-96520000D01*
%TO.N,DCD*%
X184150000Y-99060000D02*
X166370000Y-99060000D01*
X128270000Y-102870000D02*
X128270000Y-104140000D01*
X163830000Y-101600000D02*
X129540000Y-101600000D01*
X166370000Y-99060000D02*
X163830000Y-101600000D01*
X129540000Y-101600000D02*
X128270000Y-102870000D01*
%TO.N,DSR*%
X167640000Y-100330000D02*
X165100000Y-102870000D01*
X132080000Y-102870000D02*
X130810000Y-104140000D01*
X186690000Y-100330000D02*
X167640000Y-100330000D01*
X165100000Y-102870000D02*
X132080000Y-102870000D01*
%TO.N,DTR*%
X134620000Y-96520000D02*
X189230000Y-96520000D01*
X133350000Y-95250000D02*
X134620000Y-96520000D01*
X133350000Y-88900000D02*
X133350000Y-95250000D01*
%TO.N,CTS*%
X138430000Y-92710000D02*
X139700000Y-93980000D01*
X138430000Y-88900000D02*
X138430000Y-92710000D01*
X139700000Y-93980000D02*
X191770000Y-93980000D01*
%TO.N,RTS*%
X140970000Y-91440000D02*
X142240000Y-92710000D01*
X140970000Y-88900000D02*
X140970000Y-91440000D01*
X142240000Y-92710000D02*
X194310000Y-92710000D01*
%TD*%
M02*
