%TF.GenerationSoftware,KiCad,Pcbnew,7.0.9*%
%TF.CreationDate,2023-12-21T22:12:37+08:00*%
%TF.ProjectId,ArduinoMultiInterface,41726475-696e-46f4-9d75-6c7469496e74,rev?*%
%TF.SameCoordinates,Original*%
%TF.FileFunction,Drillmap*%
%TF.FilePolarity,Positive*%
%FSLAX45Y45*%
G04 Gerber Fmt 4.5, Leading zero omitted, Abs format (unit mm)*
G04 Created by KiCad (PCBNEW 7.0.9) date 2023-12-21 22:12:37*
%MOMM*%
%LPD*%
G01*
G04 APERTURE LIST*
%ADD10C,0.100000*%
%ADD11C,0.200000*%
%ADD12C,0.110000*%
G04 APERTURE END LIST*
D10*
X8966200Y-13843000D02*
X8966200Y-7670800D01*
X20828000Y-13970000D02*
G75*
G03*
X20955000Y-13843000I0J127000D01*
G01*
X20955000Y-13843000D02*
X20955000Y-7670800D01*
X19143980Y-13970000D02*
X20828000Y-13970000D01*
X20955000Y-7670800D02*
G75*
G03*
X20828000Y-7543800I-127000J0D01*
G01*
X8966200Y-13843000D02*
G75*
G03*
X9093200Y-13970000I127000J0D01*
G01*
X20828000Y-7543800D02*
X9093200Y-7543800D01*
X9093200Y-7543800D02*
G75*
G03*
X8966200Y-7670800I0J-127000D01*
G01*
X11142980Y-13970000D02*
X9093200Y-13970000D01*
D11*
D10*
X10399000Y-13193000D02*
X10429000Y-13223000D01*
X10429000Y-13193000D02*
X10399000Y-13223000D01*
X10462500Y-13256500D02*
X10492500Y-13286500D01*
X10492500Y-13256500D02*
X10462500Y-13286500D01*
X10526000Y-13383500D02*
X10556000Y-13413500D01*
X10556000Y-13383500D02*
X10526000Y-13413500D01*
X10589500Y-13320000D02*
X10619500Y-13350000D01*
X10619500Y-13320000D02*
X10589500Y-13350000D01*
X11415000Y-13955000D02*
X11445000Y-13985000D01*
X11445000Y-13955000D02*
X11415000Y-13985000D01*
X12240500Y-13256500D02*
X12270500Y-13286500D01*
X12270500Y-13256500D02*
X12240500Y-13286500D01*
X12304000Y-13320000D02*
X12334000Y-13350000D01*
X12334000Y-13320000D02*
X12304000Y-13350000D01*
X12367500Y-13383500D02*
X12397500Y-13413500D01*
X12397500Y-13383500D02*
X12367500Y-13413500D01*
X12431000Y-13447000D02*
X12461000Y-13477000D01*
X12461000Y-13447000D02*
X12431000Y-13477000D01*
X12494500Y-13510500D02*
X12524500Y-13540500D01*
X12524500Y-13510500D02*
X12494500Y-13540500D01*
X12558000Y-13574000D02*
X12588000Y-13604000D01*
X12588000Y-13574000D02*
X12558000Y-13604000D01*
X12621500Y-13637500D02*
X12651500Y-13667500D01*
X12651500Y-13637500D02*
X12621500Y-13667500D01*
X12685000Y-13701000D02*
X12715000Y-13731000D01*
X12715000Y-13701000D02*
X12685000Y-13731000D01*
X13002500Y-12748500D02*
X13032500Y-12778500D01*
X13032500Y-12748500D02*
X13002500Y-12778500D01*
X13066000Y-12685000D02*
X13096000Y-12715000D01*
X13096000Y-12685000D02*
X13066000Y-12715000D01*
X13129500Y-12621500D02*
X13159500Y-12651500D01*
X13159500Y-12621500D02*
X13129500Y-12651500D01*
X13637500Y-12748500D02*
X13667500Y-12778500D01*
X13667500Y-12748500D02*
X13637500Y-12778500D01*
X13701000Y-12685000D02*
X13731000Y-12715000D01*
X13731000Y-12685000D02*
X13701000Y-12715000D01*
X13764500Y-12621500D02*
X13794500Y-12651500D01*
X13794500Y-12621500D02*
X13764500Y-12651500D01*
X15479000Y-13828000D02*
X15509000Y-13858000D01*
X15509000Y-13828000D02*
X15479000Y-13858000D01*
X15606000Y-13701000D02*
X15636000Y-13731000D01*
X15636000Y-13701000D02*
X15606000Y-13731000D01*
X15606000Y-13955000D02*
X15636000Y-13985000D01*
X15636000Y-13955000D02*
X15606000Y-13985000D01*
X15733000Y-12875500D02*
X15763000Y-12905500D01*
X15763000Y-12875500D02*
X15733000Y-12905500D01*
X15733000Y-13764500D02*
X15763000Y-13794500D01*
X15763000Y-13764500D02*
X15733000Y-13794500D01*
X15860000Y-13637500D02*
X15890000Y-13667500D01*
X15890000Y-13637500D02*
X15860000Y-13667500D01*
X15860000Y-13955000D02*
X15890000Y-13985000D01*
X15890000Y-13955000D02*
X15860000Y-13985000D01*
X15987000Y-13764500D02*
X16017000Y-13794500D01*
X16017000Y-13764500D02*
X15987000Y-13794500D01*
X16050500Y-13701000D02*
X16080500Y-13731000D01*
X16080500Y-13701000D02*
X16050500Y-13731000D01*
X16114000Y-13637500D02*
X16144000Y-13667500D01*
X16144000Y-13637500D02*
X16114000Y-13667500D01*
X16114000Y-13955000D02*
X16144000Y-13985000D01*
X16144000Y-13955000D02*
X16114000Y-13985000D01*
X16177500Y-13574000D02*
X16207500Y-13604000D01*
X16207500Y-13574000D02*
X16177500Y-13604000D01*
X16241000Y-13510500D02*
X16271000Y-13540500D01*
X16271000Y-13510500D02*
X16241000Y-13540500D01*
X16241000Y-13701000D02*
X16271000Y-13731000D01*
X16271000Y-13701000D02*
X16241000Y-13731000D01*
X16304500Y-13447000D02*
X16334500Y-13477000D01*
X16334500Y-13447000D02*
X16304500Y-13477000D01*
X16368000Y-13383500D02*
X16398000Y-13413500D01*
X16398000Y-13383500D02*
X16368000Y-13413500D01*
X16368000Y-13955000D02*
X16398000Y-13985000D01*
X16398000Y-13955000D02*
X16368000Y-13985000D01*
X16431500Y-13320000D02*
X16461500Y-13350000D01*
X16461500Y-13320000D02*
X16431500Y-13350000D01*
X16495000Y-13256500D02*
X16525000Y-13286500D01*
X16525000Y-13256500D02*
X16495000Y-13286500D01*
X16495000Y-13637500D02*
X16525000Y-13667500D01*
X16525000Y-13637500D02*
X16495000Y-13667500D01*
X16622000Y-13574000D02*
X16652000Y-13604000D01*
X16652000Y-13574000D02*
X16622000Y-13604000D01*
X16622000Y-13955000D02*
X16652000Y-13985000D01*
X16652000Y-13955000D02*
X16622000Y-13985000D01*
X16749000Y-13890500D02*
X16779000Y-13920500D01*
X16779000Y-13890500D02*
X16749000Y-13920500D01*
X16876000Y-13510500D02*
X16906000Y-13540500D01*
X16906000Y-13510500D02*
X16876000Y-13540500D01*
X16876000Y-13955000D02*
X16906000Y-13985000D01*
X16906000Y-13955000D02*
X16876000Y-13985000D01*
X17003000Y-13447000D02*
X17033000Y-13477000D01*
X17033000Y-13447000D02*
X17003000Y-13477000D01*
X17130000Y-13383500D02*
X17160000Y-13413500D01*
X17160000Y-13383500D02*
X17130000Y-13413500D01*
X17130000Y-13955000D02*
X17160000Y-13985000D01*
X17160000Y-13955000D02*
X17130000Y-13985000D01*
X17384000Y-13637500D02*
X17414000Y-13667500D01*
X17414000Y-13637500D02*
X17384000Y-13667500D01*
X17384000Y-13955000D02*
X17414000Y-13985000D01*
X17414000Y-13955000D02*
X17384000Y-13985000D01*
X17447500Y-13701000D02*
X17477500Y-13731000D01*
X17477500Y-13701000D02*
X17447500Y-13731000D01*
X17511000Y-13764500D02*
X17541000Y-13794500D01*
X17541000Y-13764500D02*
X17511000Y-13794500D01*
X18019000Y-10589500D02*
X18049000Y-10619500D01*
X18049000Y-10589500D02*
X18019000Y-10619500D01*
X18019000Y-11097500D02*
X18049000Y-11127500D01*
X18049000Y-11097500D02*
X18019000Y-11127500D01*
X18082500Y-10018000D02*
X18112500Y-10048000D01*
X18112500Y-10018000D02*
X18082500Y-10048000D01*
X18082500Y-12113500D02*
X18112500Y-12143500D01*
X18112500Y-12113500D02*
X18082500Y-12143500D01*
X18146000Y-10526000D02*
X18176000Y-10556000D01*
X18176000Y-10526000D02*
X18146000Y-10556000D01*
X18146000Y-11415000D02*
X18176000Y-11445000D01*
X18176000Y-11415000D02*
X18146000Y-11445000D01*
X18146000Y-12875500D02*
X18176000Y-12905500D01*
X18176000Y-12875500D02*
X18146000Y-12905500D01*
X18209500Y-10145000D02*
X18239500Y-10175000D01*
X18239500Y-10145000D02*
X18209500Y-10175000D01*
X18209500Y-11859500D02*
X18239500Y-11889500D01*
X18239500Y-11859500D02*
X18209500Y-11889500D01*
X18209500Y-12812000D02*
X18239500Y-12842000D01*
X18239500Y-12812000D02*
X18209500Y-12842000D01*
X18273000Y-9891000D02*
X18303000Y-9921000D01*
X18303000Y-9891000D02*
X18273000Y-9921000D01*
X18336500Y-10462500D02*
X18366500Y-10492500D01*
X18366500Y-10462500D02*
X18336500Y-10492500D01*
X18336500Y-10843500D02*
X18366500Y-10873500D01*
X18366500Y-10843500D02*
X18336500Y-10873500D01*
X19162000Y-13193000D02*
X19192000Y-13223000D01*
X19192000Y-13193000D02*
X19162000Y-13223000D01*
X19416000Y-12939000D02*
X19446000Y-12969000D01*
X19446000Y-12939000D02*
X19416000Y-12969000D01*
X20051000Y-8875000D02*
X20081000Y-8905000D01*
X20081000Y-8875000D02*
X20051000Y-8905000D01*
X20114500Y-8938500D02*
X20144500Y-8968500D01*
X20144500Y-8938500D02*
X20114500Y-8968500D01*
X9565000Y-10731500D02*
G75*
G03*
X9565000Y-10731500I-40000J0D01*
G01*
X9565000Y-10985500D02*
G75*
G03*
X9565000Y-10985500I-40000J0D01*
G01*
X9565000Y-11239500D02*
G75*
G03*
X9565000Y-11239500I-40000J0D01*
G01*
X9565000Y-11493500D02*
G75*
G03*
X9565000Y-11493500I-40000J0D01*
G01*
X9565000Y-11747500D02*
G75*
G03*
X9565000Y-11747500I-40000J0D01*
G01*
X9565000Y-12001500D02*
G75*
G03*
X9565000Y-12001500I-40000J0D01*
G01*
X9565000Y-12255500D02*
G75*
G03*
X9565000Y-12255500I-40000J0D01*
G01*
X9827000Y-10350500D02*
G75*
G03*
X9827000Y-10350500I-40000J0D01*
G01*
X10327000Y-10350500D02*
G75*
G03*
X10327000Y-10350500I-40000J0D01*
G01*
X10327000Y-10731500D02*
G75*
G03*
X10327000Y-10731500I-40000J0D01*
G01*
X10327000Y-10985500D02*
G75*
G03*
X10327000Y-10985500I-40000J0D01*
G01*
X10327000Y-11239500D02*
G75*
G03*
X10327000Y-11239500I-40000J0D01*
G01*
X10327000Y-11493500D02*
G75*
G03*
X10327000Y-11493500I-40000J0D01*
G01*
X10327000Y-11747500D02*
G75*
G03*
X10327000Y-11747500I-40000J0D01*
G01*
X10327000Y-12001500D02*
G75*
G03*
X10327000Y-12001500I-40000J0D01*
G01*
X10327000Y-12255500D02*
G75*
G03*
X10327000Y-12255500I-40000J0D01*
G01*
X10835000Y-10731500D02*
G75*
G03*
X10835000Y-10731500I-40000J0D01*
G01*
X10835000Y-10985500D02*
G75*
G03*
X10835000Y-10985500I-40000J0D01*
G01*
X10835000Y-11239500D02*
G75*
G03*
X10835000Y-11239500I-40000J0D01*
G01*
X10835000Y-11493500D02*
G75*
G03*
X10835000Y-11493500I-40000J0D01*
G01*
X10835000Y-11747500D02*
G75*
G03*
X10835000Y-11747500I-40000J0D01*
G01*
X10835000Y-12001500D02*
G75*
G03*
X10835000Y-12001500I-40000J0D01*
G01*
X10835000Y-12255500D02*
G75*
G03*
X10835000Y-12255500I-40000J0D01*
G01*
X11097000Y-10350500D02*
G75*
G03*
X11097000Y-10350500I-40000J0D01*
G01*
X11597000Y-10350500D02*
G75*
G03*
X11597000Y-10350500I-40000J0D01*
G01*
X11597000Y-10731500D02*
G75*
G03*
X11597000Y-10731500I-40000J0D01*
G01*
X11597000Y-10985500D02*
G75*
G03*
X11597000Y-10985500I-40000J0D01*
G01*
X11597000Y-11239500D02*
G75*
G03*
X11597000Y-11239500I-40000J0D01*
G01*
X11597000Y-11493500D02*
G75*
G03*
X11597000Y-11493500I-40000J0D01*
G01*
X11597000Y-11747500D02*
G75*
G03*
X11597000Y-11747500I-40000J0D01*
G01*
X11597000Y-12001500D02*
G75*
G03*
X11597000Y-12001500I-40000J0D01*
G01*
X11597000Y-12255500D02*
G75*
G03*
X11597000Y-12255500I-40000J0D01*
G01*
X12119500Y-10731500D02*
G75*
G03*
X12119500Y-10731500I-40000J0D01*
G01*
X12119500Y-10985500D02*
G75*
G03*
X12119500Y-10985500I-40000J0D01*
G01*
X12119500Y-11239500D02*
G75*
G03*
X12119500Y-11239500I-40000J0D01*
G01*
X12119500Y-11493500D02*
G75*
G03*
X12119500Y-11493500I-40000J0D01*
G01*
X12119500Y-11747500D02*
G75*
G03*
X12119500Y-11747500I-40000J0D01*
G01*
X12119500Y-12001500D02*
G75*
G03*
X12119500Y-12001500I-40000J0D01*
G01*
X12119500Y-12255500D02*
G75*
G03*
X12119500Y-12255500I-40000J0D01*
G01*
X12119500Y-12509500D02*
G75*
G03*
X12119500Y-12509500I-40000J0D01*
G01*
X12119500Y-12763500D02*
G75*
G03*
X12119500Y-12763500I-40000J0D01*
G01*
X12119500Y-13017500D02*
G75*
G03*
X12119500Y-13017500I-40000J0D01*
G01*
X12381500Y-10350500D02*
G75*
G03*
X12381500Y-10350500I-40000J0D01*
G01*
X12881500Y-10350500D02*
G75*
G03*
X12881500Y-10350500I-40000J0D01*
G01*
X12881500Y-10731500D02*
G75*
G03*
X12881500Y-10731500I-40000J0D01*
G01*
X12881500Y-10985500D02*
G75*
G03*
X12881500Y-10985500I-40000J0D01*
G01*
X12881500Y-11239500D02*
G75*
G03*
X12881500Y-11239500I-40000J0D01*
G01*
X12881500Y-11493500D02*
G75*
G03*
X12881500Y-11493500I-40000J0D01*
G01*
X12881500Y-11747500D02*
G75*
G03*
X12881500Y-11747500I-40000J0D01*
G01*
X12881500Y-12001500D02*
G75*
G03*
X12881500Y-12001500I-40000J0D01*
G01*
X12881500Y-12255500D02*
G75*
G03*
X12881500Y-12255500I-40000J0D01*
G01*
X12881500Y-12509500D02*
G75*
G03*
X12881500Y-12509500I-40000J0D01*
G01*
X12881500Y-12763500D02*
G75*
G03*
X12881500Y-12763500I-40000J0D01*
G01*
X12881500Y-13017500D02*
G75*
G03*
X12881500Y-13017500I-40000J0D01*
G01*
X13389500Y-10731500D02*
G75*
G03*
X13389500Y-10731500I-40000J0D01*
G01*
X13389500Y-10985500D02*
G75*
G03*
X13389500Y-10985500I-40000J0D01*
G01*
X13389500Y-11239500D02*
G75*
G03*
X13389500Y-11239500I-40000J0D01*
G01*
X13389500Y-11493500D02*
G75*
G03*
X13389500Y-11493500I-40000J0D01*
G01*
X13389500Y-11747500D02*
G75*
G03*
X13389500Y-11747500I-40000J0D01*
G01*
X13389500Y-12001500D02*
G75*
G03*
X13389500Y-12001500I-40000J0D01*
G01*
X13389500Y-12255500D02*
G75*
G03*
X13389500Y-12255500I-40000J0D01*
G01*
X13389500Y-12509500D02*
G75*
G03*
X13389500Y-12509500I-40000J0D01*
G01*
X13651500Y-10350500D02*
G75*
G03*
X13651500Y-10350500I-40000J0D01*
G01*
X14151500Y-10350500D02*
G75*
G03*
X14151500Y-10350500I-40000J0D01*
G01*
X14151500Y-10731500D02*
G75*
G03*
X14151500Y-10731500I-40000J0D01*
G01*
X14151500Y-10985500D02*
G75*
G03*
X14151500Y-10985500I-40000J0D01*
G01*
X14151500Y-11239500D02*
G75*
G03*
X14151500Y-11239500I-40000J0D01*
G01*
X14151500Y-11493500D02*
G75*
G03*
X14151500Y-11493500I-40000J0D01*
G01*
X14151500Y-11747500D02*
G75*
G03*
X14151500Y-11747500I-40000J0D01*
G01*
X14151500Y-12001500D02*
G75*
G03*
X14151500Y-12001500I-40000J0D01*
G01*
X14151500Y-12255500D02*
G75*
G03*
X14151500Y-12255500I-40000J0D01*
G01*
X14151500Y-12509500D02*
G75*
G03*
X14151500Y-12509500I-40000J0D01*
G01*
X14659500Y-10731500D02*
G75*
G03*
X14659500Y-10731500I-40000J0D01*
G01*
X14659500Y-10985500D02*
G75*
G03*
X14659500Y-10985500I-40000J0D01*
G01*
X14659500Y-11239500D02*
G75*
G03*
X14659500Y-11239500I-40000J0D01*
G01*
X14659500Y-11493500D02*
G75*
G03*
X14659500Y-11493500I-40000J0D01*
G01*
X14659500Y-11747500D02*
G75*
G03*
X14659500Y-11747500I-40000J0D01*
G01*
X14659500Y-12001500D02*
G75*
G03*
X14659500Y-12001500I-40000J0D01*
G01*
X14659500Y-12255500D02*
G75*
G03*
X14659500Y-12255500I-40000J0D01*
G01*
X14659500Y-12509500D02*
G75*
G03*
X14659500Y-12509500I-40000J0D01*
G01*
X14921500Y-10350500D02*
G75*
G03*
X14921500Y-10350500I-40000J0D01*
G01*
X15421500Y-10350500D02*
G75*
G03*
X15421500Y-10350500I-40000J0D01*
G01*
X15421500Y-10731500D02*
G75*
G03*
X15421500Y-10731500I-40000J0D01*
G01*
X15421500Y-10985500D02*
G75*
G03*
X15421500Y-10985500I-40000J0D01*
G01*
X15421500Y-11239500D02*
G75*
G03*
X15421500Y-11239500I-40000J0D01*
G01*
X15421500Y-11493500D02*
G75*
G03*
X15421500Y-11493500I-40000J0D01*
G01*
X15421500Y-11747500D02*
G75*
G03*
X15421500Y-11747500I-40000J0D01*
G01*
X15421500Y-12001500D02*
G75*
G03*
X15421500Y-12001500I-40000J0D01*
G01*
X15421500Y-12255500D02*
G75*
G03*
X15421500Y-12255500I-40000J0D01*
G01*
X15421500Y-12509500D02*
G75*
G03*
X15421500Y-12509500I-40000J0D01*
G01*
X15915000Y-10731500D02*
G75*
G03*
X15915000Y-10731500I-40000J0D01*
G01*
X15915000Y-10985500D02*
G75*
G03*
X15915000Y-10985500I-40000J0D01*
G01*
X15915000Y-11239500D02*
G75*
G03*
X15915000Y-11239500I-40000J0D01*
G01*
X15915000Y-11493500D02*
G75*
G03*
X15915000Y-11493500I-40000J0D01*
G01*
X15915000Y-11747500D02*
G75*
G03*
X15915000Y-11747500I-40000J0D01*
G01*
X15915000Y-12001500D02*
G75*
G03*
X15915000Y-12001500I-40000J0D01*
G01*
X15915000Y-12255500D02*
G75*
G03*
X15915000Y-12255500I-40000J0D01*
G01*
X15915000Y-12509500D02*
G75*
G03*
X15915000Y-12509500I-40000J0D01*
G01*
X15915000Y-12763500D02*
G75*
G03*
X15915000Y-12763500I-40000J0D01*
G01*
X15915000Y-13017500D02*
G75*
G03*
X15915000Y-13017500I-40000J0D01*
G01*
X16191500Y-10350500D02*
G75*
G03*
X16191500Y-10350500I-40000J0D01*
G01*
X16677000Y-10731500D02*
G75*
G03*
X16677000Y-10731500I-40000J0D01*
G01*
X16677000Y-10985500D02*
G75*
G03*
X16677000Y-10985500I-40000J0D01*
G01*
X16677000Y-11239500D02*
G75*
G03*
X16677000Y-11239500I-40000J0D01*
G01*
X16677000Y-11493500D02*
G75*
G03*
X16677000Y-11493500I-40000J0D01*
G01*
X16677000Y-11747500D02*
G75*
G03*
X16677000Y-11747500I-40000J0D01*
G01*
X16677000Y-12001500D02*
G75*
G03*
X16677000Y-12001500I-40000J0D01*
G01*
X16677000Y-12255500D02*
G75*
G03*
X16677000Y-12255500I-40000J0D01*
G01*
X16677000Y-12509500D02*
G75*
G03*
X16677000Y-12509500I-40000J0D01*
G01*
X16677000Y-12763500D02*
G75*
G03*
X16677000Y-12763500I-40000J0D01*
G01*
X16677000Y-13017500D02*
G75*
G03*
X16677000Y-13017500I-40000J0D01*
G01*
X16691500Y-10350500D02*
G75*
G03*
X16691500Y-10350500I-40000J0D01*
G01*
X17199500Y-10731500D02*
G75*
G03*
X17199500Y-10731500I-40000J0D01*
G01*
X17199500Y-10985500D02*
G75*
G03*
X17199500Y-10985500I-40000J0D01*
G01*
X17199500Y-11239500D02*
G75*
G03*
X17199500Y-11239500I-40000J0D01*
G01*
X17199500Y-11493500D02*
G75*
G03*
X17199500Y-11493500I-40000J0D01*
G01*
X17199500Y-11747500D02*
G75*
G03*
X17199500Y-11747500I-40000J0D01*
G01*
X17199500Y-12001500D02*
G75*
G03*
X17199500Y-12001500I-40000J0D01*
G01*
X17199500Y-12255500D02*
G75*
G03*
X17199500Y-12255500I-40000J0D01*
G01*
X17199500Y-12509500D02*
G75*
G03*
X17199500Y-12509500I-40000J0D01*
G01*
X17199500Y-12763500D02*
G75*
G03*
X17199500Y-12763500I-40000J0D01*
G01*
X17199500Y-13017500D02*
G75*
G03*
X17199500Y-13017500I-40000J0D01*
G01*
X17461500Y-10350500D02*
G75*
G03*
X17461500Y-10350500I-40000J0D01*
G01*
X17961500Y-10350500D02*
G75*
G03*
X17961500Y-10350500I-40000J0D01*
G01*
X17961500Y-10731500D02*
G75*
G03*
X17961500Y-10731500I-40000J0D01*
G01*
X17961500Y-10985500D02*
G75*
G03*
X17961500Y-10985500I-40000J0D01*
G01*
X17961500Y-11239500D02*
G75*
G03*
X17961500Y-11239500I-40000J0D01*
G01*
X17961500Y-11493500D02*
G75*
G03*
X17961500Y-11493500I-40000J0D01*
G01*
X17961500Y-11747500D02*
G75*
G03*
X17961500Y-11747500I-40000J0D01*
G01*
X17961500Y-12001500D02*
G75*
G03*
X17961500Y-12001500I-40000J0D01*
G01*
X17961500Y-12255500D02*
G75*
G03*
X17961500Y-12255500I-40000J0D01*
G01*
X17961500Y-12509500D02*
G75*
G03*
X17961500Y-12509500I-40000J0D01*
G01*
X17961500Y-12763500D02*
G75*
G03*
X17961500Y-12763500I-40000J0D01*
G01*
X17961500Y-13017500D02*
G75*
G03*
X17961500Y-13017500I-40000J0D01*
G01*
X18201000Y-8890000D02*
G75*
G03*
X18201000Y-8890000I-40000J0D01*
G01*
X18459000Y-11049000D02*
G75*
G03*
X18459000Y-11049000I-40000J0D01*
G01*
X18459000Y-12573000D02*
G75*
G03*
X18459000Y-12573000I-40000J0D01*
G01*
X18582000Y-11575000D02*
G75*
G03*
X18582000Y-11575000I-40000J0D01*
G01*
X18582000Y-12065000D02*
G75*
G03*
X18582000Y-12065000I-40000J0D01*
G01*
X18709000Y-11049000D02*
G75*
G03*
X18709000Y-11049000I-40000J0D01*
G01*
X18709000Y-12573000D02*
G75*
G03*
X18709000Y-12573000I-40000J0D01*
G01*
X18899500Y-10291000D02*
G75*
G03*
X18899500Y-10291000I-40000J0D01*
G01*
X18899500Y-10791000D02*
G75*
G03*
X18899500Y-10791000I-40000J0D01*
G01*
X19217000Y-8890000D02*
G75*
G03*
X19217000Y-8890000I-40000J0D01*
G01*
X19217000Y-9271000D02*
G75*
G03*
X19217000Y-9271000I-40000J0D01*
G01*
X19217000Y-9525000D02*
G75*
G03*
X19217000Y-9525000I-40000J0D01*
G01*
X19217000Y-9779000D02*
G75*
G03*
X19217000Y-9779000I-40000J0D01*
G01*
X19217000Y-10033000D02*
G75*
G03*
X19217000Y-10033000I-40000J0D01*
G01*
X19217000Y-10287000D02*
G75*
G03*
X19217000Y-10287000I-40000J0D01*
G01*
X19217000Y-10541000D02*
G75*
G03*
X19217000Y-10541000I-40000J0D01*
G01*
X19217000Y-10795000D02*
G75*
G03*
X19217000Y-10795000I-40000J0D01*
G01*
X19217000Y-11049000D02*
G75*
G03*
X19217000Y-11049000I-40000J0D01*
G01*
X19217000Y-11303000D02*
G75*
G03*
X19217000Y-11303000I-40000J0D01*
G01*
X19217000Y-11557000D02*
G75*
G03*
X19217000Y-11557000I-40000J0D01*
G01*
X19217000Y-11811000D02*
G75*
G03*
X19217000Y-11811000I-40000J0D01*
G01*
X19217000Y-12065000D02*
G75*
G03*
X19217000Y-12065000I-40000J0D01*
G01*
X19217000Y-12319000D02*
G75*
G03*
X19217000Y-12319000I-40000J0D01*
G01*
X19217000Y-12573000D02*
G75*
G03*
X19217000Y-12573000I-40000J0D01*
G01*
X19538500Y-8890000D02*
G75*
G03*
X19538500Y-8890000I-40000J0D01*
G01*
X19788500Y-8890000D02*
G75*
G03*
X19788500Y-8890000I-40000J0D01*
G01*
X19979000Y-9271000D02*
G75*
G03*
X19979000Y-9271000I-40000J0D01*
G01*
X19979000Y-9525000D02*
G75*
G03*
X19979000Y-9525000I-40000J0D01*
G01*
X19979000Y-9779000D02*
G75*
G03*
X19979000Y-9779000I-40000J0D01*
G01*
X19979000Y-10033000D02*
G75*
G03*
X19979000Y-10033000I-40000J0D01*
G01*
X19979000Y-10287000D02*
G75*
G03*
X19979000Y-10287000I-40000J0D01*
G01*
X19979000Y-10541000D02*
G75*
G03*
X19979000Y-10541000I-40000J0D01*
G01*
X19979000Y-10795000D02*
G75*
G03*
X19979000Y-10795000I-40000J0D01*
G01*
X19979000Y-11049000D02*
G75*
G03*
X19979000Y-11049000I-40000J0D01*
G01*
X19979000Y-11303000D02*
G75*
G03*
X19979000Y-11303000I-40000J0D01*
G01*
X19979000Y-11557000D02*
G75*
G03*
X19979000Y-11557000I-40000J0D01*
G01*
X19979000Y-11811000D02*
G75*
G03*
X19979000Y-11811000I-40000J0D01*
G01*
X19979000Y-12065000D02*
G75*
G03*
X19979000Y-12065000I-40000J0D01*
G01*
X19979000Y-12319000D02*
G75*
G03*
X19979000Y-12319000I-40000J0D01*
G01*
X19979000Y-12573000D02*
G75*
G03*
X19979000Y-12573000I-40000J0D01*
G01*
X20360000Y-11303000D02*
G75*
G03*
X20360000Y-11303000I-40000J0D01*
G01*
X20560000Y-11303000D02*
G75*
G03*
X20560000Y-11303000I-40000J0D01*
G01*
X20624800Y-11888000D02*
X20624800Y-11988000D01*
X20574800Y-11938000D02*
X20674800Y-11938000D01*
X20624800Y-12142000D02*
X20624800Y-12242000D01*
X20574800Y-12192000D02*
X20674800Y-12192000D01*
X20624800Y-12396000D02*
X20624800Y-12496000D01*
X20574800Y-12446000D02*
X20674800Y-12446000D01*
X20624800Y-12650000D02*
X20624800Y-12750000D01*
X20574800Y-12700000D02*
X20674800Y-12700000D01*
X20624800Y-12904000D02*
X20624800Y-13004000D01*
X20574800Y-12954000D02*
X20674800Y-12954000D01*
X20624800Y-13158000D02*
X20624800Y-13258000D01*
X20574800Y-13208000D02*
X20674800Y-13208000D01*
X20637500Y-8268500D02*
X20637500Y-8368500D01*
X20587500Y-8318500D02*
X20687500Y-8318500D01*
X20637500Y-8522500D02*
X20637500Y-8622500D01*
X20587500Y-8572500D02*
X20687500Y-8572500D01*
X20637500Y-8776500D02*
X20637500Y-8876500D01*
X20587500Y-8826500D02*
X20687500Y-8826500D01*
X20637500Y-9030500D02*
X20637500Y-9130500D01*
X20587500Y-9080500D02*
X20687500Y-9080500D01*
X20637500Y-9599000D02*
X20637500Y-9699000D01*
X20587500Y-9649000D02*
X20687500Y-9649000D01*
X20637500Y-9853000D02*
X20637500Y-9953000D01*
X20587500Y-9903000D02*
X20687500Y-9903000D01*
X20637500Y-10107000D02*
X20637500Y-10207000D01*
X20587500Y-10157000D02*
X20687500Y-10157000D01*
X20637500Y-10361000D02*
X20637500Y-10461000D01*
X20587500Y-10411000D02*
X20687500Y-10411000D01*
X20637500Y-10615000D02*
X20637500Y-10715000D01*
X20587500Y-10665000D02*
X20687500Y-10665000D01*
D12*
X18248391Y-9309891D02*
X18248391Y-9232109D01*
X18170609Y-9232109D01*
X18170609Y-9309891D01*
X18248391Y-9309891D01*
X18248391Y-9759891D02*
X18248391Y-9682109D01*
X18170609Y-9682109D01*
X18170609Y-9759891D01*
X18248391Y-9759891D01*
X18898391Y-9309891D02*
X18898391Y-9232109D01*
X18820609Y-9232109D01*
X18820609Y-9309891D01*
X18898391Y-9309891D01*
X18898391Y-9759891D02*
X18898391Y-9682109D01*
X18820609Y-9682109D01*
X18820609Y-9759891D01*
X18898391Y-9759891D01*
D11*
X9221977Y-15201884D02*
X9221977Y-15001884D01*
X9221977Y-15001884D02*
X9269596Y-15001884D01*
X9269596Y-15001884D02*
X9298167Y-15011408D01*
X9298167Y-15011408D02*
X9317215Y-15030455D01*
X9317215Y-15030455D02*
X9326739Y-15049503D01*
X9326739Y-15049503D02*
X9336263Y-15087598D01*
X9336263Y-15087598D02*
X9336263Y-15116169D01*
X9336263Y-15116169D02*
X9326739Y-15154265D01*
X9326739Y-15154265D02*
X9317215Y-15173312D01*
X9317215Y-15173312D02*
X9298167Y-15192360D01*
X9298167Y-15192360D02*
X9269596Y-15201884D01*
X9269596Y-15201884D02*
X9221977Y-15201884D01*
X9421977Y-15201884D02*
X9421977Y-15068550D01*
X9421977Y-15106646D02*
X9431501Y-15087598D01*
X9431501Y-15087598D02*
X9441024Y-15078074D01*
X9441024Y-15078074D02*
X9460072Y-15068550D01*
X9460072Y-15068550D02*
X9479120Y-15068550D01*
X9545786Y-15201884D02*
X9545786Y-15068550D01*
X9545786Y-15001884D02*
X9536263Y-15011408D01*
X9536263Y-15011408D02*
X9545786Y-15020931D01*
X9545786Y-15020931D02*
X9555310Y-15011408D01*
X9555310Y-15011408D02*
X9545786Y-15001884D01*
X9545786Y-15001884D02*
X9545786Y-15020931D01*
X9669596Y-15201884D02*
X9650548Y-15192360D01*
X9650548Y-15192360D02*
X9641024Y-15173312D01*
X9641024Y-15173312D02*
X9641024Y-15001884D01*
X9774358Y-15201884D02*
X9755310Y-15192360D01*
X9755310Y-15192360D02*
X9745786Y-15173312D01*
X9745786Y-15173312D02*
X9745786Y-15001884D01*
X10002929Y-15201884D02*
X10002929Y-15001884D01*
X10002929Y-15001884D02*
X10069596Y-15144741D01*
X10069596Y-15144741D02*
X10136263Y-15001884D01*
X10136263Y-15001884D02*
X10136263Y-15201884D01*
X10317215Y-15201884D02*
X10317215Y-15097122D01*
X10317215Y-15097122D02*
X10307691Y-15078074D01*
X10307691Y-15078074D02*
X10288644Y-15068550D01*
X10288644Y-15068550D02*
X10250548Y-15068550D01*
X10250548Y-15068550D02*
X10231501Y-15078074D01*
X10317215Y-15192360D02*
X10298167Y-15201884D01*
X10298167Y-15201884D02*
X10250548Y-15201884D01*
X10250548Y-15201884D02*
X10231501Y-15192360D01*
X10231501Y-15192360D02*
X10221977Y-15173312D01*
X10221977Y-15173312D02*
X10221977Y-15154265D01*
X10221977Y-15154265D02*
X10231501Y-15135217D01*
X10231501Y-15135217D02*
X10250548Y-15125693D01*
X10250548Y-15125693D02*
X10298167Y-15125693D01*
X10298167Y-15125693D02*
X10317215Y-15116169D01*
X10412453Y-15068550D02*
X10412453Y-15268550D01*
X10412453Y-15078074D02*
X10431501Y-15068550D01*
X10431501Y-15068550D02*
X10469596Y-15068550D01*
X10469596Y-15068550D02*
X10488644Y-15078074D01*
X10488644Y-15078074D02*
X10498167Y-15087598D01*
X10498167Y-15087598D02*
X10507691Y-15106646D01*
X10507691Y-15106646D02*
X10507691Y-15163788D01*
X10507691Y-15163788D02*
X10498167Y-15182836D01*
X10498167Y-15182836D02*
X10488644Y-15192360D01*
X10488644Y-15192360D02*
X10469596Y-15201884D01*
X10469596Y-15201884D02*
X10431501Y-15201884D01*
X10431501Y-15201884D02*
X10412453Y-15192360D01*
X10593405Y-15182836D02*
X10602929Y-15192360D01*
X10602929Y-15192360D02*
X10593405Y-15201884D01*
X10593405Y-15201884D02*
X10583882Y-15192360D01*
X10583882Y-15192360D02*
X10593405Y-15182836D01*
X10593405Y-15182836D02*
X10593405Y-15201884D01*
X10593405Y-15078074D02*
X10602929Y-15087598D01*
X10602929Y-15087598D02*
X10593405Y-15097122D01*
X10593405Y-15097122D02*
X10583882Y-15087598D01*
X10583882Y-15087598D02*
X10593405Y-15078074D01*
X10593405Y-15078074D02*
X10593405Y-15097122D01*
D10*
X8931200Y-15515400D02*
X8961200Y-15545400D01*
X8961200Y-15515400D02*
X8931200Y-15545400D01*
D11*
X9260072Y-15421884D02*
X9279120Y-15421884D01*
X9279120Y-15421884D02*
X9298167Y-15431408D01*
X9298167Y-15431408D02*
X9307691Y-15440931D01*
X9307691Y-15440931D02*
X9317215Y-15459979D01*
X9317215Y-15459979D02*
X9326739Y-15498074D01*
X9326739Y-15498074D02*
X9326739Y-15545693D01*
X9326739Y-15545693D02*
X9317215Y-15583788D01*
X9317215Y-15583788D02*
X9307691Y-15602836D01*
X9307691Y-15602836D02*
X9298167Y-15612360D01*
X9298167Y-15612360D02*
X9279120Y-15621884D01*
X9279120Y-15621884D02*
X9260072Y-15621884D01*
X9260072Y-15621884D02*
X9241024Y-15612360D01*
X9241024Y-15612360D02*
X9231501Y-15602836D01*
X9231501Y-15602836D02*
X9221977Y-15583788D01*
X9221977Y-15583788D02*
X9212453Y-15545693D01*
X9212453Y-15545693D02*
X9212453Y-15498074D01*
X9212453Y-15498074D02*
X9221977Y-15459979D01*
X9221977Y-15459979D02*
X9231501Y-15440931D01*
X9231501Y-15440931D02*
X9241024Y-15431408D01*
X9241024Y-15431408D02*
X9260072Y-15421884D01*
X9412453Y-15602836D02*
X9421977Y-15612360D01*
X9421977Y-15612360D02*
X9412453Y-15621884D01*
X9412453Y-15621884D02*
X9402929Y-15612360D01*
X9402929Y-15612360D02*
X9412453Y-15602836D01*
X9412453Y-15602836D02*
X9412453Y-15621884D01*
X9488644Y-15421884D02*
X9612453Y-15421884D01*
X9612453Y-15421884D02*
X9545786Y-15498074D01*
X9545786Y-15498074D02*
X9574358Y-15498074D01*
X9574358Y-15498074D02*
X9593405Y-15507598D01*
X9593405Y-15507598D02*
X9602929Y-15517122D01*
X9602929Y-15517122D02*
X9612453Y-15536169D01*
X9612453Y-15536169D02*
X9612453Y-15583788D01*
X9612453Y-15583788D02*
X9602929Y-15602836D01*
X9602929Y-15602836D02*
X9593405Y-15612360D01*
X9593405Y-15612360D02*
X9574358Y-15621884D01*
X9574358Y-15621884D02*
X9517215Y-15621884D01*
X9517215Y-15621884D02*
X9498167Y-15612360D01*
X9498167Y-15612360D02*
X9488644Y-15602836D01*
X9736263Y-15421884D02*
X9755310Y-15421884D01*
X9755310Y-15421884D02*
X9774358Y-15431408D01*
X9774358Y-15431408D02*
X9783882Y-15440931D01*
X9783882Y-15440931D02*
X9793405Y-15459979D01*
X9793405Y-15459979D02*
X9802929Y-15498074D01*
X9802929Y-15498074D02*
X9802929Y-15545693D01*
X9802929Y-15545693D02*
X9793405Y-15583788D01*
X9793405Y-15583788D02*
X9783882Y-15602836D01*
X9783882Y-15602836D02*
X9774358Y-15612360D01*
X9774358Y-15612360D02*
X9755310Y-15621884D01*
X9755310Y-15621884D02*
X9736263Y-15621884D01*
X9736263Y-15621884D02*
X9717215Y-15612360D01*
X9717215Y-15612360D02*
X9707691Y-15602836D01*
X9707691Y-15602836D02*
X9698167Y-15583788D01*
X9698167Y-15583788D02*
X9688644Y-15545693D01*
X9688644Y-15545693D02*
X9688644Y-15498074D01*
X9688644Y-15498074D02*
X9698167Y-15459979D01*
X9698167Y-15459979D02*
X9707691Y-15440931D01*
X9707691Y-15440931D02*
X9717215Y-15431408D01*
X9717215Y-15431408D02*
X9736263Y-15421884D01*
X9926739Y-15421884D02*
X9945786Y-15421884D01*
X9945786Y-15421884D02*
X9964834Y-15431408D01*
X9964834Y-15431408D02*
X9974358Y-15440931D01*
X9974358Y-15440931D02*
X9983882Y-15459979D01*
X9983882Y-15459979D02*
X9993405Y-15498074D01*
X9993405Y-15498074D02*
X9993405Y-15545693D01*
X9993405Y-15545693D02*
X9983882Y-15583788D01*
X9983882Y-15583788D02*
X9974358Y-15602836D01*
X9974358Y-15602836D02*
X9964834Y-15612360D01*
X9964834Y-15612360D02*
X9945786Y-15621884D01*
X9945786Y-15621884D02*
X9926739Y-15621884D01*
X9926739Y-15621884D02*
X9907691Y-15612360D01*
X9907691Y-15612360D02*
X9898167Y-15602836D01*
X9898167Y-15602836D02*
X9888644Y-15583788D01*
X9888644Y-15583788D02*
X9879120Y-15545693D01*
X9879120Y-15545693D02*
X9879120Y-15498074D01*
X9879120Y-15498074D02*
X9888644Y-15459979D01*
X9888644Y-15459979D02*
X9898167Y-15440931D01*
X9898167Y-15440931D02*
X9907691Y-15431408D01*
X9907691Y-15431408D02*
X9926739Y-15421884D01*
X10079120Y-15621884D02*
X10079120Y-15488550D01*
X10079120Y-15507598D02*
X10088644Y-15498074D01*
X10088644Y-15498074D02*
X10107691Y-15488550D01*
X10107691Y-15488550D02*
X10136263Y-15488550D01*
X10136263Y-15488550D02*
X10155310Y-15498074D01*
X10155310Y-15498074D02*
X10164834Y-15517122D01*
X10164834Y-15517122D02*
X10164834Y-15621884D01*
X10164834Y-15517122D02*
X10174358Y-15498074D01*
X10174358Y-15498074D02*
X10193405Y-15488550D01*
X10193405Y-15488550D02*
X10221977Y-15488550D01*
X10221977Y-15488550D02*
X10241025Y-15498074D01*
X10241025Y-15498074D02*
X10250548Y-15517122D01*
X10250548Y-15517122D02*
X10250548Y-15621884D01*
X10345786Y-15621884D02*
X10345786Y-15488550D01*
X10345786Y-15507598D02*
X10355310Y-15498074D01*
X10355310Y-15498074D02*
X10374358Y-15488550D01*
X10374358Y-15488550D02*
X10402929Y-15488550D01*
X10402929Y-15488550D02*
X10421977Y-15498074D01*
X10421977Y-15498074D02*
X10431501Y-15517122D01*
X10431501Y-15517122D02*
X10431501Y-15621884D01*
X10431501Y-15517122D02*
X10441025Y-15498074D01*
X10441025Y-15498074D02*
X10460072Y-15488550D01*
X10460072Y-15488550D02*
X10488644Y-15488550D01*
X10488644Y-15488550D02*
X10507691Y-15498074D01*
X10507691Y-15498074D02*
X10517215Y-15517122D01*
X10517215Y-15517122D02*
X10517215Y-15621884D01*
X10907691Y-15412360D02*
X10736263Y-15669503D01*
X11164834Y-15421884D02*
X11183882Y-15421884D01*
X11183882Y-15421884D02*
X11202929Y-15431408D01*
X11202929Y-15431408D02*
X11212453Y-15440931D01*
X11212453Y-15440931D02*
X11221977Y-15459979D01*
X11221977Y-15459979D02*
X11231501Y-15498074D01*
X11231501Y-15498074D02*
X11231501Y-15545693D01*
X11231501Y-15545693D02*
X11221977Y-15583788D01*
X11221977Y-15583788D02*
X11212453Y-15602836D01*
X11212453Y-15602836D02*
X11202929Y-15612360D01*
X11202929Y-15612360D02*
X11183882Y-15621884D01*
X11183882Y-15621884D02*
X11164834Y-15621884D01*
X11164834Y-15621884D02*
X11145787Y-15612360D01*
X11145787Y-15612360D02*
X11136263Y-15602836D01*
X11136263Y-15602836D02*
X11126739Y-15583788D01*
X11126739Y-15583788D02*
X11117215Y-15545693D01*
X11117215Y-15545693D02*
X11117215Y-15498074D01*
X11117215Y-15498074D02*
X11126739Y-15459979D01*
X11126739Y-15459979D02*
X11136263Y-15440931D01*
X11136263Y-15440931D02*
X11145787Y-15431408D01*
X11145787Y-15431408D02*
X11164834Y-15421884D01*
X11317215Y-15602836D02*
X11326739Y-15612360D01*
X11326739Y-15612360D02*
X11317215Y-15621884D01*
X11317215Y-15621884D02*
X11307691Y-15612360D01*
X11307691Y-15612360D02*
X11317215Y-15602836D01*
X11317215Y-15602836D02*
X11317215Y-15621884D01*
X11450548Y-15421884D02*
X11469596Y-15421884D01*
X11469596Y-15421884D02*
X11488644Y-15431408D01*
X11488644Y-15431408D02*
X11498167Y-15440931D01*
X11498167Y-15440931D02*
X11507691Y-15459979D01*
X11507691Y-15459979D02*
X11517215Y-15498074D01*
X11517215Y-15498074D02*
X11517215Y-15545693D01*
X11517215Y-15545693D02*
X11507691Y-15583788D01*
X11507691Y-15583788D02*
X11498167Y-15602836D01*
X11498167Y-15602836D02*
X11488644Y-15612360D01*
X11488644Y-15612360D02*
X11469596Y-15621884D01*
X11469596Y-15621884D02*
X11450548Y-15621884D01*
X11450548Y-15621884D02*
X11431501Y-15612360D01*
X11431501Y-15612360D02*
X11421977Y-15602836D01*
X11421977Y-15602836D02*
X11412453Y-15583788D01*
X11412453Y-15583788D02*
X11402929Y-15545693D01*
X11402929Y-15545693D02*
X11402929Y-15498074D01*
X11402929Y-15498074D02*
X11412453Y-15459979D01*
X11412453Y-15459979D02*
X11421977Y-15440931D01*
X11421977Y-15440931D02*
X11431501Y-15431408D01*
X11431501Y-15431408D02*
X11450548Y-15421884D01*
X11707691Y-15621884D02*
X11593406Y-15621884D01*
X11650548Y-15621884D02*
X11650548Y-15421884D01*
X11650548Y-15421884D02*
X11631501Y-15450455D01*
X11631501Y-15450455D02*
X11612453Y-15469503D01*
X11612453Y-15469503D02*
X11593406Y-15479027D01*
X11898167Y-15621884D02*
X11783882Y-15621884D01*
X11841025Y-15621884D02*
X11841025Y-15421884D01*
X11841025Y-15421884D02*
X11821977Y-15450455D01*
X11821977Y-15450455D02*
X11802929Y-15469503D01*
X11802929Y-15469503D02*
X11783882Y-15479027D01*
X12012453Y-15507598D02*
X11993406Y-15498074D01*
X11993406Y-15498074D02*
X11983882Y-15488550D01*
X11983882Y-15488550D02*
X11974358Y-15469503D01*
X11974358Y-15469503D02*
X11974358Y-15459979D01*
X11974358Y-15459979D02*
X11983882Y-15440931D01*
X11983882Y-15440931D02*
X11993406Y-15431408D01*
X11993406Y-15431408D02*
X12012453Y-15421884D01*
X12012453Y-15421884D02*
X12050548Y-15421884D01*
X12050548Y-15421884D02*
X12069596Y-15431408D01*
X12069596Y-15431408D02*
X12079120Y-15440931D01*
X12079120Y-15440931D02*
X12088644Y-15459979D01*
X12088644Y-15459979D02*
X12088644Y-15469503D01*
X12088644Y-15469503D02*
X12079120Y-15488550D01*
X12079120Y-15488550D02*
X12069596Y-15498074D01*
X12069596Y-15498074D02*
X12050548Y-15507598D01*
X12050548Y-15507598D02*
X12012453Y-15507598D01*
X12012453Y-15507598D02*
X11993406Y-15517122D01*
X11993406Y-15517122D02*
X11983882Y-15526646D01*
X11983882Y-15526646D02*
X11974358Y-15545693D01*
X11974358Y-15545693D02*
X11974358Y-15583788D01*
X11974358Y-15583788D02*
X11983882Y-15602836D01*
X11983882Y-15602836D02*
X11993406Y-15612360D01*
X11993406Y-15612360D02*
X12012453Y-15621884D01*
X12012453Y-15621884D02*
X12050548Y-15621884D01*
X12050548Y-15621884D02*
X12069596Y-15612360D01*
X12069596Y-15612360D02*
X12079120Y-15602836D01*
X12079120Y-15602836D02*
X12088644Y-15583788D01*
X12088644Y-15583788D02*
X12088644Y-15545693D01*
X12088644Y-15545693D02*
X12079120Y-15526646D01*
X12079120Y-15526646D02*
X12069596Y-15517122D01*
X12069596Y-15517122D02*
X12050548Y-15507598D01*
X12164834Y-15421884D02*
X12164834Y-15459979D01*
X12241025Y-15421884D02*
X12241025Y-15459979D01*
X12536263Y-15698074D02*
X12526739Y-15688550D01*
X12526739Y-15688550D02*
X12507691Y-15659979D01*
X12507691Y-15659979D02*
X12498168Y-15640931D01*
X12498168Y-15640931D02*
X12488644Y-15612360D01*
X12488644Y-15612360D02*
X12479120Y-15564741D01*
X12479120Y-15564741D02*
X12479120Y-15526646D01*
X12479120Y-15526646D02*
X12488644Y-15479027D01*
X12488644Y-15479027D02*
X12498168Y-15450455D01*
X12498168Y-15450455D02*
X12507691Y-15431408D01*
X12507691Y-15431408D02*
X12526739Y-15402836D01*
X12526739Y-15402836D02*
X12536263Y-15393312D01*
X12698168Y-15421884D02*
X12660072Y-15421884D01*
X12660072Y-15421884D02*
X12641025Y-15431408D01*
X12641025Y-15431408D02*
X12631501Y-15440931D01*
X12631501Y-15440931D02*
X12612453Y-15469503D01*
X12612453Y-15469503D02*
X12602929Y-15507598D01*
X12602929Y-15507598D02*
X12602929Y-15583788D01*
X12602929Y-15583788D02*
X12612453Y-15602836D01*
X12612453Y-15602836D02*
X12621977Y-15612360D01*
X12621977Y-15612360D02*
X12641025Y-15621884D01*
X12641025Y-15621884D02*
X12679120Y-15621884D01*
X12679120Y-15621884D02*
X12698168Y-15612360D01*
X12698168Y-15612360D02*
X12707691Y-15602836D01*
X12707691Y-15602836D02*
X12717215Y-15583788D01*
X12717215Y-15583788D02*
X12717215Y-15536169D01*
X12717215Y-15536169D02*
X12707691Y-15517122D01*
X12707691Y-15517122D02*
X12698168Y-15507598D01*
X12698168Y-15507598D02*
X12679120Y-15498074D01*
X12679120Y-15498074D02*
X12641025Y-15498074D01*
X12641025Y-15498074D02*
X12621977Y-15507598D01*
X12621977Y-15507598D02*
X12612453Y-15517122D01*
X12612453Y-15517122D02*
X12602929Y-15536169D01*
X12831501Y-15507598D02*
X12812453Y-15498074D01*
X12812453Y-15498074D02*
X12802929Y-15488550D01*
X12802929Y-15488550D02*
X12793406Y-15469503D01*
X12793406Y-15469503D02*
X12793406Y-15459979D01*
X12793406Y-15459979D02*
X12802929Y-15440931D01*
X12802929Y-15440931D02*
X12812453Y-15431408D01*
X12812453Y-15431408D02*
X12831501Y-15421884D01*
X12831501Y-15421884D02*
X12869596Y-15421884D01*
X12869596Y-15421884D02*
X12888644Y-15431408D01*
X12888644Y-15431408D02*
X12898168Y-15440931D01*
X12898168Y-15440931D02*
X12907691Y-15459979D01*
X12907691Y-15459979D02*
X12907691Y-15469503D01*
X12907691Y-15469503D02*
X12898168Y-15488550D01*
X12898168Y-15488550D02*
X12888644Y-15498074D01*
X12888644Y-15498074D02*
X12869596Y-15507598D01*
X12869596Y-15507598D02*
X12831501Y-15507598D01*
X12831501Y-15507598D02*
X12812453Y-15517122D01*
X12812453Y-15517122D02*
X12802929Y-15526646D01*
X12802929Y-15526646D02*
X12793406Y-15545693D01*
X12793406Y-15545693D02*
X12793406Y-15583788D01*
X12793406Y-15583788D02*
X12802929Y-15602836D01*
X12802929Y-15602836D02*
X12812453Y-15612360D01*
X12812453Y-15612360D02*
X12831501Y-15621884D01*
X12831501Y-15621884D02*
X12869596Y-15621884D01*
X12869596Y-15621884D02*
X12888644Y-15612360D01*
X12888644Y-15612360D02*
X12898168Y-15602836D01*
X12898168Y-15602836D02*
X12907691Y-15583788D01*
X12907691Y-15583788D02*
X12907691Y-15545693D01*
X12907691Y-15545693D02*
X12898168Y-15526646D01*
X12898168Y-15526646D02*
X12888644Y-15517122D01*
X12888644Y-15517122D02*
X12869596Y-15507598D01*
X13145787Y-15621884D02*
X13145787Y-15421884D01*
X13231501Y-15621884D02*
X13231501Y-15517122D01*
X13231501Y-15517122D02*
X13221977Y-15498074D01*
X13221977Y-15498074D02*
X13202930Y-15488550D01*
X13202930Y-15488550D02*
X13174358Y-15488550D01*
X13174358Y-15488550D02*
X13155310Y-15498074D01*
X13155310Y-15498074D02*
X13145787Y-15507598D01*
X13355310Y-15621884D02*
X13336263Y-15612360D01*
X13336263Y-15612360D02*
X13326739Y-15602836D01*
X13326739Y-15602836D02*
X13317215Y-15583788D01*
X13317215Y-15583788D02*
X13317215Y-15526646D01*
X13317215Y-15526646D02*
X13326739Y-15507598D01*
X13326739Y-15507598D02*
X13336263Y-15498074D01*
X13336263Y-15498074D02*
X13355310Y-15488550D01*
X13355310Y-15488550D02*
X13383882Y-15488550D01*
X13383882Y-15488550D02*
X13402930Y-15498074D01*
X13402930Y-15498074D02*
X13412453Y-15507598D01*
X13412453Y-15507598D02*
X13421977Y-15526646D01*
X13421977Y-15526646D02*
X13421977Y-15583788D01*
X13421977Y-15583788D02*
X13412453Y-15602836D01*
X13412453Y-15602836D02*
X13402930Y-15612360D01*
X13402930Y-15612360D02*
X13383882Y-15621884D01*
X13383882Y-15621884D02*
X13355310Y-15621884D01*
X13536263Y-15621884D02*
X13517215Y-15612360D01*
X13517215Y-15612360D02*
X13507691Y-15593312D01*
X13507691Y-15593312D02*
X13507691Y-15421884D01*
X13688644Y-15612360D02*
X13669596Y-15621884D01*
X13669596Y-15621884D02*
X13631501Y-15621884D01*
X13631501Y-15621884D02*
X13612453Y-15612360D01*
X13612453Y-15612360D02*
X13602930Y-15593312D01*
X13602930Y-15593312D02*
X13602930Y-15517122D01*
X13602930Y-15517122D02*
X13612453Y-15498074D01*
X13612453Y-15498074D02*
X13631501Y-15488550D01*
X13631501Y-15488550D02*
X13669596Y-15488550D01*
X13669596Y-15488550D02*
X13688644Y-15498074D01*
X13688644Y-15498074D02*
X13698168Y-15517122D01*
X13698168Y-15517122D02*
X13698168Y-15536169D01*
X13698168Y-15536169D02*
X13602930Y-15555217D01*
X13774358Y-15612360D02*
X13793406Y-15621884D01*
X13793406Y-15621884D02*
X13831501Y-15621884D01*
X13831501Y-15621884D02*
X13850549Y-15612360D01*
X13850549Y-15612360D02*
X13860072Y-15593312D01*
X13860072Y-15593312D02*
X13860072Y-15583788D01*
X13860072Y-15583788D02*
X13850549Y-15564741D01*
X13850549Y-15564741D02*
X13831501Y-15555217D01*
X13831501Y-15555217D02*
X13802930Y-15555217D01*
X13802930Y-15555217D02*
X13783882Y-15545693D01*
X13783882Y-15545693D02*
X13774358Y-15526646D01*
X13774358Y-15526646D02*
X13774358Y-15517122D01*
X13774358Y-15517122D02*
X13783882Y-15498074D01*
X13783882Y-15498074D02*
X13802930Y-15488550D01*
X13802930Y-15488550D02*
X13831501Y-15488550D01*
X13831501Y-15488550D02*
X13850549Y-15498074D01*
X13926739Y-15698074D02*
X13936263Y-15688550D01*
X13936263Y-15688550D02*
X13955311Y-15659979D01*
X13955311Y-15659979D02*
X13964834Y-15640931D01*
X13964834Y-15640931D02*
X13974358Y-15612360D01*
X13974358Y-15612360D02*
X13983882Y-15564741D01*
X13983882Y-15564741D02*
X13983882Y-15526646D01*
X13983882Y-15526646D02*
X13974358Y-15479027D01*
X13974358Y-15479027D02*
X13964834Y-15450455D01*
X13964834Y-15450455D02*
X13955311Y-15431408D01*
X13955311Y-15431408D02*
X13936263Y-15402836D01*
X13936263Y-15402836D02*
X13926739Y-15393312D01*
D10*
X8961200Y-15794400D02*
G75*
G03*
X8961200Y-15794400I-40000J0D01*
G01*
D11*
X9260072Y-15685884D02*
X9279120Y-15685884D01*
X9279120Y-15685884D02*
X9298167Y-15695408D01*
X9298167Y-15695408D02*
X9307691Y-15704931D01*
X9307691Y-15704931D02*
X9317215Y-15723979D01*
X9317215Y-15723979D02*
X9326739Y-15762074D01*
X9326739Y-15762074D02*
X9326739Y-15809693D01*
X9326739Y-15809693D02*
X9317215Y-15847788D01*
X9317215Y-15847788D02*
X9307691Y-15866836D01*
X9307691Y-15866836D02*
X9298167Y-15876360D01*
X9298167Y-15876360D02*
X9279120Y-15885884D01*
X9279120Y-15885884D02*
X9260072Y-15885884D01*
X9260072Y-15885884D02*
X9241024Y-15876360D01*
X9241024Y-15876360D02*
X9231501Y-15866836D01*
X9231501Y-15866836D02*
X9221977Y-15847788D01*
X9221977Y-15847788D02*
X9212453Y-15809693D01*
X9212453Y-15809693D02*
X9212453Y-15762074D01*
X9212453Y-15762074D02*
X9221977Y-15723979D01*
X9221977Y-15723979D02*
X9231501Y-15704931D01*
X9231501Y-15704931D02*
X9241024Y-15695408D01*
X9241024Y-15695408D02*
X9260072Y-15685884D01*
X9412453Y-15866836D02*
X9421977Y-15876360D01*
X9421977Y-15876360D02*
X9412453Y-15885884D01*
X9412453Y-15885884D02*
X9402929Y-15876360D01*
X9402929Y-15876360D02*
X9412453Y-15866836D01*
X9412453Y-15866836D02*
X9412453Y-15885884D01*
X9536263Y-15771598D02*
X9517215Y-15762074D01*
X9517215Y-15762074D02*
X9507691Y-15752550D01*
X9507691Y-15752550D02*
X9498167Y-15733503D01*
X9498167Y-15733503D02*
X9498167Y-15723979D01*
X9498167Y-15723979D02*
X9507691Y-15704931D01*
X9507691Y-15704931D02*
X9517215Y-15695408D01*
X9517215Y-15695408D02*
X9536263Y-15685884D01*
X9536263Y-15685884D02*
X9574358Y-15685884D01*
X9574358Y-15685884D02*
X9593405Y-15695408D01*
X9593405Y-15695408D02*
X9602929Y-15704931D01*
X9602929Y-15704931D02*
X9612453Y-15723979D01*
X9612453Y-15723979D02*
X9612453Y-15733503D01*
X9612453Y-15733503D02*
X9602929Y-15752550D01*
X9602929Y-15752550D02*
X9593405Y-15762074D01*
X9593405Y-15762074D02*
X9574358Y-15771598D01*
X9574358Y-15771598D02*
X9536263Y-15771598D01*
X9536263Y-15771598D02*
X9517215Y-15781122D01*
X9517215Y-15781122D02*
X9507691Y-15790646D01*
X9507691Y-15790646D02*
X9498167Y-15809693D01*
X9498167Y-15809693D02*
X9498167Y-15847788D01*
X9498167Y-15847788D02*
X9507691Y-15866836D01*
X9507691Y-15866836D02*
X9517215Y-15876360D01*
X9517215Y-15876360D02*
X9536263Y-15885884D01*
X9536263Y-15885884D02*
X9574358Y-15885884D01*
X9574358Y-15885884D02*
X9593405Y-15876360D01*
X9593405Y-15876360D02*
X9602929Y-15866836D01*
X9602929Y-15866836D02*
X9612453Y-15847788D01*
X9612453Y-15847788D02*
X9612453Y-15809693D01*
X9612453Y-15809693D02*
X9602929Y-15790646D01*
X9602929Y-15790646D02*
X9593405Y-15781122D01*
X9593405Y-15781122D02*
X9574358Y-15771598D01*
X9736263Y-15685884D02*
X9755310Y-15685884D01*
X9755310Y-15685884D02*
X9774358Y-15695408D01*
X9774358Y-15695408D02*
X9783882Y-15704931D01*
X9783882Y-15704931D02*
X9793405Y-15723979D01*
X9793405Y-15723979D02*
X9802929Y-15762074D01*
X9802929Y-15762074D02*
X9802929Y-15809693D01*
X9802929Y-15809693D02*
X9793405Y-15847788D01*
X9793405Y-15847788D02*
X9783882Y-15866836D01*
X9783882Y-15866836D02*
X9774358Y-15876360D01*
X9774358Y-15876360D02*
X9755310Y-15885884D01*
X9755310Y-15885884D02*
X9736263Y-15885884D01*
X9736263Y-15885884D02*
X9717215Y-15876360D01*
X9717215Y-15876360D02*
X9707691Y-15866836D01*
X9707691Y-15866836D02*
X9698167Y-15847788D01*
X9698167Y-15847788D02*
X9688644Y-15809693D01*
X9688644Y-15809693D02*
X9688644Y-15762074D01*
X9688644Y-15762074D02*
X9698167Y-15723979D01*
X9698167Y-15723979D02*
X9707691Y-15704931D01*
X9707691Y-15704931D02*
X9717215Y-15695408D01*
X9717215Y-15695408D02*
X9736263Y-15685884D01*
X9926739Y-15685884D02*
X9945786Y-15685884D01*
X9945786Y-15685884D02*
X9964834Y-15695408D01*
X9964834Y-15695408D02*
X9974358Y-15704931D01*
X9974358Y-15704931D02*
X9983882Y-15723979D01*
X9983882Y-15723979D02*
X9993405Y-15762074D01*
X9993405Y-15762074D02*
X9993405Y-15809693D01*
X9993405Y-15809693D02*
X9983882Y-15847788D01*
X9983882Y-15847788D02*
X9974358Y-15866836D01*
X9974358Y-15866836D02*
X9964834Y-15876360D01*
X9964834Y-15876360D02*
X9945786Y-15885884D01*
X9945786Y-15885884D02*
X9926739Y-15885884D01*
X9926739Y-15885884D02*
X9907691Y-15876360D01*
X9907691Y-15876360D02*
X9898167Y-15866836D01*
X9898167Y-15866836D02*
X9888644Y-15847788D01*
X9888644Y-15847788D02*
X9879120Y-15809693D01*
X9879120Y-15809693D02*
X9879120Y-15762074D01*
X9879120Y-15762074D02*
X9888644Y-15723979D01*
X9888644Y-15723979D02*
X9898167Y-15704931D01*
X9898167Y-15704931D02*
X9907691Y-15695408D01*
X9907691Y-15695408D02*
X9926739Y-15685884D01*
X10079120Y-15885884D02*
X10079120Y-15752550D01*
X10079120Y-15771598D02*
X10088644Y-15762074D01*
X10088644Y-15762074D02*
X10107691Y-15752550D01*
X10107691Y-15752550D02*
X10136263Y-15752550D01*
X10136263Y-15752550D02*
X10155310Y-15762074D01*
X10155310Y-15762074D02*
X10164834Y-15781122D01*
X10164834Y-15781122D02*
X10164834Y-15885884D01*
X10164834Y-15781122D02*
X10174358Y-15762074D01*
X10174358Y-15762074D02*
X10193405Y-15752550D01*
X10193405Y-15752550D02*
X10221977Y-15752550D01*
X10221977Y-15752550D02*
X10241025Y-15762074D01*
X10241025Y-15762074D02*
X10250548Y-15781122D01*
X10250548Y-15781122D02*
X10250548Y-15885884D01*
X10345786Y-15885884D02*
X10345786Y-15752550D01*
X10345786Y-15771598D02*
X10355310Y-15762074D01*
X10355310Y-15762074D02*
X10374358Y-15752550D01*
X10374358Y-15752550D02*
X10402929Y-15752550D01*
X10402929Y-15752550D02*
X10421977Y-15762074D01*
X10421977Y-15762074D02*
X10431501Y-15781122D01*
X10431501Y-15781122D02*
X10431501Y-15885884D01*
X10431501Y-15781122D02*
X10441025Y-15762074D01*
X10441025Y-15762074D02*
X10460072Y-15752550D01*
X10460072Y-15752550D02*
X10488644Y-15752550D01*
X10488644Y-15752550D02*
X10507691Y-15762074D01*
X10507691Y-15762074D02*
X10517215Y-15781122D01*
X10517215Y-15781122D02*
X10517215Y-15885884D01*
X10907691Y-15676360D02*
X10736263Y-15933503D01*
X11164834Y-15685884D02*
X11183882Y-15685884D01*
X11183882Y-15685884D02*
X11202929Y-15695408D01*
X11202929Y-15695408D02*
X11212453Y-15704931D01*
X11212453Y-15704931D02*
X11221977Y-15723979D01*
X11221977Y-15723979D02*
X11231501Y-15762074D01*
X11231501Y-15762074D02*
X11231501Y-15809693D01*
X11231501Y-15809693D02*
X11221977Y-15847788D01*
X11221977Y-15847788D02*
X11212453Y-15866836D01*
X11212453Y-15866836D02*
X11202929Y-15876360D01*
X11202929Y-15876360D02*
X11183882Y-15885884D01*
X11183882Y-15885884D02*
X11164834Y-15885884D01*
X11164834Y-15885884D02*
X11145787Y-15876360D01*
X11145787Y-15876360D02*
X11136263Y-15866836D01*
X11136263Y-15866836D02*
X11126739Y-15847788D01*
X11126739Y-15847788D02*
X11117215Y-15809693D01*
X11117215Y-15809693D02*
X11117215Y-15762074D01*
X11117215Y-15762074D02*
X11126739Y-15723979D01*
X11126739Y-15723979D02*
X11136263Y-15704931D01*
X11136263Y-15704931D02*
X11145787Y-15695408D01*
X11145787Y-15695408D02*
X11164834Y-15685884D01*
X11317215Y-15866836D02*
X11326739Y-15876360D01*
X11326739Y-15876360D02*
X11317215Y-15885884D01*
X11317215Y-15885884D02*
X11307691Y-15876360D01*
X11307691Y-15876360D02*
X11317215Y-15866836D01*
X11317215Y-15866836D02*
X11317215Y-15885884D01*
X11450548Y-15685884D02*
X11469596Y-15685884D01*
X11469596Y-15685884D02*
X11488644Y-15695408D01*
X11488644Y-15695408D02*
X11498167Y-15704931D01*
X11498167Y-15704931D02*
X11507691Y-15723979D01*
X11507691Y-15723979D02*
X11517215Y-15762074D01*
X11517215Y-15762074D02*
X11517215Y-15809693D01*
X11517215Y-15809693D02*
X11507691Y-15847788D01*
X11507691Y-15847788D02*
X11498167Y-15866836D01*
X11498167Y-15866836D02*
X11488644Y-15876360D01*
X11488644Y-15876360D02*
X11469596Y-15885884D01*
X11469596Y-15885884D02*
X11450548Y-15885884D01*
X11450548Y-15885884D02*
X11431501Y-15876360D01*
X11431501Y-15876360D02*
X11421977Y-15866836D01*
X11421977Y-15866836D02*
X11412453Y-15847788D01*
X11412453Y-15847788D02*
X11402929Y-15809693D01*
X11402929Y-15809693D02*
X11402929Y-15762074D01*
X11402929Y-15762074D02*
X11412453Y-15723979D01*
X11412453Y-15723979D02*
X11421977Y-15704931D01*
X11421977Y-15704931D02*
X11431501Y-15695408D01*
X11431501Y-15695408D02*
X11450548Y-15685884D01*
X11583882Y-15685884D02*
X11707691Y-15685884D01*
X11707691Y-15685884D02*
X11641025Y-15762074D01*
X11641025Y-15762074D02*
X11669596Y-15762074D01*
X11669596Y-15762074D02*
X11688644Y-15771598D01*
X11688644Y-15771598D02*
X11698167Y-15781122D01*
X11698167Y-15781122D02*
X11707691Y-15800169D01*
X11707691Y-15800169D02*
X11707691Y-15847788D01*
X11707691Y-15847788D02*
X11698167Y-15866836D01*
X11698167Y-15866836D02*
X11688644Y-15876360D01*
X11688644Y-15876360D02*
X11669596Y-15885884D01*
X11669596Y-15885884D02*
X11612453Y-15885884D01*
X11612453Y-15885884D02*
X11593406Y-15876360D01*
X11593406Y-15876360D02*
X11583882Y-15866836D01*
X11898167Y-15885884D02*
X11783882Y-15885884D01*
X11841025Y-15885884D02*
X11841025Y-15685884D01*
X11841025Y-15685884D02*
X11821977Y-15714455D01*
X11821977Y-15714455D02*
X11802929Y-15733503D01*
X11802929Y-15733503D02*
X11783882Y-15743027D01*
X12079120Y-15685884D02*
X11983882Y-15685884D01*
X11983882Y-15685884D02*
X11974358Y-15781122D01*
X11974358Y-15781122D02*
X11983882Y-15771598D01*
X11983882Y-15771598D02*
X12002929Y-15762074D01*
X12002929Y-15762074D02*
X12050548Y-15762074D01*
X12050548Y-15762074D02*
X12069596Y-15771598D01*
X12069596Y-15771598D02*
X12079120Y-15781122D01*
X12079120Y-15781122D02*
X12088644Y-15800169D01*
X12088644Y-15800169D02*
X12088644Y-15847788D01*
X12088644Y-15847788D02*
X12079120Y-15866836D01*
X12079120Y-15866836D02*
X12069596Y-15876360D01*
X12069596Y-15876360D02*
X12050548Y-15885884D01*
X12050548Y-15885884D02*
X12002929Y-15885884D01*
X12002929Y-15885884D02*
X11983882Y-15876360D01*
X11983882Y-15876360D02*
X11974358Y-15866836D01*
X12164834Y-15685884D02*
X12164834Y-15723979D01*
X12241025Y-15685884D02*
X12241025Y-15723979D01*
X12536263Y-15962074D02*
X12526739Y-15952550D01*
X12526739Y-15952550D02*
X12507691Y-15923979D01*
X12507691Y-15923979D02*
X12498168Y-15904931D01*
X12498168Y-15904931D02*
X12488644Y-15876360D01*
X12488644Y-15876360D02*
X12479120Y-15828741D01*
X12479120Y-15828741D02*
X12479120Y-15790646D01*
X12479120Y-15790646D02*
X12488644Y-15743027D01*
X12488644Y-15743027D02*
X12498168Y-15714455D01*
X12498168Y-15714455D02*
X12507691Y-15695408D01*
X12507691Y-15695408D02*
X12526739Y-15666836D01*
X12526739Y-15666836D02*
X12536263Y-15657312D01*
X12717215Y-15885884D02*
X12602929Y-15885884D01*
X12660072Y-15885884D02*
X12660072Y-15685884D01*
X12660072Y-15685884D02*
X12641025Y-15714455D01*
X12641025Y-15714455D02*
X12621977Y-15733503D01*
X12621977Y-15733503D02*
X12602929Y-15743027D01*
X12783882Y-15685884D02*
X12917215Y-15685884D01*
X12917215Y-15685884D02*
X12831501Y-15885884D01*
X13079120Y-15685884D02*
X13041025Y-15685884D01*
X13041025Y-15685884D02*
X13021977Y-15695408D01*
X13021977Y-15695408D02*
X13012453Y-15704931D01*
X13012453Y-15704931D02*
X12993406Y-15733503D01*
X12993406Y-15733503D02*
X12983882Y-15771598D01*
X12983882Y-15771598D02*
X12983882Y-15847788D01*
X12983882Y-15847788D02*
X12993406Y-15866836D01*
X12993406Y-15866836D02*
X13002929Y-15876360D01*
X13002929Y-15876360D02*
X13021977Y-15885884D01*
X13021977Y-15885884D02*
X13060072Y-15885884D01*
X13060072Y-15885884D02*
X13079120Y-15876360D01*
X13079120Y-15876360D02*
X13088644Y-15866836D01*
X13088644Y-15866836D02*
X13098168Y-15847788D01*
X13098168Y-15847788D02*
X13098168Y-15800169D01*
X13098168Y-15800169D02*
X13088644Y-15781122D01*
X13088644Y-15781122D02*
X13079120Y-15771598D01*
X13079120Y-15771598D02*
X13060072Y-15762074D01*
X13060072Y-15762074D02*
X13021977Y-15762074D01*
X13021977Y-15762074D02*
X13002929Y-15771598D01*
X13002929Y-15771598D02*
X12993406Y-15781122D01*
X12993406Y-15781122D02*
X12983882Y-15800169D01*
X13336263Y-15885884D02*
X13336263Y-15685884D01*
X13421977Y-15885884D02*
X13421977Y-15781122D01*
X13421977Y-15781122D02*
X13412453Y-15762074D01*
X13412453Y-15762074D02*
X13393406Y-15752550D01*
X13393406Y-15752550D02*
X13364834Y-15752550D01*
X13364834Y-15752550D02*
X13345787Y-15762074D01*
X13345787Y-15762074D02*
X13336263Y-15771598D01*
X13545787Y-15885884D02*
X13526739Y-15876360D01*
X13526739Y-15876360D02*
X13517215Y-15866836D01*
X13517215Y-15866836D02*
X13507691Y-15847788D01*
X13507691Y-15847788D02*
X13507691Y-15790646D01*
X13507691Y-15790646D02*
X13517215Y-15771598D01*
X13517215Y-15771598D02*
X13526739Y-15762074D01*
X13526739Y-15762074D02*
X13545787Y-15752550D01*
X13545787Y-15752550D02*
X13574358Y-15752550D01*
X13574358Y-15752550D02*
X13593406Y-15762074D01*
X13593406Y-15762074D02*
X13602930Y-15771598D01*
X13602930Y-15771598D02*
X13612453Y-15790646D01*
X13612453Y-15790646D02*
X13612453Y-15847788D01*
X13612453Y-15847788D02*
X13602930Y-15866836D01*
X13602930Y-15866836D02*
X13593406Y-15876360D01*
X13593406Y-15876360D02*
X13574358Y-15885884D01*
X13574358Y-15885884D02*
X13545787Y-15885884D01*
X13726739Y-15885884D02*
X13707691Y-15876360D01*
X13707691Y-15876360D02*
X13698168Y-15857312D01*
X13698168Y-15857312D02*
X13698168Y-15685884D01*
X13879120Y-15876360D02*
X13860072Y-15885884D01*
X13860072Y-15885884D02*
X13821977Y-15885884D01*
X13821977Y-15885884D02*
X13802930Y-15876360D01*
X13802930Y-15876360D02*
X13793406Y-15857312D01*
X13793406Y-15857312D02*
X13793406Y-15781122D01*
X13793406Y-15781122D02*
X13802930Y-15762074D01*
X13802930Y-15762074D02*
X13821977Y-15752550D01*
X13821977Y-15752550D02*
X13860072Y-15752550D01*
X13860072Y-15752550D02*
X13879120Y-15762074D01*
X13879120Y-15762074D02*
X13888644Y-15781122D01*
X13888644Y-15781122D02*
X13888644Y-15800169D01*
X13888644Y-15800169D02*
X13793406Y-15819217D01*
X13964834Y-15876360D02*
X13983882Y-15885884D01*
X13983882Y-15885884D02*
X14021977Y-15885884D01*
X14021977Y-15885884D02*
X14041025Y-15876360D01*
X14041025Y-15876360D02*
X14050549Y-15857312D01*
X14050549Y-15857312D02*
X14050549Y-15847788D01*
X14050549Y-15847788D02*
X14041025Y-15828741D01*
X14041025Y-15828741D02*
X14021977Y-15819217D01*
X14021977Y-15819217D02*
X13993406Y-15819217D01*
X13993406Y-15819217D02*
X13974358Y-15809693D01*
X13974358Y-15809693D02*
X13964834Y-15790646D01*
X13964834Y-15790646D02*
X13964834Y-15781122D01*
X13964834Y-15781122D02*
X13974358Y-15762074D01*
X13974358Y-15762074D02*
X13993406Y-15752550D01*
X13993406Y-15752550D02*
X14021977Y-15752550D01*
X14021977Y-15752550D02*
X14041025Y-15762074D01*
X14117215Y-15962074D02*
X14126739Y-15952550D01*
X14126739Y-15952550D02*
X14145787Y-15923979D01*
X14145787Y-15923979D02*
X14155311Y-15904931D01*
X14155311Y-15904931D02*
X14164834Y-15876360D01*
X14164834Y-15876360D02*
X14174358Y-15828741D01*
X14174358Y-15828741D02*
X14174358Y-15790646D01*
X14174358Y-15790646D02*
X14164834Y-15743027D01*
X14164834Y-15743027D02*
X14155311Y-15714455D01*
X14155311Y-15714455D02*
X14145787Y-15695408D01*
X14145787Y-15695408D02*
X14126739Y-15666836D01*
X14126739Y-15666836D02*
X14117215Y-15657312D01*
D10*
X8911200Y-16008400D02*
X8911200Y-16108400D01*
X8861200Y-16058400D02*
X8961200Y-16058400D01*
D11*
X9326739Y-16149884D02*
X9212453Y-16149884D01*
X9269596Y-16149884D02*
X9269596Y-15949884D01*
X9269596Y-15949884D02*
X9250548Y-15978455D01*
X9250548Y-15978455D02*
X9231501Y-15997503D01*
X9231501Y-15997503D02*
X9212453Y-16007027D01*
X9412453Y-16130836D02*
X9421977Y-16140360D01*
X9421977Y-16140360D02*
X9412453Y-16149884D01*
X9412453Y-16149884D02*
X9402929Y-16140360D01*
X9402929Y-16140360D02*
X9412453Y-16130836D01*
X9412453Y-16130836D02*
X9412453Y-16149884D01*
X9545786Y-15949884D02*
X9564834Y-15949884D01*
X9564834Y-15949884D02*
X9583882Y-15959408D01*
X9583882Y-15959408D02*
X9593405Y-15968931D01*
X9593405Y-15968931D02*
X9602929Y-15987979D01*
X9602929Y-15987979D02*
X9612453Y-16026074D01*
X9612453Y-16026074D02*
X9612453Y-16073693D01*
X9612453Y-16073693D02*
X9602929Y-16111788D01*
X9602929Y-16111788D02*
X9593405Y-16130836D01*
X9593405Y-16130836D02*
X9583882Y-16140360D01*
X9583882Y-16140360D02*
X9564834Y-16149884D01*
X9564834Y-16149884D02*
X9545786Y-16149884D01*
X9545786Y-16149884D02*
X9526739Y-16140360D01*
X9526739Y-16140360D02*
X9517215Y-16130836D01*
X9517215Y-16130836D02*
X9507691Y-16111788D01*
X9507691Y-16111788D02*
X9498167Y-16073693D01*
X9498167Y-16073693D02*
X9498167Y-16026074D01*
X9498167Y-16026074D02*
X9507691Y-15987979D01*
X9507691Y-15987979D02*
X9517215Y-15968931D01*
X9517215Y-15968931D02*
X9526739Y-15959408D01*
X9526739Y-15959408D02*
X9545786Y-15949884D01*
X9736263Y-15949884D02*
X9755310Y-15949884D01*
X9755310Y-15949884D02*
X9774358Y-15959408D01*
X9774358Y-15959408D02*
X9783882Y-15968931D01*
X9783882Y-15968931D02*
X9793405Y-15987979D01*
X9793405Y-15987979D02*
X9802929Y-16026074D01*
X9802929Y-16026074D02*
X9802929Y-16073693D01*
X9802929Y-16073693D02*
X9793405Y-16111788D01*
X9793405Y-16111788D02*
X9783882Y-16130836D01*
X9783882Y-16130836D02*
X9774358Y-16140360D01*
X9774358Y-16140360D02*
X9755310Y-16149884D01*
X9755310Y-16149884D02*
X9736263Y-16149884D01*
X9736263Y-16149884D02*
X9717215Y-16140360D01*
X9717215Y-16140360D02*
X9707691Y-16130836D01*
X9707691Y-16130836D02*
X9698167Y-16111788D01*
X9698167Y-16111788D02*
X9688644Y-16073693D01*
X9688644Y-16073693D02*
X9688644Y-16026074D01*
X9688644Y-16026074D02*
X9698167Y-15987979D01*
X9698167Y-15987979D02*
X9707691Y-15968931D01*
X9707691Y-15968931D02*
X9717215Y-15959408D01*
X9717215Y-15959408D02*
X9736263Y-15949884D01*
X9926739Y-15949884D02*
X9945786Y-15949884D01*
X9945786Y-15949884D02*
X9964834Y-15959408D01*
X9964834Y-15959408D02*
X9974358Y-15968931D01*
X9974358Y-15968931D02*
X9983882Y-15987979D01*
X9983882Y-15987979D02*
X9993405Y-16026074D01*
X9993405Y-16026074D02*
X9993405Y-16073693D01*
X9993405Y-16073693D02*
X9983882Y-16111788D01*
X9983882Y-16111788D02*
X9974358Y-16130836D01*
X9974358Y-16130836D02*
X9964834Y-16140360D01*
X9964834Y-16140360D02*
X9945786Y-16149884D01*
X9945786Y-16149884D02*
X9926739Y-16149884D01*
X9926739Y-16149884D02*
X9907691Y-16140360D01*
X9907691Y-16140360D02*
X9898167Y-16130836D01*
X9898167Y-16130836D02*
X9888644Y-16111788D01*
X9888644Y-16111788D02*
X9879120Y-16073693D01*
X9879120Y-16073693D02*
X9879120Y-16026074D01*
X9879120Y-16026074D02*
X9888644Y-15987979D01*
X9888644Y-15987979D02*
X9898167Y-15968931D01*
X9898167Y-15968931D02*
X9907691Y-15959408D01*
X9907691Y-15959408D02*
X9926739Y-15949884D01*
X10079120Y-16149884D02*
X10079120Y-16016550D01*
X10079120Y-16035598D02*
X10088644Y-16026074D01*
X10088644Y-16026074D02*
X10107691Y-16016550D01*
X10107691Y-16016550D02*
X10136263Y-16016550D01*
X10136263Y-16016550D02*
X10155310Y-16026074D01*
X10155310Y-16026074D02*
X10164834Y-16045122D01*
X10164834Y-16045122D02*
X10164834Y-16149884D01*
X10164834Y-16045122D02*
X10174358Y-16026074D01*
X10174358Y-16026074D02*
X10193405Y-16016550D01*
X10193405Y-16016550D02*
X10221977Y-16016550D01*
X10221977Y-16016550D02*
X10241025Y-16026074D01*
X10241025Y-16026074D02*
X10250548Y-16045122D01*
X10250548Y-16045122D02*
X10250548Y-16149884D01*
X10345786Y-16149884D02*
X10345786Y-16016550D01*
X10345786Y-16035598D02*
X10355310Y-16026074D01*
X10355310Y-16026074D02*
X10374358Y-16016550D01*
X10374358Y-16016550D02*
X10402929Y-16016550D01*
X10402929Y-16016550D02*
X10421977Y-16026074D01*
X10421977Y-16026074D02*
X10431501Y-16045122D01*
X10431501Y-16045122D02*
X10431501Y-16149884D01*
X10431501Y-16045122D02*
X10441025Y-16026074D01*
X10441025Y-16026074D02*
X10460072Y-16016550D01*
X10460072Y-16016550D02*
X10488644Y-16016550D01*
X10488644Y-16016550D02*
X10507691Y-16026074D01*
X10507691Y-16026074D02*
X10517215Y-16045122D01*
X10517215Y-16045122D02*
X10517215Y-16149884D01*
X10907691Y-15940360D02*
X10736263Y-16197503D01*
X11164834Y-15949884D02*
X11183882Y-15949884D01*
X11183882Y-15949884D02*
X11202929Y-15959408D01*
X11202929Y-15959408D02*
X11212453Y-15968931D01*
X11212453Y-15968931D02*
X11221977Y-15987979D01*
X11221977Y-15987979D02*
X11231501Y-16026074D01*
X11231501Y-16026074D02*
X11231501Y-16073693D01*
X11231501Y-16073693D02*
X11221977Y-16111788D01*
X11221977Y-16111788D02*
X11212453Y-16130836D01*
X11212453Y-16130836D02*
X11202929Y-16140360D01*
X11202929Y-16140360D02*
X11183882Y-16149884D01*
X11183882Y-16149884D02*
X11164834Y-16149884D01*
X11164834Y-16149884D02*
X11145787Y-16140360D01*
X11145787Y-16140360D02*
X11136263Y-16130836D01*
X11136263Y-16130836D02*
X11126739Y-16111788D01*
X11126739Y-16111788D02*
X11117215Y-16073693D01*
X11117215Y-16073693D02*
X11117215Y-16026074D01*
X11117215Y-16026074D02*
X11126739Y-15987979D01*
X11126739Y-15987979D02*
X11136263Y-15968931D01*
X11136263Y-15968931D02*
X11145787Y-15959408D01*
X11145787Y-15959408D02*
X11164834Y-15949884D01*
X11317215Y-16130836D02*
X11326739Y-16140360D01*
X11326739Y-16140360D02*
X11317215Y-16149884D01*
X11317215Y-16149884D02*
X11307691Y-16140360D01*
X11307691Y-16140360D02*
X11317215Y-16130836D01*
X11317215Y-16130836D02*
X11317215Y-16149884D01*
X11450548Y-15949884D02*
X11469596Y-15949884D01*
X11469596Y-15949884D02*
X11488644Y-15959408D01*
X11488644Y-15959408D02*
X11498167Y-15968931D01*
X11498167Y-15968931D02*
X11507691Y-15987979D01*
X11507691Y-15987979D02*
X11517215Y-16026074D01*
X11517215Y-16026074D02*
X11517215Y-16073693D01*
X11517215Y-16073693D02*
X11507691Y-16111788D01*
X11507691Y-16111788D02*
X11498167Y-16130836D01*
X11498167Y-16130836D02*
X11488644Y-16140360D01*
X11488644Y-16140360D02*
X11469596Y-16149884D01*
X11469596Y-16149884D02*
X11450548Y-16149884D01*
X11450548Y-16149884D02*
X11431501Y-16140360D01*
X11431501Y-16140360D02*
X11421977Y-16130836D01*
X11421977Y-16130836D02*
X11412453Y-16111788D01*
X11412453Y-16111788D02*
X11402929Y-16073693D01*
X11402929Y-16073693D02*
X11402929Y-16026074D01*
X11402929Y-16026074D02*
X11412453Y-15987979D01*
X11412453Y-15987979D02*
X11421977Y-15968931D01*
X11421977Y-15968931D02*
X11431501Y-15959408D01*
X11431501Y-15959408D02*
X11450548Y-15949884D01*
X11583882Y-15949884D02*
X11707691Y-15949884D01*
X11707691Y-15949884D02*
X11641025Y-16026074D01*
X11641025Y-16026074D02*
X11669596Y-16026074D01*
X11669596Y-16026074D02*
X11688644Y-16035598D01*
X11688644Y-16035598D02*
X11698167Y-16045122D01*
X11698167Y-16045122D02*
X11707691Y-16064169D01*
X11707691Y-16064169D02*
X11707691Y-16111788D01*
X11707691Y-16111788D02*
X11698167Y-16130836D01*
X11698167Y-16130836D02*
X11688644Y-16140360D01*
X11688644Y-16140360D02*
X11669596Y-16149884D01*
X11669596Y-16149884D02*
X11612453Y-16149884D01*
X11612453Y-16149884D02*
X11593406Y-16140360D01*
X11593406Y-16140360D02*
X11583882Y-16130836D01*
X11802929Y-16149884D02*
X11841025Y-16149884D01*
X11841025Y-16149884D02*
X11860072Y-16140360D01*
X11860072Y-16140360D02*
X11869596Y-16130836D01*
X11869596Y-16130836D02*
X11888644Y-16102265D01*
X11888644Y-16102265D02*
X11898167Y-16064169D01*
X11898167Y-16064169D02*
X11898167Y-15987979D01*
X11898167Y-15987979D02*
X11888644Y-15968931D01*
X11888644Y-15968931D02*
X11879120Y-15959408D01*
X11879120Y-15959408D02*
X11860072Y-15949884D01*
X11860072Y-15949884D02*
X11821977Y-15949884D01*
X11821977Y-15949884D02*
X11802929Y-15959408D01*
X11802929Y-15959408D02*
X11793406Y-15968931D01*
X11793406Y-15968931D02*
X11783882Y-15987979D01*
X11783882Y-15987979D02*
X11783882Y-16035598D01*
X11783882Y-16035598D02*
X11793406Y-16054646D01*
X11793406Y-16054646D02*
X11802929Y-16064169D01*
X11802929Y-16064169D02*
X11821977Y-16073693D01*
X11821977Y-16073693D02*
X11860072Y-16073693D01*
X11860072Y-16073693D02*
X11879120Y-16064169D01*
X11879120Y-16064169D02*
X11888644Y-16054646D01*
X11888644Y-16054646D02*
X11898167Y-16035598D01*
X12069596Y-16016550D02*
X12069596Y-16149884D01*
X12021977Y-15940360D02*
X11974358Y-16083217D01*
X11974358Y-16083217D02*
X12098167Y-16083217D01*
X12164834Y-15949884D02*
X12164834Y-15987979D01*
X12241025Y-15949884D02*
X12241025Y-15987979D01*
X12536263Y-16226074D02*
X12526739Y-16216550D01*
X12526739Y-16216550D02*
X12507691Y-16187979D01*
X12507691Y-16187979D02*
X12498168Y-16168931D01*
X12498168Y-16168931D02*
X12488644Y-16140360D01*
X12488644Y-16140360D02*
X12479120Y-16092741D01*
X12479120Y-16092741D02*
X12479120Y-16054646D01*
X12479120Y-16054646D02*
X12488644Y-16007027D01*
X12488644Y-16007027D02*
X12498168Y-15978455D01*
X12498168Y-15978455D02*
X12507691Y-15959408D01*
X12507691Y-15959408D02*
X12526739Y-15930836D01*
X12526739Y-15930836D02*
X12536263Y-15921312D01*
X12717215Y-16149884D02*
X12602929Y-16149884D01*
X12660072Y-16149884D02*
X12660072Y-15949884D01*
X12660072Y-15949884D02*
X12641025Y-15978455D01*
X12641025Y-15978455D02*
X12621977Y-15997503D01*
X12621977Y-15997503D02*
X12602929Y-16007027D01*
X12898168Y-15949884D02*
X12802929Y-15949884D01*
X12802929Y-15949884D02*
X12793406Y-16045122D01*
X12793406Y-16045122D02*
X12802929Y-16035598D01*
X12802929Y-16035598D02*
X12821977Y-16026074D01*
X12821977Y-16026074D02*
X12869596Y-16026074D01*
X12869596Y-16026074D02*
X12888644Y-16035598D01*
X12888644Y-16035598D02*
X12898168Y-16045122D01*
X12898168Y-16045122D02*
X12907691Y-16064169D01*
X12907691Y-16064169D02*
X12907691Y-16111788D01*
X12907691Y-16111788D02*
X12898168Y-16130836D01*
X12898168Y-16130836D02*
X12888644Y-16140360D01*
X12888644Y-16140360D02*
X12869596Y-16149884D01*
X12869596Y-16149884D02*
X12821977Y-16149884D01*
X12821977Y-16149884D02*
X12802929Y-16140360D01*
X12802929Y-16140360D02*
X12793406Y-16130836D01*
X13145787Y-16149884D02*
X13145787Y-15949884D01*
X13231501Y-16149884D02*
X13231501Y-16045122D01*
X13231501Y-16045122D02*
X13221977Y-16026074D01*
X13221977Y-16026074D02*
X13202930Y-16016550D01*
X13202930Y-16016550D02*
X13174358Y-16016550D01*
X13174358Y-16016550D02*
X13155310Y-16026074D01*
X13155310Y-16026074D02*
X13145787Y-16035598D01*
X13355310Y-16149884D02*
X13336263Y-16140360D01*
X13336263Y-16140360D02*
X13326739Y-16130836D01*
X13326739Y-16130836D02*
X13317215Y-16111788D01*
X13317215Y-16111788D02*
X13317215Y-16054646D01*
X13317215Y-16054646D02*
X13326739Y-16035598D01*
X13326739Y-16035598D02*
X13336263Y-16026074D01*
X13336263Y-16026074D02*
X13355310Y-16016550D01*
X13355310Y-16016550D02*
X13383882Y-16016550D01*
X13383882Y-16016550D02*
X13402930Y-16026074D01*
X13402930Y-16026074D02*
X13412453Y-16035598D01*
X13412453Y-16035598D02*
X13421977Y-16054646D01*
X13421977Y-16054646D02*
X13421977Y-16111788D01*
X13421977Y-16111788D02*
X13412453Y-16130836D01*
X13412453Y-16130836D02*
X13402930Y-16140360D01*
X13402930Y-16140360D02*
X13383882Y-16149884D01*
X13383882Y-16149884D02*
X13355310Y-16149884D01*
X13536263Y-16149884D02*
X13517215Y-16140360D01*
X13517215Y-16140360D02*
X13507691Y-16121312D01*
X13507691Y-16121312D02*
X13507691Y-15949884D01*
X13688644Y-16140360D02*
X13669596Y-16149884D01*
X13669596Y-16149884D02*
X13631501Y-16149884D01*
X13631501Y-16149884D02*
X13612453Y-16140360D01*
X13612453Y-16140360D02*
X13602930Y-16121312D01*
X13602930Y-16121312D02*
X13602930Y-16045122D01*
X13602930Y-16045122D02*
X13612453Y-16026074D01*
X13612453Y-16026074D02*
X13631501Y-16016550D01*
X13631501Y-16016550D02*
X13669596Y-16016550D01*
X13669596Y-16016550D02*
X13688644Y-16026074D01*
X13688644Y-16026074D02*
X13698168Y-16045122D01*
X13698168Y-16045122D02*
X13698168Y-16064169D01*
X13698168Y-16064169D02*
X13602930Y-16083217D01*
X13774358Y-16140360D02*
X13793406Y-16149884D01*
X13793406Y-16149884D02*
X13831501Y-16149884D01*
X13831501Y-16149884D02*
X13850549Y-16140360D01*
X13850549Y-16140360D02*
X13860072Y-16121312D01*
X13860072Y-16121312D02*
X13860072Y-16111788D01*
X13860072Y-16111788D02*
X13850549Y-16092741D01*
X13850549Y-16092741D02*
X13831501Y-16083217D01*
X13831501Y-16083217D02*
X13802930Y-16083217D01*
X13802930Y-16083217D02*
X13783882Y-16073693D01*
X13783882Y-16073693D02*
X13774358Y-16054646D01*
X13774358Y-16054646D02*
X13774358Y-16045122D01*
X13774358Y-16045122D02*
X13783882Y-16026074D01*
X13783882Y-16026074D02*
X13802930Y-16016550D01*
X13802930Y-16016550D02*
X13831501Y-16016550D01*
X13831501Y-16016550D02*
X13850549Y-16026074D01*
X13926739Y-16226074D02*
X13936263Y-16216550D01*
X13936263Y-16216550D02*
X13955311Y-16187979D01*
X13955311Y-16187979D02*
X13964834Y-16168931D01*
X13964834Y-16168931D02*
X13974358Y-16140360D01*
X13974358Y-16140360D02*
X13983882Y-16092741D01*
X13983882Y-16092741D02*
X13983882Y-16054646D01*
X13983882Y-16054646D02*
X13974358Y-16007027D01*
X13974358Y-16007027D02*
X13964834Y-15978455D01*
X13964834Y-15978455D02*
X13955311Y-15959408D01*
X13955311Y-15959408D02*
X13936263Y-15930836D01*
X13936263Y-15930836D02*
X13926739Y-15921312D01*
D12*
X8945091Y-16361291D02*
X8945091Y-16283509D01*
X8867309Y-16283509D01*
X8867309Y-16361291D01*
X8945091Y-16361291D01*
D11*
X9326739Y-16413884D02*
X9212453Y-16413884D01*
X9269596Y-16413884D02*
X9269596Y-16213884D01*
X9269596Y-16213884D02*
X9250548Y-16242455D01*
X9250548Y-16242455D02*
X9231501Y-16261503D01*
X9231501Y-16261503D02*
X9212453Y-16271027D01*
X9412453Y-16394836D02*
X9421977Y-16404360D01*
X9421977Y-16404360D02*
X9412453Y-16413884D01*
X9412453Y-16413884D02*
X9402929Y-16404360D01*
X9402929Y-16404360D02*
X9412453Y-16394836D01*
X9412453Y-16394836D02*
X9412453Y-16413884D01*
X9612453Y-16413884D02*
X9498167Y-16413884D01*
X9555310Y-16413884D02*
X9555310Y-16213884D01*
X9555310Y-16213884D02*
X9536263Y-16242455D01*
X9536263Y-16242455D02*
X9517215Y-16261503D01*
X9517215Y-16261503D02*
X9498167Y-16271027D01*
X9736263Y-16213884D02*
X9755310Y-16213884D01*
X9755310Y-16213884D02*
X9774358Y-16223408D01*
X9774358Y-16223408D02*
X9783882Y-16232931D01*
X9783882Y-16232931D02*
X9793405Y-16251979D01*
X9793405Y-16251979D02*
X9802929Y-16290074D01*
X9802929Y-16290074D02*
X9802929Y-16337693D01*
X9802929Y-16337693D02*
X9793405Y-16375788D01*
X9793405Y-16375788D02*
X9783882Y-16394836D01*
X9783882Y-16394836D02*
X9774358Y-16404360D01*
X9774358Y-16404360D02*
X9755310Y-16413884D01*
X9755310Y-16413884D02*
X9736263Y-16413884D01*
X9736263Y-16413884D02*
X9717215Y-16404360D01*
X9717215Y-16404360D02*
X9707691Y-16394836D01*
X9707691Y-16394836D02*
X9698167Y-16375788D01*
X9698167Y-16375788D02*
X9688644Y-16337693D01*
X9688644Y-16337693D02*
X9688644Y-16290074D01*
X9688644Y-16290074D02*
X9698167Y-16251979D01*
X9698167Y-16251979D02*
X9707691Y-16232931D01*
X9707691Y-16232931D02*
X9717215Y-16223408D01*
X9717215Y-16223408D02*
X9736263Y-16213884D01*
X9926739Y-16213884D02*
X9945786Y-16213884D01*
X9945786Y-16213884D02*
X9964834Y-16223408D01*
X9964834Y-16223408D02*
X9974358Y-16232931D01*
X9974358Y-16232931D02*
X9983882Y-16251979D01*
X9983882Y-16251979D02*
X9993405Y-16290074D01*
X9993405Y-16290074D02*
X9993405Y-16337693D01*
X9993405Y-16337693D02*
X9983882Y-16375788D01*
X9983882Y-16375788D02*
X9974358Y-16394836D01*
X9974358Y-16394836D02*
X9964834Y-16404360D01*
X9964834Y-16404360D02*
X9945786Y-16413884D01*
X9945786Y-16413884D02*
X9926739Y-16413884D01*
X9926739Y-16413884D02*
X9907691Y-16404360D01*
X9907691Y-16404360D02*
X9898167Y-16394836D01*
X9898167Y-16394836D02*
X9888644Y-16375788D01*
X9888644Y-16375788D02*
X9879120Y-16337693D01*
X9879120Y-16337693D02*
X9879120Y-16290074D01*
X9879120Y-16290074D02*
X9888644Y-16251979D01*
X9888644Y-16251979D02*
X9898167Y-16232931D01*
X9898167Y-16232931D02*
X9907691Y-16223408D01*
X9907691Y-16223408D02*
X9926739Y-16213884D01*
X10079120Y-16413884D02*
X10079120Y-16280550D01*
X10079120Y-16299598D02*
X10088644Y-16290074D01*
X10088644Y-16290074D02*
X10107691Y-16280550D01*
X10107691Y-16280550D02*
X10136263Y-16280550D01*
X10136263Y-16280550D02*
X10155310Y-16290074D01*
X10155310Y-16290074D02*
X10164834Y-16309122D01*
X10164834Y-16309122D02*
X10164834Y-16413884D01*
X10164834Y-16309122D02*
X10174358Y-16290074D01*
X10174358Y-16290074D02*
X10193405Y-16280550D01*
X10193405Y-16280550D02*
X10221977Y-16280550D01*
X10221977Y-16280550D02*
X10241025Y-16290074D01*
X10241025Y-16290074D02*
X10250548Y-16309122D01*
X10250548Y-16309122D02*
X10250548Y-16413884D01*
X10345786Y-16413884D02*
X10345786Y-16280550D01*
X10345786Y-16299598D02*
X10355310Y-16290074D01*
X10355310Y-16290074D02*
X10374358Y-16280550D01*
X10374358Y-16280550D02*
X10402929Y-16280550D01*
X10402929Y-16280550D02*
X10421977Y-16290074D01*
X10421977Y-16290074D02*
X10431501Y-16309122D01*
X10431501Y-16309122D02*
X10431501Y-16413884D01*
X10431501Y-16309122D02*
X10441025Y-16290074D01*
X10441025Y-16290074D02*
X10460072Y-16280550D01*
X10460072Y-16280550D02*
X10488644Y-16280550D01*
X10488644Y-16280550D02*
X10507691Y-16290074D01*
X10507691Y-16290074D02*
X10517215Y-16309122D01*
X10517215Y-16309122D02*
X10517215Y-16413884D01*
X10907691Y-16204360D02*
X10736263Y-16461503D01*
X11164834Y-16213884D02*
X11183882Y-16213884D01*
X11183882Y-16213884D02*
X11202929Y-16223408D01*
X11202929Y-16223408D02*
X11212453Y-16232931D01*
X11212453Y-16232931D02*
X11221977Y-16251979D01*
X11221977Y-16251979D02*
X11231501Y-16290074D01*
X11231501Y-16290074D02*
X11231501Y-16337693D01*
X11231501Y-16337693D02*
X11221977Y-16375788D01*
X11221977Y-16375788D02*
X11212453Y-16394836D01*
X11212453Y-16394836D02*
X11202929Y-16404360D01*
X11202929Y-16404360D02*
X11183882Y-16413884D01*
X11183882Y-16413884D02*
X11164834Y-16413884D01*
X11164834Y-16413884D02*
X11145787Y-16404360D01*
X11145787Y-16404360D02*
X11136263Y-16394836D01*
X11136263Y-16394836D02*
X11126739Y-16375788D01*
X11126739Y-16375788D02*
X11117215Y-16337693D01*
X11117215Y-16337693D02*
X11117215Y-16290074D01*
X11117215Y-16290074D02*
X11126739Y-16251979D01*
X11126739Y-16251979D02*
X11136263Y-16232931D01*
X11136263Y-16232931D02*
X11145787Y-16223408D01*
X11145787Y-16223408D02*
X11164834Y-16213884D01*
X11317215Y-16394836D02*
X11326739Y-16404360D01*
X11326739Y-16404360D02*
X11317215Y-16413884D01*
X11317215Y-16413884D02*
X11307691Y-16404360D01*
X11307691Y-16404360D02*
X11317215Y-16394836D01*
X11317215Y-16394836D02*
X11317215Y-16413884D01*
X11450548Y-16213884D02*
X11469596Y-16213884D01*
X11469596Y-16213884D02*
X11488644Y-16223408D01*
X11488644Y-16223408D02*
X11498167Y-16232931D01*
X11498167Y-16232931D02*
X11507691Y-16251979D01*
X11507691Y-16251979D02*
X11517215Y-16290074D01*
X11517215Y-16290074D02*
X11517215Y-16337693D01*
X11517215Y-16337693D02*
X11507691Y-16375788D01*
X11507691Y-16375788D02*
X11498167Y-16394836D01*
X11498167Y-16394836D02*
X11488644Y-16404360D01*
X11488644Y-16404360D02*
X11469596Y-16413884D01*
X11469596Y-16413884D02*
X11450548Y-16413884D01*
X11450548Y-16413884D02*
X11431501Y-16404360D01*
X11431501Y-16404360D02*
X11421977Y-16394836D01*
X11421977Y-16394836D02*
X11412453Y-16375788D01*
X11412453Y-16375788D02*
X11402929Y-16337693D01*
X11402929Y-16337693D02*
X11402929Y-16290074D01*
X11402929Y-16290074D02*
X11412453Y-16251979D01*
X11412453Y-16251979D02*
X11421977Y-16232931D01*
X11421977Y-16232931D02*
X11431501Y-16223408D01*
X11431501Y-16223408D02*
X11450548Y-16213884D01*
X11688644Y-16280550D02*
X11688644Y-16413884D01*
X11641025Y-16204360D02*
X11593406Y-16347217D01*
X11593406Y-16347217D02*
X11717215Y-16347217D01*
X11774358Y-16213884D02*
X11898167Y-16213884D01*
X11898167Y-16213884D02*
X11831501Y-16290074D01*
X11831501Y-16290074D02*
X11860072Y-16290074D01*
X11860072Y-16290074D02*
X11879120Y-16299598D01*
X11879120Y-16299598D02*
X11888644Y-16309122D01*
X11888644Y-16309122D02*
X11898167Y-16328169D01*
X11898167Y-16328169D02*
X11898167Y-16375788D01*
X11898167Y-16375788D02*
X11888644Y-16394836D01*
X11888644Y-16394836D02*
X11879120Y-16404360D01*
X11879120Y-16404360D02*
X11860072Y-16413884D01*
X11860072Y-16413884D02*
X11802929Y-16413884D01*
X11802929Y-16413884D02*
X11783882Y-16404360D01*
X11783882Y-16404360D02*
X11774358Y-16394836D01*
X11964834Y-16213884D02*
X12088644Y-16213884D01*
X12088644Y-16213884D02*
X12021977Y-16290074D01*
X12021977Y-16290074D02*
X12050548Y-16290074D01*
X12050548Y-16290074D02*
X12069596Y-16299598D01*
X12069596Y-16299598D02*
X12079120Y-16309122D01*
X12079120Y-16309122D02*
X12088644Y-16328169D01*
X12088644Y-16328169D02*
X12088644Y-16375788D01*
X12088644Y-16375788D02*
X12079120Y-16394836D01*
X12079120Y-16394836D02*
X12069596Y-16404360D01*
X12069596Y-16404360D02*
X12050548Y-16413884D01*
X12050548Y-16413884D02*
X11993406Y-16413884D01*
X11993406Y-16413884D02*
X11974358Y-16404360D01*
X11974358Y-16404360D02*
X11964834Y-16394836D01*
X12164834Y-16213884D02*
X12164834Y-16251979D01*
X12241025Y-16213884D02*
X12241025Y-16251979D01*
X12536263Y-16490074D02*
X12526739Y-16480550D01*
X12526739Y-16480550D02*
X12507691Y-16451979D01*
X12507691Y-16451979D02*
X12498168Y-16432931D01*
X12498168Y-16432931D02*
X12488644Y-16404360D01*
X12488644Y-16404360D02*
X12479120Y-16356741D01*
X12479120Y-16356741D02*
X12479120Y-16318646D01*
X12479120Y-16318646D02*
X12488644Y-16271027D01*
X12488644Y-16271027D02*
X12498168Y-16242455D01*
X12498168Y-16242455D02*
X12507691Y-16223408D01*
X12507691Y-16223408D02*
X12526739Y-16194836D01*
X12526739Y-16194836D02*
X12536263Y-16185312D01*
X12698168Y-16280550D02*
X12698168Y-16413884D01*
X12650548Y-16204360D02*
X12602929Y-16347217D01*
X12602929Y-16347217D02*
X12726739Y-16347217D01*
X12955310Y-16413884D02*
X12955310Y-16213884D01*
X13041025Y-16413884D02*
X13041025Y-16309122D01*
X13041025Y-16309122D02*
X13031501Y-16290074D01*
X13031501Y-16290074D02*
X13012453Y-16280550D01*
X13012453Y-16280550D02*
X12983882Y-16280550D01*
X12983882Y-16280550D02*
X12964834Y-16290074D01*
X12964834Y-16290074D02*
X12955310Y-16299598D01*
X13164834Y-16413884D02*
X13145787Y-16404360D01*
X13145787Y-16404360D02*
X13136263Y-16394836D01*
X13136263Y-16394836D02*
X13126739Y-16375788D01*
X13126739Y-16375788D02*
X13126739Y-16318646D01*
X13126739Y-16318646D02*
X13136263Y-16299598D01*
X13136263Y-16299598D02*
X13145787Y-16290074D01*
X13145787Y-16290074D02*
X13164834Y-16280550D01*
X13164834Y-16280550D02*
X13193406Y-16280550D01*
X13193406Y-16280550D02*
X13212453Y-16290074D01*
X13212453Y-16290074D02*
X13221977Y-16299598D01*
X13221977Y-16299598D02*
X13231501Y-16318646D01*
X13231501Y-16318646D02*
X13231501Y-16375788D01*
X13231501Y-16375788D02*
X13221977Y-16394836D01*
X13221977Y-16394836D02*
X13212453Y-16404360D01*
X13212453Y-16404360D02*
X13193406Y-16413884D01*
X13193406Y-16413884D02*
X13164834Y-16413884D01*
X13345787Y-16413884D02*
X13326739Y-16404360D01*
X13326739Y-16404360D02*
X13317215Y-16385312D01*
X13317215Y-16385312D02*
X13317215Y-16213884D01*
X13498168Y-16404360D02*
X13479120Y-16413884D01*
X13479120Y-16413884D02*
X13441025Y-16413884D01*
X13441025Y-16413884D02*
X13421977Y-16404360D01*
X13421977Y-16404360D02*
X13412453Y-16385312D01*
X13412453Y-16385312D02*
X13412453Y-16309122D01*
X13412453Y-16309122D02*
X13421977Y-16290074D01*
X13421977Y-16290074D02*
X13441025Y-16280550D01*
X13441025Y-16280550D02*
X13479120Y-16280550D01*
X13479120Y-16280550D02*
X13498168Y-16290074D01*
X13498168Y-16290074D02*
X13507691Y-16309122D01*
X13507691Y-16309122D02*
X13507691Y-16328169D01*
X13507691Y-16328169D02*
X13412453Y-16347217D01*
X13583882Y-16404360D02*
X13602930Y-16413884D01*
X13602930Y-16413884D02*
X13641025Y-16413884D01*
X13641025Y-16413884D02*
X13660072Y-16404360D01*
X13660072Y-16404360D02*
X13669596Y-16385312D01*
X13669596Y-16385312D02*
X13669596Y-16375788D01*
X13669596Y-16375788D02*
X13660072Y-16356741D01*
X13660072Y-16356741D02*
X13641025Y-16347217D01*
X13641025Y-16347217D02*
X13612453Y-16347217D01*
X13612453Y-16347217D02*
X13593406Y-16337693D01*
X13593406Y-16337693D02*
X13583882Y-16318646D01*
X13583882Y-16318646D02*
X13583882Y-16309122D01*
X13583882Y-16309122D02*
X13593406Y-16290074D01*
X13593406Y-16290074D02*
X13612453Y-16280550D01*
X13612453Y-16280550D02*
X13641025Y-16280550D01*
X13641025Y-16280550D02*
X13660072Y-16290074D01*
X13736263Y-16490074D02*
X13745787Y-16480550D01*
X13745787Y-16480550D02*
X13764834Y-16451979D01*
X13764834Y-16451979D02*
X13774358Y-16432931D01*
X13774358Y-16432931D02*
X13783882Y-16404360D01*
X13783882Y-16404360D02*
X13793406Y-16356741D01*
X13793406Y-16356741D02*
X13793406Y-16318646D01*
X13793406Y-16318646D02*
X13783882Y-16271027D01*
X13783882Y-16271027D02*
X13774358Y-16242455D01*
X13774358Y-16242455D02*
X13764834Y-16223408D01*
X13764834Y-16223408D02*
X13745787Y-16194836D01*
X13745787Y-16194836D02*
X13736263Y-16185312D01*
M02*
