M48
; DRILL file {KiCad 7.0.9} date Thu 21 Dec 2023 10:12:38 PM +08
; FORMAT={-:-/ absolute / inch / decimal}
; #@! TF.CreationDate,2023-12-21T22:12:38+08:00
; #@! TF.GenerationSoftware,Kicad,Pcbnew,7.0.9
; #@! TF.FileFunction,Plated,1,2,PTH
FMAT,2
INCH
; #@! TA.AperFunction,Plated,PTH,ViaDrill
T1C0.0118
; #@! TA.AperFunction,Plated,PTH,ComponentDrill
T2C0.0315
; #@! TA.AperFunction,Plated,PTH,ComponentDrill
T3C0.0394
; #@! TA.AperFunction,Plated,PTH,ComponentDrill
T4C0.0433
%
G90
G05
T1
X4.1Y-5.2
X4.125Y-5.225
X4.15Y-5.275
X4.175Y-5.25
X4.5Y-5.5
X4.825Y-5.225
X4.85Y-5.25
X4.875Y-5.275
X4.9Y-5.3
X4.925Y-5.325
X4.95Y-5.35
X4.975Y-5.375
X5.0Y-5.4
X5.125Y-5.025
X5.15Y-5.0
X5.175Y-4.975
X5.375Y-5.025
X5.4Y-5.0
X5.425Y-4.975
X6.1Y-5.45
X6.15Y-5.4
X6.15Y-5.5
X6.2Y-5.075
X6.2Y-5.425
X6.25Y-5.375
X6.25Y-5.5
X6.3Y-5.425
X6.325Y-5.4
X6.35Y-5.375
X6.35Y-5.5
X6.375Y-5.35
X6.4Y-5.325
X6.4Y-5.4
X6.425Y-5.3
X6.45Y-5.275
X6.45Y-5.5
X6.475Y-5.25
X6.5Y-5.225
X6.5Y-5.375
X6.55Y-5.35
X6.55Y-5.5
X6.6Y-5.4746
X6.65Y-5.325
X6.65Y-5.5
X6.7Y-5.3
X6.75Y-5.275
X6.75Y-5.5
X6.85Y-5.375
X6.85Y-5.5
X6.875Y-5.4
X6.9Y-5.425
X7.1Y-4.175
X7.1Y-4.375
X7.125Y-3.95
X7.125Y-4.775
X7.15Y-4.15
X7.15Y-4.5
X7.15Y-5.075
X7.175Y-4.0
X7.175Y-4.675
X7.175Y-5.05
X7.2Y-3.9
X7.225Y-4.125
X7.225Y-4.275
X7.55Y-5.2
X7.65Y-5.1
X7.9Y-3.5
X7.925Y-3.525
T2
X3.75Y-4.225
X3.75Y-4.325
X3.75Y-4.425
X3.75Y-4.525
X3.75Y-4.625
X3.75Y-4.725
X3.75Y-4.825
X3.8531Y-4.075
X4.05Y-4.075
X4.05Y-4.225
X4.05Y-4.325
X4.05Y-4.425
X4.05Y-4.525
X4.05Y-4.625
X4.05Y-4.725
X4.05Y-4.825
X4.25Y-4.225
X4.25Y-4.325
X4.25Y-4.425
X4.25Y-4.525
X4.25Y-4.625
X4.25Y-4.725
X4.25Y-4.825
X4.3531Y-4.075
X4.55Y-4.075
X4.55Y-4.225
X4.55Y-4.325
X4.55Y-4.425
X4.55Y-4.525
X4.55Y-4.625
X4.55Y-4.725
X4.55Y-4.825
X4.7557Y-4.225
X4.7557Y-4.325
X4.7557Y-4.425
X4.7557Y-4.525
X4.7557Y-4.625
X4.7557Y-4.725
X4.7557Y-4.825
X4.7557Y-4.925
X4.7557Y-5.025
X4.7557Y-5.125
X4.8589Y-4.075
X5.0557Y-4.075
X5.0557Y-4.225
X5.0557Y-4.325
X5.0557Y-4.425
X5.0557Y-4.525
X5.0557Y-4.625
X5.0557Y-4.725
X5.0557Y-4.825
X5.0557Y-4.925
X5.0557Y-5.025
X5.0557Y-5.125
X5.2557Y-4.225
X5.2557Y-4.325
X5.2557Y-4.425
X5.2557Y-4.525
X5.2557Y-4.625
X5.2557Y-4.725
X5.2557Y-4.825
X5.2557Y-4.925
X5.3589Y-4.075
X5.5557Y-4.075
X5.5557Y-4.225
X5.5557Y-4.325
X5.5557Y-4.425
X5.5557Y-4.525
X5.5557Y-4.625
X5.5557Y-4.725
X5.5557Y-4.825
X5.5557Y-4.925
X5.7557Y-4.225
X5.7557Y-4.325
X5.7557Y-4.425
X5.7557Y-4.525
X5.7557Y-4.625
X5.7557Y-4.725
X5.7557Y-4.825
X5.7557Y-4.925
X5.8589Y-4.075
X6.0557Y-4.075
X6.0557Y-4.225
X6.0557Y-4.325
X6.0557Y-4.425
X6.0557Y-4.525
X6.0557Y-4.625
X6.0557Y-4.725
X6.0557Y-4.825
X6.0557Y-4.925
X6.25Y-4.225
X6.25Y-4.325
X6.25Y-4.425
X6.25Y-4.525
X6.25Y-4.625
X6.25Y-4.725
X6.25Y-4.825
X6.25Y-4.925
X6.25Y-5.025
X6.25Y-5.125
X6.3589Y-4.075
X6.55Y-4.225
X6.55Y-4.325
X6.55Y-4.425
X6.55Y-4.525
X6.55Y-4.625
X6.55Y-4.725
X6.55Y-4.825
X6.55Y-4.925
X6.55Y-5.025
X6.55Y-5.125
X6.5557Y-4.075
X6.7557Y-4.225
X6.7557Y-4.325
X6.7557Y-4.425
X6.7557Y-4.525
X6.7557Y-4.625
X6.7557Y-4.725
X6.7557Y-4.825
X6.7557Y-4.925
X6.7557Y-5.025
X6.7557Y-5.125
X6.8589Y-4.075
X7.0557Y-4.075
X7.0557Y-4.225
X7.0557Y-4.325
X7.0557Y-4.425
X7.0557Y-4.525
X7.0557Y-4.625
X7.0557Y-4.725
X7.0557Y-4.825
X7.0557Y-4.925
X7.0557Y-5.025
X7.0557Y-5.125
X7.15Y-3.5
X7.2516Y-4.35
X7.2516Y-4.95
X7.3Y-4.5571
X7.3Y-4.75
X7.35Y-4.35
X7.35Y-4.95
X7.425Y-4.0516
X7.425Y-4.2484
X7.55Y-3.5
X7.55Y-3.65
X7.55Y-3.75
X7.55Y-3.85
X7.55Y-3.95
X7.55Y-4.05
X7.55Y-4.15
X7.55Y-4.25
X7.55Y-4.35
X7.55Y-4.45
X7.55Y-4.55
X7.55Y-4.65
X7.55Y-4.75
X7.55Y-4.85
X7.55Y-4.95
X7.6766Y-3.5
X7.775Y-3.5
X7.85Y-3.65
X7.85Y-3.75
X7.85Y-3.85
X7.85Y-3.95
X7.85Y-4.05
X7.85Y-4.15
X7.85Y-4.25
X7.85Y-4.35
X7.85Y-4.45
X7.85Y-4.55
X7.85Y-4.65
X7.85Y-4.75
X7.85Y-4.85
X7.85Y-4.95
X8.0Y-4.45
X8.0787Y-4.45
T3
X8.12Y-4.7
X8.12Y-4.8
X8.12Y-4.9
X8.12Y-5.0
X8.12Y-5.1
X8.12Y-5.2
X8.125Y-3.275
X8.125Y-3.375
X8.125Y-3.475
X8.125Y-3.575
X8.125Y-3.7988
X8.125Y-3.8988
X8.125Y-3.9988
X8.125Y-4.0988
X8.125Y-4.1988
T4
X7.1691Y-3.65
X7.1691Y-3.8272
X7.425Y-3.65
X7.425Y-3.8272
T0
M30
