%TF.GenerationSoftware,KiCad,Pcbnew,7.0.9*%
%TF.CreationDate,2023-12-21T22:12:41+08:00*%
%TF.ProjectId,ArduinoMultiInterface,41726475-696e-46f4-9d75-6c7469496e74,rev?*%
%TF.SameCoordinates,Original*%
%TF.FileFunction,Soldermask,Top*%
%TF.FilePolarity,Negative*%
%FSLAX46Y46*%
G04 Gerber Fmt 4.6, Leading zero omitted, Abs format (unit mm)*
G04 Created by KiCad (PCBNEW 7.0.9) date 2023-12-21 22:12:41*
%MOMM*%
%LPD*%
G01*
G04 APERTURE LIST*
%ADD10C,1.600000*%
%ADD11R,1.700000X1.700000*%
%ADD12O,1.700000X1.700000*%
%ADD13R,1.600000X1.600000*%
%ADD14O,1.600000X1.600000*%
%ADD15R,1.780000X7.620000*%
%ADD16C,1.500000*%
%ADD17C,2.000000*%
G04 APERTURE END LIST*
D10*
%TO.C,C9*%
X141115000Y-103505000D03*
X136115000Y-103505000D03*
%TD*%
D11*
%TO.C,J3*%
X206248000Y-132080000D03*
D12*
X206248000Y-129540000D03*
X206248000Y-127000000D03*
X206248000Y-124460000D03*
X206248000Y-121920000D03*
X206248000Y-119380000D03*
%TD*%
D13*
%TO.C,U7*%
X95250000Y-107315000D03*
D14*
X95250000Y-109855000D03*
X95250000Y-112395000D03*
X95250000Y-114935000D03*
X95250000Y-117475000D03*
X95250000Y-120015000D03*
X95250000Y-122555000D03*
X102870000Y-122555000D03*
X102870000Y-120015000D03*
X102870000Y-117475000D03*
X102870000Y-114935000D03*
X102870000Y-112395000D03*
X102870000Y-109855000D03*
X102870000Y-107315000D03*
%TD*%
D13*
%TO.C,U2*%
X133495000Y-107315000D03*
D14*
X133495000Y-109855000D03*
X133495000Y-112395000D03*
X133495000Y-114935000D03*
X133495000Y-117475000D03*
X133495000Y-120015000D03*
X133495000Y-122555000D03*
X133495000Y-125095000D03*
X141115000Y-125095000D03*
X141115000Y-122555000D03*
X141115000Y-120015000D03*
X141115000Y-117475000D03*
X141115000Y-114935000D03*
X141115000Y-112395000D03*
X141115000Y-109855000D03*
X141115000Y-107315000D03*
%TD*%
D10*
%TO.C,C3*%
X184190000Y-125730000D03*
X186690000Y-125730000D03*
%TD*%
%TO.C,C1*%
X197485000Y-88900000D03*
X194985000Y-88900000D03*
%TD*%
%TO.C,C11*%
X166515000Y-103505000D03*
X161515000Y-103505000D03*
%TD*%
%TO.C,C10*%
X153815000Y-103505000D03*
X148815000Y-103505000D03*
%TD*%
D13*
%TO.C,U1*%
X191770000Y-92710000D03*
D14*
X191770000Y-95250000D03*
X191770000Y-97790000D03*
X191770000Y-100330000D03*
X191770000Y-102870000D03*
X191770000Y-105410000D03*
X191770000Y-107950000D03*
X191770000Y-110490000D03*
X191770000Y-113030000D03*
X191770000Y-115570000D03*
X191770000Y-118110000D03*
X191770000Y-120650000D03*
X191770000Y-123190000D03*
X191770000Y-125730000D03*
X199390000Y-125730000D03*
X199390000Y-123190000D03*
X199390000Y-120650000D03*
X199390000Y-118110000D03*
X199390000Y-115570000D03*
X199390000Y-113030000D03*
X199390000Y-110490000D03*
X199390000Y-107950000D03*
X199390000Y-105410000D03*
X199390000Y-102870000D03*
X199390000Y-100330000D03*
X199390000Y-97790000D03*
X199390000Y-95250000D03*
X199390000Y-92710000D03*
%TD*%
D13*
%TO.C,U4*%
X158750000Y-107315000D03*
D14*
X158750000Y-109855000D03*
X158750000Y-112395000D03*
X158750000Y-114935000D03*
X158750000Y-117475000D03*
X158750000Y-120015000D03*
X158750000Y-122555000D03*
X158750000Y-125095000D03*
X158750000Y-127635000D03*
X158750000Y-130175000D03*
X166370000Y-130175000D03*
X166370000Y-127635000D03*
X166370000Y-125095000D03*
X166370000Y-122555000D03*
X166370000Y-120015000D03*
X166370000Y-117475000D03*
X166370000Y-114935000D03*
X166370000Y-112395000D03*
X166370000Y-109855000D03*
X166370000Y-107315000D03*
%TD*%
D10*
%TO.C,C8*%
X128415000Y-103505000D03*
X123415000Y-103505000D03*
%TD*%
D13*
%TO.C,U9*%
X107950000Y-107315000D03*
D14*
X107950000Y-109855000D03*
X107950000Y-112395000D03*
X107950000Y-114935000D03*
X107950000Y-117475000D03*
X107950000Y-120015000D03*
X107950000Y-122555000D03*
X115570000Y-122555000D03*
X115570000Y-120015000D03*
X115570000Y-117475000D03*
X115570000Y-114935000D03*
X115570000Y-112395000D03*
X115570000Y-109855000D03*
X115570000Y-107315000D03*
%TD*%
D13*
%TO.C,U6*%
X171595000Y-107315000D03*
D14*
X171595000Y-109855000D03*
X171595000Y-112395000D03*
X171595000Y-114935000D03*
X171595000Y-117475000D03*
X171595000Y-120015000D03*
X171595000Y-122555000D03*
X171595000Y-125095000D03*
X171595000Y-127635000D03*
X171595000Y-130175000D03*
X179215000Y-130175000D03*
X179215000Y-127635000D03*
X179215000Y-125095000D03*
X179215000Y-122555000D03*
X179215000Y-120015000D03*
X179215000Y-117475000D03*
X179215000Y-114935000D03*
X179215000Y-112395000D03*
X179215000Y-109855000D03*
X179215000Y-107315000D03*
%TD*%
D13*
%TO.C,C5*%
X203200000Y-113030000D03*
D10*
X205200000Y-113030000D03*
%TD*%
%TO.C,C13*%
X188595000Y-107910000D03*
X188595000Y-102910000D03*
%TD*%
D11*
%TO.C,J2*%
X206375000Y-90805000D03*
D12*
X206375000Y-88265000D03*
X206375000Y-85725000D03*
X206375000Y-83185000D03*
%TD*%
D10*
%TO.C,C12*%
X179215000Y-103505000D03*
X174215000Y-103505000D03*
%TD*%
D13*
%TO.C,U3*%
X146195000Y-107315000D03*
D14*
X146195000Y-109855000D03*
X146195000Y-112395000D03*
X146195000Y-114935000D03*
X146195000Y-117475000D03*
X146195000Y-120015000D03*
X146195000Y-122555000D03*
X146195000Y-125095000D03*
X153815000Y-125095000D03*
X153815000Y-122555000D03*
X153815000Y-120015000D03*
X153815000Y-117475000D03*
X153815000Y-114935000D03*
X153815000Y-112395000D03*
X153815000Y-109855000D03*
X153815000Y-107315000D03*
%TD*%
D10*
%TO.C,C7*%
X115570000Y-103505000D03*
X110570000Y-103505000D03*
%TD*%
%TO.C,C6*%
X102870000Y-103505000D03*
X97870000Y-103505000D03*
%TD*%
D15*
%TO.C,J1*%
X188391800Y-144780000D03*
X185851800Y-144780000D03*
X183311800Y-144780000D03*
X180771800Y-144780000D03*
X178231800Y-144780000D03*
X175691800Y-144780000D03*
X173151800Y-144780000D03*
X170611800Y-144780000D03*
X168071800Y-144780000D03*
X165531800Y-144780000D03*
X162991800Y-144780000D03*
X160451800Y-144780000D03*
X157911800Y-144780000D03*
X155371800Y-144780000D03*
X152831800Y-144780000D03*
X150291800Y-144780000D03*
X147751800Y-144780000D03*
X145211800Y-144780000D03*
X142671800Y-144780000D03*
X140131800Y-144780000D03*
X137591800Y-144780000D03*
X135051800Y-144780000D03*
X132511800Y-144780000D03*
X129971800Y-144780000D03*
X127431800Y-144780000D03*
X124891800Y-144780000D03*
X122351800Y-144780000D03*
X119811800Y-144780000D03*
X117271800Y-144780000D03*
X114731800Y-144780000D03*
%TD*%
D16*
%TO.C,Y1*%
X185420000Y-115750000D03*
X185420000Y-120650000D03*
%TD*%
D17*
%TO.C,SW1*%
X188595000Y-97210000D03*
X182095000Y-97210000D03*
X188595000Y-92710000D03*
X182095000Y-92710000D03*
%TD*%
D10*
%TO.C,C2*%
X184190000Y-110490000D03*
X186690000Y-110490000D03*
%TD*%
%TO.C,R1*%
X181610000Y-88900000D03*
D14*
X191770000Y-88900000D03*
%TD*%
D13*
%TO.C,U5*%
X120795000Y-107315000D03*
D14*
X120795000Y-109855000D03*
X120795000Y-112395000D03*
X120795000Y-114935000D03*
X120795000Y-117475000D03*
X120795000Y-120015000D03*
X120795000Y-122555000D03*
X120795000Y-125095000D03*
X120795000Y-127635000D03*
X120795000Y-130175000D03*
X128415000Y-130175000D03*
X128415000Y-127635000D03*
X128415000Y-125095000D03*
X128415000Y-122555000D03*
X128415000Y-120015000D03*
X128415000Y-117475000D03*
X128415000Y-114935000D03*
X128415000Y-112395000D03*
X128415000Y-109855000D03*
X128415000Y-107315000D03*
%TD*%
D11*
%TO.C,J4*%
X206375000Y-106650000D03*
D12*
X206375000Y-104110000D03*
X206375000Y-101570000D03*
X206375000Y-99030000D03*
X206375000Y-96490000D03*
%TD*%
M02*
