%TF.GenerationSoftware,KiCad,Pcbnew,7.0.9*%
%TF.CreationDate,2023-12-21T22:12:41+08:00*%
%TF.ProjectId,ArduinoMultiInterface,41726475-696e-46f4-9d75-6c7469496e74,rev?*%
%TF.SameCoordinates,Original*%
%TF.FileFunction,Legend,Top*%
%TF.FilePolarity,Positive*%
%FSLAX46Y46*%
G04 Gerber Fmt 4.6, Leading zero omitted, Abs format (unit mm)*
G04 Created by KiCad (PCBNEW 7.0.9) date 2023-12-21 22:12:41*
%MOMM*%
%LPD*%
G01*
G04 APERTURE LIST*
%ADD10C,0.150000*%
%ADD11C,0.300000*%
%ADD12C,0.120000*%
G04 APERTURE END LIST*
D10*
X186344160Y-136744104D02*
X186820350Y-136744104D01*
X186248922Y-137029819D02*
X186582255Y-136029819D01*
X186582255Y-136029819D02*
X186915588Y-137029819D01*
X187248922Y-137029819D02*
X187248922Y-136363152D01*
X187248922Y-136553628D02*
X187296541Y-136458390D01*
X187296541Y-136458390D02*
X187344160Y-136410771D01*
X187344160Y-136410771D02*
X187439398Y-136363152D01*
X187439398Y-136363152D02*
X187534636Y-136363152D01*
X188296541Y-137029819D02*
X188296541Y-136029819D01*
X188296541Y-136982200D02*
X188201303Y-137029819D01*
X188201303Y-137029819D02*
X188010827Y-137029819D01*
X188010827Y-137029819D02*
X187915589Y-136982200D01*
X187915589Y-136982200D02*
X187867970Y-136934580D01*
X187867970Y-136934580D02*
X187820351Y-136839342D01*
X187820351Y-136839342D02*
X187820351Y-136553628D01*
X187820351Y-136553628D02*
X187867970Y-136458390D01*
X187867970Y-136458390D02*
X187915589Y-136410771D01*
X187915589Y-136410771D02*
X188010827Y-136363152D01*
X188010827Y-136363152D02*
X188201303Y-136363152D01*
X188201303Y-136363152D02*
X188296541Y-136410771D01*
X189201303Y-136363152D02*
X189201303Y-137029819D01*
X188772732Y-136363152D02*
X188772732Y-136886961D01*
X188772732Y-136886961D02*
X188820351Y-136982200D01*
X188820351Y-136982200D02*
X188915589Y-137029819D01*
X188915589Y-137029819D02*
X189058446Y-137029819D01*
X189058446Y-137029819D02*
X189153684Y-136982200D01*
X189153684Y-136982200D02*
X189201303Y-136934580D01*
X189677494Y-137029819D02*
X189677494Y-136363152D01*
X189677494Y-136029819D02*
X189629875Y-136077438D01*
X189629875Y-136077438D02*
X189677494Y-136125057D01*
X189677494Y-136125057D02*
X189725113Y-136077438D01*
X189725113Y-136077438D02*
X189677494Y-136029819D01*
X189677494Y-136029819D02*
X189677494Y-136125057D01*
X190153684Y-136363152D02*
X190153684Y-137029819D01*
X190153684Y-136458390D02*
X190201303Y-136410771D01*
X190201303Y-136410771D02*
X190296541Y-136363152D01*
X190296541Y-136363152D02*
X190439398Y-136363152D01*
X190439398Y-136363152D02*
X190534636Y-136410771D01*
X190534636Y-136410771D02*
X190582255Y-136506009D01*
X190582255Y-136506009D02*
X190582255Y-137029819D01*
X191201303Y-137029819D02*
X191106065Y-136982200D01*
X191106065Y-136982200D02*
X191058446Y-136934580D01*
X191058446Y-136934580D02*
X191010827Y-136839342D01*
X191010827Y-136839342D02*
X191010827Y-136553628D01*
X191010827Y-136553628D02*
X191058446Y-136458390D01*
X191058446Y-136458390D02*
X191106065Y-136410771D01*
X191106065Y-136410771D02*
X191201303Y-136363152D01*
X191201303Y-136363152D02*
X191344160Y-136363152D01*
X191344160Y-136363152D02*
X191439398Y-136410771D01*
X191439398Y-136410771D02*
X191487017Y-136458390D01*
X191487017Y-136458390D02*
X191534636Y-136553628D01*
X191534636Y-136553628D02*
X191534636Y-136839342D01*
X191534636Y-136839342D02*
X191487017Y-136934580D01*
X191487017Y-136934580D02*
X191439398Y-136982200D01*
X191439398Y-136982200D02*
X191344160Y-137029819D01*
X191344160Y-137029819D02*
X191201303Y-137029819D01*
X192725113Y-137029819D02*
X192725113Y-136029819D01*
X192725113Y-136029819D02*
X193058446Y-136744104D01*
X193058446Y-136744104D02*
X193391779Y-136029819D01*
X193391779Y-136029819D02*
X193391779Y-137029819D01*
X194296541Y-136363152D02*
X194296541Y-137029819D01*
X193867970Y-136363152D02*
X193867970Y-136886961D01*
X193867970Y-136886961D02*
X193915589Y-136982200D01*
X193915589Y-136982200D02*
X194010827Y-137029819D01*
X194010827Y-137029819D02*
X194153684Y-137029819D01*
X194153684Y-137029819D02*
X194248922Y-136982200D01*
X194248922Y-136982200D02*
X194296541Y-136934580D01*
X194915589Y-137029819D02*
X194820351Y-136982200D01*
X194820351Y-136982200D02*
X194772732Y-136886961D01*
X194772732Y-136886961D02*
X194772732Y-136029819D01*
X195153685Y-136363152D02*
X195534637Y-136363152D01*
X195296542Y-136029819D02*
X195296542Y-136886961D01*
X195296542Y-136886961D02*
X195344161Y-136982200D01*
X195344161Y-136982200D02*
X195439399Y-137029819D01*
X195439399Y-137029819D02*
X195534637Y-137029819D01*
X195867971Y-137029819D02*
X195867971Y-136363152D01*
X195867971Y-136029819D02*
X195820352Y-136077438D01*
X195820352Y-136077438D02*
X195867971Y-136125057D01*
X195867971Y-136125057D02*
X195915590Y-136077438D01*
X195915590Y-136077438D02*
X195867971Y-136029819D01*
X195867971Y-136029819D02*
X195867971Y-136125057D01*
X196344161Y-136648866D02*
X197106066Y-136648866D01*
X197582256Y-137029819D02*
X197582256Y-136029819D01*
X198058446Y-136363152D02*
X198058446Y-137029819D01*
X198058446Y-136458390D02*
X198106065Y-136410771D01*
X198106065Y-136410771D02*
X198201303Y-136363152D01*
X198201303Y-136363152D02*
X198344160Y-136363152D01*
X198344160Y-136363152D02*
X198439398Y-136410771D01*
X198439398Y-136410771D02*
X198487017Y-136506009D01*
X198487017Y-136506009D02*
X198487017Y-137029819D01*
X198820351Y-136363152D02*
X199201303Y-136363152D01*
X198963208Y-136029819D02*
X198963208Y-136886961D01*
X198963208Y-136886961D02*
X199010827Y-136982200D01*
X199010827Y-136982200D02*
X199106065Y-137029819D01*
X199106065Y-137029819D02*
X199201303Y-137029819D01*
X199915589Y-136982200D02*
X199820351Y-137029819D01*
X199820351Y-137029819D02*
X199629875Y-137029819D01*
X199629875Y-137029819D02*
X199534637Y-136982200D01*
X199534637Y-136982200D02*
X199487018Y-136886961D01*
X199487018Y-136886961D02*
X199487018Y-136506009D01*
X199487018Y-136506009D02*
X199534637Y-136410771D01*
X199534637Y-136410771D02*
X199629875Y-136363152D01*
X199629875Y-136363152D02*
X199820351Y-136363152D01*
X199820351Y-136363152D02*
X199915589Y-136410771D01*
X199915589Y-136410771D02*
X199963208Y-136506009D01*
X199963208Y-136506009D02*
X199963208Y-136601247D01*
X199963208Y-136601247D02*
X199487018Y-136696485D01*
X200391780Y-137029819D02*
X200391780Y-136363152D01*
X200391780Y-136553628D02*
X200439399Y-136458390D01*
X200439399Y-136458390D02*
X200487018Y-136410771D01*
X200487018Y-136410771D02*
X200582256Y-136363152D01*
X200582256Y-136363152D02*
X200677494Y-136363152D01*
X200867971Y-136363152D02*
X201248923Y-136363152D01*
X201010828Y-137029819D02*
X201010828Y-136172676D01*
X201010828Y-136172676D02*
X201058447Y-136077438D01*
X201058447Y-136077438D02*
X201153685Y-136029819D01*
X201153685Y-136029819D02*
X201248923Y-136029819D01*
X202010828Y-137029819D02*
X202010828Y-136506009D01*
X202010828Y-136506009D02*
X201963209Y-136410771D01*
X201963209Y-136410771D02*
X201867971Y-136363152D01*
X201867971Y-136363152D02*
X201677495Y-136363152D01*
X201677495Y-136363152D02*
X201582257Y-136410771D01*
X202010828Y-136982200D02*
X201915590Y-137029819D01*
X201915590Y-137029819D02*
X201677495Y-137029819D01*
X201677495Y-137029819D02*
X201582257Y-136982200D01*
X201582257Y-136982200D02*
X201534638Y-136886961D01*
X201534638Y-136886961D02*
X201534638Y-136791723D01*
X201534638Y-136791723D02*
X201582257Y-136696485D01*
X201582257Y-136696485D02*
X201677495Y-136648866D01*
X201677495Y-136648866D02*
X201915590Y-136648866D01*
X201915590Y-136648866D02*
X202010828Y-136601247D01*
X202915590Y-136982200D02*
X202820352Y-137029819D01*
X202820352Y-137029819D02*
X202629876Y-137029819D01*
X202629876Y-137029819D02*
X202534638Y-136982200D01*
X202534638Y-136982200D02*
X202487019Y-136934580D01*
X202487019Y-136934580D02*
X202439400Y-136839342D01*
X202439400Y-136839342D02*
X202439400Y-136553628D01*
X202439400Y-136553628D02*
X202487019Y-136458390D01*
X202487019Y-136458390D02*
X202534638Y-136410771D01*
X202534638Y-136410771D02*
X202629876Y-136363152D01*
X202629876Y-136363152D02*
X202820352Y-136363152D01*
X202820352Y-136363152D02*
X202915590Y-136410771D01*
X203725114Y-136982200D02*
X203629876Y-137029819D01*
X203629876Y-137029819D02*
X203439400Y-137029819D01*
X203439400Y-137029819D02*
X203344162Y-136982200D01*
X203344162Y-136982200D02*
X203296543Y-136886961D01*
X203296543Y-136886961D02*
X203296543Y-136506009D01*
X203296543Y-136506009D02*
X203344162Y-136410771D01*
X203344162Y-136410771D02*
X203439400Y-136363152D01*
X203439400Y-136363152D02*
X203629876Y-136363152D01*
X203629876Y-136363152D02*
X203725114Y-136410771D01*
X203725114Y-136410771D02*
X203772733Y-136506009D01*
X203772733Y-136506009D02*
X203772733Y-136601247D01*
X203772733Y-136601247D02*
X203296543Y-136696485D01*
X204867972Y-136363152D02*
X205106067Y-137029819D01*
X205106067Y-137029819D02*
X205344162Y-136363152D01*
X206248924Y-137029819D02*
X205677496Y-137029819D01*
X205963210Y-137029819D02*
X205963210Y-136029819D01*
X205963210Y-136029819D02*
X205867972Y-136172676D01*
X205867972Y-136172676D02*
X205772734Y-136267914D01*
X205772734Y-136267914D02*
X205677496Y-136315533D01*
X202060398Y-83642200D02*
X202203255Y-83689819D01*
X202203255Y-83689819D02*
X202441350Y-83689819D01*
X202441350Y-83689819D02*
X202536588Y-83642200D01*
X202536588Y-83642200D02*
X202584207Y-83594580D01*
X202584207Y-83594580D02*
X202631826Y-83499342D01*
X202631826Y-83499342D02*
X202631826Y-83404104D01*
X202631826Y-83404104D02*
X202584207Y-83308866D01*
X202584207Y-83308866D02*
X202536588Y-83261247D01*
X202536588Y-83261247D02*
X202441350Y-83213628D01*
X202441350Y-83213628D02*
X202250874Y-83166009D01*
X202250874Y-83166009D02*
X202155636Y-83118390D01*
X202155636Y-83118390D02*
X202108017Y-83070771D01*
X202108017Y-83070771D02*
X202060398Y-82975533D01*
X202060398Y-82975533D02*
X202060398Y-82880295D01*
X202060398Y-82880295D02*
X202108017Y-82785057D01*
X202108017Y-82785057D02*
X202155636Y-82737438D01*
X202155636Y-82737438D02*
X202250874Y-82689819D01*
X202250874Y-82689819D02*
X202488969Y-82689819D01*
X202488969Y-82689819D02*
X202631826Y-82737438D01*
X203631826Y-83594580D02*
X203584207Y-83642200D01*
X203584207Y-83642200D02*
X203441350Y-83689819D01*
X203441350Y-83689819D02*
X203346112Y-83689819D01*
X203346112Y-83689819D02*
X203203255Y-83642200D01*
X203203255Y-83642200D02*
X203108017Y-83546961D01*
X203108017Y-83546961D02*
X203060398Y-83451723D01*
X203060398Y-83451723D02*
X203012779Y-83261247D01*
X203012779Y-83261247D02*
X203012779Y-83118390D01*
X203012779Y-83118390D02*
X203060398Y-82927914D01*
X203060398Y-82927914D02*
X203108017Y-82832676D01*
X203108017Y-82832676D02*
X203203255Y-82737438D01*
X203203255Y-82737438D02*
X203346112Y-82689819D01*
X203346112Y-82689819D02*
X203441350Y-82689819D01*
X203441350Y-82689819D02*
X203584207Y-82737438D01*
X203584207Y-82737438D02*
X203631826Y-82785057D01*
X204536588Y-83689819D02*
X204060398Y-83689819D01*
X204060398Y-83689819D02*
X204060398Y-82689819D01*
X201250875Y-122424819D02*
X201250875Y-121424819D01*
X201250875Y-121424819D02*
X201584208Y-122139104D01*
X201584208Y-122139104D02*
X201917541Y-121424819D01*
X201917541Y-121424819D02*
X201917541Y-122424819D01*
X202393732Y-122424819D02*
X202393732Y-121424819D01*
X202822303Y-122377200D02*
X202965160Y-122424819D01*
X202965160Y-122424819D02*
X203203255Y-122424819D01*
X203203255Y-122424819D02*
X203298493Y-122377200D01*
X203298493Y-122377200D02*
X203346112Y-122329580D01*
X203346112Y-122329580D02*
X203393731Y-122234342D01*
X203393731Y-122234342D02*
X203393731Y-122139104D01*
X203393731Y-122139104D02*
X203346112Y-122043866D01*
X203346112Y-122043866D02*
X203298493Y-121996247D01*
X203298493Y-121996247D02*
X203203255Y-121948628D01*
X203203255Y-121948628D02*
X203012779Y-121901009D01*
X203012779Y-121901009D02*
X202917541Y-121853390D01*
X202917541Y-121853390D02*
X202869922Y-121805771D01*
X202869922Y-121805771D02*
X202822303Y-121710533D01*
X202822303Y-121710533D02*
X202822303Y-121615295D01*
X202822303Y-121615295D02*
X202869922Y-121520057D01*
X202869922Y-121520057D02*
X202917541Y-121472438D01*
X202917541Y-121472438D02*
X203012779Y-121424819D01*
X203012779Y-121424819D02*
X203250874Y-121424819D01*
X203250874Y-121424819D02*
X203393731Y-121472438D01*
X204012779Y-121424819D02*
X204203255Y-121424819D01*
X204203255Y-121424819D02*
X204298493Y-121472438D01*
X204298493Y-121472438D02*
X204393731Y-121567676D01*
X204393731Y-121567676D02*
X204441350Y-121758152D01*
X204441350Y-121758152D02*
X204441350Y-122091485D01*
X204441350Y-122091485D02*
X204393731Y-122281961D01*
X204393731Y-122281961D02*
X204298493Y-122377200D01*
X204298493Y-122377200D02*
X204203255Y-122424819D01*
X204203255Y-122424819D02*
X204012779Y-122424819D01*
X204012779Y-122424819D02*
X203917541Y-122377200D01*
X203917541Y-122377200D02*
X203822303Y-122281961D01*
X203822303Y-122281961D02*
X203774684Y-122091485D01*
X203774684Y-122091485D02*
X203774684Y-121758152D01*
X203774684Y-121758152D02*
X203822303Y-121567676D01*
X203822303Y-121567676D02*
X203917541Y-121472438D01*
X203917541Y-121472438D02*
X204012779Y-121424819D01*
X203012779Y-100977819D02*
X203584207Y-100977819D01*
X203298493Y-101977819D02*
X203298493Y-100977819D01*
X203822303Y-100977819D02*
X204488969Y-101977819D01*
X204488969Y-100977819D02*
X203822303Y-101977819D01*
X201869922Y-131584819D02*
X202203255Y-132584819D01*
X202203255Y-132584819D02*
X202536588Y-131584819D01*
X203441350Y-132489580D02*
X203393731Y-132537200D01*
X203393731Y-132537200D02*
X203250874Y-132584819D01*
X203250874Y-132584819D02*
X203155636Y-132584819D01*
X203155636Y-132584819D02*
X203012779Y-132537200D01*
X203012779Y-132537200D02*
X202917541Y-132441961D01*
X202917541Y-132441961D02*
X202869922Y-132346723D01*
X202869922Y-132346723D02*
X202822303Y-132156247D01*
X202822303Y-132156247D02*
X202822303Y-132013390D01*
X202822303Y-132013390D02*
X202869922Y-131822914D01*
X202869922Y-131822914D02*
X202917541Y-131727676D01*
X202917541Y-131727676D02*
X203012779Y-131632438D01*
X203012779Y-131632438D02*
X203155636Y-131584819D01*
X203155636Y-131584819D02*
X203250874Y-131584819D01*
X203250874Y-131584819D02*
X203393731Y-131632438D01*
X203393731Y-131632438D02*
X203441350Y-131680057D01*
X204441350Y-132489580D02*
X204393731Y-132537200D01*
X204393731Y-132537200D02*
X204250874Y-132584819D01*
X204250874Y-132584819D02*
X204155636Y-132584819D01*
X204155636Y-132584819D02*
X204012779Y-132537200D01*
X204012779Y-132537200D02*
X203917541Y-132441961D01*
X203917541Y-132441961D02*
X203869922Y-132346723D01*
X203869922Y-132346723D02*
X203822303Y-132156247D01*
X203822303Y-132156247D02*
X203822303Y-132013390D01*
X203822303Y-132013390D02*
X203869922Y-131822914D01*
X203869922Y-131822914D02*
X203917541Y-131727676D01*
X203917541Y-131727676D02*
X204012779Y-131632438D01*
X204012779Y-131632438D02*
X204155636Y-131584819D01*
X204155636Y-131584819D02*
X204250874Y-131584819D01*
X204250874Y-131584819D02*
X204393731Y-131632438D01*
X204393731Y-131632438D02*
X204441350Y-131680057D01*
X201869922Y-106184819D02*
X202203255Y-107184819D01*
X202203255Y-107184819D02*
X202536588Y-106184819D01*
X203441350Y-107089580D02*
X203393731Y-107137200D01*
X203393731Y-107137200D02*
X203250874Y-107184819D01*
X203250874Y-107184819D02*
X203155636Y-107184819D01*
X203155636Y-107184819D02*
X203012779Y-107137200D01*
X203012779Y-107137200D02*
X202917541Y-107041961D01*
X202917541Y-107041961D02*
X202869922Y-106946723D01*
X202869922Y-106946723D02*
X202822303Y-106756247D01*
X202822303Y-106756247D02*
X202822303Y-106613390D01*
X202822303Y-106613390D02*
X202869922Y-106422914D01*
X202869922Y-106422914D02*
X202917541Y-106327676D01*
X202917541Y-106327676D02*
X203012779Y-106232438D01*
X203012779Y-106232438D02*
X203155636Y-106184819D01*
X203155636Y-106184819D02*
X203250874Y-106184819D01*
X203250874Y-106184819D02*
X203393731Y-106232438D01*
X203393731Y-106232438D02*
X203441350Y-106280057D01*
X204441350Y-107089580D02*
X204393731Y-107137200D01*
X204393731Y-107137200D02*
X204250874Y-107184819D01*
X204250874Y-107184819D02*
X204155636Y-107184819D01*
X204155636Y-107184819D02*
X204012779Y-107137200D01*
X204012779Y-107137200D02*
X203917541Y-107041961D01*
X203917541Y-107041961D02*
X203869922Y-106946723D01*
X203869922Y-106946723D02*
X203822303Y-106756247D01*
X203822303Y-106756247D02*
X203822303Y-106613390D01*
X203822303Y-106613390D02*
X203869922Y-106422914D01*
X203869922Y-106422914D02*
X203917541Y-106327676D01*
X203917541Y-106327676D02*
X204012779Y-106232438D01*
X204012779Y-106232438D02*
X204155636Y-106184819D01*
X204155636Y-106184819D02*
X204250874Y-106184819D01*
X204250874Y-106184819D02*
X204393731Y-106232438D01*
X204393731Y-106232438D02*
X204441350Y-106280057D01*
X202346112Y-129092438D02*
X202250874Y-129044819D01*
X202250874Y-129044819D02*
X202108017Y-129044819D01*
X202108017Y-129044819D02*
X201965160Y-129092438D01*
X201965160Y-129092438D02*
X201869922Y-129187676D01*
X201869922Y-129187676D02*
X201822303Y-129282914D01*
X201822303Y-129282914D02*
X201774684Y-129473390D01*
X201774684Y-129473390D02*
X201774684Y-129616247D01*
X201774684Y-129616247D02*
X201822303Y-129806723D01*
X201822303Y-129806723D02*
X201869922Y-129901961D01*
X201869922Y-129901961D02*
X201965160Y-129997200D01*
X201965160Y-129997200D02*
X202108017Y-130044819D01*
X202108017Y-130044819D02*
X202203255Y-130044819D01*
X202203255Y-130044819D02*
X202346112Y-129997200D01*
X202346112Y-129997200D02*
X202393731Y-129949580D01*
X202393731Y-129949580D02*
X202393731Y-129616247D01*
X202393731Y-129616247D02*
X202203255Y-129616247D01*
X202822303Y-130044819D02*
X202822303Y-129044819D01*
X202822303Y-129044819D02*
X203393731Y-130044819D01*
X203393731Y-130044819D02*
X203393731Y-129044819D01*
X203869922Y-130044819D02*
X203869922Y-129044819D01*
X203869922Y-129044819D02*
X204108017Y-129044819D01*
X204108017Y-129044819D02*
X204250874Y-129092438D01*
X204250874Y-129092438D02*
X204346112Y-129187676D01*
X204346112Y-129187676D02*
X204393731Y-129282914D01*
X204393731Y-129282914D02*
X204441350Y-129473390D01*
X204441350Y-129473390D02*
X204441350Y-129616247D01*
X204441350Y-129616247D02*
X204393731Y-129806723D01*
X204393731Y-129806723D02*
X204346112Y-129901961D01*
X204346112Y-129901961D02*
X204250874Y-129997200D01*
X204250874Y-129997200D02*
X204108017Y-130044819D01*
X204108017Y-130044819D02*
X203869922Y-130044819D01*
X203488969Y-127409580D02*
X203441350Y-127457200D01*
X203441350Y-127457200D02*
X203298493Y-127504819D01*
X203298493Y-127504819D02*
X203203255Y-127504819D01*
X203203255Y-127504819D02*
X203060398Y-127457200D01*
X203060398Y-127457200D02*
X202965160Y-127361961D01*
X202965160Y-127361961D02*
X202917541Y-127266723D01*
X202917541Y-127266723D02*
X202869922Y-127076247D01*
X202869922Y-127076247D02*
X202869922Y-126933390D01*
X202869922Y-126933390D02*
X202917541Y-126742914D01*
X202917541Y-126742914D02*
X202965160Y-126647676D01*
X202965160Y-126647676D02*
X203060398Y-126552438D01*
X203060398Y-126552438D02*
X203203255Y-126504819D01*
X203203255Y-126504819D02*
X203298493Y-126504819D01*
X203298493Y-126504819D02*
X203441350Y-126552438D01*
X203441350Y-126552438D02*
X203488969Y-126600057D01*
X203869922Y-127457200D02*
X204012779Y-127504819D01*
X204012779Y-127504819D02*
X204250874Y-127504819D01*
X204250874Y-127504819D02*
X204346112Y-127457200D01*
X204346112Y-127457200D02*
X204393731Y-127409580D01*
X204393731Y-127409580D02*
X204441350Y-127314342D01*
X204441350Y-127314342D02*
X204441350Y-127219104D01*
X204441350Y-127219104D02*
X204393731Y-127123866D01*
X204393731Y-127123866D02*
X204346112Y-127076247D01*
X204346112Y-127076247D02*
X204250874Y-127028628D01*
X204250874Y-127028628D02*
X204060398Y-126981009D01*
X204060398Y-126981009D02*
X203965160Y-126933390D01*
X203965160Y-126933390D02*
X203917541Y-126885771D01*
X203917541Y-126885771D02*
X203869922Y-126790533D01*
X203869922Y-126790533D02*
X203869922Y-126695295D01*
X203869922Y-126695295D02*
X203917541Y-126600057D01*
X203917541Y-126600057D02*
X203965160Y-126552438D01*
X203965160Y-126552438D02*
X204060398Y-126504819D01*
X204060398Y-126504819D02*
X204298493Y-126504819D01*
X204298493Y-126504819D02*
X204441350Y-126552438D01*
X201869922Y-119837200D02*
X202012779Y-119884819D01*
X202012779Y-119884819D02*
X202250874Y-119884819D01*
X202250874Y-119884819D02*
X202346112Y-119837200D01*
X202346112Y-119837200D02*
X202393731Y-119789580D01*
X202393731Y-119789580D02*
X202441350Y-119694342D01*
X202441350Y-119694342D02*
X202441350Y-119599104D01*
X202441350Y-119599104D02*
X202393731Y-119503866D01*
X202393731Y-119503866D02*
X202346112Y-119456247D01*
X202346112Y-119456247D02*
X202250874Y-119408628D01*
X202250874Y-119408628D02*
X202060398Y-119361009D01*
X202060398Y-119361009D02*
X201965160Y-119313390D01*
X201965160Y-119313390D02*
X201917541Y-119265771D01*
X201917541Y-119265771D02*
X201869922Y-119170533D01*
X201869922Y-119170533D02*
X201869922Y-119075295D01*
X201869922Y-119075295D02*
X201917541Y-118980057D01*
X201917541Y-118980057D02*
X201965160Y-118932438D01*
X201965160Y-118932438D02*
X202060398Y-118884819D01*
X202060398Y-118884819D02*
X202298493Y-118884819D01*
X202298493Y-118884819D02*
X202441350Y-118932438D01*
X203441350Y-119789580D02*
X203393731Y-119837200D01*
X203393731Y-119837200D02*
X203250874Y-119884819D01*
X203250874Y-119884819D02*
X203155636Y-119884819D01*
X203155636Y-119884819D02*
X203012779Y-119837200D01*
X203012779Y-119837200D02*
X202917541Y-119741961D01*
X202917541Y-119741961D02*
X202869922Y-119646723D01*
X202869922Y-119646723D02*
X202822303Y-119456247D01*
X202822303Y-119456247D02*
X202822303Y-119313390D01*
X202822303Y-119313390D02*
X202869922Y-119122914D01*
X202869922Y-119122914D02*
X202917541Y-119027676D01*
X202917541Y-119027676D02*
X203012779Y-118932438D01*
X203012779Y-118932438D02*
X203155636Y-118884819D01*
X203155636Y-118884819D02*
X203250874Y-118884819D01*
X203250874Y-118884819D02*
X203393731Y-118932438D01*
X203393731Y-118932438D02*
X203441350Y-118980057D01*
X203869922Y-119884819D02*
X203869922Y-118884819D01*
X204441350Y-119884819D02*
X204012779Y-119313390D01*
X204441350Y-118884819D02*
X203869922Y-119456247D01*
X202346112Y-103692438D02*
X202250874Y-103644819D01*
X202250874Y-103644819D02*
X202108017Y-103644819D01*
X202108017Y-103644819D02*
X201965160Y-103692438D01*
X201965160Y-103692438D02*
X201869922Y-103787676D01*
X201869922Y-103787676D02*
X201822303Y-103882914D01*
X201822303Y-103882914D02*
X201774684Y-104073390D01*
X201774684Y-104073390D02*
X201774684Y-104216247D01*
X201774684Y-104216247D02*
X201822303Y-104406723D01*
X201822303Y-104406723D02*
X201869922Y-104501961D01*
X201869922Y-104501961D02*
X201965160Y-104597200D01*
X201965160Y-104597200D02*
X202108017Y-104644819D01*
X202108017Y-104644819D02*
X202203255Y-104644819D01*
X202203255Y-104644819D02*
X202346112Y-104597200D01*
X202346112Y-104597200D02*
X202393731Y-104549580D01*
X202393731Y-104549580D02*
X202393731Y-104216247D01*
X202393731Y-104216247D02*
X202203255Y-104216247D01*
X202822303Y-104644819D02*
X202822303Y-103644819D01*
X202822303Y-103644819D02*
X203393731Y-104644819D01*
X203393731Y-104644819D02*
X203393731Y-103644819D01*
X203869922Y-104644819D02*
X203869922Y-103644819D01*
X203869922Y-103644819D02*
X204108017Y-103644819D01*
X204108017Y-103644819D02*
X204250874Y-103692438D01*
X204250874Y-103692438D02*
X204346112Y-103787676D01*
X204346112Y-103787676D02*
X204393731Y-103882914D01*
X204393731Y-103882914D02*
X204441350Y-104073390D01*
X204441350Y-104073390D02*
X204441350Y-104216247D01*
X204441350Y-104216247D02*
X204393731Y-104406723D01*
X204393731Y-104406723D02*
X204346112Y-104501961D01*
X204346112Y-104501961D02*
X204250874Y-104597200D01*
X204250874Y-104597200D02*
X204108017Y-104644819D01*
X204108017Y-104644819D02*
X203869922Y-104644819D01*
X202727064Y-97024819D02*
X202393731Y-96548628D01*
X202155636Y-97024819D02*
X202155636Y-96024819D01*
X202155636Y-96024819D02*
X202536588Y-96024819D01*
X202536588Y-96024819D02*
X202631826Y-96072438D01*
X202631826Y-96072438D02*
X202679445Y-96120057D01*
X202679445Y-96120057D02*
X202727064Y-96215295D01*
X202727064Y-96215295D02*
X202727064Y-96358152D01*
X202727064Y-96358152D02*
X202679445Y-96453390D01*
X202679445Y-96453390D02*
X202631826Y-96501009D01*
X202631826Y-96501009D02*
X202536588Y-96548628D01*
X202536588Y-96548628D02*
X202155636Y-96548628D01*
X203108017Y-96977200D02*
X203250874Y-97024819D01*
X203250874Y-97024819D02*
X203488969Y-97024819D01*
X203488969Y-97024819D02*
X203584207Y-96977200D01*
X203584207Y-96977200D02*
X203631826Y-96929580D01*
X203631826Y-96929580D02*
X203679445Y-96834342D01*
X203679445Y-96834342D02*
X203679445Y-96739104D01*
X203679445Y-96739104D02*
X203631826Y-96643866D01*
X203631826Y-96643866D02*
X203584207Y-96596247D01*
X203584207Y-96596247D02*
X203488969Y-96548628D01*
X203488969Y-96548628D02*
X203298493Y-96501009D01*
X203298493Y-96501009D02*
X203203255Y-96453390D01*
X203203255Y-96453390D02*
X203155636Y-96405771D01*
X203155636Y-96405771D02*
X203108017Y-96310533D01*
X203108017Y-96310533D02*
X203108017Y-96215295D01*
X203108017Y-96215295D02*
X203155636Y-96120057D01*
X203155636Y-96120057D02*
X203203255Y-96072438D01*
X203203255Y-96072438D02*
X203298493Y-96024819D01*
X203298493Y-96024819D02*
X203536588Y-96024819D01*
X203536588Y-96024819D02*
X203679445Y-96072438D01*
X203965160Y-96024819D02*
X204536588Y-96024819D01*
X204250874Y-97024819D02*
X204250874Y-96024819D01*
X201869922Y-90309819D02*
X202203255Y-91309819D01*
X202203255Y-91309819D02*
X202536588Y-90309819D01*
X203441350Y-91214580D02*
X203393731Y-91262200D01*
X203393731Y-91262200D02*
X203250874Y-91309819D01*
X203250874Y-91309819D02*
X203155636Y-91309819D01*
X203155636Y-91309819D02*
X203012779Y-91262200D01*
X203012779Y-91262200D02*
X202917541Y-91166961D01*
X202917541Y-91166961D02*
X202869922Y-91071723D01*
X202869922Y-91071723D02*
X202822303Y-90881247D01*
X202822303Y-90881247D02*
X202822303Y-90738390D01*
X202822303Y-90738390D02*
X202869922Y-90547914D01*
X202869922Y-90547914D02*
X202917541Y-90452676D01*
X202917541Y-90452676D02*
X203012779Y-90357438D01*
X203012779Y-90357438D02*
X203155636Y-90309819D01*
X203155636Y-90309819D02*
X203250874Y-90309819D01*
X203250874Y-90309819D02*
X203393731Y-90357438D01*
X203393731Y-90357438D02*
X203441350Y-90405057D01*
X204441350Y-91214580D02*
X204393731Y-91262200D01*
X204393731Y-91262200D02*
X204250874Y-91309819D01*
X204250874Y-91309819D02*
X204155636Y-91309819D01*
X204155636Y-91309819D02*
X204012779Y-91262200D01*
X204012779Y-91262200D02*
X203917541Y-91166961D01*
X203917541Y-91166961D02*
X203869922Y-91071723D01*
X203869922Y-91071723D02*
X203822303Y-90881247D01*
X203822303Y-90881247D02*
X203822303Y-90738390D01*
X203822303Y-90738390D02*
X203869922Y-90547914D01*
X203869922Y-90547914D02*
X203917541Y-90452676D01*
X203917541Y-90452676D02*
X204012779Y-90357438D01*
X204012779Y-90357438D02*
X204155636Y-90309819D01*
X204155636Y-90309819D02*
X204250874Y-90309819D01*
X204250874Y-90309819D02*
X204393731Y-90357438D01*
X204393731Y-90357438D02*
X204441350Y-90405057D01*
X201250875Y-124964819D02*
X201250875Y-123964819D01*
X201250875Y-123964819D02*
X201584208Y-124679104D01*
X201584208Y-124679104D02*
X201917541Y-123964819D01*
X201917541Y-123964819D02*
X201917541Y-124964819D01*
X202584208Y-123964819D02*
X202774684Y-123964819D01*
X202774684Y-123964819D02*
X202869922Y-124012438D01*
X202869922Y-124012438D02*
X202965160Y-124107676D01*
X202965160Y-124107676D02*
X203012779Y-124298152D01*
X203012779Y-124298152D02*
X203012779Y-124631485D01*
X203012779Y-124631485D02*
X202965160Y-124821961D01*
X202965160Y-124821961D02*
X202869922Y-124917200D01*
X202869922Y-124917200D02*
X202774684Y-124964819D01*
X202774684Y-124964819D02*
X202584208Y-124964819D01*
X202584208Y-124964819D02*
X202488970Y-124917200D01*
X202488970Y-124917200D02*
X202393732Y-124821961D01*
X202393732Y-124821961D02*
X202346113Y-124631485D01*
X202346113Y-124631485D02*
X202346113Y-124298152D01*
X202346113Y-124298152D02*
X202393732Y-124107676D01*
X202393732Y-124107676D02*
X202488970Y-124012438D01*
X202488970Y-124012438D02*
X202584208Y-123964819D01*
X203393732Y-124917200D02*
X203536589Y-124964819D01*
X203536589Y-124964819D02*
X203774684Y-124964819D01*
X203774684Y-124964819D02*
X203869922Y-124917200D01*
X203869922Y-124917200D02*
X203917541Y-124869580D01*
X203917541Y-124869580D02*
X203965160Y-124774342D01*
X203965160Y-124774342D02*
X203965160Y-124679104D01*
X203965160Y-124679104D02*
X203917541Y-124583866D01*
X203917541Y-124583866D02*
X203869922Y-124536247D01*
X203869922Y-124536247D02*
X203774684Y-124488628D01*
X203774684Y-124488628D02*
X203584208Y-124441009D01*
X203584208Y-124441009D02*
X203488970Y-124393390D01*
X203488970Y-124393390D02*
X203441351Y-124345771D01*
X203441351Y-124345771D02*
X203393732Y-124250533D01*
X203393732Y-124250533D02*
X203393732Y-124155295D01*
X203393732Y-124155295D02*
X203441351Y-124060057D01*
X203441351Y-124060057D02*
X203488970Y-124012438D01*
X203488970Y-124012438D02*
X203584208Y-123964819D01*
X203584208Y-123964819D02*
X203822303Y-123964819D01*
X203822303Y-123964819D02*
X203965160Y-124012438D01*
X204393732Y-124964819D02*
X204393732Y-123964819D01*
X202012779Y-86182200D02*
X202155636Y-86229819D01*
X202155636Y-86229819D02*
X202393731Y-86229819D01*
X202393731Y-86229819D02*
X202488969Y-86182200D01*
X202488969Y-86182200D02*
X202536588Y-86134580D01*
X202536588Y-86134580D02*
X202584207Y-86039342D01*
X202584207Y-86039342D02*
X202584207Y-85944104D01*
X202584207Y-85944104D02*
X202536588Y-85848866D01*
X202536588Y-85848866D02*
X202488969Y-85801247D01*
X202488969Y-85801247D02*
X202393731Y-85753628D01*
X202393731Y-85753628D02*
X202203255Y-85706009D01*
X202203255Y-85706009D02*
X202108017Y-85658390D01*
X202108017Y-85658390D02*
X202060398Y-85610771D01*
X202060398Y-85610771D02*
X202012779Y-85515533D01*
X202012779Y-85515533D02*
X202012779Y-85420295D01*
X202012779Y-85420295D02*
X202060398Y-85325057D01*
X202060398Y-85325057D02*
X202108017Y-85277438D01*
X202108017Y-85277438D02*
X202203255Y-85229819D01*
X202203255Y-85229819D02*
X202441350Y-85229819D01*
X202441350Y-85229819D02*
X202584207Y-85277438D01*
X203012779Y-86229819D02*
X203012779Y-85229819D01*
X203012779Y-85229819D02*
X203250874Y-85229819D01*
X203250874Y-85229819D02*
X203393731Y-85277438D01*
X203393731Y-85277438D02*
X203488969Y-85372676D01*
X203488969Y-85372676D02*
X203536588Y-85467914D01*
X203536588Y-85467914D02*
X203584207Y-85658390D01*
X203584207Y-85658390D02*
X203584207Y-85801247D01*
X203584207Y-85801247D02*
X203536588Y-85991723D01*
X203536588Y-85991723D02*
X203488969Y-86086961D01*
X203488969Y-86086961D02*
X203393731Y-86182200D01*
X203393731Y-86182200D02*
X203250874Y-86229819D01*
X203250874Y-86229819D02*
X203012779Y-86229819D01*
X203965160Y-85944104D02*
X204441350Y-85944104D01*
X203869922Y-86229819D02*
X204203255Y-85229819D01*
X204203255Y-85229819D02*
X204536588Y-86229819D01*
X203488969Y-99437819D02*
X203155636Y-98961628D01*
X202917541Y-99437819D02*
X202917541Y-98437819D01*
X202917541Y-98437819D02*
X203298493Y-98437819D01*
X203298493Y-98437819D02*
X203393731Y-98485438D01*
X203393731Y-98485438D02*
X203441350Y-98533057D01*
X203441350Y-98533057D02*
X203488969Y-98628295D01*
X203488969Y-98628295D02*
X203488969Y-98771152D01*
X203488969Y-98771152D02*
X203441350Y-98866390D01*
X203441350Y-98866390D02*
X203393731Y-98914009D01*
X203393731Y-98914009D02*
X203298493Y-98961628D01*
X203298493Y-98961628D02*
X202917541Y-98961628D01*
X203822303Y-98437819D02*
X204488969Y-99437819D01*
X204488969Y-98437819D02*
X203822303Y-99437819D01*
X202346112Y-87817438D02*
X202250874Y-87769819D01*
X202250874Y-87769819D02*
X202108017Y-87769819D01*
X202108017Y-87769819D02*
X201965160Y-87817438D01*
X201965160Y-87817438D02*
X201869922Y-87912676D01*
X201869922Y-87912676D02*
X201822303Y-88007914D01*
X201822303Y-88007914D02*
X201774684Y-88198390D01*
X201774684Y-88198390D02*
X201774684Y-88341247D01*
X201774684Y-88341247D02*
X201822303Y-88531723D01*
X201822303Y-88531723D02*
X201869922Y-88626961D01*
X201869922Y-88626961D02*
X201965160Y-88722200D01*
X201965160Y-88722200D02*
X202108017Y-88769819D01*
X202108017Y-88769819D02*
X202203255Y-88769819D01*
X202203255Y-88769819D02*
X202346112Y-88722200D01*
X202346112Y-88722200D02*
X202393731Y-88674580D01*
X202393731Y-88674580D02*
X202393731Y-88341247D01*
X202393731Y-88341247D02*
X202203255Y-88341247D01*
X202822303Y-88769819D02*
X202822303Y-87769819D01*
X202822303Y-87769819D02*
X203393731Y-88769819D01*
X203393731Y-88769819D02*
X203393731Y-87769819D01*
X203869922Y-88769819D02*
X203869922Y-87769819D01*
X203869922Y-87769819D02*
X204108017Y-87769819D01*
X204108017Y-87769819D02*
X204250874Y-87817438D01*
X204250874Y-87817438D02*
X204346112Y-87912676D01*
X204346112Y-87912676D02*
X204393731Y-88007914D01*
X204393731Y-88007914D02*
X204441350Y-88198390D01*
X204441350Y-88198390D02*
X204441350Y-88341247D01*
X204441350Y-88341247D02*
X204393731Y-88531723D01*
X204393731Y-88531723D02*
X204346112Y-88626961D01*
X204346112Y-88626961D02*
X204250874Y-88722200D01*
X204250874Y-88722200D02*
X204108017Y-88769819D01*
X204108017Y-88769819D02*
X203869922Y-88769819D01*
D11*
X101110144Y-135055431D02*
X102126144Y-136579431D01*
X102126144Y-135055431D02*
X101110144Y-136579431D01*
X102706716Y-136579431D02*
X102706716Y-135563431D01*
X102706716Y-135055431D02*
X102634144Y-135128002D01*
X102634144Y-135128002D02*
X102706716Y-135200574D01*
X102706716Y-135200574D02*
X102779287Y-135128002D01*
X102779287Y-135128002D02*
X102706716Y-135055431D01*
X102706716Y-135055431D02*
X102706716Y-135200574D01*
X104085573Y-136579431D02*
X104085573Y-135781145D01*
X104085573Y-135781145D02*
X104013001Y-135636002D01*
X104013001Y-135636002D02*
X103867858Y-135563431D01*
X103867858Y-135563431D02*
X103577573Y-135563431D01*
X103577573Y-135563431D02*
X103432430Y-135636002D01*
X104085573Y-136506860D02*
X103940430Y-136579431D01*
X103940430Y-136579431D02*
X103577573Y-136579431D01*
X103577573Y-136579431D02*
X103432430Y-136506860D01*
X103432430Y-136506860D02*
X103359858Y-136361717D01*
X103359858Y-136361717D02*
X103359858Y-136216574D01*
X103359858Y-136216574D02*
X103432430Y-136071431D01*
X103432430Y-136071431D02*
X103577573Y-135998860D01*
X103577573Y-135998860D02*
X103940430Y-135998860D01*
X103940430Y-135998860D02*
X104085573Y-135926288D01*
X105029001Y-136579431D02*
X104883858Y-136506860D01*
X104883858Y-136506860D02*
X104811287Y-136434288D01*
X104811287Y-136434288D02*
X104738715Y-136289145D01*
X104738715Y-136289145D02*
X104738715Y-135853717D01*
X104738715Y-135853717D02*
X104811287Y-135708574D01*
X104811287Y-135708574D02*
X104883858Y-135636002D01*
X104883858Y-135636002D02*
X105029001Y-135563431D01*
X105029001Y-135563431D02*
X105246715Y-135563431D01*
X105246715Y-135563431D02*
X105391858Y-135636002D01*
X105391858Y-135636002D02*
X105464430Y-135708574D01*
X105464430Y-135708574D02*
X105537001Y-135853717D01*
X105537001Y-135853717D02*
X105537001Y-136289145D01*
X105537001Y-136289145D02*
X105464430Y-136434288D01*
X105464430Y-136434288D02*
X105391858Y-136506860D01*
X105391858Y-136506860D02*
X105246715Y-136579431D01*
X105246715Y-136579431D02*
X105029001Y-136579431D01*
X106190144Y-136579431D02*
X106190144Y-135055431D01*
X106190144Y-135055431D02*
X107061001Y-136579431D01*
X107061001Y-136579431D02*
X107061001Y-135055431D01*
X107786715Y-136579431D02*
X107786715Y-135563431D01*
X107786715Y-135055431D02*
X107714143Y-135128002D01*
X107714143Y-135128002D02*
X107786715Y-135200574D01*
X107786715Y-135200574D02*
X107859286Y-135128002D01*
X107859286Y-135128002D02*
X107786715Y-135055431D01*
X107786715Y-135055431D02*
X107786715Y-135200574D01*
X109165572Y-135563431D02*
X109165572Y-136579431D01*
X108512429Y-135563431D02*
X108512429Y-136361717D01*
X108512429Y-136361717D02*
X108585000Y-136506860D01*
X108585000Y-136506860D02*
X108730143Y-136579431D01*
X108730143Y-136579431D02*
X108947857Y-136579431D01*
X108947857Y-136579431D02*
X109093000Y-136506860D01*
X109093000Y-136506860D02*
X109165572Y-136434288D01*
X109891286Y-136579431D02*
X109891286Y-135055431D01*
X109891286Y-135055431D02*
X110762143Y-136579431D01*
X110762143Y-136579431D02*
X110762143Y-135055431D01*
X111487857Y-136579431D02*
X111487857Y-135563431D01*
X111487857Y-135055431D02*
X111415285Y-135128002D01*
X111415285Y-135128002D02*
X111487857Y-135200574D01*
X111487857Y-135200574D02*
X111560428Y-135128002D01*
X111560428Y-135128002D02*
X111487857Y-135055431D01*
X111487857Y-135055431D02*
X111487857Y-135200574D01*
X112866714Y-135563431D02*
X112866714Y-136579431D01*
X112213571Y-135563431D02*
X112213571Y-136361717D01*
X112213571Y-136361717D02*
X112286142Y-136506860D01*
X112286142Y-136506860D02*
X112431285Y-136579431D01*
X112431285Y-136579431D02*
X112648999Y-136579431D01*
X112648999Y-136579431D02*
X112794142Y-136506860D01*
X112794142Y-136506860D02*
X112866714Y-136434288D01*
D10*
X138263333Y-103864580D02*
X138215714Y-103912200D01*
X138215714Y-103912200D02*
X138072857Y-103959819D01*
X138072857Y-103959819D02*
X137977619Y-103959819D01*
X137977619Y-103959819D02*
X137834762Y-103912200D01*
X137834762Y-103912200D02*
X137739524Y-103816961D01*
X137739524Y-103816961D02*
X137691905Y-103721723D01*
X137691905Y-103721723D02*
X137644286Y-103531247D01*
X137644286Y-103531247D02*
X137644286Y-103388390D01*
X137644286Y-103388390D02*
X137691905Y-103197914D01*
X137691905Y-103197914D02*
X137739524Y-103102676D01*
X137739524Y-103102676D02*
X137834762Y-103007438D01*
X137834762Y-103007438D02*
X137977619Y-102959819D01*
X137977619Y-102959819D02*
X138072857Y-102959819D01*
X138072857Y-102959819D02*
X138215714Y-103007438D01*
X138215714Y-103007438D02*
X138263333Y-103055057D01*
X138739524Y-103959819D02*
X138930000Y-103959819D01*
X138930000Y-103959819D02*
X139025238Y-103912200D01*
X139025238Y-103912200D02*
X139072857Y-103864580D01*
X139072857Y-103864580D02*
X139168095Y-103721723D01*
X139168095Y-103721723D02*
X139215714Y-103531247D01*
X139215714Y-103531247D02*
X139215714Y-103150295D01*
X139215714Y-103150295D02*
X139168095Y-103055057D01*
X139168095Y-103055057D02*
X139120476Y-103007438D01*
X139120476Y-103007438D02*
X139025238Y-102959819D01*
X139025238Y-102959819D02*
X138834762Y-102959819D01*
X138834762Y-102959819D02*
X138739524Y-103007438D01*
X138739524Y-103007438D02*
X138691905Y-103055057D01*
X138691905Y-103055057D02*
X138644286Y-103150295D01*
X138644286Y-103150295D02*
X138644286Y-103388390D01*
X138644286Y-103388390D02*
X138691905Y-103483628D01*
X138691905Y-103483628D02*
X138739524Y-103531247D01*
X138739524Y-103531247D02*
X138834762Y-103578866D01*
X138834762Y-103578866D02*
X139025238Y-103578866D01*
X139025238Y-103578866D02*
X139120476Y-103531247D01*
X139120476Y-103531247D02*
X139168095Y-103483628D01*
X139168095Y-103483628D02*
X139215714Y-103388390D01*
X205224191Y-117247200D02*
X205367048Y-117294819D01*
X205367048Y-117294819D02*
X205605143Y-117294819D01*
X205605143Y-117294819D02*
X205700381Y-117247200D01*
X205700381Y-117247200D02*
X205748000Y-117199580D01*
X205748000Y-117199580D02*
X205795619Y-117104342D01*
X205795619Y-117104342D02*
X205795619Y-117009104D01*
X205795619Y-117009104D02*
X205748000Y-116913866D01*
X205748000Y-116913866D02*
X205700381Y-116866247D01*
X205700381Y-116866247D02*
X205605143Y-116818628D01*
X205605143Y-116818628D02*
X205414667Y-116771009D01*
X205414667Y-116771009D02*
X205319429Y-116723390D01*
X205319429Y-116723390D02*
X205271810Y-116675771D01*
X205271810Y-116675771D02*
X205224191Y-116580533D01*
X205224191Y-116580533D02*
X205224191Y-116485295D01*
X205224191Y-116485295D02*
X205271810Y-116390057D01*
X205271810Y-116390057D02*
X205319429Y-116342438D01*
X205319429Y-116342438D02*
X205414667Y-116294819D01*
X205414667Y-116294819D02*
X205652762Y-116294819D01*
X205652762Y-116294819D02*
X205795619Y-116342438D01*
X206224191Y-117294819D02*
X206224191Y-116294819D01*
X206224191Y-116294819D02*
X206605143Y-116294819D01*
X206605143Y-116294819D02*
X206700381Y-116342438D01*
X206700381Y-116342438D02*
X206748000Y-116390057D01*
X206748000Y-116390057D02*
X206795619Y-116485295D01*
X206795619Y-116485295D02*
X206795619Y-116628152D01*
X206795619Y-116628152D02*
X206748000Y-116723390D01*
X206748000Y-116723390D02*
X206700381Y-116771009D01*
X206700381Y-116771009D02*
X206605143Y-116818628D01*
X206605143Y-116818628D02*
X206224191Y-116818628D01*
X207224191Y-117294819D02*
X207224191Y-116294819D01*
X98298095Y-107404819D02*
X98298095Y-108214342D01*
X98298095Y-108214342D02*
X98345714Y-108309580D01*
X98345714Y-108309580D02*
X98393333Y-108357200D01*
X98393333Y-108357200D02*
X98488571Y-108404819D01*
X98488571Y-108404819D02*
X98679047Y-108404819D01*
X98679047Y-108404819D02*
X98774285Y-108357200D01*
X98774285Y-108357200D02*
X98821904Y-108309580D01*
X98821904Y-108309580D02*
X98869523Y-108214342D01*
X98869523Y-108214342D02*
X98869523Y-107404819D01*
X99250476Y-107404819D02*
X99917142Y-107404819D01*
X99917142Y-107404819D02*
X99488571Y-108404819D01*
X136543095Y-107404819D02*
X136543095Y-108214342D01*
X136543095Y-108214342D02*
X136590714Y-108309580D01*
X136590714Y-108309580D02*
X136638333Y-108357200D01*
X136638333Y-108357200D02*
X136733571Y-108404819D01*
X136733571Y-108404819D02*
X136924047Y-108404819D01*
X136924047Y-108404819D02*
X137019285Y-108357200D01*
X137019285Y-108357200D02*
X137066904Y-108309580D01*
X137066904Y-108309580D02*
X137114523Y-108214342D01*
X137114523Y-108214342D02*
X137114523Y-107404819D01*
X137543095Y-107500057D02*
X137590714Y-107452438D01*
X137590714Y-107452438D02*
X137685952Y-107404819D01*
X137685952Y-107404819D02*
X137924047Y-107404819D01*
X137924047Y-107404819D02*
X138019285Y-107452438D01*
X138019285Y-107452438D02*
X138066904Y-107500057D01*
X138066904Y-107500057D02*
X138114523Y-107595295D01*
X138114523Y-107595295D02*
X138114523Y-107690533D01*
X138114523Y-107690533D02*
X138066904Y-107833390D01*
X138066904Y-107833390D02*
X137495476Y-108404819D01*
X137495476Y-108404819D02*
X138114523Y-108404819D01*
X185273333Y-128629580D02*
X185225714Y-128677200D01*
X185225714Y-128677200D02*
X185082857Y-128724819D01*
X185082857Y-128724819D02*
X184987619Y-128724819D01*
X184987619Y-128724819D02*
X184844762Y-128677200D01*
X184844762Y-128677200D02*
X184749524Y-128581961D01*
X184749524Y-128581961D02*
X184701905Y-128486723D01*
X184701905Y-128486723D02*
X184654286Y-128296247D01*
X184654286Y-128296247D02*
X184654286Y-128153390D01*
X184654286Y-128153390D02*
X184701905Y-127962914D01*
X184701905Y-127962914D02*
X184749524Y-127867676D01*
X184749524Y-127867676D02*
X184844762Y-127772438D01*
X184844762Y-127772438D02*
X184987619Y-127724819D01*
X184987619Y-127724819D02*
X185082857Y-127724819D01*
X185082857Y-127724819D02*
X185225714Y-127772438D01*
X185225714Y-127772438D02*
X185273333Y-127820057D01*
X185606667Y-127724819D02*
X186225714Y-127724819D01*
X186225714Y-127724819D02*
X185892381Y-128105771D01*
X185892381Y-128105771D02*
X186035238Y-128105771D01*
X186035238Y-128105771D02*
X186130476Y-128153390D01*
X186130476Y-128153390D02*
X186178095Y-128201009D01*
X186178095Y-128201009D02*
X186225714Y-128296247D01*
X186225714Y-128296247D02*
X186225714Y-128534342D01*
X186225714Y-128534342D02*
X186178095Y-128629580D01*
X186178095Y-128629580D02*
X186130476Y-128677200D01*
X186130476Y-128677200D02*
X186035238Y-128724819D01*
X186035238Y-128724819D02*
X185749524Y-128724819D01*
X185749524Y-128724819D02*
X185654286Y-128677200D01*
X185654286Y-128677200D02*
X185606667Y-128629580D01*
X196068333Y-86719580D02*
X196020714Y-86767200D01*
X196020714Y-86767200D02*
X195877857Y-86814819D01*
X195877857Y-86814819D02*
X195782619Y-86814819D01*
X195782619Y-86814819D02*
X195639762Y-86767200D01*
X195639762Y-86767200D02*
X195544524Y-86671961D01*
X195544524Y-86671961D02*
X195496905Y-86576723D01*
X195496905Y-86576723D02*
X195449286Y-86386247D01*
X195449286Y-86386247D02*
X195449286Y-86243390D01*
X195449286Y-86243390D02*
X195496905Y-86052914D01*
X195496905Y-86052914D02*
X195544524Y-85957676D01*
X195544524Y-85957676D02*
X195639762Y-85862438D01*
X195639762Y-85862438D02*
X195782619Y-85814819D01*
X195782619Y-85814819D02*
X195877857Y-85814819D01*
X195877857Y-85814819D02*
X196020714Y-85862438D01*
X196020714Y-85862438D02*
X196068333Y-85910057D01*
X197020714Y-86814819D02*
X196449286Y-86814819D01*
X196735000Y-86814819D02*
X196735000Y-85814819D01*
X196735000Y-85814819D02*
X196639762Y-85957676D01*
X196639762Y-85957676D02*
X196544524Y-86052914D01*
X196544524Y-86052914D02*
X196449286Y-86100533D01*
X163372142Y-103864580D02*
X163324523Y-103912200D01*
X163324523Y-103912200D02*
X163181666Y-103959819D01*
X163181666Y-103959819D02*
X163086428Y-103959819D01*
X163086428Y-103959819D02*
X162943571Y-103912200D01*
X162943571Y-103912200D02*
X162848333Y-103816961D01*
X162848333Y-103816961D02*
X162800714Y-103721723D01*
X162800714Y-103721723D02*
X162753095Y-103531247D01*
X162753095Y-103531247D02*
X162753095Y-103388390D01*
X162753095Y-103388390D02*
X162800714Y-103197914D01*
X162800714Y-103197914D02*
X162848333Y-103102676D01*
X162848333Y-103102676D02*
X162943571Y-103007438D01*
X162943571Y-103007438D02*
X163086428Y-102959819D01*
X163086428Y-102959819D02*
X163181666Y-102959819D01*
X163181666Y-102959819D02*
X163324523Y-103007438D01*
X163324523Y-103007438D02*
X163372142Y-103055057D01*
X164324523Y-103959819D02*
X163753095Y-103959819D01*
X164038809Y-103959819D02*
X164038809Y-102959819D01*
X164038809Y-102959819D02*
X163943571Y-103102676D01*
X163943571Y-103102676D02*
X163848333Y-103197914D01*
X163848333Y-103197914D02*
X163753095Y-103245533D01*
X165276904Y-103959819D02*
X164705476Y-103959819D01*
X164991190Y-103959819D02*
X164991190Y-102959819D01*
X164991190Y-102959819D02*
X164895952Y-103102676D01*
X164895952Y-103102676D02*
X164800714Y-103197914D01*
X164800714Y-103197914D02*
X164705476Y-103245533D01*
X150672142Y-103864580D02*
X150624523Y-103912200D01*
X150624523Y-103912200D02*
X150481666Y-103959819D01*
X150481666Y-103959819D02*
X150386428Y-103959819D01*
X150386428Y-103959819D02*
X150243571Y-103912200D01*
X150243571Y-103912200D02*
X150148333Y-103816961D01*
X150148333Y-103816961D02*
X150100714Y-103721723D01*
X150100714Y-103721723D02*
X150053095Y-103531247D01*
X150053095Y-103531247D02*
X150053095Y-103388390D01*
X150053095Y-103388390D02*
X150100714Y-103197914D01*
X150100714Y-103197914D02*
X150148333Y-103102676D01*
X150148333Y-103102676D02*
X150243571Y-103007438D01*
X150243571Y-103007438D02*
X150386428Y-102959819D01*
X150386428Y-102959819D02*
X150481666Y-102959819D01*
X150481666Y-102959819D02*
X150624523Y-103007438D01*
X150624523Y-103007438D02*
X150672142Y-103055057D01*
X151624523Y-103959819D02*
X151053095Y-103959819D01*
X151338809Y-103959819D02*
X151338809Y-102959819D01*
X151338809Y-102959819D02*
X151243571Y-103102676D01*
X151243571Y-103102676D02*
X151148333Y-103197914D01*
X151148333Y-103197914D02*
X151053095Y-103245533D01*
X152243571Y-102959819D02*
X152338809Y-102959819D01*
X152338809Y-102959819D02*
X152434047Y-103007438D01*
X152434047Y-103007438D02*
X152481666Y-103055057D01*
X152481666Y-103055057D02*
X152529285Y-103150295D01*
X152529285Y-103150295D02*
X152576904Y-103340771D01*
X152576904Y-103340771D02*
X152576904Y-103578866D01*
X152576904Y-103578866D02*
X152529285Y-103769342D01*
X152529285Y-103769342D02*
X152481666Y-103864580D01*
X152481666Y-103864580D02*
X152434047Y-103912200D01*
X152434047Y-103912200D02*
X152338809Y-103959819D01*
X152338809Y-103959819D02*
X152243571Y-103959819D01*
X152243571Y-103959819D02*
X152148333Y-103912200D01*
X152148333Y-103912200D02*
X152100714Y-103864580D01*
X152100714Y-103864580D02*
X152053095Y-103769342D01*
X152053095Y-103769342D02*
X152005476Y-103578866D01*
X152005476Y-103578866D02*
X152005476Y-103340771D01*
X152005476Y-103340771D02*
X152053095Y-103150295D01*
X152053095Y-103150295D02*
X152100714Y-103055057D01*
X152100714Y-103055057D02*
X152148333Y-103007438D01*
X152148333Y-103007438D02*
X152243571Y-102959819D01*
X194818095Y-92799819D02*
X194818095Y-93609342D01*
X194818095Y-93609342D02*
X194865714Y-93704580D01*
X194865714Y-93704580D02*
X194913333Y-93752200D01*
X194913333Y-93752200D02*
X195008571Y-93799819D01*
X195008571Y-93799819D02*
X195199047Y-93799819D01*
X195199047Y-93799819D02*
X195294285Y-93752200D01*
X195294285Y-93752200D02*
X195341904Y-93704580D01*
X195341904Y-93704580D02*
X195389523Y-93609342D01*
X195389523Y-93609342D02*
X195389523Y-92799819D01*
X196389523Y-93799819D02*
X195818095Y-93799819D01*
X196103809Y-93799819D02*
X196103809Y-92799819D01*
X196103809Y-92799819D02*
X196008571Y-92942676D01*
X196008571Y-92942676D02*
X195913333Y-93037914D01*
X195913333Y-93037914D02*
X195818095Y-93085533D01*
X161798095Y-107404819D02*
X161798095Y-108214342D01*
X161798095Y-108214342D02*
X161845714Y-108309580D01*
X161845714Y-108309580D02*
X161893333Y-108357200D01*
X161893333Y-108357200D02*
X161988571Y-108404819D01*
X161988571Y-108404819D02*
X162179047Y-108404819D01*
X162179047Y-108404819D02*
X162274285Y-108357200D01*
X162274285Y-108357200D02*
X162321904Y-108309580D01*
X162321904Y-108309580D02*
X162369523Y-108214342D01*
X162369523Y-108214342D02*
X162369523Y-107404819D01*
X163274285Y-107738152D02*
X163274285Y-108404819D01*
X163036190Y-107357200D02*
X162798095Y-108071485D01*
X162798095Y-108071485D02*
X163417142Y-108071485D01*
X125748333Y-103864580D02*
X125700714Y-103912200D01*
X125700714Y-103912200D02*
X125557857Y-103959819D01*
X125557857Y-103959819D02*
X125462619Y-103959819D01*
X125462619Y-103959819D02*
X125319762Y-103912200D01*
X125319762Y-103912200D02*
X125224524Y-103816961D01*
X125224524Y-103816961D02*
X125176905Y-103721723D01*
X125176905Y-103721723D02*
X125129286Y-103531247D01*
X125129286Y-103531247D02*
X125129286Y-103388390D01*
X125129286Y-103388390D02*
X125176905Y-103197914D01*
X125176905Y-103197914D02*
X125224524Y-103102676D01*
X125224524Y-103102676D02*
X125319762Y-103007438D01*
X125319762Y-103007438D02*
X125462619Y-102959819D01*
X125462619Y-102959819D02*
X125557857Y-102959819D01*
X125557857Y-102959819D02*
X125700714Y-103007438D01*
X125700714Y-103007438D02*
X125748333Y-103055057D01*
X126319762Y-103388390D02*
X126224524Y-103340771D01*
X126224524Y-103340771D02*
X126176905Y-103293152D01*
X126176905Y-103293152D02*
X126129286Y-103197914D01*
X126129286Y-103197914D02*
X126129286Y-103150295D01*
X126129286Y-103150295D02*
X126176905Y-103055057D01*
X126176905Y-103055057D02*
X126224524Y-103007438D01*
X126224524Y-103007438D02*
X126319762Y-102959819D01*
X126319762Y-102959819D02*
X126510238Y-102959819D01*
X126510238Y-102959819D02*
X126605476Y-103007438D01*
X126605476Y-103007438D02*
X126653095Y-103055057D01*
X126653095Y-103055057D02*
X126700714Y-103150295D01*
X126700714Y-103150295D02*
X126700714Y-103197914D01*
X126700714Y-103197914D02*
X126653095Y-103293152D01*
X126653095Y-103293152D02*
X126605476Y-103340771D01*
X126605476Y-103340771D02*
X126510238Y-103388390D01*
X126510238Y-103388390D02*
X126319762Y-103388390D01*
X126319762Y-103388390D02*
X126224524Y-103436009D01*
X126224524Y-103436009D02*
X126176905Y-103483628D01*
X126176905Y-103483628D02*
X126129286Y-103578866D01*
X126129286Y-103578866D02*
X126129286Y-103769342D01*
X126129286Y-103769342D02*
X126176905Y-103864580D01*
X126176905Y-103864580D02*
X126224524Y-103912200D01*
X126224524Y-103912200D02*
X126319762Y-103959819D01*
X126319762Y-103959819D02*
X126510238Y-103959819D01*
X126510238Y-103959819D02*
X126605476Y-103912200D01*
X126605476Y-103912200D02*
X126653095Y-103864580D01*
X126653095Y-103864580D02*
X126700714Y-103769342D01*
X126700714Y-103769342D02*
X126700714Y-103578866D01*
X126700714Y-103578866D02*
X126653095Y-103483628D01*
X126653095Y-103483628D02*
X126605476Y-103436009D01*
X126605476Y-103436009D02*
X126510238Y-103388390D01*
X110998095Y-107404819D02*
X110998095Y-108214342D01*
X110998095Y-108214342D02*
X111045714Y-108309580D01*
X111045714Y-108309580D02*
X111093333Y-108357200D01*
X111093333Y-108357200D02*
X111188571Y-108404819D01*
X111188571Y-108404819D02*
X111379047Y-108404819D01*
X111379047Y-108404819D02*
X111474285Y-108357200D01*
X111474285Y-108357200D02*
X111521904Y-108309580D01*
X111521904Y-108309580D02*
X111569523Y-108214342D01*
X111569523Y-108214342D02*
X111569523Y-107404819D01*
X112093333Y-108404819D02*
X112283809Y-108404819D01*
X112283809Y-108404819D02*
X112379047Y-108357200D01*
X112379047Y-108357200D02*
X112426666Y-108309580D01*
X112426666Y-108309580D02*
X112521904Y-108166723D01*
X112521904Y-108166723D02*
X112569523Y-107976247D01*
X112569523Y-107976247D02*
X112569523Y-107595295D01*
X112569523Y-107595295D02*
X112521904Y-107500057D01*
X112521904Y-107500057D02*
X112474285Y-107452438D01*
X112474285Y-107452438D02*
X112379047Y-107404819D01*
X112379047Y-107404819D02*
X112188571Y-107404819D01*
X112188571Y-107404819D02*
X112093333Y-107452438D01*
X112093333Y-107452438D02*
X112045714Y-107500057D01*
X112045714Y-107500057D02*
X111998095Y-107595295D01*
X111998095Y-107595295D02*
X111998095Y-107833390D01*
X111998095Y-107833390D02*
X112045714Y-107928628D01*
X112045714Y-107928628D02*
X112093333Y-107976247D01*
X112093333Y-107976247D02*
X112188571Y-108023866D01*
X112188571Y-108023866D02*
X112379047Y-108023866D01*
X112379047Y-108023866D02*
X112474285Y-107976247D01*
X112474285Y-107976247D02*
X112521904Y-107928628D01*
X112521904Y-107928628D02*
X112569523Y-107833390D01*
X174643095Y-107404819D02*
X174643095Y-108214342D01*
X174643095Y-108214342D02*
X174690714Y-108309580D01*
X174690714Y-108309580D02*
X174738333Y-108357200D01*
X174738333Y-108357200D02*
X174833571Y-108404819D01*
X174833571Y-108404819D02*
X175024047Y-108404819D01*
X175024047Y-108404819D02*
X175119285Y-108357200D01*
X175119285Y-108357200D02*
X175166904Y-108309580D01*
X175166904Y-108309580D02*
X175214523Y-108214342D01*
X175214523Y-108214342D02*
X175214523Y-107404819D01*
X176119285Y-107404819D02*
X175928809Y-107404819D01*
X175928809Y-107404819D02*
X175833571Y-107452438D01*
X175833571Y-107452438D02*
X175785952Y-107500057D01*
X175785952Y-107500057D02*
X175690714Y-107642914D01*
X175690714Y-107642914D02*
X175643095Y-107833390D01*
X175643095Y-107833390D02*
X175643095Y-108214342D01*
X175643095Y-108214342D02*
X175690714Y-108309580D01*
X175690714Y-108309580D02*
X175738333Y-108357200D01*
X175738333Y-108357200D02*
X175833571Y-108404819D01*
X175833571Y-108404819D02*
X176024047Y-108404819D01*
X176024047Y-108404819D02*
X176119285Y-108357200D01*
X176119285Y-108357200D02*
X176166904Y-108309580D01*
X176166904Y-108309580D02*
X176214523Y-108214342D01*
X176214523Y-108214342D02*
X176214523Y-107976247D01*
X176214523Y-107976247D02*
X176166904Y-107881009D01*
X176166904Y-107881009D02*
X176119285Y-107833390D01*
X176119285Y-107833390D02*
X176024047Y-107785771D01*
X176024047Y-107785771D02*
X175833571Y-107785771D01*
X175833571Y-107785771D02*
X175738333Y-107833390D01*
X175738333Y-107833390D02*
X175690714Y-107881009D01*
X175690714Y-107881009D02*
X175643095Y-107976247D01*
X202017333Y-110087580D02*
X201969714Y-110135200D01*
X201969714Y-110135200D02*
X201826857Y-110182819D01*
X201826857Y-110182819D02*
X201731619Y-110182819D01*
X201731619Y-110182819D02*
X201588762Y-110135200D01*
X201588762Y-110135200D02*
X201493524Y-110039961D01*
X201493524Y-110039961D02*
X201445905Y-109944723D01*
X201445905Y-109944723D02*
X201398286Y-109754247D01*
X201398286Y-109754247D02*
X201398286Y-109611390D01*
X201398286Y-109611390D02*
X201445905Y-109420914D01*
X201445905Y-109420914D02*
X201493524Y-109325676D01*
X201493524Y-109325676D02*
X201588762Y-109230438D01*
X201588762Y-109230438D02*
X201731619Y-109182819D01*
X201731619Y-109182819D02*
X201826857Y-109182819D01*
X201826857Y-109182819D02*
X201969714Y-109230438D01*
X201969714Y-109230438D02*
X202017333Y-109278057D01*
X202922095Y-109182819D02*
X202445905Y-109182819D01*
X202445905Y-109182819D02*
X202398286Y-109659009D01*
X202398286Y-109659009D02*
X202445905Y-109611390D01*
X202445905Y-109611390D02*
X202541143Y-109563771D01*
X202541143Y-109563771D02*
X202779238Y-109563771D01*
X202779238Y-109563771D02*
X202874476Y-109611390D01*
X202874476Y-109611390D02*
X202922095Y-109659009D01*
X202922095Y-109659009D02*
X202969714Y-109754247D01*
X202969714Y-109754247D02*
X202969714Y-109992342D01*
X202969714Y-109992342D02*
X202922095Y-110087580D01*
X202922095Y-110087580D02*
X202874476Y-110135200D01*
X202874476Y-110135200D02*
X202779238Y-110182819D01*
X202779238Y-110182819D02*
X202541143Y-110182819D01*
X202541143Y-110182819D02*
X202445905Y-110135200D01*
X202445905Y-110135200D02*
X202398286Y-110087580D01*
X188954580Y-106052857D02*
X189002200Y-106100476D01*
X189002200Y-106100476D02*
X189049819Y-106243333D01*
X189049819Y-106243333D02*
X189049819Y-106338571D01*
X189049819Y-106338571D02*
X189002200Y-106481428D01*
X189002200Y-106481428D02*
X188906961Y-106576666D01*
X188906961Y-106576666D02*
X188811723Y-106624285D01*
X188811723Y-106624285D02*
X188621247Y-106671904D01*
X188621247Y-106671904D02*
X188478390Y-106671904D01*
X188478390Y-106671904D02*
X188287914Y-106624285D01*
X188287914Y-106624285D02*
X188192676Y-106576666D01*
X188192676Y-106576666D02*
X188097438Y-106481428D01*
X188097438Y-106481428D02*
X188049819Y-106338571D01*
X188049819Y-106338571D02*
X188049819Y-106243333D01*
X188049819Y-106243333D02*
X188097438Y-106100476D01*
X188097438Y-106100476D02*
X188145057Y-106052857D01*
X189049819Y-105100476D02*
X189049819Y-105671904D01*
X189049819Y-105386190D02*
X188049819Y-105386190D01*
X188049819Y-105386190D02*
X188192676Y-105481428D01*
X188192676Y-105481428D02*
X188287914Y-105576666D01*
X188287914Y-105576666D02*
X188335533Y-105671904D01*
X188049819Y-104767142D02*
X188049819Y-104148095D01*
X188049819Y-104148095D02*
X188430771Y-104481428D01*
X188430771Y-104481428D02*
X188430771Y-104338571D01*
X188430771Y-104338571D02*
X188478390Y-104243333D01*
X188478390Y-104243333D02*
X188526009Y-104195714D01*
X188526009Y-104195714D02*
X188621247Y-104148095D01*
X188621247Y-104148095D02*
X188859342Y-104148095D01*
X188859342Y-104148095D02*
X188954580Y-104195714D01*
X188954580Y-104195714D02*
X189002200Y-104243333D01*
X189002200Y-104243333D02*
X189049819Y-104338571D01*
X189049819Y-104338571D02*
X189049819Y-104624285D01*
X189049819Y-104624285D02*
X189002200Y-104719523D01*
X189002200Y-104719523D02*
X188954580Y-104767142D01*
X205398810Y-81226819D02*
X205398810Y-80226819D01*
X205827381Y-80322057D02*
X205875000Y-80274438D01*
X205875000Y-80274438D02*
X205970238Y-80226819D01*
X205970238Y-80226819D02*
X206208333Y-80226819D01*
X206208333Y-80226819D02*
X206303571Y-80274438D01*
X206303571Y-80274438D02*
X206351190Y-80322057D01*
X206351190Y-80322057D02*
X206398809Y-80417295D01*
X206398809Y-80417295D02*
X206398809Y-80512533D01*
X206398809Y-80512533D02*
X206351190Y-80655390D01*
X206351190Y-80655390D02*
X205779762Y-81226819D01*
X205779762Y-81226819D02*
X206398809Y-81226819D01*
X207398809Y-81131580D02*
X207351190Y-81179200D01*
X207351190Y-81179200D02*
X207208333Y-81226819D01*
X207208333Y-81226819D02*
X207113095Y-81226819D01*
X207113095Y-81226819D02*
X206970238Y-81179200D01*
X206970238Y-81179200D02*
X206875000Y-81083961D01*
X206875000Y-81083961D02*
X206827381Y-80988723D01*
X206827381Y-80988723D02*
X206779762Y-80798247D01*
X206779762Y-80798247D02*
X206779762Y-80655390D01*
X206779762Y-80655390D02*
X206827381Y-80464914D01*
X206827381Y-80464914D02*
X206875000Y-80369676D01*
X206875000Y-80369676D02*
X206970238Y-80274438D01*
X206970238Y-80274438D02*
X207113095Y-80226819D01*
X207113095Y-80226819D02*
X207208333Y-80226819D01*
X207208333Y-80226819D02*
X207351190Y-80274438D01*
X207351190Y-80274438D02*
X207398809Y-80322057D01*
X176072142Y-103864580D02*
X176024523Y-103912200D01*
X176024523Y-103912200D02*
X175881666Y-103959819D01*
X175881666Y-103959819D02*
X175786428Y-103959819D01*
X175786428Y-103959819D02*
X175643571Y-103912200D01*
X175643571Y-103912200D02*
X175548333Y-103816961D01*
X175548333Y-103816961D02*
X175500714Y-103721723D01*
X175500714Y-103721723D02*
X175453095Y-103531247D01*
X175453095Y-103531247D02*
X175453095Y-103388390D01*
X175453095Y-103388390D02*
X175500714Y-103197914D01*
X175500714Y-103197914D02*
X175548333Y-103102676D01*
X175548333Y-103102676D02*
X175643571Y-103007438D01*
X175643571Y-103007438D02*
X175786428Y-102959819D01*
X175786428Y-102959819D02*
X175881666Y-102959819D01*
X175881666Y-102959819D02*
X176024523Y-103007438D01*
X176024523Y-103007438D02*
X176072142Y-103055057D01*
X177024523Y-103959819D02*
X176453095Y-103959819D01*
X176738809Y-103959819D02*
X176738809Y-102959819D01*
X176738809Y-102959819D02*
X176643571Y-103102676D01*
X176643571Y-103102676D02*
X176548333Y-103197914D01*
X176548333Y-103197914D02*
X176453095Y-103245533D01*
X177405476Y-103055057D02*
X177453095Y-103007438D01*
X177453095Y-103007438D02*
X177548333Y-102959819D01*
X177548333Y-102959819D02*
X177786428Y-102959819D01*
X177786428Y-102959819D02*
X177881666Y-103007438D01*
X177881666Y-103007438D02*
X177929285Y-103055057D01*
X177929285Y-103055057D02*
X177976904Y-103150295D01*
X177976904Y-103150295D02*
X177976904Y-103245533D01*
X177976904Y-103245533D02*
X177929285Y-103388390D01*
X177929285Y-103388390D02*
X177357857Y-103959819D01*
X177357857Y-103959819D02*
X177976904Y-103959819D01*
X149243095Y-107404819D02*
X149243095Y-108214342D01*
X149243095Y-108214342D02*
X149290714Y-108309580D01*
X149290714Y-108309580D02*
X149338333Y-108357200D01*
X149338333Y-108357200D02*
X149433571Y-108404819D01*
X149433571Y-108404819D02*
X149624047Y-108404819D01*
X149624047Y-108404819D02*
X149719285Y-108357200D01*
X149719285Y-108357200D02*
X149766904Y-108309580D01*
X149766904Y-108309580D02*
X149814523Y-108214342D01*
X149814523Y-108214342D02*
X149814523Y-107404819D01*
X150195476Y-107404819D02*
X150814523Y-107404819D01*
X150814523Y-107404819D02*
X150481190Y-107785771D01*
X150481190Y-107785771D02*
X150624047Y-107785771D01*
X150624047Y-107785771D02*
X150719285Y-107833390D01*
X150719285Y-107833390D02*
X150766904Y-107881009D01*
X150766904Y-107881009D02*
X150814523Y-107976247D01*
X150814523Y-107976247D02*
X150814523Y-108214342D01*
X150814523Y-108214342D02*
X150766904Y-108309580D01*
X150766904Y-108309580D02*
X150719285Y-108357200D01*
X150719285Y-108357200D02*
X150624047Y-108404819D01*
X150624047Y-108404819D02*
X150338333Y-108404819D01*
X150338333Y-108404819D02*
X150243095Y-108357200D01*
X150243095Y-108357200D02*
X150195476Y-108309580D01*
X112903333Y-103864580D02*
X112855714Y-103912200D01*
X112855714Y-103912200D02*
X112712857Y-103959819D01*
X112712857Y-103959819D02*
X112617619Y-103959819D01*
X112617619Y-103959819D02*
X112474762Y-103912200D01*
X112474762Y-103912200D02*
X112379524Y-103816961D01*
X112379524Y-103816961D02*
X112331905Y-103721723D01*
X112331905Y-103721723D02*
X112284286Y-103531247D01*
X112284286Y-103531247D02*
X112284286Y-103388390D01*
X112284286Y-103388390D02*
X112331905Y-103197914D01*
X112331905Y-103197914D02*
X112379524Y-103102676D01*
X112379524Y-103102676D02*
X112474762Y-103007438D01*
X112474762Y-103007438D02*
X112617619Y-102959819D01*
X112617619Y-102959819D02*
X112712857Y-102959819D01*
X112712857Y-102959819D02*
X112855714Y-103007438D01*
X112855714Y-103007438D02*
X112903333Y-103055057D01*
X113236667Y-102959819D02*
X113903333Y-102959819D01*
X113903333Y-102959819D02*
X113474762Y-103959819D01*
X100203333Y-103864580D02*
X100155714Y-103912200D01*
X100155714Y-103912200D02*
X100012857Y-103959819D01*
X100012857Y-103959819D02*
X99917619Y-103959819D01*
X99917619Y-103959819D02*
X99774762Y-103912200D01*
X99774762Y-103912200D02*
X99679524Y-103816961D01*
X99679524Y-103816961D02*
X99631905Y-103721723D01*
X99631905Y-103721723D02*
X99584286Y-103531247D01*
X99584286Y-103531247D02*
X99584286Y-103388390D01*
X99584286Y-103388390D02*
X99631905Y-103197914D01*
X99631905Y-103197914D02*
X99679524Y-103102676D01*
X99679524Y-103102676D02*
X99774762Y-103007438D01*
X99774762Y-103007438D02*
X99917619Y-102959819D01*
X99917619Y-102959819D02*
X100012857Y-102959819D01*
X100012857Y-102959819D02*
X100155714Y-103007438D01*
X100155714Y-103007438D02*
X100203333Y-103055057D01*
X101060476Y-102959819D02*
X100870000Y-102959819D01*
X100870000Y-102959819D02*
X100774762Y-103007438D01*
X100774762Y-103007438D02*
X100727143Y-103055057D01*
X100727143Y-103055057D02*
X100631905Y-103197914D01*
X100631905Y-103197914D02*
X100584286Y-103388390D01*
X100584286Y-103388390D02*
X100584286Y-103769342D01*
X100584286Y-103769342D02*
X100631905Y-103864580D01*
X100631905Y-103864580D02*
X100679524Y-103912200D01*
X100679524Y-103912200D02*
X100774762Y-103959819D01*
X100774762Y-103959819D02*
X100965238Y-103959819D01*
X100965238Y-103959819D02*
X101060476Y-103912200D01*
X101060476Y-103912200D02*
X101108095Y-103864580D01*
X101108095Y-103864580D02*
X101155714Y-103769342D01*
X101155714Y-103769342D02*
X101155714Y-103531247D01*
X101155714Y-103531247D02*
X101108095Y-103436009D01*
X101108095Y-103436009D02*
X101060476Y-103388390D01*
X101060476Y-103388390D02*
X100965238Y-103340771D01*
X100965238Y-103340771D02*
X100774762Y-103340771D01*
X100774762Y-103340771D02*
X100679524Y-103388390D01*
X100679524Y-103388390D02*
X100631905Y-103436009D01*
X100631905Y-103436009D02*
X100584286Y-103531247D01*
X185398628Y-118586190D02*
X185874819Y-118586190D01*
X184874819Y-118919523D02*
X185398628Y-118586190D01*
X185398628Y-118586190D02*
X184874819Y-118252857D01*
X185874819Y-117395714D02*
X185874819Y-117967142D01*
X185874819Y-117681428D02*
X184874819Y-117681428D01*
X184874819Y-117681428D02*
X185017676Y-117776666D01*
X185017676Y-117776666D02*
X185112914Y-117871904D01*
X185112914Y-117871904D02*
X185160533Y-117967142D01*
X184011667Y-95657200D02*
X184154524Y-95704819D01*
X184154524Y-95704819D02*
X184392619Y-95704819D01*
X184392619Y-95704819D02*
X184487857Y-95657200D01*
X184487857Y-95657200D02*
X184535476Y-95609580D01*
X184535476Y-95609580D02*
X184583095Y-95514342D01*
X184583095Y-95514342D02*
X184583095Y-95419104D01*
X184583095Y-95419104D02*
X184535476Y-95323866D01*
X184535476Y-95323866D02*
X184487857Y-95276247D01*
X184487857Y-95276247D02*
X184392619Y-95228628D01*
X184392619Y-95228628D02*
X184202143Y-95181009D01*
X184202143Y-95181009D02*
X184106905Y-95133390D01*
X184106905Y-95133390D02*
X184059286Y-95085771D01*
X184059286Y-95085771D02*
X184011667Y-94990533D01*
X184011667Y-94990533D02*
X184011667Y-94895295D01*
X184011667Y-94895295D02*
X184059286Y-94800057D01*
X184059286Y-94800057D02*
X184106905Y-94752438D01*
X184106905Y-94752438D02*
X184202143Y-94704819D01*
X184202143Y-94704819D02*
X184440238Y-94704819D01*
X184440238Y-94704819D02*
X184583095Y-94752438D01*
X184916429Y-94704819D02*
X185154524Y-95704819D01*
X185154524Y-95704819D02*
X185345000Y-94990533D01*
X185345000Y-94990533D02*
X185535476Y-95704819D01*
X185535476Y-95704819D02*
X185773572Y-94704819D01*
X186678333Y-95704819D02*
X186106905Y-95704819D01*
X186392619Y-95704819D02*
X186392619Y-94704819D01*
X186392619Y-94704819D02*
X186297381Y-94847676D01*
X186297381Y-94847676D02*
X186202143Y-94942914D01*
X186202143Y-94942914D02*
X186106905Y-94990533D01*
X185273333Y-108349580D02*
X185225714Y-108397200D01*
X185225714Y-108397200D02*
X185082857Y-108444819D01*
X185082857Y-108444819D02*
X184987619Y-108444819D01*
X184987619Y-108444819D02*
X184844762Y-108397200D01*
X184844762Y-108397200D02*
X184749524Y-108301961D01*
X184749524Y-108301961D02*
X184701905Y-108206723D01*
X184701905Y-108206723D02*
X184654286Y-108016247D01*
X184654286Y-108016247D02*
X184654286Y-107873390D01*
X184654286Y-107873390D02*
X184701905Y-107682914D01*
X184701905Y-107682914D02*
X184749524Y-107587676D01*
X184749524Y-107587676D02*
X184844762Y-107492438D01*
X184844762Y-107492438D02*
X184987619Y-107444819D01*
X184987619Y-107444819D02*
X185082857Y-107444819D01*
X185082857Y-107444819D02*
X185225714Y-107492438D01*
X185225714Y-107492438D02*
X185273333Y-107540057D01*
X185654286Y-107540057D02*
X185701905Y-107492438D01*
X185701905Y-107492438D02*
X185797143Y-107444819D01*
X185797143Y-107444819D02*
X186035238Y-107444819D01*
X186035238Y-107444819D02*
X186130476Y-107492438D01*
X186130476Y-107492438D02*
X186178095Y-107540057D01*
X186178095Y-107540057D02*
X186225714Y-107635295D01*
X186225714Y-107635295D02*
X186225714Y-107730533D01*
X186225714Y-107730533D02*
X186178095Y-107873390D01*
X186178095Y-107873390D02*
X185606667Y-108444819D01*
X185606667Y-108444819D02*
X186225714Y-108444819D01*
X186523333Y-89354819D02*
X186190000Y-88878628D01*
X185951905Y-89354819D02*
X185951905Y-88354819D01*
X185951905Y-88354819D02*
X186332857Y-88354819D01*
X186332857Y-88354819D02*
X186428095Y-88402438D01*
X186428095Y-88402438D02*
X186475714Y-88450057D01*
X186475714Y-88450057D02*
X186523333Y-88545295D01*
X186523333Y-88545295D02*
X186523333Y-88688152D01*
X186523333Y-88688152D02*
X186475714Y-88783390D01*
X186475714Y-88783390D02*
X186428095Y-88831009D01*
X186428095Y-88831009D02*
X186332857Y-88878628D01*
X186332857Y-88878628D02*
X185951905Y-88878628D01*
X187475714Y-89354819D02*
X186904286Y-89354819D01*
X187190000Y-89354819D02*
X187190000Y-88354819D01*
X187190000Y-88354819D02*
X187094762Y-88497676D01*
X187094762Y-88497676D02*
X186999524Y-88592914D01*
X186999524Y-88592914D02*
X186904286Y-88640533D01*
X123843095Y-107404819D02*
X123843095Y-108214342D01*
X123843095Y-108214342D02*
X123890714Y-108309580D01*
X123890714Y-108309580D02*
X123938333Y-108357200D01*
X123938333Y-108357200D02*
X124033571Y-108404819D01*
X124033571Y-108404819D02*
X124224047Y-108404819D01*
X124224047Y-108404819D02*
X124319285Y-108357200D01*
X124319285Y-108357200D02*
X124366904Y-108309580D01*
X124366904Y-108309580D02*
X124414523Y-108214342D01*
X124414523Y-108214342D02*
X124414523Y-107404819D01*
X125366904Y-107404819D02*
X124890714Y-107404819D01*
X124890714Y-107404819D02*
X124843095Y-107881009D01*
X124843095Y-107881009D02*
X124890714Y-107833390D01*
X124890714Y-107833390D02*
X124985952Y-107785771D01*
X124985952Y-107785771D02*
X125224047Y-107785771D01*
X125224047Y-107785771D02*
X125319285Y-107833390D01*
X125319285Y-107833390D02*
X125366904Y-107881009D01*
X125366904Y-107881009D02*
X125414523Y-107976247D01*
X125414523Y-107976247D02*
X125414523Y-108214342D01*
X125414523Y-108214342D02*
X125366904Y-108309580D01*
X125366904Y-108309580D02*
X125319285Y-108357200D01*
X125319285Y-108357200D02*
X125224047Y-108404819D01*
X125224047Y-108404819D02*
X124985952Y-108404819D01*
X124985952Y-108404819D02*
X124890714Y-108357200D01*
X124890714Y-108357200D02*
X124843095Y-108309580D01*
X205136905Y-94387200D02*
X205279762Y-94434819D01*
X205279762Y-94434819D02*
X205517857Y-94434819D01*
X205517857Y-94434819D02*
X205613095Y-94387200D01*
X205613095Y-94387200D02*
X205660714Y-94339580D01*
X205660714Y-94339580D02*
X205708333Y-94244342D01*
X205708333Y-94244342D02*
X205708333Y-94149104D01*
X205708333Y-94149104D02*
X205660714Y-94053866D01*
X205660714Y-94053866D02*
X205613095Y-94006247D01*
X205613095Y-94006247D02*
X205517857Y-93958628D01*
X205517857Y-93958628D02*
X205327381Y-93911009D01*
X205327381Y-93911009D02*
X205232143Y-93863390D01*
X205232143Y-93863390D02*
X205184524Y-93815771D01*
X205184524Y-93815771D02*
X205136905Y-93720533D01*
X205136905Y-93720533D02*
X205136905Y-93625295D01*
X205136905Y-93625295D02*
X205184524Y-93530057D01*
X205184524Y-93530057D02*
X205232143Y-93482438D01*
X205232143Y-93482438D02*
X205327381Y-93434819D01*
X205327381Y-93434819D02*
X205565476Y-93434819D01*
X205565476Y-93434819D02*
X205708333Y-93482438D01*
X206136905Y-93911009D02*
X206470238Y-93911009D01*
X206613095Y-94434819D02*
X206136905Y-94434819D01*
X206136905Y-94434819D02*
X206136905Y-93434819D01*
X206136905Y-93434819D02*
X206613095Y-93434819D01*
X207613095Y-94434819D02*
X207279762Y-93958628D01*
X207041667Y-94434819D02*
X207041667Y-93434819D01*
X207041667Y-93434819D02*
X207422619Y-93434819D01*
X207422619Y-93434819D02*
X207517857Y-93482438D01*
X207517857Y-93482438D02*
X207565476Y-93530057D01*
X207565476Y-93530057D02*
X207613095Y-93625295D01*
X207613095Y-93625295D02*
X207613095Y-93768152D01*
X207613095Y-93768152D02*
X207565476Y-93863390D01*
X207565476Y-93863390D02*
X207517857Y-93911009D01*
X207517857Y-93911009D02*
X207422619Y-93958628D01*
X207422619Y-93958628D02*
X207041667Y-93958628D01*
%TO.C,XiaoNiuNiu*%
G36*
X98015799Y-130015460D02*
G01*
X98100540Y-130070643D01*
X98157926Y-130153313D01*
X98179956Y-130252455D01*
X98158631Y-130357057D01*
X98096950Y-130445577D01*
X97990669Y-130517394D01*
X97878038Y-130531303D01*
X97767022Y-130486340D01*
X97766036Y-130485652D01*
X97688216Y-130398675D01*
X97656606Y-130291161D01*
X97670058Y-130180358D01*
X97727425Y-130083514D01*
X97796253Y-130031607D01*
X97911703Y-129998777D01*
X98015799Y-130015460D01*
G37*
G36*
X96503901Y-130016764D02*
G01*
X96591648Y-130066597D01*
X96656223Y-130143366D01*
X96686214Y-130239849D01*
X96670209Y-130348824D01*
X96656305Y-130379870D01*
X96576264Y-130482021D01*
X96476109Y-130530591D01*
X96366651Y-130523860D01*
X96258700Y-130460108D01*
X96243361Y-130445577D01*
X96171400Y-130339253D01*
X96158327Y-130227168D01*
X96204676Y-130115974D01*
X96215751Y-130101092D01*
X96304541Y-130026790D01*
X96404395Y-130001088D01*
X96503901Y-130016764D01*
G37*
G36*
X96767141Y-132197826D02*
G01*
X96871281Y-132261951D01*
X96947932Y-132356038D01*
X96991687Y-132465063D01*
X96997142Y-132574000D01*
X96958892Y-132667825D01*
X96942828Y-132686205D01*
X96862878Y-132738239D01*
X96777580Y-132734366D01*
X96679263Y-132674122D01*
X96674385Y-132670058D01*
X96596323Y-132579444D01*
X96544156Y-132470506D01*
X96526841Y-132365396D01*
X96533745Y-132322150D01*
X96585737Y-132241428D01*
X96667616Y-132195103D01*
X96757830Y-132194656D01*
X96767141Y-132197826D01*
G37*
G36*
X97661748Y-132179096D02*
G01*
X97716829Y-132217845D01*
X97730895Y-132231551D01*
X97780855Y-132320497D01*
X97787601Y-132429870D01*
X97755519Y-132542558D01*
X97688994Y-132641448D01*
X97610646Y-132700847D01*
X97516378Y-132739650D01*
X97448640Y-132737328D01*
X97388223Y-132692536D01*
X97381057Y-132684802D01*
X97333888Y-132591536D01*
X97332097Y-132480448D01*
X97370853Y-132367680D01*
X97445323Y-132269377D01*
X97521719Y-132214847D01*
X97604680Y-132178733D01*
X97661748Y-132179096D01*
G37*
G36*
X97795521Y-127610009D02*
G01*
X98220821Y-127705233D01*
X98621320Y-127849487D01*
X98654899Y-127864462D01*
X98840681Y-127948700D01*
X99035967Y-127848102D01*
X99228661Y-127762234D01*
X99400760Y-127711874D01*
X99545864Y-127697487D01*
X99657572Y-127719537D01*
X99729483Y-127778488D01*
X99739615Y-127797084D01*
X99755786Y-127891391D01*
X99741250Y-128022759D01*
X99698915Y-128177804D01*
X99631689Y-128343139D01*
X99612532Y-128382159D01*
X99565841Y-128488793D01*
X99549498Y-128561401D01*
X99563713Y-128593850D01*
X99605674Y-128581919D01*
X99667031Y-128571826D01*
X99770360Y-128583811D01*
X99902628Y-128614476D01*
X100050797Y-128660424D01*
X100201834Y-128718257D01*
X100300174Y-128762955D01*
X100442158Y-128837408D01*
X100564309Y-128914762D01*
X100684583Y-129008048D01*
X100820937Y-129130297D01*
X100868491Y-129175358D01*
X100976002Y-129282060D01*
X101065217Y-129378074D01*
X101127784Y-129453853D01*
X101155350Y-129499849D01*
X101155955Y-129503920D01*
X101127801Y-129547939D01*
X101051239Y-129594909D01*
X100938120Y-129641160D01*
X100800292Y-129683019D01*
X100649605Y-129716815D01*
X100497909Y-129738876D01*
X100375818Y-129745661D01*
X100217042Y-129746109D01*
X100380779Y-129974312D01*
X100638063Y-130384685D01*
X100843207Y-130825880D01*
X100996045Y-131297513D01*
X101039779Y-131481867D01*
X101081378Y-131742212D01*
X101104765Y-132037705D01*
X101109985Y-132348340D01*
X101097080Y-132654109D01*
X101066095Y-132935005D01*
X101036284Y-133094754D01*
X100897653Y-133579902D01*
X100708764Y-134031433D01*
X100468737Y-134450894D01*
X100176694Y-134839835D01*
X99850196Y-135182539D01*
X99574204Y-135442347D01*
X99637218Y-135530842D01*
X99745636Y-135727133D01*
X99817606Y-135951512D01*
X99841386Y-136111265D01*
X99843564Y-136261386D01*
X99818990Y-136369136D01*
X99759928Y-136449708D01*
X99658643Y-136518290D01*
X99625287Y-136535608D01*
X99574650Y-136559803D01*
X99526045Y-136578366D01*
X99470582Y-136592185D01*
X99399369Y-136602150D01*
X99303517Y-136609150D01*
X99174135Y-136614074D01*
X99002333Y-136617812D01*
X98779220Y-136621253D01*
X98767371Y-136621422D01*
X98446201Y-136623260D01*
X98179809Y-136618033D01*
X97962637Y-136604568D01*
X97789130Y-136581691D01*
X97653730Y-136548229D01*
X97550882Y-136503007D01*
X97475030Y-136444853D01*
X97420616Y-136372593D01*
X97400566Y-136332745D01*
X97373526Y-136279335D01*
X97341172Y-136251469D01*
X97285496Y-136241858D01*
X97188489Y-136243209D01*
X97180144Y-136243510D01*
X97079023Y-136249436D01*
X97019498Y-136264041D01*
X96982548Y-136296520D01*
X96949733Y-136354900D01*
X96871134Y-136454984D01*
X96744879Y-136531309D01*
X96566358Y-136586465D01*
X96520289Y-136595887D01*
X96421992Y-136607718D01*
X96277029Y-136616343D01*
X96097228Y-136621866D01*
X95894414Y-136624388D01*
X95680414Y-136624014D01*
X95467054Y-136620847D01*
X95266160Y-136614990D01*
X95089558Y-136606546D01*
X94949074Y-136595619D01*
X94856535Y-136582312D01*
X94852264Y-136581319D01*
X94697196Y-136525923D01*
X94593593Y-136443333D01*
X94535761Y-136326556D01*
X94518007Y-136170650D01*
X94536649Y-135985338D01*
X94587268Y-135794890D01*
X94661903Y-135625843D01*
X94699185Y-135566640D01*
X94764158Y-135475394D01*
X94403702Y-135118926D01*
X94143562Y-134844524D01*
X93927890Y-134576993D01*
X93744950Y-134300491D01*
X93600643Y-134035012D01*
X93416079Y-133597467D01*
X93287523Y-133143828D01*
X93253286Y-132926474D01*
X93377363Y-132926474D01*
X93384361Y-132977543D01*
X93403601Y-133067469D01*
X93431535Y-133186324D01*
X93558348Y-133599024D01*
X93737311Y-134004224D01*
X93961704Y-134391026D01*
X94224807Y-134748531D01*
X94519899Y-135065842D01*
X94676621Y-135205419D01*
X94853044Y-135352240D01*
X95003987Y-135243799D01*
X95243992Y-135106225D01*
X95497162Y-135024874D01*
X95755936Y-134999141D01*
X96012753Y-135028425D01*
X96260051Y-135112120D01*
X96490270Y-135249623D01*
X96633572Y-135373918D01*
X96770934Y-135538847D01*
X96879637Y-135724615D01*
X96949238Y-135911751D01*
X96965133Y-135992069D01*
X96981120Y-136111265D01*
X97173569Y-136111265D01*
X97278440Y-136109727D01*
X97337971Y-136101091D01*
X97367432Y-136079321D01*
X97382093Y-136038381D01*
X97384472Y-136027911D01*
X97450195Y-135797228D01*
X97540169Y-135607306D01*
X97664382Y-135439987D01*
X97763168Y-135339450D01*
X97972949Y-135181541D01*
X98209248Y-135070544D01*
X98460349Y-135010044D01*
X98714539Y-135003623D01*
X98816169Y-135017314D01*
X98949713Y-135051118D01*
X99092127Y-135101935D01*
X99226060Y-135162045D01*
X99334161Y-135223730D01*
X99395907Y-135275259D01*
X99444858Y-135315277D01*
X99499128Y-135311048D01*
X99572833Y-135260491D01*
X99588662Y-135246832D01*
X99642493Y-135192929D01*
X99654631Y-135151650D01*
X99634609Y-135103816D01*
X99617297Y-135041798D01*
X99601905Y-134922239D01*
X99588720Y-134748197D01*
X99578032Y-134522731D01*
X99576835Y-134489665D01*
X99569571Y-134293562D01*
X99562098Y-134144751D01*
X99552344Y-134029933D01*
X99538238Y-133935810D01*
X99517707Y-133849082D01*
X99488681Y-133756450D01*
X99449087Y-133644614D01*
X99442277Y-133625823D01*
X99375761Y-133424782D01*
X99337478Y-133263351D01*
X99324503Y-133130859D01*
X99326345Y-133026865D01*
X99340773Y-132960443D01*
X99376008Y-132908705D01*
X99419077Y-132867515D01*
X99510540Y-132801126D01*
X99618581Y-132756115D01*
X99755754Y-132729371D01*
X99934618Y-132717783D01*
X100027871Y-132716684D01*
X100192209Y-132711227D01*
X100324426Y-132696140D01*
X100406749Y-132674504D01*
X100470340Y-132634289D01*
X100559674Y-132561425D01*
X100660015Y-132468387D01*
X100710992Y-132416867D01*
X100802151Y-132325041D01*
X100879951Y-132252673D01*
X100933767Y-132209335D01*
X100950383Y-132201241D01*
X100966423Y-132173306D01*
X100972274Y-132096942D01*
X100968867Y-131983314D01*
X100957138Y-131843584D01*
X100938018Y-131688915D01*
X100912442Y-131530470D01*
X100881848Y-131381581D01*
X100852431Y-131258051D01*
X100827533Y-131158888D01*
X100810575Y-131097440D01*
X100805620Y-131084210D01*
X100773351Y-131074321D01*
X100696471Y-131057782D01*
X100590182Y-131037803D01*
X100564835Y-131033347D01*
X100441768Y-131007176D01*
X100333106Y-130975658D01*
X100260582Y-130945194D01*
X100256097Y-130942414D01*
X100217043Y-130913181D01*
X100195066Y-130879015D01*
X100186662Y-130824367D01*
X100188330Y-130733688D01*
X100192447Y-130659863D01*
X100216436Y-130466075D01*
X100263887Y-130317206D01*
X100274051Y-130296333D01*
X100310313Y-130209197D01*
X100325387Y-130137697D01*
X100322902Y-130115306D01*
X100294823Y-130063855D01*
X100245966Y-129991162D01*
X100188734Y-129913758D01*
X100135533Y-129848175D01*
X100098768Y-129810943D01*
X100092045Y-129807667D01*
X100086328Y-129834027D01*
X100090979Y-129902843D01*
X100099754Y-129965859D01*
X100119609Y-130135938D01*
X100130342Y-130333886D01*
X100132211Y-130542634D01*
X100125473Y-130745112D01*
X100110387Y-130924253D01*
X100087211Y-131062988D01*
X100082916Y-131079761D01*
X99952639Y-131444740D01*
X99765335Y-131800274D01*
X99524358Y-132142337D01*
X99233059Y-132466901D01*
X98894790Y-132769936D01*
X98512903Y-133047415D01*
X98371022Y-133136861D01*
X98252494Y-133203905D01*
X98114499Y-133274330D01*
X97970367Y-133342212D01*
X97833431Y-133401627D01*
X97717022Y-133446650D01*
X97634472Y-133471359D01*
X97611698Y-133474272D01*
X97573931Y-133499566D01*
X97538090Y-133558236D01*
X97519177Y-133624465D01*
X97518723Y-133634288D01*
X97537893Y-133674008D01*
X97589481Y-133746239D01*
X97664604Y-133839116D01*
X97718775Y-133901496D01*
X97847211Y-134054072D01*
X97933680Y-134178964D01*
X97983759Y-134286095D01*
X98003028Y-134385391D01*
X98003688Y-134408434D01*
X97975427Y-134529155D01*
X97898571Y-134640023D01*
X97785011Y-134735229D01*
X97646638Y-134808961D01*
X97495343Y-134855409D01*
X97343017Y-134868764D01*
X97201550Y-134843213D01*
X97155062Y-134823110D01*
X97049628Y-134741705D01*
X96955341Y-134620649D01*
X96888155Y-134480722D01*
X96885141Y-134471578D01*
X96821779Y-134319178D01*
X96730342Y-134179464D01*
X96604628Y-134046772D01*
X96438434Y-133915436D01*
X96225560Y-133779794D01*
X95979388Y-133644363D01*
X95776282Y-133532641D01*
X95628678Y-133437999D01*
X95534415Y-133358801D01*
X95491335Y-133293413D01*
X95487936Y-133272148D01*
X95504399Y-133193179D01*
X95544751Y-133101385D01*
X95595431Y-133023644D01*
X95629069Y-132992403D01*
X95667831Y-132963907D01*
X95654020Y-132941118D01*
X95631294Y-132926837D01*
X95492362Y-132829447D01*
X95330128Y-132692843D01*
X95155347Y-132527961D01*
X94978776Y-132345732D01*
X94811172Y-132157093D01*
X94663293Y-131972978D01*
X94583196Y-131861429D01*
X94498229Y-131717078D01*
X94409932Y-131535236D01*
X94327579Y-131337707D01*
X94260447Y-131146295D01*
X94226174Y-131022075D01*
X94204775Y-130888057D01*
X94190481Y-130713007D01*
X94183553Y-130516125D01*
X94184253Y-130316612D01*
X94192841Y-130133669D01*
X94209580Y-129986496D01*
X94211906Y-129973442D01*
X94227374Y-129882574D01*
X94231116Y-129827196D01*
X94219529Y-129809913D01*
X94189006Y-129833330D01*
X94135942Y-129900052D01*
X94056732Y-130012683D01*
X93960216Y-130155298D01*
X93801135Y-130407812D01*
X93674889Y-130646673D01*
X93568085Y-130897443D01*
X93559428Y-130920250D01*
X93513539Y-131050336D01*
X93493874Y-131138304D01*
X93501801Y-131197332D01*
X93538688Y-131240594D01*
X93596418Y-131276206D01*
X93715365Y-131360192D01*
X93830411Y-131475247D01*
X93926239Y-131603088D01*
X93987527Y-131725431D01*
X93995547Y-131752562D01*
X94014353Y-131844211D01*
X94036112Y-131972401D01*
X94056885Y-132113446D01*
X94062098Y-132152864D01*
X94083215Y-132289534D01*
X94109003Y-132416422D01*
X94134844Y-132511706D01*
X94142280Y-132531742D01*
X94211080Y-132653595D01*
X94300573Y-132753167D01*
X94395229Y-132814105D01*
X94417204Y-132821218D01*
X94491134Y-132868463D01*
X94547473Y-132959228D01*
X94585231Y-133079097D01*
X94603416Y-133213656D01*
X94601039Y-133348488D01*
X94577108Y-133469180D01*
X94530636Y-133561317D01*
X94471184Y-133606995D01*
X94390475Y-133624830D01*
X94303769Y-133614631D01*
X94204602Y-133572788D01*
X94086509Y-133495688D01*
X93943026Y-133379720D01*
X93767687Y-133221273D01*
X93748466Y-133203249D01*
X93632005Y-133095546D01*
X93529948Y-133004544D01*
X93450850Y-132937615D01*
X93403268Y-132902131D01*
X93394645Y-132898377D01*
X93381245Y-132903629D01*
X93377363Y-132926474D01*
X93253286Y-132926474D01*
X93214435Y-132679841D01*
X93196274Y-132211253D01*
X93232498Y-131743811D01*
X93322568Y-131283262D01*
X93465942Y-130835352D01*
X93662078Y-130405828D01*
X93910438Y-130000436D01*
X93990735Y-129890083D01*
X94099472Y-129746109D01*
X93937439Y-129745661D01*
X93793248Y-129736648D01*
X93640179Y-129712786D01*
X93490031Y-129677717D01*
X93354604Y-129635082D01*
X93245696Y-129588522D01*
X93175107Y-129541678D01*
X93154046Y-129503920D01*
X93174303Y-129465141D01*
X93366217Y-129465141D01*
X93393881Y-129489314D01*
X93467019Y-129516809D01*
X93570853Y-129544284D01*
X93690603Y-129568401D01*
X93811491Y-129585818D01*
X93918738Y-129593195D01*
X93932941Y-129593228D01*
X94052300Y-129582509D01*
X94171009Y-129557429D01*
X94199750Y-129548219D01*
X94304860Y-129513218D01*
X94374038Y-129502552D01*
X94411569Y-129523156D01*
X94421737Y-129581967D01*
X94408828Y-129685921D01*
X94378186Y-129837040D01*
X94352832Y-129995681D01*
X94335584Y-130187192D01*
X94326674Y-130394460D01*
X94326337Y-130600373D01*
X94334807Y-130787820D01*
X94352316Y-130939688D01*
X94362443Y-130988830D01*
X94415337Y-131155078D01*
X94495296Y-131349263D01*
X94592767Y-131551014D01*
X94698194Y-131739958D01*
X94760404Y-131837392D01*
X94898652Y-132020173D01*
X95073000Y-132218839D01*
X95268077Y-132417247D01*
X95468516Y-132599253D01*
X95548556Y-132665289D01*
X95775883Y-132846747D01*
X95789975Y-132735245D01*
X95972786Y-132735245D01*
X95976133Y-132854027D01*
X95990162Y-132938066D01*
X95991912Y-132942964D01*
X96032148Y-132985784D01*
X96118849Y-133041888D01*
X96240705Y-133106202D01*
X96386407Y-133173655D01*
X96544646Y-133239171D01*
X96704113Y-133297679D01*
X96853498Y-133344104D01*
X96927673Y-133362741D01*
X97080238Y-133378944D01*
X97265649Y-133370823D01*
X97461851Y-133339754D01*
X97521452Y-133325669D01*
X97656018Y-133285015D01*
X97809467Y-133229188D01*
X97964934Y-133165335D01*
X98105551Y-133100600D01*
X98214453Y-133042132D01*
X98255413Y-133014701D01*
X98311272Y-132936684D01*
X98340837Y-132819316D01*
X98344729Y-132677562D01*
X98323566Y-132526389D01*
X98277969Y-132380763D01*
X98224948Y-132279281D01*
X98067798Y-132091086D01*
X97873996Y-131943419D01*
X97652524Y-131836907D01*
X97412367Y-131772179D01*
X97162510Y-131749862D01*
X96911935Y-131770582D01*
X96669629Y-131834968D01*
X96444573Y-131943647D01*
X96245754Y-132097247D01*
X96205390Y-132138237D01*
X96123735Y-132233967D01*
X96054647Y-132329824D01*
X96016551Y-132397925D01*
X95994023Y-132484446D01*
X95979092Y-132604469D01*
X95972786Y-132735245D01*
X95789975Y-132735245D01*
X95797951Y-132672145D01*
X95825241Y-132537999D01*
X95869391Y-132396161D01*
X95893743Y-132336505D01*
X96027036Y-132114933D01*
X96208150Y-131928998D01*
X96438148Y-131777789D01*
X96657303Y-131681487D01*
X96835367Y-131636753D01*
X97047057Y-131614559D01*
X97269724Y-131614905D01*
X97480718Y-131637791D01*
X97652697Y-131681487D01*
X97912392Y-131801500D01*
X98131093Y-131955206D01*
X98304617Y-132137860D01*
X98428786Y-132344719D01*
X98499417Y-132571038D01*
X98510827Y-132655195D01*
X98522719Y-132751252D01*
X98536988Y-132817384D01*
X98548501Y-132837756D01*
X98578599Y-132819400D01*
X98645226Y-132769351D01*
X98738690Y-132695144D01*
X98849298Y-132604310D01*
X98855121Y-132599453D01*
X99174453Y-132302667D01*
X99446427Y-131986382D01*
X99667740Y-131655546D01*
X99835087Y-131315108D01*
X99945165Y-130970016D01*
X99946271Y-130965230D01*
X99964315Y-130841041D01*
X99974035Y-130673517D01*
X99975692Y-130479335D01*
X99969552Y-130275169D01*
X99955878Y-130077695D01*
X99934935Y-129903588D01*
X99928895Y-129867350D01*
X99901203Y-129704794D01*
X99888919Y-129594653D01*
X99896095Y-129529795D01*
X99926785Y-129503087D01*
X99985042Y-129507398D01*
X100074919Y-129535593D01*
X100110251Y-129548219D01*
X100219748Y-129576106D01*
X100343751Y-129591971D01*
X100377060Y-129593228D01*
X100480933Y-129587672D01*
X100600698Y-129571568D01*
X100721576Y-129548256D01*
X100828787Y-129521076D01*
X100907552Y-129493369D01*
X100943093Y-129468474D01*
X100943783Y-129465141D01*
X100920900Y-129422817D01*
X100859165Y-129354400D01*
X100768953Y-129269178D01*
X100660637Y-129176439D01*
X100544591Y-129085471D01*
X100431189Y-129005561D01*
X100428509Y-129003806D01*
X100149580Y-128852773D01*
X99853805Y-128755907D01*
X99640442Y-128718982D01*
X99510667Y-128706701D01*
X99424407Y-128707849D01*
X99365885Y-128723232D01*
X99345983Y-128734005D01*
X99271807Y-128766895D01*
X99220780Y-128776181D01*
X99193186Y-128781915D01*
X99174947Y-128806595D01*
X99163258Y-128861441D01*
X99155316Y-128957672D01*
X99150389Y-129057860D01*
X99134431Y-129245557D01*
X99101918Y-129385104D01*
X99047600Y-129487906D01*
X98966230Y-129565371D01*
X98897840Y-129606757D01*
X98751854Y-129657367D01*
X98569145Y-129681033D01*
X98361417Y-129680150D01*
X98140373Y-129657111D01*
X97917716Y-129614310D01*
X97705149Y-129554140D01*
X97514375Y-129478994D01*
X97357097Y-129391268D01*
X97245018Y-129293354D01*
X97223198Y-129264240D01*
X97165170Y-129124586D01*
X97156158Y-128966340D01*
X97193732Y-128802970D01*
X97275459Y-128647944D01*
X97350635Y-128558502D01*
X97418516Y-128508924D01*
X97523144Y-128452588D01*
X97643371Y-128400717D01*
X97658787Y-128394980D01*
X97835577Y-128323302D01*
X97954837Y-128255170D01*
X98018986Y-128185146D01*
X98030445Y-128107792D01*
X97991634Y-128017671D01*
X97904974Y-127909343D01*
X97884597Y-127887613D01*
X97735197Y-127730998D01*
X97278173Y-127719851D01*
X96823704Y-127728626D01*
X96411156Y-127778581D01*
X96037435Y-127870296D01*
X95699443Y-128004353D01*
X95661271Y-128023245D01*
X95590929Y-128061836D01*
X95566556Y-128090987D01*
X95579222Y-128126968D01*
X95593073Y-128147510D01*
X95633554Y-128253769D01*
X95632913Y-128382449D01*
X95594928Y-128515240D01*
X95523375Y-128633831D01*
X95484264Y-128674962D01*
X95365811Y-128746863D01*
X95219363Y-128784242D01*
X95070445Y-128781050D01*
X95052309Y-128777357D01*
X94970268Y-128753686D01*
X94914452Y-128728671D01*
X94907814Y-128723458D01*
X94860862Y-128710734D01*
X94770102Y-128711453D01*
X94650345Y-128723621D01*
X94516404Y-128745245D01*
X94383094Y-128774330D01*
X94265227Y-128808884D01*
X94260370Y-128810590D01*
X94139027Y-128861993D01*
X94000075Y-128933183D01*
X93881492Y-129003806D01*
X93768286Y-129083325D01*
X93652180Y-129174132D01*
X93543549Y-129266939D01*
X93452764Y-129352458D01*
X93390201Y-129421402D01*
X93366232Y-129464483D01*
X93366217Y-129465141D01*
X93174303Y-129465141D01*
X93175021Y-129463767D01*
X93232379Y-129392252D01*
X93317766Y-129298923D01*
X93422829Y-129193329D01*
X93441509Y-129175358D01*
X93586346Y-129041678D01*
X93709623Y-128940936D01*
X93829297Y-128860102D01*
X93963326Y-128786145D01*
X94009826Y-128762955D01*
X94178371Y-128689226D01*
X94346564Y-128631251D01*
X94501306Y-128592300D01*
X94629500Y-128575644D01*
X94718047Y-128584556D01*
X94720505Y-128585462D01*
X94754807Y-128588553D01*
X94755687Y-128576417D01*
X94736877Y-128537508D01*
X94698974Y-128459580D01*
X94649495Y-128358082D01*
X94639313Y-128337216D01*
X94553000Y-128115800D01*
X94523580Y-127953707D01*
X94518874Y-127853959D01*
X94527139Y-127794744D01*
X94554477Y-127756366D01*
X94593557Y-127727838D01*
X94648873Y-127698002D01*
X94706024Y-127688494D01*
X94787446Y-127697674D01*
X94847046Y-127709336D01*
X94962396Y-127741641D01*
X95100980Y-127792356D01*
X95232980Y-127850557D01*
X95234123Y-127851119D01*
X95450119Y-127957406D01*
X95645501Y-127868815D01*
X96045452Y-127719111D01*
X96470386Y-127618365D01*
X96910346Y-127566589D01*
X97355377Y-127563799D01*
X97795521Y-127610009D01*
G37*
D12*
%TO.C,C9*%
X141235000Y-104875000D02*
X141235000Y-104560000D01*
X141235000Y-104875000D02*
X135995000Y-104875000D01*
X141235000Y-102450000D02*
X141235000Y-102135000D01*
X141235000Y-102135000D02*
X135995000Y-102135000D01*
X135995000Y-104875000D02*
X135995000Y-104560000D01*
X135995000Y-102450000D02*
X135995000Y-102135000D01*
%TO.C,J3*%
X207578000Y-130810000D02*
X207578000Y-118050000D01*
X207578000Y-130810000D02*
X204918000Y-130810000D01*
X207578000Y-118050000D02*
X204918000Y-118050000D01*
X206248000Y-133410000D02*
X204918000Y-133410000D01*
X204918000Y-133410000D02*
X204918000Y-132080000D01*
X204918000Y-130810000D02*
X204918000Y-118050000D01*
%TO.C,U7*%
X96410000Y-105985000D02*
X96410000Y-123885000D01*
X96410000Y-123885000D02*
X101710000Y-123885000D01*
X98060000Y-105985000D02*
X96410000Y-105985000D01*
X101710000Y-105985000D02*
X100060000Y-105985000D01*
X101710000Y-123885000D02*
X101710000Y-105985000D01*
X98060000Y-105985000D02*
G75*
G03*
X100060000Y-105985000I1000000J0D01*
G01*
%TO.C,U2*%
X134655000Y-105985000D02*
X134655000Y-126425000D01*
X134655000Y-126425000D02*
X139955000Y-126425000D01*
X136305000Y-105985000D02*
X134655000Y-105985000D01*
X139955000Y-105985000D02*
X138305000Y-105985000D01*
X139955000Y-126425000D02*
X139955000Y-105985000D01*
X136305000Y-105985000D02*
G75*
G03*
X138305000Y-105985000I1000000J0D01*
G01*
%TO.C,C3*%
X182820000Y-124360000D02*
X182820000Y-127100000D01*
X182820000Y-124360000D02*
X188060000Y-124360000D01*
X182820000Y-127100000D02*
X188060000Y-127100000D01*
X188060000Y-124360000D02*
X188060000Y-127100000D01*
%TO.C,C1*%
X198855000Y-90270000D02*
X198855000Y-87530000D01*
X198855000Y-90270000D02*
X193615000Y-90270000D01*
X198855000Y-87530000D02*
X193615000Y-87530000D01*
X193615000Y-90270000D02*
X193615000Y-87530000D01*
%TO.C,C11*%
X166635000Y-104875000D02*
X166635000Y-104560000D01*
X166635000Y-104875000D02*
X161395000Y-104875000D01*
X166635000Y-102450000D02*
X166635000Y-102135000D01*
X166635000Y-102135000D02*
X161395000Y-102135000D01*
X161395000Y-104875000D02*
X161395000Y-104560000D01*
X161395000Y-102450000D02*
X161395000Y-102135000D01*
%TO.C,C10*%
X153935000Y-104875000D02*
X153935000Y-104560000D01*
X153935000Y-104875000D02*
X148695000Y-104875000D01*
X153935000Y-102450000D02*
X153935000Y-102135000D01*
X153935000Y-102135000D02*
X148695000Y-102135000D01*
X148695000Y-104875000D02*
X148695000Y-104560000D01*
X148695000Y-102450000D02*
X148695000Y-102135000D01*
%TO.C,U1*%
X192930000Y-91380000D02*
X192930000Y-127060000D01*
X192930000Y-127060000D02*
X198230000Y-127060000D01*
X194580000Y-91380000D02*
X192930000Y-91380000D01*
X198230000Y-91380000D02*
X196580000Y-91380000D01*
X198230000Y-127060000D02*
X198230000Y-91380000D01*
X194580000Y-91380000D02*
G75*
G03*
X196580000Y-91380000I1000000J0D01*
G01*
%TO.C,U4*%
X159910000Y-105985000D02*
X159910000Y-131505000D01*
X159910000Y-131505000D02*
X165210000Y-131505000D01*
X161560000Y-105985000D02*
X159910000Y-105985000D01*
X165210000Y-105985000D02*
X163560000Y-105985000D01*
X165210000Y-131505000D02*
X165210000Y-105985000D01*
X161560000Y-105985000D02*
G75*
G03*
X163560000Y-105985000I1000000J0D01*
G01*
%TO.C,C8*%
X128535000Y-104875000D02*
X128535000Y-104560000D01*
X128535000Y-104875000D02*
X123295000Y-104875000D01*
X128535000Y-102450000D02*
X128535000Y-102135000D01*
X128535000Y-102135000D02*
X123295000Y-102135000D01*
X123295000Y-104875000D02*
X123295000Y-104560000D01*
X123295000Y-102450000D02*
X123295000Y-102135000D01*
%TO.C,U9*%
X109110000Y-105985000D02*
X109110000Y-123885000D01*
X109110000Y-123885000D02*
X114410000Y-123885000D01*
X110760000Y-105985000D02*
X109110000Y-105985000D01*
X114410000Y-105985000D02*
X112760000Y-105985000D01*
X114410000Y-123885000D02*
X114410000Y-105985000D01*
X110760000Y-105985000D02*
G75*
G03*
X112760000Y-105985000I1000000J0D01*
G01*
%TO.C,U6*%
X172755000Y-105985000D02*
X172755000Y-131505000D01*
X172755000Y-131505000D02*
X178055000Y-131505000D01*
X174405000Y-105985000D02*
X172755000Y-105985000D01*
X178055000Y-105985000D02*
X176405000Y-105985000D01*
X178055000Y-131505000D02*
X178055000Y-105985000D01*
X174405000Y-105985000D02*
G75*
G03*
X176405000Y-105985000I1000000J0D01*
G01*
%TO.C,C5*%
X201395225Y-111555000D02*
X201895225Y-111555000D01*
X201645225Y-111305000D02*
X201645225Y-111805000D01*
X204200000Y-110450000D02*
X204200000Y-111990000D01*
X204200000Y-114070000D02*
X204200000Y-115610000D01*
X204240000Y-110450000D02*
X204240000Y-111990000D01*
X204240000Y-114070000D02*
X204240000Y-115610000D01*
X204280000Y-110451000D02*
X204280000Y-111990000D01*
X204280000Y-114070000D02*
X204280000Y-115609000D01*
X204320000Y-110452000D02*
X204320000Y-111990000D01*
X204320000Y-114070000D02*
X204320000Y-115608000D01*
X204360000Y-110454000D02*
X204360000Y-111990000D01*
X204360000Y-114070000D02*
X204360000Y-115606000D01*
X204400000Y-110457000D02*
X204400000Y-111990000D01*
X204400000Y-114070000D02*
X204400000Y-115603000D01*
X204440000Y-110461000D02*
X204440000Y-111990000D01*
X204440000Y-114070000D02*
X204440000Y-115599000D01*
X204480000Y-110465000D02*
X204480000Y-111990000D01*
X204480000Y-114070000D02*
X204480000Y-115595000D01*
X204520000Y-110469000D02*
X204520000Y-111990000D01*
X204520000Y-114070000D02*
X204520000Y-115591000D01*
X204560000Y-110474000D02*
X204560000Y-111990000D01*
X204560000Y-114070000D02*
X204560000Y-115586000D01*
X204600000Y-110480000D02*
X204600000Y-111990000D01*
X204600000Y-114070000D02*
X204600000Y-115580000D01*
X204640000Y-110487000D02*
X204640000Y-111990000D01*
X204640000Y-114070000D02*
X204640000Y-115573000D01*
X204680000Y-110494000D02*
X204680000Y-111990000D01*
X204680000Y-114070000D02*
X204680000Y-115566000D01*
X204720000Y-110502000D02*
X204720000Y-111990000D01*
X204720000Y-114070000D02*
X204720000Y-115558000D01*
X204760000Y-110510000D02*
X204760000Y-111990000D01*
X204760000Y-114070000D02*
X204760000Y-115550000D01*
X204800000Y-110519000D02*
X204800000Y-111990000D01*
X204800000Y-114070000D02*
X204800000Y-115541000D01*
X204840000Y-110529000D02*
X204840000Y-111990000D01*
X204840000Y-114070000D02*
X204840000Y-115531000D01*
X204880000Y-110539000D02*
X204880000Y-111990000D01*
X204880000Y-114070000D02*
X204880000Y-115521000D01*
X204921000Y-110550000D02*
X204921000Y-111990000D01*
X204921000Y-114070000D02*
X204921000Y-115510000D01*
X204961000Y-110562000D02*
X204961000Y-111990000D01*
X204961000Y-114070000D02*
X204961000Y-115498000D01*
X205001000Y-110575000D02*
X205001000Y-111990000D01*
X205001000Y-114070000D02*
X205001000Y-115485000D01*
X205041000Y-110588000D02*
X205041000Y-111990000D01*
X205041000Y-114070000D02*
X205041000Y-115472000D01*
X205081000Y-110602000D02*
X205081000Y-111990000D01*
X205081000Y-114070000D02*
X205081000Y-115458000D01*
X205121000Y-110616000D02*
X205121000Y-111990000D01*
X205121000Y-114070000D02*
X205121000Y-115444000D01*
X205161000Y-110632000D02*
X205161000Y-111990000D01*
X205161000Y-114070000D02*
X205161000Y-115428000D01*
X205201000Y-110648000D02*
X205201000Y-111990000D01*
X205201000Y-114070000D02*
X205201000Y-115412000D01*
X205241000Y-110665000D02*
X205241000Y-111990000D01*
X205241000Y-114070000D02*
X205241000Y-115395000D01*
X205281000Y-110682000D02*
X205281000Y-111990000D01*
X205281000Y-114070000D02*
X205281000Y-115378000D01*
X205321000Y-110701000D02*
X205321000Y-111990000D01*
X205321000Y-114070000D02*
X205321000Y-115359000D01*
X205361000Y-110720000D02*
X205361000Y-111990000D01*
X205361000Y-114070000D02*
X205361000Y-115340000D01*
X205401000Y-110740000D02*
X205401000Y-111990000D01*
X205401000Y-114070000D02*
X205401000Y-115320000D01*
X205441000Y-110762000D02*
X205441000Y-111990000D01*
X205441000Y-114070000D02*
X205441000Y-115298000D01*
X205481000Y-110783000D02*
X205481000Y-111990000D01*
X205481000Y-114070000D02*
X205481000Y-115277000D01*
X205521000Y-110806000D02*
X205521000Y-111990000D01*
X205521000Y-114070000D02*
X205521000Y-115254000D01*
X205561000Y-110830000D02*
X205561000Y-111990000D01*
X205561000Y-114070000D02*
X205561000Y-115230000D01*
X205601000Y-110855000D02*
X205601000Y-111990000D01*
X205601000Y-114070000D02*
X205601000Y-115205000D01*
X205641000Y-110881000D02*
X205641000Y-111990000D01*
X205641000Y-114070000D02*
X205641000Y-115179000D01*
X205681000Y-110908000D02*
X205681000Y-111990000D01*
X205681000Y-114070000D02*
X205681000Y-115152000D01*
X205721000Y-110935000D02*
X205721000Y-111990000D01*
X205721000Y-114070000D02*
X205721000Y-115125000D01*
X205761000Y-110965000D02*
X205761000Y-111990000D01*
X205761000Y-114070000D02*
X205761000Y-115095000D01*
X205801000Y-110995000D02*
X205801000Y-111990000D01*
X205801000Y-114070000D02*
X205801000Y-115065000D01*
X205841000Y-111026000D02*
X205841000Y-111990000D01*
X205841000Y-114070000D02*
X205841000Y-115034000D01*
X205881000Y-111059000D02*
X205881000Y-111990000D01*
X205881000Y-114070000D02*
X205881000Y-115001000D01*
X205921000Y-111093000D02*
X205921000Y-111990000D01*
X205921000Y-114070000D02*
X205921000Y-114967000D01*
X205961000Y-111129000D02*
X205961000Y-111990000D01*
X205961000Y-114070000D02*
X205961000Y-114931000D01*
X206001000Y-111166000D02*
X206001000Y-111990000D01*
X206001000Y-114070000D02*
X206001000Y-114894000D01*
X206041000Y-111204000D02*
X206041000Y-111990000D01*
X206041000Y-114070000D02*
X206041000Y-114856000D01*
X206081000Y-111245000D02*
X206081000Y-111990000D01*
X206081000Y-114070000D02*
X206081000Y-114815000D01*
X206121000Y-111287000D02*
X206121000Y-111990000D01*
X206121000Y-114070000D02*
X206121000Y-114773000D01*
X206161000Y-111331000D02*
X206161000Y-111990000D01*
X206161000Y-114070000D02*
X206161000Y-114729000D01*
X206201000Y-111377000D02*
X206201000Y-111990000D01*
X206201000Y-114070000D02*
X206201000Y-114683000D01*
X206241000Y-111425000D02*
X206241000Y-114635000D01*
X206281000Y-111476000D02*
X206281000Y-114584000D01*
X206321000Y-111530000D02*
X206321000Y-114530000D01*
X206361000Y-111587000D02*
X206361000Y-114473000D01*
X206401000Y-111647000D02*
X206401000Y-114413000D01*
X206441000Y-111711000D02*
X206441000Y-114349000D01*
X206481000Y-111779000D02*
X206481000Y-114281000D01*
X206521000Y-111852000D02*
X206521000Y-114208000D01*
X206561000Y-111932000D02*
X206561000Y-114128000D01*
X206601000Y-112019000D02*
X206601000Y-114041000D01*
X206641000Y-112115000D02*
X206641000Y-113945000D01*
X206681000Y-112225000D02*
X206681000Y-113835000D01*
X206721000Y-112353000D02*
X206721000Y-113707000D01*
X206761000Y-112512000D02*
X206761000Y-113548000D01*
X206801000Y-112746000D02*
X206801000Y-113314000D01*
X206820000Y-113030000D02*
G75*
G03*
X206820000Y-113030000I-2620000J0D01*
G01*
%TO.C,C13*%
X187225000Y-108030000D02*
X187540000Y-108030000D01*
X187225000Y-108030000D02*
X187225000Y-102790000D01*
X189650000Y-108030000D02*
X189965000Y-108030000D01*
X189965000Y-108030000D02*
X189965000Y-102790000D01*
X187225000Y-102790000D02*
X187540000Y-102790000D01*
X189650000Y-102790000D02*
X189965000Y-102790000D01*
%TO.C,J2*%
X207705000Y-89535000D02*
X207705000Y-81855000D01*
X207705000Y-89535000D02*
X205045000Y-89535000D01*
X207705000Y-81855000D02*
X205045000Y-81855000D01*
X206375000Y-92135000D02*
X205045000Y-92135000D01*
X205045000Y-92135000D02*
X205045000Y-90805000D01*
X205045000Y-89535000D02*
X205045000Y-81855000D01*
%TO.C,C12*%
X179335000Y-104875000D02*
X179335000Y-104560000D01*
X179335000Y-104875000D02*
X174095000Y-104875000D01*
X179335000Y-102450000D02*
X179335000Y-102135000D01*
X179335000Y-102135000D02*
X174095000Y-102135000D01*
X174095000Y-104875000D02*
X174095000Y-104560000D01*
X174095000Y-102450000D02*
X174095000Y-102135000D01*
%TO.C,U3*%
X147355000Y-105985000D02*
X147355000Y-126425000D01*
X147355000Y-126425000D02*
X152655000Y-126425000D01*
X149005000Y-105985000D02*
X147355000Y-105985000D01*
X152655000Y-105985000D02*
X151005000Y-105985000D01*
X152655000Y-126425000D02*
X152655000Y-105985000D01*
X149005000Y-105985000D02*
G75*
G03*
X151005000Y-105985000I1000000J0D01*
G01*
%TO.C,C7*%
X115690000Y-104875000D02*
X115690000Y-104560000D01*
X115690000Y-104875000D02*
X110450000Y-104875000D01*
X115690000Y-102450000D02*
X115690000Y-102135000D01*
X115690000Y-102135000D02*
X110450000Y-102135000D01*
X110450000Y-104875000D02*
X110450000Y-104560000D01*
X110450000Y-102450000D02*
X110450000Y-102135000D01*
%TO.C,C6*%
X102990000Y-104875000D02*
X102990000Y-104560000D01*
X102990000Y-104875000D02*
X97750000Y-104875000D01*
X102990000Y-102450000D02*
X102990000Y-102135000D01*
X102990000Y-102135000D02*
X97750000Y-102135000D01*
X97750000Y-104875000D02*
X97750000Y-104560000D01*
X97750000Y-102450000D02*
X97750000Y-102135000D01*
%TO.C,Y1*%
X187945000Y-115075000D02*
X187945000Y-121325000D01*
X182895000Y-115075000D02*
X182895000Y-121325000D01*
X187945000Y-115075000D02*
G75*
G03*
X182895000Y-115075000I-2525000J0D01*
G01*
X182895000Y-121325000D02*
G75*
G03*
X187945000Y-121325000I2525000J0D01*
G01*
%TO.C,SW1*%
X188845000Y-95710000D02*
X188845000Y-94210000D01*
X187595000Y-91710000D02*
X183095000Y-91710000D01*
X183095000Y-98210000D02*
X187595000Y-98210000D01*
X181845000Y-94210000D02*
X181845000Y-95710000D01*
%TO.C,C2*%
X182820000Y-109120000D02*
X182820000Y-111860000D01*
X182820000Y-109120000D02*
X188060000Y-109120000D01*
X182820000Y-111860000D02*
X188060000Y-111860000D01*
X188060000Y-109120000D02*
X188060000Y-111860000D01*
%TO.C,R1*%
X182650000Y-88900000D02*
X183420000Y-88900000D01*
X183420000Y-87530000D02*
X183420000Y-90270000D01*
X183420000Y-90270000D02*
X189960000Y-90270000D01*
X189960000Y-87530000D02*
X183420000Y-87530000D01*
X189960000Y-90270000D02*
X189960000Y-87530000D01*
X190730000Y-88900000D02*
X189960000Y-88900000D01*
%TO.C,U5*%
X121955000Y-105985000D02*
X121955000Y-131505000D01*
X121955000Y-131505000D02*
X127255000Y-131505000D01*
X123605000Y-105985000D02*
X121955000Y-105985000D01*
X127255000Y-105985000D02*
X125605000Y-105985000D01*
X127255000Y-131505000D02*
X127255000Y-105985000D01*
X123605000Y-105985000D02*
G75*
G03*
X125605000Y-105985000I1000000J0D01*
G01*
%TO.C,J4*%
X207705000Y-105380000D02*
X207705000Y-95160000D01*
X207705000Y-105380000D02*
X205045000Y-105380000D01*
X207705000Y-95160000D02*
X205045000Y-95160000D01*
X206375000Y-107980000D02*
X205045000Y-107980000D01*
X205045000Y-107980000D02*
X205045000Y-106650000D01*
X205045000Y-105380000D02*
X205045000Y-95160000D01*
%TD*%
M02*
