M48
; DRILL file {KiCad 7.0.3} date Sun 28 May 2023 09:57:58 PM +08
; FORMAT={-:-/ absolute / inch / decimal}
; #@! TF.CreationDate,2023-05-28T21:57:58+08:00
; #@! TF.GenerationSoftware,Kicad,Pcbnew,7.0.3
; #@! TF.FileFunction,Plated,1,2,PTH
FMAT,2
INCH
; #@! TA.AperFunction,Plated,PTH,ViaDrill
T1C0.0157
; #@! TA.AperFunction,Plated,PTH,ComponentDrill
T2C0.0315
%
G90
G05
T1
X2.95Y-3.39
X3.7Y-3.18
X3.8Y-3.21
X3.9Y-3.24
X4.0Y-3.27
X4.1Y-3.3
X4.2Y-3.39
X4.3Y-3.36
X4.35Y-3.15
X4.4Y-3.33
X4.5Y-2.625
X4.6Y-2.655
X4.7Y-2.685
X4.8Y-2.715
X4.9Y-2.745
X5.0Y-2.775
X5.15Y-3.12
X5.25Y-3.09
X5.41Y-2.95
X5.41Y-3.3975
X5.45Y-2.555
X5.5Y-2.98
X5.5Y-3.4
X5.55Y-2.92
X5.6Y-3.15
X5.6Y-3.4
X5.65Y-2.64
X5.75Y-3.01
X5.75Y-3.4
T2
X3.75Y-2.555
X3.75Y-2.855
X3.85Y-2.555
X3.85Y-2.855
X3.95Y-2.555
X3.95Y-2.855
X4.05Y-2.555
X4.05Y-2.855
X4.15Y-2.555
X4.15Y-2.855
X4.25Y-2.555
X4.25Y-2.855
X4.35Y-2.555
X4.35Y-2.855
X4.45Y-2.555
X4.45Y-2.855
X4.55Y-2.555
X4.55Y-2.855
X4.65Y-2.555
X4.65Y-2.855
X4.75Y-2.555
X4.75Y-2.855
X4.85Y-2.555
X4.85Y-2.855
X4.95Y-2.555
X4.95Y-2.855
X5.05Y-2.555
X5.05Y-2.855
X5.75Y-2.7566
X5.75Y-2.855
T0
M30
