%TF.GenerationSoftware,KiCad,Pcbnew,7.0.3*%
%TF.CreationDate,2023-05-28T21:58:01+08:00*%
%TF.ProjectId,CartdrigeDev,43617274-6472-4696-9765-4465762e6b69,rev?*%
%TF.SameCoordinates,Original*%
%TF.FileFunction,Copper,L2,Bot*%
%TF.FilePolarity,Positive*%
%FSLAX46Y46*%
G04 Gerber Fmt 4.6, Leading zero omitted, Abs format (unit mm)*
G04 Created by KiCad (PCBNEW 7.0.3) date 2023-05-28 21:58:01*
%MOMM*%
%LPD*%
G01*
G04 APERTURE LIST*
%TA.AperFunction,ComponentPad*%
%ADD10C,1.600000*%
%TD*%
%TA.AperFunction,ConnectorPad*%
%ADD11R,1.780000X7.620000*%
%TD*%
%TA.AperFunction,ComponentPad*%
%ADD12R,1.600000X2.400000*%
%TD*%
%TA.AperFunction,ComponentPad*%
%ADD13O,1.600000X2.400000*%
%TD*%
%TA.AperFunction,ViaPad*%
%ADD14C,0.800000*%
%TD*%
%TA.AperFunction,Conductor*%
%ADD15C,0.500000*%
%TD*%
%TA.AperFunction,Conductor*%
%ADD16C,0.300000*%
%TD*%
%TA.AperFunction,Conductor*%
%ADD17C,0.250000*%
%TD*%
G04 APERTURE END LIST*
D10*
%TO.P,C1,1*%
%TO.N,+5V*%
X146050000Y-72517000D03*
%TO.P,C1,2*%
%TO.N,GND*%
X146050000Y-70017000D03*
%TD*%
D11*
%TO.P,J2,1,Pin_1*%
%TO.N,GND*%
X148590000Y-91694000D03*
%TO.P,J2,3,Pin_3*%
%TO.N,/A11*%
X146050000Y-91694000D03*
%TO.P,J2,5,Pin_5*%
%TO.N,/A10*%
X143510000Y-91694000D03*
%TO.P,J2,7,Pin_7*%
%TO.N,/A9*%
X140970000Y-91694000D03*
%TO.P,J2,9,Pin_9*%
%TO.N,/A8*%
X138430000Y-91694000D03*
%TO.P,J2,11,Pin_11*%
%TO.N,/A7*%
X135890000Y-91694000D03*
%TO.P,J2,13,Pin_13*%
%TO.N,/A6*%
X133350000Y-91694000D03*
%TO.P,J2,15,Pin_15*%
%TO.N,/A5*%
X130810000Y-91694000D03*
%TO.P,J2,17,Pin_17*%
%TO.N,/A4*%
X128270000Y-91694000D03*
%TO.P,J2,19,Pin_19*%
%TO.N,/A3*%
X125730000Y-91694000D03*
%TO.P,J2,21,Pin_21*%
%TO.N,/A2*%
X123190000Y-91694000D03*
%TO.P,J2,23,Pin_23*%
%TO.N,/A1*%
X120650000Y-91694000D03*
%TO.P,J2,25,Pin_25*%
%TO.N,/A0*%
X118110000Y-91694000D03*
%TO.P,J2,27,Pin_27*%
%TO.N,/RW*%
X115570000Y-91694000D03*
%TO.P,J2,29,Pin_29*%
%TO.N,/IRQ3B*%
X113030000Y-91694000D03*
%TO.P,J2,31,Pin_31*%
%TO.N,GND*%
X110490000Y-91694000D03*
%TO.P,J2,33,Pin_33*%
%TO.N,/RAMCSB*%
X107950000Y-91694000D03*
%TO.P,J2,35,Pin_35*%
%TO.N,unconnected-(J2-Pin_35-Pad35)*%
X105410000Y-91694000D03*
%TO.P,J2,37,Pin_37*%
%TO.N,unconnected-(J2-Pin_37-Pad37)*%
X102870000Y-91694000D03*
%TO.P,J2,39,Pin_39*%
%TO.N,unconnected-(J2-Pin_39-Pad39)*%
X100330000Y-91694000D03*
%TO.P,J2,41,Pin_41*%
%TO.N,unconnected-(J2-Pin_41-Pad41)*%
X97790000Y-91694000D03*
%TO.P,J2,43,Pin_43*%
%TO.N,unconnected-(J2-Pin_43-Pad43)*%
X95250000Y-91694000D03*
%TO.P,J2,45,Pin_45*%
%TO.N,unconnected-(J2-Pin_45-Pad45)*%
X92710000Y-91694000D03*
%TO.P,J2,47,Pin_47*%
%TO.N,unconnected-(J2-Pin_47-Pad47)*%
X90170000Y-91694000D03*
%TO.P,J2,49,Pin_49*%
%TO.N,unconnected-(J2-Pin_49-Pad49)*%
X87630000Y-91694000D03*
%TO.P,J2,51,Pin_51*%
%TO.N,unconnected-(J2-Pin_51-Pad51)*%
X85090000Y-91694000D03*
%TO.P,J2,53,Pin_53*%
%TO.N,unconnected-(J2-Pin_53-Pad53)*%
X82550000Y-91694000D03*
%TO.P,J2,55,Pin_55*%
%TO.N,unconnected-(J2-Pin_55-Pad55)*%
X80010000Y-91694000D03*
%TO.P,J2,57,Pin_57*%
%TO.N,unconnected-(J2-Pin_57-Pad57)*%
X77470000Y-91694000D03*
%TO.P,J2,59,Pin_59*%
%TO.N,+5V*%
X74930000Y-91694000D03*
%TD*%
D12*
%TO.P,U1,1,A14*%
%TO.N,/A14*%
X128270000Y-64897000D03*
D13*
%TO.P,U1,2,A12*%
%TO.N,/A12*%
X125730000Y-64897000D03*
%TO.P,U1,3,A7*%
%TO.N,/A7*%
X123190000Y-64897000D03*
%TO.P,U1,4,A6*%
%TO.N,/A6*%
X120650000Y-64897000D03*
%TO.P,U1,5,A5*%
%TO.N,/A5*%
X118110000Y-64897000D03*
%TO.P,U1,6,A4*%
%TO.N,/A4*%
X115570000Y-64897000D03*
%TO.P,U1,7,A3*%
%TO.N,/A3*%
X113030000Y-64897000D03*
%TO.P,U1,8,A2*%
%TO.N,/A2*%
X110490000Y-64897000D03*
%TO.P,U1,9,A1*%
%TO.N,/A1*%
X107950000Y-64897000D03*
%TO.P,U1,10,A0*%
%TO.N,/A0*%
X105410000Y-64897000D03*
%TO.P,U1,11,D0*%
%TO.N,/D0*%
X102870000Y-64897000D03*
%TO.P,U1,12,D1*%
%TO.N,/D1*%
X100330000Y-64897000D03*
%TO.P,U1,13,D2*%
%TO.N,/D2*%
X97790000Y-64897000D03*
%TO.P,U1,14,GND*%
%TO.N,GND*%
X95250000Y-64897000D03*
%TO.P,U1,15,D3*%
%TO.N,/D3*%
X95250000Y-72517000D03*
%TO.P,U1,16,D4*%
%TO.N,/D4*%
X97790000Y-72517000D03*
%TO.P,U1,17,D5*%
%TO.N,/D5*%
X100330000Y-72517000D03*
%TO.P,U1,18,D6*%
%TO.N,/D6*%
X102870000Y-72517000D03*
%TO.P,U1,19,D7*%
%TO.N,/D7*%
X105410000Y-72517000D03*
%TO.P,U1,20,~{CS}*%
%TO.N,/PORT1CSB*%
X107950000Y-72517000D03*
%TO.P,U1,21,A10*%
%TO.N,/A10*%
X110490000Y-72517000D03*
%TO.P,U1,22,~{OE}*%
%TO.N,GND*%
X113030000Y-72517000D03*
%TO.P,U1,23,A11*%
%TO.N,/A11*%
X115570000Y-72517000D03*
%TO.P,U1,24,A9*%
%TO.N,/A9*%
X118110000Y-72517000D03*
%TO.P,U1,25,A8*%
%TO.N,/A8*%
X120650000Y-72517000D03*
%TO.P,U1,26,A13*%
%TO.N,/A13*%
X123190000Y-72517000D03*
%TO.P,U1,27,~{WE}*%
%TO.N,+5V*%
X125730000Y-72517000D03*
%TO.P,U1,28,VCC*%
X128270000Y-72517000D03*
%TD*%
D14*
%TO.N,+5V*%
X74930000Y-86106000D03*
%TO.N,/A13*%
X140970000Y-74168000D03*
%TO.N,/A8*%
X137414000Y-74930000D03*
X137414000Y-86296500D03*
%TO.N,/A9*%
X139700000Y-86360000D03*
X139700000Y-75692000D03*
%TO.N,/A11*%
X146050000Y-86360000D03*
X146050000Y-76454000D03*
%TO.N,/A10*%
X142240000Y-86360000D03*
X142240000Y-80010000D03*
X110490000Y-80010000D03*
%TO.N,/D7*%
X133350000Y-78486000D03*
%TO.N,/D6*%
X130810000Y-79248000D03*
%TO.N,/D5*%
X127000000Y-70485000D03*
%TO.N,/D4*%
X124460000Y-69723000D03*
%TO.N,/D3*%
X121920000Y-68961000D03*
%TO.N,/D2*%
X119380000Y-68199000D03*
%TO.N,/D1*%
X116840000Y-67437000D03*
%TO.N,/D0*%
X114300000Y-66675000D03*
%TO.N,/A0*%
X106680000Y-86106000D03*
%TO.N,/A1*%
X109220000Y-85344000D03*
%TO.N,/A2*%
X111760000Y-84582000D03*
%TO.N,/A3*%
X104140000Y-83820000D03*
%TO.N,/A4*%
X101600000Y-83058000D03*
%TO.N,/A5*%
X99060000Y-82296000D03*
%TO.N,/A6*%
X96520000Y-81534000D03*
%TO.N,/A7*%
X93980000Y-80772000D03*
%TO.N,/A12*%
X143510000Y-67056000D03*
%TO.N,/A14*%
X138430000Y-64897000D03*
%TD*%
D15*
%TO.N,+5V*%
X128270000Y-72517000D02*
X125730000Y-72517000D01*
X74930000Y-91694000D02*
X74930000Y-86106000D01*
X128270000Y-72517000D02*
X146050000Y-72517000D01*
D16*
%TO.N,/A13*%
X124841000Y-74168000D02*
X123190000Y-72517000D01*
X140970000Y-74168000D02*
X124841000Y-74168000D01*
%TO.N,/A8*%
X123063000Y-74930000D02*
X120650000Y-72517000D01*
X137350500Y-86296500D02*
X138430000Y-87376000D01*
X138430000Y-87376000D02*
X138430000Y-91694000D01*
X137414000Y-74930000D02*
X123063000Y-74930000D01*
%TO.N,/A9*%
X140970000Y-87630000D02*
X140970000Y-91694000D01*
X121285000Y-75692000D02*
X118110000Y-72517000D01*
X139700000Y-75692000D02*
X121285000Y-75692000D01*
X139700000Y-86360000D02*
X140970000Y-87630000D01*
%TO.N,/A11*%
X145923000Y-76454000D02*
X146050000Y-76454000D01*
X119507000Y-76454000D02*
X145923000Y-76454000D01*
X146050000Y-86360000D02*
X146050000Y-91694000D01*
X115570000Y-72517000D02*
X119507000Y-76454000D01*
%TO.N,/A10*%
X143510000Y-87630000D02*
X143510000Y-91694000D01*
X142240000Y-86360000D02*
X143510000Y-87630000D01*
X110617000Y-80010000D02*
X142240000Y-80010000D01*
D17*
%TO.N,/D7*%
X133350000Y-78486000D02*
X111379000Y-78486000D01*
X111379000Y-78486000D02*
X105410000Y-72517000D01*
%TO.N,/D6*%
X130810000Y-79248000D02*
X109601000Y-79248000D01*
X109601000Y-79248000D02*
X102870000Y-72517000D01*
D16*
%TO.N,/D5*%
X102362000Y-70485000D02*
X127000000Y-70485000D01*
X100330000Y-72517000D02*
X102362000Y-70485000D01*
%TO.N,/D4*%
X100584000Y-69723000D02*
X97790000Y-72517000D01*
X124460000Y-69723000D02*
X100584000Y-69723000D01*
%TO.N,/D3*%
X121920000Y-68961000D02*
X98806000Y-68961000D01*
X98806000Y-68961000D02*
X95250000Y-72517000D01*
%TO.N,/D2*%
X101092000Y-68199000D02*
X97790000Y-64897000D01*
X119380000Y-68199000D02*
X101092000Y-68199000D01*
%TO.N,/D1*%
X100330000Y-64897000D02*
X102870000Y-67437000D01*
X102870000Y-67437000D02*
X116840000Y-67437000D01*
%TO.N,/D0*%
X104648000Y-66675000D02*
X114300000Y-66675000D01*
X102870000Y-64897000D02*
X104648000Y-66675000D01*
%TO.N,/A0*%
X118110000Y-87582375D02*
X118110000Y-91694000D01*
X116633625Y-86106000D02*
X118110000Y-87582375D01*
X106680000Y-86106000D02*
X116633625Y-86106000D01*
%TO.N,/A1*%
X109220000Y-85344000D02*
X118364000Y-85344000D01*
X118364000Y-85344000D02*
X119380000Y-86360000D01*
X119380000Y-86360000D02*
X120650000Y-87630000D01*
X120650000Y-87630000D02*
X120650000Y-91694000D01*
%TO.N,/A2*%
X121920000Y-86360000D02*
X120142000Y-84582000D01*
X111760000Y-84582000D02*
X118110000Y-84582000D01*
X123190000Y-87630000D02*
X123190000Y-91694000D01*
X121920000Y-86360000D02*
X123190000Y-87630000D01*
X120142000Y-84582000D02*
X118110000Y-84582000D01*
%TO.N,/A3*%
X121920000Y-83820000D02*
X120523000Y-83820000D01*
X104140000Y-83820000D02*
X120523000Y-83820000D01*
X125730000Y-87630000D02*
X125730000Y-91694000D01*
X124460000Y-86360000D02*
X125730000Y-87630000D01*
X124460000Y-86360000D02*
X121920000Y-83820000D01*
%TO.N,/A4*%
X127000000Y-86360000D02*
X128270000Y-87630000D01*
X101600000Y-83058000D02*
X121412000Y-83058000D01*
X123698000Y-83058000D02*
X121412000Y-83058000D01*
X128270000Y-87630000D02*
X128270000Y-91694000D01*
X127000000Y-86360000D02*
X123698000Y-83058000D01*
%TO.N,/A5*%
X129540000Y-86360000D02*
X125476000Y-82296000D01*
X129540000Y-86360000D02*
X130810000Y-87630000D01*
X130810000Y-87630000D02*
X130810000Y-91694000D01*
X99060000Y-82296000D02*
X125476000Y-82296000D01*
%TO.N,/A6*%
X132080000Y-86360000D02*
X127254000Y-81534000D01*
X132080000Y-86360000D02*
X133350000Y-87630000D01*
X133350000Y-87630000D02*
X133350000Y-91694000D01*
X96520000Y-81534000D02*
X127254000Y-81534000D01*
%TO.N,/A7*%
X129032000Y-80772000D02*
X128778000Y-80772000D01*
X135890000Y-91694000D02*
X135890000Y-87630000D01*
X93980000Y-80772000D02*
X128778000Y-80772000D01*
X135890000Y-87630000D02*
X129032000Y-80772000D01*
%TO.N,/A12*%
X127889000Y-67056000D02*
X125730000Y-64897000D01*
X143510000Y-67056000D02*
X127889000Y-67056000D01*
%TO.N,/A14*%
X128270000Y-64897000D02*
X138430000Y-64897000D01*
%TD*%
%TA.AperFunction,Conductor*%
%TO.N,GND*%
G36*
X149117813Y-52342649D02*
G01*
X149231904Y-52349051D01*
X149403672Y-52359431D01*
X149410398Y-52360204D01*
X149546584Y-52383336D01*
X149695225Y-52410569D01*
X149701308Y-52411999D01*
X149837564Y-52451248D01*
X149838804Y-52451620D01*
X149978836Y-52495251D01*
X149984184Y-52497187D01*
X150116719Y-52552080D01*
X150118404Y-52552809D01*
X150250649Y-52612323D01*
X150255246Y-52614623D01*
X150381491Y-52684393D01*
X150383585Y-52685604D01*
X150506984Y-52760198D01*
X150510846Y-52762731D01*
X150628838Y-52846449D01*
X150631211Y-52848219D01*
X150744386Y-52936884D01*
X150747489Y-52939481D01*
X150855525Y-53036027D01*
X150858070Y-53038433D01*
X150959678Y-53140041D01*
X150962069Y-53142571D01*
X151058619Y-53250611D01*
X151061212Y-53253709D01*
X151149883Y-53366893D01*
X151151671Y-53369290D01*
X151235373Y-53487260D01*
X151237908Y-53491126D01*
X151312478Y-53614485D01*
X151313702Y-53616602D01*
X151359542Y-53699546D01*
X151383482Y-53742865D01*
X151385786Y-53747470D01*
X151445292Y-53879698D01*
X151446033Y-53881415D01*
X151500909Y-54013908D01*
X151502853Y-54019277D01*
X151546472Y-54159273D01*
X151546863Y-54160576D01*
X151586101Y-54296797D01*
X151587532Y-54302885D01*
X151614770Y-54451556D01*
X151636221Y-54577835D01*
X151638000Y-54598936D01*
X151638000Y-85734438D01*
X151637573Y-86486428D01*
X151637572Y-86487572D01*
X151617531Y-86555681D01*
X151563849Y-86602143D01*
X151511572Y-86613500D01*
X151155158Y-86613500D01*
X151154952Y-86613459D01*
X151129996Y-86613459D01*
X151129798Y-86613541D01*
X151129620Y-86613614D01*
X151129617Y-86613617D01*
X151129459Y-86614000D01*
X151129476Y-86639014D01*
X151129471Y-86639014D01*
X151129500Y-86639157D01*
X151129500Y-95631500D01*
X151109498Y-95699621D01*
X151055842Y-95746114D01*
X151003500Y-95757500D01*
X150106242Y-95757500D01*
X150038121Y-95737498D01*
X149991628Y-95683842D01*
X149980964Y-95618030D01*
X149987999Y-95552597D01*
X149988000Y-95552585D01*
X149988000Y-91948000D01*
X148462000Y-91948000D01*
X148393879Y-91927998D01*
X148347386Y-91874342D01*
X148336000Y-91822000D01*
X148336000Y-87376000D01*
X148844000Y-87376000D01*
X148844000Y-91440000D01*
X149988000Y-91440000D01*
X149988000Y-87835414D01*
X149987999Y-87835402D01*
X149981494Y-87774906D01*
X149930444Y-87638035D01*
X149930444Y-87638034D01*
X149842904Y-87521095D01*
X149725965Y-87433555D01*
X149589093Y-87382505D01*
X149528597Y-87376000D01*
X148844000Y-87376000D01*
X148336000Y-87376000D01*
X147651402Y-87376000D01*
X147590906Y-87382505D01*
X147454035Y-87433555D01*
X147395924Y-87477056D01*
X147329403Y-87501866D01*
X147260029Y-87486774D01*
X147244907Y-87477055D01*
X147186207Y-87433112D01*
X147186202Y-87433110D01*
X147049204Y-87382011D01*
X147049196Y-87382009D01*
X146988649Y-87375500D01*
X146988638Y-87375500D01*
X146834500Y-87375500D01*
X146766379Y-87355498D01*
X146719886Y-87301842D01*
X146708500Y-87249500D01*
X146708500Y-87034759D01*
X146728502Y-86966638D01*
X146740865Y-86950447D01*
X146766801Y-86921643D01*
X146789040Y-86896944D01*
X146884527Y-86731556D01*
X146943542Y-86549928D01*
X146963504Y-86360000D01*
X146943542Y-86170072D01*
X146884527Y-85988444D01*
X146789040Y-85823056D01*
X146789038Y-85823054D01*
X146789034Y-85823048D01*
X146661255Y-85681135D01*
X146506752Y-85568882D01*
X146332288Y-85491206D01*
X146145487Y-85451500D01*
X145954513Y-85451500D01*
X145767711Y-85491206D01*
X145593247Y-85568882D01*
X145438744Y-85681135D01*
X145310965Y-85823048D01*
X145310958Y-85823058D01*
X145215476Y-85988438D01*
X145215473Y-85988445D01*
X145156457Y-86170072D01*
X145136496Y-86360000D01*
X145156457Y-86549927D01*
X145177401Y-86614383D01*
X145215473Y-86731556D01*
X145235825Y-86766806D01*
X145310961Y-86896946D01*
X145359135Y-86950447D01*
X145389853Y-87014454D01*
X145391500Y-87034759D01*
X145391500Y-87249500D01*
X145371498Y-87317621D01*
X145317842Y-87364114D01*
X145265500Y-87375500D01*
X145111350Y-87375500D01*
X145050803Y-87382009D01*
X145050795Y-87382011D01*
X144913797Y-87433110D01*
X144855509Y-87476744D01*
X144788988Y-87501554D01*
X144719614Y-87486462D01*
X144704491Y-87476744D01*
X144686900Y-87463575D01*
X144646204Y-87433111D01*
X144646202Y-87433110D01*
X144509204Y-87382011D01*
X144509196Y-87382009D01*
X144448649Y-87375500D01*
X144448638Y-87375500D01*
X144202026Y-87375500D01*
X144133905Y-87355498D01*
X144097096Y-87316075D01*
X144096295Y-87316658D01*
X144062731Y-87270461D01*
X144059471Y-87265498D01*
X144057768Y-87262619D01*
X144034452Y-87223193D01*
X144034451Y-87223192D01*
X144034450Y-87223190D01*
X144019291Y-87208031D01*
X144006450Y-87192998D01*
X143993841Y-87175643D01*
X143955953Y-87144299D01*
X143951571Y-87140312D01*
X143182969Y-86371710D01*
X143148943Y-86309398D01*
X143146754Y-86295784D01*
X143133542Y-86170072D01*
X143074527Y-85988444D01*
X142979040Y-85823056D01*
X142979038Y-85823054D01*
X142979034Y-85823048D01*
X142851255Y-85681135D01*
X142696752Y-85568882D01*
X142522288Y-85491206D01*
X142335487Y-85451500D01*
X142144513Y-85451500D01*
X141957711Y-85491206D01*
X141783247Y-85568882D01*
X141628744Y-85681135D01*
X141500965Y-85823048D01*
X141500958Y-85823058D01*
X141405476Y-85988438D01*
X141405473Y-85988445D01*
X141346457Y-86170072D01*
X141326496Y-86360000D01*
X141346457Y-86549927D01*
X141367401Y-86614383D01*
X141405473Y-86731556D01*
X141425825Y-86766806D01*
X141476983Y-86855415D01*
X141493721Y-86924410D01*
X141470501Y-86991502D01*
X141414694Y-87035389D01*
X141344018Y-87042138D01*
X141280914Y-87009606D01*
X141278769Y-87007510D01*
X140642969Y-86371710D01*
X140608943Y-86309398D01*
X140606754Y-86295784D01*
X140593542Y-86170072D01*
X140534527Y-85988444D01*
X140439040Y-85823056D01*
X140439038Y-85823054D01*
X140439034Y-85823048D01*
X140311255Y-85681135D01*
X140156752Y-85568882D01*
X139982288Y-85491206D01*
X139795487Y-85451500D01*
X139604513Y-85451500D01*
X139417711Y-85491206D01*
X139243247Y-85568882D01*
X139088744Y-85681135D01*
X138960965Y-85823048D01*
X138960958Y-85823058D01*
X138865476Y-85988438D01*
X138865473Y-85988445D01*
X138806457Y-86170072D01*
X138786496Y-86360000D01*
X138801125Y-86499195D01*
X138788352Y-86569034D01*
X138739850Y-86620880D01*
X138671017Y-86638274D01*
X138603707Y-86615692D01*
X138586720Y-86601460D01*
X138364409Y-86379149D01*
X138330383Y-86316837D01*
X138328894Y-86302993D01*
X138328194Y-86303067D01*
X138307542Y-86106572D01*
X138300360Y-86084468D01*
X138248527Y-85924944D01*
X138153040Y-85759556D01*
X138153038Y-85759554D01*
X138153034Y-85759548D01*
X138025255Y-85617635D01*
X137870752Y-85505382D01*
X137696288Y-85427706D01*
X137509487Y-85388000D01*
X137318513Y-85388000D01*
X137131711Y-85427706D01*
X136957247Y-85505382D01*
X136802744Y-85617635D01*
X136674965Y-85759548D01*
X136674958Y-85759558D01*
X136579476Y-85924938D01*
X136579473Y-85924945D01*
X136520457Y-86106572D01*
X136508789Y-86217595D01*
X136500496Y-86296500D01*
X136501186Y-86303067D01*
X136520457Y-86486427D01*
X136550526Y-86578970D01*
X136579473Y-86668056D01*
X136579476Y-86668061D01*
X136674958Y-86833441D01*
X136674965Y-86833451D01*
X136802744Y-86975364D01*
X136802747Y-86975366D01*
X136957248Y-87087618D01*
X137131712Y-87165294D01*
X137268880Y-87194450D01*
X137331352Y-87228177D01*
X137365674Y-87290326D01*
X137360946Y-87361166D01*
X137318671Y-87418203D01*
X137301169Y-87427821D01*
X137301701Y-87428795D01*
X137293797Y-87433110D01*
X137235509Y-87476744D01*
X137168988Y-87501554D01*
X137099614Y-87486462D01*
X137084491Y-87476744D01*
X137066900Y-87463575D01*
X137026204Y-87433111D01*
X137026202Y-87433110D01*
X136889204Y-87382011D01*
X136889196Y-87382009D01*
X136828649Y-87375500D01*
X136828638Y-87375500D01*
X136582026Y-87375500D01*
X136513905Y-87355498D01*
X136477095Y-87316076D01*
X136476295Y-87316658D01*
X136442738Y-87270472D01*
X136439482Y-87265517D01*
X136417765Y-87228794D01*
X136414452Y-87223191D01*
X136399288Y-87208027D01*
X136386447Y-87192993D01*
X136373841Y-87175643D01*
X136373836Y-87175638D01*
X136352718Y-87158169D01*
X136335950Y-87144297D01*
X136331577Y-87140317D01*
X130074855Y-80883595D01*
X130040829Y-80821283D01*
X130045894Y-80750468D01*
X130088441Y-80693632D01*
X130154961Y-80668821D01*
X130163950Y-80668500D01*
X141559776Y-80668500D01*
X141627897Y-80688502D01*
X141633834Y-80692562D01*
X141783248Y-80801118D01*
X141957712Y-80878794D01*
X142144513Y-80918500D01*
X142335487Y-80918500D01*
X142522288Y-80878794D01*
X142696752Y-80801118D01*
X142851253Y-80688866D01*
X142979040Y-80546944D01*
X143074527Y-80381556D01*
X143133542Y-80199928D01*
X143153504Y-80010000D01*
X143133542Y-79820072D01*
X143074527Y-79638444D01*
X142979040Y-79473056D01*
X142979038Y-79473054D01*
X142979034Y-79473048D01*
X142851255Y-79331135D01*
X142696752Y-79218882D01*
X142522288Y-79141206D01*
X142335487Y-79101500D01*
X142144513Y-79101500D01*
X141957711Y-79141206D01*
X141783247Y-79218882D01*
X141633837Y-79327436D01*
X141566969Y-79351294D01*
X141559776Y-79351500D01*
X134076208Y-79351500D01*
X134008087Y-79331498D01*
X133961594Y-79277842D01*
X133951490Y-79207568D01*
X133980984Y-79142988D01*
X133982572Y-79141190D01*
X134089034Y-79022951D01*
X134089035Y-79022949D01*
X134089040Y-79022944D01*
X134184527Y-78857556D01*
X134243542Y-78675928D01*
X134263504Y-78486000D01*
X134243542Y-78296072D01*
X134184527Y-78114444D01*
X134089040Y-77949056D01*
X134089038Y-77949054D01*
X134089034Y-77949048D01*
X133961255Y-77807135D01*
X133806752Y-77694882D01*
X133632288Y-77617206D01*
X133445487Y-77577500D01*
X133254513Y-77577500D01*
X133067711Y-77617206D01*
X132893247Y-77694882D01*
X132738747Y-77807133D01*
X132735437Y-77810810D01*
X132674991Y-77848050D01*
X132641800Y-77852500D01*
X111693594Y-77852500D01*
X111625473Y-77832498D01*
X111604499Y-77815595D01*
X108191516Y-74402611D01*
X108157490Y-74340299D01*
X108162555Y-74269483D01*
X108205102Y-74212648D01*
X108247996Y-74191810D01*
X108399243Y-74151284D01*
X108606749Y-74054523D01*
X108794300Y-73923198D01*
X108956198Y-73761300D01*
X109087523Y-73573749D01*
X109105804Y-73534543D01*
X109152721Y-73481258D01*
X109220998Y-73461796D01*
X109288958Y-73482337D01*
X109334195Y-73534543D01*
X109352477Y-73573749D01*
X109483802Y-73761300D01*
X109645700Y-73923198D01*
X109833251Y-74054523D01*
X110040757Y-74151284D01*
X110261913Y-74210543D01*
X110490000Y-74230498D01*
X110718087Y-74210543D01*
X110939243Y-74151284D01*
X111146749Y-74054523D01*
X111334300Y-73923198D01*
X111496198Y-73761300D01*
X111627523Y-73573749D01*
X111646081Y-73533950D01*
X111692995Y-73480667D01*
X111761272Y-73461205D01*
X111829232Y-73481745D01*
X111874469Y-73533949D01*
X111892911Y-73573497D01*
X112024184Y-73760974D01*
X112024189Y-73760980D01*
X112186019Y-73922810D01*
X112186025Y-73922815D01*
X112373501Y-74054087D01*
X112580926Y-74150811D01*
X112580931Y-74150813D01*
X112776000Y-74203081D01*
X112776000Y-72828686D01*
X112791955Y-72844641D01*
X112904852Y-72902165D01*
X112998519Y-72917000D01*
X113061481Y-72917000D01*
X113155148Y-72902165D01*
X113268045Y-72844641D01*
X113284000Y-72828686D01*
X113284000Y-74203081D01*
X113479068Y-74150813D01*
X113479073Y-74150811D01*
X113686498Y-74054087D01*
X113873974Y-73922815D01*
X113873980Y-73922810D01*
X114035810Y-73760980D01*
X114035815Y-73760974D01*
X114167087Y-73573498D01*
X114185529Y-73533951D01*
X114232446Y-73480666D01*
X114300723Y-73461205D01*
X114368683Y-73481747D01*
X114413919Y-73533951D01*
X114432477Y-73573749D01*
X114563802Y-73761300D01*
X114725700Y-73923198D01*
X114913251Y-74054523D01*
X115120757Y-74151284D01*
X115341913Y-74210543D01*
X115570000Y-74230498D01*
X115798087Y-74210543D01*
X116019243Y-74151284D01*
X116112358Y-74107863D01*
X116182549Y-74097202D01*
X116247362Y-74126181D01*
X116254703Y-74132963D01*
X118980125Y-76858385D01*
X118990338Y-76871131D01*
X118990531Y-76870972D01*
X118995583Y-76877079D01*
X119047978Y-76926281D01*
X119049367Y-76927627D01*
X119070667Y-76948927D01*
X119070675Y-76948933D01*
X119076517Y-76953465D01*
X119081033Y-76957322D01*
X119116867Y-76990972D01*
X119135669Y-77001308D01*
X119152175Y-77012151D01*
X119169132Y-77025304D01*
X119214254Y-77044829D01*
X119219580Y-77047439D01*
X119262659Y-77071123D01*
X119262663Y-77071124D01*
X119283432Y-77076456D01*
X119302134Y-77082859D01*
X119321824Y-77091380D01*
X119370395Y-77099072D01*
X119376189Y-77100271D01*
X119423812Y-77112500D01*
X119445259Y-77112500D01*
X119464967Y-77114050D01*
X119486152Y-77117406D01*
X119523880Y-77113839D01*
X119535094Y-77112780D01*
X119541027Y-77112500D01*
X145369776Y-77112500D01*
X145437897Y-77132502D01*
X145443834Y-77136562D01*
X145593248Y-77245118D01*
X145767712Y-77322794D01*
X145954513Y-77362500D01*
X146145487Y-77362500D01*
X146332288Y-77322794D01*
X146506752Y-77245118D01*
X146661253Y-77132866D01*
X146678194Y-77114051D01*
X146789034Y-76990951D01*
X146789035Y-76990949D01*
X146789040Y-76990944D01*
X146884527Y-76825556D01*
X146943542Y-76643928D01*
X146963504Y-76454000D01*
X146943542Y-76264072D01*
X146884527Y-76082444D01*
X146789040Y-75917056D01*
X146789038Y-75917054D01*
X146789034Y-75917048D01*
X146661255Y-75775135D01*
X146506752Y-75662882D01*
X146332288Y-75585206D01*
X146145487Y-75545500D01*
X145954513Y-75545500D01*
X145767711Y-75585206D01*
X145593247Y-75662882D01*
X145443837Y-75771436D01*
X145376969Y-75795294D01*
X145369776Y-75795500D01*
X140737833Y-75795500D01*
X140669712Y-75775498D01*
X140623219Y-75721842D01*
X140612523Y-75682670D01*
X140610443Y-75662882D01*
X140593542Y-75502072D01*
X140534527Y-75320444D01*
X140454992Y-75182686D01*
X140438255Y-75113693D01*
X140461475Y-75046601D01*
X140517282Y-75002714D01*
X140587957Y-74995965D01*
X140615357Y-75004580D01*
X140687712Y-75036794D01*
X140874513Y-75076500D01*
X141065487Y-75076500D01*
X141252288Y-75036794D01*
X141426752Y-74959118D01*
X141581253Y-74846866D01*
X141709040Y-74704944D01*
X141804527Y-74539556D01*
X141863542Y-74357928D01*
X141883504Y-74168000D01*
X141863542Y-73978072D01*
X141804527Y-73796444D01*
X141709040Y-73631056D01*
X141709038Y-73631054D01*
X141709034Y-73631048D01*
X141578261Y-73485810D01*
X141547543Y-73421803D01*
X141556308Y-73351349D01*
X141601771Y-73296818D01*
X141669498Y-73275523D01*
X141671897Y-73275500D01*
X144918132Y-73275500D01*
X144986253Y-73295502D01*
X145021344Y-73329228D01*
X145036834Y-73351349D01*
X145043802Y-73361300D01*
X145205700Y-73523198D01*
X145393251Y-73654523D01*
X145600757Y-73751284D01*
X145821913Y-73810543D01*
X146050000Y-73830498D01*
X146278087Y-73810543D01*
X146499243Y-73751284D01*
X146706749Y-73654523D01*
X146894300Y-73523198D01*
X147056198Y-73361300D01*
X147187523Y-73173749D01*
X147284284Y-72966243D01*
X147343543Y-72745087D01*
X147363498Y-72517000D01*
X147343543Y-72288913D01*
X147284284Y-72067757D01*
X147187523Y-71860251D01*
X147056198Y-71672700D01*
X146894300Y-71510802D01*
X146878946Y-71500051D01*
X146706746Y-71379474D01*
X146701985Y-71376726D01*
X146703023Y-71374927D01*
X146656532Y-71333963D01*
X146637095Y-71265679D01*
X146657661Y-71197726D01*
X146702782Y-71158664D01*
X146701730Y-71156841D01*
X146706496Y-71154088D01*
X146777888Y-71104099D01*
X146777888Y-71104097D01*
X146089518Y-70415727D01*
X146175148Y-70402165D01*
X146288045Y-70344641D01*
X146377641Y-70255045D01*
X146435165Y-70142148D01*
X146448727Y-70056518D01*
X147137097Y-70744888D01*
X147137099Y-70744888D01*
X147187088Y-70673497D01*
X147283811Y-70466073D01*
X147283813Y-70466068D01*
X147343048Y-70245002D01*
X147362995Y-70017000D01*
X147343048Y-69788997D01*
X147283813Y-69567931D01*
X147283811Y-69567926D01*
X147187086Y-69360498D01*
X147137100Y-69289110D01*
X147137098Y-69289110D01*
X146448727Y-69977481D01*
X146435165Y-69891852D01*
X146377641Y-69778955D01*
X146288045Y-69689359D01*
X146175148Y-69631835D01*
X146089514Y-69618272D01*
X146777888Y-68929899D01*
X146777888Y-68929898D01*
X146706501Y-68879913D01*
X146499073Y-68783188D01*
X146499068Y-68783186D01*
X146278000Y-68723951D01*
X146278004Y-68723951D01*
X146049999Y-68704004D01*
X145821997Y-68723951D01*
X145600931Y-68783186D01*
X145600926Y-68783188D01*
X145393500Y-68879913D01*
X145322109Y-68929899D01*
X146010483Y-69618272D01*
X145924852Y-69631835D01*
X145811955Y-69689359D01*
X145722359Y-69778955D01*
X145664835Y-69891852D01*
X145651272Y-69977481D01*
X144962900Y-69289109D01*
X144912913Y-69360500D01*
X144816188Y-69567926D01*
X144816186Y-69567931D01*
X144756951Y-69788997D01*
X144737004Y-70017000D01*
X144756951Y-70245002D01*
X144816186Y-70466068D01*
X144816188Y-70466073D01*
X144912913Y-70673501D01*
X144962899Y-70744888D01*
X145651272Y-70056516D01*
X145664835Y-70142148D01*
X145722359Y-70255045D01*
X145811955Y-70344641D01*
X145924852Y-70402165D01*
X146010482Y-70415727D01*
X145322110Y-71104098D01*
X145322110Y-71104100D01*
X145393498Y-71154086D01*
X145398266Y-71156839D01*
X145397178Y-71158721D01*
X145443420Y-71199409D01*
X145462904Y-71267680D01*
X145442386Y-71335647D01*
X145397015Y-71374995D01*
X145398015Y-71376726D01*
X145393253Y-71379474D01*
X145205703Y-71510799D01*
X145205697Y-71510804D01*
X145043804Y-71672697D01*
X145043797Y-71672706D01*
X145021344Y-71704772D01*
X144965887Y-71749100D01*
X144918132Y-71758500D01*
X129625282Y-71758500D01*
X129557161Y-71738498D01*
X129510668Y-71684842D01*
X129506359Y-71672855D01*
X129506165Y-71672926D01*
X129504285Y-71667762D01*
X129504284Y-71667757D01*
X129407523Y-71460251D01*
X129276198Y-71272700D01*
X129114300Y-71110802D01*
X129104724Y-71104097D01*
X128926749Y-70979477D01*
X128719246Y-70882717D01*
X128719240Y-70882715D01*
X128621613Y-70856556D01*
X128498087Y-70823457D01*
X128270000Y-70803502D01*
X128041913Y-70823457D01*
X128041911Y-70823457D01*
X128041904Y-70823458D01*
X128038922Y-70823984D01*
X128037592Y-70823835D01*
X128036433Y-70823937D01*
X128036412Y-70823704D01*
X127968363Y-70816111D01*
X127913262Y-70771341D01*
X127891112Y-70703887D01*
X127893107Y-70681522D01*
X127892852Y-70681496D01*
X127909254Y-70525432D01*
X127913504Y-70485000D01*
X127893542Y-70295072D01*
X127834527Y-70113444D01*
X127739040Y-69948056D01*
X127739038Y-69948054D01*
X127739034Y-69948048D01*
X127611255Y-69806135D01*
X127456752Y-69693882D01*
X127282288Y-69616206D01*
X127095487Y-69576500D01*
X126904513Y-69576500D01*
X126717711Y-69616206D01*
X126543247Y-69693882D01*
X126393837Y-69802436D01*
X126326969Y-69826294D01*
X126319776Y-69826500D01*
X125497833Y-69826500D01*
X125429712Y-69806498D01*
X125383219Y-69752842D01*
X125372523Y-69713670D01*
X125370443Y-69693882D01*
X125353542Y-69533072D01*
X125294527Y-69351444D01*
X125199040Y-69186056D01*
X125199038Y-69186054D01*
X125199034Y-69186048D01*
X125071255Y-69044135D01*
X124916752Y-68931882D01*
X124742288Y-68854206D01*
X124555487Y-68814500D01*
X124364513Y-68814500D01*
X124177711Y-68854206D01*
X124003247Y-68931882D01*
X123853837Y-69040436D01*
X123786969Y-69064294D01*
X123779776Y-69064500D01*
X122957833Y-69064500D01*
X122889712Y-69044498D01*
X122843219Y-68990842D01*
X122832523Y-68951670D01*
X122830443Y-68931882D01*
X122813542Y-68771072D01*
X122754527Y-68589444D01*
X122659040Y-68424056D01*
X122659038Y-68424054D01*
X122659034Y-68424048D01*
X122531255Y-68282135D01*
X122376752Y-68169882D01*
X122202288Y-68092206D01*
X122015487Y-68052500D01*
X121824513Y-68052500D01*
X121637711Y-68092206D01*
X121463247Y-68169882D01*
X121313837Y-68278436D01*
X121246969Y-68302294D01*
X121239776Y-68302500D01*
X120417833Y-68302500D01*
X120349712Y-68282498D01*
X120303219Y-68228842D01*
X120292523Y-68189670D01*
X120290443Y-68169882D01*
X120273542Y-68009072D01*
X120214527Y-67827444D01*
X120119040Y-67662056D01*
X120119038Y-67662054D01*
X120119034Y-67662048D01*
X119991255Y-67520135D01*
X119836752Y-67407882D01*
X119662288Y-67330206D01*
X119475487Y-67290500D01*
X119284513Y-67290500D01*
X119097711Y-67330206D01*
X118923247Y-67407882D01*
X118773837Y-67516436D01*
X118706969Y-67540294D01*
X118699776Y-67540500D01*
X117877833Y-67540500D01*
X117809712Y-67520498D01*
X117763219Y-67466842D01*
X117752523Y-67427670D01*
X117750443Y-67407882D01*
X117733542Y-67247072D01*
X117674527Y-67065444D01*
X117579040Y-66900056D01*
X117579038Y-66900054D01*
X117579034Y-66900048D01*
X117451255Y-66758135D01*
X117296752Y-66645882D01*
X117122288Y-66568206D01*
X116935487Y-66528500D01*
X116744513Y-66528500D01*
X116557711Y-66568206D01*
X116383247Y-66645882D01*
X116233837Y-66754436D01*
X116166969Y-66778294D01*
X116159776Y-66778500D01*
X116053686Y-66778500D01*
X115985565Y-66758498D01*
X115939072Y-66704842D01*
X115928968Y-66634568D01*
X115958462Y-66569988D01*
X116014393Y-66534042D01*
X116014074Y-66533165D01*
X116017959Y-66531750D01*
X116018188Y-66531604D01*
X116018954Y-66531388D01*
X116019233Y-66531286D01*
X116019243Y-66531284D01*
X116226749Y-66434523D01*
X116414300Y-66303198D01*
X116576198Y-66141300D01*
X116707523Y-65953749D01*
X116725804Y-65914543D01*
X116772721Y-65861258D01*
X116840998Y-65841796D01*
X116908958Y-65862337D01*
X116954195Y-65914543D01*
X116972477Y-65953749D01*
X117103802Y-66141300D01*
X117265700Y-66303198D01*
X117453251Y-66434523D01*
X117660757Y-66531284D01*
X117881913Y-66590543D01*
X118110000Y-66610498D01*
X118338087Y-66590543D01*
X118559243Y-66531284D01*
X118766749Y-66434523D01*
X118954300Y-66303198D01*
X119116198Y-66141300D01*
X119247523Y-65953749D01*
X119265804Y-65914543D01*
X119312721Y-65861258D01*
X119380998Y-65841796D01*
X119448958Y-65862337D01*
X119494195Y-65914543D01*
X119512477Y-65953749D01*
X119643802Y-66141300D01*
X119805700Y-66303198D01*
X119993251Y-66434523D01*
X120200757Y-66531284D01*
X120421913Y-66590543D01*
X120650000Y-66610498D01*
X120878087Y-66590543D01*
X121099243Y-66531284D01*
X121306749Y-66434523D01*
X121494300Y-66303198D01*
X121656198Y-66141300D01*
X121787523Y-65953749D01*
X121805804Y-65914543D01*
X121852721Y-65861258D01*
X121920998Y-65841796D01*
X121988958Y-65862337D01*
X122034195Y-65914543D01*
X122052477Y-65953749D01*
X122183802Y-66141300D01*
X122345700Y-66303198D01*
X122533251Y-66434523D01*
X122740757Y-66531284D01*
X122961913Y-66590543D01*
X123190000Y-66610498D01*
X123418087Y-66590543D01*
X123639243Y-66531284D01*
X123846749Y-66434523D01*
X124034300Y-66303198D01*
X124196198Y-66141300D01*
X124327523Y-65953749D01*
X124345804Y-65914543D01*
X124392721Y-65861258D01*
X124460998Y-65841796D01*
X124528958Y-65862337D01*
X124574195Y-65914543D01*
X124592477Y-65953749D01*
X124723802Y-66141300D01*
X124885700Y-66303198D01*
X125073251Y-66434523D01*
X125280757Y-66531284D01*
X125501913Y-66590543D01*
X125730000Y-66610498D01*
X125958087Y-66590543D01*
X126179243Y-66531284D01*
X126272358Y-66487863D01*
X126342549Y-66477202D01*
X126407362Y-66506181D01*
X126414703Y-66512963D01*
X127362125Y-67460385D01*
X127372338Y-67473131D01*
X127372531Y-67472972D01*
X127377583Y-67479079D01*
X127429978Y-67528281D01*
X127431367Y-67529627D01*
X127452667Y-67550927D01*
X127452675Y-67550933D01*
X127458517Y-67555465D01*
X127463033Y-67559322D01*
X127498867Y-67592972D01*
X127517669Y-67603308D01*
X127534175Y-67614151D01*
X127551132Y-67627304D01*
X127596254Y-67646829D01*
X127601580Y-67649439D01*
X127644659Y-67673123D01*
X127644663Y-67673124D01*
X127665432Y-67678456D01*
X127684134Y-67684859D01*
X127703824Y-67693380D01*
X127752395Y-67701072D01*
X127758189Y-67702271D01*
X127805812Y-67714500D01*
X127827259Y-67714500D01*
X127846967Y-67716050D01*
X127868152Y-67719406D01*
X127905880Y-67715839D01*
X127917094Y-67714780D01*
X127923027Y-67714500D01*
X142829776Y-67714500D01*
X142897897Y-67734502D01*
X142903834Y-67738562D01*
X143053248Y-67847118D01*
X143227712Y-67924794D01*
X143414513Y-67964500D01*
X143605487Y-67964500D01*
X143792288Y-67924794D01*
X143966752Y-67847118D01*
X144121253Y-67734866D01*
X144138194Y-67716051D01*
X144249034Y-67592951D01*
X144249035Y-67592949D01*
X144249040Y-67592944D01*
X144344527Y-67427556D01*
X144403542Y-67245928D01*
X144423504Y-67056000D01*
X144403542Y-66866072D01*
X144344527Y-66684444D01*
X144249040Y-66519056D01*
X144249038Y-66519054D01*
X144249034Y-66519048D01*
X144121255Y-66377135D01*
X143966752Y-66264882D01*
X143792288Y-66187206D01*
X143605487Y-66147500D01*
X143414513Y-66147500D01*
X143227711Y-66187206D01*
X143053247Y-66264882D01*
X142903837Y-66373436D01*
X142836969Y-66397294D01*
X142829776Y-66397500D01*
X129682113Y-66397500D01*
X129613992Y-66377498D01*
X129567499Y-66323842D01*
X129557395Y-66253568D01*
X129564057Y-66227468D01*
X129571989Y-66206200D01*
X129571990Y-66206196D01*
X129578499Y-66145649D01*
X129578500Y-66145632D01*
X129578500Y-65681500D01*
X129598502Y-65613379D01*
X129652158Y-65566886D01*
X129704500Y-65555500D01*
X137749776Y-65555500D01*
X137817897Y-65575502D01*
X137823834Y-65579562D01*
X137973248Y-65688118D01*
X138147712Y-65765794D01*
X138334513Y-65805500D01*
X138525487Y-65805500D01*
X138712288Y-65765794D01*
X138886752Y-65688118D01*
X139041253Y-65575866D01*
X139169040Y-65433944D01*
X139264527Y-65268556D01*
X139323542Y-65086928D01*
X139343504Y-64897000D01*
X139323542Y-64707072D01*
X139264527Y-64525444D01*
X139169040Y-64360056D01*
X139169038Y-64360054D01*
X139169034Y-64360048D01*
X139041255Y-64218135D01*
X138886752Y-64105882D01*
X138712288Y-64028206D01*
X138525487Y-63988500D01*
X138334513Y-63988500D01*
X138147711Y-64028206D01*
X137973247Y-64105882D01*
X137823837Y-64214436D01*
X137756969Y-64238294D01*
X137749776Y-64238500D01*
X129704500Y-64238500D01*
X129636379Y-64218498D01*
X129589886Y-64164842D01*
X129578500Y-64112500D01*
X129578500Y-63648367D01*
X129578499Y-63648350D01*
X129571990Y-63587803D01*
X129571988Y-63587795D01*
X129535811Y-63490804D01*
X129520889Y-63450796D01*
X129520888Y-63450794D01*
X129520887Y-63450792D01*
X129433261Y-63333738D01*
X129316207Y-63246112D01*
X129316202Y-63246110D01*
X129179204Y-63195011D01*
X129179196Y-63195009D01*
X129118649Y-63188500D01*
X129118638Y-63188500D01*
X127421362Y-63188500D01*
X127421350Y-63188500D01*
X127360803Y-63195009D01*
X127360795Y-63195011D01*
X127223797Y-63246110D01*
X127223792Y-63246112D01*
X127106738Y-63333738D01*
X127019112Y-63450792D01*
X127019110Y-63450797D01*
X126968011Y-63587795D01*
X126968009Y-63587803D01*
X126967000Y-63597197D01*
X126939831Y-63662790D01*
X126881513Y-63703281D01*
X126810562Y-63705815D01*
X126749504Y-63669588D01*
X126738510Y-63656001D01*
X126736203Y-63652706D01*
X126736195Y-63652697D01*
X126574302Y-63490804D01*
X126574296Y-63490799D01*
X126386749Y-63359477D01*
X126179246Y-63262717D01*
X126179240Y-63262715D01*
X126085771Y-63237670D01*
X125958087Y-63203457D01*
X125730000Y-63183502D01*
X125501913Y-63203457D01*
X125280759Y-63262715D01*
X125280753Y-63262717D01*
X125073250Y-63359477D01*
X124885703Y-63490799D01*
X124885697Y-63490804D01*
X124723804Y-63652697D01*
X124723799Y-63652703D01*
X124592477Y-63840250D01*
X124574195Y-63879457D01*
X124527278Y-63932742D01*
X124459001Y-63952203D01*
X124391041Y-63931661D01*
X124345805Y-63879457D01*
X124343894Y-63875359D01*
X124327523Y-63840251D01*
X124196198Y-63652700D01*
X124034300Y-63490802D01*
X123846749Y-63359477D01*
X123846748Y-63359477D01*
X123639246Y-63262717D01*
X123639240Y-63262715D01*
X123545771Y-63237670D01*
X123418087Y-63203457D01*
X123190000Y-63183502D01*
X122961913Y-63203457D01*
X122740759Y-63262715D01*
X122740753Y-63262717D01*
X122533250Y-63359477D01*
X122345703Y-63490799D01*
X122345697Y-63490804D01*
X122183804Y-63652697D01*
X122183799Y-63652703D01*
X122052477Y-63840250D01*
X122034195Y-63879457D01*
X121987278Y-63932742D01*
X121919001Y-63952203D01*
X121851041Y-63931661D01*
X121805805Y-63879457D01*
X121803894Y-63875359D01*
X121787523Y-63840251D01*
X121656198Y-63652700D01*
X121494300Y-63490802D01*
X121306749Y-63359477D01*
X121099246Y-63262717D01*
X121099240Y-63262715D01*
X121005771Y-63237670D01*
X120878087Y-63203457D01*
X120650000Y-63183502D01*
X120421913Y-63203457D01*
X120200759Y-63262715D01*
X120200753Y-63262717D01*
X119993250Y-63359477D01*
X119805703Y-63490799D01*
X119805697Y-63490804D01*
X119643804Y-63652697D01*
X119643799Y-63652703D01*
X119512477Y-63840250D01*
X119494195Y-63879457D01*
X119447278Y-63932742D01*
X119379001Y-63952203D01*
X119311041Y-63931661D01*
X119265805Y-63879457D01*
X119263894Y-63875359D01*
X119247523Y-63840251D01*
X119116198Y-63652700D01*
X118954300Y-63490802D01*
X118766749Y-63359477D01*
X118766748Y-63359477D01*
X118559246Y-63262717D01*
X118559240Y-63262715D01*
X118465771Y-63237670D01*
X118338087Y-63203457D01*
X118110000Y-63183502D01*
X117881913Y-63203457D01*
X117660759Y-63262715D01*
X117660753Y-63262717D01*
X117453250Y-63359477D01*
X117265703Y-63490799D01*
X117265697Y-63490804D01*
X117103804Y-63652697D01*
X117103799Y-63652703D01*
X116972477Y-63840250D01*
X116954195Y-63879457D01*
X116907278Y-63932742D01*
X116839001Y-63952203D01*
X116771041Y-63931661D01*
X116725805Y-63879457D01*
X116723894Y-63875359D01*
X116707523Y-63840251D01*
X116576198Y-63652700D01*
X116414300Y-63490802D01*
X116226749Y-63359477D01*
X116019246Y-63262717D01*
X116019240Y-63262715D01*
X115925771Y-63237670D01*
X115798087Y-63203457D01*
X115570000Y-63183502D01*
X115341913Y-63203457D01*
X115120759Y-63262715D01*
X115120753Y-63262717D01*
X114913250Y-63359477D01*
X114725703Y-63490799D01*
X114725697Y-63490804D01*
X114563804Y-63652697D01*
X114563799Y-63652703D01*
X114432476Y-63840251D01*
X114414193Y-63879459D01*
X114367275Y-63932743D01*
X114298997Y-63952203D01*
X114231038Y-63931660D01*
X114185805Y-63879457D01*
X114167523Y-63840251D01*
X114036198Y-63652700D01*
X113874300Y-63490802D01*
X113686749Y-63359477D01*
X113686748Y-63359477D01*
X113479246Y-63262717D01*
X113479240Y-63262715D01*
X113385771Y-63237670D01*
X113258087Y-63203457D01*
X113030000Y-63183502D01*
X112801913Y-63203457D01*
X112580759Y-63262715D01*
X112580753Y-63262717D01*
X112373250Y-63359477D01*
X112185703Y-63490799D01*
X112185697Y-63490804D01*
X112023804Y-63652697D01*
X112023799Y-63652703D01*
X111892476Y-63840251D01*
X111874193Y-63879459D01*
X111827275Y-63932743D01*
X111758997Y-63952203D01*
X111691038Y-63931660D01*
X111645805Y-63879457D01*
X111627523Y-63840251D01*
X111496198Y-63652700D01*
X111334300Y-63490802D01*
X111146749Y-63359477D01*
X110939246Y-63262717D01*
X110939240Y-63262715D01*
X110845771Y-63237670D01*
X110718087Y-63203457D01*
X110490000Y-63183502D01*
X110261913Y-63203457D01*
X110040759Y-63262715D01*
X110040753Y-63262717D01*
X109833250Y-63359477D01*
X109645703Y-63490799D01*
X109645697Y-63490804D01*
X109483804Y-63652697D01*
X109483799Y-63652703D01*
X109352477Y-63840250D01*
X109334195Y-63879457D01*
X109287278Y-63932742D01*
X109219001Y-63952203D01*
X109151041Y-63931661D01*
X109105805Y-63879457D01*
X109103894Y-63875359D01*
X109087523Y-63840251D01*
X108956198Y-63652700D01*
X108794300Y-63490802D01*
X108606749Y-63359477D01*
X108606748Y-63359477D01*
X108399246Y-63262717D01*
X108399240Y-63262715D01*
X108305771Y-63237670D01*
X108178087Y-63203457D01*
X107950000Y-63183502D01*
X107721913Y-63203457D01*
X107500759Y-63262715D01*
X107500753Y-63262717D01*
X107293250Y-63359477D01*
X107105703Y-63490799D01*
X107105697Y-63490804D01*
X106943804Y-63652697D01*
X106943799Y-63652703D01*
X106812476Y-63840251D01*
X106794193Y-63879459D01*
X106747275Y-63932743D01*
X106678997Y-63952203D01*
X106611038Y-63931660D01*
X106565805Y-63879457D01*
X106547523Y-63840251D01*
X106416198Y-63652700D01*
X106254300Y-63490802D01*
X106066749Y-63359477D01*
X105859246Y-63262717D01*
X105859240Y-63262715D01*
X105765771Y-63237670D01*
X105638087Y-63203457D01*
X105410000Y-63183502D01*
X105181913Y-63203457D01*
X104960759Y-63262715D01*
X104960753Y-63262717D01*
X104753250Y-63359477D01*
X104565703Y-63490799D01*
X104565697Y-63490804D01*
X104403804Y-63652697D01*
X104403799Y-63652703D01*
X104272477Y-63840250D01*
X104254195Y-63879457D01*
X104207278Y-63932742D01*
X104139001Y-63952203D01*
X104071041Y-63931661D01*
X104025805Y-63879457D01*
X104023894Y-63875359D01*
X104007523Y-63840251D01*
X103876198Y-63652700D01*
X103714300Y-63490802D01*
X103526749Y-63359477D01*
X103526749Y-63359476D01*
X103319246Y-63262717D01*
X103319240Y-63262715D01*
X103225771Y-63237670D01*
X103098087Y-63203457D01*
X102870000Y-63183502D01*
X102641913Y-63203457D01*
X102420759Y-63262715D01*
X102420753Y-63262717D01*
X102213250Y-63359477D01*
X102025703Y-63490799D01*
X102025697Y-63490804D01*
X101863804Y-63652697D01*
X101863799Y-63652703D01*
X101732477Y-63840250D01*
X101714195Y-63879457D01*
X101667278Y-63932742D01*
X101599001Y-63952203D01*
X101531041Y-63931661D01*
X101485805Y-63879457D01*
X101483894Y-63875359D01*
X101467523Y-63840251D01*
X101336198Y-63652700D01*
X101174300Y-63490802D01*
X100986749Y-63359477D01*
X100986749Y-63359476D01*
X100779246Y-63262717D01*
X100779240Y-63262715D01*
X100685771Y-63237670D01*
X100558087Y-63203457D01*
X100330000Y-63183502D01*
X100101913Y-63203457D01*
X99880759Y-63262715D01*
X99880753Y-63262717D01*
X99673250Y-63359477D01*
X99485703Y-63490799D01*
X99485697Y-63490804D01*
X99323804Y-63652697D01*
X99323799Y-63652703D01*
X99192477Y-63840250D01*
X99174195Y-63879457D01*
X99127278Y-63932742D01*
X99059001Y-63952203D01*
X98991041Y-63931661D01*
X98945805Y-63879457D01*
X98943894Y-63875359D01*
X98927523Y-63840251D01*
X98796198Y-63652700D01*
X98634300Y-63490802D01*
X98446749Y-63359477D01*
X98446749Y-63359476D01*
X98239246Y-63262717D01*
X98239240Y-63262715D01*
X98145771Y-63237670D01*
X98018087Y-63203457D01*
X97790000Y-63183502D01*
X97561913Y-63203457D01*
X97340759Y-63262715D01*
X97340753Y-63262717D01*
X97133250Y-63359477D01*
X96945703Y-63490799D01*
X96945697Y-63490804D01*
X96783804Y-63652697D01*
X96783799Y-63652703D01*
X96652475Y-63840252D01*
X96633918Y-63880049D01*
X96587001Y-63933333D01*
X96518724Y-63952794D01*
X96450764Y-63932252D01*
X96405530Y-63880049D01*
X96387089Y-63840503D01*
X96255815Y-63653025D01*
X96255810Y-63653019D01*
X96093980Y-63491189D01*
X96093974Y-63491184D01*
X95906498Y-63359912D01*
X95699073Y-63263188D01*
X95699071Y-63263187D01*
X95504000Y-63210917D01*
X95504000Y-64585314D01*
X95488045Y-64569359D01*
X95375148Y-64511835D01*
X95281481Y-64497000D01*
X95218519Y-64497000D01*
X95124852Y-64511835D01*
X95011955Y-64569359D01*
X94995999Y-64585314D01*
X94995999Y-63210917D01*
X94800928Y-63263187D01*
X94800926Y-63263188D01*
X94593501Y-63359912D01*
X94406025Y-63491184D01*
X94406019Y-63491189D01*
X94244189Y-63653019D01*
X94244184Y-63653025D01*
X94112912Y-63840501D01*
X94016188Y-64047926D01*
X94016186Y-64047931D01*
X93956951Y-64268997D01*
X93941999Y-64439901D01*
X93942000Y-64643000D01*
X94938314Y-64643000D01*
X94922359Y-64658955D01*
X94864835Y-64771852D01*
X94845014Y-64897000D01*
X94864835Y-65022148D01*
X94922359Y-65135045D01*
X94938314Y-65151000D01*
X93942000Y-65151000D01*
X93941999Y-65354098D01*
X93956951Y-65525002D01*
X94016186Y-65746068D01*
X94016188Y-65746073D01*
X94112912Y-65953498D01*
X94244184Y-66140974D01*
X94244189Y-66140980D01*
X94406019Y-66302810D01*
X94406025Y-66302815D01*
X94593501Y-66434087D01*
X94800926Y-66530811D01*
X94800931Y-66530813D01*
X94996000Y-66583081D01*
X94996000Y-65208686D01*
X95011955Y-65224641D01*
X95124852Y-65282165D01*
X95218519Y-65297000D01*
X95281481Y-65297000D01*
X95375148Y-65282165D01*
X95488045Y-65224641D01*
X95504000Y-65208686D01*
X95504000Y-66583081D01*
X95699068Y-66530813D01*
X95699073Y-66530811D01*
X95906498Y-66434087D01*
X96093974Y-66302815D01*
X96093980Y-66302810D01*
X96255810Y-66140980D01*
X96255815Y-66140974D01*
X96387087Y-65953498D01*
X96405529Y-65913951D01*
X96452446Y-65860666D01*
X96520723Y-65841205D01*
X96588683Y-65861747D01*
X96633919Y-65913951D01*
X96652477Y-65953749D01*
X96783802Y-66141300D01*
X96945700Y-66303198D01*
X97133251Y-66434523D01*
X97340757Y-66531284D01*
X97561913Y-66590543D01*
X97790000Y-66610498D01*
X98018087Y-66590543D01*
X98239243Y-66531284D01*
X98332358Y-66487863D01*
X98402549Y-66477202D01*
X98467362Y-66506181D01*
X98474703Y-66512963D01*
X100049145Y-68087405D01*
X100083171Y-68149717D01*
X100078106Y-68220532D01*
X100035559Y-68277368D01*
X99969039Y-68302179D01*
X99960050Y-68302500D01*
X98892611Y-68302500D01*
X98876379Y-68300708D01*
X98876356Y-68300958D01*
X98868463Y-68300211D01*
X98796642Y-68302469D01*
X98794663Y-68302500D01*
X98764568Y-68302500D01*
X98757222Y-68303427D01*
X98751309Y-68303893D01*
X98702168Y-68305437D01*
X98681570Y-68311421D01*
X98662224Y-68315428D01*
X98640935Y-68318118D01*
X98595223Y-68336216D01*
X98589606Y-68338139D01*
X98542400Y-68351854D01*
X98523933Y-68362775D01*
X98506184Y-68371469D01*
X98486246Y-68379363D01*
X98486242Y-68379365D01*
X98446470Y-68408261D01*
X98441510Y-68411519D01*
X98399191Y-68436548D01*
X98384029Y-68451711D01*
X98369002Y-68464545D01*
X98351646Y-68477156D01*
X98351643Y-68477158D01*
X98320294Y-68515051D01*
X98316298Y-68519442D01*
X95934703Y-70901035D01*
X95872391Y-70935061D01*
X95801575Y-70929996D01*
X95792359Y-70926135D01*
X95699251Y-70882719D01*
X95699240Y-70882715D01*
X95601613Y-70856556D01*
X95478087Y-70823457D01*
X95250000Y-70803502D01*
X95021913Y-70823457D01*
X94800759Y-70882715D01*
X94800753Y-70882717D01*
X94593250Y-70979477D01*
X94405703Y-71110799D01*
X94405697Y-71110804D01*
X94243804Y-71272697D01*
X94243799Y-71272703D01*
X94112477Y-71460250D01*
X94015717Y-71667753D01*
X94015715Y-71667759D01*
X93956457Y-71888913D01*
X93941499Y-72059880D01*
X93941499Y-72974119D01*
X93956457Y-73145086D01*
X94015715Y-73366240D01*
X94015717Y-73366246D01*
X94082517Y-73509500D01*
X94112477Y-73573749D01*
X94243802Y-73761300D01*
X94405700Y-73923198D01*
X94593251Y-74054523D01*
X94800757Y-74151284D01*
X95021913Y-74210543D01*
X95250000Y-74230498D01*
X95478087Y-74210543D01*
X95699243Y-74151284D01*
X95906749Y-74054523D01*
X96094300Y-73923198D01*
X96256198Y-73761300D01*
X96387523Y-73573749D01*
X96405804Y-73534543D01*
X96452721Y-73481258D01*
X96520998Y-73461796D01*
X96588958Y-73482337D01*
X96634195Y-73534543D01*
X96652477Y-73573749D01*
X96783802Y-73761300D01*
X96945700Y-73923198D01*
X97133251Y-74054523D01*
X97340757Y-74151284D01*
X97561913Y-74210543D01*
X97790000Y-74230498D01*
X98018087Y-74210543D01*
X98239243Y-74151284D01*
X98446749Y-74054523D01*
X98634300Y-73923198D01*
X98796198Y-73761300D01*
X98927523Y-73573749D01*
X98945804Y-73534543D01*
X98992721Y-73481258D01*
X99060998Y-73461796D01*
X99128958Y-73482337D01*
X99174195Y-73534543D01*
X99192477Y-73573749D01*
X99323802Y-73761300D01*
X99485700Y-73923198D01*
X99673251Y-74054523D01*
X99880757Y-74151284D01*
X100101913Y-74210543D01*
X100330000Y-74230498D01*
X100558087Y-74210543D01*
X100779243Y-74151284D01*
X100986749Y-74054523D01*
X101174300Y-73923198D01*
X101336198Y-73761300D01*
X101467523Y-73573749D01*
X101485804Y-73534543D01*
X101532721Y-73481258D01*
X101600998Y-73461796D01*
X101668958Y-73482337D01*
X101714195Y-73534543D01*
X101732477Y-73573749D01*
X101863802Y-73761300D01*
X102025700Y-73923198D01*
X102213251Y-74054523D01*
X102420757Y-74151284D01*
X102641913Y-74210543D01*
X102870000Y-74230498D01*
X103098087Y-74210543D01*
X103319243Y-74151284D01*
X103436470Y-74096619D01*
X103506661Y-74085958D01*
X103571474Y-74114937D01*
X103578815Y-74121719D01*
X109093753Y-79636657D01*
X109103720Y-79649097D01*
X109103947Y-79648910D01*
X109108999Y-79655017D01*
X109159388Y-79702335D01*
X109160777Y-79703681D01*
X109171018Y-79713922D01*
X109181226Y-79724131D01*
X109186768Y-79728430D01*
X109191281Y-79732285D01*
X109225679Y-79764586D01*
X109225680Y-79764586D01*
X109225682Y-79764588D01*
X109243429Y-79774344D01*
X109259959Y-79785202D01*
X109275959Y-79797613D01*
X109307136Y-79811104D01*
X109319251Y-79816347D01*
X109324585Y-79818959D01*
X109365940Y-79841695D01*
X109385562Y-79846733D01*
X109404263Y-79853135D01*
X109422855Y-79861181D01*
X109434663Y-79863051D01*
X109498816Y-79893462D01*
X109536344Y-79953730D01*
X109535332Y-80024719D01*
X109496100Y-80083892D01*
X109431105Y-80112461D01*
X109414954Y-80113500D01*
X94660224Y-80113500D01*
X94592103Y-80093498D01*
X94586163Y-80089436D01*
X94578532Y-80083892D01*
X94436752Y-79980882D01*
X94262288Y-79903206D01*
X94075487Y-79863500D01*
X93884513Y-79863500D01*
X93697711Y-79903206D01*
X93523247Y-79980882D01*
X93368744Y-80093135D01*
X93240965Y-80235048D01*
X93240958Y-80235058D01*
X93145476Y-80400438D01*
X93145473Y-80400445D01*
X93086457Y-80582072D01*
X93066496Y-80771999D01*
X93086457Y-80961927D01*
X93116526Y-81054470D01*
X93145473Y-81143556D01*
X93145476Y-81143561D01*
X93240958Y-81308941D01*
X93240965Y-81308951D01*
X93368744Y-81450864D01*
X93368747Y-81450866D01*
X93523248Y-81563118D01*
X93697712Y-81640794D01*
X93884513Y-81680500D01*
X94075487Y-81680500D01*
X94262288Y-81640794D01*
X94436752Y-81563118D01*
X94586163Y-81454563D01*
X94653031Y-81430706D01*
X94660224Y-81430500D01*
X95482167Y-81430500D01*
X95550288Y-81450502D01*
X95596781Y-81504158D01*
X95607476Y-81543327D01*
X95611676Y-81583283D01*
X95626457Y-81723927D01*
X95656526Y-81816470D01*
X95685473Y-81905556D01*
X95685476Y-81905561D01*
X95780958Y-82070941D01*
X95780965Y-82070951D01*
X95908744Y-82212864D01*
X95908747Y-82212866D01*
X96063248Y-82325118D01*
X96237712Y-82402794D01*
X96424513Y-82442500D01*
X96615487Y-82442500D01*
X96802288Y-82402794D01*
X96976752Y-82325118D01*
X97126163Y-82216563D01*
X97193031Y-82192706D01*
X97200224Y-82192500D01*
X98022167Y-82192500D01*
X98090288Y-82212502D01*
X98136781Y-82266158D01*
X98147476Y-82305327D01*
X98151676Y-82345283D01*
X98166457Y-82485927D01*
X98196526Y-82578470D01*
X98225473Y-82667556D01*
X98225476Y-82667561D01*
X98320958Y-82832941D01*
X98320965Y-82832951D01*
X98448744Y-82974864D01*
X98448747Y-82974866D01*
X98603248Y-83087118D01*
X98777712Y-83164794D01*
X98964513Y-83204500D01*
X99155487Y-83204500D01*
X99342288Y-83164794D01*
X99516752Y-83087118D01*
X99666163Y-82978563D01*
X99733031Y-82954706D01*
X99740224Y-82954500D01*
X100562167Y-82954500D01*
X100630288Y-82974502D01*
X100676781Y-83028158D01*
X100687476Y-83067327D01*
X100691676Y-83107283D01*
X100706457Y-83247927D01*
X100736526Y-83340470D01*
X100765473Y-83429556D01*
X100765476Y-83429561D01*
X100860958Y-83594941D01*
X100860965Y-83594951D01*
X100988744Y-83736864D01*
X100988747Y-83736866D01*
X101143248Y-83849118D01*
X101317712Y-83926794D01*
X101504513Y-83966500D01*
X101695487Y-83966500D01*
X101882288Y-83926794D01*
X102056752Y-83849118D01*
X102206163Y-83740563D01*
X102273031Y-83716706D01*
X102280224Y-83716500D01*
X103102167Y-83716500D01*
X103170288Y-83736502D01*
X103216781Y-83790158D01*
X103227476Y-83829327D01*
X103231676Y-83869283D01*
X103246457Y-84009927D01*
X103276526Y-84102470D01*
X103305473Y-84191556D01*
X103305476Y-84191561D01*
X103400958Y-84356941D01*
X103400965Y-84356951D01*
X103528744Y-84498864D01*
X103528747Y-84498866D01*
X103683248Y-84611118D01*
X103857712Y-84688794D01*
X104044513Y-84728500D01*
X104235487Y-84728500D01*
X104422288Y-84688794D01*
X104596752Y-84611118D01*
X104746163Y-84502563D01*
X104813031Y-84478706D01*
X104820224Y-84478500D01*
X108493792Y-84478500D01*
X108561913Y-84498502D01*
X108608406Y-84552158D01*
X108618510Y-84622432D01*
X108589016Y-84687012D01*
X108587428Y-84688810D01*
X108480965Y-84807048D01*
X108480958Y-84807058D01*
X108385476Y-84972438D01*
X108385473Y-84972445D01*
X108326457Y-85154072D01*
X108317720Y-85237206D01*
X108309557Y-85314882D01*
X108307477Y-85334670D01*
X108280464Y-85400327D01*
X108222243Y-85440957D01*
X108182167Y-85447500D01*
X107360224Y-85447500D01*
X107292103Y-85427498D01*
X107286163Y-85423436D01*
X107136752Y-85314882D01*
X106962288Y-85237206D01*
X106775487Y-85197500D01*
X106584513Y-85197500D01*
X106397711Y-85237206D01*
X106223247Y-85314882D01*
X106068744Y-85427135D01*
X105940965Y-85569048D01*
X105940958Y-85569058D01*
X105845476Y-85734438D01*
X105845473Y-85734444D01*
X105837316Y-85759548D01*
X105786457Y-85916072D01*
X105766496Y-86106000D01*
X105786457Y-86295927D01*
X105807276Y-86360000D01*
X105845473Y-86477556D01*
X105845476Y-86477561D01*
X105940958Y-86642941D01*
X105940965Y-86642951D01*
X106068744Y-86784864D01*
X106068747Y-86784866D01*
X106223248Y-86897118D01*
X106397712Y-86974794D01*
X106584513Y-87014500D01*
X106775487Y-87014500D01*
X106962288Y-86974794D01*
X107136752Y-86897118D01*
X107286163Y-86788563D01*
X107353031Y-86764706D01*
X107360224Y-86764500D01*
X116308675Y-86764500D01*
X116376796Y-86784502D01*
X116397770Y-86801405D01*
X116812209Y-87215844D01*
X116846235Y-87278156D01*
X116841170Y-87348971D01*
X116798623Y-87405807D01*
X116732103Y-87430618D01*
X116679083Y-87422995D01*
X116569201Y-87382011D01*
X116569199Y-87382010D01*
X116569197Y-87382010D01*
X116569196Y-87382009D01*
X116508649Y-87375500D01*
X116508638Y-87375500D01*
X114631362Y-87375500D01*
X114631350Y-87375500D01*
X114570803Y-87382009D01*
X114570795Y-87382011D01*
X114433797Y-87433110D01*
X114375509Y-87476744D01*
X114308988Y-87501554D01*
X114239614Y-87486462D01*
X114224491Y-87476744D01*
X114206900Y-87463575D01*
X114166204Y-87433111D01*
X114166202Y-87433110D01*
X114029204Y-87382011D01*
X114029196Y-87382009D01*
X113968649Y-87375500D01*
X113968638Y-87375500D01*
X112091362Y-87375500D01*
X112091350Y-87375500D01*
X112030803Y-87382009D01*
X112030795Y-87382011D01*
X111893797Y-87433110D01*
X111893792Y-87433112D01*
X111835092Y-87477056D01*
X111768572Y-87501867D01*
X111699198Y-87486776D01*
X111684073Y-87477056D01*
X111625963Y-87433554D01*
X111489093Y-87382505D01*
X111428597Y-87376000D01*
X110744000Y-87376000D01*
X110744000Y-91822000D01*
X110723998Y-91890121D01*
X110670342Y-91936614D01*
X110618000Y-91948000D01*
X110362000Y-91948000D01*
X110293879Y-91927998D01*
X110247386Y-91874342D01*
X110236000Y-91822000D01*
X110236000Y-87376000D01*
X109551402Y-87376000D01*
X109490906Y-87382505D01*
X109354035Y-87433555D01*
X109295924Y-87477056D01*
X109229403Y-87501866D01*
X109160029Y-87486774D01*
X109144907Y-87477055D01*
X109086207Y-87433112D01*
X109086202Y-87433110D01*
X108949204Y-87382011D01*
X108949196Y-87382009D01*
X108888649Y-87375500D01*
X108888638Y-87375500D01*
X107011362Y-87375500D01*
X107011350Y-87375500D01*
X106950803Y-87382009D01*
X106950795Y-87382011D01*
X106813797Y-87433110D01*
X106755509Y-87476744D01*
X106688988Y-87501554D01*
X106619614Y-87486462D01*
X106604491Y-87476744D01*
X106586900Y-87463575D01*
X106546204Y-87433111D01*
X106546202Y-87433110D01*
X106409204Y-87382011D01*
X106409196Y-87382009D01*
X106348649Y-87375500D01*
X106348638Y-87375500D01*
X104471362Y-87375500D01*
X104471350Y-87375500D01*
X104410803Y-87382009D01*
X104410795Y-87382011D01*
X104273797Y-87433110D01*
X104215509Y-87476744D01*
X104148988Y-87501554D01*
X104079614Y-87486462D01*
X104064491Y-87476744D01*
X104046900Y-87463575D01*
X104006204Y-87433111D01*
X104006202Y-87433110D01*
X103869204Y-87382011D01*
X103869196Y-87382009D01*
X103808649Y-87375500D01*
X103808638Y-87375500D01*
X101931362Y-87375500D01*
X101931350Y-87375500D01*
X101870803Y-87382009D01*
X101870795Y-87382011D01*
X101733797Y-87433110D01*
X101675509Y-87476744D01*
X101608988Y-87501554D01*
X101539614Y-87486462D01*
X101524491Y-87476744D01*
X101506900Y-87463575D01*
X101466204Y-87433111D01*
X101466202Y-87433110D01*
X101329204Y-87382011D01*
X101329196Y-87382009D01*
X101268649Y-87375500D01*
X101268638Y-87375500D01*
X99391362Y-87375500D01*
X99391350Y-87375500D01*
X99330803Y-87382009D01*
X99330795Y-87382011D01*
X99193797Y-87433110D01*
X99135509Y-87476744D01*
X99068988Y-87501554D01*
X98999614Y-87486462D01*
X98984491Y-87476744D01*
X98966900Y-87463575D01*
X98926204Y-87433111D01*
X98926202Y-87433110D01*
X98789204Y-87382011D01*
X98789196Y-87382009D01*
X98728649Y-87375500D01*
X98728638Y-87375500D01*
X96851362Y-87375500D01*
X96851350Y-87375500D01*
X96790803Y-87382009D01*
X96790795Y-87382011D01*
X96653797Y-87433110D01*
X96595509Y-87476744D01*
X96528988Y-87501554D01*
X96459614Y-87486462D01*
X96444491Y-87476744D01*
X96426900Y-87463575D01*
X96386204Y-87433111D01*
X96386202Y-87433110D01*
X96249204Y-87382011D01*
X96249196Y-87382009D01*
X96188649Y-87375500D01*
X96188638Y-87375500D01*
X94311362Y-87375500D01*
X94311350Y-87375500D01*
X94250803Y-87382009D01*
X94250795Y-87382011D01*
X94113797Y-87433110D01*
X94055509Y-87476744D01*
X93988988Y-87501554D01*
X93919614Y-87486462D01*
X93904491Y-87476744D01*
X93886900Y-87463575D01*
X93846204Y-87433111D01*
X93846202Y-87433110D01*
X93709204Y-87382011D01*
X93709196Y-87382009D01*
X93648649Y-87375500D01*
X93648638Y-87375500D01*
X91771362Y-87375500D01*
X91771350Y-87375500D01*
X91710803Y-87382009D01*
X91710795Y-87382011D01*
X91573797Y-87433110D01*
X91573793Y-87433112D01*
X91515507Y-87476744D01*
X91448986Y-87501554D01*
X91379612Y-87486462D01*
X91364490Y-87476743D01*
X91306207Y-87433112D01*
X91306202Y-87433110D01*
X91169204Y-87382011D01*
X91169196Y-87382009D01*
X91108649Y-87375500D01*
X91108638Y-87375500D01*
X89231362Y-87375500D01*
X89231350Y-87375500D01*
X89170803Y-87382009D01*
X89170795Y-87382011D01*
X89033797Y-87433110D01*
X88975509Y-87476744D01*
X88908988Y-87501554D01*
X88839614Y-87486462D01*
X88824491Y-87476744D01*
X88806900Y-87463575D01*
X88766204Y-87433111D01*
X88766202Y-87433110D01*
X88629204Y-87382011D01*
X88629196Y-87382009D01*
X88568649Y-87375500D01*
X88568638Y-87375500D01*
X86691362Y-87375500D01*
X86691350Y-87375500D01*
X86630803Y-87382009D01*
X86630795Y-87382011D01*
X86493797Y-87433110D01*
X86435509Y-87476744D01*
X86368988Y-87501554D01*
X86299614Y-87486462D01*
X86284491Y-87476744D01*
X86266900Y-87463575D01*
X86226204Y-87433111D01*
X86226202Y-87433110D01*
X86089204Y-87382011D01*
X86089196Y-87382009D01*
X86028649Y-87375500D01*
X86028638Y-87375500D01*
X84151362Y-87375500D01*
X84151350Y-87375500D01*
X84090803Y-87382009D01*
X84090795Y-87382011D01*
X83953797Y-87433110D01*
X83895509Y-87476744D01*
X83828988Y-87501554D01*
X83759614Y-87486462D01*
X83744491Y-87476744D01*
X83726900Y-87463575D01*
X83686204Y-87433111D01*
X83686202Y-87433110D01*
X83549204Y-87382011D01*
X83549196Y-87382009D01*
X83488649Y-87375500D01*
X83488638Y-87375500D01*
X81611362Y-87375500D01*
X81611350Y-87375500D01*
X81550803Y-87382009D01*
X81550795Y-87382011D01*
X81413797Y-87433110D01*
X81413793Y-87433112D01*
X81355507Y-87476744D01*
X81288986Y-87501554D01*
X81219612Y-87486462D01*
X81204490Y-87476743D01*
X81146207Y-87433112D01*
X81146202Y-87433110D01*
X81009204Y-87382011D01*
X81009196Y-87382009D01*
X80948649Y-87375500D01*
X80948638Y-87375500D01*
X79071362Y-87375500D01*
X79071350Y-87375500D01*
X79010803Y-87382009D01*
X79010795Y-87382011D01*
X78873797Y-87433110D01*
X78815509Y-87476744D01*
X78748988Y-87501554D01*
X78679614Y-87486462D01*
X78664491Y-87476744D01*
X78646900Y-87463575D01*
X78606204Y-87433111D01*
X78606202Y-87433110D01*
X78469204Y-87382011D01*
X78469196Y-87382009D01*
X78408649Y-87375500D01*
X78408638Y-87375500D01*
X76531362Y-87375500D01*
X76531350Y-87375500D01*
X76470803Y-87382009D01*
X76470795Y-87382011D01*
X76333797Y-87433110D01*
X76275509Y-87476744D01*
X76208988Y-87501554D01*
X76139614Y-87486462D01*
X76124491Y-87476744D01*
X76106900Y-87463575D01*
X76066204Y-87433111D01*
X76066202Y-87433110D01*
X75929204Y-87382011D01*
X75929196Y-87382009D01*
X75868649Y-87375500D01*
X75868638Y-87375500D01*
X75814500Y-87375500D01*
X75746379Y-87355498D01*
X75699886Y-87301842D01*
X75688500Y-87249500D01*
X75688500Y-86642999D01*
X75705380Y-86580000D01*
X75764527Y-86477556D01*
X75823542Y-86295928D01*
X75843504Y-86106000D01*
X75823542Y-85916072D01*
X75764527Y-85734444D01*
X75669040Y-85569056D01*
X75669038Y-85569054D01*
X75669034Y-85569048D01*
X75541255Y-85427135D01*
X75386752Y-85314882D01*
X75212288Y-85237206D01*
X75025487Y-85197500D01*
X74834513Y-85197500D01*
X74647711Y-85237206D01*
X74473247Y-85314882D01*
X74318744Y-85427135D01*
X74190965Y-85569048D01*
X74190958Y-85569058D01*
X74095476Y-85734438D01*
X74095473Y-85734444D01*
X74087316Y-85759548D01*
X74036457Y-85916072D01*
X74016496Y-86106000D01*
X74036457Y-86295927D01*
X74057276Y-86360000D01*
X74095473Y-86477556D01*
X74154619Y-86580000D01*
X74171500Y-86642999D01*
X74171500Y-87249500D01*
X74151498Y-87317621D01*
X74097842Y-87364114D01*
X74045500Y-87375500D01*
X73991350Y-87375500D01*
X73930803Y-87382009D01*
X73930795Y-87382011D01*
X73793797Y-87433110D01*
X73793792Y-87433112D01*
X73676738Y-87520738D01*
X73589112Y-87637792D01*
X73589110Y-87637797D01*
X73538011Y-87774795D01*
X73538009Y-87774803D01*
X73531500Y-87835350D01*
X73531500Y-95552649D01*
X73538530Y-95618032D01*
X73525924Y-95687900D01*
X73477546Y-95739862D01*
X73413252Y-95757500D01*
X72262500Y-95757500D01*
X72194379Y-95737498D01*
X72147886Y-95683842D01*
X72136500Y-95631500D01*
X72136500Y-86639157D01*
X72136528Y-86639014D01*
X72136524Y-86639014D01*
X72136539Y-86614002D01*
X72136541Y-86614000D01*
X72136383Y-86613617D01*
X72136381Y-86613616D01*
X72136380Y-86613614D01*
X72136201Y-86613541D01*
X72136003Y-86613459D01*
X72111048Y-86613459D01*
X72110842Y-86613500D01*
X71754572Y-86613500D01*
X71686451Y-86593498D01*
X71639958Y-86539842D01*
X71628572Y-86487428D01*
X71646550Y-54883803D01*
X71646649Y-54880307D01*
X71646857Y-54876596D01*
X71653043Y-54766450D01*
X71663449Y-54594420D01*
X71664223Y-54587685D01*
X71687329Y-54451692D01*
X71714606Y-54302848D01*
X71716026Y-54296806D01*
X71755267Y-54160599D01*
X71755592Y-54159514D01*
X71799292Y-54019277D01*
X71801226Y-54013932D01*
X71856139Y-53881360D01*
X71856787Y-53879860D01*
X71916383Y-53747443D01*
X71918664Y-53742885D01*
X71988444Y-53616628D01*
X71989615Y-53614604D01*
X72064267Y-53491115D01*
X72066769Y-53487300D01*
X72150531Y-53369249D01*
X72152205Y-53367006D01*
X72240976Y-53253697D01*
X72243527Y-53250651D01*
X72340091Y-53142595D01*
X72342435Y-53140116D01*
X72444116Y-53038435D01*
X72446595Y-53036091D01*
X72554651Y-52939527D01*
X72557697Y-52936976D01*
X72671006Y-52848205D01*
X72673249Y-52846531D01*
X72791300Y-52762769D01*
X72795115Y-52760267D01*
X72918604Y-52685615D01*
X72920628Y-52684444D01*
X73046885Y-52614664D01*
X73051443Y-52612383D01*
X73183860Y-52552787D01*
X73185360Y-52552139D01*
X73317932Y-52497226D01*
X73323283Y-52495290D01*
X73324973Y-52494763D01*
X73463514Y-52451592D01*
X73464599Y-52451267D01*
X73600806Y-52412026D01*
X73606848Y-52410606D01*
X73755692Y-52383329D01*
X73891693Y-52360221D01*
X73898420Y-52359449D01*
X74070450Y-52349043D01*
X74181253Y-52342820D01*
X74184289Y-52342650D01*
X74187822Y-52342551D01*
X149114289Y-52342551D01*
X149117813Y-52342649D01*
G37*
%TD.AperFunction*%
%TD*%
M02*
