%TF.GenerationSoftware,KiCad,Pcbnew,7.0.3*%
%TF.CreationDate,2023-05-28T21:58:01+08:00*%
%TF.ProjectId,CartdrigeDev,43617274-6472-4696-9765-4465762e6b69,rev?*%
%TF.SameCoordinates,Original*%
%TF.FileFunction,Copper,L1,Top*%
%TF.FilePolarity,Positive*%
%FSLAX46Y46*%
G04 Gerber Fmt 4.6, Leading zero omitted, Abs format (unit mm)*
G04 Created by KiCad (PCBNEW 7.0.3) date 2023-05-28 21:58:01*
%MOMM*%
%LPD*%
G01*
G04 APERTURE LIST*
%TA.AperFunction,ComponentPad*%
%ADD10C,1.600000*%
%TD*%
%TA.AperFunction,ConnectorPad*%
%ADD11R,1.780000X7.620000*%
%TD*%
%TA.AperFunction,ComponentPad*%
%ADD12R,1.600000X2.400000*%
%TD*%
%TA.AperFunction,ComponentPad*%
%ADD13O,1.600000X2.400000*%
%TD*%
%TA.AperFunction,ViaPad*%
%ADD14C,0.800000*%
%TD*%
%TA.AperFunction,Conductor*%
%ADD15C,0.500000*%
%TD*%
%TA.AperFunction,Conductor*%
%ADD16C,0.300000*%
%TD*%
G04 APERTURE END LIST*
D10*
%TO.P,C1,1*%
%TO.N,+5V*%
X146050000Y-72517000D03*
%TO.P,C1,2*%
%TO.N,GND*%
X146050000Y-70017000D03*
%TD*%
D11*
%TO.P,J2,2,Pin_2*%
%TO.N,+5V*%
X148590000Y-91694000D03*
%TO.P,J2,4,Pin_4*%
%TO.N,/CLOCK*%
X146050000Y-91694000D03*
%TO.P,J2,6,Pin_6*%
%TO.N,/A12*%
X143510000Y-91694000D03*
%TO.P,J2,8,Pin_8*%
%TO.N,/A13*%
X140970000Y-91694000D03*
%TO.P,J2,10,Pin_10*%
%TO.N,/A14*%
X138430000Y-91694000D03*
%TO.P,J2,12,Pin_12*%
%TO.N,/A15*%
X135890000Y-91694000D03*
%TO.P,J2,14,Pin_14*%
%TO.N,/D7*%
X133350000Y-91694000D03*
%TO.P,J2,16,Pin_16*%
%TO.N,/D6*%
X130810000Y-91694000D03*
%TO.P,J2,18,Pin_18*%
%TO.N,/D5*%
X128270000Y-91694000D03*
%TO.P,J2,20,Pin_20*%
%TO.N,/D4*%
X125730000Y-91694000D03*
%TO.P,J2,22,Pin_22*%
%TO.N,/D3*%
X123190000Y-91694000D03*
%TO.P,J2,24,Pin_24*%
%TO.N,/D2*%
X120650000Y-91694000D03*
%TO.P,J2,26,Pin_26*%
%TO.N,/D1*%
X118110000Y-91694000D03*
%TO.P,J2,28,Pin_28*%
%TO.N,/D0*%
X115570000Y-91694000D03*
%TO.P,J2,30,Pin_30*%
%TO.N,/PORT1CSB*%
X113030000Y-91694000D03*
%TO.P,J2,32,Pin_32*%
%TO.N,/RESET*%
X110490000Y-91694000D03*
%TO.P,J2,34,Pin_34*%
%TO.N,/DMAB*%
X107950000Y-91694000D03*
%TO.P,J2,36,Pin_36*%
%TO.N,/NMIB*%
X105410000Y-91694000D03*
%TO.P,J2,38,Pin_38*%
%TO.N,unconnected-(J2-Pin_38-Pad38)*%
X102870000Y-91694000D03*
%TO.P,J2,40,Pin_40*%
%TO.N,unconnected-(J2-Pin_40-Pad40)*%
X100330000Y-91694000D03*
%TO.P,J2,42,Pin_42*%
%TO.N,unconnected-(J2-Pin_42-Pad42)*%
X97790000Y-91694000D03*
%TO.P,J2,44,Pin_44*%
%TO.N,unconnected-(J2-Pin_44-Pad44)*%
X95250000Y-91694000D03*
%TO.P,J2,46,Pin_46*%
%TO.N,unconnected-(J2-Pin_46-Pad46)*%
X92710000Y-91694000D03*
%TO.P,J2,48,Pin_48*%
%TO.N,unconnected-(J2-Pin_48-Pad48)*%
X90170000Y-91694000D03*
%TO.P,J2,50,Pin_50*%
%TO.N,unconnected-(J2-Pin_50-Pad50)*%
X87630000Y-91694000D03*
%TO.P,J2,52,Pin_52*%
%TO.N,unconnected-(J2-Pin_52-Pad52)*%
X85090000Y-91694000D03*
%TO.P,J2,54,Pin_54*%
%TO.N,unconnected-(J2-Pin_54-Pad54)*%
X82550000Y-91694000D03*
%TO.P,J2,56,Pin_56*%
%TO.N,unconnected-(J2-Pin_56-Pad56)*%
X80010000Y-91694000D03*
%TO.P,J2,58,Pin_58*%
%TO.N,unconnected-(J2-Pin_58-Pad58)*%
X77470000Y-91694000D03*
%TO.P,J2,60,Pin_60*%
%TO.N,unconnected-(J2-Pin_60-Pad60)*%
X74930000Y-91694000D03*
%TD*%
D12*
%TO.P,U1,1,A14*%
%TO.N,/A14*%
X128270000Y-64897000D03*
D13*
%TO.P,U1,2,A12*%
%TO.N,/A12*%
X125730000Y-64897000D03*
%TO.P,U1,3,A7*%
%TO.N,/A7*%
X123190000Y-64897000D03*
%TO.P,U1,4,A6*%
%TO.N,/A6*%
X120650000Y-64897000D03*
%TO.P,U1,5,A5*%
%TO.N,/A5*%
X118110000Y-64897000D03*
%TO.P,U1,6,A4*%
%TO.N,/A4*%
X115570000Y-64897000D03*
%TO.P,U1,7,A3*%
%TO.N,/A3*%
X113030000Y-64897000D03*
%TO.P,U1,8,A2*%
%TO.N,/A2*%
X110490000Y-64897000D03*
%TO.P,U1,9,A1*%
%TO.N,/A1*%
X107950000Y-64897000D03*
%TO.P,U1,10,A0*%
%TO.N,/A0*%
X105410000Y-64897000D03*
%TO.P,U1,11,D0*%
%TO.N,/D0*%
X102870000Y-64897000D03*
%TO.P,U1,12,D1*%
%TO.N,/D1*%
X100330000Y-64897000D03*
%TO.P,U1,13,D2*%
%TO.N,/D2*%
X97790000Y-64897000D03*
%TO.P,U1,14,GND*%
%TO.N,GND*%
X95250000Y-64897000D03*
%TO.P,U1,15,D3*%
%TO.N,/D3*%
X95250000Y-72517000D03*
%TO.P,U1,16,D4*%
%TO.N,/D4*%
X97790000Y-72517000D03*
%TO.P,U1,17,D5*%
%TO.N,/D5*%
X100330000Y-72517000D03*
%TO.P,U1,18,D6*%
%TO.N,/D6*%
X102870000Y-72517000D03*
%TO.P,U1,19,D7*%
%TO.N,/D7*%
X105410000Y-72517000D03*
%TO.P,U1,20,~{CS}*%
%TO.N,/PORT1CSB*%
X107950000Y-72517000D03*
%TO.P,U1,21,A10*%
%TO.N,/A10*%
X110490000Y-72517000D03*
%TO.P,U1,22,~{OE}*%
%TO.N,GND*%
X113030000Y-72517000D03*
%TO.P,U1,23,A11*%
%TO.N,/A11*%
X115570000Y-72517000D03*
%TO.P,U1,24,A9*%
%TO.N,/A9*%
X118110000Y-72517000D03*
%TO.P,U1,25,A8*%
%TO.N,/A8*%
X120650000Y-72517000D03*
%TO.P,U1,26,A13*%
%TO.N,/A13*%
X123190000Y-72517000D03*
%TO.P,U1,27,~{WE}*%
%TO.N,+5V*%
X125730000Y-72517000D03*
%TO.P,U1,28,VCC*%
X128270000Y-72517000D03*
%TD*%
D14*
%TO.N,+5V*%
X74930000Y-86106000D03*
%TO.N,/A13*%
X140970000Y-74168000D03*
%TO.N,/A8*%
X137414000Y-74930000D03*
X137414000Y-86296500D03*
%TO.N,/A9*%
X139700000Y-86360000D03*
X139700000Y-75692000D03*
%TO.N,/A11*%
X146050000Y-86360000D03*
X146050000Y-76454000D03*
%TO.N,/A10*%
X142240000Y-86360000D03*
X142240000Y-80010000D03*
X110490000Y-80010000D03*
%TO.N,/D7*%
X133350000Y-78486000D03*
%TO.N,/D6*%
X130810000Y-79248000D03*
%TO.N,/D5*%
X127000000Y-70485000D03*
%TO.N,/D4*%
X124460000Y-69723000D03*
%TO.N,/D3*%
X121920000Y-68961000D03*
%TO.N,/D2*%
X119380000Y-68199000D03*
%TO.N,/D1*%
X116840000Y-67437000D03*
%TO.N,/D0*%
X114300000Y-66675000D03*
%TO.N,/A0*%
X106680000Y-86106000D03*
%TO.N,/A1*%
X109220000Y-85344000D03*
%TO.N,/A2*%
X111760000Y-84582000D03*
%TO.N,/A3*%
X104140000Y-83820000D03*
%TO.N,/A4*%
X101600000Y-83058000D03*
%TO.N,/A5*%
X99060000Y-82296000D03*
%TO.N,/A6*%
X96520000Y-81534000D03*
%TO.N,/A7*%
X93980000Y-80772000D03*
%TO.N,/A12*%
X143510000Y-67056000D03*
%TO.N,/A14*%
X138430000Y-64897000D03*
%TD*%
D15*
%TO.N,+5V*%
X148590000Y-91694000D02*
X148590000Y-57150000D01*
X132334000Y-68453000D02*
X132334000Y-53848000D01*
X146050000Y-72517000D02*
X148590000Y-72517000D01*
X148590000Y-57150000D02*
X145288000Y-53848000D01*
X74930000Y-57658000D02*
X74930000Y-86106000D01*
X132334000Y-53848000D02*
X78740000Y-53848000D01*
X128270000Y-72517000D02*
X132334000Y-68453000D01*
X145288000Y-53848000D02*
X132334000Y-53848000D01*
X78740000Y-53848000D02*
X74930000Y-57658000D01*
D16*
%TO.N,/A13*%
X140970000Y-74295000D02*
X140843000Y-74168000D01*
X140970000Y-91694000D02*
X140970000Y-74295000D01*
%TO.N,/A8*%
X137414000Y-74930000D02*
X137414000Y-86233000D01*
X137414000Y-86233000D02*
X137350500Y-86296500D01*
%TO.N,/A9*%
X139700000Y-75692000D02*
X139700000Y-86360000D01*
%TO.N,/A11*%
X146050000Y-76454000D02*
X146050000Y-86360000D01*
%TO.N,/A10*%
X142240000Y-80010000D02*
X142240000Y-86360000D01*
X110490000Y-72517000D02*
X110490000Y-80010000D01*
%TO.N,/D7*%
X133350000Y-79756000D02*
X133350000Y-91694000D01*
X133350000Y-78486000D02*
X133350000Y-79756000D01*
%TO.N,/D6*%
X130810000Y-79248000D02*
X130810000Y-80518000D01*
X130810000Y-80518000D02*
X130810000Y-91694000D01*
%TO.N,/D5*%
X128270000Y-75438000D02*
X128270000Y-91694000D01*
X127000000Y-70485000D02*
X127000000Y-74168000D01*
X127000000Y-74168000D02*
X128270000Y-75438000D01*
%TO.N,/D4*%
X125730000Y-75311000D02*
X125730000Y-91694000D01*
X124460000Y-69723000D02*
X124460000Y-74041000D01*
X124460000Y-74041000D02*
X125730000Y-75311000D01*
%TO.N,/D3*%
X123190000Y-75311000D02*
X123190000Y-91694000D01*
X121920000Y-74041000D02*
X123190000Y-75311000D01*
X121920000Y-68961000D02*
X121920000Y-74041000D01*
%TO.N,/D2*%
X119380000Y-74041000D02*
X120650000Y-75311000D01*
X119380000Y-68199000D02*
X119380000Y-74041000D01*
X120650000Y-75311000D02*
X120650000Y-91694000D01*
%TO.N,/D1*%
X118110000Y-75311000D02*
X118110000Y-91694000D01*
X116840000Y-67437000D02*
X116840000Y-74041000D01*
X116840000Y-74041000D02*
X118110000Y-75311000D01*
%TO.N,/D0*%
X114300000Y-66675000D02*
X114300000Y-74041000D01*
X114300000Y-74041000D02*
X115570000Y-75311000D01*
X115570000Y-75311000D02*
X115570000Y-91694000D01*
%TO.N,/A0*%
X106680000Y-86106000D02*
X106680000Y-66167000D01*
X106680000Y-66167000D02*
X105410000Y-64897000D01*
%TO.N,/A1*%
X109220000Y-85344000D02*
X109220000Y-66167000D01*
X109220000Y-66167000D02*
X107950000Y-64897000D01*
%TO.N,/A2*%
X111760000Y-66167000D02*
X110490000Y-64897000D01*
X111760000Y-84582000D02*
X111760000Y-66167000D01*
%TO.N,/A3*%
X104775000Y-63246000D02*
X111379000Y-63246000D01*
X104140000Y-63881000D02*
X104775000Y-63246000D01*
X111379000Y-63246000D02*
X113030000Y-64897000D01*
X104140000Y-83820000D02*
X104140000Y-63881000D01*
%TO.N,/A4*%
X101600000Y-63881000D02*
X102870000Y-62611000D01*
X101600000Y-83058000D02*
X101600000Y-63881000D01*
X113284000Y-62611000D02*
X115570000Y-64897000D01*
X102870000Y-62611000D02*
X113284000Y-62611000D01*
%TO.N,/A5*%
X99060000Y-63881000D02*
X101092000Y-61849000D01*
X101092000Y-61849000D02*
X115062000Y-61849000D01*
X115062000Y-61849000D02*
X118110000Y-64897000D01*
X99060000Y-82296000D02*
X99060000Y-63881000D01*
%TO.N,/A6*%
X96520000Y-81534000D02*
X96520000Y-63881000D01*
X116840000Y-61087000D02*
X120650000Y-64897000D01*
X99314000Y-61087000D02*
X116840000Y-61087000D01*
X96520000Y-63881000D02*
X99314000Y-61087000D01*
%TO.N,/A7*%
X93980000Y-80772000D02*
X93980000Y-63881000D01*
X97536000Y-60325000D02*
X118618000Y-60325000D01*
X93980000Y-63881000D02*
X97536000Y-60325000D01*
X118618000Y-60325000D02*
X123190000Y-64897000D01*
%TO.N,/A12*%
X143510000Y-91694000D02*
X143510000Y-67056000D01*
%TO.N,/A14*%
X138430000Y-91694000D02*
X138430000Y-64897000D01*
%TO.N,/PORT1CSB*%
X108585000Y-86360000D02*
X107950000Y-85725000D01*
X113030000Y-91694000D02*
X113030000Y-87630000D01*
X107950000Y-85725000D02*
X107950000Y-72517000D01*
X113030000Y-87630000D02*
X111760000Y-86360000D01*
X111760000Y-86360000D02*
X108585000Y-86360000D01*
%TD*%
M02*
