%TF.GenerationSoftware,KiCad,Pcbnew,(5.99.0-7356-g63088e8bdb)*%
%TF.CreationDate,2021-07-04T12:00:27+08:00*%
%TF.ProjectId,DualPowerOctalTransceiver,4475616c-506f-4776-9572-4f6374616c54,rev?*%
%TF.SameCoordinates,Original*%
%TF.FileFunction,Copper,L1,Top*%
%TF.FilePolarity,Positive*%
%FSLAX46Y46*%
G04 Gerber Fmt 4.6, Leading zero omitted, Abs format (unit mm)*
G04 Created by KiCad (PCBNEW (5.99.0-7356-g63088e8bdb)) date 2021-07-04 12:00:27*
%MOMM*%
%LPD*%
G01*
G04 APERTURE LIST*
G04 Aperture macros list*
%AMRoundRect*
0 Rectangle with rounded corners*
0 $1 Rounding radius*
0 $2 $3 $4 $5 $6 $7 $8 $9 X,Y pos of 4 corners*
0 Add a 4 corners polygon primitive as box body*
4,1,4,$2,$3,$4,$5,$6,$7,$8,$9,$2,$3,0*
0 Add four circle primitives for the rounded corners*
1,1,$1+$1,$2,$3,0*
1,1,$1+$1,$4,$5,0*
1,1,$1+$1,$6,$7,0*
1,1,$1+$1,$8,$9,0*
0 Add four rect primitives between the rounded corners*
20,1,$1+$1,$2,$3,$4,$5,0*
20,1,$1+$1,$4,$5,$6,$7,0*
20,1,$1+$1,$6,$7,$8,$9,0*
20,1,$1+$1,$8,$9,$2,$3,0*%
G04 Aperture macros list end*
%TA.AperFunction,SMDPad,CuDef*%
%ADD10RoundRect,0.218750X0.256250X-0.218750X0.256250X0.218750X-0.256250X0.218750X-0.256250X-0.218750X0*%
%TD*%
%TA.AperFunction,SMDPad,CuDef*%
%ADD11R,1.600000X0.410000*%
%TD*%
%TA.AperFunction,SMDPad,CuDef*%
%ADD12R,1.500000X2.000000*%
%TD*%
%TA.AperFunction,SMDPad,CuDef*%
%ADD13R,3.800000X2.000000*%
%TD*%
%TA.AperFunction,SMDPad,CuDef*%
%ADD14RoundRect,0.243750X-0.456250X0.243750X-0.456250X-0.243750X0.456250X-0.243750X0.456250X0.243750X0*%
%TD*%
%TA.AperFunction,ViaPad*%
%ADD15C,0.800000*%
%TD*%
%TA.AperFunction,Conductor*%
%ADD16C,0.250000*%
%TD*%
G04 APERTURE END LIST*
D10*
%TO.P,C3,1*%
%TO.N,+3V3*%
X117900000Y-71987500D03*
%TO.P,C3,2*%
%TO.N,GND*%
X117900000Y-70412500D03*
%TD*%
D11*
%TO.P,U1,1,VCCA*%
%TO.N,+5V*%
X112645700Y-74207500D03*
%TO.P,U1,2,DIR*%
%TO.N,Net-(J1-Pad2)*%
X112645700Y-74842500D03*
%TO.P,U1,3,A1*%
%TO.N,Net-(J1-Pad3)*%
X112645700Y-75477500D03*
%TO.P,U1,4,A2*%
%TO.N,Net-(J1-Pad4)*%
X112645700Y-76112500D03*
%TO.P,U1,5,A3*%
%TO.N,Net-(J1-Pad5)*%
X112645700Y-76747500D03*
%TO.P,U1,6,A4*%
%TO.N,Net-(J1-Pad6)*%
X112645700Y-77382500D03*
%TO.P,U1,7,A5*%
%TO.N,Net-(J1-Pad7)*%
X112645700Y-78017500D03*
%TO.P,U1,8,A6*%
%TO.N,Net-(J1-Pad8)*%
X112645700Y-78652500D03*
%TO.P,U1,9,A7*%
%TO.N,Net-(J1-Pad9)*%
X112645700Y-79287500D03*
%TO.P,U1,10,A8*%
%TO.N,Net-(J1-Pad10)*%
X112645700Y-79922500D03*
%TO.P,U1,11,GND*%
%TO.N,GND*%
X112645700Y-80557500D03*
%TO.P,U1,12,GND*%
X112645700Y-81192500D03*
%TO.P,U1,13,GND*%
X117954300Y-81192500D03*
%TO.P,U1,14,B8*%
%TO.N,Net-(J2-Pad11)*%
X117954300Y-80557500D03*
%TO.P,U1,15,B7*%
%TO.N,Net-(J2-Pad10)*%
X117954300Y-79922500D03*
%TO.P,U1,16,B6*%
%TO.N,Net-(J2-Pad9)*%
X117954300Y-79287500D03*
%TO.P,U1,17,B5*%
%TO.N,Net-(J2-Pad8)*%
X117954300Y-78652500D03*
%TO.P,U1,18,B4*%
%TO.N,Net-(J2-Pad7)*%
X117954300Y-78017500D03*
%TO.P,U1,19,B3*%
%TO.N,Net-(J2-Pad6)*%
X117954300Y-77382500D03*
%TO.P,U1,20,B2*%
%TO.N,Net-(J2-Pad5)*%
X117954300Y-76747500D03*
%TO.P,U1,21,B1*%
%TO.N,Net-(J2-Pad4)*%
X117954300Y-76112500D03*
%TO.P,U1,22,~OE*%
%TO.N,Net-(J2-Pad3)*%
X117954300Y-75477500D03*
%TO.P,U1,23,VCCB*%
%TO.N,+3V3*%
X117954300Y-74842500D03*
%TO.P,U1,24,VCCB*%
X117954300Y-74207500D03*
%TD*%
D12*
%TO.P,U2,1,GND*%
%TO.N,GND*%
X113100000Y-58950000D03*
D13*
%TO.P,U2,2,VO*%
%TO.N,+3V3*%
X115400000Y-52650000D03*
D12*
X115400000Y-58950000D03*
%TO.P,U2,3,VI*%
%TO.N,+5V*%
X117700000Y-58950000D03*
%TD*%
D10*
%TO.P,C2,1*%
%TO.N,+5V*%
X112600000Y-71987500D03*
%TO.P,C2,2*%
%TO.N,GND*%
X112600000Y-70412500D03*
%TD*%
D14*
%TO.P,C4,1*%
%TO.N,+3V3*%
X115500000Y-61262500D03*
%TO.P,C4,2*%
%TO.N,GND*%
X115500000Y-63137500D03*
%TD*%
%TO.P,C1,1*%
%TO.N,+5V*%
X117800000Y-61262500D03*
%TO.P,C1,2*%
%TO.N,GND*%
X117800000Y-63137500D03*
%TD*%
D15*
%TO.N,GND*%
X117900000Y-69200000D03*
X119650000Y-81200000D03*
X115500000Y-64500000D03*
X114250000Y-64500000D03*
X111100000Y-81200000D03*
X117800000Y-64500000D03*
X111100000Y-80400000D03*
X112550000Y-69200000D03*
%TO.N,+5V*%
X112300000Y-53000000D03*
%TO.N,+3V3*%
X119650000Y-55550000D03*
X118500000Y-53000000D03*
%TO.N,Net-(J1-Pad10)*%
X108000000Y-76750000D03*
%TO.N,Net-(J1-Pad9)*%
X108000000Y-73350000D03*
%TO.N,Net-(J1-Pad8)*%
X108000000Y-70850000D03*
%TO.N,Net-(J1-Pad7)*%
X108000000Y-68250000D03*
%TO.N,Net-(J1-Pad6)*%
X108000000Y-65750000D03*
%TO.N,Net-(J1-Pad5)*%
X108000000Y-63200000D03*
%TO.N,Net-(J1-Pad4)*%
X108000000Y-60650000D03*
%TO.N,Net-(J1-Pad3)*%
X108000000Y-58100000D03*
%TO.N,Net-(J1-Pad2)*%
X108000000Y-55550000D03*
%TO.N,Net-(J2-Pad11)*%
X122500000Y-78400000D03*
%TO.N,Net-(J2-Pad10)*%
X122600000Y-75850000D03*
%TO.N,Net-(J2-Pad9)*%
X122500000Y-73350000D03*
%TO.N,Net-(J2-Pad8)*%
X122500000Y-70750000D03*
%TO.N,Net-(J2-Pad7)*%
X122500000Y-68250000D03*
%TO.N,Net-(J2-Pad6)*%
X122500000Y-65700000D03*
%TO.N,Net-(J2-Pad5)*%
X122500000Y-63150000D03*
%TO.N,Net-(J2-Pad4)*%
X122500000Y-60650000D03*
%TO.N,Net-(J2-Pad3)*%
X122500000Y-58100000D03*
%TD*%
D16*
%TO.N,GND*%
X112600000Y-69250000D02*
X112550000Y-69200000D01*
X117900000Y-69200000D02*
X117900000Y-70412500D01*
X117954300Y-81192500D02*
X119650000Y-81200000D01*
X111100000Y-80400000D02*
X111257500Y-80557500D01*
X117800000Y-63137500D02*
X117800000Y-64500000D01*
X112645700Y-81192500D02*
X111100000Y-81200000D01*
X111100000Y-80400000D02*
X111100000Y-81200000D01*
X115500000Y-63137500D02*
X115500000Y-64500000D01*
X111257500Y-80557500D02*
X112645700Y-80557500D01*
X114250000Y-60100000D02*
X114250000Y-63000000D01*
X114250000Y-63000000D02*
X115362500Y-63000000D01*
X113100000Y-58950000D02*
X114250000Y-60100000D01*
X114250000Y-63000000D02*
X114250000Y-64500000D01*
X112600000Y-70412500D02*
X112600000Y-69250000D01*
X112645700Y-80557500D02*
X112645700Y-81192500D01*
%TO.N,+5V*%
X117375000Y-57575000D02*
X117700000Y-57900000D01*
X112250000Y-53000000D02*
X111950000Y-53300000D01*
X112600000Y-71987500D02*
X113600000Y-70987500D01*
X117700000Y-57900000D02*
X117700000Y-58950000D01*
X111950000Y-56950000D02*
X111950000Y-57450000D01*
X117800000Y-61262500D02*
X117800000Y-59050000D01*
X116400000Y-56600000D02*
X112300000Y-56600000D01*
X113600000Y-70987500D02*
X113600000Y-69100000D01*
X112645700Y-74207500D02*
X112645700Y-72033200D01*
X111950010Y-60513600D02*
X111950000Y-60513590D01*
X111950000Y-53300000D02*
X111950000Y-56950000D01*
X117250000Y-57450000D02*
X117600000Y-57800000D01*
X113600000Y-69100000D02*
X111950010Y-67450010D01*
X111950010Y-67450010D02*
X111950010Y-60013600D01*
X117600000Y-57800000D02*
X116400000Y-56600000D01*
X112300000Y-56600000D02*
X111950000Y-56600000D01*
X111950000Y-60513590D02*
X111950000Y-57450000D01*
X112300000Y-53000000D02*
X112250000Y-53000000D01*
%TO.N,+3V3*%
X116600000Y-70687500D02*
X117900000Y-71987500D01*
X118418750Y-62231250D02*
X116468750Y-62231250D01*
X119650000Y-55550000D02*
X119049980Y-56150020D01*
X117954300Y-74842500D02*
X117954300Y-74207500D01*
X119049980Y-61600020D02*
X118418750Y-62231250D01*
X119049980Y-56150020D02*
X119049980Y-61600020D01*
X115400000Y-52650000D02*
X118150000Y-52650000D01*
X115500000Y-61262500D02*
X116600000Y-62362500D01*
X116600000Y-64200000D02*
X116600000Y-64373002D01*
X116600000Y-62362500D02*
X116600000Y-64200000D01*
X115500000Y-61262500D02*
X115500000Y-59050000D01*
X116600000Y-64200000D02*
X116600000Y-70687500D01*
X118150000Y-52650000D02*
X118500000Y-53000000D01*
X117900000Y-71987500D02*
X117900000Y-74153200D01*
%TO.N,Net-(J1-Pad10)*%
X108506918Y-76750000D02*
X108000000Y-76750000D01*
X112645700Y-79922500D02*
X111679418Y-79922500D01*
X111679418Y-79922500D02*
X108506918Y-76750000D01*
%TO.N,Net-(J1-Pad9)*%
X108000000Y-73350000D02*
X108000000Y-75606672D01*
X108000000Y-75606672D02*
X111680828Y-79287500D01*
X111680828Y-79287500D02*
X112645700Y-79287500D01*
%TO.N,Net-(J1-Pad8)*%
X112645700Y-78652500D02*
X111682238Y-78652500D01*
X111682238Y-78652500D02*
X108775001Y-75745263D01*
X108775001Y-75745263D02*
X108775001Y-71625001D01*
X108775001Y-71625001D02*
X108000000Y-70850000D01*
%TO.N,Net-(J1-Pad7)*%
X109249950Y-69499950D02*
X108000000Y-68250000D01*
X111683648Y-78017500D02*
X109249950Y-75583802D01*
X112645700Y-78017500D02*
X111683648Y-78017500D01*
X109249950Y-75583802D02*
X109249950Y-69499950D01*
%TO.N,Net-(J1-Pad6)*%
X112645700Y-77382500D02*
X111685058Y-77382500D01*
X109699960Y-67449960D02*
X108000000Y-65750000D01*
X111685058Y-77382500D02*
X109699960Y-75397402D01*
X109699960Y-75397402D02*
X109699960Y-67449960D01*
%TO.N,Net-(J1-Pad5)*%
X111686468Y-76747500D02*
X110149970Y-75211002D01*
X112645700Y-76747500D02*
X111686468Y-76747500D01*
X110149970Y-75211002D02*
X110149970Y-65349970D01*
X110149970Y-65349970D02*
X108000000Y-63200000D01*
%TO.N,Net-(J1-Pad4)*%
X111687878Y-76112500D02*
X110599980Y-75024602D01*
X110599980Y-75024602D02*
X110599980Y-63249980D01*
X110599980Y-63249980D02*
X108000000Y-60650000D01*
X112645700Y-76112500D02*
X111687878Y-76112500D01*
%TO.N,Net-(J1-Pad3)*%
X112645700Y-75477500D02*
X111689288Y-75477500D01*
X111049990Y-61149990D02*
X108000000Y-58100000D01*
X111049990Y-74838202D02*
X111049990Y-61149990D01*
X111689288Y-75477500D02*
X111049990Y-74838202D01*
%TO.N,Net-(J1-Pad2)*%
X111690698Y-74842500D02*
X111600000Y-74751802D01*
X111500000Y-74651802D02*
X111500000Y-59050000D01*
X112645700Y-74842500D02*
X111690698Y-74842500D01*
X111585699Y-74737501D02*
X111500000Y-74651802D01*
X111600000Y-74751802D02*
X111600000Y-74737501D01*
X111600000Y-74737501D02*
X111585699Y-74737501D01*
X108000000Y-55550000D02*
X111500000Y-59050000D01*
%TO.N,Net-(J2-Pad11)*%
X121650000Y-78400000D02*
X119575001Y-80474999D01*
X118036801Y-80474999D02*
X117954300Y-80557500D01*
X122500000Y-78400000D02*
X121650000Y-78400000D01*
X119575001Y-80474999D02*
X118036801Y-80474999D01*
%TO.N,Net-(J2-Pad10)*%
X122600000Y-76750000D02*
X119427500Y-79922500D01*
X119427500Y-79922500D02*
X117954300Y-79922500D01*
X122600000Y-75850000D02*
X122600000Y-76750000D01*
%TO.N,Net-(J2-Pad9)*%
X122500000Y-73350000D02*
X121850060Y-73999940D01*
X121850060Y-76849940D02*
X119412500Y-79287500D01*
X119412500Y-79287500D02*
X117954300Y-79287500D01*
X121850060Y-73999940D02*
X121850060Y-76849940D01*
%TO.N,Net-(J2-Pad8)*%
X122500000Y-70750000D02*
X121400050Y-71849950D01*
X121250000Y-76750000D02*
X119347500Y-78652500D01*
X121250000Y-76736410D02*
X121250000Y-76750000D01*
X119347500Y-78652500D02*
X117954300Y-78652500D01*
X121400050Y-76586360D02*
X121250000Y-76736410D01*
X121400050Y-71849950D02*
X121400050Y-76586360D01*
%TO.N,Net-(J2-Pad7)*%
X122500000Y-68250000D02*
X120950040Y-69799960D01*
X120950040Y-76399960D02*
X119332500Y-78017500D01*
X119332500Y-78017500D02*
X117954300Y-78017500D01*
X120950040Y-69799960D02*
X120950040Y-76399960D01*
%TO.N,Net-(J2-Pad6)*%
X120500030Y-68149970D02*
X120500030Y-76136380D01*
X122500000Y-66150000D02*
X120500030Y-68149970D01*
X120500030Y-76136380D02*
X119267500Y-77368910D01*
X119267500Y-77382500D02*
X117954300Y-77382500D01*
X119267500Y-77368910D02*
X119267500Y-77382500D01*
X122500000Y-65700000D02*
X122500000Y-66150000D01*
%TO.N,Net-(J2-Pad5)*%
X122500000Y-63500000D02*
X120050020Y-65949980D01*
X120050020Y-75936390D02*
X119900000Y-76086410D01*
X119900000Y-76086410D02*
X119900000Y-76100000D01*
X119252500Y-76747500D02*
X117954300Y-76747500D01*
X120050020Y-65949980D02*
X120050020Y-75936390D01*
X119900000Y-76100000D02*
X119252500Y-76747500D01*
X122500000Y-63150000D02*
X122500000Y-63500000D01*
%TO.N,Net-(J2-Pad4)*%
X122500000Y-60900000D02*
X119600010Y-63799990D01*
X119600010Y-75749990D02*
X119237500Y-76112500D01*
X122500000Y-60650000D02*
X122500000Y-60900000D01*
X119600010Y-63799990D02*
X119600010Y-75749990D01*
X119237500Y-76112500D02*
X117954300Y-76112500D01*
%TO.N,Net-(J2-Pad3)*%
X119150000Y-75200000D02*
X118872500Y-75477500D01*
X118872500Y-75477500D02*
X117954300Y-75477500D01*
X122500000Y-58786410D02*
X119150000Y-62136410D01*
X119150000Y-62136410D02*
X119150000Y-75200000D01*
X122500000Y-58100000D02*
X122500000Y-58786410D01*
%TD*%
M02*
