%TF.GenerationSoftware,KiCad,Pcbnew,(5.99.0-7356-g63088e8bdb)*%
%TF.CreationDate,2021-07-04T12:00:28+08:00*%
%TF.ProjectId,DualPowerOctalTransceiver,4475616c-506f-4776-9572-4f6374616c54,rev?*%
%TF.SameCoordinates,Original*%
%TF.FileFunction,Legend,Top*%
%TF.FilePolarity,Positive*%
%FSLAX46Y46*%
G04 Gerber Fmt 4.6, Leading zero omitted, Abs format (unit mm)*
G04 Created by KiCad (PCBNEW (5.99.0-7356-g63088e8bdb)) date 2021-07-04 12:00:28*
%MOMM*%
%LPD*%
G01*
G04 APERTURE LIST*
%ADD10C,0.150000*%
%ADD11C,0.120000*%
G04 APERTURE END LIST*
D10*
X111611803Y-74238197D02*
G75*
G03*
X111611803Y-74238197I-111803J0D01*
G01*
X108351730Y-52200000D02*
G75*
G03*
X108351730Y-52200000I-301730J0D01*
G01*
%TO.C,C3*%
X116827142Y-71366666D02*
X116874761Y-71414285D01*
X116922380Y-71557142D01*
X116922380Y-71652380D01*
X116874761Y-71795238D01*
X116779523Y-71890476D01*
X116684285Y-71938095D01*
X116493809Y-71985714D01*
X116350952Y-71985714D01*
X116160476Y-71938095D01*
X116065238Y-71890476D01*
X115970000Y-71795238D01*
X115922380Y-71652380D01*
X115922380Y-71557142D01*
X115970000Y-71414285D01*
X116017619Y-71366666D01*
X115922380Y-71033333D02*
X115922380Y-70414285D01*
X116303333Y-70747619D01*
X116303333Y-70604761D01*
X116350952Y-70509523D01*
X116398571Y-70461904D01*
X116493809Y-70414285D01*
X116731904Y-70414285D01*
X116827142Y-70461904D01*
X116874761Y-70509523D01*
X116922380Y-70604761D01*
X116922380Y-70890476D01*
X116874761Y-70985714D01*
X116827142Y-71033333D01*
%TO.C,U1*%
X114688095Y-77102380D02*
X114688095Y-77911904D01*
X114735714Y-78007142D01*
X114783333Y-78054761D01*
X114878571Y-78102380D01*
X115069047Y-78102380D01*
X115164285Y-78054761D01*
X115211904Y-78007142D01*
X115259523Y-77911904D01*
X115259523Y-77102380D01*
X116259523Y-78102380D02*
X115688095Y-78102380D01*
X115973809Y-78102380D02*
X115973809Y-77102380D01*
X115878571Y-77245238D01*
X115783333Y-77340476D01*
X115688095Y-77388095D01*
%TO.C,U2*%
X112438095Y-54352380D02*
X112438095Y-55161904D01*
X112485714Y-55257142D01*
X112533333Y-55304761D01*
X112628571Y-55352380D01*
X112819047Y-55352380D01*
X112914285Y-55304761D01*
X112961904Y-55257142D01*
X113009523Y-55161904D01*
X113009523Y-54352380D01*
X113438095Y-54447619D02*
X113485714Y-54400000D01*
X113580952Y-54352380D01*
X113819047Y-54352380D01*
X113914285Y-54400000D01*
X113961904Y-54447619D01*
X114009523Y-54542857D01*
X114009523Y-54638095D01*
X113961904Y-54780952D01*
X113390476Y-55352380D01*
X114009523Y-55352380D01*
%TO.C,C2*%
X114457142Y-71366666D02*
X114504761Y-71414285D01*
X114552380Y-71557142D01*
X114552380Y-71652380D01*
X114504761Y-71795238D01*
X114409523Y-71890476D01*
X114314285Y-71938095D01*
X114123809Y-71985714D01*
X113980952Y-71985714D01*
X113790476Y-71938095D01*
X113695238Y-71890476D01*
X113600000Y-71795238D01*
X113552380Y-71652380D01*
X113552380Y-71557142D01*
X113600000Y-71414285D01*
X113647619Y-71366666D01*
X113647619Y-70985714D02*
X113600000Y-70938095D01*
X113552380Y-70842857D01*
X113552380Y-70604761D01*
X113600000Y-70509523D01*
X113647619Y-70461904D01*
X113742857Y-70414285D01*
X113838095Y-70414285D01*
X113980952Y-70461904D01*
X114552380Y-71033333D01*
X114552380Y-70414285D01*
%TO.C,C4*%
X114057142Y-62466666D02*
X114104761Y-62514285D01*
X114152380Y-62657142D01*
X114152380Y-62752380D01*
X114104761Y-62895238D01*
X114009523Y-62990476D01*
X113914285Y-63038095D01*
X113723809Y-63085714D01*
X113580952Y-63085714D01*
X113390476Y-63038095D01*
X113295238Y-62990476D01*
X113200000Y-62895238D01*
X113152380Y-62752380D01*
X113152380Y-62657142D01*
X113200000Y-62514285D01*
X113247619Y-62466666D01*
X113485714Y-61609523D02*
X114152380Y-61609523D01*
X113104761Y-61847619D02*
X113819047Y-62085714D01*
X113819047Y-61466666D01*
%TO.C,C1*%
X119807142Y-62366666D02*
X119854761Y-62414285D01*
X119902380Y-62557142D01*
X119902380Y-62652380D01*
X119854761Y-62795238D01*
X119759523Y-62890476D01*
X119664285Y-62938095D01*
X119473809Y-62985714D01*
X119330952Y-62985714D01*
X119140476Y-62938095D01*
X119045238Y-62890476D01*
X118950000Y-62795238D01*
X118902380Y-62652380D01*
X118902380Y-62557142D01*
X118950000Y-62414285D01*
X118997619Y-62366666D01*
X119902380Y-61414285D02*
X119902380Y-61985714D01*
X119902380Y-61700000D02*
X118902380Y-61700000D01*
X119045238Y-61795238D01*
X119140476Y-61890476D01*
X119188095Y-61985714D01*
D11*
%TO.C,C3*%
X118410000Y-71362779D02*
X118410000Y-71037221D01*
X117390000Y-71362779D02*
X117390000Y-71037221D01*
%TO.C,U1*%
X113445700Y-82175000D02*
X117154300Y-82175000D01*
X111775000Y-73225000D02*
X117158600Y-73225000D01*
%TO.C,U2*%
X118810000Y-53890000D02*
X117550000Y-53890000D01*
X111990000Y-53890000D02*
X113250000Y-53890000D01*
X111990000Y-59900000D02*
X111990000Y-53890000D01*
X118810000Y-57650000D02*
X118810000Y-53890000D01*
%TO.C,C2*%
X113110000Y-71362779D02*
X113110000Y-71037221D01*
X112090000Y-71362779D02*
X112090000Y-71037221D01*
%TO.C,C4*%
X116210000Y-61941422D02*
X116210000Y-62458578D01*
X114790000Y-61941422D02*
X114790000Y-62458578D01*
%TO.C,C1*%
X118510000Y-61941422D02*
X118510000Y-62458578D01*
X117090000Y-61941422D02*
X117090000Y-62458578D01*
%TD*%
M02*
