%TF.GenerationSoftware,KiCad,Pcbnew,(5.99.0-7356-g63088e8bdb)*%
%TF.CreationDate,2021-07-04T12:00:28+08:00*%
%TF.ProjectId,DualPowerOctalTransceiver,4475616c-506f-4776-9572-4f6374616c54,rev?*%
%TF.SameCoordinates,Original*%
%TF.FileFunction,Legend,Bot*%
%TF.FilePolarity,Positive*%
%FSLAX46Y46*%
G04 Gerber Fmt 4.6, Leading zero omitted, Abs format (unit mm)*
G04 Created by KiCad (PCBNEW (5.99.0-7356-g63088e8bdb)) date 2021-07-04 12:00:28*
%MOMM*%
%LPD*%
G01*
G04 APERTURE LIST*
%ADD10C,0.120000*%
G04 APERTURE END LIST*
D10*
%TO.C,J2*%
X117720000Y-81700000D02*
X117720000Y-82270000D01*
X120380000Y-51670000D02*
X120380000Y-52240000D01*
X117720000Y-56300000D02*
X117720000Y-59860000D01*
X120380000Y-74080000D02*
X120380000Y-77640000D01*
X120380000Y-58840000D02*
X120380000Y-62400000D01*
X117720000Y-76620000D02*
X117720000Y-80180000D01*
X120380000Y-52240000D02*
X121900000Y-52240000D01*
X120380000Y-79160000D02*
X120380000Y-82270000D01*
X120380000Y-51670000D02*
X117720000Y-51670000D01*
X120380000Y-82270000D02*
X117720000Y-82270000D01*
X120380000Y-53760000D02*
X120380000Y-57320000D01*
X117720000Y-61380000D02*
X117720000Y-64940000D01*
X120380000Y-63920000D02*
X120380000Y-67480000D01*
X117720000Y-51670000D02*
X117720000Y-54780000D01*
X120380000Y-69000000D02*
X120380000Y-72560000D01*
X117720000Y-71540000D02*
X117720000Y-75100000D01*
X117720000Y-66460000D02*
X117720000Y-70020000D01*
%TO.C,J1*%
X112830000Y-56330000D02*
X112830000Y-59890000D01*
X112830000Y-81730000D02*
X112830000Y-82300000D01*
X112830000Y-51700000D02*
X112830000Y-54810000D01*
X110170000Y-52270000D02*
X108650000Y-52270000D01*
X112830000Y-51700000D02*
X110170000Y-51700000D01*
X110170000Y-53790000D02*
X110170000Y-57350000D01*
X110170000Y-79190000D02*
X110170000Y-82300000D01*
X112830000Y-61410000D02*
X112830000Y-64970000D01*
X112830000Y-82300000D02*
X110170000Y-82300000D01*
X110170000Y-74110000D02*
X110170000Y-77670000D01*
X110170000Y-58870000D02*
X110170000Y-62430000D01*
X112830000Y-71570000D02*
X112830000Y-75130000D01*
X112830000Y-76650000D02*
X112830000Y-80210000D01*
X112830000Y-66490000D02*
X112830000Y-70050000D01*
X110170000Y-51700000D02*
X110170000Y-52270000D01*
X110170000Y-69030000D02*
X110170000Y-72590000D01*
X110170000Y-63950000D02*
X110170000Y-67510000D01*
%TD*%
M02*
