M48
; DRILL file {KiCad (5.99.0-7356-g63088e8bdb)} date Sun Jul  4 12:00:26 2021
; FORMAT={-:-/ absolute / metric / decimal}
; #@! TF.CreationDate,2021-07-04T12:00:26+08:00
; #@! TF.GenerationSoftware,Kicad,Pcbnew,(5.99.0-7356-g63088e8bdb)
; #@! TF.FileFunction,Plated,1,2,PTH
FMAT,2
METRIC
T1C0.400
%
G90
G05
T1
X108.0Y-55.55
X108.0Y-58.1
X108.0Y-60.65
X108.0Y-63.2
X108.0Y-65.75
X108.0Y-68.25
X108.0Y-70.85
X108.0Y-73.35
X108.0Y-76.75
X111.1Y-80.4
X111.1Y-81.2
X112.3Y-53.0
X112.55Y-69.2
X114.25Y-64.5
X115.5Y-64.5
X117.8Y-64.5
X117.9Y-69.2
X118.5Y-53.0
X119.65Y-55.55
X119.65Y-81.2
X122.5Y-58.1
X122.5Y-60.65
X122.5Y-63.15
X122.5Y-65.7
X122.5Y-68.25
X122.5Y-70.75
X122.5Y-73.35
X122.5Y-78.4
X122.6Y-75.85
T0
M30
