%TF.GenerationSoftware,KiCad,Pcbnew,(5.99.0-7356-g63088e8bdb)*%
%TF.CreationDate,2021-07-04T12:00:27+08:00*%
%TF.ProjectId,DualPowerOctalTransceiver,4475616c-506f-4776-9572-4f6374616c54,rev?*%
%TF.SameCoordinates,Original*%
%TF.FileFunction,Copper,L2,Bot*%
%TF.FilePolarity,Positive*%
%FSLAX46Y46*%
G04 Gerber Fmt 4.6, Leading zero omitted, Abs format (unit mm)*
G04 Created by KiCad (PCBNEW (5.99.0-7356-g63088e8bdb)) date 2021-07-04 12:00:27*
%MOMM*%
%LPD*%
G01*
G04 APERTURE LIST*
%TA.AperFunction,SMDPad,CuDef*%
%ADD10R,2.510000X1.000000*%
%TD*%
%TA.AperFunction,ViaPad*%
%ADD11C,0.800000*%
%TD*%
%TA.AperFunction,Conductor*%
%ADD12C,0.250000*%
%TD*%
G04 APERTURE END LIST*
D10*
%TO.P,J2,1,Pin_1*%
%TO.N,+3V3*%
X120705000Y-53000000D03*
%TO.P,J2,2,Pin_2*%
X117395000Y-55540000D03*
%TO.P,J2,3,Pin_3*%
%TO.N,Net-(J2-Pad3)*%
X120705000Y-58080000D03*
%TO.P,J2,4,Pin_4*%
%TO.N,Net-(J2-Pad4)*%
X117395000Y-60620000D03*
%TO.P,J2,5,Pin_5*%
%TO.N,Net-(J2-Pad5)*%
X120705000Y-63160000D03*
%TO.P,J2,6,Pin_6*%
%TO.N,Net-(J2-Pad6)*%
X117395000Y-65700000D03*
%TO.P,J2,7,Pin_7*%
%TO.N,Net-(J2-Pad7)*%
X120705000Y-68240000D03*
%TO.P,J2,8,Pin_8*%
%TO.N,Net-(J2-Pad8)*%
X117395000Y-70780000D03*
%TO.P,J2,9,Pin_9*%
%TO.N,Net-(J2-Pad9)*%
X120705000Y-73320000D03*
%TO.P,J2,10,Pin_10*%
%TO.N,Net-(J2-Pad10)*%
X117395000Y-75860000D03*
%TO.P,J2,11,Pin_11*%
%TO.N,Net-(J2-Pad11)*%
X120705000Y-78400000D03*
%TO.P,J2,12,Pin_12*%
%TO.N,GND*%
X117395000Y-80940000D03*
%TD*%
%TO.P,J1,1,Pin_1*%
%TO.N,+5V*%
X109845000Y-53030000D03*
%TO.P,J1,2,Pin_2*%
%TO.N,Net-(J1-Pad2)*%
X113155000Y-55570000D03*
%TO.P,J1,3,Pin_3*%
%TO.N,Net-(J1-Pad3)*%
X109845000Y-58110000D03*
%TO.P,J1,4,Pin_4*%
%TO.N,Net-(J1-Pad4)*%
X113155000Y-60650000D03*
%TO.P,J1,5,Pin_5*%
%TO.N,Net-(J1-Pad5)*%
X109845000Y-63190000D03*
%TO.P,J1,6,Pin_6*%
%TO.N,Net-(J1-Pad6)*%
X113155000Y-65730000D03*
%TO.P,J1,7,Pin_7*%
%TO.N,Net-(J1-Pad7)*%
X109845000Y-68270000D03*
%TO.P,J1,8,Pin_8*%
%TO.N,Net-(J1-Pad8)*%
X113155000Y-70810000D03*
%TO.P,J1,9,Pin_9*%
%TO.N,Net-(J1-Pad9)*%
X109845000Y-73350000D03*
%TO.P,J1,10,Pin_10*%
%TO.N,Net-(J1-Pad10)*%
X113155000Y-75890000D03*
%TO.P,J1,11,Pin_11*%
%TO.N,GND*%
X109845000Y-78430000D03*
%TO.P,J1,12,Pin_12*%
X113155000Y-80970000D03*
%TD*%
D11*
%TO.N,GND*%
X117900000Y-69200000D03*
X119650000Y-81200000D03*
X115500000Y-64500000D03*
X114250000Y-64500000D03*
X111100000Y-81200000D03*
X117800000Y-64500000D03*
X111100000Y-80400000D03*
X112550000Y-69200000D03*
%TO.N,+5V*%
X112300000Y-53000000D03*
%TO.N,+3V3*%
X119650000Y-55550000D03*
X118500000Y-53000000D03*
%TO.N,Net-(J1-Pad10)*%
X108000000Y-76750000D03*
%TO.N,Net-(J1-Pad9)*%
X108000000Y-73350000D03*
%TO.N,Net-(J1-Pad8)*%
X108000000Y-70850000D03*
%TO.N,Net-(J1-Pad7)*%
X108000000Y-68250000D03*
%TO.N,Net-(J1-Pad6)*%
X108000000Y-65750000D03*
%TO.N,Net-(J1-Pad5)*%
X108000000Y-63200000D03*
%TO.N,Net-(J1-Pad4)*%
X108000000Y-60650000D03*
%TO.N,Net-(J1-Pad3)*%
X108000000Y-58100000D03*
%TO.N,Net-(J1-Pad2)*%
X108000000Y-55550000D03*
%TO.N,Net-(J2-Pad11)*%
X122500000Y-78400000D03*
%TO.N,Net-(J2-Pad10)*%
X122600000Y-75850000D03*
%TO.N,Net-(J2-Pad9)*%
X122500000Y-73350000D03*
%TO.N,Net-(J2-Pad8)*%
X122500000Y-70750000D03*
%TO.N,Net-(J2-Pad7)*%
X122500000Y-68250000D03*
%TO.N,Net-(J2-Pad6)*%
X122500000Y-65700000D03*
%TO.N,Net-(J2-Pad5)*%
X122500000Y-63150000D03*
%TO.N,Net-(J2-Pad4)*%
X122500000Y-60650000D03*
%TO.N,Net-(J2-Pad3)*%
X122500000Y-58100000D03*
%TD*%
D12*
%TO.N,+5V*%
X112270000Y-53030000D02*
X112300000Y-53000000D01*
X109845000Y-53030000D02*
X112270000Y-53030000D01*
%TO.N,+3V3*%
X117395000Y-55540000D02*
X119640000Y-55540000D01*
X117395000Y-54055000D02*
X117395000Y-55540000D01*
X119640000Y-55540000D02*
X119650000Y-55550000D01*
X118450000Y-53000000D02*
X117395000Y-54055000D01*
X120705000Y-54495000D02*
X119650000Y-55550000D01*
X118500000Y-53000000D02*
X118450000Y-53000000D01*
X120705000Y-53000000D02*
X120705000Y-54495000D01*
X120705000Y-53000000D02*
X118500000Y-53000000D01*
%TO.N,Net-(J1-Pad10)*%
X108860000Y-75890000D02*
X108000000Y-76750000D01*
X113150000Y-75890000D02*
X108860000Y-75890000D01*
%TO.N,Net-(J1-Pad9)*%
X109850000Y-73350000D02*
X108000000Y-73350000D01*
%TO.N,Net-(J1-Pad8)*%
X113110000Y-70850000D02*
X108000000Y-70850000D01*
%TO.N,Net-(J1-Pad7)*%
X109830000Y-68250000D02*
X108000000Y-68250000D01*
%TO.N,Net-(J1-Pad6)*%
X108020000Y-65730000D02*
X108000000Y-65750000D01*
X113150000Y-65730000D02*
X108020000Y-65730000D01*
%TO.N,Net-(J1-Pad5)*%
X113140000Y-63200000D02*
X108000000Y-63200000D01*
X113150000Y-63190000D02*
X113140000Y-63200000D01*
%TO.N,Net-(J1-Pad4)*%
X113150000Y-60650000D02*
X108000000Y-60650000D01*
%TO.N,Net-(J1-Pad3)*%
X109850000Y-58110000D02*
X108000000Y-58100000D01*
%TO.N,Net-(J1-Pad2)*%
X108000000Y-55550000D02*
X108020000Y-55570000D01*
X108020000Y-55570000D02*
X113150000Y-55570000D01*
%TO.N,Net-(J2-Pad11)*%
X120705000Y-78400000D02*
X122500000Y-78400000D01*
%TO.N,Net-(J2-Pad10)*%
X117405000Y-75850000D02*
X122600000Y-75850000D01*
%TO.N,Net-(J2-Pad9)*%
X122500000Y-73350000D02*
X122470000Y-73320000D01*
X122470000Y-73320000D02*
X120705000Y-73320000D01*
%TO.N,Net-(J2-Pad8)*%
X117425000Y-70750000D02*
X122500000Y-70750000D01*
%TO.N,Net-(J2-Pad7)*%
X122500000Y-68250000D02*
X122490000Y-68240000D01*
X122490000Y-68240000D02*
X120705000Y-68240000D01*
%TO.N,Net-(J2-Pad6)*%
X117395000Y-65700000D02*
X122500000Y-65700000D01*
%TO.N,Net-(J2-Pad5)*%
X122490000Y-63160000D02*
X120705000Y-63160000D01*
X122500000Y-63150000D02*
X122490000Y-63160000D01*
%TO.N,Net-(J2-Pad4)*%
X122500000Y-60650000D02*
X122470000Y-60620000D01*
X122470000Y-60620000D02*
X117395000Y-60620000D01*
%TO.N,Net-(J2-Pad3)*%
X120725000Y-58100000D02*
X120705000Y-58080000D01*
X122500000Y-58100000D02*
X120725000Y-58100000D01*
%TD*%
%TA.AperFunction,Conductor*%
%TO.N,GND*%
G36*
X122983901Y-51728002D02*
G01*
X123030394Y-51781658D01*
X123041780Y-51834206D01*
X123033094Y-57149059D01*
X123012980Y-57217147D01*
X122959249Y-57263552D01*
X122888959Y-57273541D01*
X122855845Y-57263960D01*
X122788318Y-57233895D01*
X122788317Y-57233895D01*
X122782287Y-57231210D01*
X122688887Y-57211357D01*
X122601944Y-57192876D01*
X122601939Y-57192876D01*
X122595487Y-57191504D01*
X122404513Y-57191504D01*
X122398060Y-57192876D01*
X122398056Y-57192876D01*
X122381888Y-57196313D01*
X122372122Y-57198389D01*
X122301331Y-57192987D01*
X122263412Y-57170366D01*
X122244430Y-57153917D01*
X122244427Y-57153915D01*
X122237619Y-57148016D01*
X122229421Y-57144272D01*
X122112864Y-57091042D01*
X122112863Y-57091042D01*
X122104670Y-57087300D01*
X122095755Y-57086018D01*
X122095754Y-57086018D01*
X121964448Y-57067139D01*
X121964441Y-57067138D01*
X121960000Y-57066500D01*
X119450000Y-57066500D01*
X119376921Y-57071727D01*
X119323884Y-57087300D01*
X119245330Y-57110365D01*
X119245328Y-57110366D01*
X119236684Y-57112904D01*
X119229105Y-57117775D01*
X119121309Y-57187051D01*
X119121306Y-57187053D01*
X119113729Y-57191923D01*
X119107828Y-57198733D01*
X119023918Y-57295569D01*
X119023916Y-57295572D01*
X119018016Y-57302381D01*
X118957300Y-57435330D01*
X118956018Y-57444245D01*
X118956018Y-57444246D01*
X118937139Y-57575552D01*
X118937138Y-57575559D01*
X118936500Y-57580000D01*
X118936500Y-58580000D01*
X118941727Y-58653079D01*
X118943631Y-58659562D01*
X118973963Y-58762864D01*
X118982904Y-58793316D01*
X118987775Y-58800895D01*
X119057051Y-58908691D01*
X119057053Y-58908694D01*
X119061923Y-58916271D01*
X119068733Y-58922172D01*
X119165569Y-59006082D01*
X119165572Y-59006084D01*
X119172381Y-59011984D01*
X119180579Y-59015728D01*
X119238072Y-59041984D01*
X119305330Y-59072700D01*
X119314245Y-59073982D01*
X119314246Y-59073982D01*
X119445552Y-59092861D01*
X119445559Y-59092862D01*
X119450000Y-59093500D01*
X121960000Y-59093500D01*
X122033079Y-59088273D01*
X122111165Y-59065345D01*
X122164670Y-59049635D01*
X122164672Y-59049634D01*
X122173316Y-59047096D01*
X122218301Y-59018186D01*
X122232300Y-59009189D01*
X122300421Y-58989186D01*
X122326618Y-58991939D01*
X122340067Y-58994797D01*
X122398056Y-59007124D01*
X122398060Y-59007124D01*
X122404513Y-59008496D01*
X122595487Y-59008496D01*
X122601939Y-59007124D01*
X122601944Y-59007124D01*
X122688887Y-58988643D01*
X122782287Y-58968790D01*
X122809220Y-58956799D01*
X122852734Y-58937425D01*
X122923101Y-58927991D01*
X122987398Y-58958097D01*
X123025212Y-59018186D01*
X123029983Y-59052736D01*
X123029867Y-59123500D01*
X123028929Y-59697205D01*
X123008815Y-59765293D01*
X122955084Y-59811698D01*
X122884793Y-59821687D01*
X122851680Y-59812106D01*
X122788318Y-59783895D01*
X122788317Y-59783895D01*
X122782287Y-59781210D01*
X122688887Y-59761357D01*
X122601944Y-59742876D01*
X122601939Y-59742876D01*
X122595487Y-59741504D01*
X122404513Y-59741504D01*
X122398061Y-59742876D01*
X122398056Y-59742876D01*
X122311113Y-59761357D01*
X122217713Y-59781210D01*
X122211683Y-59783895D01*
X122211682Y-59783895D01*
X122049280Y-59856201D01*
X122049278Y-59856202D01*
X122043250Y-59858886D01*
X122037909Y-59862766D01*
X122037908Y-59862767D01*
X121900725Y-59962436D01*
X121826664Y-59986500D01*
X119233112Y-59986500D01*
X119164991Y-59966498D01*
X119119112Y-59913549D01*
X119117096Y-59906684D01*
X119071393Y-59835569D01*
X119042949Y-59791309D01*
X119042947Y-59791306D01*
X119038077Y-59783729D01*
X119007289Y-59757051D01*
X118934431Y-59693918D01*
X118934428Y-59693916D01*
X118927619Y-59688016D01*
X118919421Y-59684272D01*
X118802864Y-59631042D01*
X118802863Y-59631042D01*
X118794670Y-59627300D01*
X118785755Y-59626018D01*
X118785754Y-59626018D01*
X118654448Y-59607139D01*
X118654441Y-59607138D01*
X118650000Y-59606500D01*
X116140000Y-59606500D01*
X116066921Y-59611727D01*
X116013884Y-59627300D01*
X115935330Y-59650365D01*
X115935328Y-59650366D01*
X115926684Y-59652904D01*
X115919105Y-59657775D01*
X115811309Y-59727051D01*
X115811306Y-59727053D01*
X115803729Y-59731923D01*
X115797828Y-59738733D01*
X115713918Y-59835569D01*
X115713916Y-59835572D01*
X115708016Y-59842381D01*
X115704272Y-59850579D01*
X115653189Y-59962436D01*
X115647300Y-59975330D01*
X115646018Y-59984245D01*
X115646018Y-59984246D01*
X115627139Y-60115552D01*
X115627138Y-60115559D01*
X115626500Y-60120000D01*
X115626500Y-61120000D01*
X115631727Y-61193079D01*
X115633631Y-61199562D01*
X115669226Y-61320789D01*
X115672904Y-61333316D01*
X115677775Y-61340895D01*
X115747051Y-61448691D01*
X115747053Y-61448694D01*
X115751923Y-61456271D01*
X115758733Y-61462172D01*
X115855569Y-61546082D01*
X115855572Y-61546084D01*
X115862381Y-61551984D01*
X115870579Y-61555728D01*
X115977583Y-61604595D01*
X115995330Y-61612700D01*
X116004245Y-61613982D01*
X116004246Y-61613982D01*
X116135552Y-61632861D01*
X116135559Y-61632862D01*
X116140000Y-61633500D01*
X118650000Y-61633500D01*
X118723079Y-61628273D01*
X118803719Y-61604595D01*
X118854670Y-61589635D01*
X118854672Y-61589634D01*
X118863316Y-61587096D01*
X118932010Y-61542949D01*
X118978691Y-61512949D01*
X118978694Y-61512947D01*
X118986271Y-61508077D01*
X119027665Y-61460306D01*
X119076082Y-61404431D01*
X119076084Y-61404428D01*
X119081984Y-61397619D01*
X119085728Y-61389422D01*
X119085730Y-61389418D01*
X119114164Y-61327157D01*
X119160657Y-61273502D01*
X119228777Y-61253500D01*
X121764794Y-61253500D01*
X121832915Y-61273502D01*
X121858426Y-61295186D01*
X121888749Y-61328863D01*
X121894091Y-61332744D01*
X121894093Y-61332746D01*
X122037908Y-61437233D01*
X122043250Y-61441114D01*
X122049278Y-61443798D01*
X122049280Y-61443799D01*
X122193651Y-61508077D01*
X122217713Y-61518790D01*
X122308450Y-61538077D01*
X122398056Y-61557124D01*
X122398061Y-61557124D01*
X122404513Y-61558496D01*
X122595487Y-61558496D01*
X122601939Y-61557124D01*
X122601944Y-61557124D01*
X122691550Y-61538077D01*
X122782287Y-61518790D01*
X122848563Y-61489282D01*
X122918930Y-61479848D01*
X122983227Y-61509954D01*
X123021041Y-61570043D01*
X123025812Y-61604595D01*
X123024846Y-62195389D01*
X123004734Y-62263475D01*
X122951002Y-62309880D01*
X122880712Y-62319869D01*
X122847599Y-62310288D01*
X122788322Y-62283896D01*
X122788314Y-62283893D01*
X122782287Y-62281210D01*
X122673169Y-62258016D01*
X122601944Y-62242876D01*
X122601939Y-62242876D01*
X122595487Y-62241504D01*
X122404513Y-62241504D01*
X122398061Y-62242876D01*
X122398056Y-62242876D01*
X122343795Y-62254410D01*
X122273004Y-62249008D01*
X122249478Y-62237161D01*
X122244426Y-62233914D01*
X122237619Y-62228016D01*
X122104670Y-62167300D01*
X122095755Y-62166018D01*
X122095754Y-62166018D01*
X121964448Y-62147139D01*
X121964441Y-62147138D01*
X121960000Y-62146500D01*
X119450000Y-62146500D01*
X119376921Y-62151727D01*
X119323884Y-62167300D01*
X119245330Y-62190365D01*
X119245328Y-62190366D01*
X119236684Y-62192904D01*
X119229105Y-62197775D01*
X119121309Y-62267051D01*
X119121306Y-62267053D01*
X119113729Y-62271923D01*
X119107828Y-62278733D01*
X119023918Y-62375569D01*
X119023916Y-62375572D01*
X119018016Y-62382381D01*
X119014272Y-62390579D01*
X119005912Y-62408886D01*
X118957300Y-62515330D01*
X118956018Y-62524245D01*
X118956018Y-62524246D01*
X118937139Y-62655552D01*
X118937138Y-62655559D01*
X118936500Y-62660000D01*
X118936500Y-63660000D01*
X118941727Y-63733079D01*
X118950349Y-63762442D01*
X118971557Y-63834670D01*
X118982904Y-63873316D01*
X118987775Y-63880895D01*
X119057051Y-63988691D01*
X119057053Y-63988694D01*
X119061923Y-63996271D01*
X119068733Y-64002172D01*
X119165569Y-64086082D01*
X119165572Y-64086084D01*
X119172381Y-64091984D01*
X119180579Y-64095728D01*
X119244501Y-64124920D01*
X119305330Y-64152700D01*
X119314245Y-64153982D01*
X119314246Y-64153982D01*
X119445552Y-64172861D01*
X119445559Y-64172862D01*
X119450000Y-64173500D01*
X121960000Y-64173500D01*
X122033079Y-64168273D01*
X122111165Y-64145345D01*
X122164670Y-64129635D01*
X122164672Y-64129634D01*
X122173316Y-64127096D01*
X122267381Y-64066644D01*
X122335501Y-64046641D01*
X122361694Y-64049394D01*
X122404513Y-64058496D01*
X122595487Y-64058496D01*
X122601939Y-64057124D01*
X122601944Y-64057124D01*
X122694518Y-64037446D01*
X122782287Y-64018790D01*
X122788314Y-64016107D01*
X122788322Y-64016104D01*
X122844473Y-63991103D01*
X122914840Y-63981668D01*
X122979138Y-64011774D01*
X123016951Y-64071862D01*
X123021723Y-64106415D01*
X123021422Y-64290756D01*
X123020686Y-64741042D01*
X123020682Y-64743533D01*
X123000568Y-64811621D01*
X122946837Y-64858026D01*
X122876547Y-64868015D01*
X122843433Y-64858434D01*
X122788318Y-64833895D01*
X122788317Y-64833895D01*
X122782287Y-64831210D01*
X122688887Y-64811357D01*
X122601944Y-64792876D01*
X122601939Y-64792876D01*
X122595487Y-64791504D01*
X122404513Y-64791504D01*
X122398061Y-64792876D01*
X122398056Y-64792876D01*
X122311113Y-64811357D01*
X122217713Y-64831210D01*
X122211683Y-64833895D01*
X122211682Y-64833895D01*
X122049280Y-64906201D01*
X122049278Y-64906202D01*
X122043250Y-64908886D01*
X122037909Y-64912766D01*
X122037908Y-64912767D01*
X121894093Y-65017254D01*
X121894091Y-65017256D01*
X121888749Y-65021137D01*
X121884328Y-65026047D01*
X121879425Y-65030462D01*
X121878299Y-65029211D01*
X121825000Y-65062049D01*
X121791806Y-65066500D01*
X119233112Y-65066500D01*
X119164991Y-65046498D01*
X119119112Y-64993549D01*
X119117096Y-64986684D01*
X119067098Y-64908886D01*
X119042949Y-64871309D01*
X119042947Y-64871306D01*
X119038077Y-64863729D01*
X119003647Y-64833895D01*
X118934431Y-64773918D01*
X118934428Y-64773916D01*
X118927619Y-64768016D01*
X118919421Y-64764272D01*
X118802864Y-64711042D01*
X118802863Y-64711042D01*
X118794670Y-64707300D01*
X118785755Y-64706018D01*
X118785754Y-64706018D01*
X118654448Y-64687139D01*
X118654441Y-64687138D01*
X118650000Y-64686500D01*
X116140000Y-64686500D01*
X116066921Y-64691727D01*
X116013884Y-64707300D01*
X115935330Y-64730365D01*
X115935328Y-64730366D01*
X115926684Y-64732904D01*
X115919105Y-64737775D01*
X115811309Y-64807051D01*
X115811306Y-64807053D01*
X115803729Y-64811923D01*
X115797828Y-64818733D01*
X115713918Y-64915569D01*
X115713916Y-64915572D01*
X115708016Y-64922381D01*
X115647300Y-65055330D01*
X115646018Y-65064245D01*
X115646018Y-65064246D01*
X115627139Y-65195552D01*
X115627138Y-65195559D01*
X115626500Y-65200000D01*
X115626500Y-66200000D01*
X115631727Y-66273079D01*
X115633631Y-66279562D01*
X115663963Y-66382864D01*
X115672904Y-66413316D01*
X115692184Y-66443316D01*
X115747051Y-66528691D01*
X115747053Y-66528694D01*
X115751923Y-66536271D01*
X115758733Y-66542172D01*
X115855569Y-66626082D01*
X115855572Y-66626084D01*
X115862381Y-66631984D01*
X115870579Y-66635728D01*
X115928072Y-66661984D01*
X115995330Y-66692700D01*
X116004245Y-66693982D01*
X116004246Y-66693982D01*
X116135552Y-66712861D01*
X116135559Y-66712862D01*
X116140000Y-66713500D01*
X118650000Y-66713500D01*
X118723079Y-66708273D01*
X118836670Y-66674920D01*
X118854670Y-66669635D01*
X118854672Y-66669634D01*
X118863316Y-66667096D01*
X118932010Y-66622949D01*
X118978691Y-66592949D01*
X118978694Y-66592947D01*
X118986271Y-66588077D01*
X119001795Y-66570162D01*
X119076082Y-66484431D01*
X119076084Y-66484428D01*
X119081984Y-66477619D01*
X119085728Y-66469422D01*
X119085730Y-66469418D01*
X119114164Y-66407157D01*
X119160657Y-66353502D01*
X119228777Y-66333500D01*
X121791806Y-66333500D01*
X121859927Y-66353502D01*
X121879151Y-66369842D01*
X121879425Y-66369538D01*
X121884328Y-66373953D01*
X121888749Y-66378863D01*
X121894091Y-66382744D01*
X121894093Y-66382746D01*
X122037908Y-66487233D01*
X122043250Y-66491114D01*
X122049278Y-66493798D01*
X122049280Y-66493799D01*
X122206130Y-66563633D01*
X122217713Y-66568790D01*
X122308450Y-66588077D01*
X122398056Y-66607124D01*
X122398061Y-66607124D01*
X122404513Y-66608496D01*
X122595487Y-66608496D01*
X122601939Y-66607124D01*
X122601944Y-66607124D01*
X122691550Y-66588077D01*
X122782287Y-66568790D01*
X122788314Y-66566107D01*
X122788322Y-66566104D01*
X122840304Y-66542960D01*
X122910671Y-66533526D01*
X122974968Y-66563633D01*
X123012781Y-66623722D01*
X123017552Y-66658273D01*
X123016517Y-67291679D01*
X122996403Y-67359767D01*
X122942672Y-67406172D01*
X122872382Y-67416161D01*
X122839267Y-67406579D01*
X122788322Y-67383896D01*
X122788314Y-67383893D01*
X122782287Y-67381210D01*
X122681407Y-67359767D01*
X122601944Y-67342876D01*
X122601939Y-67342876D01*
X122595487Y-67341504D01*
X122404513Y-67341504D01*
X122398058Y-67342876D01*
X122398049Y-67342877D01*
X122362856Y-67350358D01*
X122292065Y-67344957D01*
X122254145Y-67322336D01*
X122244430Y-67313917D01*
X122244427Y-67313915D01*
X122237619Y-67308016D01*
X122229421Y-67304272D01*
X122112864Y-67251042D01*
X122112863Y-67251042D01*
X122104670Y-67247300D01*
X122095755Y-67246018D01*
X122095754Y-67246018D01*
X121964448Y-67227139D01*
X121964441Y-67227138D01*
X121960000Y-67226500D01*
X119450000Y-67226500D01*
X119376921Y-67231727D01*
X119323884Y-67247300D01*
X119245330Y-67270365D01*
X119245328Y-67270366D01*
X119236684Y-67272904D01*
X119229105Y-67277775D01*
X119121309Y-67347051D01*
X119121306Y-67347053D01*
X119113729Y-67351923D01*
X119107828Y-67358733D01*
X119023918Y-67455569D01*
X119023916Y-67455572D01*
X119018016Y-67462381D01*
X118957300Y-67595330D01*
X118956018Y-67604245D01*
X118956018Y-67604246D01*
X118937139Y-67735552D01*
X118937138Y-67735559D01*
X118936500Y-67740000D01*
X118936500Y-68740000D01*
X118941727Y-68813079D01*
X118943631Y-68819562D01*
X118973963Y-68922864D01*
X118982904Y-68953316D01*
X118987775Y-68960895D01*
X119057051Y-69068691D01*
X119057053Y-69068694D01*
X119061923Y-69076271D01*
X119068733Y-69082172D01*
X119165569Y-69166082D01*
X119165572Y-69166084D01*
X119172381Y-69171984D01*
X119180579Y-69175728D01*
X119255907Y-69210129D01*
X119305330Y-69232700D01*
X119314245Y-69233982D01*
X119314246Y-69233982D01*
X119445552Y-69252861D01*
X119445559Y-69252862D01*
X119450000Y-69253500D01*
X121960000Y-69253500D01*
X122033079Y-69248273D01*
X122111165Y-69225345D01*
X122164670Y-69209635D01*
X122164672Y-69209634D01*
X122173316Y-69207096D01*
X122243993Y-69161674D01*
X122312114Y-69141671D01*
X122338313Y-69144425D01*
X122398049Y-69157123D01*
X122398058Y-69157124D01*
X122404513Y-69158496D01*
X122595487Y-69158496D01*
X122601939Y-69157124D01*
X122601944Y-69157124D01*
X122688887Y-69138643D01*
X122782287Y-69118790D01*
X122789704Y-69115488D01*
X122836133Y-69094816D01*
X122906500Y-69085382D01*
X122970797Y-69115488D01*
X123008610Y-69175577D01*
X123013382Y-69210129D01*
X123012434Y-69789861D01*
X122992320Y-69857949D01*
X122938589Y-69904354D01*
X122868298Y-69914343D01*
X122835185Y-69904761D01*
X122788326Y-69883898D01*
X122788320Y-69883896D01*
X122782287Y-69881210D01*
X122672854Y-69857949D01*
X122601944Y-69842876D01*
X122601939Y-69842876D01*
X122595487Y-69841504D01*
X122404513Y-69841504D01*
X122398061Y-69842876D01*
X122398056Y-69842876D01*
X122327146Y-69857949D01*
X122217713Y-69881210D01*
X122211683Y-69883895D01*
X122211682Y-69883895D01*
X122049280Y-69956201D01*
X122049278Y-69956202D01*
X122043250Y-69958886D01*
X122037909Y-69962766D01*
X122037908Y-69962767D01*
X121894093Y-70067254D01*
X121894091Y-70067256D01*
X121888749Y-70071137D01*
X121884328Y-70076047D01*
X121879425Y-70080462D01*
X121878299Y-70079211D01*
X121825000Y-70112049D01*
X121791806Y-70116500D01*
X119217912Y-70116500D01*
X119149791Y-70096498D01*
X119111914Y-70058621D01*
X119042949Y-69951309D01*
X119042947Y-69951306D01*
X119038077Y-69943729D01*
X118992636Y-69904354D01*
X118934431Y-69853918D01*
X118934428Y-69853916D01*
X118927619Y-69848016D01*
X118919421Y-69844272D01*
X118802864Y-69791042D01*
X118802863Y-69791042D01*
X118794670Y-69787300D01*
X118785755Y-69786018D01*
X118785754Y-69786018D01*
X118654448Y-69767139D01*
X118654441Y-69767138D01*
X118650000Y-69766500D01*
X116140000Y-69766500D01*
X116066921Y-69771727D01*
X116013884Y-69787300D01*
X115935330Y-69810365D01*
X115935328Y-69810366D01*
X115926684Y-69812904D01*
X115919105Y-69817775D01*
X115811309Y-69887051D01*
X115811306Y-69887053D01*
X115803729Y-69891923D01*
X115797828Y-69898733D01*
X115713918Y-69995569D01*
X115713916Y-69995572D01*
X115708016Y-70002381D01*
X115704272Y-70010579D01*
X115680439Y-70062767D01*
X115647300Y-70135330D01*
X115646018Y-70144245D01*
X115646018Y-70144246D01*
X115627139Y-70275552D01*
X115627138Y-70275559D01*
X115626500Y-70280000D01*
X115626500Y-71280000D01*
X115631727Y-71353079D01*
X115651241Y-71419538D01*
X115670022Y-71483500D01*
X115672904Y-71493316D01*
X115677775Y-71500895D01*
X115747051Y-71608691D01*
X115747053Y-71608694D01*
X115751923Y-71616271D01*
X115758733Y-71622172D01*
X115855569Y-71706082D01*
X115855572Y-71706084D01*
X115862381Y-71711984D01*
X115870579Y-71715728D01*
X115928072Y-71741984D01*
X115995330Y-71772700D01*
X116004245Y-71773982D01*
X116004246Y-71773982D01*
X116135552Y-71792861D01*
X116135559Y-71792862D01*
X116140000Y-71793500D01*
X118650000Y-71793500D01*
X118723079Y-71788273D01*
X118829164Y-71757124D01*
X118854670Y-71749635D01*
X118854672Y-71749634D01*
X118863316Y-71747096D01*
X118932010Y-71702949D01*
X118978691Y-71672949D01*
X118978694Y-71672947D01*
X118986271Y-71668077D01*
X119030261Y-71617310D01*
X119076082Y-71564431D01*
X119076084Y-71564428D01*
X119081984Y-71557619D01*
X119095117Y-71528863D01*
X119127863Y-71457158D01*
X119174356Y-71403502D01*
X119242477Y-71383500D01*
X121791806Y-71383500D01*
X121859927Y-71403502D01*
X121879151Y-71419842D01*
X121879425Y-71419538D01*
X121884328Y-71423953D01*
X121888749Y-71428863D01*
X121894091Y-71432744D01*
X121894093Y-71432746D01*
X121965561Y-71484670D01*
X122043250Y-71541114D01*
X122049278Y-71543798D01*
X122049280Y-71543799D01*
X122195030Y-71608691D01*
X122217713Y-71618790D01*
X122304480Y-71637233D01*
X122398056Y-71657124D01*
X122398061Y-71657124D01*
X122404513Y-71658496D01*
X122595487Y-71658496D01*
X122601939Y-71657124D01*
X122601944Y-71657124D01*
X122695520Y-71637233D01*
X122782287Y-71618790D01*
X122788314Y-71616107D01*
X122788322Y-71616104D01*
X122832045Y-71596637D01*
X122902412Y-71587203D01*
X122966709Y-71617310D01*
X123004522Y-71677399D01*
X123009293Y-71711950D01*
X123009182Y-71779635D01*
X123008188Y-72387971D01*
X122988074Y-72456059D01*
X122934343Y-72502464D01*
X122864052Y-72512453D01*
X122830938Y-72502871D01*
X122788322Y-72483896D01*
X122788314Y-72483893D01*
X122782287Y-72481210D01*
X122679939Y-72459455D01*
X122601944Y-72442876D01*
X122601939Y-72442876D01*
X122595487Y-72441504D01*
X122404513Y-72441504D01*
X122381391Y-72446419D01*
X122310600Y-72441018D01*
X122272680Y-72418397D01*
X122244430Y-72393918D01*
X122244431Y-72393918D01*
X122237619Y-72388016D01*
X122229421Y-72384272D01*
X122112864Y-72331042D01*
X122112863Y-72331042D01*
X122104670Y-72327300D01*
X122095755Y-72326018D01*
X122095754Y-72326018D01*
X121964448Y-72307139D01*
X121964441Y-72307138D01*
X121960000Y-72306500D01*
X119450000Y-72306500D01*
X119376921Y-72311727D01*
X119323884Y-72327300D01*
X119245330Y-72350365D01*
X119245328Y-72350366D01*
X119236684Y-72352904D01*
X119229105Y-72357775D01*
X119121309Y-72427051D01*
X119121306Y-72427053D01*
X119113729Y-72431923D01*
X119107828Y-72438733D01*
X119023918Y-72535569D01*
X119023916Y-72535572D01*
X119018016Y-72542381D01*
X119014272Y-72550579D01*
X118965603Y-72657150D01*
X118957300Y-72675330D01*
X118956018Y-72684245D01*
X118956018Y-72684246D01*
X118937139Y-72815552D01*
X118937138Y-72815559D01*
X118936500Y-72820000D01*
X118936500Y-73820000D01*
X118941727Y-73893079D01*
X118943631Y-73899562D01*
X118973963Y-74002864D01*
X118982904Y-74033316D01*
X118987775Y-74040895D01*
X119057051Y-74148691D01*
X119057053Y-74148694D01*
X119061923Y-74156271D01*
X119068733Y-74162172D01*
X119165569Y-74246082D01*
X119165572Y-74246084D01*
X119172381Y-74251984D01*
X119180579Y-74255728D01*
X119238072Y-74281984D01*
X119305330Y-74312700D01*
X119314245Y-74313982D01*
X119314246Y-74313982D01*
X119445552Y-74332861D01*
X119445559Y-74332862D01*
X119450000Y-74333500D01*
X121960000Y-74333500D01*
X122033079Y-74328273D01*
X122111165Y-74305345D01*
X122164670Y-74289635D01*
X122164672Y-74289634D01*
X122173316Y-74287096D01*
X122180894Y-74282226D01*
X122180896Y-74282225D01*
X122220610Y-74256702D01*
X122288731Y-74236700D01*
X122314922Y-74239452D01*
X122404513Y-74258496D01*
X122595487Y-74258496D01*
X122601939Y-74257124D01*
X122601944Y-74257124D01*
X122698028Y-74236700D01*
X122782287Y-74218790D01*
X122809220Y-74206799D01*
X122827792Y-74198530D01*
X122898159Y-74189096D01*
X122962456Y-74219203D01*
X123000270Y-74279292D01*
X123005041Y-74313838D01*
X123004961Y-74362861D01*
X123004161Y-74851726D01*
X122984048Y-74919812D01*
X122930317Y-74966217D01*
X122860026Y-74976206D01*
X122851971Y-74974766D01*
X122807050Y-74965218D01*
X122701944Y-74942876D01*
X122701939Y-74942876D01*
X122695487Y-74941504D01*
X122504513Y-74941504D01*
X122498061Y-74942876D01*
X122498056Y-74942876D01*
X122426831Y-74958016D01*
X122317713Y-74981210D01*
X122311683Y-74983895D01*
X122311682Y-74983895D01*
X122149280Y-75056201D01*
X122149278Y-75056202D01*
X122143250Y-75058886D01*
X122137909Y-75062766D01*
X122137908Y-75062767D01*
X121994093Y-75167254D01*
X121994091Y-75167256D01*
X121988749Y-75171137D01*
X121984328Y-75176047D01*
X121979425Y-75180462D01*
X121978299Y-75179211D01*
X121925000Y-75212049D01*
X121891806Y-75216500D01*
X119228545Y-75216500D01*
X119160424Y-75196498D01*
X119117202Y-75146616D01*
X119117096Y-75146684D01*
X119116621Y-75145944D01*
X119116619Y-75145941D01*
X119090673Y-75105569D01*
X119042949Y-75031309D01*
X119042947Y-75031306D01*
X119038077Y-75023729D01*
X119007289Y-74997051D01*
X118934431Y-74933918D01*
X118934428Y-74933916D01*
X118927619Y-74928016D01*
X118919421Y-74924272D01*
X118802864Y-74871042D01*
X118802863Y-74871042D01*
X118794670Y-74867300D01*
X118785755Y-74866018D01*
X118785754Y-74866018D01*
X118654448Y-74847139D01*
X118654441Y-74847138D01*
X118650000Y-74846500D01*
X116140000Y-74846500D01*
X116066921Y-74851727D01*
X116013884Y-74867300D01*
X115935330Y-74890365D01*
X115935328Y-74890366D01*
X115926684Y-74892904D01*
X115919105Y-74897775D01*
X115811309Y-74967051D01*
X115811306Y-74967053D01*
X115803729Y-74971923D01*
X115797828Y-74978733D01*
X115713918Y-75075569D01*
X115713916Y-75075572D01*
X115708016Y-75082381D01*
X115647300Y-75215330D01*
X115646018Y-75224245D01*
X115646018Y-75224246D01*
X115627139Y-75355552D01*
X115627138Y-75355559D01*
X115626500Y-75360000D01*
X115626500Y-76360000D01*
X115631727Y-76433079D01*
X115633631Y-76439562D01*
X115668160Y-76557158D01*
X115672904Y-76573316D01*
X115677775Y-76580895D01*
X115747051Y-76688691D01*
X115747053Y-76688694D01*
X115751923Y-76696271D01*
X115758733Y-76702172D01*
X115855569Y-76786082D01*
X115855572Y-76786084D01*
X115862381Y-76791984D01*
X115870579Y-76795728D01*
X115928072Y-76821984D01*
X115995330Y-76852700D01*
X116004245Y-76853982D01*
X116004246Y-76853982D01*
X116135552Y-76872861D01*
X116135559Y-76872862D01*
X116140000Y-76873500D01*
X118650000Y-76873500D01*
X118723079Y-76868273D01*
X118801165Y-76845345D01*
X118854670Y-76829635D01*
X118854672Y-76829634D01*
X118863316Y-76827096D01*
X118932010Y-76782949D01*
X118978691Y-76752949D01*
X118978694Y-76752947D01*
X118986271Y-76748077D01*
X119010460Y-76720162D01*
X119076082Y-76644431D01*
X119076084Y-76644428D01*
X119081984Y-76637619D01*
X119118730Y-76557157D01*
X119165222Y-76503502D01*
X119233343Y-76483500D01*
X121891806Y-76483500D01*
X121959927Y-76503502D01*
X121979151Y-76519842D01*
X121979425Y-76519538D01*
X121984328Y-76523953D01*
X121988749Y-76528863D01*
X121994091Y-76532744D01*
X121994093Y-76532746D01*
X122091225Y-76603316D01*
X122143250Y-76641114D01*
X122149278Y-76643798D01*
X122149280Y-76643799D01*
X122311682Y-76716105D01*
X122317713Y-76718790D01*
X122380670Y-76732172D01*
X122498056Y-76757124D01*
X122498061Y-76757124D01*
X122504513Y-76758496D01*
X122695487Y-76758496D01*
X122701940Y-76757124D01*
X122701953Y-76757123D01*
X122848699Y-76725930D01*
X122919489Y-76731331D01*
X122976122Y-76774148D01*
X123000616Y-76840785D01*
X123000896Y-76849382D01*
X122999940Y-77434298D01*
X122979826Y-77502386D01*
X122926095Y-77548791D01*
X122855805Y-77558780D01*
X122822691Y-77549199D01*
X122788318Y-77533895D01*
X122788317Y-77533895D01*
X122782287Y-77531210D01*
X122688887Y-77511357D01*
X122601944Y-77492876D01*
X122601939Y-77492876D01*
X122595487Y-77491504D01*
X122404513Y-77491504D01*
X122398058Y-77492876D01*
X122398049Y-77492877D01*
X122353589Y-77502328D01*
X122282798Y-77496927D01*
X122252117Y-77478625D01*
X122252011Y-77478790D01*
X122247050Y-77475601D01*
X122244878Y-77474306D01*
X122244431Y-77473918D01*
X122244428Y-77473916D01*
X122237619Y-77468016D01*
X122229421Y-77464272D01*
X122112864Y-77411042D01*
X122112863Y-77411042D01*
X122104670Y-77407300D01*
X122095755Y-77406018D01*
X122095754Y-77406018D01*
X121964448Y-77387139D01*
X121964441Y-77387138D01*
X121960000Y-77386500D01*
X119450000Y-77386500D01*
X119376921Y-77391727D01*
X119323884Y-77407300D01*
X119245330Y-77430365D01*
X119245328Y-77430366D01*
X119236684Y-77432904D01*
X119229105Y-77437775D01*
X119121309Y-77507051D01*
X119121306Y-77507053D01*
X119113729Y-77511923D01*
X119107828Y-77518733D01*
X119023918Y-77615569D01*
X119023916Y-77615572D01*
X119018016Y-77622381D01*
X118957300Y-77755330D01*
X118956018Y-77764245D01*
X118956018Y-77764246D01*
X118937139Y-77895552D01*
X118937138Y-77895559D01*
X118936500Y-77900000D01*
X118936500Y-78900000D01*
X118941727Y-78973079D01*
X118982904Y-79113316D01*
X118987775Y-79120895D01*
X119057051Y-79228691D01*
X119057053Y-79228694D01*
X119061923Y-79236271D01*
X119068733Y-79242172D01*
X119165569Y-79326082D01*
X119165572Y-79326084D01*
X119172381Y-79331984D01*
X119305330Y-79392700D01*
X119314245Y-79393982D01*
X119314246Y-79393982D01*
X119445552Y-79412861D01*
X119445559Y-79412862D01*
X119450000Y-79413500D01*
X121960000Y-79413500D01*
X122033079Y-79408273D01*
X122111165Y-79385345D01*
X122164670Y-79369635D01*
X122164672Y-79369634D01*
X122173316Y-79367096D01*
X122255687Y-79314159D01*
X122323808Y-79294157D01*
X122350005Y-79296910D01*
X122398056Y-79307124D01*
X122398060Y-79307124D01*
X122404513Y-79308496D01*
X122595487Y-79308496D01*
X122601939Y-79307124D01*
X122601944Y-79307124D01*
X122701834Y-79285891D01*
X122782287Y-79268790D01*
X122788320Y-79266104D01*
X122788326Y-79266102D01*
X122819534Y-79252208D01*
X122889901Y-79242774D01*
X122954197Y-79272881D01*
X122992010Y-79332971D01*
X122996781Y-79367519D01*
X122996227Y-79706400D01*
X122995098Y-80396992D01*
X122994584Y-80711526D01*
X122992218Y-82159162D01*
X122972105Y-82227248D01*
X122918374Y-82273653D01*
X122866276Y-82284954D01*
X112721569Y-82289576D01*
X107534057Y-82291939D01*
X107465928Y-82271968D01*
X107419410Y-82218334D01*
X107408000Y-82165939D01*
X107408000Y-81237547D01*
X111387000Y-81237547D01*
X111387000Y-81467743D01*
X111387161Y-81472250D01*
X111391740Y-81536269D01*
X111394126Y-81549491D01*
X111430819Y-81674458D01*
X111438233Y-81690692D01*
X111507426Y-81798360D01*
X111519112Y-81811847D01*
X111615840Y-81895662D01*
X111630848Y-81905307D01*
X111747275Y-81958477D01*
X111764388Y-81963502D01*
X111895554Y-81982361D01*
X111904495Y-81983000D01*
X112882885Y-81983000D01*
X112898124Y-81978525D01*
X112899329Y-81977135D01*
X112901000Y-81969452D01*
X112901000Y-81964885D01*
X113408999Y-81964885D01*
X113413474Y-81980124D01*
X113414864Y-81981329D01*
X113422547Y-81983000D01*
X114407743Y-81983000D01*
X114412250Y-81982839D01*
X114476269Y-81978260D01*
X114489491Y-81975874D01*
X114614458Y-81939181D01*
X114630692Y-81931767D01*
X114738360Y-81862574D01*
X114751847Y-81850888D01*
X114835662Y-81754160D01*
X114845307Y-81739152D01*
X114898477Y-81622725D01*
X114903502Y-81605612D01*
X114922361Y-81474446D01*
X114923000Y-81465503D01*
X114923000Y-81242115D01*
X114918525Y-81226876D01*
X114917135Y-81225671D01*
X114909452Y-81224000D01*
X113427115Y-81223999D01*
X113411876Y-81228474D01*
X113410671Y-81229864D01*
X113409000Y-81237547D01*
X113408999Y-81964885D01*
X112901000Y-81964885D01*
X112901001Y-81242115D01*
X112896526Y-81226876D01*
X112895136Y-81225671D01*
X112887453Y-81224000D01*
X111405115Y-81223999D01*
X111389876Y-81228474D01*
X111388671Y-81229864D01*
X111387000Y-81237547D01*
X107408000Y-81237547D01*
X107408000Y-81207547D01*
X115627000Y-81207547D01*
X115627000Y-81437743D01*
X115627161Y-81442250D01*
X115631740Y-81506269D01*
X115634126Y-81519491D01*
X115670819Y-81644458D01*
X115678233Y-81660692D01*
X115747426Y-81768360D01*
X115759112Y-81781847D01*
X115855840Y-81865662D01*
X115870848Y-81875307D01*
X115987275Y-81928477D01*
X116004388Y-81933502D01*
X116135554Y-81952361D01*
X116144495Y-81953000D01*
X117122885Y-81953000D01*
X117138124Y-81948525D01*
X117139329Y-81947135D01*
X117141000Y-81939452D01*
X117141000Y-81934885D01*
X117648999Y-81934885D01*
X117653474Y-81950124D01*
X117654864Y-81951329D01*
X117662547Y-81953000D01*
X118647743Y-81953000D01*
X118652250Y-81952839D01*
X118716269Y-81948260D01*
X118729491Y-81945874D01*
X118854458Y-81909181D01*
X118870692Y-81901767D01*
X118978360Y-81832574D01*
X118991847Y-81820888D01*
X119075662Y-81724160D01*
X119085307Y-81709152D01*
X119138477Y-81592725D01*
X119143502Y-81575612D01*
X119162361Y-81444446D01*
X119163000Y-81435503D01*
X119163000Y-81212115D01*
X119158525Y-81196876D01*
X119157135Y-81195671D01*
X119149452Y-81194000D01*
X117667115Y-81193999D01*
X117651876Y-81198474D01*
X117650671Y-81199864D01*
X117649000Y-81207547D01*
X117648999Y-81934885D01*
X117141000Y-81934885D01*
X117141001Y-81212115D01*
X117136526Y-81196876D01*
X117135136Y-81195671D01*
X117127453Y-81194000D01*
X115645115Y-81193999D01*
X115629876Y-81198474D01*
X115628671Y-81199864D01*
X115627000Y-81207547D01*
X107408000Y-81207547D01*
X107408000Y-80474495D01*
X111387000Y-80474495D01*
X111387000Y-80697885D01*
X111391475Y-80713124D01*
X111392865Y-80714329D01*
X111400548Y-80716000D01*
X112882885Y-80716001D01*
X112898124Y-80711526D01*
X112899329Y-80710136D01*
X112901000Y-80702453D01*
X112901000Y-80697885D01*
X113408999Y-80697885D01*
X113413474Y-80713124D01*
X113414864Y-80714329D01*
X113422547Y-80716000D01*
X114904885Y-80716001D01*
X114920124Y-80711526D01*
X114921329Y-80710136D01*
X114923000Y-80702453D01*
X114923000Y-80472257D01*
X114922839Y-80467750D01*
X114921176Y-80444495D01*
X115627000Y-80444495D01*
X115627000Y-80667885D01*
X115631475Y-80683124D01*
X115632865Y-80684329D01*
X115640548Y-80686000D01*
X117122885Y-80686001D01*
X117138124Y-80681526D01*
X117139329Y-80680136D01*
X117141000Y-80672453D01*
X117141000Y-80667885D01*
X117648999Y-80667885D01*
X117653474Y-80683124D01*
X117654864Y-80684329D01*
X117662547Y-80686000D01*
X119144885Y-80686001D01*
X119160124Y-80681526D01*
X119161329Y-80680136D01*
X119163000Y-80672453D01*
X119163000Y-80442257D01*
X119162839Y-80437750D01*
X119158260Y-80373731D01*
X119155874Y-80360509D01*
X119119181Y-80235542D01*
X119111767Y-80219308D01*
X119042574Y-80111640D01*
X119030888Y-80098153D01*
X118934160Y-80014338D01*
X118919152Y-80004693D01*
X118802725Y-79951523D01*
X118785612Y-79946498D01*
X118654446Y-79927639D01*
X118645505Y-79927000D01*
X117667115Y-79927000D01*
X117651876Y-79931475D01*
X117650671Y-79932865D01*
X117649000Y-79940548D01*
X117648999Y-80667885D01*
X117141000Y-80667885D01*
X117141001Y-79945115D01*
X117136526Y-79929876D01*
X117135136Y-79928671D01*
X117127453Y-79927000D01*
X116142257Y-79927000D01*
X116137750Y-79927161D01*
X116073731Y-79931740D01*
X116060509Y-79934126D01*
X115935542Y-79970819D01*
X115919308Y-79978233D01*
X115811640Y-80047426D01*
X115798153Y-80059112D01*
X115714338Y-80155840D01*
X115704693Y-80170848D01*
X115651523Y-80287275D01*
X115646498Y-80304388D01*
X115627639Y-80435554D01*
X115627000Y-80444495D01*
X114921176Y-80444495D01*
X114918260Y-80403731D01*
X114915874Y-80390509D01*
X114879181Y-80265542D01*
X114871767Y-80249308D01*
X114802574Y-80141640D01*
X114790888Y-80128153D01*
X114694160Y-80044338D01*
X114679152Y-80034693D01*
X114562725Y-79981523D01*
X114545612Y-79976498D01*
X114414446Y-79957639D01*
X114405505Y-79957000D01*
X113427115Y-79957000D01*
X113411876Y-79961475D01*
X113410671Y-79962865D01*
X113409000Y-79970548D01*
X113408999Y-80697885D01*
X112901000Y-80697885D01*
X112901001Y-79975115D01*
X112896526Y-79959876D01*
X112895136Y-79958671D01*
X112887453Y-79957000D01*
X111902257Y-79957000D01*
X111897750Y-79957161D01*
X111833731Y-79961740D01*
X111820509Y-79964126D01*
X111695542Y-80000819D01*
X111679308Y-80008233D01*
X111571640Y-80077426D01*
X111558153Y-80089112D01*
X111474338Y-80185840D01*
X111464693Y-80200848D01*
X111411523Y-80317275D01*
X111406498Y-80334388D01*
X111387639Y-80465554D01*
X111387000Y-80474495D01*
X107408000Y-80474495D01*
X107408000Y-78697547D01*
X108077000Y-78697547D01*
X108077000Y-78927743D01*
X108077161Y-78932250D01*
X108081740Y-78996269D01*
X108084126Y-79009491D01*
X108120819Y-79134458D01*
X108128233Y-79150692D01*
X108197426Y-79258360D01*
X108209112Y-79271847D01*
X108305840Y-79355662D01*
X108320848Y-79365307D01*
X108437275Y-79418477D01*
X108454388Y-79423502D01*
X108585554Y-79442361D01*
X108594495Y-79443000D01*
X109572885Y-79443000D01*
X109588124Y-79438525D01*
X109589329Y-79437135D01*
X109591000Y-79429452D01*
X109591000Y-79424885D01*
X110098999Y-79424885D01*
X110103474Y-79440124D01*
X110104864Y-79441329D01*
X110112547Y-79443000D01*
X111097743Y-79443000D01*
X111102250Y-79442839D01*
X111166269Y-79438260D01*
X111179491Y-79435874D01*
X111304458Y-79399181D01*
X111320692Y-79391767D01*
X111428360Y-79322574D01*
X111441847Y-79310888D01*
X111525662Y-79214160D01*
X111535307Y-79199152D01*
X111588477Y-79082725D01*
X111593502Y-79065612D01*
X111612361Y-78934446D01*
X111613000Y-78925503D01*
X111613000Y-78702115D01*
X111608525Y-78686876D01*
X111607135Y-78685671D01*
X111599452Y-78684000D01*
X110117115Y-78683999D01*
X110101876Y-78688474D01*
X110100671Y-78689864D01*
X110099000Y-78697547D01*
X110098999Y-79424885D01*
X109591000Y-79424885D01*
X109591001Y-78702115D01*
X109586526Y-78686876D01*
X109585136Y-78685671D01*
X109577453Y-78684000D01*
X108095115Y-78683999D01*
X108079876Y-78688474D01*
X108078671Y-78689864D01*
X108077000Y-78697547D01*
X107408000Y-78697547D01*
X107408000Y-77674920D01*
X107428002Y-77606799D01*
X107481658Y-77560306D01*
X107551932Y-77550202D01*
X107585249Y-77559813D01*
X107710479Y-77615569D01*
X107717713Y-77618790D01*
X107811113Y-77638643D01*
X107898056Y-77657124D01*
X107898061Y-77657124D01*
X107904513Y-77658496D01*
X107970624Y-77658496D01*
X108038745Y-77678498D01*
X108085238Y-77732154D01*
X108095342Y-77802428D01*
X108077639Y-77925554D01*
X108077000Y-77934495D01*
X108077000Y-78157885D01*
X108081475Y-78173124D01*
X108082865Y-78174329D01*
X108090548Y-78176000D01*
X109572885Y-78176001D01*
X109588124Y-78171526D01*
X109589329Y-78170136D01*
X109591000Y-78162453D01*
X109591000Y-78157885D01*
X110098999Y-78157885D01*
X110103474Y-78173124D01*
X110104864Y-78174329D01*
X110112547Y-78176000D01*
X111594885Y-78176001D01*
X111610124Y-78171526D01*
X111611329Y-78170136D01*
X111613000Y-78162453D01*
X111613000Y-77932257D01*
X111612839Y-77927750D01*
X111608260Y-77863731D01*
X111605874Y-77850509D01*
X111569181Y-77725542D01*
X111561767Y-77709308D01*
X111492574Y-77601640D01*
X111480888Y-77588153D01*
X111384160Y-77504338D01*
X111369152Y-77494693D01*
X111252725Y-77441523D01*
X111235612Y-77436498D01*
X111104446Y-77417639D01*
X111095505Y-77417000D01*
X110117115Y-77417000D01*
X110101876Y-77421475D01*
X110100671Y-77422865D01*
X110099000Y-77430548D01*
X110098999Y-78157885D01*
X109591000Y-78157885D01*
X109591001Y-77435115D01*
X109586526Y-77419876D01*
X109585136Y-77418671D01*
X109577453Y-77417000D01*
X108882186Y-77417000D01*
X108814065Y-77396998D01*
X108767572Y-77343342D01*
X108757468Y-77273068D01*
X108773067Y-77228000D01*
X108831220Y-77127277D01*
X108831221Y-77127276D01*
X108834524Y-77121554D01*
X108893538Y-76939927D01*
X108900587Y-76872861D01*
X108910903Y-76774711D01*
X108937916Y-76709055D01*
X108947118Y-76698787D01*
X109085500Y-76560405D01*
X109147812Y-76526379D01*
X109174595Y-76523500D01*
X111316888Y-76523500D01*
X111385009Y-76543502D01*
X111430888Y-76596451D01*
X111432904Y-76603316D01*
X111437775Y-76610895D01*
X111507051Y-76718691D01*
X111507053Y-76718694D01*
X111511923Y-76726271D01*
X111518733Y-76732172D01*
X111615569Y-76816082D01*
X111615572Y-76816084D01*
X111622381Y-76821984D01*
X111630579Y-76825728D01*
X111733786Y-76872861D01*
X111755330Y-76882700D01*
X111764245Y-76883982D01*
X111764246Y-76883982D01*
X111895552Y-76902861D01*
X111895559Y-76902862D01*
X111900000Y-76903500D01*
X114410000Y-76903500D01*
X114483079Y-76898273D01*
X114583609Y-76868755D01*
X114614670Y-76859635D01*
X114614672Y-76859634D01*
X114623316Y-76857096D01*
X114718806Y-76795728D01*
X114738691Y-76782949D01*
X114738694Y-76782947D01*
X114746271Y-76778077D01*
X114770600Y-76750000D01*
X114836082Y-76674431D01*
X114836084Y-76674428D01*
X114841984Y-76667619D01*
X114852862Y-76643799D01*
X114898958Y-76542864D01*
X114898958Y-76542863D01*
X114902700Y-76534670D01*
X114910057Y-76483500D01*
X114922861Y-76394448D01*
X114922862Y-76394441D01*
X114923500Y-76390000D01*
X114923500Y-75390000D01*
X114918273Y-75316921D01*
X114888787Y-75216500D01*
X114879635Y-75185330D01*
X114879634Y-75185328D01*
X114877096Y-75176684D01*
X114831393Y-75105569D01*
X114802949Y-75061309D01*
X114802947Y-75061306D01*
X114798077Y-75053729D01*
X114772203Y-75031309D01*
X114694431Y-74963918D01*
X114694428Y-74963916D01*
X114687619Y-74958016D01*
X114634852Y-74933918D01*
X114562864Y-74901042D01*
X114562863Y-74901042D01*
X114554670Y-74897300D01*
X114545755Y-74896018D01*
X114545754Y-74896018D01*
X114414448Y-74877139D01*
X114414441Y-74877138D01*
X114410000Y-74876500D01*
X111900000Y-74876500D01*
X111826921Y-74881727D01*
X111761140Y-74901042D01*
X111695330Y-74920365D01*
X111695328Y-74920366D01*
X111686684Y-74922904D01*
X111679105Y-74927775D01*
X111571309Y-74997051D01*
X111571306Y-74997053D01*
X111563729Y-75001923D01*
X111557828Y-75008733D01*
X111473918Y-75105569D01*
X111473916Y-75105572D01*
X111468016Y-75112381D01*
X111464272Y-75120578D01*
X111464270Y-75120582D01*
X111435836Y-75182843D01*
X111389343Y-75236498D01*
X111321223Y-75256500D01*
X108938383Y-75256500D01*
X108927479Y-75255986D01*
X108920088Y-75254334D01*
X108912162Y-75254583D01*
X108912161Y-75254583D01*
X108853134Y-75256438D01*
X108849176Y-75256500D01*
X108820422Y-75256500D01*
X108816155Y-75257039D01*
X108804313Y-75257972D01*
X108772665Y-75258967D01*
X108768040Y-75259112D01*
X108760117Y-75259361D01*
X108740667Y-75265012D01*
X108721305Y-75269022D01*
X108701212Y-75271560D01*
X108667349Y-75284967D01*
X108660108Y-75287834D01*
X108648878Y-75291679D01*
X108614034Y-75301802D01*
X108614032Y-75301803D01*
X108606421Y-75304014D01*
X108591067Y-75313094D01*
X108588989Y-75314323D01*
X108571236Y-75323020D01*
X108552400Y-75330478D01*
X108545985Y-75335139D01*
X108516626Y-75356469D01*
X108506707Y-75362984D01*
X108473758Y-75382471D01*
X108473755Y-75382473D01*
X108468659Y-75385487D01*
X108468241Y-75385855D01*
X108454158Y-75399938D01*
X108439133Y-75412772D01*
X108422917Y-75424554D01*
X108394971Y-75458335D01*
X108386981Y-75467115D01*
X108049497Y-75804599D01*
X107987185Y-75838625D01*
X107960402Y-75841504D01*
X107904513Y-75841504D01*
X107898061Y-75842876D01*
X107898056Y-75842876D01*
X107811113Y-75861357D01*
X107717713Y-75881210D01*
X107711683Y-75883895D01*
X107711682Y-75883895D01*
X107585249Y-75940187D01*
X107514882Y-75949621D01*
X107450585Y-75919515D01*
X107412771Y-75859426D01*
X107408000Y-75825080D01*
X107408000Y-74274920D01*
X107428002Y-74206799D01*
X107481658Y-74160306D01*
X107551932Y-74150202D01*
X107585248Y-74159813D01*
X107717713Y-74218790D01*
X107801972Y-74236700D01*
X107898056Y-74257124D01*
X107898061Y-74257124D01*
X107904513Y-74258496D01*
X108095487Y-74258496D01*
X108186562Y-74239137D01*
X108257352Y-74244538D01*
X108295272Y-74267158D01*
X108312381Y-74281984D01*
X108320579Y-74285728D01*
X108423786Y-74332861D01*
X108445330Y-74342700D01*
X108454245Y-74343982D01*
X108454246Y-74343982D01*
X108585552Y-74362861D01*
X108585559Y-74362862D01*
X108590000Y-74363500D01*
X111100000Y-74363500D01*
X111173079Y-74358273D01*
X111273609Y-74328755D01*
X111304670Y-74319635D01*
X111304672Y-74319634D01*
X111313316Y-74317096D01*
X111378943Y-74274920D01*
X111428691Y-74242949D01*
X111428694Y-74242947D01*
X111436271Y-74238077D01*
X111452626Y-74219203D01*
X111526082Y-74134431D01*
X111526084Y-74134428D01*
X111531984Y-74127619D01*
X111592700Y-73994670D01*
X111593982Y-73985754D01*
X111612861Y-73854448D01*
X111612862Y-73854441D01*
X111613500Y-73850000D01*
X111613500Y-72850000D01*
X111608273Y-72776921D01*
X111581061Y-72684246D01*
X111569635Y-72645330D01*
X111569634Y-72645328D01*
X111567096Y-72636684D01*
X111517098Y-72558886D01*
X111492949Y-72521309D01*
X111492947Y-72521306D01*
X111488077Y-72513729D01*
X111453647Y-72483895D01*
X111384431Y-72423918D01*
X111384428Y-72423916D01*
X111377619Y-72418016D01*
X111324852Y-72393918D01*
X111252864Y-72361042D01*
X111252863Y-72361042D01*
X111244670Y-72357300D01*
X111235755Y-72356018D01*
X111235754Y-72356018D01*
X111104448Y-72337139D01*
X111104441Y-72337138D01*
X111100000Y-72336500D01*
X108590000Y-72336500D01*
X108516921Y-72341727D01*
X108451140Y-72361042D01*
X108385330Y-72380365D01*
X108385328Y-72380366D01*
X108376684Y-72382904D01*
X108283367Y-72442876D01*
X108281887Y-72443827D01*
X108213766Y-72463830D01*
X108187567Y-72461076D01*
X108101951Y-72442877D01*
X108101942Y-72442876D01*
X108095487Y-72441504D01*
X107904513Y-72441504D01*
X107898061Y-72442876D01*
X107898056Y-72442876D01*
X107820061Y-72459455D01*
X107717713Y-72481210D01*
X107711683Y-72483895D01*
X107711682Y-72483895D01*
X107585249Y-72540187D01*
X107514882Y-72549621D01*
X107450585Y-72519515D01*
X107412771Y-72459426D01*
X107408000Y-72425080D01*
X107408000Y-71774920D01*
X107428002Y-71706799D01*
X107481658Y-71660306D01*
X107551932Y-71650202D01*
X107585248Y-71659813D01*
X107648348Y-71687907D01*
X107710836Y-71715728D01*
X107717713Y-71718790D01*
X107799065Y-71736082D01*
X107898056Y-71757124D01*
X107898061Y-71757124D01*
X107904513Y-71758496D01*
X108095487Y-71758496D01*
X108101939Y-71757124D01*
X108101944Y-71757124D01*
X108200935Y-71736082D01*
X108282287Y-71718790D01*
X108288318Y-71716105D01*
X108450720Y-71643799D01*
X108450722Y-71643798D01*
X108456750Y-71641114D01*
X108485588Y-71620162D01*
X108605907Y-71532746D01*
X108605909Y-71532744D01*
X108611251Y-71528863D01*
X108615672Y-71523953D01*
X108620575Y-71519538D01*
X108621701Y-71520789D01*
X108675000Y-71487951D01*
X108708194Y-71483500D01*
X111338514Y-71483500D01*
X111406635Y-71503502D01*
X111444511Y-71541379D01*
X111507047Y-71638686D01*
X111507052Y-71638692D01*
X111511923Y-71646271D01*
X111518733Y-71652172D01*
X111615569Y-71736082D01*
X111615572Y-71736084D01*
X111622381Y-71741984D01*
X111630579Y-71745728D01*
X111733786Y-71792861D01*
X111755330Y-71802700D01*
X111764245Y-71803982D01*
X111764246Y-71803982D01*
X111895552Y-71822861D01*
X111895559Y-71822862D01*
X111900000Y-71823500D01*
X114410000Y-71823500D01*
X114483079Y-71818273D01*
X114583609Y-71788755D01*
X114614670Y-71779635D01*
X114614672Y-71779634D01*
X114623316Y-71777096D01*
X114687135Y-71736082D01*
X114738691Y-71702949D01*
X114738694Y-71702947D01*
X114746271Y-71698077D01*
X114768045Y-71672949D01*
X114836082Y-71594431D01*
X114836084Y-71594428D01*
X114841984Y-71587619D01*
X114880399Y-71503502D01*
X114898958Y-71462864D01*
X114898958Y-71462863D01*
X114902700Y-71454670D01*
X114905852Y-71432746D01*
X114922861Y-71314448D01*
X114922862Y-71314441D01*
X114923500Y-71310000D01*
X114923500Y-70310000D01*
X114918273Y-70236921D01*
X114890649Y-70142842D01*
X114879635Y-70105330D01*
X114879634Y-70105328D01*
X114877096Y-70096684D01*
X114827502Y-70019515D01*
X114802949Y-69981309D01*
X114802947Y-69981306D01*
X114798077Y-69973729D01*
X114781571Y-69959426D01*
X114694431Y-69883918D01*
X114694428Y-69883916D01*
X114687619Y-69878016D01*
X114634852Y-69853918D01*
X114562864Y-69821042D01*
X114562863Y-69821042D01*
X114554670Y-69817300D01*
X114545755Y-69816018D01*
X114545754Y-69816018D01*
X114414448Y-69797139D01*
X114414441Y-69797138D01*
X114410000Y-69796500D01*
X111900000Y-69796500D01*
X111826921Y-69801727D01*
X111761140Y-69821042D01*
X111695330Y-69840365D01*
X111695328Y-69840366D01*
X111686684Y-69842904D01*
X111679105Y-69847775D01*
X111571309Y-69917051D01*
X111571306Y-69917053D01*
X111563729Y-69921923D01*
X111557828Y-69928733D01*
X111473918Y-70025569D01*
X111473916Y-70025572D01*
X111468016Y-70032381D01*
X111464272Y-70040579D01*
X111417570Y-70142842D01*
X111371077Y-70196498D01*
X111302956Y-70216500D01*
X108708194Y-70216500D01*
X108640073Y-70196498D01*
X108620849Y-70180158D01*
X108620575Y-70180462D01*
X108615672Y-70176047D01*
X108611251Y-70171137D01*
X108605909Y-70167256D01*
X108605907Y-70167254D01*
X108462092Y-70062767D01*
X108462091Y-70062766D01*
X108456750Y-70058886D01*
X108450722Y-70056202D01*
X108450720Y-70056201D01*
X108288318Y-69983895D01*
X108288317Y-69983895D01*
X108282287Y-69981210D01*
X108188887Y-69961357D01*
X108101944Y-69942876D01*
X108101939Y-69942876D01*
X108095487Y-69941504D01*
X107904513Y-69941504D01*
X107898061Y-69942876D01*
X107898056Y-69942876D01*
X107811113Y-69961357D01*
X107717713Y-69981210D01*
X107711683Y-69983895D01*
X107711682Y-69983895D01*
X107585249Y-70040187D01*
X107514882Y-70049621D01*
X107450585Y-70019515D01*
X107412771Y-69959426D01*
X107408000Y-69925080D01*
X107408000Y-69174920D01*
X107428002Y-69106799D01*
X107481658Y-69060306D01*
X107551932Y-69050202D01*
X107585248Y-69059813D01*
X107648348Y-69087907D01*
X107710297Y-69115488D01*
X107717713Y-69118790D01*
X107811113Y-69138643D01*
X107898056Y-69157124D01*
X107898061Y-69157124D01*
X107904513Y-69158496D01*
X108095487Y-69158496D01*
X108107889Y-69155860D01*
X108168030Y-69143077D01*
X108238820Y-69148479D01*
X108276739Y-69171100D01*
X108305569Y-69196082D01*
X108305572Y-69196084D01*
X108312381Y-69201984D01*
X108320579Y-69205728D01*
X108423786Y-69252861D01*
X108445330Y-69262700D01*
X108454245Y-69263982D01*
X108454246Y-69263982D01*
X108585552Y-69282861D01*
X108585559Y-69282862D01*
X108590000Y-69283500D01*
X111100000Y-69283500D01*
X111173079Y-69278273D01*
X111273609Y-69248755D01*
X111304670Y-69239635D01*
X111304672Y-69239634D01*
X111313316Y-69237096D01*
X111362125Y-69205728D01*
X111428691Y-69162949D01*
X111428694Y-69162947D01*
X111436271Y-69158077D01*
X111457441Y-69133646D01*
X111526082Y-69054431D01*
X111526084Y-69054428D01*
X111531984Y-69047619D01*
X111592700Y-68914670D01*
X111593982Y-68905754D01*
X111612861Y-68774448D01*
X111612862Y-68774441D01*
X111613500Y-68770000D01*
X111613500Y-67770000D01*
X111608273Y-67696921D01*
X111581061Y-67604246D01*
X111569635Y-67565330D01*
X111569634Y-67565328D01*
X111567096Y-67556684D01*
X111531991Y-67502060D01*
X111492949Y-67441309D01*
X111492947Y-67441306D01*
X111488077Y-67433729D01*
X111467803Y-67416161D01*
X111384431Y-67343918D01*
X111384428Y-67343916D01*
X111377619Y-67338016D01*
X111324850Y-67313917D01*
X111252864Y-67281042D01*
X111252863Y-67281042D01*
X111244670Y-67277300D01*
X111235755Y-67276018D01*
X111235754Y-67276018D01*
X111104448Y-67257139D01*
X111104441Y-67257138D01*
X111100000Y-67256500D01*
X108590000Y-67256500D01*
X108516921Y-67261727D01*
X108451140Y-67281042D01*
X108385330Y-67300365D01*
X108385328Y-67300366D01*
X108376684Y-67302904D01*
X108311250Y-67344957D01*
X108305273Y-67348798D01*
X108237152Y-67368801D01*
X108210953Y-67366047D01*
X108101951Y-67342877D01*
X108101942Y-67342876D01*
X108095487Y-67341504D01*
X107904513Y-67341504D01*
X107898061Y-67342876D01*
X107898056Y-67342876D01*
X107818593Y-67359767D01*
X107717713Y-67381210D01*
X107599754Y-67433729D01*
X107585249Y-67440187D01*
X107514882Y-67449621D01*
X107450585Y-67419515D01*
X107412771Y-67359426D01*
X107408000Y-67325080D01*
X107408000Y-66674920D01*
X107428002Y-66606799D01*
X107481658Y-66560306D01*
X107551932Y-66550202D01*
X107585248Y-66559813D01*
X107633435Y-66581267D01*
X107691511Y-66607124D01*
X107717713Y-66618790D01*
X107811113Y-66638643D01*
X107898056Y-66657124D01*
X107898061Y-66657124D01*
X107904513Y-66658496D01*
X108095487Y-66658496D01*
X108101939Y-66657124D01*
X108101944Y-66657124D01*
X108188887Y-66638643D01*
X108282287Y-66618790D01*
X108305408Y-66608496D01*
X108450720Y-66543799D01*
X108450722Y-66543798D01*
X108456750Y-66541114D01*
X108521874Y-66493799D01*
X108605907Y-66432746D01*
X108605909Y-66432744D01*
X108611251Y-66428863D01*
X108632568Y-66405188D01*
X108693011Y-66367950D01*
X108726202Y-66363500D01*
X111316888Y-66363500D01*
X111385009Y-66383502D01*
X111430888Y-66436451D01*
X111432904Y-66443316D01*
X111437775Y-66450895D01*
X111507051Y-66558691D01*
X111507053Y-66558694D01*
X111511923Y-66566271D01*
X111518733Y-66572172D01*
X111615569Y-66656082D01*
X111615572Y-66656084D01*
X111622381Y-66661984D01*
X111630579Y-66665728D01*
X111733786Y-66712861D01*
X111755330Y-66722700D01*
X111764245Y-66723982D01*
X111764246Y-66723982D01*
X111895552Y-66742861D01*
X111895559Y-66742862D01*
X111900000Y-66743500D01*
X114410000Y-66743500D01*
X114483079Y-66738273D01*
X114583609Y-66708755D01*
X114614670Y-66699635D01*
X114614672Y-66699634D01*
X114623316Y-66697096D01*
X114677951Y-66661984D01*
X114738691Y-66622949D01*
X114738694Y-66622947D01*
X114746271Y-66618077D01*
X114768045Y-66592949D01*
X114836082Y-66514431D01*
X114836084Y-66514428D01*
X114841984Y-66507619D01*
X114874162Y-66437159D01*
X114898958Y-66382864D01*
X114898958Y-66382863D01*
X114902700Y-66374670D01*
X114904306Y-66363500D01*
X114922861Y-66234448D01*
X114922862Y-66234441D01*
X114923500Y-66230000D01*
X114923500Y-65230000D01*
X114918273Y-65156921D01*
X114893085Y-65071137D01*
X114879635Y-65025330D01*
X114879634Y-65025328D01*
X114877096Y-65016684D01*
X114827934Y-64940187D01*
X114802949Y-64901309D01*
X114802947Y-64901306D01*
X114798077Y-64893729D01*
X114786728Y-64883895D01*
X114694431Y-64803918D01*
X114694428Y-64803916D01*
X114687619Y-64798016D01*
X114634852Y-64773918D01*
X114562864Y-64741042D01*
X114562863Y-64741042D01*
X114554670Y-64737300D01*
X114545755Y-64736018D01*
X114545754Y-64736018D01*
X114414448Y-64717139D01*
X114414441Y-64717138D01*
X114410000Y-64716500D01*
X111900000Y-64716500D01*
X111826921Y-64721727D01*
X111761140Y-64741042D01*
X111695330Y-64760365D01*
X111695328Y-64760366D01*
X111686684Y-64762904D01*
X111679105Y-64767775D01*
X111571309Y-64837051D01*
X111571306Y-64837053D01*
X111563729Y-64841923D01*
X111557828Y-64848733D01*
X111473918Y-64945569D01*
X111473916Y-64945572D01*
X111468016Y-64952381D01*
X111464272Y-64960578D01*
X111464270Y-64960582D01*
X111435836Y-65022843D01*
X111389343Y-65076498D01*
X111321223Y-65096500D01*
X108686755Y-65096500D01*
X108618634Y-65076498D01*
X108611380Y-65070959D01*
X108611251Y-65071137D01*
X108462092Y-64962767D01*
X108462091Y-64962766D01*
X108456750Y-64958886D01*
X108450722Y-64956202D01*
X108450720Y-64956201D01*
X108288318Y-64883895D01*
X108288317Y-64883895D01*
X108282287Y-64881210D01*
X108188887Y-64861357D01*
X108101944Y-64842876D01*
X108101939Y-64842876D01*
X108095487Y-64841504D01*
X107904513Y-64841504D01*
X107898061Y-64842876D01*
X107898056Y-64842876D01*
X107811113Y-64861357D01*
X107717713Y-64881210D01*
X107711683Y-64883895D01*
X107711682Y-64883895D01*
X107689595Y-64893729D01*
X107640542Y-64915569D01*
X107585249Y-64940187D01*
X107514882Y-64949621D01*
X107450585Y-64919515D01*
X107412771Y-64859426D01*
X107408000Y-64825080D01*
X107408000Y-64124920D01*
X107428002Y-64056799D01*
X107481658Y-64010306D01*
X107551932Y-64000202D01*
X107585248Y-64009813D01*
X107608493Y-64020162D01*
X107691511Y-64057124D01*
X107717713Y-64068790D01*
X107799065Y-64086082D01*
X107898056Y-64107124D01*
X107898061Y-64107124D01*
X107904513Y-64108496D01*
X108095487Y-64108496D01*
X108101940Y-64107124D01*
X108101944Y-64107124D01*
X108164720Y-64093780D01*
X108195832Y-64087167D01*
X108266622Y-64092569D01*
X108297956Y-64111262D01*
X108297989Y-64111210D01*
X108299548Y-64112212D01*
X108304541Y-64115191D01*
X108312381Y-64121984D01*
X108320579Y-64125728D01*
X108423786Y-64172861D01*
X108445330Y-64182700D01*
X108454245Y-64183982D01*
X108454246Y-64183982D01*
X108585552Y-64202861D01*
X108585559Y-64202862D01*
X108590000Y-64203500D01*
X111100000Y-64203500D01*
X111173079Y-64198273D01*
X111273609Y-64168755D01*
X111304670Y-64159635D01*
X111304672Y-64159634D01*
X111313316Y-64157096D01*
X111362125Y-64125728D01*
X111428691Y-64082949D01*
X111428694Y-64082947D01*
X111436271Y-64078077D01*
X111442172Y-64071267D01*
X111526082Y-63974431D01*
X111526084Y-63974428D01*
X111531984Y-63967619D01*
X111535728Y-63959422D01*
X111535730Y-63959418D01*
X111559597Y-63907157D01*
X111606090Y-63853502D01*
X111674210Y-63833500D01*
X113061617Y-63833500D01*
X113072521Y-63834014D01*
X113079912Y-63835666D01*
X113087837Y-63835417D01*
X113087838Y-63835417D01*
X113146853Y-63833562D01*
X113150811Y-63833500D01*
X113179578Y-63833500D01*
X113183502Y-63833004D01*
X113183504Y-63833004D01*
X113183852Y-63832960D01*
X113195698Y-63832027D01*
X113239883Y-63830638D01*
X113259339Y-63824986D01*
X113278679Y-63820981D01*
X113298788Y-63818440D01*
X113306158Y-63815522D01*
X113306162Y-63815521D01*
X113339900Y-63802163D01*
X113351130Y-63798318D01*
X113385968Y-63788197D01*
X113385969Y-63788197D01*
X113393578Y-63785986D01*
X113411012Y-63775676D01*
X113428764Y-63766980D01*
X113440225Y-63762442D01*
X113440224Y-63762442D01*
X113447600Y-63759522D01*
X113468203Y-63744553D01*
X113483375Y-63733530D01*
X113493294Y-63727014D01*
X113494434Y-63726340D01*
X113531341Y-63704513D01*
X113531759Y-63704145D01*
X113545842Y-63690062D01*
X113560867Y-63677228D01*
X113577083Y-63665446D01*
X113605034Y-63631659D01*
X113613023Y-63622880D01*
X113625937Y-63609966D01*
X113669190Y-63554205D01*
X113671664Y-63551117D01*
X113679102Y-63542126D01*
X113680532Y-63543309D01*
X113682048Y-63541981D01*
X113679940Y-63540346D01*
X113694725Y-63521286D01*
X113694726Y-63521285D01*
X113699583Y-63515023D01*
X113763147Y-63368135D01*
X113788184Y-63210055D01*
X113773122Y-63050716D01*
X113718907Y-62900127D01*
X113628945Y-62767753D01*
X113508889Y-62661910D01*
X113366284Y-62589248D01*
X113210088Y-62554334D01*
X113050117Y-62559362D01*
X113042501Y-62561575D01*
X113034676Y-62562814D01*
X113034650Y-62562652D01*
X113007615Y-62566500D01*
X111687679Y-62566500D01*
X111619558Y-62546498D01*
X111573065Y-62492842D01*
X111569635Y-62485331D01*
X111567096Y-62476684D01*
X111523025Y-62408108D01*
X111492949Y-62361309D01*
X111492947Y-62361306D01*
X111488077Y-62353729D01*
X111481267Y-62347828D01*
X111384431Y-62263918D01*
X111384428Y-62263916D01*
X111377619Y-62258016D01*
X111331953Y-62237161D01*
X111252864Y-62201042D01*
X111252863Y-62201042D01*
X111244670Y-62197300D01*
X111235755Y-62196018D01*
X111235754Y-62196018D01*
X111104448Y-62177139D01*
X111104441Y-62177138D01*
X111100000Y-62176500D01*
X108590000Y-62176500D01*
X108516921Y-62181727D01*
X108451140Y-62201042D01*
X108385330Y-62220365D01*
X108385328Y-62220366D01*
X108376684Y-62222904D01*
X108270192Y-62291343D01*
X108202072Y-62311345D01*
X108175881Y-62308593D01*
X108095487Y-62291504D01*
X107904513Y-62291504D01*
X107898061Y-62292876D01*
X107898056Y-62292876D01*
X107816142Y-62310288D01*
X107717713Y-62331210D01*
X107711683Y-62333895D01*
X107711682Y-62333895D01*
X107585249Y-62390187D01*
X107514882Y-62399621D01*
X107450585Y-62369515D01*
X107412771Y-62309426D01*
X107408000Y-62275080D01*
X107408000Y-61574920D01*
X107428002Y-61506799D01*
X107481658Y-61460306D01*
X107551932Y-61450202D01*
X107585248Y-61459813D01*
X107717713Y-61518790D01*
X107808450Y-61538077D01*
X107898056Y-61557124D01*
X107898061Y-61557124D01*
X107904513Y-61558496D01*
X108095487Y-61558496D01*
X108101939Y-61557124D01*
X108101944Y-61557124D01*
X108191550Y-61538077D01*
X108282287Y-61518790D01*
X108306349Y-61508077D01*
X108450720Y-61443799D01*
X108450722Y-61443798D01*
X108456750Y-61441114D01*
X108462092Y-61437233D01*
X108605907Y-61332746D01*
X108605909Y-61332744D01*
X108611251Y-61328863D01*
X108615672Y-61323953D01*
X108620575Y-61319538D01*
X108621701Y-61320789D01*
X108675000Y-61287951D01*
X108708194Y-61283500D01*
X111316888Y-61283500D01*
X111385009Y-61303502D01*
X111430888Y-61356451D01*
X111432904Y-61363316D01*
X111437775Y-61370895D01*
X111507051Y-61478691D01*
X111507053Y-61478694D01*
X111511923Y-61486271D01*
X111518733Y-61492172D01*
X111615569Y-61576082D01*
X111615572Y-61576084D01*
X111622381Y-61581984D01*
X111630579Y-61585728D01*
X111733786Y-61632861D01*
X111755330Y-61642700D01*
X111764245Y-61643982D01*
X111764246Y-61643982D01*
X111895552Y-61662861D01*
X111895559Y-61662862D01*
X111900000Y-61663500D01*
X114410000Y-61663500D01*
X114483079Y-61658273D01*
X114583609Y-61628755D01*
X114614670Y-61619635D01*
X114614672Y-61619634D01*
X114623316Y-61617096D01*
X114688943Y-61574920D01*
X114738691Y-61542949D01*
X114738694Y-61542947D01*
X114746271Y-61538077D01*
X114761795Y-61520162D01*
X114836082Y-61434431D01*
X114836084Y-61434428D01*
X114841984Y-61427619D01*
X114902700Y-61294670D01*
X114904306Y-61283500D01*
X114922861Y-61154448D01*
X114922862Y-61154441D01*
X114923500Y-61150000D01*
X114923500Y-60150000D01*
X114918273Y-60076921D01*
X114889861Y-59980158D01*
X114879635Y-59945330D01*
X114879634Y-59945328D01*
X114877096Y-59936684D01*
X114827098Y-59858886D01*
X114802949Y-59821309D01*
X114802947Y-59821306D01*
X114798077Y-59813729D01*
X114763647Y-59783895D01*
X114694431Y-59723918D01*
X114694428Y-59723916D01*
X114687619Y-59718016D01*
X114679421Y-59714272D01*
X114562864Y-59661042D01*
X114562863Y-59661042D01*
X114554670Y-59657300D01*
X114545755Y-59656018D01*
X114545754Y-59656018D01*
X114414448Y-59637139D01*
X114414441Y-59637138D01*
X114410000Y-59636500D01*
X111900000Y-59636500D01*
X111826921Y-59641727D01*
X111761140Y-59661042D01*
X111695330Y-59680365D01*
X111695328Y-59680366D01*
X111686684Y-59682904D01*
X111648528Y-59707426D01*
X111571309Y-59757051D01*
X111571306Y-59757053D01*
X111563729Y-59761923D01*
X111557828Y-59768733D01*
X111473918Y-59865569D01*
X111473916Y-59865572D01*
X111468016Y-59872381D01*
X111464272Y-59880578D01*
X111464270Y-59880582D01*
X111435836Y-59942843D01*
X111389343Y-59996498D01*
X111321223Y-60016500D01*
X108708194Y-60016500D01*
X108640073Y-59996498D01*
X108620849Y-59980158D01*
X108620575Y-59980462D01*
X108615672Y-59976047D01*
X108611251Y-59971137D01*
X108605909Y-59967256D01*
X108605907Y-59967254D01*
X108462092Y-59862767D01*
X108462091Y-59862766D01*
X108456750Y-59858886D01*
X108450722Y-59856202D01*
X108450720Y-59856201D01*
X108288318Y-59783895D01*
X108288317Y-59783895D01*
X108282287Y-59781210D01*
X108188887Y-59761357D01*
X108101944Y-59742876D01*
X108101939Y-59742876D01*
X108095487Y-59741504D01*
X107904513Y-59741504D01*
X107898061Y-59742876D01*
X107898056Y-59742876D01*
X107811113Y-59761357D01*
X107717713Y-59781210D01*
X107711683Y-59783895D01*
X107711682Y-59783895D01*
X107585249Y-59840187D01*
X107514882Y-59849621D01*
X107450585Y-59819515D01*
X107412771Y-59759426D01*
X107408000Y-59725080D01*
X107408000Y-59024920D01*
X107428002Y-58956799D01*
X107481658Y-58910306D01*
X107551932Y-58900202D01*
X107585248Y-58909813D01*
X107717713Y-58968790D01*
X107811113Y-58988643D01*
X107898056Y-59007124D01*
X107898061Y-59007124D01*
X107904513Y-59008496D01*
X108095487Y-59008496D01*
X108177298Y-58991106D01*
X108248086Y-58996508D01*
X108286005Y-59019129D01*
X108305569Y-59036082D01*
X108305572Y-59036084D01*
X108312381Y-59041984D01*
X108320579Y-59045728D01*
X108423786Y-59092861D01*
X108445330Y-59102700D01*
X108454245Y-59103982D01*
X108454246Y-59103982D01*
X108585552Y-59122861D01*
X108585559Y-59122862D01*
X108590000Y-59123500D01*
X111100000Y-59123500D01*
X111173079Y-59118273D01*
X111273609Y-59088755D01*
X111304670Y-59079635D01*
X111304672Y-59079634D01*
X111313316Y-59077096D01*
X111362125Y-59045728D01*
X111428691Y-59002949D01*
X111428694Y-59002947D01*
X111436271Y-58998077D01*
X111442172Y-58991267D01*
X111526082Y-58894431D01*
X111526084Y-58894428D01*
X111531984Y-58887619D01*
X111592700Y-58754670D01*
X111593982Y-58745754D01*
X111612861Y-58614448D01*
X111612862Y-58614441D01*
X111613500Y-58610000D01*
X111613500Y-57610000D01*
X111608273Y-57536921D01*
X111581061Y-57444246D01*
X111569635Y-57405330D01*
X111569634Y-57405328D01*
X111567096Y-57396684D01*
X111542574Y-57358528D01*
X111492949Y-57281309D01*
X111492947Y-57281306D01*
X111488077Y-57273729D01*
X111476332Y-57263552D01*
X111384431Y-57183918D01*
X111384428Y-57183916D01*
X111377619Y-57178016D01*
X111314212Y-57149059D01*
X111252864Y-57121042D01*
X111252863Y-57121042D01*
X111244670Y-57117300D01*
X111235755Y-57116018D01*
X111235754Y-57116018D01*
X111104448Y-57097139D01*
X111104441Y-57097138D01*
X111100000Y-57096500D01*
X108590000Y-57096500D01*
X108516921Y-57101727D01*
X108451140Y-57121042D01*
X108385330Y-57140365D01*
X108385328Y-57140366D01*
X108376684Y-57142904D01*
X108307991Y-57187051D01*
X108293579Y-57196313D01*
X108225459Y-57216315D01*
X108199263Y-57213562D01*
X108174039Y-57208201D01*
X108101944Y-57192876D01*
X108101940Y-57192876D01*
X108095487Y-57191504D01*
X107904513Y-57191504D01*
X107898061Y-57192876D01*
X107898056Y-57192876D01*
X107811113Y-57211357D01*
X107717713Y-57231210D01*
X107711683Y-57233895D01*
X107711682Y-57233895D01*
X107585249Y-57290187D01*
X107514882Y-57299621D01*
X107450585Y-57269515D01*
X107412771Y-57209426D01*
X107408000Y-57175080D01*
X107408000Y-56474920D01*
X107428002Y-56406799D01*
X107481658Y-56360306D01*
X107551932Y-56350202D01*
X107585249Y-56359813D01*
X107702849Y-56412172D01*
X107717713Y-56418790D01*
X107811113Y-56438643D01*
X107898056Y-56457124D01*
X107898061Y-56457124D01*
X107904513Y-56458496D01*
X108095487Y-56458496D01*
X108101939Y-56457124D01*
X108101944Y-56457124D01*
X108188887Y-56438643D01*
X108282287Y-56418790D01*
X108288318Y-56416105D01*
X108450720Y-56343799D01*
X108450722Y-56343798D01*
X108456750Y-56341114D01*
X108611251Y-56228863D01*
X108612744Y-56230918D01*
X108666466Y-56205144D01*
X108686755Y-56203500D01*
X111316888Y-56203500D01*
X111385009Y-56223502D01*
X111430888Y-56276451D01*
X111432904Y-56283316D01*
X111437775Y-56290895D01*
X111507051Y-56398691D01*
X111507053Y-56398694D01*
X111511923Y-56406271D01*
X111518733Y-56412172D01*
X111615569Y-56496082D01*
X111615572Y-56496084D01*
X111622381Y-56501984D01*
X111630579Y-56505728D01*
X111733786Y-56552861D01*
X111755330Y-56562700D01*
X111764245Y-56563982D01*
X111764246Y-56563982D01*
X111895552Y-56582861D01*
X111895559Y-56582862D01*
X111900000Y-56583500D01*
X114410000Y-56583500D01*
X114483079Y-56578273D01*
X114583609Y-56548755D01*
X114614670Y-56539635D01*
X114614672Y-56539634D01*
X114623316Y-56537096D01*
X114718806Y-56475728D01*
X114738691Y-56462949D01*
X114738694Y-56462947D01*
X114746271Y-56458077D01*
X114768045Y-56432949D01*
X114836082Y-56354431D01*
X114836084Y-56354428D01*
X114841984Y-56347619D01*
X114902700Y-56214670D01*
X114904306Y-56203500D01*
X114922861Y-56074448D01*
X114922862Y-56074441D01*
X114923500Y-56070000D01*
X114923500Y-55070000D01*
X114921355Y-55040000D01*
X115626500Y-55040000D01*
X115626500Y-56040000D01*
X115631727Y-56113079D01*
X115633631Y-56119562D01*
X115663963Y-56222864D01*
X115672904Y-56253316D01*
X115688227Y-56277159D01*
X115747051Y-56368691D01*
X115747053Y-56368694D01*
X115751923Y-56376271D01*
X115758733Y-56382172D01*
X115855569Y-56466082D01*
X115855572Y-56466084D01*
X115862381Y-56471984D01*
X115870579Y-56475728D01*
X115928072Y-56501984D01*
X115995330Y-56532700D01*
X116004245Y-56533982D01*
X116004246Y-56533982D01*
X116135552Y-56552861D01*
X116135559Y-56552862D01*
X116140000Y-56553500D01*
X118650000Y-56553500D01*
X118723079Y-56548273D01*
X118801165Y-56525345D01*
X118854670Y-56509635D01*
X118854672Y-56509634D01*
X118863316Y-56507096D01*
X118912125Y-56475728D01*
X118978691Y-56432949D01*
X118978694Y-56432947D01*
X118986271Y-56428077D01*
X119037849Y-56368553D01*
X119097575Y-56330170D01*
X119168571Y-56330170D01*
X119191991Y-56340199D01*
X119193250Y-56341114D01*
X119199279Y-56343798D01*
X119199282Y-56343800D01*
X119361682Y-56416105D01*
X119367713Y-56418790D01*
X119461113Y-56438643D01*
X119548056Y-56457124D01*
X119548061Y-56457124D01*
X119554513Y-56458496D01*
X119745487Y-56458496D01*
X119751939Y-56457124D01*
X119751944Y-56457124D01*
X119838887Y-56438643D01*
X119932287Y-56418790D01*
X119938318Y-56416105D01*
X120100720Y-56343799D01*
X120100722Y-56343798D01*
X120106750Y-56341114D01*
X120121813Y-56330170D01*
X120255907Y-56232746D01*
X120255909Y-56232744D01*
X120261251Y-56228863D01*
X120266653Y-56222864D01*
X120384618Y-56091850D01*
X120384619Y-56091849D01*
X120389037Y-56086942D01*
X120484524Y-55921554D01*
X120543538Y-55739927D01*
X120560903Y-55574710D01*
X120587916Y-55509054D01*
X120597118Y-55498786D01*
X121097513Y-54998391D01*
X121105601Y-54991031D01*
X121111995Y-54986973D01*
X121157870Y-54938121D01*
X121160624Y-54935280D01*
X121180937Y-54914967D01*
X121183582Y-54911556D01*
X121191288Y-54902534D01*
X121198542Y-54894810D01*
X121221557Y-54870301D01*
X121229043Y-54856684D01*
X121231317Y-54852548D01*
X121242173Y-54836021D01*
X121249725Y-54826286D01*
X121249727Y-54826283D01*
X121254582Y-54820024D01*
X121272139Y-54779453D01*
X121277358Y-54768800D01*
X121294846Y-54736990D01*
X121294847Y-54736987D01*
X121298662Y-54730048D01*
X121303702Y-54710419D01*
X121310101Y-54691729D01*
X121318147Y-54673136D01*
X121325063Y-54629472D01*
X121327470Y-54617851D01*
X121336987Y-54580782D01*
X121336987Y-54580781D01*
X121338465Y-54575025D01*
X121338500Y-54574469D01*
X121338500Y-54554547D01*
X121340051Y-54534836D01*
X121340544Y-54531727D01*
X121343184Y-54515056D01*
X121339059Y-54471417D01*
X121338500Y-54459560D01*
X121338500Y-54139500D01*
X121358502Y-54071379D01*
X121412158Y-54024886D01*
X121464500Y-54013500D01*
X121960000Y-54013500D01*
X122033079Y-54008273D01*
X122133558Y-53978770D01*
X122164670Y-53969635D01*
X122164672Y-53969634D01*
X122173316Y-53967096D01*
X122242010Y-53922949D01*
X122288691Y-53892949D01*
X122288694Y-53892947D01*
X122296271Y-53888077D01*
X122312289Y-53869591D01*
X122386082Y-53784431D01*
X122386084Y-53784428D01*
X122391984Y-53777619D01*
X122403046Y-53753397D01*
X122448958Y-53652864D01*
X122448958Y-53652863D01*
X122452700Y-53644670D01*
X122453982Y-53635754D01*
X122472861Y-53504448D01*
X122472862Y-53504441D01*
X122473500Y-53500000D01*
X122473500Y-52500000D01*
X122468273Y-52426921D01*
X122427096Y-52286684D01*
X122377098Y-52208886D01*
X122352949Y-52171309D01*
X122352947Y-52171306D01*
X122348077Y-52163729D01*
X122313647Y-52133895D01*
X122244431Y-52073918D01*
X122244428Y-52073916D01*
X122237619Y-52068016D01*
X122229421Y-52064272D01*
X122112864Y-52011042D01*
X122112863Y-52011042D01*
X122104670Y-52007300D01*
X122095755Y-52006018D01*
X122095754Y-52006018D01*
X121964448Y-51987139D01*
X121964441Y-51987138D01*
X121960000Y-51986500D01*
X119450000Y-51986500D01*
X119376921Y-51991727D01*
X119323884Y-52007300D01*
X119245330Y-52030365D01*
X119245328Y-52030366D01*
X119236684Y-52032904D01*
X119229105Y-52037775D01*
X119121309Y-52107051D01*
X119121306Y-52107053D01*
X119113729Y-52111923D01*
X119070555Y-52161748D01*
X119010831Y-52200131D01*
X118939835Y-52200131D01*
X118924087Y-52194343D01*
X118782287Y-52131210D01*
X118688887Y-52111357D01*
X118601944Y-52092876D01*
X118601939Y-52092876D01*
X118595487Y-52091504D01*
X118404513Y-52091504D01*
X118398061Y-52092876D01*
X118398056Y-52092876D01*
X118311113Y-52111357D01*
X118217713Y-52131210D01*
X118211683Y-52133895D01*
X118211682Y-52133895D01*
X118049280Y-52206201D01*
X118049278Y-52206202D01*
X118043250Y-52208886D01*
X118037909Y-52212766D01*
X118037908Y-52212767D01*
X117894093Y-52317254D01*
X117894091Y-52317256D01*
X117888749Y-52321137D01*
X117760963Y-52463058D01*
X117665476Y-52628446D01*
X117606462Y-52810073D01*
X117605772Y-52816634D01*
X117605772Y-52816636D01*
X117594970Y-52919416D01*
X117567957Y-52985073D01*
X117558755Y-52995341D01*
X117002486Y-53551610D01*
X116994399Y-53558969D01*
X116988005Y-53563027D01*
X116982580Y-53568804D01*
X116982579Y-53568805D01*
X116942137Y-53611872D01*
X116939381Y-53614715D01*
X116919062Y-53635034D01*
X116916638Y-53638159D01*
X116916631Y-53638167D01*
X116916411Y-53638451D01*
X116908703Y-53647476D01*
X116893656Y-53663500D01*
X116878443Y-53679700D01*
X116871720Y-53691929D01*
X116868687Y-53697446D01*
X116857836Y-53713965D01*
X116850278Y-53723709D01*
X116850275Y-53723714D01*
X116845417Y-53729977D01*
X116830007Y-53765588D01*
X116827861Y-53770547D01*
X116822638Y-53781208D01*
X116801338Y-53819953D01*
X116799366Y-53827635D01*
X116799365Y-53827636D01*
X116796298Y-53839578D01*
X116789898Y-53858273D01*
X116781853Y-53876865D01*
X116780613Y-53884694D01*
X116774937Y-53920529D01*
X116772530Y-53932150D01*
X116764809Y-53962225D01*
X116761535Y-53974976D01*
X116761500Y-53975532D01*
X116761500Y-53995454D01*
X116759949Y-54015163D01*
X116756816Y-54034945D01*
X116757562Y-54042837D01*
X116760941Y-54078583D01*
X116761500Y-54090441D01*
X116761500Y-54400500D01*
X116741498Y-54468621D01*
X116687842Y-54515114D01*
X116635500Y-54526500D01*
X116140000Y-54526500D01*
X116066921Y-54531727D01*
X116013884Y-54547300D01*
X115935330Y-54570365D01*
X115935328Y-54570366D01*
X115926684Y-54572904D01*
X115919105Y-54577775D01*
X115811309Y-54647051D01*
X115811306Y-54647053D01*
X115803729Y-54651923D01*
X115797828Y-54658733D01*
X115713918Y-54755569D01*
X115713916Y-54755572D01*
X115708016Y-54762381D01*
X115704272Y-54770579D01*
X115682532Y-54818184D01*
X115647300Y-54895330D01*
X115646018Y-54904245D01*
X115646018Y-54904246D01*
X115627139Y-55035552D01*
X115627138Y-55035559D01*
X115626500Y-55040000D01*
X114921355Y-55040000D01*
X114918273Y-54996921D01*
X114890559Y-54902534D01*
X114879635Y-54865330D01*
X114879634Y-54865328D01*
X114877096Y-54856684D01*
X114827466Y-54779459D01*
X114802949Y-54741309D01*
X114802947Y-54741306D01*
X114798077Y-54733729D01*
X114779857Y-54717941D01*
X114694431Y-54643918D01*
X114694428Y-54643916D01*
X114687619Y-54638016D01*
X114679421Y-54634272D01*
X114562864Y-54581042D01*
X114562863Y-54581042D01*
X114554670Y-54577300D01*
X114545755Y-54576018D01*
X114545754Y-54576018D01*
X114414448Y-54557139D01*
X114414441Y-54557138D01*
X114410000Y-54556500D01*
X111900000Y-54556500D01*
X111826921Y-54561727D01*
X111762025Y-54580782D01*
X111695330Y-54600365D01*
X111695328Y-54600366D01*
X111686684Y-54602904D01*
X111679105Y-54607775D01*
X111571309Y-54677051D01*
X111571306Y-54677053D01*
X111563729Y-54681923D01*
X111557828Y-54688733D01*
X111473918Y-54785569D01*
X111473916Y-54785572D01*
X111468016Y-54792381D01*
X111464272Y-54800578D01*
X111464270Y-54800582D01*
X111435836Y-54862843D01*
X111389343Y-54916498D01*
X111321223Y-54936500D01*
X108726202Y-54936500D01*
X108658081Y-54916498D01*
X108632570Y-54894814D01*
X108611251Y-54871137D01*
X108605909Y-54867256D01*
X108605907Y-54867254D01*
X108462092Y-54762767D01*
X108462091Y-54762766D01*
X108456750Y-54758886D01*
X108450722Y-54756202D01*
X108450720Y-54756201D01*
X108288318Y-54683895D01*
X108288317Y-54683895D01*
X108282287Y-54681210D01*
X108188887Y-54661357D01*
X108101944Y-54642876D01*
X108101939Y-54642876D01*
X108095487Y-54641504D01*
X107904513Y-54641504D01*
X107898061Y-54642876D01*
X107898056Y-54642876D01*
X107811113Y-54661357D01*
X107717713Y-54681210D01*
X107711683Y-54683895D01*
X107711682Y-54683895D01*
X107652088Y-54710428D01*
X107592430Y-54736990D01*
X107585249Y-54740187D01*
X107514882Y-54749621D01*
X107450585Y-54719515D01*
X107412771Y-54659426D01*
X107408000Y-54625080D01*
X107408000Y-52530000D01*
X108076500Y-52530000D01*
X108076500Y-53530000D01*
X108081727Y-53603079D01*
X108093939Y-53644670D01*
X108113689Y-53711931D01*
X108122904Y-53743316D01*
X108143911Y-53776003D01*
X108197051Y-53858691D01*
X108197053Y-53858694D01*
X108201923Y-53866271D01*
X108208733Y-53872172D01*
X108305569Y-53956082D01*
X108305572Y-53956084D01*
X108312381Y-53961984D01*
X108320579Y-53965728D01*
X108423786Y-54012861D01*
X108445330Y-54022700D01*
X108454245Y-54023982D01*
X108454246Y-54023982D01*
X108585552Y-54042861D01*
X108585559Y-54042862D01*
X108590000Y-54043500D01*
X111100000Y-54043500D01*
X111173079Y-54038273D01*
X111273609Y-54008755D01*
X111304670Y-53999635D01*
X111304672Y-53999634D01*
X111313316Y-53997096D01*
X111377135Y-53956082D01*
X111428691Y-53922949D01*
X111428694Y-53922947D01*
X111436271Y-53918077D01*
X111458045Y-53892949D01*
X111526082Y-53814431D01*
X111526084Y-53814428D01*
X111531984Y-53807619D01*
X111538296Y-53793799D01*
X111551179Y-53765588D01*
X111597671Y-53711932D01*
X111665792Y-53691929D01*
X111733913Y-53711931D01*
X111739854Y-53715993D01*
X111837908Y-53787233D01*
X111843250Y-53791114D01*
X111849278Y-53793798D01*
X111849280Y-53793799D01*
X111994098Y-53858276D01*
X112017713Y-53868790D01*
X112092535Y-53884694D01*
X112198056Y-53907124D01*
X112198061Y-53907124D01*
X112204513Y-53908496D01*
X112395487Y-53908496D01*
X112401939Y-53907124D01*
X112401944Y-53907124D01*
X112507465Y-53884694D01*
X112582287Y-53868790D01*
X112605902Y-53858276D01*
X112750720Y-53793799D01*
X112750722Y-53793798D01*
X112756750Y-53791114D01*
X112762092Y-53787233D01*
X112905907Y-53682746D01*
X112905909Y-53682744D01*
X112911251Y-53678863D01*
X112939512Y-53647476D01*
X113034618Y-53541850D01*
X113034619Y-53541849D01*
X113039037Y-53536942D01*
X113134524Y-53371554D01*
X113193538Y-53189927D01*
X113213500Y-53000000D01*
X113193538Y-52810073D01*
X113134524Y-52628446D01*
X113039037Y-52463058D01*
X112911251Y-52321137D01*
X112905909Y-52317256D01*
X112905907Y-52317254D01*
X112762092Y-52212767D01*
X112762091Y-52212766D01*
X112756750Y-52208886D01*
X112750722Y-52206202D01*
X112750720Y-52206201D01*
X112588318Y-52133895D01*
X112588317Y-52133895D01*
X112582287Y-52131210D01*
X112488887Y-52111357D01*
X112401944Y-52092876D01*
X112401939Y-52092876D01*
X112395487Y-52091504D01*
X112204513Y-52091504D01*
X112198061Y-52092876D01*
X112198056Y-52092876D01*
X112111113Y-52111357D01*
X112017713Y-52131210D01*
X112011683Y-52133895D01*
X112011682Y-52133895D01*
X111849280Y-52206201D01*
X111849278Y-52206202D01*
X111843250Y-52208886D01*
X111715699Y-52301557D01*
X111648833Y-52325414D01*
X111579682Y-52309334D01*
X111535642Y-52267741D01*
X111492949Y-52201309D01*
X111492947Y-52201306D01*
X111488077Y-52193729D01*
X111462203Y-52171309D01*
X111384431Y-52103918D01*
X111384428Y-52103916D01*
X111377619Y-52098016D01*
X111324852Y-52073918D01*
X111252864Y-52041042D01*
X111252863Y-52041042D01*
X111244670Y-52037300D01*
X111235755Y-52036018D01*
X111235754Y-52036018D01*
X111104448Y-52017139D01*
X111104441Y-52017138D01*
X111100000Y-52016500D01*
X108590000Y-52016500D01*
X108516921Y-52021727D01*
X108451140Y-52041042D01*
X108385330Y-52060365D01*
X108385328Y-52060366D01*
X108376684Y-52062904D01*
X108369105Y-52067775D01*
X108261309Y-52137051D01*
X108261306Y-52137053D01*
X108253729Y-52141923D01*
X108247828Y-52148733D01*
X108163918Y-52245569D01*
X108163916Y-52245572D01*
X108158016Y-52252381D01*
X108154272Y-52260579D01*
X108145812Y-52279105D01*
X108097300Y-52385330D01*
X108096018Y-52394245D01*
X108096018Y-52394246D01*
X108077139Y-52525552D01*
X108077138Y-52525559D01*
X108076500Y-52530000D01*
X107408000Y-52530000D01*
X107408000Y-51834000D01*
X107428002Y-51765879D01*
X107481658Y-51719386D01*
X107534000Y-51708000D01*
X122915780Y-51708000D01*
X122983901Y-51728002D01*
G37*
%TD.AperFunction*%
%TD*%
M02*
