%TF.GenerationSoftware,KiCad,Pcbnew,(6.0.0-rc2-14-ga17a58203b)*%
%TF.CreationDate,2022-06-07T21:36:17+08:00*%
%TF.ProjectId,DaughterDevBoard,44617567-6874-4657-9244-6576426f6172,rev?*%
%TF.SameCoordinates,Original*%
%TF.FileFunction,Legend,Top*%
%TF.FilePolarity,Positive*%
%FSLAX46Y46*%
G04 Gerber Fmt 4.6, Leading zero omitted, Abs format (unit mm)*
G04 Created by KiCad (PCBNEW (6.0.0-rc2-14-ga17a58203b)) date 2022-06-07 21:36:17*
%MOMM*%
%LPD*%
G01*
G04 APERTURE LIST*
%ADD10C,0.150000*%
%ADD11C,0.300000*%
%ADD12C,0.120000*%
G04 APERTURE END LIST*
D10*
X28466572Y-139156000D02*
X28466572Y-154396000D01*
X60086000Y-34390000D02*
X60086000Y-70204000D01*
X28406572Y-110866000D02*
X28406572Y-126106000D01*
X106613000Y-34363000D02*
X106613000Y-70050000D01*
X69432000Y-34412000D02*
X69432000Y-49652000D01*
X116009143Y-34412000D02*
X116009143Y-49652000D01*
X115715714Y-53914380D02*
X115382380Y-53438190D01*
X115144285Y-53914380D02*
X115144285Y-52914380D01*
X115525238Y-52914380D01*
X115620476Y-52962000D01*
X115668095Y-53009619D01*
X115715714Y-53104857D01*
X115715714Y-53247714D01*
X115668095Y-53342952D01*
X115620476Y-53390571D01*
X115525238Y-53438190D01*
X115144285Y-53438190D01*
X116049047Y-52914380D02*
X116287142Y-53914380D01*
X116477619Y-53200095D01*
X116668095Y-53914380D01*
X116906190Y-52914380D01*
X115175904Y-51374380D02*
X115175904Y-50374380D01*
X115414000Y-50374380D01*
X115556857Y-50422000D01*
X115652095Y-50517238D01*
X115699714Y-50612476D01*
X115747333Y-50802952D01*
X115747333Y-50945809D01*
X115699714Y-51136285D01*
X115652095Y-51231523D01*
X115556857Y-51326761D01*
X115414000Y-51374380D01*
X115175904Y-51374380D01*
X116080666Y-50374380D02*
X116747333Y-50374380D01*
X116318761Y-51374380D01*
X85838857Y-182530283D02*
X85791238Y-182482664D01*
X85743619Y-182339807D01*
X85743619Y-182244569D01*
X85791238Y-182101712D01*
X85886476Y-182006474D01*
X85981714Y-181958855D01*
X86172190Y-181911236D01*
X86315047Y-181911236D01*
X86505523Y-181958855D01*
X86600761Y-182006474D01*
X86696000Y-182101712D01*
X86743619Y-182244569D01*
X86743619Y-182339807D01*
X86696000Y-182482664D01*
X86648380Y-182530283D01*
X85743619Y-183435045D02*
X85743619Y-182958855D01*
X86743619Y-182958855D01*
X85743619Y-183768379D02*
X86743619Y-183768379D01*
X85743619Y-184339807D02*
X86315047Y-183911236D01*
X86743619Y-184339807D02*
X86172190Y-183768379D01*
X115672723Y-70694380D02*
X115196533Y-70694380D01*
X115148914Y-71170571D01*
X115196533Y-71122952D01*
X115291771Y-71075333D01*
X115529866Y-71075333D01*
X115625104Y-71122952D01*
X115672723Y-71170571D01*
X115720342Y-71265809D01*
X115720342Y-71503904D01*
X115672723Y-71599142D01*
X115625104Y-71646761D01*
X115529866Y-71694380D01*
X115291771Y-71694380D01*
X115196533Y-71646761D01*
X115148914Y-71599142D01*
X116006057Y-70694380D02*
X116339390Y-71694380D01*
X116672723Y-70694380D01*
X129595238Y-181852380D02*
X128309523Y-180995238D01*
X129452380Y-182138095D02*
X129500000Y-182185714D01*
X129547619Y-182280952D01*
X129547619Y-182519047D01*
X129500000Y-182614285D01*
X129452380Y-182661904D01*
X129357142Y-182709523D01*
X129261904Y-182709523D01*
X129119047Y-182661904D01*
X128547619Y-182090476D01*
X128547619Y-182709523D01*
X58768523Y-71640666D02*
X59244714Y-71640666D01*
X58673285Y-71926380D02*
X59006619Y-70926380D01*
X59339952Y-71926380D01*
X60197095Y-71926380D02*
X59625666Y-71926380D01*
X59911380Y-71926380D02*
X59911380Y-70926380D01*
X59816142Y-71069238D01*
X59720904Y-71164476D01*
X59625666Y-71212095D01*
X61101857Y-70926380D02*
X60625666Y-70926380D01*
X60578047Y-71402571D01*
X60625666Y-71354952D01*
X60720904Y-71307333D01*
X60959000Y-71307333D01*
X61054238Y-71354952D01*
X61101857Y-71402571D01*
X61149476Y-71497809D01*
X61149476Y-71735904D01*
X61101857Y-71831142D01*
X61054238Y-71878761D01*
X60959000Y-71926380D01*
X60720904Y-71926380D01*
X60625666Y-71878761D01*
X60578047Y-71831142D01*
X69090952Y-63122000D02*
X68995714Y-63074380D01*
X68852857Y-63074380D01*
X68709999Y-63122000D01*
X68614761Y-63217238D01*
X68567142Y-63312476D01*
X68519523Y-63502952D01*
X68519523Y-63645809D01*
X68567142Y-63836285D01*
X68614761Y-63931523D01*
X68709999Y-64026761D01*
X68852857Y-64074380D01*
X68948095Y-64074380D01*
X69090952Y-64026761D01*
X69138571Y-63979142D01*
X69138571Y-63645809D01*
X68948095Y-63645809D01*
X69567142Y-64074380D02*
X69567142Y-63074380D01*
X70138571Y-64074380D01*
X70138571Y-63074380D01*
X70614761Y-64074380D02*
X70614761Y-63074380D01*
X70852857Y-63074380D01*
X70995714Y-63122000D01*
X71090952Y-63217238D01*
X71138571Y-63312476D01*
X71186190Y-63502952D01*
X71186190Y-63645809D01*
X71138571Y-63836285D01*
X71090952Y-63931523D01*
X70995714Y-64026761D01*
X70852857Y-64074380D01*
X70614761Y-64074380D01*
X124595238Y-181852380D02*
X123309523Y-180995238D01*
X124119047Y-182328571D02*
X124166666Y-182233333D01*
X124214285Y-182185714D01*
X124309523Y-182138095D01*
X124357142Y-182138095D01*
X124452380Y-182185714D01*
X124500000Y-182233333D01*
X124547619Y-182328571D01*
X124547619Y-182519047D01*
X124500000Y-182614285D01*
X124452380Y-182661904D01*
X124357142Y-182709523D01*
X124309523Y-182709523D01*
X124214285Y-182661904D01*
X124166666Y-182614285D01*
X124119047Y-182519047D01*
X124119047Y-182328571D01*
X124071428Y-182233333D01*
X124023809Y-182185714D01*
X123928571Y-182138095D01*
X123738095Y-182138095D01*
X123642857Y-182185714D01*
X123595238Y-182233333D01*
X123547619Y-182328571D01*
X123547619Y-182519047D01*
X123595238Y-182614285D01*
X123642857Y-182661904D01*
X123738095Y-182709523D01*
X123928571Y-182709523D01*
X124023809Y-182661904D01*
X124071428Y-182614285D01*
X124119047Y-182519047D01*
X28390761Y-130273142D02*
X28343142Y-130320761D01*
X28200285Y-130368380D01*
X28105047Y-130368380D01*
X27962190Y-130320761D01*
X27866952Y-130225523D01*
X27819333Y-130130285D01*
X27771714Y-129939809D01*
X27771714Y-129796952D01*
X27819333Y-129606476D01*
X27866952Y-129511238D01*
X27962190Y-129416000D01*
X28105047Y-129368380D01*
X28200285Y-129368380D01*
X28343142Y-129416000D01*
X28390761Y-129463619D01*
X28771714Y-130082666D02*
X29247904Y-130082666D01*
X28676476Y-130368380D02*
X29009809Y-129368380D01*
X29343142Y-130368380D01*
X30200285Y-130368380D02*
X29628857Y-130368380D01*
X29914571Y-130368380D02*
X29914571Y-129368380D01*
X29819333Y-129511238D01*
X29724095Y-129606476D01*
X29628857Y-129654095D01*
X127095238Y-181852380D02*
X125809523Y-180995238D01*
X126714285Y-182614285D02*
X126047619Y-182614285D01*
X127095238Y-182376190D02*
X126380952Y-182138095D01*
X126380952Y-182757142D01*
X79883047Y-162885428D02*
X80644952Y-162885428D01*
X80264000Y-163266380D02*
X80264000Y-162504476D01*
X115715714Y-61439142D02*
X115668095Y-61486761D01*
X115525238Y-61534380D01*
X115430000Y-61534380D01*
X115287143Y-61486761D01*
X115191905Y-61391523D01*
X115144286Y-61296285D01*
X115096667Y-61105809D01*
X115096667Y-60962952D01*
X115144286Y-60772476D01*
X115191905Y-60677238D01*
X115287143Y-60582000D01*
X115430000Y-60534380D01*
X115525238Y-60534380D01*
X115668095Y-60582000D01*
X115715714Y-60629619D01*
X116620476Y-61534380D02*
X116144286Y-61534380D01*
X116144286Y-60534380D01*
X116953810Y-61534380D02*
X116953810Y-60534380D01*
X117525238Y-61534380D02*
X117096667Y-60962952D01*
X117525238Y-60534380D02*
X116953810Y-61105809D01*
X69138571Y-66614380D02*
X68805238Y-66138190D01*
X68567143Y-66614380D02*
X68567143Y-65614380D01*
X68948095Y-65614380D01*
X69043333Y-65662000D01*
X69090952Y-65709619D01*
X69138571Y-65804857D01*
X69138571Y-65947714D01*
X69090952Y-66042952D01*
X69043333Y-66090571D01*
X68948095Y-66138190D01*
X68567143Y-66138190D01*
X69519524Y-66566761D02*
X69662381Y-66614380D01*
X69900476Y-66614380D01*
X69995714Y-66566761D01*
X70043333Y-66519142D01*
X70090952Y-66423904D01*
X70090952Y-66328666D01*
X70043333Y-66233428D01*
X69995714Y-66185809D01*
X69900476Y-66138190D01*
X69710000Y-66090571D01*
X69614762Y-66042952D01*
X69567143Y-65995333D01*
X69519524Y-65900095D01*
X69519524Y-65804857D01*
X69567143Y-65709619D01*
X69614762Y-65662000D01*
X69710000Y-65614380D01*
X69948095Y-65614380D01*
X70090952Y-65662000D01*
X70376667Y-65614380D02*
X70948095Y-65614380D01*
X70662381Y-66614380D02*
X70662381Y-65614380D01*
X27747905Y-110048380D02*
X27747905Y-109048380D01*
X28128857Y-109048380D01*
X28224095Y-109096000D01*
X28271714Y-109143619D01*
X28319333Y-109238857D01*
X28319333Y-109381714D01*
X28271714Y-109476952D01*
X28224095Y-109524571D01*
X28128857Y-109572190D01*
X27747905Y-109572190D01*
X28700286Y-109762666D02*
X29176476Y-109762666D01*
X28605048Y-110048380D02*
X28938381Y-109048380D01*
X29271714Y-110048380D01*
X29795524Y-109048380D02*
X29890762Y-109048380D01*
X29986000Y-109096000D01*
X30033619Y-109143619D01*
X30081238Y-109238857D01*
X30128857Y-109429333D01*
X30128857Y-109667428D01*
X30081238Y-109857904D01*
X30033619Y-109953142D01*
X29986000Y-110000761D01*
X29890762Y-110048380D01*
X29795524Y-110048380D01*
X29700286Y-110000761D01*
X29652667Y-109953142D01*
X29605048Y-109857904D01*
X29557429Y-109667428D01*
X29557429Y-109429333D01*
X29605048Y-109238857D01*
X29652667Y-109143619D01*
X29700286Y-109096000D01*
X29795524Y-109048380D01*
X69138571Y-61439142D02*
X69090952Y-61486761D01*
X68948095Y-61534380D01*
X68852857Y-61534380D01*
X68710000Y-61486761D01*
X68614762Y-61391523D01*
X68567143Y-61296285D01*
X68519524Y-61105809D01*
X68519524Y-60962952D01*
X68567143Y-60772476D01*
X68614762Y-60677238D01*
X68710000Y-60582000D01*
X68852857Y-60534380D01*
X68948095Y-60534380D01*
X69090952Y-60582000D01*
X69138571Y-60629619D01*
X70043333Y-61534380D02*
X69567143Y-61534380D01*
X69567143Y-60534380D01*
X70376667Y-61534380D02*
X70376667Y-60534380D01*
X70948095Y-61534380D02*
X70519524Y-60962952D01*
X70948095Y-60534380D02*
X70376667Y-61105809D01*
X69138571Y-53914380D02*
X68805237Y-53438190D01*
X68567142Y-53914380D02*
X68567142Y-52914380D01*
X68948095Y-52914380D01*
X69043333Y-52962000D01*
X69090952Y-53009619D01*
X69138571Y-53104857D01*
X69138571Y-53247714D01*
X69090952Y-53342952D01*
X69043333Y-53390571D01*
X68948095Y-53438190D01*
X68567142Y-53438190D01*
X69471904Y-52914380D02*
X69709999Y-53914380D01*
X69900476Y-53200095D01*
X70090952Y-53914380D01*
X70329047Y-52914380D01*
X29264571Y-101428380D02*
X28788381Y-101428380D01*
X28740762Y-101904571D01*
X28788381Y-101856952D01*
X28883619Y-101809333D01*
X29121714Y-101809333D01*
X29216952Y-101856952D01*
X29264571Y-101904571D01*
X29312190Y-101999809D01*
X29312190Y-102237904D01*
X29264571Y-102333142D01*
X29216952Y-102380761D01*
X29121714Y-102428380D01*
X28883619Y-102428380D01*
X28788381Y-102380761D01*
X28740762Y-102333142D01*
X29597905Y-101428380D02*
X29931238Y-102428380D01*
X30264571Y-101428380D01*
X148209047Y-60777428D02*
X148970952Y-60777428D01*
X148590000Y-61158380D02*
X148590000Y-60396476D01*
X27747905Y-127828380D02*
X27747905Y-126828380D01*
X28128857Y-126828380D01*
X28224095Y-126876000D01*
X28271714Y-126923619D01*
X28319333Y-127018857D01*
X28319333Y-127161714D01*
X28271714Y-127256952D01*
X28224095Y-127304571D01*
X28128857Y-127352190D01*
X27747905Y-127352190D01*
X28700286Y-127542666D02*
X29176476Y-127542666D01*
X28605048Y-127828380D02*
X28938381Y-126828380D01*
X29271714Y-127828380D01*
X29509810Y-126828380D02*
X30176476Y-126828380D01*
X29747905Y-127828380D01*
X68567143Y-58994380D02*
X68567143Y-57994380D01*
X69614762Y-58994380D02*
X69281428Y-58518190D01*
X69043333Y-58994380D02*
X69043333Y-57994380D01*
X69424285Y-57994380D01*
X69519523Y-58042000D01*
X69567143Y-58089619D01*
X69614762Y-58184857D01*
X69614762Y-58327714D01*
X69567143Y-58422952D01*
X69519523Y-58470571D01*
X69424285Y-58518190D01*
X69043333Y-58518190D01*
X70710000Y-59089619D02*
X70614762Y-59042000D01*
X70519523Y-58946761D01*
X70376666Y-58803904D01*
X70281428Y-58756285D01*
X70186190Y-58756285D01*
X70233809Y-58994380D02*
X70138571Y-58946761D01*
X70043333Y-58851523D01*
X69995714Y-58661047D01*
X69995714Y-58327714D01*
X70043333Y-58137238D01*
X70138571Y-58042000D01*
X70233809Y-57994380D01*
X70424285Y-57994380D01*
X70519523Y-58042000D01*
X70614762Y-58137238D01*
X70662381Y-58327714D01*
X70662381Y-58661047D01*
X70614762Y-58851523D01*
X70519523Y-58946761D01*
X70424285Y-58994380D01*
X70233809Y-58994380D01*
X71281428Y-57994380D02*
X71376666Y-57994380D01*
X71471904Y-58042000D01*
X71519523Y-58089619D01*
X71567143Y-58184857D01*
X71614762Y-58375333D01*
X71614762Y-58613428D01*
X71567143Y-58803904D01*
X71519523Y-58899142D01*
X71471904Y-58946761D01*
X71376666Y-58994380D01*
X71281428Y-58994380D01*
X71186190Y-58946761D01*
X71138571Y-58899142D01*
X71090952Y-58803904D01*
X71043333Y-58613428D01*
X71043333Y-58375333D01*
X71090952Y-58184857D01*
X71138571Y-58089619D01*
X71186190Y-58042000D01*
X71281428Y-57994380D01*
X72376666Y-58470571D02*
X72519523Y-58518190D01*
X72567143Y-58565809D01*
X72614762Y-58661047D01*
X72614762Y-58803904D01*
X72567143Y-58899142D01*
X72519523Y-58946761D01*
X72424285Y-58994380D01*
X72043333Y-58994380D01*
X72043333Y-57994380D01*
X72376666Y-57994380D01*
X72471904Y-58042000D01*
X72519523Y-58089619D01*
X72567143Y-58184857D01*
X72567143Y-58280095D01*
X72519523Y-58375333D01*
X72471904Y-58422952D01*
X72376666Y-58470571D01*
X72043333Y-58470571D01*
X28074095Y-104016000D02*
X27978857Y-103968380D01*
X27836000Y-103968380D01*
X27693142Y-104016000D01*
X27597904Y-104111238D01*
X27550285Y-104206476D01*
X27502666Y-104396952D01*
X27502666Y-104539809D01*
X27550285Y-104730285D01*
X27597904Y-104825523D01*
X27693142Y-104920761D01*
X27836000Y-104968380D01*
X27931238Y-104968380D01*
X28074095Y-104920761D01*
X28121714Y-104873142D01*
X28121714Y-104539809D01*
X27931238Y-104539809D01*
X28550285Y-104968380D02*
X28550285Y-103968380D01*
X29121714Y-104968380D01*
X29121714Y-103968380D01*
X29597904Y-104968380D02*
X29597904Y-103968380D01*
X29836000Y-103968380D01*
X29978857Y-104016000D01*
X30074095Y-104111238D01*
X30121714Y-104206476D01*
X30169333Y-104396952D01*
X30169333Y-104539809D01*
X30121714Y-104730285D01*
X30074095Y-104825523D01*
X29978857Y-104920761D01*
X29836000Y-104968380D01*
X29597904Y-104968380D01*
X68567142Y-56454380D02*
X68567142Y-55454380D01*
X68948095Y-55454380D01*
X69043333Y-55502000D01*
X69090952Y-55549619D01*
X69138571Y-55644857D01*
X69138571Y-55787714D01*
X69090952Y-55882952D01*
X69043333Y-55930571D01*
X68948095Y-55978190D01*
X68567142Y-55978190D01*
X69757619Y-55454380D02*
X69948095Y-55454380D01*
X70043333Y-55502000D01*
X70138571Y-55597238D01*
X70186190Y-55787714D01*
X70186190Y-56121047D01*
X70138571Y-56311523D01*
X70043333Y-56406761D01*
X69948095Y-56454380D01*
X69757619Y-56454380D01*
X69662380Y-56406761D01*
X69567142Y-56311523D01*
X69519523Y-56121047D01*
X69519523Y-55787714D01*
X69567142Y-55597238D01*
X69662380Y-55502000D01*
X69757619Y-55454380D01*
X71186190Y-56454380D02*
X70852857Y-55978190D01*
X70614761Y-56454380D02*
X70614761Y-55454380D01*
X70995714Y-55454380D01*
X71090952Y-55502000D01*
X71138571Y-55549619D01*
X71186190Y-55644857D01*
X71186190Y-55787714D01*
X71138571Y-55882952D01*
X71090952Y-55930571D01*
X70995714Y-55978190D01*
X70614761Y-55978190D01*
X71471904Y-55454380D02*
X72043333Y-55454380D01*
X71757619Y-56454380D02*
X71757619Y-55454380D01*
X72900476Y-56454380D02*
X72329047Y-56454380D01*
X72614761Y-56454380D02*
X72614761Y-55454380D01*
X72519523Y-55597238D01*
X72424285Y-55692476D01*
X72329047Y-55740095D01*
X73662380Y-55930571D02*
X73805238Y-55978190D01*
X73852857Y-56025809D01*
X73900476Y-56121047D01*
X73900476Y-56263904D01*
X73852857Y-56359142D01*
X73805238Y-56406761D01*
X73710000Y-56454380D01*
X73329047Y-56454380D01*
X73329047Y-55454380D01*
X73662380Y-55454380D01*
X73757619Y-55502000D01*
X73805238Y-55549619D01*
X73852857Y-55644857D01*
X73852857Y-55740095D01*
X73805238Y-55835333D01*
X73757619Y-55882952D01*
X73662380Y-55930571D01*
X73329047Y-55930571D01*
X115144285Y-56454380D02*
X115144285Y-55454380D01*
X115525238Y-55454380D01*
X115620476Y-55502000D01*
X115668095Y-55549619D01*
X115715714Y-55644857D01*
X115715714Y-55787714D01*
X115668095Y-55882952D01*
X115620476Y-55930571D01*
X115525238Y-55978190D01*
X115144285Y-55978190D01*
X116334762Y-55454380D02*
X116525238Y-55454380D01*
X116620476Y-55502000D01*
X116715714Y-55597238D01*
X116763333Y-55787714D01*
X116763333Y-56121047D01*
X116715714Y-56311523D01*
X116620476Y-56406761D01*
X116525238Y-56454380D01*
X116334762Y-56454380D01*
X116239523Y-56406761D01*
X116144285Y-56311523D01*
X116096666Y-56121047D01*
X116096666Y-55787714D01*
X116144285Y-55597238D01*
X116239523Y-55502000D01*
X116334762Y-55454380D01*
X117763333Y-56454380D02*
X117430000Y-55978190D01*
X117191904Y-56454380D02*
X117191904Y-55454380D01*
X117572857Y-55454380D01*
X117668095Y-55502000D01*
X117715714Y-55549619D01*
X117763333Y-55644857D01*
X117763333Y-55787714D01*
X117715714Y-55882952D01*
X117668095Y-55930571D01*
X117572857Y-55978190D01*
X117191904Y-55978190D01*
X118049047Y-55454380D02*
X118620476Y-55454380D01*
X118334762Y-56454380D02*
X118334762Y-55454380D01*
X118906190Y-55549619D02*
X118953809Y-55502000D01*
X119049047Y-55454380D01*
X119287143Y-55454380D01*
X119382381Y-55502000D01*
X119430000Y-55549619D01*
X119477619Y-55644857D01*
X119477619Y-55740095D01*
X119430000Y-55882952D01*
X118858571Y-56454380D01*
X119477619Y-56454380D01*
X120239523Y-55930571D02*
X120382381Y-55978190D01*
X120430000Y-56025809D01*
X120477619Y-56121047D01*
X120477619Y-56263904D01*
X120430000Y-56359142D01*
X120382381Y-56406761D01*
X120287143Y-56454380D01*
X119906190Y-56454380D01*
X119906190Y-55454380D01*
X120239523Y-55454380D01*
X120334762Y-55502000D01*
X120382381Y-55549619D01*
X120430000Y-55644857D01*
X120430000Y-55740095D01*
X120382381Y-55835333D01*
X120334762Y-55882952D01*
X120239523Y-55930571D01*
X119906190Y-55930571D01*
X105295523Y-71486666D02*
X105771714Y-71486666D01*
X105200285Y-71772380D02*
X105533619Y-70772380D01*
X105866952Y-71772380D01*
X106724095Y-71772380D02*
X106152666Y-71772380D01*
X106438380Y-71772380D02*
X106438380Y-70772380D01*
X106343142Y-70915238D01*
X106247904Y-71010476D01*
X106152666Y-71058095D01*
X107628857Y-70772380D02*
X107152666Y-70772380D01*
X107105047Y-71248571D01*
X107152666Y-71200952D01*
X107247904Y-71153333D01*
X107486000Y-71153333D01*
X107581238Y-71200952D01*
X107628857Y-71248571D01*
X107676476Y-71343809D01*
X107676476Y-71581904D01*
X107628857Y-71677142D01*
X107581238Y-71724761D01*
X107486000Y-71772380D01*
X107247904Y-71772380D01*
X107152666Y-71724761D01*
X107105047Y-71677142D01*
X119495238Y-181876190D02*
X118209523Y-181019047D01*
X119447619Y-182114285D02*
X119447619Y-182733333D01*
X119066666Y-182400000D01*
X119066666Y-182542857D01*
X119019047Y-182638095D01*
X118971428Y-182685714D01*
X118876190Y-182733333D01*
X118638095Y-182733333D01*
X118542857Y-182685714D01*
X118495238Y-182638095D01*
X118447619Y-182542857D01*
X118447619Y-182257142D01*
X118495238Y-182161904D01*
X118542857Y-182114285D01*
X119352380Y-183114285D02*
X119400000Y-183161904D01*
X119447619Y-183257142D01*
X119447619Y-183495238D01*
X119400000Y-183590476D01*
X119352380Y-183638095D01*
X119257142Y-183685714D01*
X119161904Y-183685714D01*
X119019047Y-183638095D01*
X118447619Y-183066666D01*
X118447619Y-183685714D01*
X69076495Y-68202000D02*
X68981257Y-68154380D01*
X68838400Y-68154380D01*
X68695542Y-68202000D01*
X68600304Y-68297238D01*
X68552685Y-68392476D01*
X68505066Y-68582952D01*
X68505066Y-68725809D01*
X68552685Y-68916285D01*
X68600304Y-69011523D01*
X68695542Y-69106761D01*
X68838400Y-69154380D01*
X68933638Y-69154380D01*
X69076495Y-69106761D01*
X69124114Y-69059142D01*
X69124114Y-68725809D01*
X68933638Y-68725809D01*
X69552685Y-69154380D02*
X69552685Y-68154380D01*
X70124114Y-69154380D01*
X70124114Y-68154380D01*
X70600304Y-69154380D02*
X70600304Y-68154380D01*
X70838400Y-68154380D01*
X70981257Y-68202000D01*
X71076495Y-68297238D01*
X71124114Y-68392476D01*
X71171733Y-68582952D01*
X71171733Y-68725809D01*
X71124114Y-68916285D01*
X71076495Y-69011523D01*
X70981257Y-69106761D01*
X70838400Y-69154380D01*
X70600304Y-69154380D01*
X159893047Y-49347428D02*
X160654952Y-49347428D01*
X160274000Y-49728380D02*
X160274000Y-48966476D01*
X115668095Y-63122000D02*
X115572857Y-63074380D01*
X115430000Y-63074380D01*
X115287142Y-63122000D01*
X115191904Y-63217238D01*
X115144285Y-63312476D01*
X115096666Y-63502952D01*
X115096666Y-63645809D01*
X115144285Y-63836285D01*
X115191904Y-63931523D01*
X115287142Y-64026761D01*
X115430000Y-64074380D01*
X115525238Y-64074380D01*
X115668095Y-64026761D01*
X115715714Y-63979142D01*
X115715714Y-63645809D01*
X115525238Y-63645809D01*
X116144285Y-64074380D02*
X116144285Y-63074380D01*
X116715714Y-64074380D01*
X116715714Y-63074380D01*
X117191904Y-64074380D02*
X117191904Y-63074380D01*
X117430000Y-63074380D01*
X117572857Y-63122000D01*
X117668095Y-63217238D01*
X117715714Y-63312476D01*
X117763333Y-63502952D01*
X117763333Y-63645809D01*
X117715714Y-63836285D01*
X117668095Y-63931523D01*
X117572857Y-64026761D01*
X117430000Y-64074380D01*
X117191904Y-64074380D01*
X28390761Y-132813142D02*
X28343142Y-132860761D01*
X28200285Y-132908380D01*
X28105047Y-132908380D01*
X27962190Y-132860761D01*
X27866952Y-132765523D01*
X27819333Y-132670285D01*
X27771714Y-132479809D01*
X27771714Y-132336952D01*
X27819333Y-132146476D01*
X27866952Y-132051238D01*
X27962190Y-131956000D01*
X28105047Y-131908380D01*
X28200285Y-131908380D01*
X28343142Y-131956000D01*
X28390761Y-132003619D01*
X28771714Y-132622666D02*
X29247904Y-132622666D01*
X28676476Y-132908380D02*
X29009809Y-131908380D01*
X29343142Y-132908380D01*
X29628857Y-132003619D02*
X29676476Y-131956000D01*
X29771714Y-131908380D01*
X30009809Y-131908380D01*
X30105047Y-131956000D01*
X30152666Y-132003619D01*
X30200285Y-132098857D01*
X30200285Y-132194095D01*
X30152666Y-132336952D01*
X29581238Y-132908380D01*
X30200285Y-132908380D01*
X27807904Y-156118380D02*
X27807904Y-155118380D01*
X28188857Y-155118380D01*
X28284095Y-155166000D01*
X28331714Y-155213619D01*
X28379333Y-155308857D01*
X28379333Y-155451714D01*
X28331714Y-155546952D01*
X28284095Y-155594571D01*
X28188857Y-155642190D01*
X27807904Y-155642190D01*
X29141238Y-155594571D02*
X29284095Y-155642190D01*
X29331714Y-155689809D01*
X29379333Y-155785047D01*
X29379333Y-155927904D01*
X29331714Y-156023142D01*
X29284095Y-156070761D01*
X29188857Y-156118380D01*
X28807904Y-156118380D01*
X28807904Y-155118380D01*
X29141238Y-155118380D01*
X29236476Y-155166000D01*
X29284095Y-155213619D01*
X29331714Y-155308857D01*
X29331714Y-155404095D01*
X29284095Y-155499333D01*
X29236476Y-155546952D01*
X29141238Y-155594571D01*
X28807904Y-155594571D01*
X29712666Y-155118380D02*
X30379333Y-155118380D01*
X29950761Y-156118380D01*
X68598761Y-51374380D02*
X68598761Y-50374380D01*
X68836857Y-50374380D01*
X68979714Y-50422000D01*
X69074952Y-50517238D01*
X69122571Y-50612476D01*
X69170190Y-50802952D01*
X69170190Y-50945809D01*
X69122571Y-51136285D01*
X69074952Y-51231523D01*
X68979714Y-51326761D01*
X68836857Y-51374380D01*
X68598761Y-51374380D01*
X69503523Y-50374380D02*
X70170190Y-50374380D01*
X69741618Y-51374380D01*
X69038323Y-70694380D02*
X68562133Y-70694380D01*
X68514514Y-71170571D01*
X68562133Y-71122952D01*
X68657371Y-71075333D01*
X68895466Y-71075333D01*
X68990704Y-71122952D01*
X69038323Y-71170571D01*
X69085942Y-71265809D01*
X69085942Y-71503904D01*
X69038323Y-71599142D01*
X68990704Y-71646761D01*
X68895466Y-71694380D01*
X68657371Y-71694380D01*
X68562133Y-71646761D01*
X68514514Y-71599142D01*
X69371657Y-70694380D02*
X69704990Y-71694380D01*
X70038323Y-70694380D01*
X121995238Y-181876190D02*
X120709523Y-181019047D01*
X120947619Y-182733333D02*
X120947619Y-182161904D01*
X120947619Y-182447619D02*
X121947619Y-182447619D01*
X121804761Y-182352380D01*
X121709523Y-182257142D01*
X121661904Y-182161904D01*
X121947619Y-183590476D02*
X121947619Y-183400000D01*
X121900000Y-183304761D01*
X121852380Y-183257142D01*
X121709523Y-183161904D01*
X121519047Y-183114285D01*
X121138095Y-183114285D01*
X121042857Y-183161904D01*
X120995238Y-183209523D01*
X120947619Y-183304761D01*
X120947619Y-183495238D01*
X120995238Y-183590476D01*
X121042857Y-183638095D01*
X121138095Y-183685714D01*
X121376190Y-183685714D01*
X121471428Y-183638095D01*
X121519047Y-183590476D01*
X121566666Y-183495238D01*
X121566666Y-183304761D01*
X121519047Y-183209523D01*
X121471428Y-183161904D01*
X121376190Y-183114285D01*
X28379333Y-158563142D02*
X28331714Y-158610761D01*
X28188857Y-158658380D01*
X28093619Y-158658380D01*
X27950761Y-158610761D01*
X27855523Y-158515523D01*
X27807904Y-158420285D01*
X27760285Y-158229809D01*
X27760285Y-158086952D01*
X27807904Y-157896476D01*
X27855523Y-157801238D01*
X27950761Y-157706000D01*
X28093619Y-157658380D01*
X28188857Y-157658380D01*
X28331714Y-157706000D01*
X28379333Y-157753619D01*
X29141238Y-158134571D02*
X29284095Y-158182190D01*
X29331714Y-158229809D01*
X29379333Y-158325047D01*
X29379333Y-158467904D01*
X29331714Y-158563142D01*
X29284095Y-158610761D01*
X29188857Y-158658380D01*
X28807904Y-158658380D01*
X28807904Y-157658380D01*
X29141238Y-157658380D01*
X29236476Y-157706000D01*
X29284095Y-157753619D01*
X29331714Y-157848857D01*
X29331714Y-157944095D01*
X29284095Y-158039333D01*
X29236476Y-158086952D01*
X29141238Y-158134571D01*
X28807904Y-158134571D01*
X30331714Y-158658380D02*
X29760285Y-158658380D01*
X30046000Y-158658380D02*
X30046000Y-157658380D01*
X29950761Y-157801238D01*
X29855523Y-157896476D01*
X29760285Y-157944095D01*
X157861047Y-76017428D02*
X158622952Y-76017428D01*
X158242000Y-76398380D02*
X158242000Y-75636476D01*
D11*
X154100495Y-120208476D02*
X159100495Y-120208476D01*
X155529066Y-121875142D01*
X159100495Y-123541809D01*
X154100495Y-123541809D01*
X154100495Y-125922761D02*
X157433828Y-125922761D01*
X159100495Y-125922761D02*
X158862400Y-125684666D01*
X158624304Y-125922761D01*
X158862400Y-126160857D01*
X159100495Y-125922761D01*
X158624304Y-125922761D01*
X157433828Y-128303714D02*
X154100495Y-128303714D01*
X156957638Y-128303714D02*
X157195733Y-128541809D01*
X157433828Y-129018000D01*
X157433828Y-129732285D01*
X157195733Y-130208476D01*
X156719542Y-130446571D01*
X154100495Y-130446571D01*
X154100495Y-132827523D02*
X157433828Y-132827523D01*
X159100495Y-132827523D02*
X158862400Y-132589428D01*
X158624304Y-132827523D01*
X158862400Y-133065619D01*
X159100495Y-132827523D01*
X158624304Y-132827523D01*
X154100495Y-135208476D02*
X157433828Y-135208476D01*
X159100495Y-135208476D02*
X158862400Y-134970380D01*
X158624304Y-135208476D01*
X158862400Y-135446571D01*
X159100495Y-135208476D01*
X158624304Y-135208476D01*
X154338590Y-137351333D02*
X154100495Y-137827523D01*
X154100495Y-138779904D01*
X154338590Y-139256095D01*
X154814780Y-139494190D01*
X155052876Y-139494190D01*
X155529066Y-139256095D01*
X155767161Y-138779904D01*
X155767161Y-138065619D01*
X156005257Y-137589428D01*
X156481447Y-137351333D01*
X156719542Y-137351333D01*
X157195733Y-137589428D01*
X157433828Y-138065619D01*
X157433828Y-138779904D01*
X157195733Y-139256095D01*
X154100495Y-141637047D02*
X159100495Y-141637047D01*
X154100495Y-143779904D02*
X156719542Y-143779904D01*
X157195733Y-143541809D01*
X157433828Y-143065619D01*
X157433828Y-142351333D01*
X157195733Y-141875142D01*
X156957638Y-141637047D01*
X157433828Y-149494190D02*
X154100495Y-150684666D01*
X157433828Y-151875142D01*
X154100495Y-156398952D02*
X154100495Y-153541809D01*
X154100495Y-154970380D02*
X159100495Y-154970380D01*
X158386209Y-154494190D01*
X157910019Y-154018000D01*
X157671923Y-153541809D01*
X154576685Y-158541809D02*
X154338590Y-158779904D01*
X154100495Y-158541809D01*
X154338590Y-158303714D01*
X154576685Y-158541809D01*
X154100495Y-158541809D01*
X158624304Y-160684666D02*
X158862400Y-160922761D01*
X159100495Y-161398952D01*
X159100495Y-162589428D01*
X158862400Y-163065619D01*
X158624304Y-163303714D01*
X158148114Y-163541809D01*
X157671923Y-163541809D01*
X156957638Y-163303714D01*
X154100495Y-160446571D01*
X154100495Y-163541809D01*
X154100495Y-167827523D02*
X159100495Y-167827523D01*
X154338590Y-167827523D02*
X154100495Y-167351333D01*
X154100495Y-166398952D01*
X154338590Y-165922761D01*
X154576685Y-165684666D01*
X155052876Y-165446571D01*
X156481447Y-165446571D01*
X156957638Y-165684666D01*
X157195733Y-165922761D01*
X157433828Y-166398952D01*
X157433828Y-167351333D01*
X157195733Y-167827523D01*
D10*
X105898714Y-33259666D02*
X106374904Y-33259666D01*
X105803476Y-33545380D02*
X106136809Y-32545380D01*
X106470142Y-33545380D01*
X106993952Y-32545380D02*
X107089190Y-32545380D01*
X107184428Y-32593000D01*
X107232047Y-32640619D01*
X107279666Y-32735857D01*
X107327285Y-32926333D01*
X107327285Y-33164428D01*
X107279666Y-33354904D01*
X107232047Y-33450142D01*
X107184428Y-33497761D01*
X107089190Y-33545380D01*
X106993952Y-33545380D01*
X106898714Y-33497761D01*
X106851095Y-33450142D01*
X106803476Y-33354904D01*
X106755857Y-33164428D01*
X106755857Y-32926333D01*
X106803476Y-32735857D01*
X106851095Y-32640619D01*
X106898714Y-32593000D01*
X106993952Y-32545380D01*
X115715714Y-66614380D02*
X115382381Y-66138190D01*
X115144286Y-66614380D02*
X115144286Y-65614380D01*
X115525238Y-65614380D01*
X115620476Y-65662000D01*
X115668095Y-65709619D01*
X115715714Y-65804857D01*
X115715714Y-65947714D01*
X115668095Y-66042952D01*
X115620476Y-66090571D01*
X115525238Y-66138190D01*
X115144286Y-66138190D01*
X116096667Y-66566761D02*
X116239524Y-66614380D01*
X116477619Y-66614380D01*
X116572857Y-66566761D01*
X116620476Y-66519142D01*
X116668095Y-66423904D01*
X116668095Y-66328666D01*
X116620476Y-66233428D01*
X116572857Y-66185809D01*
X116477619Y-66138190D01*
X116287143Y-66090571D01*
X116191905Y-66042952D01*
X116144286Y-65995333D01*
X116096667Y-65900095D01*
X116096667Y-65804857D01*
X116144286Y-65709619D01*
X116191905Y-65662000D01*
X116287143Y-65614380D01*
X116525238Y-65614380D01*
X116668095Y-65662000D01*
X116953810Y-65614380D02*
X117525238Y-65614380D01*
X117239524Y-66614380D02*
X117239524Y-65614380D01*
X68598761Y-33594380D02*
X68598761Y-32594380D01*
X68836857Y-32594380D01*
X68979714Y-32642000D01*
X69074952Y-32737238D01*
X69122571Y-32832476D01*
X69170190Y-33022952D01*
X69170190Y-33165809D01*
X69122571Y-33356285D01*
X69074952Y-33451523D01*
X68979714Y-33546761D01*
X68836857Y-33594380D01*
X68598761Y-33594380D01*
X69789237Y-32594380D02*
X69884476Y-32594380D01*
X69979714Y-32642000D01*
X70027333Y-32689619D01*
X70074952Y-32784857D01*
X70122571Y-32975333D01*
X70122571Y-33213428D01*
X70074952Y-33403904D01*
X70027333Y-33499142D01*
X69979714Y-33546761D01*
X69884476Y-33594380D01*
X69789237Y-33594380D01*
X69693999Y-33546761D01*
X69646380Y-33499142D01*
X69598761Y-33403904D01*
X69551142Y-33213428D01*
X69551142Y-32975333D01*
X69598761Y-32784857D01*
X69646380Y-32689619D01*
X69693999Y-32642000D01*
X69789237Y-32594380D01*
X115117295Y-69154380D02*
X115117295Y-68154380D01*
X115355390Y-68154380D01*
X115498247Y-68202000D01*
X115593485Y-68297238D01*
X115641104Y-68392476D01*
X115688723Y-68582952D01*
X115688723Y-68725809D01*
X115641104Y-68916285D01*
X115593485Y-69011523D01*
X115498247Y-69106761D01*
X115355390Y-69154380D01*
X115117295Y-69154380D01*
X116117295Y-69154380D02*
X116117295Y-68154380D01*
X116450628Y-68868666D01*
X116783961Y-68154380D01*
X116783961Y-69154380D01*
X117212533Y-68868666D02*
X117688723Y-68868666D01*
X117117295Y-69154380D02*
X117450628Y-68154380D01*
X117783961Y-69154380D01*
X118450628Y-68630571D02*
X118593485Y-68678190D01*
X118641104Y-68725809D01*
X118688723Y-68821047D01*
X118688723Y-68963904D01*
X118641104Y-69059142D01*
X118593485Y-69106761D01*
X118498247Y-69154380D01*
X118117295Y-69154380D01*
X118117295Y-68154380D01*
X118450628Y-68154380D01*
X118545866Y-68202000D01*
X118593485Y-68249619D01*
X118641104Y-68344857D01*
X118641104Y-68440095D01*
X118593485Y-68535333D01*
X118545866Y-68582952D01*
X118450628Y-68630571D01*
X118117295Y-68630571D01*
X81663619Y-182435045D02*
X81663619Y-181958855D01*
X81187428Y-181911236D01*
X81235047Y-181958855D01*
X81282666Y-182054093D01*
X81282666Y-182292188D01*
X81235047Y-182387426D01*
X81187428Y-182435045D01*
X81092190Y-182482664D01*
X80854095Y-182482664D01*
X80758857Y-182435045D01*
X80711238Y-182387426D01*
X80663619Y-182292188D01*
X80663619Y-182054093D01*
X80711238Y-181958855D01*
X80758857Y-181911236D01*
X81663619Y-182768379D02*
X80663619Y-183101712D01*
X81663619Y-183435045D01*
X88283619Y-182530283D02*
X88759809Y-182196950D01*
X88283619Y-181958855D02*
X89283619Y-181958855D01*
X89283619Y-182339807D01*
X89236000Y-182435045D01*
X89188380Y-182482664D01*
X89093142Y-182530283D01*
X88950285Y-182530283D01*
X88855047Y-182482664D01*
X88807428Y-182435045D01*
X88759809Y-182339807D01*
X88759809Y-181958855D01*
X88331238Y-182911236D02*
X88283619Y-183054093D01*
X88283619Y-183292188D01*
X88331238Y-183387426D01*
X88378857Y-183435045D01*
X88474095Y-183482664D01*
X88569333Y-183482664D01*
X88664571Y-183435045D01*
X88712190Y-183387426D01*
X88759809Y-183292188D01*
X88807428Y-183101712D01*
X88855047Y-183006474D01*
X88902666Y-182958855D01*
X88997904Y-182911236D01*
X89093142Y-182911236D01*
X89188380Y-182958855D01*
X89236000Y-183006474D01*
X89283619Y-183101712D01*
X89283619Y-183339807D01*
X89236000Y-183482664D01*
X89283619Y-183768379D02*
X89283619Y-184339807D01*
X88283619Y-184054093D02*
X89283619Y-184054093D01*
X28379333Y-161103142D02*
X28331714Y-161150761D01*
X28188857Y-161198380D01*
X28093619Y-161198380D01*
X27950761Y-161150761D01*
X27855523Y-161055523D01*
X27807904Y-160960285D01*
X27760285Y-160769809D01*
X27760285Y-160626952D01*
X27807904Y-160436476D01*
X27855523Y-160341238D01*
X27950761Y-160246000D01*
X28093619Y-160198380D01*
X28188857Y-160198380D01*
X28331714Y-160246000D01*
X28379333Y-160293619D01*
X29141238Y-160674571D02*
X29284095Y-160722190D01*
X29331714Y-160769809D01*
X29379333Y-160865047D01*
X29379333Y-161007904D01*
X29331714Y-161103142D01*
X29284095Y-161150761D01*
X29188857Y-161198380D01*
X28807904Y-161198380D01*
X28807904Y-160198380D01*
X29141238Y-160198380D01*
X29236476Y-160246000D01*
X29284095Y-160293619D01*
X29331714Y-160388857D01*
X29331714Y-160484095D01*
X29284095Y-160579333D01*
X29236476Y-160626952D01*
X29141238Y-160674571D01*
X28807904Y-160674571D01*
X29760285Y-160293619D02*
X29807904Y-160246000D01*
X29903142Y-160198380D01*
X30141238Y-160198380D01*
X30236476Y-160246000D01*
X30284095Y-160293619D01*
X30331714Y-160388857D01*
X30331714Y-160484095D01*
X30284095Y-160626952D01*
X29712666Y-161198380D01*
X30331714Y-161198380D01*
X27807904Y-138338380D02*
X27807904Y-137338380D01*
X28188857Y-137338380D01*
X28284095Y-137386000D01*
X28331714Y-137433619D01*
X28379333Y-137528857D01*
X28379333Y-137671714D01*
X28331714Y-137766952D01*
X28284095Y-137814571D01*
X28188857Y-137862190D01*
X27807904Y-137862190D01*
X29141238Y-137814571D02*
X29284095Y-137862190D01*
X29331714Y-137909809D01*
X29379333Y-138005047D01*
X29379333Y-138147904D01*
X29331714Y-138243142D01*
X29284095Y-138290761D01*
X29188857Y-138338380D01*
X28807904Y-138338380D01*
X28807904Y-137338380D01*
X29141238Y-137338380D01*
X29236476Y-137386000D01*
X29284095Y-137433619D01*
X29331714Y-137528857D01*
X29331714Y-137624095D01*
X29284095Y-137719333D01*
X29236476Y-137766952D01*
X29141238Y-137814571D01*
X28807904Y-137814571D01*
X29998380Y-137338380D02*
X30093619Y-137338380D01*
X30188857Y-137386000D01*
X30236476Y-137433619D01*
X30284095Y-137528857D01*
X30331714Y-137719333D01*
X30331714Y-137957428D01*
X30284095Y-138147904D01*
X30236476Y-138243142D01*
X30188857Y-138290761D01*
X30093619Y-138338380D01*
X29998380Y-138338380D01*
X29903142Y-138290761D01*
X29855523Y-138243142D01*
X29807904Y-138147904D01*
X29760285Y-137957428D01*
X29760285Y-137719333D01*
X29807904Y-137528857D01*
X29855523Y-137433619D01*
X29903142Y-137386000D01*
X29998380Y-137338380D01*
X115177757Y-58851665D02*
X115177757Y-57851665D01*
X115749186Y-58851665D01*
X115749186Y-57851665D01*
X116225376Y-58851665D02*
X116225376Y-57851665D01*
X116558710Y-58565951D01*
X116892043Y-57851665D01*
X116892043Y-58851665D01*
X117368234Y-58851665D02*
X117368234Y-57851665D01*
X118177757Y-58327856D02*
X118320615Y-58375475D01*
X118368234Y-58423094D01*
X118415853Y-58518332D01*
X118415853Y-58661189D01*
X118368234Y-58756427D01*
X118320615Y-58804046D01*
X118225376Y-58851665D01*
X117844424Y-58851665D01*
X117844424Y-57851665D01*
X118177757Y-57851665D01*
X118272996Y-57899285D01*
X118320615Y-57946904D01*
X118368234Y-58042142D01*
X118368234Y-58137380D01*
X118320615Y-58232618D01*
X118272996Y-58280237D01*
X118177757Y-58327856D01*
X117844424Y-58327856D01*
X115175904Y-33594380D02*
X115175904Y-32594380D01*
X115414000Y-32594380D01*
X115556857Y-32642000D01*
X115652095Y-32737238D01*
X115699714Y-32832476D01*
X115747333Y-33022952D01*
X115747333Y-33165809D01*
X115699714Y-33356285D01*
X115652095Y-33451523D01*
X115556857Y-33546761D01*
X115414000Y-33594380D01*
X115175904Y-33594380D01*
X116366380Y-32594380D02*
X116461619Y-32594380D01*
X116556857Y-32642000D01*
X116604476Y-32689619D01*
X116652095Y-32784857D01*
X116699714Y-32975333D01*
X116699714Y-33213428D01*
X116652095Y-33403904D01*
X116604476Y-33499142D01*
X116556857Y-33546761D01*
X116461619Y-33594380D01*
X116366380Y-33594380D01*
X116271142Y-33546761D01*
X116223523Y-33499142D01*
X116175904Y-33403904D01*
X116128285Y-33213428D01*
X116128285Y-32975333D01*
X116175904Y-32784857D01*
X116223523Y-32689619D01*
X116271142Y-32642000D01*
X116366380Y-32594380D01*
X84156000Y-182482664D02*
X84203619Y-182387426D01*
X84203619Y-182244569D01*
X84156000Y-182101711D01*
X84060761Y-182006473D01*
X83965523Y-181958854D01*
X83775047Y-181911235D01*
X83632190Y-181911235D01*
X83441714Y-181958854D01*
X83346476Y-182006473D01*
X83251238Y-182101711D01*
X83203619Y-182244569D01*
X83203619Y-182339807D01*
X83251238Y-182482664D01*
X83298857Y-182530283D01*
X83632190Y-182530283D01*
X83632190Y-182339807D01*
X83203619Y-182958854D02*
X84203619Y-182958854D01*
X83203619Y-183530283D01*
X84203619Y-183530283D01*
X83203619Y-184006473D02*
X84203619Y-184006473D01*
X84203619Y-184244569D01*
X84156000Y-184387426D01*
X84060761Y-184482664D01*
X83965523Y-184530283D01*
X83775047Y-184577902D01*
X83632190Y-184577902D01*
X83441714Y-184530283D01*
X83346476Y-184482664D01*
X83251238Y-184387426D01*
X83203619Y-184244569D01*
X83203619Y-184006473D01*
X59371714Y-33286666D02*
X59847904Y-33286666D01*
X59276476Y-33572380D02*
X59609809Y-32572380D01*
X59943142Y-33572380D01*
X60466952Y-32572380D02*
X60562190Y-32572380D01*
X60657428Y-32620000D01*
X60705047Y-32667619D01*
X60752666Y-32762857D01*
X60800285Y-32953333D01*
X60800285Y-33191428D01*
X60752666Y-33381904D01*
X60705047Y-33477142D01*
X60657428Y-33524761D01*
X60562190Y-33572380D01*
X60466952Y-33572380D01*
X60371714Y-33524761D01*
X60324095Y-33477142D01*
X60276476Y-33381904D01*
X60228857Y-33191428D01*
X60228857Y-32953333D01*
X60276476Y-32762857D01*
X60324095Y-32667619D01*
X60371714Y-32620000D01*
X60466952Y-32572380D01*
%TO.C,J7*%
X49823619Y-46307714D02*
X49109333Y-46307714D01*
X48966476Y-46260095D01*
X48871238Y-46164857D01*
X48823619Y-46022000D01*
X48823619Y-45926761D01*
X49823619Y-46974380D02*
X49823619Y-47164857D01*
X49776000Y-47260095D01*
X49680761Y-47355333D01*
X49490285Y-47402952D01*
X49156952Y-47402952D01*
X48966476Y-47355333D01*
X48871238Y-47260095D01*
X48823619Y-47164857D01*
X48823619Y-46974380D01*
X48871238Y-46879142D01*
X48966476Y-46783904D01*
X49156952Y-46736285D01*
X49490285Y-46736285D01*
X49680761Y-46783904D01*
X49776000Y-46879142D01*
X49823619Y-46974380D01*
X49299809Y-48022000D02*
X48823619Y-48022000D01*
X49823619Y-47688666D02*
X49299809Y-48022000D01*
X49823619Y-48355333D01*
X48823619Y-48688666D02*
X49823619Y-48688666D01*
X49823619Y-49069619D01*
X49776000Y-49164857D01*
X49728380Y-49212476D01*
X49633142Y-49260095D01*
X49490285Y-49260095D01*
X49395047Y-49212476D01*
X49347428Y-49164857D01*
X49299809Y-49069619D01*
X49299809Y-48688666D01*
X49109333Y-49641047D02*
X49109333Y-50117238D01*
X48823619Y-49545809D02*
X49823619Y-49879142D01*
X48823619Y-50212476D01*
X48823619Y-50545809D02*
X49823619Y-50545809D01*
X49823619Y-50783904D01*
X49776000Y-50926761D01*
X49680761Y-51022000D01*
X49585523Y-51069619D01*
X49395047Y-51117238D01*
X49252190Y-51117238D01*
X49061714Y-51069619D01*
X48966476Y-51022000D01*
X48871238Y-50926761D01*
X48823619Y-50783904D01*
X48823619Y-50545809D01*
X48823619Y-52069619D02*
X48823619Y-51498190D01*
X48823619Y-51783904D02*
X49823619Y-51783904D01*
X49680761Y-51688666D01*
X49585523Y-51593428D01*
X49537904Y-51498190D01*
%TO.C,U1*%
X107188095Y-158666380D02*
X107188095Y-159475904D01*
X107235714Y-159571142D01*
X107283333Y-159618761D01*
X107378571Y-159666380D01*
X107569047Y-159666380D01*
X107664285Y-159618761D01*
X107711904Y-159571142D01*
X107759523Y-159475904D01*
X107759523Y-158666380D01*
X108759523Y-159666380D02*
X108188095Y-159666380D01*
X108473809Y-159666380D02*
X108473809Y-158666380D01*
X108378571Y-158809238D01*
X108283333Y-158904476D01*
X108188095Y-158952095D01*
%TO.C,J9*%
X64825619Y-113101523D02*
X64825619Y-112625333D01*
X65825619Y-112625333D01*
X64920857Y-114006285D02*
X64873238Y-113958666D01*
X64825619Y-113815809D01*
X64825619Y-113720571D01*
X64873238Y-113577714D01*
X64968476Y-113482476D01*
X65063714Y-113434857D01*
X65254190Y-113387238D01*
X65397047Y-113387238D01*
X65587523Y-113434857D01*
X65682761Y-113482476D01*
X65778000Y-113577714D01*
X65825619Y-113720571D01*
X65825619Y-113815809D01*
X65778000Y-113958666D01*
X65730380Y-114006285D01*
X64825619Y-114434857D02*
X65825619Y-114434857D01*
X65825619Y-114672952D01*
X65778000Y-114815809D01*
X65682761Y-114911047D01*
X65587523Y-114958666D01*
X65397047Y-115006285D01*
X65254190Y-115006285D01*
X65063714Y-114958666D01*
X64968476Y-114911047D01*
X64873238Y-114815809D01*
X64825619Y-114672952D01*
X64825619Y-114434857D01*
D11*
%TO.C,XiaoNiuNiu*%
X47998742Y-181486628D02*
X49014742Y-183010628D01*
X49014742Y-181486628D02*
X47998742Y-183010628D01*
X49595314Y-183010628D02*
X49595314Y-181994628D01*
X49595314Y-181486628D02*
X49522742Y-181559200D01*
X49595314Y-181631771D01*
X49667885Y-181559200D01*
X49595314Y-181486628D01*
X49595314Y-181631771D01*
X50974171Y-183010628D02*
X50974171Y-182212342D01*
X50901600Y-182067200D01*
X50756457Y-181994628D01*
X50466171Y-181994628D01*
X50321028Y-182067200D01*
X50974171Y-182938057D02*
X50829028Y-183010628D01*
X50466171Y-183010628D01*
X50321028Y-182938057D01*
X50248457Y-182792914D01*
X50248457Y-182647771D01*
X50321028Y-182502628D01*
X50466171Y-182430057D01*
X50829028Y-182430057D01*
X50974171Y-182357485D01*
X51917600Y-183010628D02*
X51772457Y-182938057D01*
X51699885Y-182865485D01*
X51627314Y-182720342D01*
X51627314Y-182284914D01*
X51699885Y-182139771D01*
X51772457Y-182067200D01*
X51917600Y-181994628D01*
X52135314Y-181994628D01*
X52280457Y-182067200D01*
X52353028Y-182139771D01*
X52425600Y-182284914D01*
X52425600Y-182720342D01*
X52353028Y-182865485D01*
X52280457Y-182938057D01*
X52135314Y-183010628D01*
X51917600Y-183010628D01*
X53078742Y-183010628D02*
X53078742Y-181486628D01*
X53949600Y-183010628D01*
X53949600Y-181486628D01*
X54675314Y-183010628D02*
X54675314Y-181994628D01*
X54675314Y-181486628D02*
X54602742Y-181559200D01*
X54675314Y-181631771D01*
X54747885Y-181559200D01*
X54675314Y-181486628D01*
X54675314Y-181631771D01*
X56054171Y-181994628D02*
X56054171Y-183010628D01*
X55401028Y-181994628D02*
X55401028Y-182792914D01*
X55473600Y-182938057D01*
X55618742Y-183010628D01*
X55836457Y-183010628D01*
X55981600Y-182938057D01*
X56054171Y-182865485D01*
X56779885Y-183010628D02*
X56779885Y-181486628D01*
X57650742Y-183010628D01*
X57650742Y-181486628D01*
X58376457Y-183010628D02*
X58376457Y-181994628D01*
X58376457Y-181486628D02*
X58303885Y-181559200D01*
X58376457Y-181631771D01*
X58449028Y-181559200D01*
X58376457Y-181486628D01*
X58376457Y-181631771D01*
X59755314Y-181994628D02*
X59755314Y-183010628D01*
X59102171Y-181994628D02*
X59102171Y-182792914D01*
X59174742Y-182938057D01*
X59319885Y-183010628D01*
X59537600Y-183010628D01*
X59682742Y-182938057D01*
X59755314Y-182865485D01*
D10*
%TO.C,RV1*%
X54776761Y-77530497D02*
X54443428Y-77054307D01*
X54205333Y-77530497D02*
X54205333Y-76530497D01*
X54586285Y-76530497D01*
X54681523Y-76578117D01*
X54729142Y-76625736D01*
X54776761Y-76720974D01*
X54776761Y-76863831D01*
X54729142Y-76959069D01*
X54681523Y-77006688D01*
X54586285Y-77054307D01*
X54205333Y-77054307D01*
X55062476Y-76530497D02*
X55395809Y-77530497D01*
X55729142Y-76530497D01*
X56586285Y-77530497D02*
X56014857Y-77530497D01*
X56300571Y-77530497D02*
X56300571Y-76530497D01*
X56205333Y-76673355D01*
X56110095Y-76768593D01*
X56014857Y-76816212D01*
%TO.C,J15*%
X73483428Y-121844447D02*
X73435809Y-121987304D01*
X73388190Y-122034923D01*
X73292952Y-122082542D01*
X73150095Y-122082542D01*
X73054857Y-122034923D01*
X73007238Y-121987304D01*
X72959619Y-121892066D01*
X72959619Y-121511114D01*
X73959619Y-121511114D01*
X73959619Y-121844447D01*
X73912000Y-121939685D01*
X73864380Y-121987304D01*
X73769142Y-122034923D01*
X73673904Y-122034923D01*
X73578666Y-121987304D01*
X73531047Y-121939685D01*
X73483428Y-121844447D01*
X73483428Y-121511114D01*
X73245333Y-122463495D02*
X73245333Y-122939685D01*
X72959619Y-122368257D02*
X73959619Y-122701590D01*
X72959619Y-123034923D01*
X72959619Y-123368257D02*
X73959619Y-123368257D01*
X72959619Y-123939685D01*
X73959619Y-123939685D01*
X72959619Y-124415876D02*
X73959619Y-124415876D01*
X72959619Y-124987304D02*
X73531047Y-124558733D01*
X73959619Y-124987304D02*
X73388190Y-124415876D01*
X72959619Y-125415876D02*
X73959619Y-125415876D01*
X73959619Y-125653971D01*
X73912000Y-125796828D01*
X73816761Y-125892066D01*
X73721523Y-125939685D01*
X73531047Y-125987304D01*
X73388190Y-125987304D01*
X73197714Y-125939685D01*
X73102476Y-125892066D01*
X73007238Y-125796828D01*
X72959619Y-125653971D01*
X72959619Y-125415876D01*
%TO.C,U5*%
X98755295Y-141089580D02*
X98755295Y-141899104D01*
X98802914Y-141994342D01*
X98850533Y-142041961D01*
X98945771Y-142089580D01*
X99136247Y-142089580D01*
X99231485Y-142041961D01*
X99279104Y-141994342D01*
X99326723Y-141899104D01*
X99326723Y-141089580D01*
X100279104Y-141089580D02*
X99802914Y-141089580D01*
X99755295Y-141565771D01*
X99802914Y-141518152D01*
X99898152Y-141470533D01*
X100136247Y-141470533D01*
X100231485Y-141518152D01*
X100279104Y-141565771D01*
X100326723Y-141661009D01*
X100326723Y-141899104D01*
X100279104Y-141994342D01*
X100231485Y-142041961D01*
X100136247Y-142089580D01*
X99898152Y-142089580D01*
X99802914Y-142041961D01*
X99755295Y-141994342D01*
%TO.C,R5*%
X147153333Y-102814380D02*
X146820000Y-102338190D01*
X146581904Y-102814380D02*
X146581904Y-101814380D01*
X146962857Y-101814380D01*
X147058095Y-101862000D01*
X147105714Y-101909619D01*
X147153333Y-102004857D01*
X147153333Y-102147714D01*
X147105714Y-102242952D01*
X147058095Y-102290571D01*
X146962857Y-102338190D01*
X146581904Y-102338190D01*
X148058095Y-101814380D02*
X147581904Y-101814380D01*
X147534285Y-102290571D01*
X147581904Y-102242952D01*
X147677142Y-102195333D01*
X147915238Y-102195333D01*
X148010476Y-102242952D01*
X148058095Y-102290571D01*
X148105714Y-102385809D01*
X148105714Y-102623904D01*
X148058095Y-102719142D01*
X148010476Y-102766761D01*
X147915238Y-102814380D01*
X147677142Y-102814380D01*
X147581904Y-102766761D01*
X147534285Y-102719142D01*
%TO.C,U2*%
X139700095Y-35222380D02*
X139700095Y-36031904D01*
X139747714Y-36127142D01*
X139795333Y-36174761D01*
X139890571Y-36222380D01*
X140081047Y-36222380D01*
X140176285Y-36174761D01*
X140223904Y-36127142D01*
X140271523Y-36031904D01*
X140271523Y-35222380D01*
X140700095Y-35317619D02*
X140747714Y-35270000D01*
X140842952Y-35222380D01*
X141081047Y-35222380D01*
X141176285Y-35270000D01*
X141223904Y-35317619D01*
X141271523Y-35412857D01*
X141271523Y-35508095D01*
X141223904Y-35650952D01*
X140652476Y-36222380D01*
X141271523Y-36222380D01*
%TO.C,R3*%
X147153333Y-109672380D02*
X146820000Y-109196190D01*
X146581904Y-109672380D02*
X146581904Y-108672380D01*
X146962857Y-108672380D01*
X147058095Y-108720000D01*
X147105714Y-108767619D01*
X147153333Y-108862857D01*
X147153333Y-109005714D01*
X147105714Y-109100952D01*
X147058095Y-109148571D01*
X146962857Y-109196190D01*
X146581904Y-109196190D01*
X147486666Y-108672380D02*
X148105714Y-108672380D01*
X147772380Y-109053333D01*
X147915238Y-109053333D01*
X148010476Y-109100952D01*
X148058095Y-109148571D01*
X148105714Y-109243809D01*
X148105714Y-109481904D01*
X148058095Y-109577142D01*
X148010476Y-109624761D01*
X147915238Y-109672380D01*
X147629523Y-109672380D01*
X147534285Y-109624761D01*
X147486666Y-109577142D01*
%TO.C,R2*%
X155138380Y-61126666D02*
X154662190Y-61460000D01*
X155138380Y-61698095D02*
X154138380Y-61698095D01*
X154138380Y-61317142D01*
X154186000Y-61221904D01*
X154233619Y-61174285D01*
X154328857Y-61126666D01*
X154471714Y-61126666D01*
X154566952Y-61174285D01*
X154614571Y-61221904D01*
X154662190Y-61317142D01*
X154662190Y-61698095D01*
X154233619Y-60745714D02*
X154186000Y-60698095D01*
X154138380Y-60602857D01*
X154138380Y-60364761D01*
X154186000Y-60269523D01*
X154233619Y-60221904D01*
X154328857Y-60174285D01*
X154424095Y-60174285D01*
X154566952Y-60221904D01*
X155138380Y-60793333D01*
X155138380Y-60174285D01*
%TO.C,R10*%
X119092742Y-152395180D02*
X118759409Y-151918990D01*
X118521314Y-152395180D02*
X118521314Y-151395180D01*
X118902266Y-151395180D01*
X118997504Y-151442800D01*
X119045123Y-151490419D01*
X119092742Y-151585657D01*
X119092742Y-151728514D01*
X119045123Y-151823752D01*
X118997504Y-151871371D01*
X118902266Y-151918990D01*
X118521314Y-151918990D01*
X120045123Y-152395180D02*
X119473695Y-152395180D01*
X119759409Y-152395180D02*
X119759409Y-151395180D01*
X119664171Y-151538038D01*
X119568933Y-151633276D01*
X119473695Y-151680895D01*
X120664171Y-151395180D02*
X120759409Y-151395180D01*
X120854647Y-151442800D01*
X120902266Y-151490419D01*
X120949885Y-151585657D01*
X120997504Y-151776133D01*
X120997504Y-152014228D01*
X120949885Y-152204704D01*
X120902266Y-152299942D01*
X120854647Y-152347561D01*
X120759409Y-152395180D01*
X120664171Y-152395180D01*
X120568933Y-152347561D01*
X120521314Y-152299942D01*
X120473695Y-152204704D01*
X120426076Y-152014228D01*
X120426076Y-151776133D01*
X120473695Y-151585657D01*
X120521314Y-151490419D01*
X120568933Y-151442800D01*
X120664171Y-151395180D01*
%TO.C,C4*%
X163389333Y-53991142D02*
X163341714Y-54038761D01*
X163198857Y-54086380D01*
X163103619Y-54086380D01*
X162960761Y-54038761D01*
X162865523Y-53943523D01*
X162817904Y-53848285D01*
X162770285Y-53657809D01*
X162770285Y-53514952D01*
X162817904Y-53324476D01*
X162865523Y-53229238D01*
X162960761Y-53134000D01*
X163103619Y-53086380D01*
X163198857Y-53086380D01*
X163341714Y-53134000D01*
X163389333Y-53181619D01*
X164246476Y-53419714D02*
X164246476Y-54086380D01*
X164008380Y-53038761D02*
X163770285Y-53753047D01*
X164389333Y-53753047D01*
%TO.C,C19*%
X109079942Y-153449257D02*
X109127561Y-153496876D01*
X109175180Y-153639733D01*
X109175180Y-153734971D01*
X109127561Y-153877828D01*
X109032323Y-153973066D01*
X108937085Y-154020685D01*
X108746609Y-154068304D01*
X108603752Y-154068304D01*
X108413276Y-154020685D01*
X108318038Y-153973066D01*
X108222800Y-153877828D01*
X108175180Y-153734971D01*
X108175180Y-153639733D01*
X108222800Y-153496876D01*
X108270419Y-153449257D01*
X109175180Y-152496876D02*
X109175180Y-153068304D01*
X109175180Y-152782590D02*
X108175180Y-152782590D01*
X108318038Y-152877828D01*
X108413276Y-152973066D01*
X108460895Y-153068304D01*
X109175180Y-152020685D02*
X109175180Y-151830209D01*
X109127561Y-151734971D01*
X109079942Y-151687352D01*
X108937085Y-151592114D01*
X108746609Y-151544495D01*
X108365657Y-151544495D01*
X108270419Y-151592114D01*
X108222800Y-151639733D01*
X108175180Y-151734971D01*
X108175180Y-151925447D01*
X108222800Y-152020685D01*
X108270419Y-152068304D01*
X108365657Y-152115923D01*
X108603752Y-152115923D01*
X108698990Y-152068304D01*
X108746609Y-152020685D01*
X108794228Y-151925447D01*
X108794228Y-151734971D01*
X108746609Y-151639733D01*
X108698990Y-151592114D01*
X108603752Y-151544495D01*
%TO.C,C1*%
X112843333Y-156099142D02*
X112795714Y-156146761D01*
X112652857Y-156194380D01*
X112557619Y-156194380D01*
X112414761Y-156146761D01*
X112319523Y-156051523D01*
X112271904Y-155956285D01*
X112224285Y-155765809D01*
X112224285Y-155622952D01*
X112271904Y-155432476D01*
X112319523Y-155337238D01*
X112414761Y-155242000D01*
X112557619Y-155194380D01*
X112652857Y-155194380D01*
X112795714Y-155242000D01*
X112843333Y-155289619D01*
X113795714Y-156194380D02*
X113224285Y-156194380D01*
X113510000Y-156194380D02*
X113510000Y-155194380D01*
X113414761Y-155337238D01*
X113319523Y-155432476D01*
X113224285Y-155480095D01*
%TO.C,R11*%
X119194342Y-144775180D02*
X118861009Y-144298990D01*
X118622914Y-144775180D02*
X118622914Y-143775180D01*
X119003866Y-143775180D01*
X119099104Y-143822800D01*
X119146723Y-143870419D01*
X119194342Y-143965657D01*
X119194342Y-144108514D01*
X119146723Y-144203752D01*
X119099104Y-144251371D01*
X119003866Y-144298990D01*
X118622914Y-144298990D01*
X120146723Y-144775180D02*
X119575295Y-144775180D01*
X119861009Y-144775180D02*
X119861009Y-143775180D01*
X119765771Y-143918038D01*
X119670533Y-144013276D01*
X119575295Y-144060895D01*
X121099104Y-144775180D02*
X120527676Y-144775180D01*
X120813390Y-144775180D02*
X120813390Y-143775180D01*
X120718152Y-143918038D01*
X120622914Y-144013276D01*
X120527676Y-144060895D01*
%TO.C,R4*%
X147153333Y-106116380D02*
X146820000Y-105640190D01*
X146581904Y-106116380D02*
X146581904Y-105116380D01*
X146962857Y-105116380D01*
X147058095Y-105164000D01*
X147105714Y-105211619D01*
X147153333Y-105306857D01*
X147153333Y-105449714D01*
X147105714Y-105544952D01*
X147058095Y-105592571D01*
X146962857Y-105640190D01*
X146581904Y-105640190D01*
X148010476Y-105449714D02*
X148010476Y-106116380D01*
X147772380Y-105068761D02*
X147534285Y-105783047D01*
X148153333Y-105783047D01*
%TO.C,C20*%
X106233542Y-146292370D02*
X106281161Y-146339989D01*
X106328780Y-146482846D01*
X106328780Y-146578084D01*
X106281161Y-146720941D01*
X106185923Y-146816179D01*
X106090685Y-146863798D01*
X105900209Y-146911417D01*
X105757352Y-146911417D01*
X105566876Y-146863798D01*
X105471638Y-146816179D01*
X105376400Y-146720941D01*
X105328780Y-146578084D01*
X105328780Y-146482846D01*
X105376400Y-146339989D01*
X105424019Y-146292370D01*
X105424019Y-145911417D02*
X105376400Y-145863798D01*
X105328780Y-145768560D01*
X105328780Y-145530465D01*
X105376400Y-145435227D01*
X105424019Y-145387608D01*
X105519257Y-145339989D01*
X105614495Y-145339989D01*
X105757352Y-145387608D01*
X106328780Y-145959036D01*
X106328780Y-145339989D01*
X105328780Y-144720941D02*
X105328780Y-144625703D01*
X105376400Y-144530465D01*
X105424019Y-144482846D01*
X105519257Y-144435227D01*
X105709733Y-144387608D01*
X105947828Y-144387608D01*
X106138304Y-144435227D01*
X106233542Y-144482846D01*
X106281161Y-144530465D01*
X106328780Y-144625703D01*
X106328780Y-144720941D01*
X106281161Y-144816179D01*
X106233542Y-144863798D01*
X106138304Y-144911417D01*
X105947828Y-144959036D01*
X105709733Y-144959036D01*
X105519257Y-144911417D01*
X105424019Y-144863798D01*
X105376400Y-144816179D01*
X105328780Y-144720941D01*
%TO.C,R9*%
X119467333Y-148635980D02*
X119134000Y-148159790D01*
X118895904Y-148635980D02*
X118895904Y-147635980D01*
X119276857Y-147635980D01*
X119372095Y-147683600D01*
X119419714Y-147731219D01*
X119467333Y-147826457D01*
X119467333Y-147969314D01*
X119419714Y-148064552D01*
X119372095Y-148112171D01*
X119276857Y-148159790D01*
X118895904Y-148159790D01*
X119943523Y-148635980D02*
X120134000Y-148635980D01*
X120229238Y-148588361D01*
X120276857Y-148540742D01*
X120372095Y-148397885D01*
X120419714Y-148207409D01*
X120419714Y-147826457D01*
X120372095Y-147731219D01*
X120324476Y-147683600D01*
X120229238Y-147635980D01*
X120038761Y-147635980D01*
X119943523Y-147683600D01*
X119895904Y-147731219D01*
X119848285Y-147826457D01*
X119848285Y-148064552D01*
X119895904Y-148159790D01*
X119943523Y-148207409D01*
X120038761Y-148255028D01*
X120229238Y-148255028D01*
X120324476Y-148207409D01*
X120372095Y-148159790D01*
X120419714Y-148064552D01*
%TO.C,J1*%
X40187619Y-73191904D02*
X41187619Y-73191904D01*
X41187619Y-73572857D01*
X41140000Y-73668095D01*
X41092380Y-73715714D01*
X40997142Y-73763333D01*
X40854285Y-73763333D01*
X40759047Y-73715714D01*
X40711428Y-73668095D01*
X40663809Y-73572857D01*
X40663809Y-73191904D01*
X40235238Y-74144285D02*
X40187619Y-74287142D01*
X40187619Y-74525238D01*
X40235238Y-74620476D01*
X40282857Y-74668095D01*
X40378095Y-74715714D01*
X40473333Y-74715714D01*
X40568571Y-74668095D01*
X40616190Y-74620476D01*
X40663809Y-74525238D01*
X40711428Y-74334761D01*
X40759047Y-74239523D01*
X40806666Y-74191904D01*
X40901904Y-74144285D01*
X40997142Y-74144285D01*
X41092380Y-74191904D01*
X41140000Y-74239523D01*
X41187619Y-74334761D01*
X41187619Y-74572857D01*
X41140000Y-74715714D01*
X41235238Y-75858571D02*
X39949523Y-75001428D01*
X41092380Y-76144285D02*
X41140000Y-76191904D01*
X41187619Y-76287142D01*
X41187619Y-76525238D01*
X41140000Y-76620476D01*
X41092380Y-76668095D01*
X40997142Y-76715714D01*
X40901904Y-76715714D01*
X40759047Y-76668095D01*
X40187619Y-76096666D01*
X40187619Y-76715714D01*
%TO.C,Q1*%
X124771161Y-162301619D02*
X124675923Y-162254000D01*
X124580685Y-162158761D01*
X124437828Y-162015904D01*
X124342590Y-161968285D01*
X124247352Y-161968285D01*
X124294971Y-162206380D02*
X124199733Y-162158761D01*
X124104495Y-162063523D01*
X124056876Y-161873047D01*
X124056876Y-161539714D01*
X124104495Y-161349238D01*
X124199733Y-161254000D01*
X124294971Y-161206380D01*
X124485447Y-161206380D01*
X124580685Y-161254000D01*
X124675923Y-161349238D01*
X124723542Y-161539714D01*
X124723542Y-161873047D01*
X124675923Y-162063523D01*
X124580685Y-162158761D01*
X124485447Y-162206380D01*
X124294971Y-162206380D01*
X125675923Y-162206380D02*
X125104495Y-162206380D01*
X125390209Y-162206380D02*
X125390209Y-161206380D01*
X125294971Y-161349238D01*
X125199733Y-161444476D01*
X125104495Y-161492095D01*
%TO.C,J12*%
X150201333Y-37414666D02*
X150201333Y-37890857D01*
X149915619Y-37319428D02*
X150915619Y-37652761D01*
X149915619Y-37986095D01*
X150915619Y-38319428D02*
X150106095Y-38319428D01*
X150010857Y-38367047D01*
X149963238Y-38414666D01*
X149915619Y-38509904D01*
X149915619Y-38700380D01*
X149963238Y-38795619D01*
X150010857Y-38843238D01*
X150106095Y-38890857D01*
X150915619Y-38890857D01*
X149915619Y-39367047D02*
X150915619Y-39367047D01*
X150915619Y-39605142D01*
X150868000Y-39748000D01*
X150772761Y-39843238D01*
X150677523Y-39890857D01*
X150487047Y-39938476D01*
X150344190Y-39938476D01*
X150153714Y-39890857D01*
X150058476Y-39843238D01*
X149963238Y-39748000D01*
X149915619Y-39605142D01*
X149915619Y-39367047D01*
X149915619Y-40367047D02*
X150915619Y-40367047D01*
X150915619Y-41033714D02*
X150915619Y-41224190D01*
X150868000Y-41319428D01*
X150772761Y-41414666D01*
X150582285Y-41462285D01*
X150248952Y-41462285D01*
X150058476Y-41414666D01*
X149963238Y-41319428D01*
X149915619Y-41224190D01*
X149915619Y-41033714D01*
X149963238Y-40938476D01*
X150058476Y-40843238D01*
X150248952Y-40795619D01*
X150582285Y-40795619D01*
X150772761Y-40843238D01*
X150868000Y-40938476D01*
X150915619Y-41033714D01*
X149820380Y-41652761D02*
X149820380Y-42414666D01*
X150915619Y-42843238D02*
X150915619Y-43033714D01*
X150868000Y-43128952D01*
X150772761Y-43224190D01*
X150582285Y-43271809D01*
X150248952Y-43271809D01*
X150058476Y-43224190D01*
X149963238Y-43128952D01*
X149915619Y-43033714D01*
X149915619Y-42843238D01*
X149963238Y-42748000D01*
X150058476Y-42652761D01*
X150248952Y-42605142D01*
X150582285Y-42605142D01*
X150772761Y-42652761D01*
X150868000Y-42748000D01*
X150915619Y-42843238D01*
X150915619Y-43700380D02*
X150106095Y-43700380D01*
X150010857Y-43748000D01*
X149963238Y-43795619D01*
X149915619Y-43890857D01*
X149915619Y-44081333D01*
X149963238Y-44176571D01*
X150010857Y-44224190D01*
X150106095Y-44271809D01*
X150915619Y-44271809D01*
X150915619Y-44605142D02*
X150915619Y-45176571D01*
X149915619Y-44890857D02*
X150915619Y-44890857D01*
%TO.C,J11*%
X132135619Y-173148952D02*
X133135619Y-173148952D01*
X133135619Y-173387047D01*
X133088000Y-173529904D01*
X132992761Y-173625142D01*
X132897523Y-173672761D01*
X132707047Y-173720380D01*
X132564190Y-173720380D01*
X132373714Y-173672761D01*
X132278476Y-173625142D01*
X132183238Y-173529904D01*
X132135619Y-173387047D01*
X132135619Y-173148952D01*
X132135619Y-174148952D02*
X133135619Y-174148952D01*
X133135619Y-174482285D02*
X132135619Y-174815619D01*
X133135619Y-175148952D01*
X132135619Y-175482285D02*
X133135619Y-175482285D01*
X132135619Y-175958476D02*
X133135619Y-175958476D01*
X133135619Y-176196571D01*
X133088000Y-176339428D01*
X132992761Y-176434666D01*
X132897523Y-176482285D01*
X132707047Y-176529904D01*
X132564190Y-176529904D01*
X132373714Y-176482285D01*
X132278476Y-176434666D01*
X132183238Y-176339428D01*
X132135619Y-176196571D01*
X132135619Y-175958476D01*
X132659428Y-176958476D02*
X132659428Y-177291809D01*
X132135619Y-177434666D02*
X132135619Y-176958476D01*
X133135619Y-176958476D01*
X133135619Y-177434666D01*
X132135619Y-178434666D02*
X132611809Y-178101333D01*
X132135619Y-177863238D02*
X133135619Y-177863238D01*
X133135619Y-178244190D01*
X133088000Y-178339428D01*
X133040380Y-178387047D01*
X132945142Y-178434666D01*
X132802285Y-178434666D01*
X132707047Y-178387047D01*
X132659428Y-178339428D01*
X132611809Y-178244190D01*
X132611809Y-177863238D01*
%TO.C,J8*%
X139298419Y-97431685D02*
X140298419Y-97431685D01*
X140298419Y-97812638D01*
X140250800Y-97907876D01*
X140203180Y-97955495D01*
X140107942Y-98003114D01*
X139965085Y-98003114D01*
X139869847Y-97955495D01*
X139822228Y-97907876D01*
X139774609Y-97812638D01*
X139774609Y-97431685D01*
X139298419Y-99003114D02*
X139774609Y-98669780D01*
X139298419Y-98431685D02*
X140298419Y-98431685D01*
X140298419Y-98812638D01*
X140250800Y-98907876D01*
X140203180Y-98955495D01*
X140107942Y-99003114D01*
X139965085Y-99003114D01*
X139869847Y-98955495D01*
X139822228Y-98907876D01*
X139774609Y-98812638D01*
X139774609Y-98431685D01*
X140298419Y-99622161D02*
X140298419Y-99812638D01*
X140250800Y-99907876D01*
X140155561Y-100003114D01*
X139965085Y-100050733D01*
X139631752Y-100050733D01*
X139441276Y-100003114D01*
X139346038Y-99907876D01*
X139298419Y-99812638D01*
X139298419Y-99622161D01*
X139346038Y-99526923D01*
X139441276Y-99431685D01*
X139631752Y-99384066D01*
X139965085Y-99384066D01*
X140155561Y-99431685D01*
X140250800Y-99526923D01*
X140298419Y-99622161D01*
X140250800Y-101003114D02*
X140298419Y-100907876D01*
X140298419Y-100765019D01*
X140250800Y-100622161D01*
X140155561Y-100526923D01*
X140060323Y-100479304D01*
X139869847Y-100431685D01*
X139726990Y-100431685D01*
X139536514Y-100479304D01*
X139441276Y-100526923D01*
X139346038Y-100622161D01*
X139298419Y-100765019D01*
X139298419Y-100860257D01*
X139346038Y-101003114D01*
X139393657Y-101050733D01*
X139726990Y-101050733D01*
X139726990Y-100860257D01*
%TO.C,C3*%
X133437333Y-51411142D02*
X133389714Y-51458761D01*
X133246857Y-51506380D01*
X133151619Y-51506380D01*
X133008761Y-51458761D01*
X132913523Y-51363523D01*
X132865904Y-51268285D01*
X132818285Y-51077809D01*
X132818285Y-50934952D01*
X132865904Y-50744476D01*
X132913523Y-50649238D01*
X133008761Y-50554000D01*
X133151619Y-50506380D01*
X133246857Y-50506380D01*
X133389714Y-50554000D01*
X133437333Y-50601619D01*
X133770666Y-50506380D02*
X134389714Y-50506380D01*
X134056380Y-50887333D01*
X134199238Y-50887333D01*
X134294476Y-50934952D01*
X134342095Y-50982571D01*
X134389714Y-51077809D01*
X134389714Y-51315904D01*
X134342095Y-51411142D01*
X134294476Y-51458761D01*
X134199238Y-51506380D01*
X133913523Y-51506380D01*
X133818285Y-51458761D01*
X133770666Y-51411142D01*
%TO.C,J13*%
X122759428Y-109444476D02*
X122711809Y-109587333D01*
X122664190Y-109634952D01*
X122568952Y-109682571D01*
X122426095Y-109682571D01*
X122330857Y-109634952D01*
X122283238Y-109587333D01*
X122235619Y-109492095D01*
X122235619Y-109111142D01*
X123235619Y-109111142D01*
X123235619Y-109444476D01*
X123188000Y-109539714D01*
X123140380Y-109587333D01*
X123045142Y-109634952D01*
X122949904Y-109634952D01*
X122854666Y-109587333D01*
X122807047Y-109539714D01*
X122759428Y-109444476D01*
X122759428Y-109111142D01*
X122521333Y-110063523D02*
X122521333Y-110539714D01*
X122235619Y-109968285D02*
X123235619Y-110301619D01*
X122235619Y-110634952D01*
X122235619Y-110968285D02*
X123235619Y-110968285D01*
X122235619Y-111539714D01*
X123235619Y-111539714D01*
X122235619Y-112015904D02*
X123235619Y-112015904D01*
X122235619Y-112587333D02*
X122807047Y-112158761D01*
X123235619Y-112587333D02*
X122664190Y-112015904D01*
X122521333Y-112968285D02*
X122521333Y-113444476D01*
X122235619Y-112873047D02*
X123235619Y-113206380D01*
X122235619Y-113539714D01*
%TO.C,J17*%
X155487619Y-97050571D02*
X154487619Y-97383904D01*
X155487619Y-97717238D01*
X155440000Y-98574380D02*
X155487619Y-98479142D01*
X155487619Y-98336285D01*
X155440000Y-98193428D01*
X155344761Y-98098190D01*
X155249523Y-98050571D01*
X155059047Y-98002952D01*
X154916190Y-98002952D01*
X154725714Y-98050571D01*
X154630476Y-98098190D01*
X154535238Y-98193428D01*
X154487619Y-98336285D01*
X154487619Y-98431523D01*
X154535238Y-98574380D01*
X154582857Y-98622000D01*
X154916190Y-98622000D01*
X154916190Y-98431523D01*
X154773333Y-99002952D02*
X154773333Y-99479142D01*
X154487619Y-98907714D02*
X155487619Y-99241047D01*
X154487619Y-99574380D01*
X154392380Y-99669619D02*
X154392380Y-100431523D01*
X155487619Y-100860095D02*
X155487619Y-101050571D01*
X155440000Y-101145809D01*
X155344761Y-101241047D01*
X155154285Y-101288666D01*
X154820952Y-101288666D01*
X154630476Y-101241047D01*
X154535238Y-101145809D01*
X154487619Y-101050571D01*
X154487619Y-100860095D01*
X154535238Y-100764857D01*
X154630476Y-100669619D01*
X154820952Y-100622000D01*
X155154285Y-100622000D01*
X155344761Y-100669619D01*
X155440000Y-100764857D01*
X155487619Y-100860095D01*
X155487619Y-101717238D02*
X154678095Y-101717238D01*
X154582857Y-101764857D01*
X154535238Y-101812476D01*
X154487619Y-101907714D01*
X154487619Y-102098190D01*
X154535238Y-102193428D01*
X154582857Y-102241047D01*
X154678095Y-102288666D01*
X155487619Y-102288666D01*
X155487619Y-102622000D02*
X155487619Y-103193428D01*
X154487619Y-102907714D02*
X155487619Y-102907714D01*
%TO.C,J14*%
X73483428Y-109144447D02*
X73435809Y-109287304D01*
X73388190Y-109334923D01*
X73292952Y-109382542D01*
X73150095Y-109382542D01*
X73054857Y-109334923D01*
X73007238Y-109287304D01*
X72959619Y-109192066D01*
X72959619Y-108811114D01*
X73959619Y-108811114D01*
X73959619Y-109144447D01*
X73912000Y-109239685D01*
X73864380Y-109287304D01*
X73769142Y-109334923D01*
X73673904Y-109334923D01*
X73578666Y-109287304D01*
X73531047Y-109239685D01*
X73483428Y-109144447D01*
X73483428Y-108811114D01*
X73245333Y-109763495D02*
X73245333Y-110239685D01*
X72959619Y-109668257D02*
X73959619Y-110001590D01*
X72959619Y-110334923D01*
X72959619Y-110668257D02*
X73959619Y-110668257D01*
X72959619Y-111239685D01*
X73959619Y-111239685D01*
X72959619Y-111715876D02*
X73959619Y-111715876D01*
X72959619Y-112287304D02*
X73531047Y-111858733D01*
X73959619Y-112287304D02*
X73388190Y-111715876D01*
X73483428Y-113049209D02*
X73435809Y-113192066D01*
X73388190Y-113239685D01*
X73292952Y-113287304D01*
X73150095Y-113287304D01*
X73054857Y-113239685D01*
X73007238Y-113192066D01*
X72959619Y-113096828D01*
X72959619Y-112715876D01*
X73959619Y-112715876D01*
X73959619Y-113049209D01*
X73912000Y-113144447D01*
X73864380Y-113192066D01*
X73769142Y-113239685D01*
X73673904Y-113239685D01*
X73578666Y-113192066D01*
X73531047Y-113144447D01*
X73483428Y-113049209D01*
X73483428Y-112715876D01*
%TO.C,X1*%
X89106476Y-158626380D02*
X89773142Y-159626380D01*
X89773142Y-158626380D02*
X89106476Y-159626380D01*
X90677904Y-159626380D02*
X90106476Y-159626380D01*
X90392190Y-159626380D02*
X90392190Y-158626380D01*
X90296952Y-158769238D01*
X90201714Y-158864476D01*
X90106476Y-158912095D01*
%TO.C,J16*%
X122777428Y-121844447D02*
X122729809Y-121987304D01*
X122682190Y-122034923D01*
X122586952Y-122082542D01*
X122444095Y-122082542D01*
X122348857Y-122034923D01*
X122301238Y-121987304D01*
X122253619Y-121892066D01*
X122253619Y-121511114D01*
X123253619Y-121511114D01*
X123253619Y-121844447D01*
X123206000Y-121939685D01*
X123158380Y-121987304D01*
X123063142Y-122034923D01*
X122967904Y-122034923D01*
X122872666Y-121987304D01*
X122825047Y-121939685D01*
X122777428Y-121844447D01*
X122777428Y-121511114D01*
X122539333Y-122463495D02*
X122539333Y-122939685D01*
X122253619Y-122368257D02*
X123253619Y-122701590D01*
X122253619Y-123034923D01*
X122253619Y-123368257D02*
X123253619Y-123368257D01*
X122253619Y-123939685D01*
X123253619Y-123939685D01*
X122253619Y-124415876D02*
X123253619Y-124415876D01*
X122253619Y-124987304D02*
X122825047Y-124558733D01*
X123253619Y-124987304D02*
X122682190Y-124415876D01*
X122348857Y-125987304D02*
X122301238Y-125939685D01*
X122253619Y-125796828D01*
X122253619Y-125701590D01*
X122301238Y-125558733D01*
X122396476Y-125463495D01*
X122491714Y-125415876D01*
X122682190Y-125368257D01*
X122825047Y-125368257D01*
X123015523Y-125415876D01*
X123110761Y-125463495D01*
X123206000Y-125558733D01*
X123253619Y-125701590D01*
X123253619Y-125796828D01*
X123206000Y-125939685D01*
X123158380Y-125987304D01*
%TO.C,R8*%
X147153333Y-92908380D02*
X146820000Y-92432190D01*
X146581904Y-92908380D02*
X146581904Y-91908380D01*
X146962857Y-91908380D01*
X147058095Y-91956000D01*
X147105714Y-92003619D01*
X147153333Y-92098857D01*
X147153333Y-92241714D01*
X147105714Y-92336952D01*
X147058095Y-92384571D01*
X146962857Y-92432190D01*
X146581904Y-92432190D01*
X147724761Y-92336952D02*
X147629523Y-92289333D01*
X147581904Y-92241714D01*
X147534285Y-92146476D01*
X147534285Y-92098857D01*
X147581904Y-92003619D01*
X147629523Y-91956000D01*
X147724761Y-91908380D01*
X147915238Y-91908380D01*
X148010476Y-91956000D01*
X148058095Y-92003619D01*
X148105714Y-92098857D01*
X148105714Y-92146476D01*
X148058095Y-92241714D01*
X148010476Y-92289333D01*
X147915238Y-92336952D01*
X147724761Y-92336952D01*
X147629523Y-92384571D01*
X147581904Y-92432190D01*
X147534285Y-92527428D01*
X147534285Y-92717904D01*
X147581904Y-92813142D01*
X147629523Y-92860761D01*
X147724761Y-92908380D01*
X147915238Y-92908380D01*
X148010476Y-92860761D01*
X148058095Y-92813142D01*
X148105714Y-92717904D01*
X148105714Y-92527428D01*
X148058095Y-92432190D01*
X148010476Y-92384571D01*
X147915238Y-92336952D01*
%TO.C,R1*%
X158329333Y-81224380D02*
X157996000Y-80748190D01*
X157757904Y-81224380D02*
X157757904Y-80224380D01*
X158138857Y-80224380D01*
X158234095Y-80272000D01*
X158281714Y-80319619D01*
X158329333Y-80414857D01*
X158329333Y-80557714D01*
X158281714Y-80652952D01*
X158234095Y-80700571D01*
X158138857Y-80748190D01*
X157757904Y-80748190D01*
X159281714Y-81224380D02*
X158710285Y-81224380D01*
X158996000Y-81224380D02*
X158996000Y-80224380D01*
X158900761Y-80367238D01*
X158805523Y-80462476D01*
X158710285Y-80510095D01*
%TO.C,R7*%
X147153333Y-96210380D02*
X146820000Y-95734190D01*
X146581904Y-96210380D02*
X146581904Y-95210380D01*
X146962857Y-95210380D01*
X147058095Y-95258000D01*
X147105714Y-95305619D01*
X147153333Y-95400857D01*
X147153333Y-95543714D01*
X147105714Y-95638952D01*
X147058095Y-95686571D01*
X146962857Y-95734190D01*
X146581904Y-95734190D01*
X147486666Y-95210380D02*
X148153333Y-95210380D01*
X147724761Y-96210380D01*
%TO.C,C2*%
X148423333Y-54205142D02*
X148375714Y-54252761D01*
X148232857Y-54300380D01*
X148137619Y-54300380D01*
X147994761Y-54252761D01*
X147899523Y-54157523D01*
X147851904Y-54062285D01*
X147804285Y-53871809D01*
X147804285Y-53728952D01*
X147851904Y-53538476D01*
X147899523Y-53443238D01*
X147994761Y-53348000D01*
X148137619Y-53300380D01*
X148232857Y-53300380D01*
X148375714Y-53348000D01*
X148423333Y-53395619D01*
X148804285Y-53395619D02*
X148851904Y-53348000D01*
X148947142Y-53300380D01*
X149185238Y-53300380D01*
X149280476Y-53348000D01*
X149328095Y-53395619D01*
X149375714Y-53490857D01*
X149375714Y-53586095D01*
X149328095Y-53728952D01*
X148756666Y-54300380D01*
X149375714Y-54300380D01*
%TO.C,C18*%
X87640742Y-145885969D02*
X87688361Y-145933588D01*
X87735980Y-146076445D01*
X87735980Y-146171683D01*
X87688361Y-146314540D01*
X87593123Y-146409778D01*
X87497885Y-146457397D01*
X87307409Y-146505016D01*
X87164552Y-146505016D01*
X86974076Y-146457397D01*
X86878838Y-146409778D01*
X86783600Y-146314540D01*
X86735980Y-146171683D01*
X86735980Y-146076445D01*
X86783600Y-145933588D01*
X86831219Y-145885969D01*
X87735980Y-144933588D02*
X87735980Y-145505016D01*
X87735980Y-145219302D02*
X86735980Y-145219302D01*
X86878838Y-145314540D01*
X86974076Y-145409778D01*
X87021695Y-145505016D01*
X87164552Y-144362159D02*
X87116933Y-144457397D01*
X87069314Y-144505016D01*
X86974076Y-144552635D01*
X86926457Y-144552635D01*
X86831219Y-144505016D01*
X86783600Y-144457397D01*
X86735980Y-144362159D01*
X86735980Y-144171683D01*
X86783600Y-144076445D01*
X86831219Y-144028826D01*
X86926457Y-143981207D01*
X86974076Y-143981207D01*
X87069314Y-144028826D01*
X87116933Y-144076445D01*
X87164552Y-144171683D01*
X87164552Y-144362159D01*
X87212171Y-144457397D01*
X87259790Y-144505016D01*
X87355028Y-144552635D01*
X87545504Y-144552635D01*
X87640742Y-144505016D01*
X87688361Y-144457397D01*
X87735980Y-144362159D01*
X87735980Y-144171683D01*
X87688361Y-144076445D01*
X87640742Y-144028826D01*
X87545504Y-143981207D01*
X87355028Y-143981207D01*
X87259790Y-144028826D01*
X87212171Y-144076445D01*
X87164552Y-144171683D01*
%TO.C,J18*%
X168859638Y-125983561D02*
X168812019Y-126126419D01*
X168812019Y-126364514D01*
X168859638Y-126459752D01*
X168907257Y-126507371D01*
X169002495Y-126554990D01*
X169097733Y-126554990D01*
X169192971Y-126507371D01*
X169240590Y-126459752D01*
X169288209Y-126364514D01*
X169335828Y-126174038D01*
X169383447Y-126078800D01*
X169431066Y-126031180D01*
X169526304Y-125983561D01*
X169621542Y-125983561D01*
X169716780Y-126031180D01*
X169764400Y-126078800D01*
X169812019Y-126174038D01*
X169812019Y-126412133D01*
X169764400Y-126554990D01*
X168812019Y-126983561D02*
X169812019Y-126983561D01*
X169812019Y-127221657D01*
X169764400Y-127364514D01*
X169669161Y-127459752D01*
X169573923Y-127507371D01*
X169383447Y-127554990D01*
X169240590Y-127554990D01*
X169050114Y-127507371D01*
X168954876Y-127459752D01*
X168859638Y-127364514D01*
X168812019Y-127221657D01*
X168812019Y-126983561D01*
X168716780Y-127745466D02*
X168716780Y-128507371D01*
X168907257Y-129316895D02*
X168859638Y-129269276D01*
X168812019Y-129126419D01*
X168812019Y-129031180D01*
X168859638Y-128888323D01*
X168954876Y-128793085D01*
X169050114Y-128745466D01*
X169240590Y-128697847D01*
X169383447Y-128697847D01*
X169573923Y-128745466D01*
X169669161Y-128793085D01*
X169764400Y-128888323D01*
X169812019Y-129031180D01*
X169812019Y-129126419D01*
X169764400Y-129269276D01*
X169716780Y-129316895D01*
X169097733Y-129697847D02*
X169097733Y-130174038D01*
X168812019Y-129602609D02*
X169812019Y-129935942D01*
X168812019Y-130269276D01*
X168812019Y-131174038D02*
X169288209Y-130840704D01*
X168812019Y-130602609D02*
X169812019Y-130602609D01*
X169812019Y-130983561D01*
X169764400Y-131078800D01*
X169716780Y-131126419D01*
X169621542Y-131174038D01*
X169478685Y-131174038D01*
X169383447Y-131126419D01*
X169335828Y-131078800D01*
X169288209Y-130983561D01*
X169288209Y-130602609D01*
X168812019Y-131602609D02*
X169812019Y-131602609D01*
X169812019Y-131840704D01*
X169764400Y-131983561D01*
X169669161Y-132078800D01*
X169573923Y-132126419D01*
X169383447Y-132174038D01*
X169240590Y-132174038D01*
X169050114Y-132126419D01*
X168954876Y-132078800D01*
X168859638Y-131983561D01*
X168812019Y-131840704D01*
X168812019Y-131602609D01*
%TO.C,D1*%
X161567904Y-72080380D02*
X161567904Y-71080380D01*
X161806000Y-71080380D01*
X161948857Y-71128000D01*
X162044095Y-71223238D01*
X162091714Y-71318476D01*
X162139333Y-71508952D01*
X162139333Y-71651809D01*
X162091714Y-71842285D01*
X162044095Y-71937523D01*
X161948857Y-72032761D01*
X161806000Y-72080380D01*
X161567904Y-72080380D01*
X163091714Y-72080380D02*
X162520285Y-72080380D01*
X162806000Y-72080380D02*
X162806000Y-71080380D01*
X162710761Y-71223238D01*
X162615523Y-71318476D01*
X162520285Y-71366095D01*
%TO.C,C5*%
X167219333Y-49633142D02*
X167171714Y-49680761D01*
X167028857Y-49728380D01*
X166933619Y-49728380D01*
X166790761Y-49680761D01*
X166695523Y-49585523D01*
X166647904Y-49490285D01*
X166600285Y-49299809D01*
X166600285Y-49156952D01*
X166647904Y-48966476D01*
X166695523Y-48871238D01*
X166790761Y-48776000D01*
X166933619Y-48728380D01*
X167028857Y-48728380D01*
X167171714Y-48776000D01*
X167219333Y-48823619D01*
X168124095Y-48728380D02*
X167647904Y-48728380D01*
X167600285Y-49204571D01*
X167647904Y-49156952D01*
X167743142Y-49109333D01*
X167981238Y-49109333D01*
X168076476Y-49156952D01*
X168124095Y-49204571D01*
X168171714Y-49299809D01*
X168171714Y-49537904D01*
X168124095Y-49633142D01*
X168076476Y-49680761D01*
X167981238Y-49728380D01*
X167743142Y-49728380D01*
X167647904Y-49680761D01*
X167600285Y-49633142D01*
%TO.C,R6*%
X147153333Y-99512380D02*
X146820000Y-99036190D01*
X146581904Y-99512380D02*
X146581904Y-98512380D01*
X146962857Y-98512380D01*
X147058095Y-98560000D01*
X147105714Y-98607619D01*
X147153333Y-98702857D01*
X147153333Y-98845714D01*
X147105714Y-98940952D01*
X147058095Y-98988571D01*
X146962857Y-99036190D01*
X146581904Y-99036190D01*
X148010476Y-98512380D02*
X147820000Y-98512380D01*
X147724761Y-98560000D01*
X147677142Y-98607619D01*
X147581904Y-98750476D01*
X147534285Y-98940952D01*
X147534285Y-99321904D01*
X147581904Y-99417142D01*
X147629523Y-99464761D01*
X147724761Y-99512380D01*
X147915238Y-99512380D01*
X148010476Y-99464761D01*
X148058095Y-99417142D01*
X148105714Y-99321904D01*
X148105714Y-99083809D01*
X148058095Y-98988571D01*
X148010476Y-98940952D01*
X147915238Y-98893333D01*
X147724761Y-98893333D01*
X147629523Y-98940952D01*
X147581904Y-98988571D01*
X147534285Y-99083809D01*
D12*
%TO.C,J7*%
X41400000Y-40100000D02*
X47670000Y-40100000D01*
X47670000Y-40100000D02*
X47670000Y-57100000D01*
X47670000Y-57100000D02*
X41400000Y-57100000D01*
X41400000Y-57100000D02*
X41400000Y-40100000D01*
X26400000Y-35550000D02*
X41320000Y-35550000D01*
X41320000Y-35550000D02*
X41320000Y-61712000D01*
X41320000Y-61712000D02*
X26400000Y-61712000D01*
X26400000Y-61712000D02*
X26400000Y-35550000D01*
%TO.C,U1*%
X105300000Y-160214000D02*
X105300000Y-180654000D01*
X106950000Y-160214000D02*
X105300000Y-160214000D01*
X110600000Y-160214000D02*
X108950000Y-160214000D01*
X105300000Y-180654000D02*
X110600000Y-180654000D01*
X110600000Y-180654000D02*
X110600000Y-160214000D01*
X106950000Y-160214000D02*
G75*
G03*
X108950000Y-160214000I1000000J0D01*
G01*
%TO.C,J9*%
X61137917Y-96065116D02*
X63797917Y-96065116D01*
X61137917Y-134225116D02*
X63797917Y-134225116D01*
X61137917Y-96065116D02*
X61137917Y-134225116D01*
X63797917Y-93465116D02*
X63797917Y-94795116D01*
X63797917Y-96065116D02*
X63797917Y-134225116D01*
X62467917Y-93465116D02*
X63797917Y-93465116D01*
%TO.C,XiaoNiuNiu*%
G36*
X40933299Y-172097022D02*
G01*
X41078618Y-172179551D01*
X41185562Y-172306690D01*
X41235231Y-172466477D01*
X41208725Y-172646954D01*
X41185699Y-172698371D01*
X41053140Y-172867545D01*
X40887271Y-172947983D01*
X40705995Y-172936836D01*
X40527213Y-172831255D01*
X40501810Y-172807190D01*
X40382634Y-172631103D01*
X40360984Y-172445477D01*
X40437743Y-172261326D01*
X40456086Y-172236679D01*
X40603133Y-172113626D01*
X40768504Y-172071060D01*
X40933299Y-172097022D01*
G37*
G36*
X42850839Y-175678115D02*
G01*
X42942060Y-175742289D01*
X42965355Y-175764988D01*
X43048094Y-175912293D01*
X43059267Y-176093429D01*
X43006136Y-176280055D01*
X42895962Y-176443829D01*
X42766208Y-176542202D01*
X42610087Y-176606465D01*
X42497905Y-176602618D01*
X42397847Y-176528438D01*
X42385980Y-176515629D01*
X42307862Y-176361170D01*
X42304896Y-176177193D01*
X42369080Y-175990435D01*
X42492411Y-175827633D01*
X42618934Y-175737324D01*
X42756327Y-175677514D01*
X42850839Y-175678115D01*
G37*
G36*
X43437193Y-172094861D02*
G01*
X43577534Y-172186252D01*
X43672572Y-172323163D01*
X43709058Y-172487356D01*
X43673741Y-172660589D01*
X43571588Y-172807190D01*
X43395574Y-172926128D01*
X43209042Y-172949163D01*
X43025186Y-172874698D01*
X43023554Y-172873559D01*
X42894673Y-172729514D01*
X42842322Y-172551457D01*
X42864601Y-172367953D01*
X42959609Y-172207568D01*
X43073596Y-172121603D01*
X43264797Y-172067232D01*
X43437193Y-172094861D01*
G37*
G36*
X35455449Y-175731373D02*
G01*
X35515442Y-174957230D01*
X35664608Y-174194502D01*
X35902053Y-173452706D01*
X36226880Y-172741360D01*
X36638195Y-172069980D01*
X36771178Y-171887221D01*
X36951259Y-171648783D01*
X36682912Y-171648041D01*
X36444114Y-171633113D01*
X36190613Y-171593595D01*
X35941949Y-171535517D01*
X35717663Y-171464908D01*
X35537298Y-171387798D01*
X35420395Y-171310218D01*
X35385514Y-171247687D01*
X35419062Y-171183464D01*
X35736897Y-171183464D01*
X35782711Y-171223498D01*
X35903837Y-171269032D01*
X36075799Y-171314535D01*
X36274121Y-171354475D01*
X36474327Y-171383320D01*
X36651941Y-171395538D01*
X36675462Y-171395591D01*
X36873137Y-171377839D01*
X37069734Y-171336304D01*
X37117332Y-171321051D01*
X37291409Y-171263086D01*
X37405976Y-171245421D01*
X37468131Y-171279544D01*
X37484970Y-171376942D01*
X37463593Y-171549104D01*
X37412844Y-171799376D01*
X37370856Y-172062105D01*
X37342291Y-172379271D01*
X37327535Y-172722533D01*
X37326977Y-173063551D01*
X37341003Y-173373987D01*
X37370001Y-173625499D01*
X37386773Y-173706886D01*
X37474372Y-173982212D01*
X37606794Y-174303808D01*
X37768218Y-174637933D01*
X37942819Y-174950849D01*
X38045846Y-175112211D01*
X38274803Y-175414919D01*
X38563545Y-175743936D01*
X38886618Y-176072525D01*
X39218569Y-176373949D01*
X39351126Y-176483314D01*
X39727608Y-176783830D01*
X39750947Y-176599170D01*
X40053704Y-176599170D01*
X40059247Y-176795888D01*
X40082480Y-176935067D01*
X40085380Y-176943179D01*
X40152016Y-177014093D01*
X40295603Y-177107008D01*
X40497412Y-177213522D01*
X40738713Y-177325231D01*
X41000778Y-177433735D01*
X41264875Y-177530631D01*
X41512275Y-177607517D01*
X41635118Y-177638383D01*
X41887785Y-177665217D01*
X42194849Y-177651767D01*
X42519785Y-177600312D01*
X42618492Y-177576986D01*
X42841349Y-177509658D01*
X43095480Y-177417202D01*
X43352953Y-177311452D01*
X43585833Y-177204244D01*
X43766188Y-177107412D01*
X43834024Y-177061983D01*
X43926533Y-176932778D01*
X43975497Y-176738402D01*
X43981941Y-176503639D01*
X43946893Y-176253278D01*
X43871378Y-176012103D01*
X43783569Y-175844036D01*
X43523310Y-175532361D01*
X43202348Y-175287805D01*
X42835563Y-175111409D01*
X42437833Y-175004211D01*
X42024037Y-174967250D01*
X41609054Y-175001566D01*
X41207764Y-175108197D01*
X40835044Y-175288183D01*
X40505774Y-175542563D01*
X40438925Y-175610448D01*
X40303694Y-175768990D01*
X40189276Y-175927741D01*
X40126184Y-176040525D01*
X40088875Y-176183814D01*
X40064148Y-176382587D01*
X40053704Y-176599170D01*
X39750947Y-176599170D01*
X39764155Y-176494668D01*
X39809351Y-176272505D01*
X39882469Y-176037604D01*
X39922800Y-175938806D01*
X40143549Y-175571855D01*
X40443497Y-175263923D01*
X40824403Y-175013502D01*
X41187351Y-174854013D01*
X41482248Y-174779927D01*
X41832833Y-174743171D01*
X42201597Y-174743744D01*
X42551030Y-174781647D01*
X42835850Y-174854013D01*
X43265938Y-175052770D01*
X43628133Y-175307326D01*
X43915512Y-175609825D01*
X44121151Y-175952409D01*
X44238124Y-176327221D01*
X44257022Y-176466596D01*
X44276715Y-176625679D01*
X44300347Y-176735202D01*
X44319414Y-176768941D01*
X44369261Y-176738540D01*
X44479603Y-176655654D01*
X44634391Y-176532757D01*
X44817572Y-176382324D01*
X44827216Y-176374280D01*
X45356070Y-175882766D01*
X45806494Y-175358958D01*
X46173016Y-174811052D01*
X46450164Y-174247243D01*
X46632466Y-173675726D01*
X46634298Y-173667801D01*
X46664182Y-173462127D01*
X46680278Y-173184687D01*
X46683023Y-172863097D01*
X46672854Y-172524973D01*
X46650209Y-172197931D01*
X46615524Y-171909588D01*
X46605521Y-171849573D01*
X46559660Y-171580359D01*
X46539315Y-171397952D01*
X46551200Y-171290539D01*
X46602026Y-171246307D01*
X46698507Y-171253446D01*
X46847356Y-171300142D01*
X46905869Y-171321051D01*
X47087210Y-171367236D01*
X47292575Y-171393510D01*
X47347739Y-171395591D01*
X47519767Y-171386390D01*
X47718113Y-171359720D01*
X47918301Y-171321112D01*
X48095856Y-171276099D01*
X48226301Y-171230213D01*
X48285162Y-171188984D01*
X48286304Y-171183464D01*
X48248406Y-171113369D01*
X48146166Y-171000062D01*
X47996763Y-170858924D01*
X47817379Y-170705337D01*
X47625192Y-170554682D01*
X47437383Y-170422341D01*
X47432944Y-170419434D01*
X46971004Y-170169305D01*
X46481163Y-170008883D01*
X46127806Y-169947731D01*
X45912882Y-169927390D01*
X45770025Y-169929292D01*
X45673105Y-169954768D01*
X45640145Y-169972610D01*
X45517300Y-170027081D01*
X45432793Y-170042459D01*
X45387095Y-170051954D01*
X45356888Y-170092828D01*
X45337530Y-170183660D01*
X45324377Y-170343031D01*
X45316216Y-170508955D01*
X45289789Y-170819805D01*
X45235942Y-171050912D01*
X45145985Y-171221166D01*
X45011226Y-171349457D01*
X44897964Y-171417997D01*
X44656192Y-171501813D01*
X44353603Y-171541008D01*
X44009579Y-171539546D01*
X43643503Y-171501390D01*
X43274755Y-171430506D01*
X42922717Y-171330856D01*
X42606771Y-171206407D01*
X42346298Y-171061120D01*
X42160681Y-170898962D01*
X42124545Y-170850747D01*
X42028443Y-170619461D01*
X42013519Y-170357386D01*
X42075745Y-170086824D01*
X42211095Y-169830082D01*
X42335597Y-169681955D01*
X42448017Y-169599847D01*
X42621293Y-169506548D01*
X42820405Y-169420642D01*
X42845936Y-169411142D01*
X43138722Y-169292433D01*
X43336231Y-169179598D01*
X43442470Y-169063630D01*
X43461448Y-168935522D01*
X43397173Y-168786269D01*
X43253653Y-168606865D01*
X43219906Y-168570877D01*
X42972480Y-168311503D01*
X42215591Y-168293042D01*
X41462932Y-168307575D01*
X40779701Y-168390307D01*
X40160771Y-168542199D01*
X39601014Y-168764214D01*
X39537797Y-168795502D01*
X39421302Y-168859413D01*
X39380937Y-168907690D01*
X39401913Y-168967280D01*
X39424852Y-169001299D01*
X39491893Y-169177279D01*
X39490831Y-169390389D01*
X39427923Y-169610307D01*
X39309423Y-169806709D01*
X39244651Y-169874828D01*
X39048477Y-169993904D01*
X38805940Y-170055809D01*
X38559313Y-170050523D01*
X38529277Y-170044405D01*
X38393408Y-170005203D01*
X38300969Y-169963775D01*
X38289976Y-169955142D01*
X38212218Y-169934071D01*
X38061907Y-169935261D01*
X37863574Y-169955413D01*
X37641752Y-169991224D01*
X37420973Y-170039394D01*
X37225770Y-170096619D01*
X37217727Y-170099444D01*
X37016768Y-170184574D01*
X36786645Y-170302473D01*
X36590257Y-170419434D01*
X36402774Y-170551127D01*
X36210488Y-170701515D01*
X36030580Y-170855215D01*
X35880229Y-170996846D01*
X35776617Y-171111027D01*
X35736922Y-171182374D01*
X35736897Y-171183464D01*
X35419062Y-171183464D01*
X35420252Y-171181187D01*
X35515244Y-171062750D01*
X35656656Y-170908186D01*
X35830653Y-170733309D01*
X35861589Y-170703546D01*
X36101457Y-170482154D01*
X36305619Y-170315314D01*
X36503815Y-170181443D01*
X36725784Y-170058961D01*
X36802795Y-170020555D01*
X37081927Y-169898451D01*
X37360475Y-169802436D01*
X37616747Y-169737928D01*
X37829052Y-169710344D01*
X37975698Y-169725103D01*
X37979769Y-169726603D01*
X38036578Y-169731722D01*
X38038035Y-169711624D01*
X38006883Y-169647187D01*
X37944111Y-169518128D01*
X37862167Y-169350033D01*
X37845304Y-169315478D01*
X37702359Y-168948784D01*
X37653635Y-168680337D01*
X37645843Y-168515142D01*
X37659531Y-168417075D01*
X37704804Y-168353517D01*
X37769526Y-168306270D01*
X37861138Y-168256859D01*
X37955785Y-168241111D01*
X38090631Y-168256315D01*
X38189337Y-168275629D01*
X38380370Y-168329130D01*
X38609883Y-168413119D01*
X38828492Y-168509508D01*
X38830385Y-168510438D01*
X39188102Y-168686463D01*
X39511680Y-168539746D01*
X40174048Y-168291818D01*
X40877792Y-168124968D01*
X41606423Y-168039221D01*
X42343450Y-168034601D01*
X43072384Y-168111130D01*
X43776734Y-168268834D01*
X44440012Y-168507735D01*
X44495622Y-168532537D01*
X44803301Y-168672045D01*
X45126719Y-168505442D01*
X45445844Y-168363233D01*
X45730863Y-168279832D01*
X45971173Y-168256005D01*
X46156176Y-168292523D01*
X46275270Y-168390153D01*
X46292050Y-168420949D01*
X46318830Y-168577134D01*
X46294757Y-168794697D01*
X46224645Y-169051471D01*
X46113310Y-169325286D01*
X46081583Y-169389908D01*
X46004258Y-169566508D01*
X45977192Y-169686756D01*
X46000734Y-169740496D01*
X46070226Y-169720737D01*
X46171841Y-169704021D01*
X46342968Y-169723869D01*
X46562019Y-169774655D01*
X46807406Y-169850750D01*
X47057543Y-169946529D01*
X47220406Y-170020555D01*
X47455550Y-170143859D01*
X47657847Y-170271967D01*
X47857035Y-170426460D01*
X48082856Y-170628919D01*
X48161612Y-170703546D01*
X48339662Y-170880258D01*
X48487414Y-171039270D01*
X48591034Y-171164770D01*
X48636686Y-171240945D01*
X48637687Y-171247687D01*
X48591061Y-171320587D01*
X48464265Y-171398376D01*
X48276925Y-171474974D01*
X48048664Y-171544298D01*
X47799108Y-171600268D01*
X47547881Y-171636803D01*
X47345682Y-171648041D01*
X47082728Y-171648783D01*
X47353899Y-172026715D01*
X47779992Y-172706344D01*
X48119738Y-173437019D01*
X48372856Y-174218103D01*
X48445286Y-174523417D01*
X48514178Y-174954580D01*
X48552910Y-175443955D01*
X48561555Y-175958406D01*
X48540184Y-176464798D01*
X48488868Y-176929997D01*
X48439497Y-177194562D01*
X48209906Y-177998028D01*
X47897082Y-178745820D01*
X47499568Y-179440502D01*
X47015907Y-180084637D01*
X46475186Y-180652198D01*
X46018107Y-181082472D01*
X46122466Y-181229031D01*
X46302022Y-181554114D01*
X46421212Y-181925715D01*
X46460595Y-182190285D01*
X46464202Y-182438904D01*
X46423504Y-182617353D01*
X46325691Y-182750789D01*
X46157950Y-182864370D01*
X46102707Y-182893052D01*
X46018847Y-182933122D01*
X45938351Y-182963864D01*
X45846496Y-182986750D01*
X45728559Y-183003253D01*
X45569816Y-183014846D01*
X45355543Y-183023001D01*
X45071017Y-183029192D01*
X44701514Y-183034890D01*
X44681890Y-183035169D01*
X44149993Y-183038214D01*
X43708813Y-183029558D01*
X43349149Y-183007258D01*
X43061799Y-182969370D01*
X42837560Y-182913952D01*
X42667232Y-182839060D01*
X42541610Y-182742749D01*
X42451494Y-182623077D01*
X42418289Y-182557085D01*
X42373506Y-182468631D01*
X42319925Y-182422482D01*
X42227719Y-182406564D01*
X42067063Y-182408802D01*
X42053242Y-182409299D01*
X41885773Y-182419114D01*
X41787192Y-182443301D01*
X41725998Y-182497091D01*
X41671652Y-182593776D01*
X41541481Y-182759527D01*
X41332388Y-182885932D01*
X41036734Y-182977277D01*
X40960438Y-182992880D01*
X40797645Y-183012475D01*
X40557569Y-183026759D01*
X40259796Y-183035905D01*
X39923911Y-183040082D01*
X39569500Y-183039463D01*
X39216148Y-183034218D01*
X38883442Y-183024518D01*
X38590966Y-183010534D01*
X38358307Y-182992437D01*
X38205051Y-182970399D01*
X38197978Y-182968755D01*
X37941167Y-182877012D01*
X37769586Y-182740232D01*
X37673810Y-182546835D01*
X37644407Y-182288634D01*
X37675280Y-181981734D01*
X37759111Y-181666329D01*
X37882716Y-181386366D01*
X37944460Y-181288318D01*
X38052064Y-181137202D01*
X37455102Y-180546846D01*
X37024278Y-180092402D01*
X36667099Y-179649337D01*
X36364125Y-179191414D01*
X36125135Y-178751747D01*
X35819474Y-178027118D01*
X35606570Y-177275834D01*
X35549868Y-176915869D01*
X35755355Y-176915869D01*
X35766945Y-177000446D01*
X35798809Y-177149375D01*
X35845071Y-177346214D01*
X36055089Y-178029697D01*
X36351475Y-178700759D01*
X36723099Y-179341352D01*
X37158830Y-179933426D01*
X37647540Y-180458933D01*
X37907091Y-180690091D01*
X38199270Y-180933245D01*
X38449250Y-180753652D01*
X38846729Y-180525812D01*
X39266011Y-180391084D01*
X39694573Y-180348468D01*
X40119894Y-180396965D01*
X40529451Y-180535574D01*
X40910723Y-180763297D01*
X41148049Y-180969146D01*
X41375539Y-181242289D01*
X41555565Y-181549944D01*
X41670832Y-181859866D01*
X41697156Y-181992883D01*
X41723634Y-182190285D01*
X42042352Y-182190285D01*
X42216033Y-182187738D01*
X42314623Y-182173436D01*
X42363414Y-182137382D01*
X42387695Y-182069581D01*
X42391635Y-182052241D01*
X42500480Y-181670201D01*
X42649489Y-181355666D01*
X42855201Y-181078563D01*
X43018803Y-180912062D01*
X43366227Y-180650545D01*
X43757568Y-180466720D01*
X44173424Y-180366524D01*
X44594394Y-180355890D01*
X44762705Y-180378565D01*
X44983872Y-180434548D01*
X45219727Y-180518707D01*
X45441537Y-180618258D01*
X45620567Y-180720415D01*
X45722825Y-180805754D01*
X45803894Y-180872028D01*
X45893773Y-180865025D01*
X46015838Y-180781297D01*
X46042052Y-180758674D01*
X46131203Y-180669406D01*
X46151305Y-180601042D01*
X46118146Y-180521822D01*
X46089475Y-180419112D01*
X46063984Y-180221108D01*
X46042149Y-179932873D01*
X46024447Y-179559473D01*
X46022466Y-179504712D01*
X46010436Y-179179939D01*
X45998059Y-178933489D01*
X45981905Y-178743337D01*
X45958543Y-178587457D01*
X45924542Y-178443824D01*
X45876471Y-178290413D01*
X45810899Y-178105199D01*
X45799620Y-178074079D01*
X45689462Y-177741130D01*
X45626060Y-177473780D01*
X45604571Y-177254356D01*
X45607621Y-177082128D01*
X45631516Y-176972126D01*
X45689870Y-176886441D01*
X45761198Y-176818225D01*
X45912673Y-176708277D01*
X46091601Y-176633733D01*
X46318778Y-176589441D01*
X46614999Y-176570249D01*
X46769438Y-176568430D01*
X47041603Y-176559392D01*
X47260570Y-176534406D01*
X47396908Y-176498575D01*
X47502223Y-176431974D01*
X47650170Y-176311301D01*
X47816349Y-176157219D01*
X47900773Y-176071895D01*
X48051744Y-175919819D01*
X48180590Y-175799970D01*
X48269716Y-175728196D01*
X48297234Y-175714791D01*
X48323799Y-175668527D01*
X48333488Y-175542059D01*
X48327847Y-175353877D01*
X48308421Y-175122466D01*
X48276757Y-174866314D01*
X48234400Y-174603909D01*
X48183733Y-174357331D01*
X48135014Y-174152750D01*
X48093779Y-173988524D01*
X48065694Y-173886758D01*
X48057488Y-173864846D01*
X48004047Y-173848469D01*
X47876725Y-173821078D01*
X47700697Y-173787991D01*
X47658719Y-173780612D01*
X47454904Y-173737269D01*
X47274946Y-173685071D01*
X47154838Y-173634618D01*
X47147408Y-173630014D01*
X47082731Y-173581602D01*
X47046334Y-173525018D01*
X47032416Y-173434513D01*
X47035178Y-173284337D01*
X47041996Y-173162075D01*
X47081725Y-172841137D01*
X47160310Y-172594590D01*
X47177143Y-172560023D01*
X47237197Y-172415714D01*
X47262162Y-172297301D01*
X47258046Y-172260220D01*
X47211545Y-172175009D01*
X47130630Y-172054620D01*
X47035847Y-171926430D01*
X46947740Y-171817816D01*
X46886853Y-171756155D01*
X46875718Y-171750730D01*
X46866250Y-171794385D01*
X46873953Y-171908353D01*
X46888485Y-172012716D01*
X46921367Y-172294389D01*
X46939143Y-172622216D01*
X46942238Y-172967928D01*
X46931079Y-173303258D01*
X46906096Y-173599938D01*
X46867713Y-173829701D01*
X46860600Y-173857478D01*
X46644844Y-174461929D01*
X46334646Y-175050740D01*
X45935556Y-175617240D01*
X45453128Y-176154757D01*
X44892912Y-176656622D01*
X44260459Y-177116162D01*
X44025487Y-177264296D01*
X43829189Y-177375330D01*
X43600651Y-177491963D01*
X43361952Y-177604384D01*
X43135168Y-177702782D01*
X42942380Y-177777347D01*
X42805666Y-177818267D01*
X42767950Y-177823091D01*
X42705402Y-177864981D01*
X42646045Y-177962146D01*
X42614723Y-178071829D01*
X42613972Y-178088098D01*
X42645719Y-178153880D01*
X42731155Y-178273503D01*
X42855568Y-178427319D01*
X42945282Y-178530628D01*
X43157988Y-178783313D01*
X43301192Y-178990150D01*
X43384131Y-179167574D01*
X43416041Y-179332019D01*
X43417134Y-179370182D01*
X43370330Y-179570111D01*
X43243047Y-179753723D01*
X43054978Y-179911395D01*
X42825815Y-180033505D01*
X42575252Y-180110429D01*
X42322980Y-180132546D01*
X42088693Y-180090232D01*
X42011703Y-180056938D01*
X41837091Y-179922121D01*
X41680940Y-179721637D01*
X41569672Y-179489900D01*
X41564680Y-179474756D01*
X41459745Y-179222363D01*
X41308313Y-178990979D01*
X41100114Y-178771223D01*
X40824876Y-178553715D01*
X40472329Y-178329074D01*
X40064638Y-178104783D01*
X39728270Y-177919758D01*
X39483817Y-177763018D01*
X39327706Y-177631857D01*
X39256361Y-177523567D01*
X39250731Y-177488349D01*
X39277997Y-177357566D01*
X39344824Y-177205544D01*
X39428757Y-177076794D01*
X39484466Y-177025055D01*
X39548660Y-176977862D01*
X39525788Y-176940121D01*
X39488151Y-176916469D01*
X39258062Y-176755180D01*
X38989381Y-176528947D01*
X38699921Y-176255880D01*
X38407498Y-175954087D01*
X38129925Y-175641677D01*
X37885018Y-175336758D01*
X37752368Y-175152020D01*
X37611651Y-174912956D01*
X37465420Y-174611803D01*
X37329034Y-174284669D01*
X37217854Y-173967667D01*
X37161095Y-173761943D01*
X37125655Y-173539992D01*
X37101982Y-173250087D01*
X37090509Y-172924026D01*
X37091667Y-172593607D01*
X37105891Y-172290630D01*
X37133611Y-172046894D01*
X37137464Y-172025275D01*
X37163081Y-171874786D01*
X37169279Y-171783073D01*
X37150089Y-171754450D01*
X37099538Y-171793232D01*
X37011658Y-171903731D01*
X36880477Y-172090262D01*
X36720633Y-172326451D01*
X36457175Y-172744645D01*
X36248096Y-173140229D01*
X36071216Y-173555537D01*
X36056878Y-173593309D01*
X35980881Y-173808746D01*
X35948312Y-173954434D01*
X35961440Y-174052191D01*
X36022530Y-174123838D01*
X36118139Y-174182816D01*
X36315130Y-174321907D01*
X36505661Y-174512453D01*
X36664363Y-174724173D01*
X36765864Y-174926789D01*
X36779147Y-174971723D01*
X36810291Y-175123505D01*
X36846327Y-175335804D01*
X36880730Y-175569391D01*
X36889363Y-175634672D01*
X36924335Y-175861016D01*
X36967044Y-176071158D01*
X37009840Y-176228960D01*
X37022154Y-176262143D01*
X37136097Y-176463947D01*
X37284309Y-176628851D01*
X37441070Y-176729771D01*
X37477463Y-176741552D01*
X37599902Y-176819796D01*
X37693206Y-176970114D01*
X37755737Y-177168632D01*
X37785854Y-177391478D01*
X37781917Y-177614778D01*
X37742286Y-177814659D01*
X37665321Y-177967248D01*
X37566861Y-178042897D01*
X37433196Y-178072434D01*
X37289601Y-178055544D01*
X37125368Y-177986246D01*
X36929791Y-177858559D01*
X36692165Y-177666502D01*
X36401782Y-177404094D01*
X36369950Y-177374242D01*
X36177076Y-177195874D01*
X36008055Y-177045163D01*
X35877059Y-176934320D01*
X35798257Y-176875554D01*
X35783977Y-176869336D01*
X35761785Y-176878035D01*
X35755355Y-176915869D01*
X35549868Y-176915869D01*
X35485527Y-176507413D01*
X35455449Y-175731373D01*
G37*
G36*
X41369256Y-175709135D02*
G01*
X41541726Y-175815334D01*
X41668669Y-175971154D01*
X41741133Y-176151713D01*
X41750167Y-176332127D01*
X41686820Y-176487514D01*
X41660217Y-176517953D01*
X41527809Y-176604128D01*
X41386546Y-176597713D01*
X41223720Y-176497943D01*
X41215641Y-176491211D01*
X41086360Y-176341143D01*
X40999966Y-176160728D01*
X40971290Y-175986653D01*
X40982723Y-175915032D01*
X41068829Y-175781346D01*
X41204431Y-175704626D01*
X41353837Y-175703886D01*
X41369256Y-175709135D01*
G37*
%TO.C,RV1*%
X58847000Y-78208117D02*
X58847000Y-79994117D01*
X58847000Y-80984117D02*
X58847000Y-82948117D01*
X51897000Y-82948117D02*
X58847000Y-82948117D01*
X51897000Y-78208117D02*
X58847000Y-78208117D01*
X51897000Y-80984117D02*
X51897000Y-82948117D01*
X51897000Y-78208117D02*
X51897000Y-79994117D01*
%TO.C,J15*%
X95510000Y-121160000D02*
X98100800Y-121160000D01*
X98100800Y-128830800D02*
X75139200Y-128830800D01*
X98100800Y-121160000D02*
X98100800Y-128830800D01*
X98110000Y-118560000D02*
X98110000Y-119890000D01*
X75139200Y-118569200D02*
X75139200Y-128830800D01*
X95510000Y-118560000D02*
X95510000Y-121160000D01*
X95510000Y-118560000D02*
X75139200Y-118569200D01*
X96780000Y-118560000D02*
X98110000Y-118560000D01*
%TO.C,U5*%
X102167200Y-152917200D02*
X102167200Y-142637200D01*
X102167200Y-142637200D02*
X100517200Y-142637200D01*
X96867200Y-142637200D02*
X96867200Y-152917200D01*
X96867200Y-152917200D02*
X102167200Y-152917200D01*
X98517200Y-142637200D02*
X96867200Y-142637200D01*
X98517200Y-142637200D02*
G75*
G03*
X100517200Y-142637200I1000000J0D01*
G01*
%TO.C,R5*%
X144050000Y-103732000D02*
X150590000Y-103732000D01*
X143280000Y-102362000D02*
X144050000Y-102362000D01*
X151360000Y-102362000D02*
X150590000Y-102362000D01*
X150590000Y-100992000D02*
X144050000Y-100992000D01*
X144050000Y-100992000D02*
X144050000Y-103732000D01*
X150590000Y-103732000D02*
X150590000Y-100992000D01*
%TO.C,U2*%
X137812000Y-72450000D02*
X143112000Y-72450000D01*
X137812000Y-36770000D02*
X137812000Y-72450000D01*
X143112000Y-36770000D02*
X141462000Y-36770000D01*
X143112000Y-72450000D02*
X143112000Y-36770000D01*
X139462000Y-36770000D02*
X137812000Y-36770000D01*
X139462000Y-36770000D02*
G75*
G03*
X141462000Y-36770000I1000000J0D01*
G01*
%TO.C,R3*%
X144050000Y-110590000D02*
X150590000Y-110590000D01*
X150590000Y-107850000D02*
X144050000Y-107850000D01*
X144050000Y-107850000D02*
X144050000Y-110590000D01*
X143280000Y-109220000D02*
X144050000Y-109220000D01*
X151360000Y-109220000D02*
X150590000Y-109220000D01*
X150590000Y-110590000D02*
X150590000Y-107850000D01*
%TO.C,R2*%
X153316000Y-57690000D02*
X153316000Y-64230000D01*
X156056000Y-57690000D02*
X153316000Y-57690000D01*
X156056000Y-64230000D02*
X156056000Y-57690000D01*
X154686000Y-56920000D02*
X154686000Y-57690000D01*
X153316000Y-64230000D02*
X156056000Y-64230000D01*
X154686000Y-65000000D02*
X154686000Y-64230000D01*
%TO.C,R10*%
X116516400Y-153312800D02*
X123056400Y-153312800D01*
X123826400Y-151942800D02*
X123056400Y-151942800D01*
X116516400Y-150572800D02*
X116516400Y-153312800D01*
X115746400Y-151942800D02*
X116516400Y-151942800D01*
X123056400Y-153312800D02*
X123056400Y-150572800D01*
X123056400Y-150572800D02*
X116516400Y-150572800D01*
%TO.C,C4*%
X160936000Y-57504000D02*
X166176000Y-57504000D01*
X160936000Y-54764000D02*
X160936000Y-57504000D01*
X166176000Y-54764000D02*
X166176000Y-57504000D01*
X160936000Y-54764000D02*
X166176000Y-54764000D01*
%TO.C,C19*%
X107592800Y-150186400D02*
X104852800Y-150186400D01*
X107592800Y-150186400D02*
X107592800Y-155426400D01*
X107592800Y-155426400D02*
X104852800Y-155426400D01*
X104852800Y-150186400D02*
X104852800Y-155426400D01*
%TO.C,C1*%
X110390000Y-156872000D02*
X110390000Y-159612000D01*
X115630000Y-156872000D02*
X115630000Y-159612000D01*
X110390000Y-159612000D02*
X115630000Y-159612000D01*
X110390000Y-156872000D02*
X115630000Y-156872000D01*
%TO.C,R11*%
X115797200Y-144322800D02*
X116567200Y-144322800D01*
X116567200Y-145692800D02*
X123107200Y-145692800D01*
X116567200Y-142952800D02*
X116567200Y-145692800D01*
X123877200Y-144322800D02*
X123107200Y-144322800D01*
X123107200Y-145692800D02*
X123107200Y-142952800D01*
X123107200Y-142952800D02*
X116567200Y-142952800D01*
%TO.C,R4*%
X150590000Y-107034000D02*
X150590000Y-104294000D01*
X150590000Y-104294000D02*
X144050000Y-104294000D01*
X144050000Y-107034000D02*
X150590000Y-107034000D01*
X144050000Y-104294000D02*
X144050000Y-107034000D01*
X143280000Y-105664000D02*
X144050000Y-105664000D01*
X151360000Y-105664000D02*
X150590000Y-105664000D01*
%TO.C,C20*%
X107531400Y-144128513D02*
X108586400Y-144128513D01*
X108021400Y-143608513D02*
X108586400Y-143608513D01*
X107115400Y-145049513D02*
X108586400Y-145049513D01*
X107244400Y-144648513D02*
X108586400Y-144648513D01*
X107158400Y-144888513D02*
X108586400Y-144888513D01*
X107171400Y-144848513D02*
X108586400Y-144848513D01*
X110666400Y-143608513D02*
X111231400Y-143608513D01*
X107135400Y-144969513D02*
X108586400Y-144969513D01*
X110666400Y-145409513D02*
X112195400Y-145409513D01*
X107228400Y-144688513D02*
X108586400Y-144688513D01*
X110666400Y-145249513D02*
X112176400Y-145249513D01*
X110666400Y-144448513D02*
X111916400Y-144448513D01*
X107070400Y-145289513D02*
X108586400Y-145289513D01*
X110666400Y-143688513D02*
X111325400Y-143688513D01*
X107973400Y-143648513D02*
X108586400Y-143648513D01*
X107061400Y-145369513D02*
X108586400Y-145369513D01*
X107426400Y-144288513D02*
X108586400Y-144288513D01*
X110666400Y-144208513D02*
X111775400Y-144208513D01*
X110666400Y-143528513D02*
X111126400Y-143528513D01*
X110666400Y-144768513D02*
X112054400Y-144768513D01*
X110666400Y-144488513D02*
X111936400Y-144488513D01*
X110666400Y-143928513D02*
X111563400Y-143928513D01*
X107591400Y-144048513D02*
X108586400Y-144048513D01*
X107090400Y-145169513D02*
X108586400Y-145169513D01*
X110666400Y-143728513D02*
X111369400Y-143728513D01*
X107841400Y-143768513D02*
X108586400Y-143768513D01*
X107725400Y-143888513D02*
X108586400Y-143888513D01*
X110666400Y-145049513D02*
X112137400Y-145049513D01*
X110666400Y-144048513D02*
X111661400Y-144048513D01*
X110666400Y-144368513D02*
X111873400Y-144368513D01*
X110666400Y-145169513D02*
X112162400Y-145169513D01*
X110666400Y-145129513D02*
X112154400Y-145129513D01*
X110666400Y-144168513D02*
X111748400Y-144168513D01*
X110666400Y-144088513D02*
X111691400Y-144088513D01*
X110666400Y-143568513D02*
X111180400Y-143568513D01*
X108375400Y-143368513D02*
X108586400Y-143368513D01*
X107762400Y-143848513D02*
X108586400Y-143848513D01*
X110666400Y-144568513D02*
X111974400Y-144568513D01*
X108821400Y-143168513D02*
X110431400Y-143168513D01*
X108183400Y-143488513D02*
X108586400Y-143488513D01*
X107098400Y-145129513D02*
X108586400Y-145129513D01*
X108448400Y-143328513D02*
X110804400Y-143328513D01*
X107655400Y-143968513D02*
X108586400Y-143968513D01*
X107198400Y-144768513D02*
X108586400Y-144768513D01*
X110666400Y-144408513D02*
X111894400Y-144408513D01*
X109108400Y-143088513D02*
X110144400Y-143088513D01*
X108243400Y-143448513D02*
X108586400Y-143448513D01*
X107477400Y-144208513D02*
X108586400Y-144208513D01*
X108949400Y-143128513D02*
X110303400Y-143128513D01*
X110666400Y-144008513D02*
X111630400Y-144008513D01*
X110666400Y-145209513D02*
X112169400Y-145209513D01*
X110666400Y-144969513D02*
X112117400Y-144969513D01*
X110666400Y-144248513D02*
X111801400Y-144248513D01*
X110666400Y-144888513D02*
X112094400Y-144888513D01*
X110666400Y-145009513D02*
X112127400Y-145009513D01*
X107212400Y-144728513D02*
X108586400Y-144728513D01*
X109342400Y-143048513D02*
X109910400Y-143048513D01*
X110666400Y-145369513D02*
X112191400Y-145369513D01*
X110666400Y-144128513D02*
X111721400Y-144128513D01*
X107402400Y-144328513D02*
X108586400Y-144328513D01*
X107883400Y-143728513D02*
X108586400Y-143728513D01*
X108072400Y-143568513D02*
X108586400Y-143568513D01*
X107451400Y-144248513D02*
X108586400Y-144248513D01*
X107125400Y-145009513D02*
X108586400Y-145009513D01*
X110666400Y-144608513D02*
X111991400Y-144608513D01*
X110666400Y-143968513D02*
X111597400Y-143968513D01*
X107927400Y-143688513D02*
X108586400Y-143688513D01*
X108615400Y-143248513D02*
X110637400Y-143248513D01*
X107048400Y-145529513D02*
X112204400Y-145529513D01*
X110666400Y-144648513D02*
X112008400Y-144648513D01*
X107261400Y-144608513D02*
X108586400Y-144608513D01*
X110666400Y-145289513D02*
X112182400Y-145289513D01*
X107047400Y-145569513D02*
X112205400Y-145569513D01*
X107057400Y-145409513D02*
X108586400Y-145409513D01*
X108307400Y-143408513D02*
X108586400Y-143408513D01*
X110666400Y-144848513D02*
X112081400Y-144848513D01*
X107106400Y-145089513D02*
X108586400Y-145089513D01*
X107065400Y-145329513D02*
X108586400Y-145329513D01*
X107504400Y-144168513D02*
X108586400Y-144168513D01*
X107379400Y-144368513D02*
X108586400Y-144368513D01*
X107622400Y-144008513D02*
X108586400Y-144008513D01*
X107050400Y-145489513D02*
X112202400Y-145489513D01*
X110666400Y-143888513D02*
X111527400Y-143888513D01*
X108126400Y-143528513D02*
X108586400Y-143528513D01*
X107297400Y-144528513D02*
X108586400Y-144528513D01*
X110666400Y-144288513D02*
X111826400Y-144288513D01*
X107278400Y-144568513D02*
X108586400Y-144568513D01*
X107046400Y-145649513D02*
X112206400Y-145649513D01*
X107358400Y-144408513D02*
X108586400Y-144408513D01*
X110666400Y-144328513D02*
X111850400Y-144328513D01*
X110666400Y-143848513D02*
X111490400Y-143848513D01*
X110666400Y-145329513D02*
X112187400Y-145329513D01*
X110666400Y-143488513D02*
X111069400Y-143488513D01*
X110666400Y-143368513D02*
X110877400Y-143368513D01*
X110666400Y-144528513D02*
X111955400Y-144528513D01*
X110666400Y-143648513D02*
X111279400Y-143648513D01*
X110666400Y-143768513D02*
X111411400Y-143768513D01*
X110666400Y-144928513D02*
X112106400Y-144928513D01*
X110666400Y-144688513D02*
X112024400Y-144688513D01*
X110666400Y-143808513D02*
X111452400Y-143808513D01*
X110666400Y-143448513D02*
X111009400Y-143448513D01*
X108151400Y-148454288D02*
X108151400Y-147954288D01*
X110666400Y-144808513D02*
X112068400Y-144808513D01*
X110666400Y-143408513D02*
X110945400Y-143408513D01*
X108711400Y-143208513D02*
X110541400Y-143208513D01*
X107316400Y-144488513D02*
X108586400Y-144488513D01*
X107901400Y-148204288D02*
X108401400Y-148204288D01*
X108528400Y-143288513D02*
X110724400Y-143288513D01*
X107053400Y-145449513D02*
X112199400Y-145449513D01*
X107146400Y-144928513D02*
X108586400Y-144928513D01*
X107561400Y-144088513D02*
X108586400Y-144088513D01*
X107076400Y-145249513D02*
X108586400Y-145249513D01*
X107184400Y-144808513D02*
X108586400Y-144808513D01*
X107689400Y-143928513D02*
X108586400Y-143928513D01*
X107800400Y-143808513D02*
X108586400Y-143808513D01*
X110666400Y-144728513D02*
X112040400Y-144728513D01*
X107336400Y-144448513D02*
X108586400Y-144448513D01*
X107046400Y-145609513D02*
X112206400Y-145609513D01*
X107083400Y-145209513D02*
X108586400Y-145209513D01*
X110666400Y-145089513D02*
X112146400Y-145089513D01*
X112246400Y-145649513D02*
G75*
G03*
X112246400Y-145649513I-2620000J0D01*
G01*
%TO.C,R9*%
X116567200Y-146813600D02*
X116567200Y-149553600D01*
X115797200Y-148183600D02*
X116567200Y-148183600D01*
X123877200Y-148183600D02*
X123107200Y-148183600D01*
X123107200Y-149553600D02*
X123107200Y-146813600D01*
X123107200Y-146813600D02*
X116567200Y-146813600D01*
X116567200Y-149553600D02*
X123107200Y-149553600D01*
%TO.C,J1*%
X38944000Y-66546000D02*
X38944000Y-82746000D01*
X25944000Y-66546000D02*
X25944000Y-82746000D01*
X38944000Y-66546000D02*
X25944000Y-66546000D01*
X38944000Y-82746000D02*
X25944000Y-82746000D01*
%TO.C,Q1*%
X128350848Y-160228499D02*
X127438681Y-159316331D01*
X127360899Y-161218448D02*
X128350848Y-160228499D01*
X126448731Y-160306281D02*
X127360899Y-161218448D01*
X127438550Y-159316544D02*
G75*
G03*
X126448731Y-160306281I-2572150J1582544D01*
G01*
%TO.C,J12*%
X170166000Y-45168000D02*
X166166000Y-45168000D01*
X151926000Y-37028000D02*
X166166000Y-37028000D01*
X166166000Y-37028000D02*
X166166000Y-38928000D01*
X170166000Y-38928000D02*
X170166000Y-45168000D01*
X166166000Y-38928000D02*
X170166000Y-38928000D01*
X151926000Y-45468000D02*
X151926000Y-37028000D01*
X166166000Y-45168000D02*
X166166000Y-45468000D01*
X166166000Y-45468000D02*
X151926000Y-45468000D01*
%TO.C,J11*%
X131142000Y-172358000D02*
X130072000Y-172358000D01*
X117882000Y-179179000D02*
X116761000Y-179179000D01*
X121447000Y-173958000D02*
X121447000Y-175164667D01*
X121927000Y-173958000D02*
X121927000Y-175164667D01*
X122047000Y-177578000D02*
X122047000Y-173958000D01*
X122047000Y-175164667D02*
X120777000Y-175164667D01*
X119507000Y-175164667D02*
X118237000Y-175164667D01*
X126167000Y-173958000D02*
X126167000Y-175164667D01*
X121567000Y-173958000D02*
X121567000Y-175164667D01*
X128467000Y-173958000D02*
X128467000Y-175164667D01*
X126767000Y-173958000D02*
X126767000Y-175164667D01*
X123627000Y-173958000D02*
X123627000Y-175164667D01*
X124587000Y-173958000D02*
X123317000Y-173958000D01*
X118787000Y-173958000D02*
X118787000Y-175164667D01*
X123317000Y-177578000D02*
X124587000Y-177578000D01*
X120422000Y-179179000D02*
X119862000Y-179179000D01*
X128042000Y-179179000D02*
X127481000Y-179179000D01*
X124587000Y-175164667D02*
X123317000Y-175164667D01*
X124107000Y-173958000D02*
X124107000Y-175164667D01*
X119507000Y-173958000D02*
X118237000Y-173958000D01*
X118237000Y-173958000D02*
X118237000Y-177578000D01*
X131142000Y-179179000D02*
X130022000Y-179179000D01*
X121327000Y-173958000D02*
X121327000Y-175164667D01*
X119147000Y-173958000D02*
X119147000Y-175164667D01*
X129667000Y-173958000D02*
X128397000Y-173958000D01*
X119267000Y-173958000D02*
X119267000Y-175164667D01*
X118907000Y-173958000D02*
X118907000Y-175164667D01*
X120967000Y-173958000D02*
X120967000Y-175164667D01*
X131382000Y-172118000D02*
X130072000Y-172118000D01*
X121687000Y-173958000D02*
X121687000Y-175164667D01*
X120422000Y-172358000D02*
X119862000Y-172358000D01*
X127127000Y-177578000D02*
X127127000Y-173958000D01*
X128707000Y-173958000D02*
X128707000Y-175164667D01*
X126887000Y-173958000D02*
X126887000Y-175164667D01*
X125927000Y-173958000D02*
X125927000Y-175164667D01*
X117882000Y-172358000D02*
X116761000Y-172358000D01*
X125857000Y-173958000D02*
X125857000Y-177578000D01*
X128587000Y-173958000D02*
X128587000Y-175164667D01*
X116761000Y-172358000D02*
X116761000Y-179179000D01*
X120777000Y-177578000D02*
X122047000Y-177578000D01*
X118547000Y-173958000D02*
X118547000Y-175164667D01*
X129067000Y-173958000D02*
X129067000Y-175164667D01*
X122962000Y-172358000D02*
X122401000Y-172358000D01*
X128397000Y-173958000D02*
X128397000Y-177578000D01*
X118237000Y-177578000D02*
X119507000Y-177578000D01*
X125502000Y-179179000D02*
X124941000Y-179179000D01*
X119507000Y-177578000D02*
X119507000Y-173958000D01*
X127127000Y-173958000D02*
X125857000Y-173958000D01*
X129307000Y-173958000D02*
X129307000Y-175164667D01*
X126527000Y-173958000D02*
X126527000Y-175164667D01*
X122047000Y-173958000D02*
X120777000Y-173958000D01*
X124467000Y-173958000D02*
X124467000Y-175164667D01*
X127007000Y-173958000D02*
X127007000Y-175164667D01*
X126407000Y-173958000D02*
X126407000Y-175164667D01*
X123987000Y-173958000D02*
X123987000Y-175164667D01*
X128397000Y-177578000D02*
X129667000Y-177578000D01*
X118307000Y-173958000D02*
X118307000Y-175164667D01*
X126047000Y-173958000D02*
X126047000Y-175164667D01*
X119027000Y-173958000D02*
X119027000Y-175164667D01*
X121807000Y-173958000D02*
X121807000Y-175164667D01*
X123317000Y-173958000D02*
X123317000Y-177578000D01*
X131382000Y-172118000D02*
X131382000Y-173501000D01*
X123387000Y-173958000D02*
X123387000Y-175164667D01*
X122962000Y-179179000D02*
X122401000Y-179179000D01*
X121087000Y-173958000D02*
X121087000Y-175164667D01*
X129667000Y-175164667D02*
X128397000Y-175164667D01*
X128947000Y-173958000D02*
X128947000Y-175164667D01*
X125857000Y-177578000D02*
X127127000Y-177578000D01*
X124587000Y-177578000D02*
X124587000Y-173958000D01*
X123867000Y-173958000D02*
X123867000Y-175164667D01*
X125502000Y-172358000D02*
X124941000Y-172358000D01*
X131142000Y-172358000D02*
X131142000Y-179179000D01*
X123747000Y-173958000D02*
X123747000Y-175164667D01*
X129427000Y-173958000D02*
X129427000Y-175164667D01*
X129667000Y-177578000D02*
X129667000Y-173958000D01*
X124227000Y-173958000D02*
X124227000Y-175164667D01*
X127127000Y-175164667D02*
X125857000Y-175164667D01*
X126287000Y-173958000D02*
X126287000Y-175164667D01*
X118427000Y-173958000D02*
X118427000Y-175164667D01*
X128827000Y-173958000D02*
X128827000Y-175164667D01*
X123507000Y-173958000D02*
X123507000Y-175164667D01*
X119387000Y-173958000D02*
X119387000Y-175164667D01*
X120777000Y-173958000D02*
X120777000Y-177578000D01*
X126647000Y-173958000D02*
X126647000Y-175164667D01*
X118667000Y-173958000D02*
X118667000Y-175164667D01*
X127992000Y-172358000D02*
X127481000Y-172358000D01*
X120847000Y-173958000D02*
X120847000Y-175164667D01*
X129187000Y-173958000D02*
X129187000Y-175164667D01*
X124347000Y-173958000D02*
X124347000Y-175164667D01*
X121207000Y-173958000D02*
X121207000Y-175164667D01*
X129547000Y-173958000D02*
X129547000Y-175164667D01*
%TO.C,J8*%
X135474400Y-97891600D02*
X135474400Y-96561600D01*
X138134400Y-99161600D02*
X138134400Y-101761600D01*
X135474400Y-99161600D02*
X138134400Y-99161600D01*
X135474400Y-101761600D02*
X138134400Y-101761600D01*
X135474400Y-96561600D02*
X136804400Y-96561600D01*
X135474400Y-99161600D02*
X135474400Y-101761600D01*
%TO.C,C3*%
X134956622Y-57252146D02*
X132216622Y-57252146D01*
X134956622Y-52012146D02*
X134956622Y-57252146D01*
X132216622Y-52012146D02*
X132216622Y-57252146D01*
X134956622Y-52012146D02*
X132216622Y-52012146D01*
%TO.C,J13*%
X97999200Y-105869200D02*
X97999200Y-116130800D01*
X120960800Y-108460000D02*
X120960800Y-116130800D01*
X118370000Y-108460000D02*
X120960800Y-108460000D01*
X118370000Y-105860000D02*
X97999200Y-105869200D01*
X120960800Y-116130800D02*
X97999200Y-116130800D01*
X120970000Y-105860000D02*
X120970000Y-107190000D01*
X118370000Y-105860000D02*
X118370000Y-108460000D01*
X119640000Y-105860000D02*
X120970000Y-105860000D01*
%TO.C,J17*%
X156118675Y-96831000D02*
X155685662Y-97081000D01*
X156580000Y-85661000D02*
X170470000Y-85661000D01*
X155685662Y-97081000D02*
X155685662Y-96581000D01*
X170470000Y-116631000D02*
X156580000Y-116631000D01*
X155685662Y-96581000D02*
X156118675Y-96831000D01*
X156580000Y-116631000D02*
X156580000Y-85661000D01*
%TO.C,J14*%
X98100800Y-116130800D02*
X75139200Y-116130800D01*
X75139200Y-105869200D02*
X75139200Y-116130800D01*
X95510000Y-108460000D02*
X98100800Y-108460000D01*
X96780000Y-105860000D02*
X98110000Y-105860000D01*
X98100800Y-108460000D02*
X98100800Y-116130800D01*
X98110000Y-105860000D02*
X98110000Y-107190000D01*
X95510000Y-105860000D02*
X95510000Y-108460000D01*
X95510000Y-105860000D02*
X75139200Y-105869200D01*
%TO.C,X1*%
X79466000Y-173074000D02*
X99616000Y-173074000D01*
X100366000Y-172324000D02*
X100366000Y-160924000D01*
X79466000Y-160924000D02*
X79466000Y-173074000D01*
X99616000Y-160174000D02*
X80216000Y-160174000D01*
X80216000Y-160174000D02*
G75*
G03*
X79466000Y-160924000I0J-750000D01*
G01*
X100366000Y-160924000D02*
G75*
G03*
X99616000Y-160174000I-750000J0D01*
G01*
X99616000Y-173074000D02*
G75*
G03*
X100366000Y-172324000I0J750000D01*
G01*
%TO.C,J16*%
X118370000Y-118560000D02*
X97999200Y-118569200D01*
X97999200Y-118569200D02*
X97999200Y-128830800D01*
X118370000Y-118560000D02*
X118370000Y-121160000D01*
X119640000Y-118560000D02*
X120970000Y-118560000D01*
X120960800Y-128830800D02*
X97999200Y-128830800D01*
X120970000Y-118560000D02*
X120970000Y-119890000D01*
X120960800Y-121160000D02*
X120960800Y-128830800D01*
X118370000Y-121160000D02*
X120960800Y-121160000D01*
%TO.C,R8*%
X150590000Y-91086000D02*
X144050000Y-91086000D01*
X144050000Y-93826000D02*
X150590000Y-93826000D01*
X144050000Y-91086000D02*
X144050000Y-93826000D01*
X143280000Y-92456000D02*
X144050000Y-92456000D01*
X150590000Y-93826000D02*
X150590000Y-91086000D01*
X151360000Y-92456000D02*
X150590000Y-92456000D01*
%TO.C,R1*%
X161766000Y-79402000D02*
X155226000Y-79402000D01*
X155226000Y-82142000D02*
X161766000Y-82142000D01*
X155226000Y-79402000D02*
X155226000Y-82142000D01*
X154456000Y-80772000D02*
X155226000Y-80772000D01*
X161766000Y-82142000D02*
X161766000Y-79402000D01*
X162536000Y-80772000D02*
X161766000Y-80772000D01*
%TO.C,R7*%
X150590000Y-97128000D02*
X150590000Y-94388000D01*
X144050000Y-94388000D02*
X144050000Y-97128000D01*
X151360000Y-95758000D02*
X150590000Y-95758000D01*
X150590000Y-94388000D02*
X144050000Y-94388000D01*
X144050000Y-97128000D02*
X150590000Y-97128000D01*
X143280000Y-95758000D02*
X144050000Y-95758000D01*
%TO.C,C2*%
X151210000Y-57420000D02*
G75*
G03*
X151210000Y-57420000I-2620000J0D01*
G01*
%TO.C,C18*%
X88457600Y-145083112D02*
X93609600Y-145083112D01*
X88472600Y-144923112D02*
X89993600Y-144923112D01*
X90118600Y-142802112D02*
X91948600Y-142802112D01*
X89096600Y-143522112D02*
X89993600Y-143522112D01*
X88483600Y-144843112D02*
X89993600Y-144843112D01*
X89428600Y-143202112D02*
X89993600Y-143202112D01*
X90228600Y-142762112D02*
X91838600Y-142762112D01*
X92073600Y-144282112D02*
X93431600Y-144282112D01*
X92073600Y-143522112D02*
X92970600Y-143522112D01*
X92073600Y-144122112D02*
X93362600Y-144122112D01*
X88651600Y-144242112D02*
X89993600Y-144242112D01*
X88453600Y-145243112D02*
X93613600Y-145243112D01*
X88765600Y-144002112D02*
X89993600Y-144002112D01*
X88723600Y-144082112D02*
X89993600Y-144082112D01*
X89650600Y-143042112D02*
X89993600Y-143042112D01*
X89590600Y-143082112D02*
X89993600Y-143082112D01*
X92073600Y-144603112D02*
X93534600Y-144603112D01*
X88605600Y-144362112D02*
X89993600Y-144362112D01*
X88619600Y-144322112D02*
X89993600Y-144322112D01*
X92073600Y-144002112D02*
X93301600Y-144002112D01*
X89782600Y-142962112D02*
X89993600Y-142962112D01*
X89207600Y-143402112D02*
X89993600Y-143402112D01*
X92073600Y-144763112D02*
X93569600Y-144763112D01*
X90515600Y-142682112D02*
X91551600Y-142682112D01*
X89248600Y-143362112D02*
X89993600Y-143362112D01*
X92073600Y-142962112D02*
X92284600Y-142962112D01*
X92073600Y-144322112D02*
X93447600Y-144322112D01*
X88505600Y-144723112D02*
X89993600Y-144723112D01*
X88685600Y-144162112D02*
X89993600Y-144162112D01*
X92073600Y-144482112D02*
X93501600Y-144482112D01*
X88542600Y-144563112D02*
X89993600Y-144563112D01*
X88477600Y-144883112D02*
X89993600Y-144883112D01*
X92073600Y-143282112D02*
X92732600Y-143282112D01*
X88553600Y-144522112D02*
X89993600Y-144522112D01*
X88513600Y-144683112D02*
X89993600Y-144683112D01*
X92073600Y-143802112D02*
X93182600Y-143802112D01*
X92073600Y-144843112D02*
X93583600Y-144843112D01*
X92073600Y-144923112D02*
X93594600Y-144923112D01*
X92073600Y-143362112D02*
X92818600Y-143362112D01*
X88968600Y-143682112D02*
X89993600Y-143682112D01*
X92073600Y-144402112D02*
X93475600Y-144402112D01*
X92073600Y-143922112D02*
X93257600Y-143922112D01*
X89558600Y-148047887D02*
X89558600Y-147547887D01*
X89714600Y-143002112D02*
X89993600Y-143002112D01*
X88743600Y-144042112D02*
X89993600Y-144042112D01*
X92073600Y-144242112D02*
X93415600Y-144242112D01*
X88522600Y-144643112D02*
X89993600Y-144643112D01*
X90356600Y-142722112D02*
X91710600Y-142722112D01*
X88704600Y-144122112D02*
X89993600Y-144122112D01*
X89290600Y-143322112D02*
X89993600Y-143322112D01*
X92073600Y-144162112D02*
X93381600Y-144162112D01*
X92073600Y-143562112D02*
X93004600Y-143562112D01*
X92073600Y-144082112D02*
X93343600Y-144082112D01*
X88911600Y-143762112D02*
X89993600Y-143762112D01*
X88455600Y-145123112D02*
X93611600Y-145123112D01*
X88668600Y-144202112D02*
X89993600Y-144202112D01*
X92073600Y-144563112D02*
X93524600Y-144563112D01*
X92073600Y-144522112D02*
X93513600Y-144522112D01*
X89062600Y-143562112D02*
X89993600Y-143562112D01*
X92073600Y-143602112D02*
X93037600Y-143602112D01*
X92073600Y-143642112D02*
X93068600Y-143642112D01*
X92073600Y-144362112D02*
X93461600Y-144362112D01*
X90749600Y-142642112D02*
X91317600Y-142642112D01*
X88453600Y-145203112D02*
X93613600Y-145203112D01*
X92073600Y-143122112D02*
X92533600Y-143122112D01*
X88809600Y-143922112D02*
X89993600Y-143922112D01*
X92073600Y-145003112D02*
X93602600Y-145003112D01*
X92073600Y-143842112D02*
X93208600Y-143842112D01*
X92073600Y-144883112D02*
X93589600Y-144883112D01*
X90022600Y-142842112D02*
X92044600Y-142842112D01*
X88938600Y-143722112D02*
X89993600Y-143722112D01*
X88858600Y-143842112D02*
X89993600Y-143842112D01*
X92073600Y-143402112D02*
X92859600Y-143402112D01*
X92073600Y-143482112D02*
X92934600Y-143482112D01*
X89855600Y-142922112D02*
X92211600Y-142922112D01*
X92073600Y-144723112D02*
X93561600Y-144723112D01*
X92073600Y-143202112D02*
X92638600Y-143202112D01*
X89308600Y-147797887D02*
X89808600Y-147797887D01*
X92073600Y-144643112D02*
X93544600Y-144643112D01*
X88635600Y-144282112D02*
X89993600Y-144282112D01*
X92073600Y-143042112D02*
X92416600Y-143042112D01*
X88565600Y-144482112D02*
X89993600Y-144482112D01*
X88490600Y-144803112D02*
X89993600Y-144803112D01*
X89132600Y-143482112D02*
X89993600Y-143482112D01*
X88833600Y-143882112D02*
X89993600Y-143882112D01*
X92073600Y-143082112D02*
X92476600Y-143082112D01*
X92073600Y-143882112D02*
X93233600Y-143882112D01*
X92073600Y-143442112D02*
X92897600Y-143442112D01*
X92073600Y-144442112D02*
X93488600Y-144442112D01*
X92073600Y-144803112D02*
X93576600Y-144803112D01*
X88884600Y-143802112D02*
X89993600Y-143802112D01*
X92073600Y-143762112D02*
X93155600Y-143762112D01*
X92073600Y-143002112D02*
X92352600Y-143002112D01*
X88532600Y-144603112D02*
X89993600Y-144603112D01*
X92073600Y-143322112D02*
X92776600Y-143322112D01*
X88591600Y-144402112D02*
X89993600Y-144402112D01*
X88578600Y-144442112D02*
X89993600Y-144442112D01*
X88454600Y-145163112D02*
X93612600Y-145163112D01*
X89169600Y-143442112D02*
X89993600Y-143442112D01*
X92073600Y-143162112D02*
X92587600Y-143162112D01*
X88497600Y-144763112D02*
X89993600Y-144763112D01*
X89029600Y-143602112D02*
X89993600Y-143602112D01*
X88460600Y-145043112D02*
X93606600Y-145043112D01*
X88998600Y-143642112D02*
X89993600Y-143642112D01*
X89380600Y-143242112D02*
X89993600Y-143242112D01*
X92073600Y-143722112D02*
X93128600Y-143722112D01*
X92073600Y-144202112D02*
X93398600Y-144202112D01*
X88464600Y-145003112D02*
X89993600Y-145003112D01*
X92073600Y-143242112D02*
X92686600Y-143242112D01*
X88786600Y-143962112D02*
X89993600Y-143962112D01*
X89533600Y-143122112D02*
X89993600Y-143122112D01*
X88468600Y-144963112D02*
X89993600Y-144963112D01*
X92073600Y-144683112D02*
X93553600Y-144683112D01*
X89334600Y-143282112D02*
X89993600Y-143282112D01*
X92073600Y-144042112D02*
X93323600Y-144042112D01*
X89935600Y-142882112D02*
X92131600Y-142882112D01*
X89479600Y-143162112D02*
X89993600Y-143162112D01*
X92073600Y-144963112D02*
X93598600Y-144963112D01*
X92073600Y-143962112D02*
X93280600Y-143962112D01*
X92073600Y-143682112D02*
X93098600Y-143682112D01*
X93653600Y-145243112D02*
G75*
G03*
X93653600Y-145243112I-2620000J0D01*
G01*
%TO.C,J18*%
X167598400Y-121656800D02*
X167598400Y-122986800D01*
X166268400Y-121656800D02*
X167598400Y-121656800D01*
X164938400Y-124256800D02*
X167598400Y-124256800D01*
X164938400Y-124256800D02*
X164938400Y-137016800D01*
X164938400Y-137016800D02*
X167598400Y-137016800D01*
X167598400Y-124256800D02*
X167598400Y-137016800D01*
%TO.C,D1*%
X164866000Y-77491000D02*
X164866000Y-74401000D01*
X164866000Y-74401170D02*
G75*
G03*
X159316000Y-75946462I-2560000J-1544830D01*
G01*
X159316000Y-75945538D02*
G75*
G03*
X164866000Y-77490830I2990000J-462D01*
G01*
X164806000Y-75946000D02*
G75*
G03*
X164806000Y-75946000I-2500000J0D01*
G01*
%TO.C,C5*%
X166180000Y-49276000D02*
G75*
G03*
X166180000Y-49276000I-2620000J0D01*
G01*
%TO.C,R6*%
X144050000Y-100430000D02*
X150590000Y-100430000D01*
X150590000Y-100430000D02*
X150590000Y-97690000D01*
X143280000Y-99060000D02*
X144050000Y-99060000D01*
X151360000Y-99060000D02*
X150590000Y-99060000D01*
X150590000Y-97690000D02*
X144050000Y-97690000D01*
X144050000Y-97690000D02*
X144050000Y-100430000D01*
%TD*%
M02*
