M48
; DRILL file {KiCad (6.0.0-rc2-14-ga17a58203b)} date Tue 07 Jun 2022 09:36:24 PM CST
; FORMAT={-:-/ absolute / inch / decimal}
; #@! TF.CreationDate,2022-06-07T21:36:24+08:00
; #@! TF.GenerationSoftware,Kicad,Pcbnew,(6.0.0-rc2-14-ga17a58203b)
; #@! TF.FileFunction,Plated,1,2,PTH
FMAT,2
INCH
; #@! TA.AperFunction,Plated,PTH,ViaDrill
T1C0.0118
; #@! TA.AperFunction,Plated,PTH,ViaDrill
T2C0.0157
; #@! TA.AperFunction,Plated,PTH,ComponentDrill
T3C0.0276
; #@! TA.AperFunction,Plated,PTH,ComponentDrill
T4C0.0315
; #@! TA.AperFunction,Plated,PTH,ComponentDrill
T5C0.0354
; #@! TA.AperFunction,Plated,PTH,ComponentDrill
T6C0.0394
; #@! TA.AperFunction,Plated,PTH,ComponentDrill
T7C0.0472
; #@! TA.AperFunction,Plated,PTH,ComponentDrill
T8C0.1260
%
G90
G05
T1
X2.95Y-3.31
X2.96Y-3.79
X2.98Y-2.98
X2.9952Y-1.3
X3.0Y-3.34
X3.0Y-3.88
X3.0252Y-1.4
X3.03Y-3.61
X3.05Y-3.64
X3.0552Y-1.5
X3.06Y-3.76
X3.08Y-3.67
X3.0852Y-1.6
X3.1Y-3.85
X3.1052Y-1.7
X3.11Y-3.7
X3.13Y-3.73
X3.1352Y-1.8
X3.1652Y-1.9
X3.1852Y-2.0
X3.19Y-3.76
X3.2Y-3.82
X3.22Y-3.79
X3.26Y-3.73
X3.3Y-3.79
X3.36Y-3.7
X3.4Y-3.76
X3.41Y-3.31
X3.44Y-2.98
X3.4552Y-2.1
X3.46Y-3.34
X3.46Y-3.67
X3.4852Y-2.2
X3.49Y-3.58
X3.5Y-3.73
X3.5152Y-2.3
X3.52Y-3.55
X3.54Y-3.52
X3.5452Y-2.4
X3.56Y-3.64
X3.57Y-3.49
X3.5752Y-2.5
X3.59Y-3.46
X3.5952Y-2.6
X3.6Y-3.7
X3.62Y-3.43
X3.6252Y-2.7
X3.6452Y-2.8
X3.65Y-3.4
X3.66Y-3.61
X3.68Y-3.37
X3.7Y-3.67
X4.23Y-3.972
X4.33Y-3.34
X4.39Y-4.12
X4.54Y-2.7
X4.54Y-2.98
X4.54Y-3.93
X4.57Y-2.2
X4.57Y-3.34
X4.85Y-2.6
X4.86Y-4.06
X4.88Y-3.64
X4.89Y-1.3
X4.92Y-1.4
X4.92Y-3.34
X4.92Y-4.06
X4.92Y-4.42
X4.92Y-5.118
X4.95Y-1.5
X4.98Y-1.6
X5.01Y-1.7
X5.02Y-3.37
X5.04Y-1.8
X5.05Y-3.4
X5.07Y-1.9
X5.08Y-3.43
X5.1Y-2.0
X5.1Y-3.46
X5.13Y-3.49
X5.15Y-3.52
X5.18Y-3.55
X5.21Y-3.58
X5.24Y-3.61
X5.51Y-2.95
T2
X2.89Y-2.88
X3.35Y-2.88
X4.16Y-3.9
X4.22Y-3.9
X4.41Y-3.9
X4.92Y-2.99
T3
X4.866Y-6.21
X4.916Y-6.16
X4.966Y-6.21
T4
X1.36Y-2.805
X1.36Y-2.8876
X1.36Y-2.99
X1.36Y-3.0727
X1.4702Y-2.805
X1.4702Y-3.0727
X2.08Y-3.1688
X2.18Y-3.1688
X2.28Y-3.1688
X3.24Y-6.41
X3.24Y-6.71
X3.584Y-5.669
X3.584Y-5.7674
X3.768Y-5.668
X3.768Y-5.768
X3.768Y-5.868
X3.768Y-5.968
X3.84Y-6.41
X3.84Y-6.71
X4.068Y-5.668
X4.068Y-5.768
X4.068Y-5.868
X4.068Y-5.968
X4.1Y-6.36
X4.1Y-6.46
X4.1Y-6.56
X4.1Y-6.66
X4.1Y-6.76
X4.1Y-6.86
X4.1Y-6.96
X4.1Y-7.06
X4.182Y-5.9668
X4.182Y-6.0652
X4.316Y-5.685
X4.316Y-5.7834
X4.4Y-6.23
X4.4Y-6.36
X4.4Y-6.46
X4.4Y-6.56
X4.4Y-6.66
X4.4Y-6.76
X4.4Y-6.86
X4.4Y-6.96
X4.4Y-7.06
X4.4984Y-6.23
X4.516Y-5.982
X4.518Y-5.682
X4.518Y-5.834
X4.68Y-6.77
X4.68Y-7.07
X4.78Y-6.77
X4.78Y-7.07
X4.88Y-6.77
X4.88Y-7.07
X4.916Y-5.982
X4.918Y-5.682
X4.918Y-5.834
X4.98Y-6.77
X4.98Y-7.07
X5.08Y-6.77
X5.08Y-7.07
X5.2593Y-2.1017
X5.2593Y-2.2001
X5.38Y-1.5
X5.38Y-1.6
X5.38Y-1.7
X5.38Y-1.8
X5.38Y-1.9
X5.38Y-2.0
X5.38Y-2.1
X5.38Y-2.2
X5.38Y-2.3
X5.38Y-2.4
X5.38Y-2.5
X5.38Y-2.6
X5.38Y-2.7
X5.38Y-2.8
X5.6Y-3.64
X5.6Y-3.77
X5.6Y-3.9
X5.6Y-4.03
X5.6Y-4.16
X5.6Y-4.3
X5.68Y-1.5
X5.68Y-1.6
X5.68Y-1.7
X5.68Y-1.8
X5.68Y-1.9
X5.68Y-2.0
X5.68Y-2.1
X5.68Y-2.2
X5.68Y-2.3
X5.68Y-2.4
X5.68Y-2.5
X5.68Y-2.6
X5.68Y-2.7
X5.68Y-2.8
X5.85Y-2.2213
X5.85Y-2.3
X6.0Y-3.64
X6.0Y-3.77
X6.0Y-3.9
X6.0Y-4.03
X6.0Y-4.16
X6.0Y-4.3
X6.04Y-3.18
X6.09Y-2.2
X6.09Y-2.6
X6.39Y-2.21
X6.4Y-1.94
X6.44Y-3.18
X6.4787Y-1.94
X6.4884Y-2.21
T5
X6.34Y-2.99
X6.44Y-2.99
T6
X1.2835Y-5.4148
X1.2835Y-5.5148
X1.2835Y-5.6148
X1.2835Y-5.7148
X1.2835Y-5.8148
X1.2835Y-5.9148
X1.2835Y-6.0148
X1.2835Y-6.1148
X1.2835Y-6.2148
X1.2835Y-6.3148
X1.2835Y-4.0148
X1.2835Y-4.1148
X1.2854Y-4.315
X1.2854Y-4.415
X1.2854Y-4.515
X1.2854Y-4.615
X1.2854Y-4.715
X1.2854Y-4.815
X1.2854Y-4.915
X1.2854Y-5.015
X1.2854Y-5.115
X1.2854Y-5.215
X2.4594Y-3.7321
X2.4594Y-3.8321
X2.4594Y-3.9321
X2.4594Y-4.0321
X2.4594Y-4.1321
X2.4594Y-4.2321
X2.4594Y-4.3321
X2.4594Y-4.4321
X2.4594Y-4.5321
X2.4594Y-4.6321
X2.4594Y-4.7321
X2.4594Y-4.8321
X2.4594Y-4.9321
X2.4594Y-5.0321
X2.4594Y-5.1321
X2.4594Y-5.2321
X2.49Y-1.3
X2.49Y-1.4
X2.49Y-1.5
X2.49Y-1.6
X2.49Y-1.7
X2.49Y-1.8
X2.49Y-1.9
X2.49Y-2.0
X2.49Y-2.1
X2.49Y-2.2
X2.49Y-2.3
X2.49Y-2.4
X2.49Y-2.5
X2.49Y-2.6
X2.49Y-2.7
X2.49Y-2.8
X2.59Y-1.3
X2.59Y-1.4
X2.59Y-1.5
X2.59Y-1.6
X2.59Y-1.7
X2.59Y-1.8
X2.59Y-1.9
X2.59Y-2.0
X2.59Y-2.1
X2.59Y-2.2
X2.59Y-2.3
X2.59Y-2.4
X2.59Y-2.5
X2.59Y-2.6
X2.59Y-2.7
X2.59Y-2.8
X3.0102Y-4.2201
X3.0102Y-4.3201
X3.0102Y-4.4201
X3.0102Y-4.5201
X3.0102Y-4.7201
X3.0102Y-4.8201
X3.0102Y-4.9201
X3.0102Y-5.0201
X3.1102Y-4.2201
X3.1102Y-4.3201
X3.1102Y-4.4201
X3.1102Y-4.5201
X3.1102Y-4.7201
X3.1102Y-4.8201
X3.1102Y-4.9201
X3.1102Y-5.0201
X3.1921Y-7.063
X3.2102Y-4.2201
X3.2102Y-4.3201
X3.2102Y-4.4201
X3.2102Y-4.5201
X3.2102Y-4.7201
X3.2102Y-4.8201
X3.2102Y-4.9201
X3.2102Y-5.0201
X3.2921Y-7.063
X3.3102Y-4.2201
X3.3102Y-4.3201
X3.3102Y-4.4201
X3.3102Y-4.5201
X3.3102Y-4.7201
X3.3102Y-4.8201
X3.3102Y-4.9201
X3.3102Y-5.0201
X3.3921Y-7.063
X3.4102Y-4.2201
X3.4102Y-4.3201
X3.4102Y-4.4201
X3.4102Y-4.5201
X3.4102Y-4.7201
X3.4102Y-4.8201
X3.4102Y-4.9201
X3.4102Y-5.0201
X3.4921Y-7.063
X3.5102Y-4.2201
X3.5102Y-4.3201
X3.5102Y-4.4201
X3.5102Y-4.5201
X3.5102Y-4.7201
X3.5102Y-4.8201
X3.5102Y-4.9201
X3.5102Y-5.0201
X3.6102Y-4.2201
X3.6102Y-4.3201
X3.6102Y-4.4201
X3.6102Y-4.5201
X3.6102Y-4.7201
X3.6102Y-4.8201
X3.6102Y-4.9201
X3.6102Y-5.0201
X3.7102Y-4.2201
X3.7102Y-4.3201
X3.7102Y-4.4201
X3.7102Y-4.5201
X3.7102Y-4.7201
X3.7102Y-4.8201
X3.7102Y-4.9201
X3.7102Y-5.0201
X3.8102Y-4.2201
X3.8102Y-4.3201
X3.8102Y-4.4201
X3.8102Y-4.5201
X3.8102Y-4.7201
X3.8102Y-4.8201
X3.8102Y-4.9201
X3.8102Y-5.0201
X3.9102Y-4.2201
X3.9102Y-4.3201
X3.9102Y-4.4201
X3.9102Y-4.5201
X3.9102Y-4.7201
X3.9102Y-4.8201
X3.9102Y-4.9201
X3.9102Y-5.0201
X4.0102Y-4.2201
X4.0102Y-4.3201
X4.0102Y-4.4201
X4.0102Y-4.5201
X4.0102Y-4.7201
X4.0102Y-4.8201
X4.0102Y-4.9201
X4.0102Y-5.0201
X4.1102Y-4.2201
X4.1102Y-4.3201
X4.1102Y-4.4201
X4.1102Y-4.5201
X4.1102Y-4.7201
X4.1102Y-4.8201
X4.1102Y-4.9201
X4.1102Y-5.0201
X4.2102Y-4.2201
X4.2102Y-4.3201
X4.2102Y-4.4201
X4.2102Y-4.5201
X4.2102Y-4.7201
X4.2102Y-4.8201
X4.2102Y-4.9201
X4.2102Y-5.0201
X4.3102Y-4.2201
X4.3102Y-4.3201
X4.3102Y-4.4201
X4.3102Y-4.5201
X4.3102Y-4.7201
X4.3102Y-4.8201
X4.3102Y-4.9201
X4.3102Y-5.0201
X4.33Y-1.3
X4.33Y-1.4
X4.33Y-1.5
X4.33Y-1.6
X4.33Y-1.7
X4.33Y-1.8
X4.33Y-1.9
X4.33Y-2.0
X4.33Y-2.1
X4.33Y-2.2
X4.33Y-2.3
X4.33Y-2.4
X4.33Y-2.5
X4.33Y-2.6
X4.33Y-2.7
X4.33Y-2.8
X4.4102Y-4.2201
X4.4102Y-4.3201
X4.4102Y-4.4201
X4.4102Y-4.5201
X4.4102Y-4.7201
X4.4102Y-4.8201
X4.4102Y-4.9201
X4.4102Y-5.0201
X4.43Y-1.3
X4.43Y-1.4
X4.43Y-1.5
X4.43Y-1.6
X4.43Y-1.7
X4.43Y-1.8
X4.43Y-1.9
X4.43Y-2.0
X4.43Y-2.1
X4.43Y-2.2
X4.43Y-2.3
X4.43Y-2.4
X4.43Y-2.5
X4.43Y-2.6
X4.43Y-2.7
X4.43Y-2.8
X4.5102Y-4.2201
X4.5102Y-4.3201
X4.5102Y-4.4201
X4.5102Y-4.5201
X4.5102Y-4.7201
X4.5102Y-4.8201
X4.5102Y-4.9201
X4.5102Y-5.0201
X4.6102Y-4.2201
X4.6102Y-4.3201
X4.6102Y-4.4201
X4.6102Y-4.5201
X4.6102Y-4.7201
X4.6102Y-4.8201
X4.6102Y-4.9201
X4.6102Y-5.0201
X4.7102Y-4.2201
X4.7102Y-4.3201
X4.7102Y-4.4201
X4.7102Y-4.5201
X4.7102Y-4.7201
X4.7102Y-4.8201
X4.7102Y-4.9201
X4.7102Y-5.0201
X5.386Y-3.854
X5.386Y-3.954
X6.2173Y-3.8122
X6.2173Y-3.9024
X6.2173Y-3.9926
X6.2173Y-4.0827
X6.2173Y-4.1729
X6.3071Y-3.7672
X6.3071Y-3.8573
X6.3071Y-3.9475
X6.3071Y-4.0376
X6.3071Y-4.1278
X6.3984Y-3.8122
X6.3984Y-3.9024
X6.3984Y-3.9926
X6.3984Y-4.0827
X6.3984Y-4.1729
X6.546Y-4.842
X6.546Y-4.942
X6.546Y-5.042
X6.546Y-5.142
X6.546Y-5.242
X6.546Y-5.342
T7
X1.7087Y-1.6772
X1.7087Y-1.8346
X1.7087Y-1.9921
X1.8268Y-1.6772
X1.8268Y-1.8346
X1.8268Y-1.9921
X1.8268Y-2.1496
T8
X1.2005Y-1.1959
X1.2005Y-7.1014
X3.1729Y-5.7235
X6.285Y-3.49
X6.285Y-4.4743
X6.5154Y-1.1959
X6.5154Y-7.1014
X6.5194Y-5.7235
T6
G00X1.2163Y-2.8994
M15
G01X1.2163Y-2.9782
M16
G05
G00X1.2773Y-2.6691
M15
G01X1.2183Y-2.6691
M16
G05
G00X1.2773Y-3.2085
M15
G01X1.2183Y-3.2085
M16
G05
G00X6.179Y-1.6791
M15
G01X6.179Y-1.7184
M16
G05
G00X6.3955Y-1.6791
M15
G01X6.3955Y-1.7184
M16
G05
G00X6.49Y-1.6003
M15
G01X6.49Y-1.6397
M16
G05
T0
M30
