M48
; DRILL file {KiCad (5.99.0-7356-g63088e8bdb)} date Wed Jul 14 19:01:44 2021
; FORMAT={-:-/ absolute / metric / decimal}
; #@! TF.CreationDate,2021-07-14T19:01:44+08:00
; #@! TF.GenerationSoftware,Kicad,Pcbnew,(5.99.0-7356-g63088e8bdb)
; #@! TF.FileFunction,Plated,1,2,PTH
FMAT,2
METRIC
T1C0.300
T2C0.400
T3C0.800
T4C0.900
T5C1.000
T6C1.200
T7C3.200
%
G90
G05
T1
X74.93Y-84.074
X75.184Y-96.266
X75.692Y-75.692
X76.077Y-33.02
X76.2Y-84.836
X76.2Y-98.552
X76.839Y-35.56
X76.962Y-91.694
X77.47Y-92.456
X77.601Y-38.1
X77.724Y-95.504
X78.232Y-93.218
X78.363Y-40.64
X78.74Y-97.79
X78.871Y-43.18
X78.994Y-93.98
X79.502Y-94.742
X79.633Y-45.72
X80.395Y-48.26
X80.903Y-50.8
X81.026Y-95.504
X81.28Y-97.028
X81.788Y-96.266
X82.804Y-94.742
X83.82Y-96.266
X85.344Y-93.98
X86.36Y-95.504
X86.614Y-84.074
X87.376Y-75.692
X87.761Y-53.34
X87.884Y-84.836
X87.884Y-93.218
X88.523Y-55.88
X88.646Y-90.932
X88.9Y-94.742
X89.285Y-58.42
X89.408Y-90.17
X89.916Y-89.408
X90.047Y-60.96
X90.424Y-92.456
X90.678Y-88.646
X90.809Y-63.5
X91.186Y-87.884
X91.317Y-66.04
X91.44Y-93.98
X91.948Y-87.122
X92.079Y-68.58
X92.587Y-71.12
X92.71Y-86.36
X92.964Y-91.694
X93.472Y-85.598
X93.98Y-93.218
X107.442Y-103.124
X109.982Y-84.836
X111.506Y-104.648
X115.316Y-68.58
X115.316Y-75.692
X115.316Y-99.822
X116.078Y-55.88
X116.078Y-84.836
X123.19Y-66.04
X123.444Y-103.124
X123.444Y-112.268
X123.952Y-92.456
X124.206Y-33.02
X124.968Y-35.56
X124.968Y-84.836
X124.968Y-103.124
X124.968Y-112.268
X124.968Y-135.89
X125.73Y-38.1
X126.492Y-40.64
X127.254Y-43.18
X127.508Y-85.598
X128.016Y-45.72
X128.27Y-86.36
X128.778Y-48.26
X129.032Y-87.122
X129.54Y-50.8
X129.54Y-87.884
X130.302Y-88.646
X130.81Y-89.408
X131.572Y-90.17
X132.334Y-90.932
X133.096Y-91.694
X139.954Y-74.93
T2
X73.406Y-73.152
X85.09Y-73.152
X105.664Y-99.06
X107.188Y-99.06
X112.014Y-99.06
X124.968Y-75.946
T3
X34.544Y-71.246
X34.544Y-73.346
X34.544Y-75.946
X34.544Y-78.046
X37.344Y-71.246
X37.344Y-78.046
X52.832Y-80.488
X55.372Y-80.488
X57.912Y-80.488
X82.296Y-162.814
X82.296Y-170.434
X87.853Y-131.049
X87.884Y-134.351
X97.536Y-162.814
X97.536Y-170.434
X98.013Y-131.049
X98.044Y-134.351
X104.14Y-161.544
X104.14Y-164.084
X104.14Y-166.624
X104.14Y-169.164
X104.14Y-171.704
X104.14Y-174.244
X104.14Y-176.784
X104.14Y-179.324
X111.76Y-158.242
X111.76Y-161.544
X111.76Y-164.084
X111.76Y-166.624
X111.76Y-169.164
X111.76Y-171.704
X111.76Y-174.244
X111.76Y-176.784
X111.76Y-179.324
X114.26Y-158.242
X118.872Y-171.958
X118.872Y-179.578
X121.412Y-171.958
X121.412Y-179.578
X123.952Y-171.958
X123.952Y-179.578
X126.492Y-171.958
X126.492Y-179.578
X129.032Y-171.958
X129.032Y-179.578
X133.587Y-53.382
X133.587Y-55.882
X136.652Y-38.1
X136.652Y-40.64
X136.652Y-43.18
X136.652Y-45.72
X136.652Y-48.26
X136.652Y-50.8
X136.652Y-53.34
X136.652Y-55.88
X136.652Y-58.42
X136.652Y-60.96
X136.652Y-63.5
X136.652Y-66.04
X136.652Y-68.58
X136.652Y-71.12
X142.24Y-92.456
X142.24Y-95.758
X142.24Y-99.06
X142.24Y-102.362
X142.24Y-105.664
X142.24Y-109.22
X144.272Y-38.1
X144.272Y-40.64
X144.272Y-43.18
X144.272Y-45.72
X144.272Y-48.26
X144.272Y-50.8
X144.272Y-53.34
X144.272Y-55.88
X144.272Y-58.42
X144.272Y-60.96
X144.272Y-63.5
X144.272Y-66.04
X144.272Y-68.58
X144.272Y-71.12
X148.59Y-56.42
X148.59Y-58.42
X152.4Y-92.456
X152.4Y-95.758
X152.4Y-99.06
X152.4Y-102.362
X152.4Y-105.664
X152.4Y-109.22
X153.416Y-80.772
X154.686Y-55.88
X154.686Y-66.04
X162.306Y-56.134
X162.56Y-49.276
X163.576Y-80.772
X164.56Y-49.276
X164.806Y-56.134
T4
X161.036Y-75.946
X163.576Y-75.946
T5
X32.6Y-137.536
X32.6Y-140.076
X32.6Y-142.616
X32.6Y-145.156
X32.6Y-147.696
X32.6Y-150.236
X32.6Y-152.776
X32.6Y-155.316
X32.6Y-157.856
X32.6Y-160.396
X32.601Y-101.976
X32.601Y-104.516
X32.65Y-109.6
X32.65Y-112.14
X32.65Y-114.68
X32.65Y-117.22
X32.65Y-119.76
X32.65Y-122.3
X32.65Y-124.84
X32.65Y-127.38
X32.65Y-129.92
X32.65Y-132.46
X62.468Y-94.795
X62.468Y-97.335
X62.468Y-99.875
X62.468Y-102.415
X62.468Y-104.955
X62.468Y-107.495
X62.468Y-110.035
X62.468Y-112.575
X62.468Y-115.115
X62.468Y-117.655
X62.468Y-120.195
X62.468Y-122.735
X62.468Y-125.275
X62.468Y-127.815
X62.468Y-130.355
X62.468Y-132.895
X63.246Y-33.02
X63.246Y-35.56
X63.246Y-38.1
X63.246Y-40.64
X63.246Y-43.18
X63.246Y-45.72
X63.246Y-48.26
X63.246Y-50.8
X63.246Y-53.34
X63.246Y-55.88
X63.246Y-58.42
X63.246Y-60.96
X63.246Y-63.5
X63.246Y-66.04
X63.246Y-68.58
X63.246Y-71.12
X65.786Y-33.02
X65.786Y-35.56
X65.786Y-38.1
X65.786Y-40.64
X65.786Y-43.18
X65.786Y-45.72
X65.786Y-48.26
X65.786Y-50.8
X65.786Y-53.34
X65.786Y-55.88
X65.786Y-58.42
X65.786Y-60.96
X65.786Y-63.5
X65.786Y-66.04
X65.786Y-68.58
X65.786Y-71.12
X76.46Y-107.19
X76.46Y-109.73
X76.46Y-112.27
X76.46Y-114.81
X76.46Y-119.89
X76.46Y-122.43
X76.46Y-124.97
X76.46Y-127.51
X79.0Y-107.19
X79.0Y-109.73
X79.0Y-112.27
X79.0Y-114.81
X79.0Y-119.89
X79.0Y-122.43
X79.0Y-124.97
X79.0Y-127.51
X81.08Y-179.4
X81.54Y-107.19
X81.54Y-109.73
X81.54Y-112.27
X81.54Y-114.81
X81.54Y-119.89
X81.54Y-122.43
X81.54Y-124.97
X81.54Y-127.51
X83.62Y-179.4
X84.08Y-107.19
X84.08Y-109.73
X84.08Y-112.27
X84.08Y-114.81
X84.08Y-119.89
X84.08Y-122.43
X84.08Y-124.97
X84.08Y-127.51
X86.16Y-179.4
X86.62Y-107.19
X86.62Y-109.73
X86.62Y-112.27
X86.62Y-114.81
X86.62Y-119.89
X86.62Y-122.43
X86.62Y-124.97
X86.62Y-127.51
X88.7Y-179.4
X89.16Y-107.19
X89.16Y-109.73
X89.16Y-112.27
X89.16Y-114.81
X89.16Y-119.89
X89.16Y-122.43
X89.16Y-124.97
X89.16Y-127.51
X91.7Y-107.19
X91.7Y-109.73
X91.7Y-112.27
X91.7Y-114.81
X91.7Y-119.89
X91.7Y-122.43
X91.7Y-124.97
X91.7Y-127.51
X94.24Y-107.19
X94.24Y-109.73
X94.24Y-112.27
X94.24Y-114.81
X94.24Y-119.89
X94.24Y-122.43
X94.24Y-124.97
X94.24Y-127.51
X96.78Y-107.19
X96.78Y-109.73
X96.78Y-112.27
X96.78Y-114.81
X96.78Y-119.89
X96.78Y-122.43
X96.78Y-124.97
X96.78Y-127.51
X99.32Y-107.19
X99.32Y-109.73
X99.32Y-112.27
X99.32Y-114.81
X99.32Y-119.89
X99.32Y-122.43
X99.32Y-124.97
X99.32Y-127.51
X101.86Y-107.19
X101.86Y-109.73
X101.86Y-112.27
X101.86Y-114.81
X101.86Y-119.89
X101.86Y-122.43
X101.86Y-124.97
X101.86Y-127.51
X104.4Y-107.19
X104.4Y-109.73
X104.4Y-112.27
X104.4Y-114.81
X104.4Y-119.89
X104.4Y-122.43
X104.4Y-124.97
X104.4Y-127.51
X106.94Y-107.19
X106.94Y-109.73
X106.94Y-112.27
X106.94Y-114.81
X106.94Y-119.89
X106.94Y-122.43
X106.94Y-124.97
X106.94Y-127.51
X109.48Y-107.19
X109.48Y-109.73
X109.48Y-112.27
X109.48Y-114.81
X109.48Y-119.89
X109.48Y-122.43
X109.48Y-124.97
X109.48Y-127.51
X109.982Y-33.02
X109.982Y-35.56
X109.982Y-38.1
X109.982Y-40.64
X109.982Y-43.18
X109.982Y-45.72
X109.982Y-48.26
X109.982Y-50.8
X109.982Y-53.34
X109.982Y-55.88
X109.982Y-58.42
X109.982Y-60.96
X109.982Y-63.5
X109.982Y-66.04
X109.982Y-68.58
X109.982Y-71.12
X112.02Y-107.19
X112.02Y-109.73
X112.02Y-112.27
X112.02Y-114.81
X112.02Y-119.89
X112.02Y-122.43
X112.02Y-124.97
X112.02Y-127.51
X112.522Y-33.02
X112.522Y-35.56
X112.522Y-38.1
X112.522Y-40.64
X112.522Y-43.18
X112.522Y-45.72
X112.522Y-48.26
X112.522Y-50.8
X112.522Y-53.34
X112.522Y-55.88
X112.522Y-58.42
X112.522Y-60.96
X112.522Y-63.5
X112.522Y-66.04
X112.522Y-68.58
X112.522Y-71.12
X114.56Y-107.19
X114.56Y-109.73
X114.56Y-112.27
X114.56Y-114.81
X114.56Y-119.89
X114.56Y-122.43
X114.56Y-124.97
X114.56Y-127.51
X117.1Y-107.19
X117.1Y-109.73
X117.1Y-112.27
X117.1Y-114.81
X117.1Y-119.89
X117.1Y-122.43
X117.1Y-124.97
X117.1Y-127.51
X119.64Y-107.19
X119.64Y-109.73
X119.64Y-112.27
X119.64Y-114.81
X119.64Y-119.89
X119.64Y-122.43
X119.64Y-124.97
X119.64Y-127.51
X137.414Y-123.188
X137.414Y-125.728
X137.414Y-128.268
X137.414Y-130.808
X137.414Y-133.348
X137.414Y-135.888
X157.92Y-96.831
X157.92Y-99.121
X157.92Y-101.411
X157.92Y-103.701
X157.92Y-105.991
X160.2Y-95.686
X160.2Y-97.976
X160.2Y-100.266
X160.2Y-102.556
X160.2Y-104.846
X162.52Y-96.831
X162.52Y-99.121
X162.52Y-101.411
X162.52Y-103.701
X162.52Y-105.991
T6
X43.4Y-42.6
X43.4Y-46.6
X43.4Y-50.6
X46.4Y-42.6
X46.4Y-46.6
X46.4Y-50.6
X46.4Y-54.6
T7
X30.492Y-30.376
X30.492Y-180.376
X62.484Y-87.34
X62.484Y-180.34
X80.592Y-145.376
X159.64Y-88.646
X159.64Y-113.646
X165.492Y-30.376
X165.492Y-180.376
X165.592Y-145.376
T5
G00X30.894Y-73.646
M15
G01X30.894Y-75.646
M16
G05
G00X32.444Y-67.796
M15
G01X30.944Y-67.796
M16
G05
G00X32.444Y-81.496
M15
G01X30.944Y-81.496
M16
G05
G00X156.946Y-42.648
M15
G01X156.946Y-43.648
M16
G05
G00X162.446Y-42.648
M15
G01X162.446Y-43.648
M16
G05
G00X164.846Y-40.648
M15
G01X164.846Y-41.648
M16
G05
T0
M30
