%TF.GenerationSoftware,KiCad,Pcbnew,(5.99.0-7356-g63088e8bdb)*%
%TF.CreationDate,2021-07-14T19:01:45+08:00*%
%TF.ProjectId,DaughterDevBoard,44617567-6874-4657-9244-6576426f6172,rev?*%
%TF.SameCoordinates,Original*%
%TF.FileFunction,Legend,Bot*%
%TF.FilePolarity,Positive*%
%FSLAX46Y46*%
G04 Gerber Fmt 4.6, Leading zero omitted, Abs format (unit mm)*
G04 Created by KiCad (PCBNEW (5.99.0-7356-g63088e8bdb)) date 2021-07-14 19:01:45*
%MOMM*%
%LPD*%
G01*
G04 APERTURE LIST*
%ADD10C,0.150000*%
%ADD11C,0.120000*%
G04 APERTURE END LIST*
D10*
X74930000Y-73152000D02*
G75*
G03*
X74930000Y-73152000I0J0D01*
G01*
X86614000Y-73152000D02*
G75*
G03*
X86614000Y-73152000I0J0D01*
G01*
X126492000Y-76708000D02*
G75*
G03*
X126492000Y-76708000I0J0D01*
G01*
X105918000Y-99822000D02*
G75*
G03*
X105918000Y-99822000I0J0D01*
G01*
X108966000Y-99822000D02*
G75*
G03*
X108966000Y-99822000I0J0D01*
G01*
X114046000Y-99822000D02*
G75*
G03*
X114046000Y-99822000I0J0D01*
G01*
%TO.C,C11*%
X120499142Y-101719142D02*
X120546761Y-101671523D01*
X120594380Y-101528666D01*
X120594380Y-101433428D01*
X120546761Y-101290571D01*
X120451523Y-101195333D01*
X120356285Y-101147714D01*
X120165809Y-101100095D01*
X120022952Y-101100095D01*
X119832476Y-101147714D01*
X119737238Y-101195333D01*
X119642000Y-101290571D01*
X119594380Y-101433428D01*
X119594380Y-101528666D01*
X119642000Y-101671523D01*
X119689619Y-101719142D01*
X120594380Y-102671523D02*
X120594380Y-102100095D01*
X120594380Y-102385809D02*
X119594380Y-102385809D01*
X119737238Y-102290571D01*
X119832476Y-102195333D01*
X119880095Y-102100095D01*
X120594380Y-103623904D02*
X120594380Y-103052476D01*
X120594380Y-103338190D02*
X119594380Y-103338190D01*
X119737238Y-103242952D01*
X119832476Y-103147714D01*
X119880095Y-103052476D01*
%TO.C,C10*%
X103227142Y-102318363D02*
X103274761Y-102270744D01*
X103322380Y-102127887D01*
X103322380Y-102032649D01*
X103274761Y-101889792D01*
X103179523Y-101794554D01*
X103084285Y-101746935D01*
X102893809Y-101699316D01*
X102750952Y-101699316D01*
X102560476Y-101746935D01*
X102465238Y-101794554D01*
X102370000Y-101889792D01*
X102322380Y-102032649D01*
X102322380Y-102127887D01*
X102370000Y-102270744D01*
X102417619Y-102318363D01*
X103322380Y-103270744D02*
X103322380Y-102699316D01*
X103322380Y-102985030D02*
X102322380Y-102985030D01*
X102465238Y-102889792D01*
X102560476Y-102794554D01*
X102608095Y-102699316D01*
X102322380Y-103889792D02*
X102322380Y-103985030D01*
X102370000Y-104080268D01*
X102417619Y-104127887D01*
X102512857Y-104175506D01*
X102703333Y-104223125D01*
X102941428Y-104223125D01*
X103131904Y-104175506D01*
X103227142Y-104127887D01*
X103274761Y-104080268D01*
X103322380Y-103985030D01*
X103322380Y-103889792D01*
X103274761Y-103794554D01*
X103227142Y-103746935D01*
X103131904Y-103699316D01*
X102941428Y-103651697D01*
X102703333Y-103651697D01*
X102512857Y-103699316D01*
X102417619Y-103746935D01*
X102370000Y-103794554D01*
X102322380Y-103889792D01*
%TO.C,J3*%
X112632952Y-73902380D02*
X112632952Y-72902380D01*
X112204380Y-73854761D02*
X112061523Y-73902380D01*
X111823428Y-73902380D01*
X111728190Y-73854761D01*
X111680571Y-73807142D01*
X111632952Y-73711904D01*
X111632952Y-73616666D01*
X111680571Y-73521428D01*
X111728190Y-73473809D01*
X111823428Y-73426190D01*
X112013904Y-73378571D01*
X112109142Y-73330952D01*
X112156761Y-73283333D01*
X112204380Y-73188095D01*
X112204380Y-73092857D01*
X112156761Y-72997619D01*
X112109142Y-72950000D01*
X112013904Y-72902380D01*
X111775809Y-72902380D01*
X111632952Y-72950000D01*
X111252000Y-73616666D02*
X110775809Y-73616666D01*
X111347238Y-73902380D02*
X111013904Y-72902380D01*
X110680571Y-73902380D01*
X109823428Y-73902380D02*
X110394857Y-73902380D01*
X110109142Y-73902380D02*
X110109142Y-72902380D01*
X110204380Y-73045238D01*
X110299619Y-73140476D01*
X110394857Y-73188095D01*
%TO.C,U7*%
X89753380Y-76454095D02*
X90562904Y-76454095D01*
X90658142Y-76501714D01*
X90705761Y-76549333D01*
X90753380Y-76644571D01*
X90753380Y-76835047D01*
X90705761Y-76930285D01*
X90658142Y-76977904D01*
X90562904Y-77025523D01*
X89753380Y-77025523D01*
X89753380Y-77406476D02*
X89753380Y-78073142D01*
X90753380Y-77644571D01*
%TO.C,C14*%
X72239142Y-74287142D02*
X72286761Y-74239523D01*
X72334380Y-74096666D01*
X72334380Y-74001428D01*
X72286761Y-73858571D01*
X72191523Y-73763333D01*
X72096285Y-73715714D01*
X71905809Y-73668095D01*
X71762952Y-73668095D01*
X71572476Y-73715714D01*
X71477238Y-73763333D01*
X71382000Y-73858571D01*
X71334380Y-74001428D01*
X71334380Y-74096666D01*
X71382000Y-74239523D01*
X71429619Y-74287142D01*
X72334380Y-75239523D02*
X72334380Y-74668095D01*
X72334380Y-74953809D02*
X71334380Y-74953809D01*
X71477238Y-74858571D01*
X71572476Y-74763333D01*
X71620095Y-74668095D01*
X71667714Y-76096666D02*
X72334380Y-76096666D01*
X71286761Y-75858571D02*
X72001047Y-75620476D01*
X72001047Y-76239523D01*
%TO.C,C9*%
X123801142Y-82637333D02*
X123848761Y-82589714D01*
X123896380Y-82446857D01*
X123896380Y-82351619D01*
X123848761Y-82208761D01*
X123753523Y-82113523D01*
X123658285Y-82065904D01*
X123467809Y-82018285D01*
X123324952Y-82018285D01*
X123134476Y-82065904D01*
X123039238Y-82113523D01*
X122944000Y-82208761D01*
X122896380Y-82351619D01*
X122896380Y-82446857D01*
X122944000Y-82589714D01*
X122991619Y-82637333D01*
X123896380Y-83113523D02*
X123896380Y-83304000D01*
X123848761Y-83399238D01*
X123801142Y-83446857D01*
X123658285Y-83542095D01*
X123467809Y-83589714D01*
X123086857Y-83589714D01*
X122991619Y-83542095D01*
X122944000Y-83494476D01*
X122896380Y-83399238D01*
X122896380Y-83208761D01*
X122944000Y-83113523D01*
X122991619Y-83065904D01*
X123086857Y-83018285D01*
X123324952Y-83018285D01*
X123420190Y-83065904D01*
X123467809Y-83113523D01*
X123515428Y-83208761D01*
X123515428Y-83399238D01*
X123467809Y-83494476D01*
X123420190Y-83542095D01*
X123324952Y-83589714D01*
%TO.C,U6*%
X129500380Y-80010095D02*
X130309904Y-80010095D01*
X130405142Y-80057714D01*
X130452761Y-80105333D01*
X130500380Y-80200571D01*
X130500380Y-80391047D01*
X130452761Y-80486285D01*
X130405142Y-80533904D01*
X130309904Y-80581523D01*
X129500380Y-80581523D01*
X129500380Y-81486285D02*
X129500380Y-81295809D01*
X129548000Y-81200571D01*
X129595619Y-81152952D01*
X129738476Y-81057714D01*
X129928952Y-81010095D01*
X130309904Y-81010095D01*
X130405142Y-81057714D01*
X130452761Y-81105333D01*
X130500380Y-81200571D01*
X130500380Y-81391047D01*
X130452761Y-81486285D01*
X130405142Y-81533904D01*
X130309904Y-81581523D01*
X130071809Y-81581523D01*
X129976571Y-81533904D01*
X129928952Y-81486285D01*
X129881333Y-81391047D01*
X129881333Y-81200571D01*
X129928952Y-81105333D01*
X129976571Y-81057714D01*
X130071809Y-81010095D01*
%TO.C,C17*%
X83923142Y-78605142D02*
X83970761Y-78557523D01*
X84018380Y-78414666D01*
X84018380Y-78319428D01*
X83970761Y-78176571D01*
X83875523Y-78081333D01*
X83780285Y-78033714D01*
X83589809Y-77986095D01*
X83446952Y-77986095D01*
X83256476Y-78033714D01*
X83161238Y-78081333D01*
X83066000Y-78176571D01*
X83018380Y-78319428D01*
X83018380Y-78414666D01*
X83066000Y-78557523D01*
X83113619Y-78605142D01*
X84018380Y-79557523D02*
X84018380Y-78986095D01*
X84018380Y-79271809D02*
X83018380Y-79271809D01*
X83161238Y-79176571D01*
X83256476Y-79081333D01*
X83304095Y-78986095D01*
X83018380Y-79890857D02*
X83018380Y-80557523D01*
X84018380Y-80128952D01*
%TO.C,U5*%
X106132380Y-101600095D02*
X106941904Y-101600095D01*
X107037142Y-101647714D01*
X107084761Y-101695333D01*
X107132380Y-101790571D01*
X107132380Y-101981047D01*
X107084761Y-102076285D01*
X107037142Y-102123904D01*
X106941904Y-102171523D01*
X106132380Y-102171523D01*
X106132380Y-103123904D02*
X106132380Y-102647714D01*
X106608571Y-102600095D01*
X106560952Y-102647714D01*
X106513333Y-102742952D01*
X106513333Y-102981047D01*
X106560952Y-103076285D01*
X106608571Y-103123904D01*
X106703809Y-103171523D01*
X106941904Y-103171523D01*
X107037142Y-103123904D01*
X107084761Y-103076285D01*
X107132380Y-102981047D01*
X107132380Y-102742952D01*
X107084761Y-102647714D01*
X107037142Y-102600095D01*
%TO.C,J5*%
X34123809Y-163178380D02*
X34123809Y-162178380D01*
X32933333Y-162130761D02*
X33790476Y-163416476D01*
X32409523Y-162178380D02*
X32219047Y-162178380D01*
X32123809Y-162226000D01*
X32028571Y-162321238D01*
X31980952Y-162511714D01*
X31980952Y-162845047D01*
X32028571Y-163035523D01*
X32123809Y-163130761D01*
X32219047Y-163178380D01*
X32409523Y-163178380D01*
X32504761Y-163130761D01*
X32600000Y-163035523D01*
X32647619Y-162845047D01*
X32647619Y-162511714D01*
X32600000Y-162321238D01*
X32504761Y-162226000D01*
X32409523Y-162178380D01*
X31028571Y-163178380D02*
X31600000Y-163178380D01*
X31314285Y-163178380D02*
X31314285Y-162178380D01*
X31409523Y-162321238D01*
X31504761Y-162416476D01*
X31600000Y-162464095D01*
%TO.C,J2*%
X34173808Y-135242380D02*
X34173808Y-134242380D01*
X32983332Y-134194761D02*
X33840475Y-135480476D01*
X32459522Y-134242380D02*
X32269046Y-134242380D01*
X32173808Y-134290000D01*
X32078570Y-134385238D01*
X32030951Y-134575714D01*
X32030951Y-134909047D01*
X32078570Y-135099523D01*
X32173808Y-135194761D01*
X32269046Y-135242380D01*
X32459522Y-135242380D01*
X32554760Y-135194761D01*
X32649999Y-135099523D01*
X32697618Y-134909047D01*
X32697618Y-134575714D01*
X32649999Y-134385238D01*
X32554760Y-134290000D01*
X32459522Y-134242380D01*
X31411903Y-134242380D02*
X31316665Y-134242380D01*
X31221427Y-134290000D01*
X31173808Y-134337619D01*
X31126189Y-134432857D01*
X31078570Y-134623333D01*
X31078570Y-134861428D01*
X31126189Y-135051904D01*
X31173808Y-135147142D01*
X31221427Y-135194761D01*
X31316665Y-135242380D01*
X31411903Y-135242380D01*
X31507141Y-135194761D01*
X31554760Y-135147142D01*
X31602379Y-135051904D01*
X31649999Y-134861428D01*
X31649999Y-134623333D01*
X31602379Y-134432857D01*
X31554760Y-134337619D01*
X31507141Y-134290000D01*
X31411903Y-134242380D01*
%TO.C,C12*%
X123895142Y-78097142D02*
X123942761Y-78049523D01*
X123990380Y-77906666D01*
X123990380Y-77811428D01*
X123942761Y-77668571D01*
X123847523Y-77573333D01*
X123752285Y-77525714D01*
X123561809Y-77478095D01*
X123418952Y-77478095D01*
X123228476Y-77525714D01*
X123133238Y-77573333D01*
X123038000Y-77668571D01*
X122990380Y-77811428D01*
X122990380Y-77906666D01*
X123038000Y-78049523D01*
X123085619Y-78097142D01*
X123990380Y-79049523D02*
X123990380Y-78478095D01*
X123990380Y-78763809D02*
X122990380Y-78763809D01*
X123133238Y-78668571D01*
X123228476Y-78573333D01*
X123276095Y-78478095D01*
X123085619Y-79430476D02*
X123038000Y-79478095D01*
X122990380Y-79573333D01*
X122990380Y-79811428D01*
X123038000Y-79906666D01*
X123085619Y-79954285D01*
X123180857Y-80001904D01*
X123276095Y-80001904D01*
X123418952Y-79954285D01*
X123990380Y-79382857D01*
X123990380Y-80001904D01*
%TO.C,C8*%
X110309142Y-98308333D02*
X110356761Y-98260714D01*
X110404380Y-98117857D01*
X110404380Y-98022619D01*
X110356761Y-97879761D01*
X110261523Y-97784523D01*
X110166285Y-97736904D01*
X109975809Y-97689285D01*
X109832952Y-97689285D01*
X109642476Y-97736904D01*
X109547238Y-97784523D01*
X109452000Y-97879761D01*
X109404380Y-98022619D01*
X109404380Y-98117857D01*
X109452000Y-98260714D01*
X109499619Y-98308333D01*
X109832952Y-98879761D02*
X109785333Y-98784523D01*
X109737714Y-98736904D01*
X109642476Y-98689285D01*
X109594857Y-98689285D01*
X109499619Y-98736904D01*
X109452000Y-98784523D01*
X109404380Y-98879761D01*
X109404380Y-99070238D01*
X109452000Y-99165476D01*
X109499619Y-99213095D01*
X109594857Y-99260714D01*
X109642476Y-99260714D01*
X109737714Y-99213095D01*
X109785333Y-99165476D01*
X109832952Y-99070238D01*
X109832952Y-98879761D01*
X109880571Y-98784523D01*
X109928190Y-98736904D01*
X110023428Y-98689285D01*
X110213904Y-98689285D01*
X110309142Y-98736904D01*
X110356761Y-98784523D01*
X110404380Y-98879761D01*
X110404380Y-99070238D01*
X110356761Y-99165476D01*
X110309142Y-99213095D01*
X110213904Y-99260714D01*
X110023428Y-99260714D01*
X109928190Y-99213095D01*
X109880571Y-99165476D01*
X109832952Y-99070238D01*
%TO.C,C7*%
X112117142Y-98458112D02*
X112164761Y-98410493D01*
X112212380Y-98267636D01*
X112212380Y-98172398D01*
X112164761Y-98029540D01*
X112069523Y-97934302D01*
X111974285Y-97886683D01*
X111783809Y-97839064D01*
X111640952Y-97839064D01*
X111450476Y-97886683D01*
X111355238Y-97934302D01*
X111260000Y-98029540D01*
X111212380Y-98172398D01*
X111212380Y-98267636D01*
X111260000Y-98410493D01*
X111307619Y-98458112D01*
X111212380Y-98791445D02*
X111212380Y-99458112D01*
X112212380Y-99029540D01*
%TO.C,C6*%
X103227142Y-99492554D02*
X103274761Y-99444935D01*
X103322380Y-99302078D01*
X103322380Y-99206840D01*
X103274761Y-99063982D01*
X103179523Y-98968744D01*
X103084285Y-98921125D01*
X102893809Y-98873506D01*
X102750952Y-98873506D01*
X102560476Y-98921125D01*
X102465238Y-98968744D01*
X102370000Y-99063982D01*
X102322380Y-99206840D01*
X102322380Y-99302078D01*
X102370000Y-99444935D01*
X102417619Y-99492554D01*
X102322380Y-100349697D02*
X102322380Y-100159221D01*
X102370000Y-100063982D01*
X102417619Y-100016363D01*
X102560476Y-99921125D01*
X102750952Y-99873506D01*
X103131904Y-99873506D01*
X103227142Y-99921125D01*
X103274761Y-99968744D01*
X103322380Y-100063982D01*
X103322380Y-100254459D01*
X103274761Y-100349697D01*
X103227142Y-100397316D01*
X103131904Y-100444935D01*
X102893809Y-100444935D01*
X102798571Y-100397316D01*
X102750952Y-100349697D01*
X102703333Y-100254459D01*
X102703333Y-100063982D01*
X102750952Y-99968744D01*
X102798571Y-99921125D01*
X102893809Y-99873506D01*
%TO.C,C13*%
X118975142Y-101719142D02*
X119022761Y-101671523D01*
X119070380Y-101528666D01*
X119070380Y-101433428D01*
X119022761Y-101290571D01*
X118927523Y-101195333D01*
X118832285Y-101147714D01*
X118641809Y-101100095D01*
X118498952Y-101100095D01*
X118308476Y-101147714D01*
X118213238Y-101195333D01*
X118118000Y-101290571D01*
X118070380Y-101433428D01*
X118070380Y-101528666D01*
X118118000Y-101671523D01*
X118165619Y-101719142D01*
X119070380Y-102671523D02*
X119070380Y-102100095D01*
X119070380Y-102385809D02*
X118070380Y-102385809D01*
X118213238Y-102290571D01*
X118308476Y-102195333D01*
X118356095Y-102100095D01*
X118070380Y-103004857D02*
X118070380Y-103623904D01*
X118451333Y-103290571D01*
X118451333Y-103433428D01*
X118498952Y-103528666D01*
X118546571Y-103576285D01*
X118641809Y-103623904D01*
X118879904Y-103623904D01*
X118975142Y-103576285D01*
X119022761Y-103528666D01*
X119070380Y-103433428D01*
X119070380Y-103147714D01*
X119022761Y-103052476D01*
X118975142Y-103004857D01*
%TO.C,J4*%
X65896952Y-73902380D02*
X65896952Y-72902380D01*
X65468380Y-73854761D02*
X65325523Y-73902380D01*
X65087428Y-73902380D01*
X64992190Y-73854761D01*
X64944571Y-73807142D01*
X64896952Y-73711904D01*
X64896952Y-73616666D01*
X64944571Y-73521428D01*
X64992190Y-73473809D01*
X65087428Y-73426190D01*
X65277904Y-73378571D01*
X65373142Y-73330952D01*
X65420761Y-73283333D01*
X65468380Y-73188095D01*
X65468380Y-73092857D01*
X65420761Y-72997619D01*
X65373142Y-72950000D01*
X65277904Y-72902380D01*
X65039809Y-72902380D01*
X64896952Y-72950000D01*
X64516000Y-73616666D02*
X64039809Y-73616666D01*
X64611238Y-73902380D02*
X64277904Y-72902380D01*
X63944571Y-73902380D01*
X63420761Y-72902380D02*
X63325523Y-72902380D01*
X63230285Y-72950000D01*
X63182666Y-72997619D01*
X63135047Y-73092857D01*
X63087428Y-73283333D01*
X63087428Y-73521428D01*
X63135047Y-73711904D01*
X63182666Y-73807142D01*
X63230285Y-73854761D01*
X63325523Y-73902380D01*
X63420761Y-73902380D01*
X63516000Y-73854761D01*
X63563619Y-73807142D01*
X63611238Y-73711904D01*
X63658857Y-73521428D01*
X63658857Y-73283333D01*
X63611238Y-73092857D01*
X63563619Y-72997619D01*
X63516000Y-72950000D01*
X63420761Y-72902380D01*
%TO.C,U4*%
X109180380Y-101613095D02*
X109989904Y-101613095D01*
X110085142Y-101660714D01*
X110132761Y-101708333D01*
X110180380Y-101803571D01*
X110180380Y-101994047D01*
X110132761Y-102089285D01*
X110085142Y-102136904D01*
X109989904Y-102184523D01*
X109180380Y-102184523D01*
X109513714Y-103089285D02*
X110180380Y-103089285D01*
X109132761Y-102851190D02*
X109847047Y-102613095D01*
X109847047Y-103232142D01*
%TO.C,C15*%
X72239142Y-78605142D02*
X72286761Y-78557523D01*
X72334380Y-78414666D01*
X72334380Y-78319428D01*
X72286761Y-78176571D01*
X72191523Y-78081333D01*
X72096285Y-78033714D01*
X71905809Y-77986095D01*
X71762952Y-77986095D01*
X71572476Y-78033714D01*
X71477238Y-78081333D01*
X71382000Y-78176571D01*
X71334380Y-78319428D01*
X71334380Y-78414666D01*
X71382000Y-78557523D01*
X71429619Y-78605142D01*
X72334380Y-79557523D02*
X72334380Y-78986095D01*
X72334380Y-79271809D02*
X71334380Y-79271809D01*
X71477238Y-79176571D01*
X71572476Y-79081333D01*
X71620095Y-78986095D01*
X71334380Y-80462285D02*
X71334380Y-79986095D01*
X71810571Y-79938476D01*
X71762952Y-79986095D01*
X71715333Y-80081333D01*
X71715333Y-80319428D01*
X71762952Y-80414666D01*
X71810571Y-80462285D01*
X71905809Y-80509904D01*
X72143904Y-80509904D01*
X72239142Y-80462285D01*
X72286761Y-80414666D01*
X72334380Y-80319428D01*
X72334380Y-80081333D01*
X72286761Y-79986095D01*
X72239142Y-79938476D01*
%TO.C,U8*%
X78069380Y-76522595D02*
X78878904Y-76522595D01*
X78974142Y-76570214D01*
X79021761Y-76617833D01*
X79069380Y-76713071D01*
X79069380Y-76903547D01*
X79021761Y-76998785D01*
X78974142Y-77046404D01*
X78878904Y-77094023D01*
X78069380Y-77094023D01*
X78497952Y-77713071D02*
X78450333Y-77617833D01*
X78402714Y-77570214D01*
X78307476Y-77522595D01*
X78259857Y-77522595D01*
X78164619Y-77570214D01*
X78117000Y-77617833D01*
X78069380Y-77713071D01*
X78069380Y-77903547D01*
X78117000Y-77998785D01*
X78164619Y-78046404D01*
X78259857Y-78094023D01*
X78307476Y-78094023D01*
X78402714Y-78046404D01*
X78450333Y-77998785D01*
X78497952Y-77903547D01*
X78497952Y-77713071D01*
X78545571Y-77617833D01*
X78593190Y-77570214D01*
X78688428Y-77522595D01*
X78878904Y-77522595D01*
X78974142Y-77570214D01*
X79021761Y-77617833D01*
X79069380Y-77713071D01*
X79069380Y-77903547D01*
X79021761Y-77998785D01*
X78974142Y-78046404D01*
X78878904Y-78094023D01*
X78688428Y-78094023D01*
X78593190Y-78046404D01*
X78545571Y-77998785D01*
X78497952Y-77903547D01*
%TO.C,J6*%
X88359809Y-176887142D02*
X88407428Y-176934761D01*
X88550285Y-176982380D01*
X88645523Y-176982380D01*
X88788380Y-176934761D01*
X88883619Y-176839523D01*
X88931238Y-176744285D01*
X88978857Y-176553809D01*
X88978857Y-176410952D01*
X88931238Y-176220476D01*
X88883619Y-176125238D01*
X88788380Y-176030000D01*
X88645523Y-175982380D01*
X88550285Y-175982380D01*
X88407428Y-176030000D01*
X88359809Y-176077619D01*
X87931238Y-176982380D02*
X87931238Y-175982380D01*
X87550285Y-175982380D01*
X87455047Y-176030000D01*
X87407428Y-176077619D01*
X87359809Y-176172857D01*
X87359809Y-176315714D01*
X87407428Y-176410952D01*
X87455047Y-176458571D01*
X87550285Y-176506190D01*
X87931238Y-176506190D01*
X86931238Y-175982380D02*
X86931238Y-176791904D01*
X86883619Y-176887142D01*
X86836000Y-176934761D01*
X86740761Y-176982380D01*
X86550285Y-176982380D01*
X86455047Y-176934761D01*
X86407428Y-176887142D01*
X86359809Y-176791904D01*
X86359809Y-175982380D01*
X86121714Y-177077619D02*
X85359809Y-177077619D01*
X84550285Y-176887142D02*
X84597904Y-176934761D01*
X84740761Y-176982380D01*
X84836000Y-176982380D01*
X84978857Y-176934761D01*
X85074095Y-176839523D01*
X85121714Y-176744285D01*
X85169333Y-176553809D01*
X85169333Y-176410952D01*
X85121714Y-176220476D01*
X85074095Y-176125238D01*
X84978857Y-176030000D01*
X84836000Y-175982380D01*
X84740761Y-175982380D01*
X84597904Y-176030000D01*
X84550285Y-176077619D01*
X83645523Y-176982380D02*
X84121714Y-176982380D01*
X84121714Y-175982380D01*
X83121714Y-175982380D02*
X82931238Y-175982380D01*
X82836000Y-176030000D01*
X82740761Y-176125238D01*
X82693142Y-176315714D01*
X82693142Y-176649047D01*
X82740761Y-176839523D01*
X82836000Y-176934761D01*
X82931238Y-176982380D01*
X83121714Y-176982380D01*
X83216952Y-176934761D01*
X83312190Y-176839523D01*
X83359809Y-176649047D01*
X83359809Y-176315714D01*
X83312190Y-176125238D01*
X83216952Y-176030000D01*
X83121714Y-175982380D01*
X81693142Y-176887142D02*
X81740761Y-176934761D01*
X81883619Y-176982380D01*
X81978857Y-176982380D01*
X82121714Y-176934761D01*
X82216952Y-176839523D01*
X82264571Y-176744285D01*
X82312190Y-176553809D01*
X82312190Y-176410952D01*
X82264571Y-176220476D01*
X82216952Y-176125238D01*
X82121714Y-176030000D01*
X81978857Y-175982380D01*
X81883619Y-175982380D01*
X81740761Y-176030000D01*
X81693142Y-176077619D01*
X81264571Y-176982380D02*
X81264571Y-175982380D01*
X80693142Y-176982380D02*
X81121714Y-176410952D01*
X80693142Y-175982380D02*
X81264571Y-176553809D01*
%TO.C,C16*%
X83923142Y-74541142D02*
X83970761Y-74493523D01*
X84018380Y-74350666D01*
X84018380Y-74255428D01*
X83970761Y-74112571D01*
X83875523Y-74017333D01*
X83780285Y-73969714D01*
X83589809Y-73922095D01*
X83446952Y-73922095D01*
X83256476Y-73969714D01*
X83161238Y-74017333D01*
X83066000Y-74112571D01*
X83018380Y-74255428D01*
X83018380Y-74350666D01*
X83066000Y-74493523D01*
X83113619Y-74541142D01*
X84018380Y-75493523D02*
X84018380Y-74922095D01*
X84018380Y-75207809D02*
X83018380Y-75207809D01*
X83161238Y-75112571D01*
X83256476Y-75017333D01*
X83304095Y-74922095D01*
X83018380Y-76350666D02*
X83018380Y-76160190D01*
X83066000Y-76064952D01*
X83113619Y-76017333D01*
X83256476Y-75922095D01*
X83446952Y-75874476D01*
X83827904Y-75874476D01*
X83923142Y-75922095D01*
X83970761Y-75969714D01*
X84018380Y-76064952D01*
X84018380Y-76255428D01*
X83970761Y-76350666D01*
X83923142Y-76398285D01*
X83827904Y-76445904D01*
X83589809Y-76445904D01*
X83494571Y-76398285D01*
X83446952Y-76350666D01*
X83399333Y-76255428D01*
X83399333Y-76064952D01*
X83446952Y-75969714D01*
X83494571Y-75922095D01*
X83589809Y-75874476D01*
%TO.C,U3*%
X114252380Y-101600095D02*
X115061904Y-101600095D01*
X115157142Y-101647714D01*
X115204761Y-101695333D01*
X115252380Y-101790571D01*
X115252380Y-101981047D01*
X115204761Y-102076285D01*
X115157142Y-102123904D01*
X115061904Y-102171523D01*
X114252380Y-102171523D01*
X114252380Y-102552476D02*
X114252380Y-103171523D01*
X114633333Y-102838190D01*
X114633333Y-102981047D01*
X114680952Y-103076285D01*
X114728571Y-103123904D01*
X114823809Y-103171523D01*
X115061904Y-103171523D01*
X115157142Y-103123904D01*
X115204761Y-103076285D01*
X115252380Y-102981047D01*
X115252380Y-102695333D01*
X115204761Y-102600095D01*
X115157142Y-102552476D01*
%TO.C,J10*%
X35601000Y-107298380D02*
X35601000Y-106298380D01*
X34410523Y-106250761D02*
X35267666Y-107536476D01*
X33886714Y-106298380D02*
X33696238Y-106298380D01*
X33601000Y-106346000D01*
X33505761Y-106441238D01*
X33458142Y-106631714D01*
X33458142Y-106965047D01*
X33505761Y-107155523D01*
X33601000Y-107250761D01*
X33696238Y-107298380D01*
X33886714Y-107298380D01*
X33981952Y-107250761D01*
X34077190Y-107155523D01*
X34124809Y-106965047D01*
X34124809Y-106631714D01*
X34077190Y-106441238D01*
X33981952Y-106346000D01*
X33886714Y-106298380D01*
X33267666Y-107393619D02*
X32505761Y-107393619D01*
X32267666Y-107298380D02*
X32267666Y-106298380D01*
X31886714Y-106298380D01*
X31791476Y-106346000D01*
X31743857Y-106393619D01*
X31696238Y-106488857D01*
X31696238Y-106631714D01*
X31743857Y-106726952D01*
X31791476Y-106774571D01*
X31886714Y-106822190D01*
X32267666Y-106822190D01*
X31362904Y-106298380D02*
X31124809Y-107298380D01*
X30934333Y-106584095D01*
X30743857Y-107298380D01*
X30505761Y-106298380D01*
X29553380Y-107298380D02*
X29886714Y-106822190D01*
X30124809Y-107298380D02*
X30124809Y-106298380D01*
X29743857Y-106298380D01*
X29648619Y-106346000D01*
X29601000Y-106393619D01*
X29553380Y-106488857D01*
X29553380Y-106631714D01*
X29601000Y-106726952D01*
X29648619Y-106774571D01*
X29743857Y-106822190D01*
X30124809Y-106822190D01*
D11*
%TO.C,C11*%
X112270000Y-102524779D02*
X112270000Y-102199221D01*
X111250000Y-102524779D02*
X111250000Y-102199221D01*
%TO.C,C10*%
X103884000Y-103286779D02*
X103884000Y-102961221D01*
X104904000Y-103286779D02*
X104904000Y-102961221D01*
%TO.C,J3*%
X113852000Y-31690000D02*
X112522000Y-31690000D01*
X113852000Y-72450000D02*
X108652000Y-72450000D01*
X113852000Y-34290000D02*
X113852000Y-72450000D01*
X111252000Y-31690000D02*
X108652000Y-31690000D01*
X113852000Y-33020000D02*
X113852000Y-31690000D01*
X113852000Y-34290000D02*
X111252000Y-34290000D01*
X111252000Y-34290000D02*
X111252000Y-31690000D01*
X108652000Y-31690000D02*
X108652000Y-72450000D01*
%TO.C,U7*%
X86266000Y-77216000D02*
X86266000Y-79416000D01*
X86266000Y-77216000D02*
X86266000Y-73616000D01*
X94336000Y-77216000D02*
X94336000Y-75016000D01*
X94336000Y-77216000D02*
X94336000Y-79416000D01*
%TO.C,C14*%
X72896000Y-75021221D02*
X72896000Y-75346779D01*
X73916000Y-75021221D02*
X73916000Y-75346779D01*
%TO.C,C9*%
X124458000Y-82966779D02*
X124458000Y-82641221D01*
X125478000Y-82966779D02*
X125478000Y-82641221D01*
%TO.C,U6*%
X134083000Y-80772000D02*
X134083000Y-82972000D01*
X126013000Y-80772000D02*
X126013000Y-82972000D01*
X126013000Y-80772000D02*
X126013000Y-77172000D01*
X134083000Y-80772000D02*
X134083000Y-78572000D01*
%TO.C,C17*%
X85600000Y-79410779D02*
X85600000Y-79085221D01*
X84580000Y-79410779D02*
X84580000Y-79085221D01*
%TO.C,U5*%
X105580000Y-103462000D02*
X105580000Y-100462000D01*
X107780000Y-103462000D02*
X107780000Y-101262000D01*
%TO.C,J5*%
X31270000Y-138806000D02*
X31270000Y-161726000D01*
X33930000Y-136206000D02*
X32600000Y-136206000D01*
X33930000Y-138806000D02*
X31270000Y-138806000D01*
X33930000Y-161726000D02*
X31270000Y-161726000D01*
X33930000Y-137536000D02*
X33930000Y-136206000D01*
X33930000Y-138806000D02*
X33930000Y-161726000D01*
%TO.C,J2*%
X31319999Y-110870000D02*
X31319999Y-133790000D01*
X33979999Y-108270000D02*
X32649999Y-108270000D01*
X33979999Y-110870000D02*
X31319999Y-110870000D01*
X33979999Y-133790000D02*
X31319999Y-133790000D01*
X33979999Y-109600000D02*
X33979999Y-108270000D01*
X33979999Y-110870000D02*
X33979999Y-133790000D01*
%TO.C,C12*%
X124458000Y-78577221D02*
X124458000Y-78902779D01*
X125478000Y-78577221D02*
X125478000Y-78902779D01*
%TO.C,C8*%
X107948000Y-98637779D02*
X107948000Y-98312221D01*
X108968000Y-98637779D02*
X108968000Y-98312221D01*
%TO.C,C7*%
X113794000Y-98624779D02*
X113794000Y-98299221D01*
X112774000Y-98624779D02*
X112774000Y-98299221D01*
%TO.C,C6*%
X103884000Y-99984779D02*
X103884000Y-99659221D01*
X104904000Y-99984779D02*
X104904000Y-99659221D01*
%TO.C,C13*%
X116584000Y-102524779D02*
X116584000Y-102199221D01*
X117604000Y-102524779D02*
X117604000Y-102199221D01*
%TO.C,J4*%
X67116000Y-31690000D02*
X65786000Y-31690000D01*
X67116000Y-72450000D02*
X61916000Y-72450000D01*
X67116000Y-34290000D02*
X67116000Y-72450000D01*
X64516000Y-31690000D02*
X61916000Y-31690000D01*
X67116000Y-33020000D02*
X67116000Y-31690000D01*
X67116000Y-34290000D02*
X64516000Y-34290000D01*
X64516000Y-34290000D02*
X64516000Y-31690000D01*
X61916000Y-31690000D02*
X61916000Y-72450000D01*
%TO.C,U4*%
X108628000Y-103475000D02*
X108628000Y-100475000D01*
X110828000Y-103475000D02*
X110828000Y-101275000D01*
%TO.C,C15*%
X72896000Y-79410779D02*
X72896000Y-79085221D01*
X73916000Y-79410779D02*
X73916000Y-79085221D01*
%TO.C,U8*%
X74571000Y-77284500D02*
X74571000Y-73684500D01*
X82641000Y-77284500D02*
X82641000Y-79484500D01*
X74571000Y-77284500D02*
X74571000Y-79484500D01*
X82641000Y-77284500D02*
X82641000Y-75084500D01*
%TO.C,J6*%
X87430000Y-178070000D02*
X79750000Y-178070000D01*
X87430000Y-180730000D02*
X79750000Y-180730000D01*
X79750000Y-180730000D02*
X79750000Y-178070000D01*
X87430000Y-180730000D02*
X87430000Y-178070000D01*
X90030000Y-180730000D02*
X90030000Y-179400000D01*
X88700000Y-180730000D02*
X90030000Y-180730000D01*
%TO.C,C16*%
X85600000Y-75021221D02*
X85600000Y-75346779D01*
X84580000Y-75021221D02*
X84580000Y-75346779D01*
%TO.C,U3*%
X115904000Y-103462000D02*
X115904000Y-101262000D01*
X113704000Y-103462000D02*
X113704000Y-100462000D01*
%TO.C,J10*%
X33931000Y-101976000D02*
X33931000Y-100646000D01*
X33931000Y-103246000D02*
X31271000Y-103246000D01*
X33931000Y-103246000D02*
X33931000Y-105846000D01*
X31271000Y-103246000D02*
X31271000Y-105846000D01*
X33931000Y-105846000D02*
X31271000Y-105846000D01*
X33931000Y-100646000D02*
X32601000Y-100646000D01*
%TD*%
M02*
