M48
; DRILL file {KiCad 7.0.6} date Sat 08 Jul 2023 03:34:53 PM +08
; FORMAT={-:-/ absolute / inch / decimal}
; #@! TF.CreationDate,2023-07-08T15:34:53+08:00
; #@! TF.GenerationSoftware,Kicad,Pcbnew,7.0.6
; #@! TF.FileFunction,Plated,1,2,PTH
FMAT,2
INCH
; #@! TA.AperFunction,Plated,PTH,ViaDrill
T1C0.0118
; #@! TA.AperFunction,Plated,PTH,ComponentDrill
T2C0.0315
; #@! TA.AperFunction,Plated,PTH,ComponentDrill
T3C0.0354
; #@! TA.AperFunction,Plated,PTH,ComponentDrill
T4C0.0394
%
G90
G05
T1
X3.44Y-2.54
X3.5Y-2.4
X3.67Y-3.14
T2
X3.0Y-2.49
X3.0Y-2.59
X3.0Y-2.69
X3.0Y-2.79
X3.0Y-2.89
X3.0Y-2.99
X3.0Y-3.09
X3.0Y-3.19
X3.155Y-3.3998
X3.155Y-3.51
X3.2376Y-3.51
X3.3Y-2.49
X3.3Y-2.59
X3.3Y-2.69
X3.3Y-2.79
X3.3Y-2.89
X3.3Y-2.99
X3.3Y-3.09
X3.3Y-3.19
X3.34Y-3.51
X3.4227Y-3.3998
X3.4227Y-3.51
X3.5Y-2.49
X3.5Y-2.59
X3.5Y-2.69
X3.5Y-2.79
X3.5Y-2.89
X3.5Y-2.99
X3.5Y-3.09
X3.5Y-3.19
X3.8Y-2.49
X3.8Y-2.59
X3.8Y-2.69
X3.8Y-2.79
X3.8Y-2.89
X3.8Y-2.99
X3.8Y-3.09
X3.8Y-3.19
X4.2Y-2.59
X4.2Y-3.09
X4.2016Y-3.25
X4.3Y-3.25
X4.4Y-2.49
X4.4Y-2.59
X4.4Y-2.69
X4.4Y-2.79
X4.4Y-2.89
X4.4Y-2.99
X4.4Y-3.09
X4.7Y-2.49
X4.7Y-2.59
X4.7Y-2.69
X4.7Y-2.79
X4.7Y-2.89
X4.7Y-2.99
X4.7Y-3.09
T3
X4.0Y-2.59
X4.0Y-2.99
T4
X3.4Y-2.2
X3.5Y-2.2
X3.6Y-2.2
X3.7Y-2.2
X3.8Y-2.2
X3.9Y-2.2
X4.0Y-2.2
X4.1Y-2.2
X4.2Y-2.2
X4.3Y-2.2
X4.5Y-2.2
X4.6Y-2.2
T4
G00X3.0191Y-3.5927
M15
G01X3.0191Y-3.6517
M16
G05
G00X3.2494Y-3.6537
M15
G01X3.3282Y-3.6537
M16
G05
G00X3.5585Y-3.5927
M15
G01X3.5585Y-3.6517
M16
G05
T0
M30
