%TF.GenerationSoftware,KiCad,Pcbnew,7.0.6*%
%TF.CreationDate,2023-07-08T15:34:54+08:00*%
%TF.ProjectId,KeyboardInterface,4b657962-6f61-4726-9449-6e7465726661,rev?*%
%TF.SameCoordinates,Original*%
%TF.FileFunction,Legend,Top*%
%TF.FilePolarity,Positive*%
%FSLAX46Y46*%
G04 Gerber Fmt 4.6, Leading zero omitted, Abs format (unit mm)*
G04 Created by KiCad (PCBNEW 7.0.6) date 2023-07-08 15:34:54*
%MOMM*%
%LPD*%
G01*
G04 APERTURE LIST*
%ADD10C,0.150000*%
%ADD11C,0.100000*%
%ADD12C,0.300000*%
%ADD13C,0.120000*%
G04 APERTURE END LIST*
D10*
X87122000Y-53086000D02*
X103124000Y-53086000D01*
D11*
X104443884Y-97662419D02*
X104443884Y-96662419D01*
X105015312Y-97662419D02*
X104586741Y-97090990D01*
X105015312Y-96662419D02*
X104443884Y-97233847D01*
X105824836Y-97614800D02*
X105729598Y-97662419D01*
X105729598Y-97662419D02*
X105539122Y-97662419D01*
X105539122Y-97662419D02*
X105443884Y-97614800D01*
X105443884Y-97614800D02*
X105396265Y-97519561D01*
X105396265Y-97519561D02*
X105396265Y-97138609D01*
X105396265Y-97138609D02*
X105443884Y-97043371D01*
X105443884Y-97043371D02*
X105539122Y-96995752D01*
X105539122Y-96995752D02*
X105729598Y-96995752D01*
X105729598Y-96995752D02*
X105824836Y-97043371D01*
X105824836Y-97043371D02*
X105872455Y-97138609D01*
X105872455Y-97138609D02*
X105872455Y-97233847D01*
X105872455Y-97233847D02*
X105396265Y-97329085D01*
X106205789Y-96995752D02*
X106443884Y-97662419D01*
X106681979Y-96995752D02*
X106443884Y-97662419D01*
X106443884Y-97662419D02*
X106348646Y-97900514D01*
X106348646Y-97900514D02*
X106301027Y-97948133D01*
X106301027Y-97948133D02*
X106205789Y-97995752D01*
X107062932Y-97662419D02*
X107062932Y-96662419D01*
X107062932Y-97043371D02*
X107158170Y-96995752D01*
X107158170Y-96995752D02*
X107348646Y-96995752D01*
X107348646Y-96995752D02*
X107443884Y-97043371D01*
X107443884Y-97043371D02*
X107491503Y-97090990D01*
X107491503Y-97090990D02*
X107539122Y-97186228D01*
X107539122Y-97186228D02*
X107539122Y-97471942D01*
X107539122Y-97471942D02*
X107491503Y-97567180D01*
X107491503Y-97567180D02*
X107443884Y-97614800D01*
X107443884Y-97614800D02*
X107348646Y-97662419D01*
X107348646Y-97662419D02*
X107158170Y-97662419D01*
X107158170Y-97662419D02*
X107062932Y-97614800D01*
X108110551Y-97662419D02*
X108015313Y-97614800D01*
X108015313Y-97614800D02*
X107967694Y-97567180D01*
X107967694Y-97567180D02*
X107920075Y-97471942D01*
X107920075Y-97471942D02*
X107920075Y-97186228D01*
X107920075Y-97186228D02*
X107967694Y-97090990D01*
X107967694Y-97090990D02*
X108015313Y-97043371D01*
X108015313Y-97043371D02*
X108110551Y-96995752D01*
X108110551Y-96995752D02*
X108253408Y-96995752D01*
X108253408Y-96995752D02*
X108348646Y-97043371D01*
X108348646Y-97043371D02*
X108396265Y-97090990D01*
X108396265Y-97090990D02*
X108443884Y-97186228D01*
X108443884Y-97186228D02*
X108443884Y-97471942D01*
X108443884Y-97471942D02*
X108396265Y-97567180D01*
X108396265Y-97567180D02*
X108348646Y-97614800D01*
X108348646Y-97614800D02*
X108253408Y-97662419D01*
X108253408Y-97662419D02*
X108110551Y-97662419D01*
X109301027Y-97662419D02*
X109301027Y-97138609D01*
X109301027Y-97138609D02*
X109253408Y-97043371D01*
X109253408Y-97043371D02*
X109158170Y-96995752D01*
X109158170Y-96995752D02*
X108967694Y-96995752D01*
X108967694Y-96995752D02*
X108872456Y-97043371D01*
X109301027Y-97614800D02*
X109205789Y-97662419D01*
X109205789Y-97662419D02*
X108967694Y-97662419D01*
X108967694Y-97662419D02*
X108872456Y-97614800D01*
X108872456Y-97614800D02*
X108824837Y-97519561D01*
X108824837Y-97519561D02*
X108824837Y-97424323D01*
X108824837Y-97424323D02*
X108872456Y-97329085D01*
X108872456Y-97329085D02*
X108967694Y-97281466D01*
X108967694Y-97281466D02*
X109205789Y-97281466D01*
X109205789Y-97281466D02*
X109301027Y-97233847D01*
X109777218Y-97662419D02*
X109777218Y-96995752D01*
X109777218Y-97186228D02*
X109824837Y-97090990D01*
X109824837Y-97090990D02*
X109872456Y-97043371D01*
X109872456Y-97043371D02*
X109967694Y-96995752D01*
X109967694Y-96995752D02*
X110062932Y-96995752D01*
X110824837Y-97662419D02*
X110824837Y-96662419D01*
X110824837Y-97614800D02*
X110729599Y-97662419D01*
X110729599Y-97662419D02*
X110539123Y-97662419D01*
X110539123Y-97662419D02*
X110443885Y-97614800D01*
X110443885Y-97614800D02*
X110396266Y-97567180D01*
X110396266Y-97567180D02*
X110348647Y-97471942D01*
X110348647Y-97471942D02*
X110348647Y-97186228D01*
X110348647Y-97186228D02*
X110396266Y-97090990D01*
X110396266Y-97090990D02*
X110443885Y-97043371D01*
X110443885Y-97043371D02*
X110539123Y-96995752D01*
X110539123Y-96995752D02*
X110729599Y-96995752D01*
X110729599Y-96995752D02*
X110824837Y-97043371D01*
X111301028Y-97662419D02*
X111301028Y-96662419D01*
X111777218Y-96995752D02*
X111777218Y-97662419D01*
X111777218Y-97090990D02*
X111824837Y-97043371D01*
X111824837Y-97043371D02*
X111920075Y-96995752D01*
X111920075Y-96995752D02*
X112062932Y-96995752D01*
X112062932Y-96995752D02*
X112158170Y-97043371D01*
X112158170Y-97043371D02*
X112205789Y-97138609D01*
X112205789Y-97138609D02*
X112205789Y-97662419D01*
X112539123Y-96995752D02*
X112920075Y-96995752D01*
X112681980Y-96662419D02*
X112681980Y-97519561D01*
X112681980Y-97519561D02*
X112729599Y-97614800D01*
X112729599Y-97614800D02*
X112824837Y-97662419D01*
X112824837Y-97662419D02*
X112920075Y-97662419D01*
X113634361Y-97614800D02*
X113539123Y-97662419D01*
X113539123Y-97662419D02*
X113348647Y-97662419D01*
X113348647Y-97662419D02*
X113253409Y-97614800D01*
X113253409Y-97614800D02*
X113205790Y-97519561D01*
X113205790Y-97519561D02*
X113205790Y-97138609D01*
X113205790Y-97138609D02*
X113253409Y-97043371D01*
X113253409Y-97043371D02*
X113348647Y-96995752D01*
X113348647Y-96995752D02*
X113539123Y-96995752D01*
X113539123Y-96995752D02*
X113634361Y-97043371D01*
X113634361Y-97043371D02*
X113681980Y-97138609D01*
X113681980Y-97138609D02*
X113681980Y-97233847D01*
X113681980Y-97233847D02*
X113205790Y-97329085D01*
X114110552Y-97662419D02*
X114110552Y-96995752D01*
X114110552Y-97186228D02*
X114158171Y-97090990D01*
X114158171Y-97090990D02*
X114205790Y-97043371D01*
X114205790Y-97043371D02*
X114301028Y-96995752D01*
X114301028Y-96995752D02*
X114396266Y-96995752D01*
X114586743Y-96995752D02*
X114967695Y-96995752D01*
X114729600Y-97662419D02*
X114729600Y-96805276D01*
X114729600Y-96805276D02*
X114777219Y-96710038D01*
X114777219Y-96710038D02*
X114872457Y-96662419D01*
X114872457Y-96662419D02*
X114967695Y-96662419D01*
X115729600Y-97662419D02*
X115729600Y-97138609D01*
X115729600Y-97138609D02*
X115681981Y-97043371D01*
X115681981Y-97043371D02*
X115586743Y-96995752D01*
X115586743Y-96995752D02*
X115396267Y-96995752D01*
X115396267Y-96995752D02*
X115301029Y-97043371D01*
X115729600Y-97614800D02*
X115634362Y-97662419D01*
X115634362Y-97662419D02*
X115396267Y-97662419D01*
X115396267Y-97662419D02*
X115301029Y-97614800D01*
X115301029Y-97614800D02*
X115253410Y-97519561D01*
X115253410Y-97519561D02*
X115253410Y-97424323D01*
X115253410Y-97424323D02*
X115301029Y-97329085D01*
X115301029Y-97329085D02*
X115396267Y-97281466D01*
X115396267Y-97281466D02*
X115634362Y-97281466D01*
X115634362Y-97281466D02*
X115729600Y-97233847D01*
X116634362Y-97614800D02*
X116539124Y-97662419D01*
X116539124Y-97662419D02*
X116348648Y-97662419D01*
X116348648Y-97662419D02*
X116253410Y-97614800D01*
X116253410Y-97614800D02*
X116205791Y-97567180D01*
X116205791Y-97567180D02*
X116158172Y-97471942D01*
X116158172Y-97471942D02*
X116158172Y-97186228D01*
X116158172Y-97186228D02*
X116205791Y-97090990D01*
X116205791Y-97090990D02*
X116253410Y-97043371D01*
X116253410Y-97043371D02*
X116348648Y-96995752D01*
X116348648Y-96995752D02*
X116539124Y-96995752D01*
X116539124Y-96995752D02*
X116634362Y-97043371D01*
X117443886Y-97614800D02*
X117348648Y-97662419D01*
X117348648Y-97662419D02*
X117158172Y-97662419D01*
X117158172Y-97662419D02*
X117062934Y-97614800D01*
X117062934Y-97614800D02*
X117015315Y-97519561D01*
X117015315Y-97519561D02*
X117015315Y-97138609D01*
X117015315Y-97138609D02*
X117062934Y-97043371D01*
X117062934Y-97043371D02*
X117158172Y-96995752D01*
X117158172Y-96995752D02*
X117348648Y-96995752D01*
X117348648Y-96995752D02*
X117443886Y-97043371D01*
X117443886Y-97043371D02*
X117491505Y-97138609D01*
X117491505Y-97138609D02*
X117491505Y-97233847D01*
X117491505Y-97233847D02*
X117015315Y-97329085D01*
X118586744Y-96995752D02*
X118824839Y-97662419D01*
X118824839Y-97662419D02*
X119062934Y-96995752D01*
X119967696Y-97662419D02*
X119396268Y-97662419D01*
X119681982Y-97662419D02*
X119681982Y-96662419D01*
X119681982Y-96662419D02*
X119586744Y-96805276D01*
X119586744Y-96805276D02*
X119491506Y-96900514D01*
X119491506Y-96900514D02*
X119396268Y-96948133D01*
X120396268Y-97567180D02*
X120443887Y-97614800D01*
X120443887Y-97614800D02*
X120396268Y-97662419D01*
X120396268Y-97662419D02*
X120348649Y-97614800D01*
X120348649Y-97614800D02*
X120396268Y-97567180D01*
X120396268Y-97567180D02*
X120396268Y-97662419D01*
X121062934Y-96662419D02*
X121158172Y-96662419D01*
X121158172Y-96662419D02*
X121253410Y-96710038D01*
X121253410Y-96710038D02*
X121301029Y-96757657D01*
X121301029Y-96757657D02*
X121348648Y-96852895D01*
X121348648Y-96852895D02*
X121396267Y-97043371D01*
X121396267Y-97043371D02*
X121396267Y-97281466D01*
X121396267Y-97281466D02*
X121348648Y-97471942D01*
X121348648Y-97471942D02*
X121301029Y-97567180D01*
X121301029Y-97567180D02*
X121253410Y-97614800D01*
X121253410Y-97614800D02*
X121158172Y-97662419D01*
X121158172Y-97662419D02*
X121062934Y-97662419D01*
X121062934Y-97662419D02*
X120967696Y-97614800D01*
X120967696Y-97614800D02*
X120920077Y-97567180D01*
X120920077Y-97567180D02*
X120872458Y-97471942D01*
X120872458Y-97471942D02*
X120824839Y-97281466D01*
X120824839Y-97281466D02*
X120824839Y-97043371D01*
X120824839Y-97043371D02*
X120872458Y-96852895D01*
X120872458Y-96852895D02*
X120920077Y-96757657D01*
X120920077Y-96757657D02*
X120967696Y-96710038D01*
X120967696Y-96710038D02*
X121062934Y-96662419D01*
D10*
X108826541Y-53844819D02*
X109350350Y-53178152D01*
X108826541Y-53178152D02*
X109350350Y-53844819D01*
X116265438Y-53241411D02*
X116217819Y-53336649D01*
X116217819Y-53336649D02*
X116217819Y-53479506D01*
X116217819Y-53479506D02*
X116265438Y-53622363D01*
X116265438Y-53622363D02*
X116360676Y-53717601D01*
X116360676Y-53717601D02*
X116455914Y-53765220D01*
X116455914Y-53765220D02*
X116646390Y-53812839D01*
X116646390Y-53812839D02*
X116789247Y-53812839D01*
X116789247Y-53812839D02*
X116979723Y-53765220D01*
X116979723Y-53765220D02*
X117074961Y-53717601D01*
X117074961Y-53717601D02*
X117170200Y-53622363D01*
X117170200Y-53622363D02*
X117217819Y-53479506D01*
X117217819Y-53479506D02*
X117217819Y-53384268D01*
X117217819Y-53384268D02*
X117170200Y-53241411D01*
X117170200Y-53241411D02*
X117122580Y-53193792D01*
X117122580Y-53193792D02*
X116789247Y-53193792D01*
X116789247Y-53193792D02*
X116789247Y-53384268D01*
X117217819Y-52765220D02*
X116217819Y-52765220D01*
X116217819Y-52765220D02*
X117217819Y-52193792D01*
X117217819Y-52193792D02*
X116217819Y-52193792D01*
X117217819Y-51717601D02*
X116217819Y-51717601D01*
X116217819Y-51717601D02*
X116217819Y-51479506D01*
X116217819Y-51479506D02*
X116265438Y-51336649D01*
X116265438Y-51336649D02*
X116360676Y-51241411D01*
X116360676Y-51241411D02*
X116455914Y-51193792D01*
X116455914Y-51193792D02*
X116646390Y-51146173D01*
X116646390Y-51146173D02*
X116789247Y-51146173D01*
X116789247Y-51146173D02*
X116979723Y-51193792D01*
X116979723Y-51193792D02*
X117074961Y-51241411D01*
X117074961Y-51241411D02*
X117170200Y-51336649D01*
X117170200Y-51336649D02*
X117217819Y-51479506D01*
X117217819Y-51479506D02*
X117217819Y-51717601D01*
X104517819Y-53765220D02*
X103517819Y-53765220D01*
X103517819Y-53765220D02*
X103517819Y-53527125D01*
X103517819Y-53527125D02*
X103565438Y-53384268D01*
X103565438Y-53384268D02*
X103660676Y-53289030D01*
X103660676Y-53289030D02*
X103755914Y-53241411D01*
X103755914Y-53241411D02*
X103946390Y-53193792D01*
X103946390Y-53193792D02*
X104089247Y-53193792D01*
X104089247Y-53193792D02*
X104279723Y-53241411D01*
X104279723Y-53241411D02*
X104374961Y-53289030D01*
X104374961Y-53289030D02*
X104470200Y-53384268D01*
X104470200Y-53384268D02*
X104517819Y-53527125D01*
X104517819Y-53527125D02*
X104517819Y-53765220D01*
X103517819Y-52860458D02*
X103517819Y-52193792D01*
X103517819Y-52193792D02*
X104517819Y-52622363D01*
X86737819Y-53765220D02*
X85737819Y-53765220D01*
X85737819Y-53765220D02*
X85737819Y-53527125D01*
X85737819Y-53527125D02*
X85785438Y-53384268D01*
X85785438Y-53384268D02*
X85880676Y-53289030D01*
X85880676Y-53289030D02*
X85975914Y-53241411D01*
X85975914Y-53241411D02*
X86166390Y-53193792D01*
X86166390Y-53193792D02*
X86309247Y-53193792D01*
X86309247Y-53193792D02*
X86499723Y-53241411D01*
X86499723Y-53241411D02*
X86594961Y-53289030D01*
X86594961Y-53289030D02*
X86690200Y-53384268D01*
X86690200Y-53384268D02*
X86737819Y-53527125D01*
X86737819Y-53527125D02*
X86737819Y-53765220D01*
X85737819Y-52574744D02*
X85737819Y-52479506D01*
X85737819Y-52479506D02*
X85785438Y-52384268D01*
X85785438Y-52384268D02*
X85833057Y-52336649D01*
X85833057Y-52336649D02*
X85928295Y-52289030D01*
X85928295Y-52289030D02*
X86118771Y-52241411D01*
X86118771Y-52241411D02*
X86356866Y-52241411D01*
X86356866Y-52241411D02*
X86547342Y-52289030D01*
X86547342Y-52289030D02*
X86642580Y-52336649D01*
X86642580Y-52336649D02*
X86690200Y-52384268D01*
X86690200Y-52384268D02*
X86737819Y-52479506D01*
X86737819Y-52479506D02*
X86737819Y-52574744D01*
X86737819Y-52574744D02*
X86690200Y-52669982D01*
X86690200Y-52669982D02*
X86642580Y-52717601D01*
X86642580Y-52717601D02*
X86547342Y-52765220D01*
X86547342Y-52765220D02*
X86356866Y-52812839D01*
X86356866Y-52812839D02*
X86118771Y-52812839D01*
X86118771Y-52812839D02*
X85928295Y-52765220D01*
X85928295Y-52765220D02*
X85833057Y-52717601D01*
X85833057Y-52717601D02*
X85785438Y-52669982D01*
X85785438Y-52669982D02*
X85737819Y-52574744D01*
X114296866Y-53765220D02*
X114296866Y-53003316D01*
X114677819Y-53384268D02*
X113915914Y-53384268D01*
X113677819Y-52050935D02*
X113677819Y-52527125D01*
X113677819Y-52527125D02*
X114154009Y-52574744D01*
X114154009Y-52574744D02*
X114106390Y-52527125D01*
X114106390Y-52527125D02*
X114058771Y-52431887D01*
X114058771Y-52431887D02*
X114058771Y-52193792D01*
X114058771Y-52193792D02*
X114106390Y-52098554D01*
X114106390Y-52098554D02*
X114154009Y-52050935D01*
X114154009Y-52050935D02*
X114249247Y-52003316D01*
X114249247Y-52003316D02*
X114487342Y-52003316D01*
X114487342Y-52003316D02*
X114582580Y-52050935D01*
X114582580Y-52050935D02*
X114630200Y-52098554D01*
X114630200Y-52098554D02*
X114677819Y-52193792D01*
X114677819Y-52193792D02*
X114677819Y-52431887D01*
X114677819Y-52431887D02*
X114630200Y-52527125D01*
X114630200Y-52527125D02*
X114582580Y-52574744D01*
X113677819Y-51717601D02*
X114677819Y-51384268D01*
X114677819Y-51384268D02*
X113677819Y-51050935D01*
X107057819Y-53765220D02*
X106057819Y-53765220D01*
X107057819Y-52717602D02*
X106581628Y-53050935D01*
X107057819Y-53289030D02*
X106057819Y-53289030D01*
X106057819Y-53289030D02*
X106057819Y-52908078D01*
X106057819Y-52908078D02*
X106105438Y-52812840D01*
X106105438Y-52812840D02*
X106153057Y-52765221D01*
X106153057Y-52765221D02*
X106248295Y-52717602D01*
X106248295Y-52717602D02*
X106391152Y-52717602D01*
X106391152Y-52717602D02*
X106486390Y-52765221D01*
X106486390Y-52765221D02*
X106534009Y-52812840D01*
X106534009Y-52812840D02*
X106581628Y-52908078D01*
X106581628Y-52908078D02*
X106581628Y-53289030D01*
X107153057Y-51622364D02*
X107105438Y-51717602D01*
X107105438Y-51717602D02*
X107010200Y-51812840D01*
X107010200Y-51812840D02*
X106867342Y-51955697D01*
X106867342Y-51955697D02*
X106819723Y-52050935D01*
X106819723Y-52050935D02*
X106819723Y-52146173D01*
X107057819Y-52098554D02*
X107010200Y-52193792D01*
X107010200Y-52193792D02*
X106914961Y-52289030D01*
X106914961Y-52289030D02*
X106724485Y-52336649D01*
X106724485Y-52336649D02*
X106391152Y-52336649D01*
X106391152Y-52336649D02*
X106200676Y-52289030D01*
X106200676Y-52289030D02*
X106105438Y-52193792D01*
X106105438Y-52193792D02*
X106057819Y-52098554D01*
X106057819Y-52098554D02*
X106057819Y-51908078D01*
X106057819Y-51908078D02*
X106105438Y-51812840D01*
X106105438Y-51812840D02*
X106200676Y-51717602D01*
X106200676Y-51717602D02*
X106391152Y-51669983D01*
X106391152Y-51669983D02*
X106724485Y-51669983D01*
X106724485Y-51669983D02*
X106914961Y-51717602D01*
X106914961Y-51717602D02*
X107010200Y-51812840D01*
X107010200Y-51812840D02*
X107057819Y-51908078D01*
X107057819Y-51908078D02*
X107057819Y-52098554D01*
X107803333Y-85449580D02*
X107755714Y-85497200D01*
X107755714Y-85497200D02*
X107612857Y-85544819D01*
X107612857Y-85544819D02*
X107517619Y-85544819D01*
X107517619Y-85544819D02*
X107374762Y-85497200D01*
X107374762Y-85497200D02*
X107279524Y-85401961D01*
X107279524Y-85401961D02*
X107231905Y-85306723D01*
X107231905Y-85306723D02*
X107184286Y-85116247D01*
X107184286Y-85116247D02*
X107184286Y-84973390D01*
X107184286Y-84973390D02*
X107231905Y-84782914D01*
X107231905Y-84782914D02*
X107279524Y-84687676D01*
X107279524Y-84687676D02*
X107374762Y-84592438D01*
X107374762Y-84592438D02*
X107517619Y-84544819D01*
X107517619Y-84544819D02*
X107612857Y-84544819D01*
X107612857Y-84544819D02*
X107755714Y-84592438D01*
X107755714Y-84592438D02*
X107803333Y-84640057D01*
X108755714Y-85544819D02*
X108184286Y-85544819D01*
X108470000Y-85544819D02*
X108470000Y-84544819D01*
X108470000Y-84544819D02*
X108374762Y-84687676D01*
X108374762Y-84687676D02*
X108279524Y-84782914D01*
X108279524Y-84782914D02*
X108184286Y-84830533D01*
D12*
X109365144Y-94415431D02*
X110381144Y-95939431D01*
X110381144Y-94415431D02*
X109365144Y-95939431D01*
X110961716Y-95939431D02*
X110961716Y-94923431D01*
X110961716Y-94415431D02*
X110889144Y-94488002D01*
X110889144Y-94488002D02*
X110961716Y-94560574D01*
X110961716Y-94560574D02*
X111034287Y-94488002D01*
X111034287Y-94488002D02*
X110961716Y-94415431D01*
X110961716Y-94415431D02*
X110961716Y-94560574D01*
X112340573Y-95939431D02*
X112340573Y-95141145D01*
X112340573Y-95141145D02*
X112268001Y-94996002D01*
X112268001Y-94996002D02*
X112122858Y-94923431D01*
X112122858Y-94923431D02*
X111832573Y-94923431D01*
X111832573Y-94923431D02*
X111687430Y-94996002D01*
X112340573Y-95866860D02*
X112195430Y-95939431D01*
X112195430Y-95939431D02*
X111832573Y-95939431D01*
X111832573Y-95939431D02*
X111687430Y-95866860D01*
X111687430Y-95866860D02*
X111614858Y-95721717D01*
X111614858Y-95721717D02*
X111614858Y-95576574D01*
X111614858Y-95576574D02*
X111687430Y-95431431D01*
X111687430Y-95431431D02*
X111832573Y-95358860D01*
X111832573Y-95358860D02*
X112195430Y-95358860D01*
X112195430Y-95358860D02*
X112340573Y-95286288D01*
X113284001Y-95939431D02*
X113138858Y-95866860D01*
X113138858Y-95866860D02*
X113066287Y-95794288D01*
X113066287Y-95794288D02*
X112993715Y-95649145D01*
X112993715Y-95649145D02*
X112993715Y-95213717D01*
X112993715Y-95213717D02*
X113066287Y-95068574D01*
X113066287Y-95068574D02*
X113138858Y-94996002D01*
X113138858Y-94996002D02*
X113284001Y-94923431D01*
X113284001Y-94923431D02*
X113501715Y-94923431D01*
X113501715Y-94923431D02*
X113646858Y-94996002D01*
X113646858Y-94996002D02*
X113719430Y-95068574D01*
X113719430Y-95068574D02*
X113792001Y-95213717D01*
X113792001Y-95213717D02*
X113792001Y-95649145D01*
X113792001Y-95649145D02*
X113719430Y-95794288D01*
X113719430Y-95794288D02*
X113646858Y-95866860D01*
X113646858Y-95866860D02*
X113501715Y-95939431D01*
X113501715Y-95939431D02*
X113284001Y-95939431D01*
X114445144Y-95939431D02*
X114445144Y-94415431D01*
X114445144Y-94415431D02*
X115316001Y-95939431D01*
X115316001Y-95939431D02*
X115316001Y-94415431D01*
X116041715Y-95939431D02*
X116041715Y-94923431D01*
X116041715Y-94415431D02*
X115969143Y-94488002D01*
X115969143Y-94488002D02*
X116041715Y-94560574D01*
X116041715Y-94560574D02*
X116114286Y-94488002D01*
X116114286Y-94488002D02*
X116041715Y-94415431D01*
X116041715Y-94415431D02*
X116041715Y-94560574D01*
X117420572Y-94923431D02*
X117420572Y-95939431D01*
X116767429Y-94923431D02*
X116767429Y-95721717D01*
X116767429Y-95721717D02*
X116840000Y-95866860D01*
X116840000Y-95866860D02*
X116985143Y-95939431D01*
X116985143Y-95939431D02*
X117202857Y-95939431D01*
X117202857Y-95939431D02*
X117348000Y-95866860D01*
X117348000Y-95866860D02*
X117420572Y-95794288D01*
X118146286Y-95939431D02*
X118146286Y-94415431D01*
X118146286Y-94415431D02*
X119017143Y-95939431D01*
X119017143Y-95939431D02*
X119017143Y-94415431D01*
X119742857Y-95939431D02*
X119742857Y-94923431D01*
X119742857Y-94415431D02*
X119670285Y-94488002D01*
X119670285Y-94488002D02*
X119742857Y-94560574D01*
X119742857Y-94560574D02*
X119815428Y-94488002D01*
X119815428Y-94488002D02*
X119742857Y-94415431D01*
X119742857Y-94415431D02*
X119742857Y-94560574D01*
X121121714Y-94923431D02*
X121121714Y-95939431D01*
X120468571Y-94923431D02*
X120468571Y-95721717D01*
X120468571Y-95721717D02*
X120541142Y-95866860D01*
X120541142Y-95866860D02*
X120686285Y-95939431D01*
X120686285Y-95939431D02*
X120903999Y-95939431D01*
X120903999Y-95939431D02*
X121049142Y-95866860D01*
X121049142Y-95866860D02*
X121121714Y-95794288D01*
D10*
X82081905Y-96339819D02*
X82081905Y-95339819D01*
X82081905Y-95339819D02*
X82462857Y-95339819D01*
X82462857Y-95339819D02*
X82558095Y-95387438D01*
X82558095Y-95387438D02*
X82605714Y-95435057D01*
X82605714Y-95435057D02*
X82653333Y-95530295D01*
X82653333Y-95530295D02*
X82653333Y-95673152D01*
X82653333Y-95673152D02*
X82605714Y-95768390D01*
X82605714Y-95768390D02*
X82558095Y-95816009D01*
X82558095Y-95816009D02*
X82462857Y-95863628D01*
X82462857Y-95863628D02*
X82081905Y-95863628D01*
X83034286Y-96292200D02*
X83177143Y-96339819D01*
X83177143Y-96339819D02*
X83415238Y-96339819D01*
X83415238Y-96339819D02*
X83510476Y-96292200D01*
X83510476Y-96292200D02*
X83558095Y-96244580D01*
X83558095Y-96244580D02*
X83605714Y-96149342D01*
X83605714Y-96149342D02*
X83605714Y-96054104D01*
X83605714Y-96054104D02*
X83558095Y-95958866D01*
X83558095Y-95958866D02*
X83510476Y-95911247D01*
X83510476Y-95911247D02*
X83415238Y-95863628D01*
X83415238Y-95863628D02*
X83224762Y-95816009D01*
X83224762Y-95816009D02*
X83129524Y-95768390D01*
X83129524Y-95768390D02*
X83081905Y-95720771D01*
X83081905Y-95720771D02*
X83034286Y-95625533D01*
X83034286Y-95625533D02*
X83034286Y-95530295D01*
X83034286Y-95530295D02*
X83081905Y-95435057D01*
X83081905Y-95435057D02*
X83129524Y-95387438D01*
X83129524Y-95387438D02*
X83224762Y-95339819D01*
X83224762Y-95339819D02*
X83462857Y-95339819D01*
X83462857Y-95339819D02*
X83605714Y-95387438D01*
X84748571Y-95292200D02*
X83891429Y-96577914D01*
X85034286Y-95435057D02*
X85081905Y-95387438D01*
X85081905Y-95387438D02*
X85177143Y-95339819D01*
X85177143Y-95339819D02*
X85415238Y-95339819D01*
X85415238Y-95339819D02*
X85510476Y-95387438D01*
X85510476Y-95387438D02*
X85558095Y-95435057D01*
X85558095Y-95435057D02*
X85605714Y-95530295D01*
X85605714Y-95530295D02*
X85605714Y-95625533D01*
X85605714Y-95625533D02*
X85558095Y-95768390D01*
X85558095Y-95768390D02*
X84986667Y-96339819D01*
X84986667Y-96339819D02*
X85605714Y-96339819D01*
X102054819Y-71604094D02*
X101054819Y-71604094D01*
X101054819Y-71604094D02*
X101054819Y-71365999D01*
X101054819Y-71365999D02*
X101102438Y-71223142D01*
X101102438Y-71223142D02*
X101197676Y-71127904D01*
X101197676Y-71127904D02*
X101292914Y-71080285D01*
X101292914Y-71080285D02*
X101483390Y-71032666D01*
X101483390Y-71032666D02*
X101626247Y-71032666D01*
X101626247Y-71032666D02*
X101816723Y-71080285D01*
X101816723Y-71080285D02*
X101911961Y-71127904D01*
X101911961Y-71127904D02*
X102007200Y-71223142D01*
X102007200Y-71223142D02*
X102054819Y-71365999D01*
X102054819Y-71365999D02*
X102054819Y-71604094D01*
X102054819Y-70080285D02*
X102054819Y-70651713D01*
X102054819Y-70365999D02*
X101054819Y-70365999D01*
X101054819Y-70365999D02*
X101197676Y-70461237D01*
X101197676Y-70461237D02*
X101292914Y-70556475D01*
X101292914Y-70556475D02*
X101340533Y-70651713D01*
X114808095Y-70574819D02*
X114808095Y-71384342D01*
X114808095Y-71384342D02*
X114855714Y-71479580D01*
X114855714Y-71479580D02*
X114903333Y-71527200D01*
X114903333Y-71527200D02*
X114998571Y-71574819D01*
X114998571Y-71574819D02*
X115189047Y-71574819D01*
X115189047Y-71574819D02*
X115284285Y-71527200D01*
X115284285Y-71527200D02*
X115331904Y-71479580D01*
X115331904Y-71479580D02*
X115379523Y-71384342D01*
X115379523Y-71384342D02*
X115379523Y-70574819D01*
X116379523Y-71574819D02*
X115808095Y-71574819D01*
X116093809Y-71574819D02*
X116093809Y-70574819D01*
X116093809Y-70574819D02*
X115998571Y-70717676D01*
X115998571Y-70717676D02*
X115903333Y-70812914D01*
X115903333Y-70812914D02*
X115808095Y-70860533D01*
X107134819Y-72302666D02*
X106658628Y-72635999D01*
X107134819Y-72874094D02*
X106134819Y-72874094D01*
X106134819Y-72874094D02*
X106134819Y-72493142D01*
X106134819Y-72493142D02*
X106182438Y-72397904D01*
X106182438Y-72397904D02*
X106230057Y-72350285D01*
X106230057Y-72350285D02*
X106325295Y-72302666D01*
X106325295Y-72302666D02*
X106468152Y-72302666D01*
X106468152Y-72302666D02*
X106563390Y-72350285D01*
X106563390Y-72350285D02*
X106611009Y-72397904D01*
X106611009Y-72397904D02*
X106658628Y-72493142D01*
X106658628Y-72493142D02*
X106658628Y-72874094D01*
X107134819Y-71350285D02*
X107134819Y-71921713D01*
X107134819Y-71635999D02*
X106134819Y-71635999D01*
X106134819Y-71635999D02*
X106277676Y-71731237D01*
X106277676Y-71731237D02*
X106372914Y-71826475D01*
X106372914Y-71826475D02*
X106420533Y-71921713D01*
X91948095Y-71844819D02*
X91948095Y-72654342D01*
X91948095Y-72654342D02*
X91995714Y-72749580D01*
X91995714Y-72749580D02*
X92043333Y-72797200D01*
X92043333Y-72797200D02*
X92138571Y-72844819D01*
X92138571Y-72844819D02*
X92329047Y-72844819D01*
X92329047Y-72844819D02*
X92424285Y-72797200D01*
X92424285Y-72797200D02*
X92471904Y-72749580D01*
X92471904Y-72749580D02*
X92519523Y-72654342D01*
X92519523Y-72654342D02*
X92519523Y-71844819D01*
X92900476Y-71844819D02*
X93519523Y-71844819D01*
X93519523Y-71844819D02*
X93186190Y-72225771D01*
X93186190Y-72225771D02*
X93329047Y-72225771D01*
X93329047Y-72225771D02*
X93424285Y-72273390D01*
X93424285Y-72273390D02*
X93471904Y-72321009D01*
X93471904Y-72321009D02*
X93519523Y-72416247D01*
X93519523Y-72416247D02*
X93519523Y-72654342D01*
X93519523Y-72654342D02*
X93471904Y-72749580D01*
X93471904Y-72749580D02*
X93424285Y-72797200D01*
X93424285Y-72797200D02*
X93329047Y-72844819D01*
X93329047Y-72844819D02*
X93043333Y-72844819D01*
X93043333Y-72844819D02*
X92948095Y-72797200D01*
X92948095Y-72797200D02*
X92900476Y-72749580D01*
X79248095Y-71844819D02*
X79248095Y-72654342D01*
X79248095Y-72654342D02*
X79295714Y-72749580D01*
X79295714Y-72749580D02*
X79343333Y-72797200D01*
X79343333Y-72797200D02*
X79438571Y-72844819D01*
X79438571Y-72844819D02*
X79629047Y-72844819D01*
X79629047Y-72844819D02*
X79724285Y-72797200D01*
X79724285Y-72797200D02*
X79771904Y-72749580D01*
X79771904Y-72749580D02*
X79819523Y-72654342D01*
X79819523Y-72654342D02*
X79819523Y-71844819D01*
X80248095Y-71940057D02*
X80295714Y-71892438D01*
X80295714Y-71892438D02*
X80390952Y-71844819D01*
X80390952Y-71844819D02*
X80629047Y-71844819D01*
X80629047Y-71844819D02*
X80724285Y-71892438D01*
X80724285Y-71892438D02*
X80771904Y-71940057D01*
X80771904Y-71940057D02*
X80819523Y-72035295D01*
X80819523Y-72035295D02*
X80819523Y-72130533D01*
X80819523Y-72130533D02*
X80771904Y-72273390D01*
X80771904Y-72273390D02*
X80200476Y-72844819D01*
X80200476Y-72844819D02*
X80819523Y-72844819D01*
D13*
%TO.C,C1*%
X105350000Y-81180000D02*
X105350000Y-83920000D01*
X105350000Y-81180000D02*
X110590000Y-81180000D01*
X105350000Y-83920000D02*
X110590000Y-83920000D01*
X110590000Y-81180000D02*
X110590000Y-83920000D01*
%TO.C,J2*%
X87630000Y-57210000D02*
X110550000Y-57210000D01*
X87630000Y-57210000D02*
X87630000Y-54550000D01*
X110550000Y-57210000D02*
X110550000Y-54550000D01*
X85030000Y-55880000D02*
X85030000Y-54550000D01*
X85030000Y-54550000D02*
X86360000Y-54550000D01*
X87630000Y-54550000D02*
X110550000Y-54550000D01*
%TO.C,XiaoNiuNiu*%
G36*
X106270799Y-89375460D02*
G01*
X106355540Y-89430643D01*
X106412926Y-89513313D01*
X106434956Y-89612455D01*
X106413631Y-89717057D01*
X106351950Y-89805577D01*
X106245669Y-89877394D01*
X106133038Y-89891303D01*
X106022022Y-89846340D01*
X106021036Y-89845652D01*
X105943216Y-89758675D01*
X105911606Y-89651161D01*
X105925058Y-89540358D01*
X105982425Y-89443514D01*
X106051253Y-89391607D01*
X106166703Y-89358777D01*
X106270799Y-89375460D01*
G37*
G36*
X104758901Y-89376764D02*
G01*
X104846648Y-89426597D01*
X104911223Y-89503366D01*
X104941214Y-89599849D01*
X104925209Y-89708824D01*
X104911305Y-89739870D01*
X104831264Y-89842021D01*
X104731109Y-89890591D01*
X104621651Y-89883860D01*
X104513700Y-89820108D01*
X104498361Y-89805577D01*
X104426400Y-89699253D01*
X104413327Y-89587168D01*
X104459676Y-89475974D01*
X104470751Y-89461092D01*
X104559541Y-89386790D01*
X104659395Y-89361088D01*
X104758901Y-89376764D01*
G37*
G36*
X105022141Y-91557826D02*
G01*
X105126281Y-91621951D01*
X105202932Y-91716038D01*
X105246687Y-91825063D01*
X105252142Y-91934000D01*
X105213892Y-92027825D01*
X105197828Y-92046205D01*
X105117878Y-92098239D01*
X105032580Y-92094366D01*
X104934263Y-92034122D01*
X104929385Y-92030058D01*
X104851323Y-91939444D01*
X104799156Y-91830506D01*
X104781841Y-91725396D01*
X104788745Y-91682150D01*
X104840737Y-91601428D01*
X104922616Y-91555103D01*
X105012830Y-91554656D01*
X105022141Y-91557826D01*
G37*
G36*
X105916748Y-91539096D02*
G01*
X105971829Y-91577845D01*
X105985895Y-91591551D01*
X106035855Y-91680497D01*
X106042601Y-91789870D01*
X106010519Y-91902558D01*
X105943994Y-92001448D01*
X105865646Y-92060847D01*
X105771378Y-92099650D01*
X105703640Y-92097328D01*
X105643223Y-92052536D01*
X105636057Y-92044802D01*
X105588888Y-91951536D01*
X105587097Y-91840448D01*
X105625853Y-91727680D01*
X105700323Y-91629377D01*
X105776719Y-91574847D01*
X105859680Y-91538733D01*
X105916748Y-91539096D01*
G37*
G36*
X106050521Y-86970009D02*
G01*
X106475821Y-87065233D01*
X106876320Y-87209487D01*
X106909899Y-87224462D01*
X107095681Y-87308700D01*
X107290967Y-87208102D01*
X107483661Y-87122234D01*
X107655760Y-87071874D01*
X107800864Y-87057487D01*
X107912572Y-87079537D01*
X107984483Y-87138488D01*
X107994615Y-87157084D01*
X108010786Y-87251391D01*
X107996250Y-87382759D01*
X107953915Y-87537804D01*
X107886689Y-87703139D01*
X107867532Y-87742159D01*
X107820841Y-87848793D01*
X107804498Y-87921401D01*
X107818713Y-87953850D01*
X107860674Y-87941919D01*
X107922031Y-87931826D01*
X108025360Y-87943811D01*
X108157628Y-87974476D01*
X108305797Y-88020424D01*
X108456834Y-88078257D01*
X108555174Y-88122955D01*
X108697158Y-88197408D01*
X108819309Y-88274762D01*
X108939583Y-88368048D01*
X109075937Y-88490297D01*
X109123491Y-88535358D01*
X109231002Y-88642060D01*
X109320217Y-88738074D01*
X109382784Y-88813853D01*
X109410350Y-88859849D01*
X109410955Y-88863920D01*
X109382801Y-88907939D01*
X109306239Y-88954909D01*
X109193120Y-89001160D01*
X109055292Y-89043019D01*
X108904605Y-89076815D01*
X108752909Y-89098876D01*
X108630818Y-89105661D01*
X108472042Y-89106109D01*
X108635779Y-89334312D01*
X108893063Y-89744685D01*
X109098207Y-90185880D01*
X109251045Y-90657513D01*
X109294779Y-90841867D01*
X109336378Y-91102212D01*
X109359765Y-91397705D01*
X109364985Y-91708340D01*
X109352080Y-92014109D01*
X109321095Y-92295005D01*
X109291284Y-92454754D01*
X109152653Y-92939902D01*
X108963764Y-93391433D01*
X108723737Y-93810894D01*
X108431694Y-94199835D01*
X108105196Y-94542539D01*
X107829204Y-94802347D01*
X107892218Y-94890842D01*
X108000636Y-95087133D01*
X108072606Y-95311512D01*
X108096386Y-95471265D01*
X108098564Y-95621386D01*
X108073990Y-95729136D01*
X108014928Y-95809708D01*
X107913643Y-95878290D01*
X107880287Y-95895608D01*
X107829650Y-95919803D01*
X107781045Y-95938366D01*
X107725582Y-95952185D01*
X107654369Y-95962150D01*
X107558517Y-95969150D01*
X107429135Y-95974074D01*
X107257333Y-95977812D01*
X107034220Y-95981253D01*
X107022371Y-95981422D01*
X106701201Y-95983260D01*
X106434809Y-95978033D01*
X106217637Y-95964568D01*
X106044130Y-95941691D01*
X105908730Y-95908229D01*
X105805882Y-95863007D01*
X105730030Y-95804853D01*
X105675616Y-95732593D01*
X105655566Y-95692745D01*
X105628526Y-95639335D01*
X105596172Y-95611469D01*
X105540496Y-95601858D01*
X105443489Y-95603209D01*
X105435144Y-95603510D01*
X105334023Y-95609436D01*
X105274498Y-95624041D01*
X105237548Y-95656520D01*
X105204733Y-95714900D01*
X105126134Y-95814984D01*
X104999879Y-95891309D01*
X104821358Y-95946465D01*
X104775289Y-95955887D01*
X104676992Y-95967718D01*
X104532029Y-95976343D01*
X104352228Y-95981866D01*
X104149414Y-95984388D01*
X103935414Y-95984014D01*
X103722054Y-95980847D01*
X103521160Y-95974990D01*
X103344558Y-95966546D01*
X103204074Y-95955619D01*
X103111535Y-95942312D01*
X103107264Y-95941319D01*
X102952196Y-95885923D01*
X102848593Y-95803333D01*
X102790761Y-95686556D01*
X102773007Y-95530650D01*
X102791649Y-95345338D01*
X102842268Y-95154890D01*
X102916903Y-94985843D01*
X102954185Y-94926640D01*
X103019158Y-94835394D01*
X102658702Y-94478926D01*
X102398562Y-94204524D01*
X102182890Y-93936993D01*
X101999950Y-93660491D01*
X101855643Y-93395012D01*
X101671079Y-92957467D01*
X101542523Y-92503828D01*
X101508286Y-92286474D01*
X101632363Y-92286474D01*
X101639361Y-92337543D01*
X101658601Y-92427469D01*
X101686535Y-92546324D01*
X101813348Y-92959024D01*
X101992311Y-93364224D01*
X102216704Y-93751026D01*
X102479807Y-94108531D01*
X102774899Y-94425842D01*
X102931621Y-94565419D01*
X103108044Y-94712240D01*
X103258987Y-94603799D01*
X103498992Y-94466225D01*
X103752162Y-94384874D01*
X104010936Y-94359141D01*
X104267753Y-94388425D01*
X104515051Y-94472120D01*
X104745270Y-94609623D01*
X104888572Y-94733918D01*
X105025934Y-94898847D01*
X105134637Y-95084615D01*
X105204238Y-95271751D01*
X105220133Y-95352069D01*
X105236120Y-95471265D01*
X105428569Y-95471265D01*
X105533440Y-95469727D01*
X105592971Y-95461091D01*
X105622432Y-95439321D01*
X105637093Y-95398381D01*
X105639472Y-95387911D01*
X105705195Y-95157228D01*
X105795169Y-94967306D01*
X105919382Y-94799987D01*
X106018168Y-94699450D01*
X106227949Y-94541541D01*
X106464248Y-94430544D01*
X106715349Y-94370044D01*
X106969539Y-94363623D01*
X107071169Y-94377314D01*
X107204713Y-94411118D01*
X107347127Y-94461935D01*
X107481060Y-94522045D01*
X107589161Y-94583730D01*
X107650907Y-94635259D01*
X107699858Y-94675277D01*
X107754128Y-94671048D01*
X107827833Y-94620491D01*
X107843662Y-94606832D01*
X107897493Y-94552929D01*
X107909631Y-94511650D01*
X107889609Y-94463816D01*
X107872297Y-94401798D01*
X107856905Y-94282239D01*
X107843720Y-94108197D01*
X107833032Y-93882731D01*
X107831835Y-93849665D01*
X107824571Y-93653562D01*
X107817098Y-93504751D01*
X107807344Y-93389933D01*
X107793238Y-93295810D01*
X107772707Y-93209082D01*
X107743681Y-93116450D01*
X107704087Y-93004614D01*
X107697277Y-92985823D01*
X107630761Y-92784782D01*
X107592478Y-92623351D01*
X107579503Y-92490859D01*
X107581345Y-92386865D01*
X107595773Y-92320443D01*
X107631008Y-92268705D01*
X107674077Y-92227515D01*
X107765540Y-92161126D01*
X107873581Y-92116115D01*
X108010754Y-92089371D01*
X108189618Y-92077783D01*
X108282871Y-92076684D01*
X108447209Y-92071227D01*
X108579426Y-92056140D01*
X108661749Y-92034504D01*
X108725340Y-91994289D01*
X108814674Y-91921425D01*
X108915015Y-91828387D01*
X108965992Y-91776867D01*
X109057151Y-91685041D01*
X109134951Y-91612673D01*
X109188767Y-91569335D01*
X109205383Y-91561241D01*
X109221423Y-91533306D01*
X109227274Y-91456942D01*
X109223867Y-91343314D01*
X109212138Y-91203584D01*
X109193018Y-91048915D01*
X109167442Y-90890470D01*
X109136848Y-90741581D01*
X109107431Y-90618051D01*
X109082533Y-90518888D01*
X109065575Y-90457440D01*
X109060620Y-90444210D01*
X109028351Y-90434321D01*
X108951471Y-90417782D01*
X108845182Y-90397803D01*
X108819835Y-90393347D01*
X108696768Y-90367176D01*
X108588106Y-90335658D01*
X108515582Y-90305194D01*
X108511097Y-90302414D01*
X108472043Y-90273181D01*
X108450066Y-90239015D01*
X108441662Y-90184367D01*
X108443330Y-90093688D01*
X108447447Y-90019863D01*
X108471436Y-89826075D01*
X108518887Y-89677206D01*
X108529051Y-89656333D01*
X108565313Y-89569197D01*
X108580387Y-89497697D01*
X108577902Y-89475306D01*
X108549823Y-89423855D01*
X108500966Y-89351162D01*
X108443734Y-89273758D01*
X108390533Y-89208175D01*
X108353768Y-89170943D01*
X108347045Y-89167667D01*
X108341328Y-89194027D01*
X108345979Y-89262843D01*
X108354754Y-89325859D01*
X108374609Y-89495938D01*
X108385342Y-89693886D01*
X108387211Y-89902634D01*
X108380473Y-90105112D01*
X108365387Y-90284253D01*
X108342211Y-90422988D01*
X108337916Y-90439761D01*
X108207639Y-90804740D01*
X108020335Y-91160274D01*
X107779358Y-91502337D01*
X107488059Y-91826901D01*
X107149790Y-92129936D01*
X106767903Y-92407415D01*
X106626022Y-92496861D01*
X106507494Y-92563905D01*
X106369499Y-92634330D01*
X106225367Y-92702212D01*
X106088431Y-92761627D01*
X105972022Y-92806650D01*
X105889472Y-92831359D01*
X105866698Y-92834272D01*
X105828931Y-92859566D01*
X105793090Y-92918236D01*
X105774177Y-92984465D01*
X105773723Y-92994288D01*
X105792893Y-93034008D01*
X105844481Y-93106239D01*
X105919604Y-93199116D01*
X105973775Y-93261496D01*
X106102211Y-93414072D01*
X106188680Y-93538964D01*
X106238759Y-93646095D01*
X106258028Y-93745391D01*
X106258688Y-93768434D01*
X106230427Y-93889155D01*
X106153571Y-94000023D01*
X106040011Y-94095229D01*
X105901638Y-94168961D01*
X105750343Y-94215409D01*
X105598017Y-94228764D01*
X105456550Y-94203213D01*
X105410062Y-94183110D01*
X105304628Y-94101705D01*
X105210341Y-93980649D01*
X105143155Y-93840722D01*
X105140141Y-93831578D01*
X105076779Y-93679178D01*
X104985342Y-93539464D01*
X104859628Y-93406772D01*
X104693434Y-93275436D01*
X104480560Y-93139794D01*
X104234388Y-93004363D01*
X104031282Y-92892641D01*
X103883678Y-92797999D01*
X103789415Y-92718801D01*
X103746335Y-92653413D01*
X103742936Y-92632148D01*
X103759399Y-92553179D01*
X103799751Y-92461385D01*
X103850431Y-92383644D01*
X103884069Y-92352403D01*
X103922831Y-92323907D01*
X103909020Y-92301118D01*
X103886294Y-92286837D01*
X103747362Y-92189447D01*
X103585128Y-92052843D01*
X103410347Y-91887961D01*
X103233776Y-91705732D01*
X103066172Y-91517093D01*
X102918293Y-91332978D01*
X102838196Y-91221429D01*
X102753229Y-91077078D01*
X102664932Y-90895236D01*
X102582579Y-90697707D01*
X102515447Y-90506295D01*
X102481174Y-90382075D01*
X102459775Y-90248057D01*
X102445481Y-90073007D01*
X102438553Y-89876125D01*
X102439253Y-89676612D01*
X102447841Y-89493669D01*
X102464580Y-89346496D01*
X102466906Y-89333442D01*
X102482374Y-89242574D01*
X102486116Y-89187196D01*
X102474529Y-89169913D01*
X102444006Y-89193330D01*
X102390942Y-89260052D01*
X102311732Y-89372683D01*
X102215216Y-89515298D01*
X102056135Y-89767812D01*
X101929889Y-90006673D01*
X101823085Y-90257443D01*
X101814428Y-90280250D01*
X101768539Y-90410336D01*
X101748874Y-90498304D01*
X101756801Y-90557332D01*
X101793688Y-90600594D01*
X101851418Y-90636206D01*
X101970365Y-90720192D01*
X102085411Y-90835247D01*
X102181239Y-90963088D01*
X102242527Y-91085431D01*
X102250547Y-91112562D01*
X102269353Y-91204211D01*
X102291112Y-91332401D01*
X102311885Y-91473446D01*
X102317098Y-91512864D01*
X102338215Y-91649534D01*
X102364003Y-91776422D01*
X102389844Y-91871706D01*
X102397280Y-91891742D01*
X102466080Y-92013595D01*
X102555573Y-92113167D01*
X102650229Y-92174105D01*
X102672204Y-92181218D01*
X102746134Y-92228463D01*
X102802473Y-92319228D01*
X102840231Y-92439097D01*
X102858416Y-92573656D01*
X102856039Y-92708488D01*
X102832108Y-92829180D01*
X102785636Y-92921317D01*
X102726184Y-92966995D01*
X102645475Y-92984830D01*
X102558769Y-92974631D01*
X102459602Y-92932788D01*
X102341509Y-92855688D01*
X102198026Y-92739720D01*
X102022687Y-92581273D01*
X102003466Y-92563249D01*
X101887005Y-92455546D01*
X101784948Y-92364544D01*
X101705850Y-92297615D01*
X101658268Y-92262131D01*
X101649645Y-92258377D01*
X101636245Y-92263629D01*
X101632363Y-92286474D01*
X101508286Y-92286474D01*
X101469435Y-92039841D01*
X101451274Y-91571253D01*
X101487498Y-91103811D01*
X101577568Y-90643262D01*
X101720942Y-90195352D01*
X101917078Y-89765828D01*
X102165438Y-89360436D01*
X102245735Y-89250083D01*
X102354472Y-89106109D01*
X102192439Y-89105661D01*
X102048248Y-89096648D01*
X101895179Y-89072786D01*
X101745031Y-89037717D01*
X101609604Y-88995082D01*
X101500696Y-88948522D01*
X101430107Y-88901678D01*
X101409046Y-88863920D01*
X101429303Y-88825141D01*
X101621217Y-88825141D01*
X101648881Y-88849314D01*
X101722019Y-88876809D01*
X101825853Y-88904284D01*
X101945603Y-88928401D01*
X102066491Y-88945818D01*
X102173738Y-88953195D01*
X102187941Y-88953228D01*
X102307300Y-88942509D01*
X102426009Y-88917429D01*
X102454750Y-88908219D01*
X102559860Y-88873218D01*
X102629038Y-88862552D01*
X102666569Y-88883156D01*
X102676737Y-88941967D01*
X102663828Y-89045921D01*
X102633186Y-89197040D01*
X102607832Y-89355681D01*
X102590584Y-89547192D01*
X102581674Y-89754460D01*
X102581337Y-89960373D01*
X102589807Y-90147820D01*
X102607316Y-90299688D01*
X102617443Y-90348830D01*
X102670337Y-90515078D01*
X102750296Y-90709263D01*
X102847767Y-90911014D01*
X102953194Y-91099958D01*
X103015404Y-91197392D01*
X103153652Y-91380173D01*
X103328000Y-91578839D01*
X103523077Y-91777247D01*
X103723516Y-91959253D01*
X103803556Y-92025289D01*
X104030883Y-92206747D01*
X104044975Y-92095245D01*
X104227786Y-92095245D01*
X104231133Y-92214027D01*
X104245162Y-92298066D01*
X104246912Y-92302964D01*
X104287148Y-92345784D01*
X104373849Y-92401888D01*
X104495705Y-92466202D01*
X104641407Y-92533655D01*
X104799646Y-92599171D01*
X104959113Y-92657679D01*
X105108498Y-92704104D01*
X105182673Y-92722741D01*
X105335238Y-92738944D01*
X105520649Y-92730823D01*
X105716851Y-92699754D01*
X105776452Y-92685669D01*
X105911018Y-92645015D01*
X106064467Y-92589188D01*
X106219934Y-92525335D01*
X106360551Y-92460600D01*
X106469453Y-92402132D01*
X106510413Y-92374701D01*
X106566272Y-92296684D01*
X106595837Y-92179316D01*
X106599729Y-92037562D01*
X106578566Y-91886389D01*
X106532969Y-91740763D01*
X106479948Y-91639281D01*
X106322798Y-91451086D01*
X106128996Y-91303419D01*
X105907524Y-91196907D01*
X105667367Y-91132179D01*
X105417510Y-91109862D01*
X105166935Y-91130582D01*
X104924629Y-91194968D01*
X104699573Y-91303647D01*
X104500754Y-91457247D01*
X104460390Y-91498237D01*
X104378735Y-91593967D01*
X104309647Y-91689824D01*
X104271551Y-91757925D01*
X104249023Y-91844446D01*
X104234092Y-91964469D01*
X104227786Y-92095245D01*
X104044975Y-92095245D01*
X104052951Y-92032145D01*
X104080241Y-91897999D01*
X104124391Y-91756161D01*
X104148743Y-91696505D01*
X104282036Y-91474933D01*
X104463150Y-91288998D01*
X104693148Y-91137789D01*
X104912303Y-91041487D01*
X105090367Y-90996753D01*
X105302057Y-90974559D01*
X105524724Y-90974905D01*
X105735718Y-90997791D01*
X105907697Y-91041487D01*
X106167392Y-91161500D01*
X106386093Y-91315206D01*
X106559617Y-91497860D01*
X106683786Y-91704719D01*
X106754417Y-91931038D01*
X106765827Y-92015195D01*
X106777719Y-92111252D01*
X106791988Y-92177384D01*
X106803501Y-92197756D01*
X106833599Y-92179400D01*
X106900226Y-92129351D01*
X106993690Y-92055144D01*
X107104298Y-91964310D01*
X107110121Y-91959453D01*
X107429453Y-91662667D01*
X107701427Y-91346382D01*
X107922740Y-91015546D01*
X108090087Y-90675108D01*
X108200165Y-90330016D01*
X108201271Y-90325230D01*
X108219315Y-90201041D01*
X108229035Y-90033517D01*
X108230692Y-89839335D01*
X108224552Y-89635169D01*
X108210878Y-89437695D01*
X108189935Y-89263588D01*
X108183895Y-89227350D01*
X108156203Y-89064794D01*
X108143919Y-88954653D01*
X108151095Y-88889795D01*
X108181785Y-88863087D01*
X108240042Y-88867398D01*
X108329919Y-88895593D01*
X108365251Y-88908219D01*
X108474748Y-88936106D01*
X108598751Y-88951971D01*
X108632060Y-88953228D01*
X108735933Y-88947672D01*
X108855698Y-88931568D01*
X108976576Y-88908256D01*
X109083787Y-88881076D01*
X109162552Y-88853369D01*
X109198093Y-88828474D01*
X109198783Y-88825141D01*
X109175900Y-88782817D01*
X109114165Y-88714400D01*
X109023953Y-88629178D01*
X108915637Y-88536439D01*
X108799591Y-88445471D01*
X108686189Y-88365561D01*
X108683509Y-88363806D01*
X108404580Y-88212773D01*
X108108805Y-88115907D01*
X107895442Y-88078982D01*
X107765667Y-88066701D01*
X107679407Y-88067849D01*
X107620885Y-88083232D01*
X107600983Y-88094005D01*
X107526807Y-88126895D01*
X107475780Y-88136181D01*
X107448186Y-88141915D01*
X107429947Y-88166595D01*
X107418258Y-88221441D01*
X107410316Y-88317672D01*
X107405389Y-88417860D01*
X107389431Y-88605557D01*
X107356918Y-88745104D01*
X107302600Y-88847906D01*
X107221230Y-88925371D01*
X107152840Y-88966757D01*
X107006854Y-89017367D01*
X106824145Y-89041033D01*
X106616417Y-89040150D01*
X106395373Y-89017111D01*
X106172716Y-88974310D01*
X105960149Y-88914140D01*
X105769375Y-88838994D01*
X105612097Y-88751268D01*
X105500018Y-88653354D01*
X105478198Y-88624240D01*
X105420170Y-88484586D01*
X105411158Y-88326340D01*
X105448732Y-88162970D01*
X105530459Y-88007944D01*
X105605635Y-87918502D01*
X105673516Y-87868924D01*
X105778144Y-87812588D01*
X105898371Y-87760717D01*
X105913787Y-87754980D01*
X106090577Y-87683302D01*
X106209837Y-87615170D01*
X106273986Y-87545146D01*
X106285445Y-87467792D01*
X106246634Y-87377671D01*
X106159974Y-87269343D01*
X106139597Y-87247613D01*
X105990197Y-87090998D01*
X105533173Y-87079851D01*
X105078704Y-87088626D01*
X104666156Y-87138581D01*
X104292435Y-87230296D01*
X103954443Y-87364353D01*
X103916271Y-87383245D01*
X103845929Y-87421836D01*
X103821556Y-87450987D01*
X103834222Y-87486968D01*
X103848073Y-87507510D01*
X103888554Y-87613769D01*
X103887913Y-87742449D01*
X103849928Y-87875240D01*
X103778375Y-87993831D01*
X103739264Y-88034962D01*
X103620811Y-88106863D01*
X103474363Y-88144242D01*
X103325445Y-88141050D01*
X103307309Y-88137357D01*
X103225268Y-88113686D01*
X103169452Y-88088671D01*
X103162814Y-88083458D01*
X103115862Y-88070734D01*
X103025102Y-88071453D01*
X102905345Y-88083621D01*
X102771404Y-88105245D01*
X102638094Y-88134330D01*
X102520227Y-88168884D01*
X102515370Y-88170590D01*
X102394027Y-88221993D01*
X102255075Y-88293183D01*
X102136492Y-88363806D01*
X102023286Y-88443325D01*
X101907180Y-88534132D01*
X101798549Y-88626939D01*
X101707764Y-88712458D01*
X101645201Y-88781402D01*
X101621232Y-88824483D01*
X101621217Y-88825141D01*
X101429303Y-88825141D01*
X101430021Y-88823767D01*
X101487379Y-88752252D01*
X101572766Y-88658923D01*
X101677829Y-88553329D01*
X101696509Y-88535358D01*
X101841346Y-88401678D01*
X101964623Y-88300936D01*
X102084297Y-88220102D01*
X102218326Y-88146145D01*
X102264826Y-88122955D01*
X102433371Y-88049226D01*
X102601564Y-87991251D01*
X102756306Y-87952300D01*
X102884500Y-87935644D01*
X102973047Y-87944556D01*
X102975505Y-87945462D01*
X103009807Y-87948553D01*
X103010687Y-87936417D01*
X102991877Y-87897508D01*
X102953974Y-87819580D01*
X102904495Y-87718082D01*
X102894313Y-87697216D01*
X102808000Y-87475800D01*
X102778580Y-87313707D01*
X102773874Y-87213959D01*
X102782139Y-87154744D01*
X102809477Y-87116366D01*
X102848557Y-87087838D01*
X102903873Y-87058002D01*
X102961024Y-87048494D01*
X103042446Y-87057674D01*
X103102046Y-87069336D01*
X103217396Y-87101641D01*
X103355980Y-87152356D01*
X103487980Y-87210557D01*
X103489123Y-87211119D01*
X103705119Y-87317406D01*
X103900501Y-87228815D01*
X104300452Y-87079111D01*
X104725386Y-86978365D01*
X105165346Y-86926589D01*
X105610377Y-86923799D01*
X106050521Y-86970009D01*
G37*
%TO.C,J1*%
X75436000Y-84754000D02*
X75436000Y-97754000D01*
X75436000Y-84754000D02*
X91636000Y-84754000D01*
X75436000Y-97754000D02*
X91636000Y-97754000D01*
X91636000Y-84754000D02*
X91636000Y-97754000D01*
%TO.C,D1*%
X101600000Y-74806000D02*
X101600000Y-73586000D01*
X100130000Y-73586000D02*
X103070000Y-73586000D01*
X103070000Y-73586000D02*
X103070000Y-68146000D01*
X100130000Y-72806000D02*
X103070000Y-72806000D01*
X100130000Y-72686000D02*
X103070000Y-72686000D01*
X100130000Y-72566000D02*
X103070000Y-72566000D01*
X100130000Y-68146000D02*
X100130000Y-73586000D01*
X103070000Y-68146000D02*
X100130000Y-68146000D01*
X101600000Y-66926000D02*
X101600000Y-68146000D01*
%TO.C,J3*%
X115570000Y-57210000D02*
X118170000Y-57210000D01*
X115570000Y-57210000D02*
X115570000Y-54550000D01*
X118170000Y-57210000D02*
X118170000Y-54550000D01*
X112970000Y-55880000D02*
X112970000Y-54550000D01*
X112970000Y-54550000D02*
X114300000Y-54550000D01*
X115570000Y-54550000D02*
X118170000Y-54550000D01*
%TO.C,U1*%
X112920000Y-61916000D02*
X112920000Y-79816000D01*
X112920000Y-79816000D02*
X118220000Y-79816000D01*
X114570000Y-61916000D02*
X112920000Y-61916000D01*
X118220000Y-61916000D02*
X116570000Y-61916000D01*
X118220000Y-79816000D02*
X118220000Y-61916000D01*
X114570000Y-61916000D02*
G75*
G03*
X116570000Y-61916000I1000000J0D01*
G01*
%TO.C,R1*%
X106680000Y-66826000D02*
X106680000Y-67516000D01*
X108400000Y-67516000D02*
X104960000Y-67516000D01*
X104960000Y-67516000D02*
X104960000Y-76756000D01*
X108400000Y-76756000D02*
X108400000Y-67516000D01*
X104960000Y-76756000D02*
X108400000Y-76756000D01*
X106680000Y-77446000D02*
X106680000Y-76756000D01*
%TO.C,U3*%
X90060000Y-61916000D02*
X90060000Y-82356000D01*
X90060000Y-82356000D02*
X95360000Y-82356000D01*
X91710000Y-61916000D02*
X90060000Y-61916000D01*
X95360000Y-61916000D02*
X93710000Y-61916000D01*
X95360000Y-82356000D02*
X95360000Y-61916000D01*
X91710000Y-61916000D02*
G75*
G03*
X93710000Y-61916000I1000000J0D01*
G01*
%TO.C,U2*%
X77360000Y-61916000D02*
X77360000Y-82356000D01*
X77360000Y-82356000D02*
X82660000Y-82356000D01*
X79010000Y-61916000D02*
X77360000Y-61916000D01*
X82660000Y-61916000D02*
X81010000Y-61916000D01*
X82660000Y-82356000D02*
X82660000Y-61916000D01*
X79010000Y-61916000D02*
G75*
G03*
X81010000Y-61916000I1000000J0D01*
G01*
%TD*%
M02*
