%TF.GenerationSoftware,KiCad,Pcbnew,7.0.3*%
%TF.CreationDate,2023-05-19T23:21:27+08:00*%
%TF.ProjectId,MotherBoard,4d6f7468-6572-4426-9f61-72642e6b6963,rev?*%
%TF.SameCoordinates,PX10513f0PY11c7c20*%
%TF.FileFunction,Drillmap*%
%TF.FilePolarity,Positive*%
%FSLAX45Y45*%
G04 Gerber Fmt 4.5, Leading zero omitted, Abs format (unit mm)*
G04 Created by KiCad (PCBNEW 7.0.3) date 2023-05-19 23:21:27*
%MOMM*%
%LPD*%
G01*
G04 APERTURE LIST*
%ADD10C,0.100000*%
%ADD11C,0.200000*%
%ADD12C,0.320000*%
%ADD13C,0.350000*%
G04 APERTURE END LIST*
D10*
X-400000Y-16100000D02*
X-400000Y-100000D01*
X16600000Y-100000D02*
X16600000Y-16100000D01*
X16600000Y-100000D02*
G75*
G03*
X16100000Y400000I-500000J0D01*
G01*
X100000Y400000D02*
X16100000Y400000D01*
X-400000Y-16100000D02*
G75*
G03*
X100000Y-16600000I500000J0D01*
G01*
X16100000Y-16600000D02*
X100000Y-16600000D01*
X16100000Y-16600000D02*
G75*
G03*
X16600000Y-16100000I0J500000D01*
G01*
X100000Y400000D02*
G75*
G03*
X-400000Y-100000I0J-500000D01*
G01*
D11*
D12*
X-160000Y160000D02*
X160000Y-160000D01*
X160000Y160000D02*
X-160000Y-160000D01*
X-160000Y-15340000D02*
X160000Y-15660000D01*
X160000Y-15340000D02*
X-160000Y-15660000D01*
X15640000Y-340000D02*
X15960000Y-660000D01*
X15960000Y-340000D02*
X15640000Y-660000D01*
X15640000Y-15340000D02*
X15960000Y-15660000D01*
X15960000Y-15340000D02*
X15640000Y-15660000D01*
D13*
X11451000Y-1917000D02*
G75*
G03*
X11451000Y-1917000I-175000J0D01*
G01*
D11*
X-144223Y-16916484D02*
X-144223Y-16716484D01*
X-144223Y-16716484D02*
X-96604Y-16716484D01*
X-96604Y-16716484D02*
X-68033Y-16726008D01*
X-68033Y-16726008D02*
X-48985Y-16745055D01*
X-48985Y-16745055D02*
X-39461Y-16764103D01*
X-39461Y-16764103D02*
X-29937Y-16802198D01*
X-29937Y-16802198D02*
X-29937Y-16830770D01*
X-29937Y-16830770D02*
X-39461Y-16868865D01*
X-39461Y-16868865D02*
X-48985Y-16887912D01*
X-48985Y-16887912D02*
X-68033Y-16906960D01*
X-68033Y-16906960D02*
X-96604Y-16916484D01*
X-96604Y-16916484D02*
X-144223Y-16916484D01*
X55777Y-16916484D02*
X55777Y-16783150D01*
X55777Y-16821246D02*
X65301Y-16802198D01*
X65301Y-16802198D02*
X74824Y-16792674D01*
X74824Y-16792674D02*
X93872Y-16783150D01*
X93872Y-16783150D02*
X112920Y-16783150D01*
X179586Y-16916484D02*
X179586Y-16783150D01*
X179586Y-16716484D02*
X170063Y-16726008D01*
X170063Y-16726008D02*
X179586Y-16735531D01*
X179586Y-16735531D02*
X189110Y-16726008D01*
X189110Y-16726008D02*
X179586Y-16716484D01*
X179586Y-16716484D02*
X179586Y-16735531D01*
X303396Y-16916484D02*
X284348Y-16906960D01*
X284348Y-16906960D02*
X274824Y-16887912D01*
X274824Y-16887912D02*
X274824Y-16716484D01*
X408158Y-16916484D02*
X389110Y-16906960D01*
X389110Y-16906960D02*
X379586Y-16887912D01*
X379586Y-16887912D02*
X379586Y-16716484D01*
X636729Y-16916484D02*
X636729Y-16716484D01*
X636729Y-16716484D02*
X703396Y-16859341D01*
X703396Y-16859341D02*
X770062Y-16716484D01*
X770062Y-16716484D02*
X770062Y-16916484D01*
X951015Y-16916484D02*
X951015Y-16811722D01*
X951015Y-16811722D02*
X941491Y-16792674D01*
X941491Y-16792674D02*
X922443Y-16783150D01*
X922443Y-16783150D02*
X884348Y-16783150D01*
X884348Y-16783150D02*
X865301Y-16792674D01*
X951015Y-16906960D02*
X931967Y-16916484D01*
X931967Y-16916484D02*
X884348Y-16916484D01*
X884348Y-16916484D02*
X865301Y-16906960D01*
X865301Y-16906960D02*
X855777Y-16887912D01*
X855777Y-16887912D02*
X855777Y-16868865D01*
X855777Y-16868865D02*
X865301Y-16849817D01*
X865301Y-16849817D02*
X884348Y-16840293D01*
X884348Y-16840293D02*
X931967Y-16840293D01*
X931967Y-16840293D02*
X951015Y-16830770D01*
X1046253Y-16783150D02*
X1046253Y-16983150D01*
X1046253Y-16792674D02*
X1065301Y-16783150D01*
X1065301Y-16783150D02*
X1103396Y-16783150D01*
X1103396Y-16783150D02*
X1122444Y-16792674D01*
X1122444Y-16792674D02*
X1131967Y-16802198D01*
X1131967Y-16802198D02*
X1141491Y-16821246D01*
X1141491Y-16821246D02*
X1141491Y-16878389D01*
X1141491Y-16878389D02*
X1131967Y-16897436D01*
X1131967Y-16897436D02*
X1122444Y-16906960D01*
X1122444Y-16906960D02*
X1103396Y-16916484D01*
X1103396Y-16916484D02*
X1065301Y-16916484D01*
X1065301Y-16916484D02*
X1046253Y-16906960D01*
X1227205Y-16897436D02*
X1236729Y-16906960D01*
X1236729Y-16906960D02*
X1227205Y-16916484D01*
X1227205Y-16916484D02*
X1217682Y-16906960D01*
X1217682Y-16906960D02*
X1227205Y-16897436D01*
X1227205Y-16897436D02*
X1227205Y-16916484D01*
X1227205Y-16792674D02*
X1236729Y-16802198D01*
X1236729Y-16802198D02*
X1227205Y-16811722D01*
X1227205Y-16811722D02*
X1217682Y-16802198D01*
X1217682Y-16802198D02*
X1227205Y-16792674D01*
X1227205Y-16792674D02*
X1227205Y-16811722D01*
X-605000Y-17145000D02*
X-405000Y-17345000D01*
X-405000Y-17145000D02*
X-605000Y-17345000D01*
X-163271Y-17136484D02*
X-39461Y-17136484D01*
X-39461Y-17136484D02*
X-106128Y-17212674D01*
X-106128Y-17212674D02*
X-77557Y-17212674D01*
X-77557Y-17212674D02*
X-58509Y-17222198D01*
X-58509Y-17222198D02*
X-48985Y-17231722D01*
X-48985Y-17231722D02*
X-39461Y-17250770D01*
X-39461Y-17250770D02*
X-39461Y-17298389D01*
X-39461Y-17298389D02*
X-48985Y-17317436D01*
X-48985Y-17317436D02*
X-58509Y-17326960D01*
X-58509Y-17326960D02*
X-77557Y-17336484D01*
X-77557Y-17336484D02*
X-134699Y-17336484D01*
X-134699Y-17336484D02*
X-153747Y-17326960D01*
X-153747Y-17326960D02*
X-163271Y-17317436D01*
X46253Y-17317436D02*
X55777Y-17326960D01*
X55777Y-17326960D02*
X46253Y-17336484D01*
X46253Y-17336484D02*
X36729Y-17326960D01*
X36729Y-17326960D02*
X46253Y-17317436D01*
X46253Y-17317436D02*
X46253Y-17336484D01*
X131967Y-17155531D02*
X141491Y-17146008D01*
X141491Y-17146008D02*
X160539Y-17136484D01*
X160539Y-17136484D02*
X208158Y-17136484D01*
X208158Y-17136484D02*
X227205Y-17146008D01*
X227205Y-17146008D02*
X236729Y-17155531D01*
X236729Y-17155531D02*
X246253Y-17174579D01*
X246253Y-17174579D02*
X246253Y-17193627D01*
X246253Y-17193627D02*
X236729Y-17222198D01*
X236729Y-17222198D02*
X122443Y-17336484D01*
X122443Y-17336484D02*
X246253Y-17336484D01*
X370062Y-17136484D02*
X389110Y-17136484D01*
X389110Y-17136484D02*
X408158Y-17146008D01*
X408158Y-17146008D02*
X417682Y-17155531D01*
X417682Y-17155531D02*
X427205Y-17174579D01*
X427205Y-17174579D02*
X436729Y-17212674D01*
X436729Y-17212674D02*
X436729Y-17260293D01*
X436729Y-17260293D02*
X427205Y-17298389D01*
X427205Y-17298389D02*
X417682Y-17317436D01*
X417682Y-17317436D02*
X408158Y-17326960D01*
X408158Y-17326960D02*
X389110Y-17336484D01*
X389110Y-17336484D02*
X370062Y-17336484D01*
X370062Y-17336484D02*
X351015Y-17326960D01*
X351015Y-17326960D02*
X341491Y-17317436D01*
X341491Y-17317436D02*
X331967Y-17298389D01*
X331967Y-17298389D02*
X322444Y-17260293D01*
X322444Y-17260293D02*
X322444Y-17212674D01*
X322444Y-17212674D02*
X331967Y-17174579D01*
X331967Y-17174579D02*
X341491Y-17155531D01*
X341491Y-17155531D02*
X351015Y-17146008D01*
X351015Y-17146008D02*
X370062Y-17136484D01*
X560539Y-17136484D02*
X579586Y-17136484D01*
X579586Y-17136484D02*
X598634Y-17146008D01*
X598634Y-17146008D02*
X608158Y-17155531D01*
X608158Y-17155531D02*
X617682Y-17174579D01*
X617682Y-17174579D02*
X627205Y-17212674D01*
X627205Y-17212674D02*
X627205Y-17260293D01*
X627205Y-17260293D02*
X617682Y-17298389D01*
X617682Y-17298389D02*
X608158Y-17317436D01*
X608158Y-17317436D02*
X598634Y-17326960D01*
X598634Y-17326960D02*
X579586Y-17336484D01*
X579586Y-17336484D02*
X560539Y-17336484D01*
X560539Y-17336484D02*
X541491Y-17326960D01*
X541491Y-17326960D02*
X531967Y-17317436D01*
X531967Y-17317436D02*
X522443Y-17298389D01*
X522443Y-17298389D02*
X512920Y-17260293D01*
X512920Y-17260293D02*
X512920Y-17212674D01*
X512920Y-17212674D02*
X522443Y-17174579D01*
X522443Y-17174579D02*
X531967Y-17155531D01*
X531967Y-17155531D02*
X541491Y-17146008D01*
X541491Y-17146008D02*
X560539Y-17136484D01*
X712920Y-17336484D02*
X712920Y-17203150D01*
X712920Y-17222198D02*
X722443Y-17212674D01*
X722443Y-17212674D02*
X741491Y-17203150D01*
X741491Y-17203150D02*
X770063Y-17203150D01*
X770063Y-17203150D02*
X789110Y-17212674D01*
X789110Y-17212674D02*
X798634Y-17231722D01*
X798634Y-17231722D02*
X798634Y-17336484D01*
X798634Y-17231722D02*
X808158Y-17212674D01*
X808158Y-17212674D02*
X827205Y-17203150D01*
X827205Y-17203150D02*
X855777Y-17203150D01*
X855777Y-17203150D02*
X874824Y-17212674D01*
X874824Y-17212674D02*
X884348Y-17231722D01*
X884348Y-17231722D02*
X884348Y-17336484D01*
X979586Y-17336484D02*
X979586Y-17203150D01*
X979586Y-17222198D02*
X989110Y-17212674D01*
X989110Y-17212674D02*
X1008158Y-17203150D01*
X1008158Y-17203150D02*
X1036729Y-17203150D01*
X1036729Y-17203150D02*
X1055777Y-17212674D01*
X1055777Y-17212674D02*
X1065301Y-17231722D01*
X1065301Y-17231722D02*
X1065301Y-17336484D01*
X1065301Y-17231722D02*
X1074825Y-17212674D01*
X1074825Y-17212674D02*
X1093872Y-17203150D01*
X1093872Y-17203150D02*
X1122444Y-17203150D01*
X1122444Y-17203150D02*
X1141491Y-17212674D01*
X1141491Y-17212674D02*
X1151015Y-17231722D01*
X1151015Y-17231722D02*
X1151015Y-17336484D01*
X1541491Y-17126960D02*
X1370063Y-17384103D01*
X1798634Y-17136484D02*
X1817682Y-17136484D01*
X1817682Y-17136484D02*
X1836729Y-17146008D01*
X1836729Y-17146008D02*
X1846253Y-17155531D01*
X1846253Y-17155531D02*
X1855777Y-17174579D01*
X1855777Y-17174579D02*
X1865301Y-17212674D01*
X1865301Y-17212674D02*
X1865301Y-17260293D01*
X1865301Y-17260293D02*
X1855777Y-17298389D01*
X1855777Y-17298389D02*
X1846253Y-17317436D01*
X1846253Y-17317436D02*
X1836729Y-17326960D01*
X1836729Y-17326960D02*
X1817682Y-17336484D01*
X1817682Y-17336484D02*
X1798634Y-17336484D01*
X1798634Y-17336484D02*
X1779586Y-17326960D01*
X1779586Y-17326960D02*
X1770063Y-17317436D01*
X1770063Y-17317436D02*
X1760539Y-17298389D01*
X1760539Y-17298389D02*
X1751015Y-17260293D01*
X1751015Y-17260293D02*
X1751015Y-17212674D01*
X1751015Y-17212674D02*
X1760539Y-17174579D01*
X1760539Y-17174579D02*
X1770063Y-17155531D01*
X1770063Y-17155531D02*
X1779586Y-17146008D01*
X1779586Y-17146008D02*
X1798634Y-17136484D01*
X1951015Y-17317436D02*
X1960539Y-17326960D01*
X1960539Y-17326960D02*
X1951015Y-17336484D01*
X1951015Y-17336484D02*
X1941491Y-17326960D01*
X1941491Y-17326960D02*
X1951015Y-17317436D01*
X1951015Y-17317436D02*
X1951015Y-17336484D01*
X2151015Y-17336484D02*
X2036729Y-17336484D01*
X2093872Y-17336484D02*
X2093872Y-17136484D01*
X2093872Y-17136484D02*
X2074825Y-17165055D01*
X2074825Y-17165055D02*
X2055777Y-17184103D01*
X2055777Y-17184103D02*
X2036729Y-17193627D01*
X2227206Y-17155531D02*
X2236729Y-17146008D01*
X2236729Y-17146008D02*
X2255777Y-17136484D01*
X2255777Y-17136484D02*
X2303396Y-17136484D01*
X2303396Y-17136484D02*
X2322444Y-17146008D01*
X2322444Y-17146008D02*
X2331968Y-17155531D01*
X2331968Y-17155531D02*
X2341491Y-17174579D01*
X2341491Y-17174579D02*
X2341491Y-17193627D01*
X2341491Y-17193627D02*
X2331968Y-17222198D01*
X2331968Y-17222198D02*
X2217682Y-17336484D01*
X2217682Y-17336484D02*
X2341491Y-17336484D01*
X2512920Y-17136484D02*
X2474825Y-17136484D01*
X2474825Y-17136484D02*
X2455777Y-17146008D01*
X2455777Y-17146008D02*
X2446253Y-17155531D01*
X2446253Y-17155531D02*
X2427206Y-17184103D01*
X2427206Y-17184103D02*
X2417682Y-17222198D01*
X2417682Y-17222198D02*
X2417682Y-17298389D01*
X2417682Y-17298389D02*
X2427206Y-17317436D01*
X2427206Y-17317436D02*
X2436729Y-17326960D01*
X2436729Y-17326960D02*
X2455777Y-17336484D01*
X2455777Y-17336484D02*
X2493872Y-17336484D01*
X2493872Y-17336484D02*
X2512920Y-17326960D01*
X2512920Y-17326960D02*
X2522444Y-17317436D01*
X2522444Y-17317436D02*
X2531968Y-17298389D01*
X2531968Y-17298389D02*
X2531968Y-17250770D01*
X2531968Y-17250770D02*
X2522444Y-17231722D01*
X2522444Y-17231722D02*
X2512920Y-17222198D01*
X2512920Y-17222198D02*
X2493872Y-17212674D01*
X2493872Y-17212674D02*
X2455777Y-17212674D01*
X2455777Y-17212674D02*
X2436729Y-17222198D01*
X2436729Y-17222198D02*
X2427206Y-17231722D01*
X2427206Y-17231722D02*
X2417682Y-17250770D01*
X2655777Y-17136484D02*
X2674825Y-17136484D01*
X2674825Y-17136484D02*
X2693872Y-17146008D01*
X2693872Y-17146008D02*
X2703396Y-17155531D01*
X2703396Y-17155531D02*
X2712920Y-17174579D01*
X2712920Y-17174579D02*
X2722444Y-17212674D01*
X2722444Y-17212674D02*
X2722444Y-17260293D01*
X2722444Y-17260293D02*
X2712920Y-17298389D01*
X2712920Y-17298389D02*
X2703396Y-17317436D01*
X2703396Y-17317436D02*
X2693872Y-17326960D01*
X2693872Y-17326960D02*
X2674825Y-17336484D01*
X2674825Y-17336484D02*
X2655777Y-17336484D01*
X2655777Y-17336484D02*
X2636729Y-17326960D01*
X2636729Y-17326960D02*
X2627206Y-17317436D01*
X2627206Y-17317436D02*
X2617682Y-17298389D01*
X2617682Y-17298389D02*
X2608158Y-17260293D01*
X2608158Y-17260293D02*
X2608158Y-17212674D01*
X2608158Y-17212674D02*
X2617682Y-17174579D01*
X2617682Y-17174579D02*
X2627206Y-17155531D01*
X2627206Y-17155531D02*
X2636729Y-17146008D01*
X2636729Y-17146008D02*
X2655777Y-17136484D01*
X2798634Y-17136484D02*
X2798634Y-17174579D01*
X2874825Y-17136484D02*
X2874825Y-17174579D01*
X3170063Y-17412674D02*
X3160539Y-17403150D01*
X3160539Y-17403150D02*
X3141491Y-17374579D01*
X3141491Y-17374579D02*
X3131968Y-17355531D01*
X3131968Y-17355531D02*
X3122444Y-17326960D01*
X3122444Y-17326960D02*
X3112920Y-17279341D01*
X3112920Y-17279341D02*
X3112920Y-17241246D01*
X3112920Y-17241246D02*
X3122444Y-17193627D01*
X3122444Y-17193627D02*
X3131968Y-17165055D01*
X3131968Y-17165055D02*
X3141491Y-17146008D01*
X3141491Y-17146008D02*
X3160539Y-17117436D01*
X3160539Y-17117436D02*
X3170063Y-17107912D01*
X3331968Y-17203150D02*
X3331968Y-17336484D01*
X3284348Y-17126960D02*
X3236729Y-17269817D01*
X3236729Y-17269817D02*
X3360539Y-17269817D01*
X3589110Y-17336484D02*
X3589110Y-17136484D01*
X3674825Y-17336484D02*
X3674825Y-17231722D01*
X3674825Y-17231722D02*
X3665301Y-17212674D01*
X3665301Y-17212674D02*
X3646253Y-17203150D01*
X3646253Y-17203150D02*
X3617682Y-17203150D01*
X3617682Y-17203150D02*
X3598634Y-17212674D01*
X3598634Y-17212674D02*
X3589110Y-17222198D01*
X3798634Y-17336484D02*
X3779587Y-17326960D01*
X3779587Y-17326960D02*
X3770063Y-17317436D01*
X3770063Y-17317436D02*
X3760539Y-17298389D01*
X3760539Y-17298389D02*
X3760539Y-17241246D01*
X3760539Y-17241246D02*
X3770063Y-17222198D01*
X3770063Y-17222198D02*
X3779587Y-17212674D01*
X3779587Y-17212674D02*
X3798634Y-17203150D01*
X3798634Y-17203150D02*
X3827206Y-17203150D01*
X3827206Y-17203150D02*
X3846253Y-17212674D01*
X3846253Y-17212674D02*
X3855777Y-17222198D01*
X3855777Y-17222198D02*
X3865301Y-17241246D01*
X3865301Y-17241246D02*
X3865301Y-17298389D01*
X3865301Y-17298389D02*
X3855777Y-17317436D01*
X3855777Y-17317436D02*
X3846253Y-17326960D01*
X3846253Y-17326960D02*
X3827206Y-17336484D01*
X3827206Y-17336484D02*
X3798634Y-17336484D01*
X3979587Y-17336484D02*
X3960539Y-17326960D01*
X3960539Y-17326960D02*
X3951015Y-17307912D01*
X3951015Y-17307912D02*
X3951015Y-17136484D01*
X4131968Y-17326960D02*
X4112920Y-17336484D01*
X4112920Y-17336484D02*
X4074825Y-17336484D01*
X4074825Y-17336484D02*
X4055777Y-17326960D01*
X4055777Y-17326960D02*
X4046253Y-17307912D01*
X4046253Y-17307912D02*
X4046253Y-17231722D01*
X4046253Y-17231722D02*
X4055777Y-17212674D01*
X4055777Y-17212674D02*
X4074825Y-17203150D01*
X4074825Y-17203150D02*
X4112920Y-17203150D01*
X4112920Y-17203150D02*
X4131968Y-17212674D01*
X4131968Y-17212674D02*
X4141491Y-17231722D01*
X4141491Y-17231722D02*
X4141491Y-17250770D01*
X4141491Y-17250770D02*
X4046253Y-17269817D01*
X4217682Y-17326960D02*
X4236730Y-17336484D01*
X4236730Y-17336484D02*
X4274825Y-17336484D01*
X4274825Y-17336484D02*
X4293873Y-17326960D01*
X4293873Y-17326960D02*
X4303396Y-17307912D01*
X4303396Y-17307912D02*
X4303396Y-17298389D01*
X4303396Y-17298389D02*
X4293873Y-17279341D01*
X4293873Y-17279341D02*
X4274825Y-17269817D01*
X4274825Y-17269817D02*
X4246253Y-17269817D01*
X4246253Y-17269817D02*
X4227206Y-17260293D01*
X4227206Y-17260293D02*
X4217682Y-17241246D01*
X4217682Y-17241246D02*
X4217682Y-17231722D01*
X4217682Y-17231722D02*
X4227206Y-17212674D01*
X4227206Y-17212674D02*
X4246253Y-17203150D01*
X4246253Y-17203150D02*
X4274825Y-17203150D01*
X4274825Y-17203150D02*
X4293873Y-17212674D01*
X4370063Y-17412674D02*
X4379587Y-17403150D01*
X4379587Y-17403150D02*
X4398634Y-17374579D01*
X4398634Y-17374579D02*
X4408158Y-17355531D01*
X4408158Y-17355531D02*
X4417682Y-17326960D01*
X4417682Y-17326960D02*
X4427206Y-17279341D01*
X4427206Y-17279341D02*
X4427206Y-17241246D01*
X4427206Y-17241246D02*
X4417682Y-17193627D01*
X4417682Y-17193627D02*
X4408158Y-17165055D01*
X4408158Y-17165055D02*
X4398634Y-17146008D01*
X4398634Y-17146008D02*
X4379587Y-17117436D01*
X4379587Y-17117436D02*
X4370063Y-17107912D01*
X4731968Y-17412674D02*
X4722444Y-17403150D01*
X4722444Y-17403150D02*
X4703396Y-17374579D01*
X4703396Y-17374579D02*
X4693873Y-17355531D01*
X4693873Y-17355531D02*
X4684349Y-17326960D01*
X4684349Y-17326960D02*
X4674825Y-17279341D01*
X4674825Y-17279341D02*
X4674825Y-17241246D01*
X4674825Y-17241246D02*
X4684349Y-17193627D01*
X4684349Y-17193627D02*
X4693873Y-17165055D01*
X4693873Y-17165055D02*
X4703396Y-17146008D01*
X4703396Y-17146008D02*
X4722444Y-17117436D01*
X4722444Y-17117436D02*
X4731968Y-17107912D01*
X4808158Y-17203150D02*
X4808158Y-17336484D01*
X4808158Y-17222198D02*
X4817682Y-17212674D01*
X4817682Y-17212674D02*
X4836730Y-17203150D01*
X4836730Y-17203150D02*
X4865301Y-17203150D01*
X4865301Y-17203150D02*
X4884349Y-17212674D01*
X4884349Y-17212674D02*
X4893873Y-17231722D01*
X4893873Y-17231722D02*
X4893873Y-17336484D01*
X5017682Y-17336484D02*
X4998634Y-17326960D01*
X4998634Y-17326960D02*
X4989111Y-17317436D01*
X4989111Y-17317436D02*
X4979587Y-17298389D01*
X4979587Y-17298389D02*
X4979587Y-17241246D01*
X4979587Y-17241246D02*
X4989111Y-17222198D01*
X4989111Y-17222198D02*
X4998634Y-17212674D01*
X4998634Y-17212674D02*
X5017682Y-17203150D01*
X5017682Y-17203150D02*
X5046254Y-17203150D01*
X5046254Y-17203150D02*
X5065301Y-17212674D01*
X5065301Y-17212674D02*
X5074825Y-17222198D01*
X5074825Y-17222198D02*
X5084349Y-17241246D01*
X5084349Y-17241246D02*
X5084349Y-17298389D01*
X5084349Y-17298389D02*
X5074825Y-17317436D01*
X5074825Y-17317436D02*
X5065301Y-17326960D01*
X5065301Y-17326960D02*
X5046254Y-17336484D01*
X5046254Y-17336484D02*
X5017682Y-17336484D01*
X5141492Y-17203150D02*
X5217682Y-17203150D01*
X5170063Y-17136484D02*
X5170063Y-17307912D01*
X5170063Y-17307912D02*
X5179587Y-17326960D01*
X5179587Y-17326960D02*
X5198634Y-17336484D01*
X5198634Y-17336484D02*
X5217682Y-17336484D01*
X5436730Y-17203150D02*
X5436730Y-17403150D01*
X5436730Y-17212674D02*
X5455777Y-17203150D01*
X5455777Y-17203150D02*
X5493873Y-17203150D01*
X5493873Y-17203150D02*
X5512920Y-17212674D01*
X5512920Y-17212674D02*
X5522444Y-17222198D01*
X5522444Y-17222198D02*
X5531968Y-17241246D01*
X5531968Y-17241246D02*
X5531968Y-17298389D01*
X5531968Y-17298389D02*
X5522444Y-17317436D01*
X5522444Y-17317436D02*
X5512920Y-17326960D01*
X5512920Y-17326960D02*
X5493873Y-17336484D01*
X5493873Y-17336484D02*
X5455777Y-17336484D01*
X5455777Y-17336484D02*
X5436730Y-17326960D01*
X5646253Y-17336484D02*
X5627206Y-17326960D01*
X5627206Y-17326960D02*
X5617682Y-17307912D01*
X5617682Y-17307912D02*
X5617682Y-17136484D01*
X5808158Y-17336484D02*
X5808158Y-17231722D01*
X5808158Y-17231722D02*
X5798634Y-17212674D01*
X5798634Y-17212674D02*
X5779587Y-17203150D01*
X5779587Y-17203150D02*
X5741492Y-17203150D01*
X5741492Y-17203150D02*
X5722444Y-17212674D01*
X5808158Y-17326960D02*
X5789111Y-17336484D01*
X5789111Y-17336484D02*
X5741492Y-17336484D01*
X5741492Y-17336484D02*
X5722444Y-17326960D01*
X5722444Y-17326960D02*
X5712920Y-17307912D01*
X5712920Y-17307912D02*
X5712920Y-17288865D01*
X5712920Y-17288865D02*
X5722444Y-17269817D01*
X5722444Y-17269817D02*
X5741492Y-17260293D01*
X5741492Y-17260293D02*
X5789111Y-17260293D01*
X5789111Y-17260293D02*
X5808158Y-17250770D01*
X5874825Y-17203150D02*
X5951015Y-17203150D01*
X5903396Y-17136484D02*
X5903396Y-17307912D01*
X5903396Y-17307912D02*
X5912920Y-17326960D01*
X5912920Y-17326960D02*
X5931968Y-17336484D01*
X5931968Y-17336484D02*
X5951015Y-17336484D01*
X6093873Y-17326960D02*
X6074825Y-17336484D01*
X6074825Y-17336484D02*
X6036730Y-17336484D01*
X6036730Y-17336484D02*
X6017682Y-17326960D01*
X6017682Y-17326960D02*
X6008158Y-17307912D01*
X6008158Y-17307912D02*
X6008158Y-17231722D01*
X6008158Y-17231722D02*
X6017682Y-17212674D01*
X6017682Y-17212674D02*
X6036730Y-17203150D01*
X6036730Y-17203150D02*
X6074825Y-17203150D01*
X6074825Y-17203150D02*
X6093873Y-17212674D01*
X6093873Y-17212674D02*
X6103396Y-17231722D01*
X6103396Y-17231722D02*
X6103396Y-17250770D01*
X6103396Y-17250770D02*
X6008158Y-17269817D01*
X6274825Y-17336484D02*
X6274825Y-17136484D01*
X6274825Y-17326960D02*
X6255777Y-17336484D01*
X6255777Y-17336484D02*
X6217682Y-17336484D01*
X6217682Y-17336484D02*
X6198634Y-17326960D01*
X6198634Y-17326960D02*
X6189111Y-17317436D01*
X6189111Y-17317436D02*
X6179587Y-17298389D01*
X6179587Y-17298389D02*
X6179587Y-17241246D01*
X6179587Y-17241246D02*
X6189111Y-17222198D01*
X6189111Y-17222198D02*
X6198634Y-17212674D01*
X6198634Y-17212674D02*
X6217682Y-17203150D01*
X6217682Y-17203150D02*
X6255777Y-17203150D01*
X6255777Y-17203150D02*
X6274825Y-17212674D01*
X6351015Y-17412674D02*
X6360539Y-17403150D01*
X6360539Y-17403150D02*
X6379587Y-17374579D01*
X6379587Y-17374579D02*
X6389111Y-17355531D01*
X6389111Y-17355531D02*
X6398634Y-17326960D01*
X6398634Y-17326960D02*
X6408158Y-17279341D01*
X6408158Y-17279341D02*
X6408158Y-17241246D01*
X6408158Y-17241246D02*
X6398634Y-17193627D01*
X6398634Y-17193627D02*
X6389111Y-17165055D01*
X6389111Y-17165055D02*
X6379587Y-17146008D01*
X6379587Y-17146008D02*
X6360539Y-17117436D01*
X6360539Y-17117436D02*
X6351015Y-17107912D01*
X-405000Y-17565000D02*
G75*
G03*
X-405000Y-17565000I-100000J0D01*
G01*
X-163271Y-17456484D02*
X-39461Y-17456484D01*
X-39461Y-17456484D02*
X-106128Y-17532674D01*
X-106128Y-17532674D02*
X-77557Y-17532674D01*
X-77557Y-17532674D02*
X-58509Y-17542198D01*
X-58509Y-17542198D02*
X-48985Y-17551722D01*
X-48985Y-17551722D02*
X-39461Y-17570770D01*
X-39461Y-17570770D02*
X-39461Y-17618389D01*
X-39461Y-17618389D02*
X-48985Y-17637436D01*
X-48985Y-17637436D02*
X-58509Y-17646960D01*
X-58509Y-17646960D02*
X-77557Y-17656484D01*
X-77557Y-17656484D02*
X-134699Y-17656484D01*
X-134699Y-17656484D02*
X-153747Y-17646960D01*
X-153747Y-17646960D02*
X-163271Y-17637436D01*
X46253Y-17637436D02*
X55777Y-17646960D01*
X55777Y-17646960D02*
X46253Y-17656484D01*
X46253Y-17656484D02*
X36729Y-17646960D01*
X36729Y-17646960D02*
X46253Y-17637436D01*
X46253Y-17637436D02*
X46253Y-17656484D01*
X236729Y-17456484D02*
X141491Y-17456484D01*
X141491Y-17456484D02*
X131967Y-17551722D01*
X131967Y-17551722D02*
X141491Y-17542198D01*
X141491Y-17542198D02*
X160539Y-17532674D01*
X160539Y-17532674D02*
X208158Y-17532674D01*
X208158Y-17532674D02*
X227205Y-17542198D01*
X227205Y-17542198D02*
X236729Y-17551722D01*
X236729Y-17551722D02*
X246253Y-17570770D01*
X246253Y-17570770D02*
X246253Y-17618389D01*
X246253Y-17618389D02*
X236729Y-17637436D01*
X236729Y-17637436D02*
X227205Y-17646960D01*
X227205Y-17646960D02*
X208158Y-17656484D01*
X208158Y-17656484D02*
X160539Y-17656484D01*
X160539Y-17656484D02*
X141491Y-17646960D01*
X141491Y-17646960D02*
X131967Y-17637436D01*
X370062Y-17456484D02*
X389110Y-17456484D01*
X389110Y-17456484D02*
X408158Y-17466008D01*
X408158Y-17466008D02*
X417682Y-17475531D01*
X417682Y-17475531D02*
X427205Y-17494579D01*
X427205Y-17494579D02*
X436729Y-17532674D01*
X436729Y-17532674D02*
X436729Y-17580293D01*
X436729Y-17580293D02*
X427205Y-17618389D01*
X427205Y-17618389D02*
X417682Y-17637436D01*
X417682Y-17637436D02*
X408158Y-17646960D01*
X408158Y-17646960D02*
X389110Y-17656484D01*
X389110Y-17656484D02*
X370062Y-17656484D01*
X370062Y-17656484D02*
X351015Y-17646960D01*
X351015Y-17646960D02*
X341491Y-17637436D01*
X341491Y-17637436D02*
X331967Y-17618389D01*
X331967Y-17618389D02*
X322444Y-17580293D01*
X322444Y-17580293D02*
X322444Y-17532674D01*
X322444Y-17532674D02*
X331967Y-17494579D01*
X331967Y-17494579D02*
X341491Y-17475531D01*
X341491Y-17475531D02*
X351015Y-17466008D01*
X351015Y-17466008D02*
X370062Y-17456484D01*
X560539Y-17456484D02*
X579586Y-17456484D01*
X579586Y-17456484D02*
X598634Y-17466008D01*
X598634Y-17466008D02*
X608158Y-17475531D01*
X608158Y-17475531D02*
X617682Y-17494579D01*
X617682Y-17494579D02*
X627205Y-17532674D01*
X627205Y-17532674D02*
X627205Y-17580293D01*
X627205Y-17580293D02*
X617682Y-17618389D01*
X617682Y-17618389D02*
X608158Y-17637436D01*
X608158Y-17637436D02*
X598634Y-17646960D01*
X598634Y-17646960D02*
X579586Y-17656484D01*
X579586Y-17656484D02*
X560539Y-17656484D01*
X560539Y-17656484D02*
X541491Y-17646960D01*
X541491Y-17646960D02*
X531967Y-17637436D01*
X531967Y-17637436D02*
X522443Y-17618389D01*
X522443Y-17618389D02*
X512920Y-17580293D01*
X512920Y-17580293D02*
X512920Y-17532674D01*
X512920Y-17532674D02*
X522443Y-17494579D01*
X522443Y-17494579D02*
X531967Y-17475531D01*
X531967Y-17475531D02*
X541491Y-17466008D01*
X541491Y-17466008D02*
X560539Y-17456484D01*
X712920Y-17656484D02*
X712920Y-17523150D01*
X712920Y-17542198D02*
X722443Y-17532674D01*
X722443Y-17532674D02*
X741491Y-17523150D01*
X741491Y-17523150D02*
X770063Y-17523150D01*
X770063Y-17523150D02*
X789110Y-17532674D01*
X789110Y-17532674D02*
X798634Y-17551722D01*
X798634Y-17551722D02*
X798634Y-17656484D01*
X798634Y-17551722D02*
X808158Y-17532674D01*
X808158Y-17532674D02*
X827205Y-17523150D01*
X827205Y-17523150D02*
X855777Y-17523150D01*
X855777Y-17523150D02*
X874824Y-17532674D01*
X874824Y-17532674D02*
X884348Y-17551722D01*
X884348Y-17551722D02*
X884348Y-17656484D01*
X979586Y-17656484D02*
X979586Y-17523150D01*
X979586Y-17542198D02*
X989110Y-17532674D01*
X989110Y-17532674D02*
X1008158Y-17523150D01*
X1008158Y-17523150D02*
X1036729Y-17523150D01*
X1036729Y-17523150D02*
X1055777Y-17532674D01*
X1055777Y-17532674D02*
X1065301Y-17551722D01*
X1065301Y-17551722D02*
X1065301Y-17656484D01*
X1065301Y-17551722D02*
X1074825Y-17532674D01*
X1074825Y-17532674D02*
X1093872Y-17523150D01*
X1093872Y-17523150D02*
X1122444Y-17523150D01*
X1122444Y-17523150D02*
X1141491Y-17532674D01*
X1141491Y-17532674D02*
X1151015Y-17551722D01*
X1151015Y-17551722D02*
X1151015Y-17656484D01*
X1541491Y-17446960D02*
X1370063Y-17704103D01*
X1798634Y-17456484D02*
X1817682Y-17456484D01*
X1817682Y-17456484D02*
X1836729Y-17466008D01*
X1836729Y-17466008D02*
X1846253Y-17475531D01*
X1846253Y-17475531D02*
X1855777Y-17494579D01*
X1855777Y-17494579D02*
X1865301Y-17532674D01*
X1865301Y-17532674D02*
X1865301Y-17580293D01*
X1865301Y-17580293D02*
X1855777Y-17618389D01*
X1855777Y-17618389D02*
X1846253Y-17637436D01*
X1846253Y-17637436D02*
X1836729Y-17646960D01*
X1836729Y-17646960D02*
X1817682Y-17656484D01*
X1817682Y-17656484D02*
X1798634Y-17656484D01*
X1798634Y-17656484D02*
X1779586Y-17646960D01*
X1779586Y-17646960D02*
X1770063Y-17637436D01*
X1770063Y-17637436D02*
X1760539Y-17618389D01*
X1760539Y-17618389D02*
X1751015Y-17580293D01*
X1751015Y-17580293D02*
X1751015Y-17532674D01*
X1751015Y-17532674D02*
X1760539Y-17494579D01*
X1760539Y-17494579D02*
X1770063Y-17475531D01*
X1770063Y-17475531D02*
X1779586Y-17466008D01*
X1779586Y-17466008D02*
X1798634Y-17456484D01*
X1951015Y-17637436D02*
X1960539Y-17646960D01*
X1960539Y-17646960D02*
X1951015Y-17656484D01*
X1951015Y-17656484D02*
X1941491Y-17646960D01*
X1941491Y-17646960D02*
X1951015Y-17637436D01*
X1951015Y-17637436D02*
X1951015Y-17656484D01*
X2151015Y-17656484D02*
X2036729Y-17656484D01*
X2093872Y-17656484D02*
X2093872Y-17456484D01*
X2093872Y-17456484D02*
X2074825Y-17485055D01*
X2074825Y-17485055D02*
X2055777Y-17504103D01*
X2055777Y-17504103D02*
X2036729Y-17513627D01*
X2217682Y-17456484D02*
X2341491Y-17456484D01*
X2341491Y-17456484D02*
X2274825Y-17532674D01*
X2274825Y-17532674D02*
X2303396Y-17532674D01*
X2303396Y-17532674D02*
X2322444Y-17542198D01*
X2322444Y-17542198D02*
X2331968Y-17551722D01*
X2331968Y-17551722D02*
X2341491Y-17570770D01*
X2341491Y-17570770D02*
X2341491Y-17618389D01*
X2341491Y-17618389D02*
X2331968Y-17637436D01*
X2331968Y-17637436D02*
X2322444Y-17646960D01*
X2322444Y-17646960D02*
X2303396Y-17656484D01*
X2303396Y-17656484D02*
X2246253Y-17656484D01*
X2246253Y-17656484D02*
X2227206Y-17646960D01*
X2227206Y-17646960D02*
X2217682Y-17637436D01*
X2408158Y-17456484D02*
X2541491Y-17456484D01*
X2541491Y-17456484D02*
X2455777Y-17656484D01*
X2646253Y-17542198D02*
X2627206Y-17532674D01*
X2627206Y-17532674D02*
X2617682Y-17523150D01*
X2617682Y-17523150D02*
X2608158Y-17504103D01*
X2608158Y-17504103D02*
X2608158Y-17494579D01*
X2608158Y-17494579D02*
X2617682Y-17475531D01*
X2617682Y-17475531D02*
X2627206Y-17466008D01*
X2627206Y-17466008D02*
X2646253Y-17456484D01*
X2646253Y-17456484D02*
X2684349Y-17456484D01*
X2684349Y-17456484D02*
X2703396Y-17466008D01*
X2703396Y-17466008D02*
X2712920Y-17475531D01*
X2712920Y-17475531D02*
X2722444Y-17494579D01*
X2722444Y-17494579D02*
X2722444Y-17504103D01*
X2722444Y-17504103D02*
X2712920Y-17523150D01*
X2712920Y-17523150D02*
X2703396Y-17532674D01*
X2703396Y-17532674D02*
X2684349Y-17542198D01*
X2684349Y-17542198D02*
X2646253Y-17542198D01*
X2646253Y-17542198D02*
X2627206Y-17551722D01*
X2627206Y-17551722D02*
X2617682Y-17561246D01*
X2617682Y-17561246D02*
X2608158Y-17580293D01*
X2608158Y-17580293D02*
X2608158Y-17618389D01*
X2608158Y-17618389D02*
X2617682Y-17637436D01*
X2617682Y-17637436D02*
X2627206Y-17646960D01*
X2627206Y-17646960D02*
X2646253Y-17656484D01*
X2646253Y-17656484D02*
X2684349Y-17656484D01*
X2684349Y-17656484D02*
X2703396Y-17646960D01*
X2703396Y-17646960D02*
X2712920Y-17637436D01*
X2712920Y-17637436D02*
X2722444Y-17618389D01*
X2722444Y-17618389D02*
X2722444Y-17580293D01*
X2722444Y-17580293D02*
X2712920Y-17561246D01*
X2712920Y-17561246D02*
X2703396Y-17551722D01*
X2703396Y-17551722D02*
X2684349Y-17542198D01*
X2798634Y-17456484D02*
X2798634Y-17494579D01*
X2874825Y-17456484D02*
X2874825Y-17494579D01*
X3170063Y-17732674D02*
X3160539Y-17723150D01*
X3160539Y-17723150D02*
X3141491Y-17694579D01*
X3141491Y-17694579D02*
X3131968Y-17675531D01*
X3131968Y-17675531D02*
X3122444Y-17646960D01*
X3122444Y-17646960D02*
X3112920Y-17599341D01*
X3112920Y-17599341D02*
X3112920Y-17561246D01*
X3112920Y-17561246D02*
X3122444Y-17513627D01*
X3122444Y-17513627D02*
X3131968Y-17485055D01*
X3131968Y-17485055D02*
X3141491Y-17466008D01*
X3141491Y-17466008D02*
X3160539Y-17437436D01*
X3160539Y-17437436D02*
X3170063Y-17427912D01*
X3351015Y-17656484D02*
X3236729Y-17656484D01*
X3293872Y-17656484D02*
X3293872Y-17456484D01*
X3293872Y-17456484D02*
X3274825Y-17485055D01*
X3274825Y-17485055D02*
X3255777Y-17504103D01*
X3255777Y-17504103D02*
X3236729Y-17513627D01*
X3589110Y-17656484D02*
X3589110Y-17456484D01*
X3674825Y-17656484D02*
X3674825Y-17551722D01*
X3674825Y-17551722D02*
X3665301Y-17532674D01*
X3665301Y-17532674D02*
X3646253Y-17523150D01*
X3646253Y-17523150D02*
X3617682Y-17523150D01*
X3617682Y-17523150D02*
X3598634Y-17532674D01*
X3598634Y-17532674D02*
X3589110Y-17542198D01*
X3798634Y-17656484D02*
X3779587Y-17646960D01*
X3779587Y-17646960D02*
X3770063Y-17637436D01*
X3770063Y-17637436D02*
X3760539Y-17618389D01*
X3760539Y-17618389D02*
X3760539Y-17561246D01*
X3760539Y-17561246D02*
X3770063Y-17542198D01*
X3770063Y-17542198D02*
X3779587Y-17532674D01*
X3779587Y-17532674D02*
X3798634Y-17523150D01*
X3798634Y-17523150D02*
X3827206Y-17523150D01*
X3827206Y-17523150D02*
X3846253Y-17532674D01*
X3846253Y-17532674D02*
X3855777Y-17542198D01*
X3855777Y-17542198D02*
X3865301Y-17561246D01*
X3865301Y-17561246D02*
X3865301Y-17618389D01*
X3865301Y-17618389D02*
X3855777Y-17637436D01*
X3855777Y-17637436D02*
X3846253Y-17646960D01*
X3846253Y-17646960D02*
X3827206Y-17656484D01*
X3827206Y-17656484D02*
X3798634Y-17656484D01*
X3979587Y-17656484D02*
X3960539Y-17646960D01*
X3960539Y-17646960D02*
X3951015Y-17627912D01*
X3951015Y-17627912D02*
X3951015Y-17456484D01*
X4131968Y-17646960D02*
X4112920Y-17656484D01*
X4112920Y-17656484D02*
X4074825Y-17656484D01*
X4074825Y-17656484D02*
X4055777Y-17646960D01*
X4055777Y-17646960D02*
X4046253Y-17627912D01*
X4046253Y-17627912D02*
X4046253Y-17551722D01*
X4046253Y-17551722D02*
X4055777Y-17532674D01*
X4055777Y-17532674D02*
X4074825Y-17523150D01*
X4074825Y-17523150D02*
X4112920Y-17523150D01*
X4112920Y-17523150D02*
X4131968Y-17532674D01*
X4131968Y-17532674D02*
X4141491Y-17551722D01*
X4141491Y-17551722D02*
X4141491Y-17570770D01*
X4141491Y-17570770D02*
X4046253Y-17589817D01*
X4208158Y-17732674D02*
X4217682Y-17723150D01*
X4217682Y-17723150D02*
X4236730Y-17694579D01*
X4236730Y-17694579D02*
X4246253Y-17675531D01*
X4246253Y-17675531D02*
X4255777Y-17646960D01*
X4255777Y-17646960D02*
X4265301Y-17599341D01*
X4265301Y-17599341D02*
X4265301Y-17561246D01*
X4265301Y-17561246D02*
X4255777Y-17513627D01*
X4255777Y-17513627D02*
X4246253Y-17485055D01*
X4246253Y-17485055D02*
X4236730Y-17466008D01*
X4236730Y-17466008D02*
X4217682Y-17437436D01*
X4217682Y-17437436D02*
X4208158Y-17427912D01*
X4570063Y-17732674D02*
X4560539Y-17723150D01*
X4560539Y-17723150D02*
X4541492Y-17694579D01*
X4541492Y-17694579D02*
X4531968Y-17675531D01*
X4531968Y-17675531D02*
X4522444Y-17646960D01*
X4522444Y-17646960D02*
X4512920Y-17599341D01*
X4512920Y-17599341D02*
X4512920Y-17561246D01*
X4512920Y-17561246D02*
X4522444Y-17513627D01*
X4522444Y-17513627D02*
X4531968Y-17485055D01*
X4531968Y-17485055D02*
X4541492Y-17466008D01*
X4541492Y-17466008D02*
X4560539Y-17437436D01*
X4560539Y-17437436D02*
X4570063Y-17427912D01*
X4646253Y-17523150D02*
X4646253Y-17656484D01*
X4646253Y-17542198D02*
X4655777Y-17532674D01*
X4655777Y-17532674D02*
X4674825Y-17523150D01*
X4674825Y-17523150D02*
X4703396Y-17523150D01*
X4703396Y-17523150D02*
X4722444Y-17532674D01*
X4722444Y-17532674D02*
X4731968Y-17551722D01*
X4731968Y-17551722D02*
X4731968Y-17656484D01*
X4855777Y-17656484D02*
X4836730Y-17646960D01*
X4836730Y-17646960D02*
X4827206Y-17637436D01*
X4827206Y-17637436D02*
X4817682Y-17618389D01*
X4817682Y-17618389D02*
X4817682Y-17561246D01*
X4817682Y-17561246D02*
X4827206Y-17542198D01*
X4827206Y-17542198D02*
X4836730Y-17532674D01*
X4836730Y-17532674D02*
X4855777Y-17523150D01*
X4855777Y-17523150D02*
X4884349Y-17523150D01*
X4884349Y-17523150D02*
X4903396Y-17532674D01*
X4903396Y-17532674D02*
X4912920Y-17542198D01*
X4912920Y-17542198D02*
X4922444Y-17561246D01*
X4922444Y-17561246D02*
X4922444Y-17618389D01*
X4922444Y-17618389D02*
X4912920Y-17637436D01*
X4912920Y-17637436D02*
X4903396Y-17646960D01*
X4903396Y-17646960D02*
X4884349Y-17656484D01*
X4884349Y-17656484D02*
X4855777Y-17656484D01*
X4979587Y-17523150D02*
X5055777Y-17523150D01*
X5008158Y-17456484D02*
X5008158Y-17627912D01*
X5008158Y-17627912D02*
X5017682Y-17646960D01*
X5017682Y-17646960D02*
X5036730Y-17656484D01*
X5036730Y-17656484D02*
X5055777Y-17656484D01*
X5274825Y-17523150D02*
X5274825Y-17723150D01*
X5274825Y-17532674D02*
X5293873Y-17523150D01*
X5293873Y-17523150D02*
X5331968Y-17523150D01*
X5331968Y-17523150D02*
X5351015Y-17532674D01*
X5351015Y-17532674D02*
X5360539Y-17542198D01*
X5360539Y-17542198D02*
X5370063Y-17561246D01*
X5370063Y-17561246D02*
X5370063Y-17618389D01*
X5370063Y-17618389D02*
X5360539Y-17637436D01*
X5360539Y-17637436D02*
X5351015Y-17646960D01*
X5351015Y-17646960D02*
X5331968Y-17656484D01*
X5331968Y-17656484D02*
X5293873Y-17656484D01*
X5293873Y-17656484D02*
X5274825Y-17646960D01*
X5484349Y-17656484D02*
X5465301Y-17646960D01*
X5465301Y-17646960D02*
X5455777Y-17627912D01*
X5455777Y-17627912D02*
X5455777Y-17456484D01*
X5646253Y-17656484D02*
X5646253Y-17551722D01*
X5646253Y-17551722D02*
X5636730Y-17532674D01*
X5636730Y-17532674D02*
X5617682Y-17523150D01*
X5617682Y-17523150D02*
X5579587Y-17523150D01*
X5579587Y-17523150D02*
X5560539Y-17532674D01*
X5646253Y-17646960D02*
X5627206Y-17656484D01*
X5627206Y-17656484D02*
X5579587Y-17656484D01*
X5579587Y-17656484D02*
X5560539Y-17646960D01*
X5560539Y-17646960D02*
X5551015Y-17627912D01*
X5551015Y-17627912D02*
X5551015Y-17608865D01*
X5551015Y-17608865D02*
X5560539Y-17589817D01*
X5560539Y-17589817D02*
X5579587Y-17580293D01*
X5579587Y-17580293D02*
X5627206Y-17580293D01*
X5627206Y-17580293D02*
X5646253Y-17570770D01*
X5712920Y-17523150D02*
X5789111Y-17523150D01*
X5741492Y-17456484D02*
X5741492Y-17627912D01*
X5741492Y-17627912D02*
X5751015Y-17646960D01*
X5751015Y-17646960D02*
X5770063Y-17656484D01*
X5770063Y-17656484D02*
X5789111Y-17656484D01*
X5931968Y-17646960D02*
X5912920Y-17656484D01*
X5912920Y-17656484D02*
X5874825Y-17656484D01*
X5874825Y-17656484D02*
X5855777Y-17646960D01*
X5855777Y-17646960D02*
X5846253Y-17627912D01*
X5846253Y-17627912D02*
X5846253Y-17551722D01*
X5846253Y-17551722D02*
X5855777Y-17532674D01*
X5855777Y-17532674D02*
X5874825Y-17523150D01*
X5874825Y-17523150D02*
X5912920Y-17523150D01*
X5912920Y-17523150D02*
X5931968Y-17532674D01*
X5931968Y-17532674D02*
X5941492Y-17551722D01*
X5941492Y-17551722D02*
X5941492Y-17570770D01*
X5941492Y-17570770D02*
X5846253Y-17589817D01*
X6112920Y-17656484D02*
X6112920Y-17456484D01*
X6112920Y-17646960D02*
X6093873Y-17656484D01*
X6093873Y-17656484D02*
X6055777Y-17656484D01*
X6055777Y-17656484D02*
X6036730Y-17646960D01*
X6036730Y-17646960D02*
X6027206Y-17637436D01*
X6027206Y-17637436D02*
X6017682Y-17618389D01*
X6017682Y-17618389D02*
X6017682Y-17561246D01*
X6017682Y-17561246D02*
X6027206Y-17542198D01*
X6027206Y-17542198D02*
X6036730Y-17532674D01*
X6036730Y-17532674D02*
X6055777Y-17523150D01*
X6055777Y-17523150D02*
X6093873Y-17523150D01*
X6093873Y-17523150D02*
X6112920Y-17532674D01*
X6189111Y-17732674D02*
X6198634Y-17723150D01*
X6198634Y-17723150D02*
X6217682Y-17694579D01*
X6217682Y-17694579D02*
X6227206Y-17675531D01*
X6227206Y-17675531D02*
X6236730Y-17646960D01*
X6236730Y-17646960D02*
X6246253Y-17599341D01*
X6246253Y-17599341D02*
X6246253Y-17561246D01*
X6246253Y-17561246D02*
X6236730Y-17513627D01*
X6236730Y-17513627D02*
X6227206Y-17485055D01*
X6227206Y-17485055D02*
X6217682Y-17466008D01*
X6217682Y-17466008D02*
X6198634Y-17437436D01*
X6198634Y-17437436D02*
X6189111Y-17427912D01*
M02*
