%TF.GenerationSoftware,KiCad,Pcbnew,(5.99.0-2358-g6d8fb94d8)*%
%TF.CreationDate,2020-10-18T12:13:38+08:00*%
%TF.ProjectId,Retro6502,52657472-6f36-4353-9032-2e6b69636164,rev?*%
%TF.SameCoordinates,Original*%
%TF.FileFunction,Soldermask,Top*%
%TF.FilePolarity,Negative*%
%FSLAX46Y46*%
G04 Gerber Fmt 4.6, Leading zero omitted, Abs format (unit mm)*
G04 Created by KiCad (PCBNEW (5.99.0-2358-g6d8fb94d8)) date 2020-10-18 12:13:38*
%MOMM*%
%LPD*%
G01*
G04 APERTURE LIST*
%ADD10O,1.700000X1.700000*%
%ADD11R,1.700000X1.700000*%
%ADD12O,1.600000X1.600000*%
%ADD13R,1.600000X1.600000*%
%ADD14C,1.600000*%
%ADD15O,1.905000X2.000000*%
%ADD16R,1.905000X2.000000*%
%ADD17O,3.500000X3.500000*%
%ADD18C,2.000000*%
%ADD19R,3.500000X3.500000*%
%ADD20C,3.200000*%
%ADD21O,2.000000X2.000000*%
%ADD22C,1.800000*%
%ADD23R,1.800000X1.800000*%
G04 APERTURE END LIST*
D10*
%TO.C,J10*%
X15240000Y-99060000D03*
D11*
X15240000Y-96520000D03*
%TD*%
D12*
%TO.C,U4*%
X170180000Y-101600000D03*
X154940000Y-134620000D03*
X170180000Y-104140000D03*
X154940000Y-132080000D03*
X170180000Y-106680000D03*
X154940000Y-129540000D03*
X170180000Y-109220000D03*
X154940000Y-127000000D03*
X170180000Y-111760000D03*
X154940000Y-124460000D03*
X170180000Y-114300000D03*
X154940000Y-121920000D03*
X170180000Y-116840000D03*
X154940000Y-119380000D03*
X170180000Y-119380000D03*
X154940000Y-116840000D03*
X170180000Y-121920000D03*
X154940000Y-114300000D03*
X170180000Y-124460000D03*
X154940000Y-111760000D03*
X170180000Y-127000000D03*
X154940000Y-109220000D03*
X170180000Y-129540000D03*
X154940000Y-106680000D03*
X170180000Y-132080000D03*
X154940000Y-104140000D03*
X170180000Y-134620000D03*
D13*
X154940000Y-101600000D03*
%TD*%
D12*
%TO.C,U2*%
X241300000Y-101600000D03*
X226060000Y-134620000D03*
X241300000Y-104140000D03*
X226060000Y-132080000D03*
X241300000Y-106680000D03*
X226060000Y-129540000D03*
X241300000Y-109220000D03*
X226060000Y-127000000D03*
X241300000Y-111760000D03*
X226060000Y-124460000D03*
X241300000Y-114300000D03*
X226060000Y-121920000D03*
X241300000Y-116840000D03*
X226060000Y-119380000D03*
X241300000Y-119380000D03*
X226060000Y-116840000D03*
X241300000Y-121920000D03*
X226060000Y-114300000D03*
X241300000Y-124460000D03*
X226060000Y-111760000D03*
X241300000Y-127000000D03*
X226060000Y-109220000D03*
X241300000Y-129540000D03*
X226060000Y-106680000D03*
X241300000Y-132080000D03*
X226060000Y-104140000D03*
X241300000Y-134620000D03*
D13*
X226060000Y-101600000D03*
%TD*%
D14*
%TO.C,C3*%
X111760000Y-117380000D03*
X111760000Y-119380000D03*
%TD*%
D12*
%TO.C,U8*%
X205740000Y-152400000D03*
X198120000Y-167640000D03*
X205740000Y-154940000D03*
X198120000Y-165100000D03*
X205740000Y-157480000D03*
X198120000Y-162560000D03*
X205740000Y-160020000D03*
X198120000Y-160020000D03*
X205740000Y-162560000D03*
X198120000Y-157480000D03*
X205740000Y-165100000D03*
X198120000Y-154940000D03*
X205740000Y-167640000D03*
D13*
X198120000Y-152400000D03*
%TD*%
D12*
%TO.C,U3*%
X43180000Y-109220000D03*
X27940000Y-157480000D03*
X43180000Y-111760000D03*
X27940000Y-154940000D03*
X43180000Y-114300000D03*
X27940000Y-152400000D03*
X43180000Y-116840000D03*
X27940000Y-149860000D03*
X43180000Y-119380000D03*
X27940000Y-147320000D03*
X43180000Y-121920000D03*
X27940000Y-144780000D03*
X43180000Y-124460000D03*
X27940000Y-142240000D03*
X43180000Y-127000000D03*
X27940000Y-139700000D03*
X43180000Y-129540000D03*
X27940000Y-137160000D03*
X43180000Y-132080000D03*
X27940000Y-134620000D03*
X43180000Y-134620000D03*
X27940000Y-132080000D03*
X43180000Y-137160000D03*
X27940000Y-129540000D03*
X43180000Y-139700000D03*
X27940000Y-127000000D03*
X43180000Y-142240000D03*
X27940000Y-124460000D03*
X43180000Y-144780000D03*
X27940000Y-121920000D03*
X43180000Y-147320000D03*
X27940000Y-119380000D03*
X43180000Y-149860000D03*
X27940000Y-116840000D03*
X43180000Y-152400000D03*
X27940000Y-114300000D03*
X43180000Y-154940000D03*
X27940000Y-111760000D03*
X43180000Y-157480000D03*
D13*
X27940000Y-109220000D03*
%TD*%
D14*
%TO.C,X1*%
X129540000Y-170180000D03*
X129540000Y-162560000D03*
X114300000Y-162560000D03*
D13*
X114300000Y-170180000D03*
%TD*%
D12*
%TO.C,U7*%
X185420000Y-152400000D03*
X177800000Y-167640000D03*
X185420000Y-154940000D03*
X177800000Y-165100000D03*
X185420000Y-157480000D03*
X177800000Y-162560000D03*
X185420000Y-160020000D03*
X177800000Y-160020000D03*
X185420000Y-162560000D03*
X177800000Y-157480000D03*
X185420000Y-165100000D03*
X177800000Y-154940000D03*
X185420000Y-167640000D03*
D13*
X177800000Y-152400000D03*
%TD*%
D12*
%TO.C,U6*%
X165100000Y-152400000D03*
X157480000Y-167640000D03*
X165100000Y-154940000D03*
X157480000Y-165100000D03*
X165100000Y-157480000D03*
X157480000Y-162560000D03*
X165100000Y-160020000D03*
X157480000Y-160020000D03*
X165100000Y-162560000D03*
X157480000Y-157480000D03*
X165100000Y-165100000D03*
X157480000Y-154940000D03*
X165100000Y-167640000D03*
D13*
X157480000Y-152400000D03*
%TD*%
D12*
%TO.C,U5*%
X106680000Y-109220000D03*
X91440000Y-157480000D03*
X106680000Y-111760000D03*
X91440000Y-154940000D03*
X106680000Y-114300000D03*
X91440000Y-152400000D03*
X106680000Y-116840000D03*
X91440000Y-149860000D03*
X106680000Y-119380000D03*
X91440000Y-147320000D03*
X106680000Y-121920000D03*
X91440000Y-144780000D03*
X106680000Y-124460000D03*
X91440000Y-142240000D03*
X106680000Y-127000000D03*
X91440000Y-139700000D03*
X106680000Y-129540000D03*
X91440000Y-137160000D03*
X106680000Y-132080000D03*
X91440000Y-134620000D03*
X106680000Y-134620000D03*
X91440000Y-132080000D03*
X106680000Y-137160000D03*
X91440000Y-129540000D03*
X106680000Y-139700000D03*
X91440000Y-127000000D03*
X106680000Y-142240000D03*
X91440000Y-124460000D03*
X106680000Y-144780000D03*
X91440000Y-121920000D03*
X106680000Y-147320000D03*
X91440000Y-119380000D03*
X106680000Y-149860000D03*
X91440000Y-116840000D03*
X106680000Y-152400000D03*
X91440000Y-114300000D03*
X106680000Y-154940000D03*
X91440000Y-111760000D03*
X106680000Y-157480000D03*
D13*
X91440000Y-109220000D03*
%TD*%
D15*
%TO.C,U1*%
X223520000Y-60960000D03*
X220980000Y-60960000D03*
D16*
X218440000Y-60960000D03*
D17*
X220980000Y-44300000D03*
%TD*%
D18*
%TO.C,SW1*%
X106680000Y-96520000D03*
X106680000Y-101020000D03*
X100180000Y-96520000D03*
X100180000Y-101020000D03*
%TD*%
D12*
%TO.C,R4*%
X215900000Y-38100000D03*
D14*
X205740000Y-38100000D03*
%TD*%
D12*
%TO.C,R3*%
X110744000Y-109242330D03*
D14*
X110744000Y-99082330D03*
%TD*%
%TO.C,R2*%
X114300000Y-99060000D03*
D12*
X114300000Y-109220000D03*
%TD*%
%TO.C,R1*%
X88663000Y-121975831D03*
D14*
X88663000Y-111815831D03*
%TD*%
D10*
%TO.C,J9*%
X137160000Y-165100000D03*
X134620000Y-165100000D03*
X137160000Y-162560000D03*
D11*
X134620000Y-162560000D03*
%TD*%
D10*
%TO.C,J8*%
X114300000Y-93980000D03*
X114300000Y-91440000D03*
X114300000Y-88900000D03*
X114300000Y-86360000D03*
X114300000Y-83820000D03*
X114300000Y-81280000D03*
X114300000Y-78740000D03*
X114300000Y-76200000D03*
X114300000Y-73660000D03*
X114300000Y-71120000D03*
X114300000Y-68580000D03*
X114300000Y-66040000D03*
X114300000Y-63500000D03*
X114300000Y-60960000D03*
D11*
X114300000Y-58420000D03*
%TD*%
D10*
%TO.C,J7*%
X27940000Y-93980000D03*
X27940000Y-91440000D03*
X27940000Y-88900000D03*
X27940000Y-86360000D03*
X27940000Y-83820000D03*
X27940000Y-81280000D03*
X27940000Y-78740000D03*
X27940000Y-76200000D03*
X27940000Y-73660000D03*
X27940000Y-71120000D03*
X27940000Y-68580000D03*
X27940000Y-66040000D03*
X27940000Y-63500000D03*
X27940000Y-60960000D03*
D11*
X27940000Y-58420000D03*
%TD*%
D10*
%TO.C,J6*%
X142240000Y-171010888D03*
X139700000Y-171010888D03*
X137160000Y-171010888D03*
D11*
X134620000Y-171010888D03*
%TD*%
D10*
%TO.C,J5*%
X15240000Y-154940000D03*
X15240000Y-152400000D03*
X15240000Y-149860000D03*
X15240000Y-147320000D03*
X15240000Y-144780000D03*
X15240000Y-142240000D03*
X15240000Y-139700000D03*
X15240000Y-137160000D03*
X15240000Y-134620000D03*
D11*
X15240000Y-132080000D03*
%TD*%
D10*
%TO.C,J4*%
X114300000Y-53340000D03*
X114300000Y-50800000D03*
X114300000Y-48260000D03*
X114300000Y-45720000D03*
X114300000Y-43180000D03*
X114300000Y-40640000D03*
X114300000Y-38100000D03*
X114300000Y-35560000D03*
X114300000Y-33020000D03*
X114300000Y-30480000D03*
X114300000Y-27940000D03*
X114300000Y-25400000D03*
X114300000Y-22860000D03*
X114300000Y-20320000D03*
D11*
X114300000Y-17780000D03*
%TD*%
D10*
%TO.C,J3*%
X27940000Y-53340000D03*
X27940000Y-50800000D03*
X27940000Y-48260000D03*
X27940000Y-45720000D03*
X27940000Y-43180000D03*
X27940000Y-40640000D03*
X27940000Y-38100000D03*
X27940000Y-35560000D03*
X27940000Y-33020000D03*
X27940000Y-30480000D03*
X27940000Y-27940000D03*
X27940000Y-25400000D03*
X27940000Y-22860000D03*
X27940000Y-20320000D03*
D11*
X27940000Y-17780000D03*
%TD*%
D10*
%TO.C,J2*%
X15240000Y-127000000D03*
X15240000Y-124460000D03*
X15240000Y-121920000D03*
X15240000Y-119380000D03*
X15240000Y-116840000D03*
X15240000Y-114300000D03*
X15240000Y-111760000D03*
X15240000Y-109220000D03*
X15240000Y-106680000D03*
D11*
X15240000Y-104140000D03*
%TD*%
%TO.C,J1*%
G36*
G01*
X238430000Y-41046670D02*
X238430000Y-42796670D01*
G75*
G02*
X237555000Y-43671670I-875000J0D01*
G01*
X235805000Y-43671670D01*
G75*
G02*
X234930000Y-42796670I0J875000D01*
G01*
X234930000Y-41046670D01*
G75*
G02*
X235805000Y-40171670I875000J0D01*
G01*
X237555000Y-40171670D01*
G75*
G02*
X238430000Y-41046670I0J-875000D01*
G01*
G37*
G36*
G01*
X241180000Y-45621670D02*
X241180000Y-47621670D01*
G75*
G02*
X240430000Y-48371670I-750000J0D01*
G01*
X238930000Y-48371670D01*
G75*
G02*
X238180000Y-47621670I0J750000D01*
G01*
X238180000Y-45621670D01*
G75*
G02*
X238930000Y-44871670I750000J0D01*
G01*
X240430000Y-44871670D01*
G75*
G02*
X241180000Y-45621670I0J-750000D01*
G01*
G37*
D19*
X233680000Y-46621670D03*
%TD*%
D20*
%TO.C,H4*%
X241300000Y-175260000D03*
%TD*%
%TO.C,H3*%
X17780000Y-175260000D03*
%TD*%
%TO.C,H2*%
X17780000Y-20320000D03*
%TD*%
%TO.C,H1*%
X241300000Y-20320000D03*
%TD*%
D21*
%TO.C,FB1*%
X226060000Y-68580000D03*
D18*
X238760000Y-68580000D03*
%TD*%
D14*
%TO.C,F1*%
X238760000Y-60960000D03*
X238760000Y-55880000D03*
%TD*%
D22*
%TO.C,D1*%
X208280000Y-46938533D03*
D23*
X205740000Y-46938533D03*
%TD*%
D14*
%TO.C,C7*%
X172991000Y-99100000D03*
X172991000Y-101600000D03*
%TD*%
%TO.C,C6*%
X244111000Y-99100000D03*
X244111000Y-101600000D03*
%TD*%
%TO.C,C5*%
X25163000Y-159980000D03*
X25163000Y-157480000D03*
%TD*%
%TO.C,C4*%
X88663000Y-124754000D03*
X88663000Y-127254000D03*
%TD*%
%TO.C,C2*%
X210820000Y-58960000D03*
X210820000Y-60960000D03*
%TD*%
%TO.C,C1*%
X231140000Y-58960000D03*
X231140000Y-60960000D03*
%TD*%
M02*
