%TF.GenerationSoftware,KiCad,Pcbnew,7.0.6*%
%TF.CreationDate,2023-07-08T17:28:57+08:00*%
%TF.ProjectId,MotherBoard,4d6f7468-6572-4426-9f61-72642e6b6963,rev?*%
%TF.SameCoordinates,PX10513f0PY11c7c20*%
%TF.FileFunction,Drillmap*%
%TF.FilePolarity,Positive*%
%FSLAX45Y45*%
G04 Gerber Fmt 4.5, Leading zero omitted, Abs format (unit mm)*
G04 Created by KiCad (PCBNEW 7.0.6) date 2023-07-08 17:28:57*
%MOMM*%
%LPD*%
G01*
G04 APERTURE LIST*
%ADD10C,0.100000*%
%ADD11C,0.200000*%
%ADD12C,0.320000*%
G04 APERTURE END LIST*
D10*
X-154000Y408000D02*
G75*
G03*
X-408000Y154000I0J-254000D01*
G01*
X-408000Y-16356000D02*
G75*
G03*
X-154000Y-16610000I254000J0D01*
G01*
X16356000Y-16610000D02*
G75*
G03*
X16610000Y-16356000I0J254000D01*
G01*
X16610000Y154000D02*
G75*
G03*
X16356000Y408000I-254000J0D01*
G01*
X-408000Y-16356000D02*
X-408000Y154000D01*
X16610000Y154000D02*
X16610000Y-16356000D01*
X-154000Y408000D02*
X16356000Y408000D01*
X16356000Y-16610000D02*
X-154000Y-16610000D01*
D11*
D12*
X-160000Y160000D02*
X160000Y-160000D01*
X160000Y160000D02*
X-160000Y-160000D01*
X-160000Y-15340000D02*
X160000Y-15660000D01*
X160000Y-15340000D02*
X-160000Y-15660000D01*
X15640000Y-340000D02*
X15960000Y-660000D01*
X15960000Y-340000D02*
X15640000Y-660000D01*
X15640000Y-15340000D02*
X15960000Y-15660000D01*
X15960000Y-15340000D02*
X15640000Y-15660000D01*
D11*
X-152223Y-16926484D02*
X-152223Y-16726484D01*
X-152223Y-16726484D02*
X-104604Y-16726484D01*
X-104604Y-16726484D02*
X-76033Y-16736008D01*
X-76033Y-16736008D02*
X-56985Y-16755055D01*
X-56985Y-16755055D02*
X-47461Y-16774103D01*
X-47461Y-16774103D02*
X-37938Y-16812198D01*
X-37938Y-16812198D02*
X-37938Y-16840770D01*
X-37938Y-16840770D02*
X-47461Y-16878865D01*
X-47461Y-16878865D02*
X-56985Y-16897912D01*
X-56985Y-16897912D02*
X-76033Y-16916960D01*
X-76033Y-16916960D02*
X-104604Y-16926484D01*
X-104604Y-16926484D02*
X-152223Y-16926484D01*
X47777Y-16926484D02*
X47777Y-16793150D01*
X47777Y-16831246D02*
X57301Y-16812198D01*
X57301Y-16812198D02*
X66824Y-16802674D01*
X66824Y-16802674D02*
X85872Y-16793150D01*
X85872Y-16793150D02*
X104920Y-16793150D01*
X171586Y-16926484D02*
X171586Y-16793150D01*
X171586Y-16726484D02*
X162063Y-16736008D01*
X162063Y-16736008D02*
X171586Y-16745531D01*
X171586Y-16745531D02*
X181110Y-16736008D01*
X181110Y-16736008D02*
X171586Y-16726484D01*
X171586Y-16726484D02*
X171586Y-16745531D01*
X295396Y-16926484D02*
X276348Y-16916960D01*
X276348Y-16916960D02*
X266824Y-16897912D01*
X266824Y-16897912D02*
X266824Y-16726484D01*
X400158Y-16926484D02*
X381110Y-16916960D01*
X381110Y-16916960D02*
X371586Y-16897912D01*
X371586Y-16897912D02*
X371586Y-16726484D01*
X628729Y-16926484D02*
X628729Y-16726484D01*
X628729Y-16726484D02*
X695396Y-16869341D01*
X695396Y-16869341D02*
X762062Y-16726484D01*
X762062Y-16726484D02*
X762062Y-16926484D01*
X943015Y-16926484D02*
X943015Y-16821722D01*
X943015Y-16821722D02*
X933491Y-16802674D01*
X933491Y-16802674D02*
X914443Y-16793150D01*
X914443Y-16793150D02*
X876348Y-16793150D01*
X876348Y-16793150D02*
X857301Y-16802674D01*
X943015Y-16916960D02*
X923967Y-16926484D01*
X923967Y-16926484D02*
X876348Y-16926484D01*
X876348Y-16926484D02*
X857301Y-16916960D01*
X857301Y-16916960D02*
X847777Y-16897912D01*
X847777Y-16897912D02*
X847777Y-16878865D01*
X847777Y-16878865D02*
X857301Y-16859817D01*
X857301Y-16859817D02*
X876348Y-16850293D01*
X876348Y-16850293D02*
X923967Y-16850293D01*
X923967Y-16850293D02*
X943015Y-16840770D01*
X1038253Y-16793150D02*
X1038253Y-16993150D01*
X1038253Y-16802674D02*
X1057301Y-16793150D01*
X1057301Y-16793150D02*
X1095396Y-16793150D01*
X1095396Y-16793150D02*
X1114444Y-16802674D01*
X1114444Y-16802674D02*
X1123967Y-16812198D01*
X1123967Y-16812198D02*
X1133491Y-16831246D01*
X1133491Y-16831246D02*
X1133491Y-16888389D01*
X1133491Y-16888389D02*
X1123967Y-16907436D01*
X1123967Y-16907436D02*
X1114444Y-16916960D01*
X1114444Y-16916960D02*
X1095396Y-16926484D01*
X1095396Y-16926484D02*
X1057301Y-16926484D01*
X1057301Y-16926484D02*
X1038253Y-16916960D01*
X1219205Y-16907436D02*
X1228729Y-16916960D01*
X1228729Y-16916960D02*
X1219205Y-16926484D01*
X1219205Y-16926484D02*
X1209682Y-16916960D01*
X1209682Y-16916960D02*
X1219205Y-16907436D01*
X1219205Y-16907436D02*
X1219205Y-16926484D01*
X1219205Y-16802674D02*
X1228729Y-16812198D01*
X1228729Y-16812198D02*
X1219205Y-16821722D01*
X1219205Y-16821722D02*
X1209682Y-16812198D01*
X1209682Y-16812198D02*
X1219205Y-16802674D01*
X1219205Y-16802674D02*
X1219205Y-16821722D01*
X-613000Y-17155000D02*
X-413000Y-17355000D01*
X-413000Y-17155000D02*
X-613000Y-17355000D01*
X-171271Y-17146484D02*
X-47461Y-17146484D01*
X-47461Y-17146484D02*
X-114128Y-17222674D01*
X-114128Y-17222674D02*
X-85557Y-17222674D01*
X-85557Y-17222674D02*
X-66509Y-17232198D01*
X-66509Y-17232198D02*
X-56985Y-17241722D01*
X-56985Y-17241722D02*
X-47461Y-17260770D01*
X-47461Y-17260770D02*
X-47461Y-17308389D01*
X-47461Y-17308389D02*
X-56985Y-17327436D01*
X-56985Y-17327436D02*
X-66509Y-17336960D01*
X-66509Y-17336960D02*
X-85557Y-17346484D01*
X-85557Y-17346484D02*
X-142699Y-17346484D01*
X-142699Y-17346484D02*
X-161747Y-17336960D01*
X-161747Y-17336960D02*
X-171271Y-17327436D01*
X38253Y-17327436D02*
X47777Y-17336960D01*
X47777Y-17336960D02*
X38253Y-17346484D01*
X38253Y-17346484D02*
X28729Y-17336960D01*
X28729Y-17336960D02*
X38253Y-17327436D01*
X38253Y-17327436D02*
X38253Y-17346484D01*
X123967Y-17165531D02*
X133491Y-17156008D01*
X133491Y-17156008D02*
X152539Y-17146484D01*
X152539Y-17146484D02*
X200158Y-17146484D01*
X200158Y-17146484D02*
X219205Y-17156008D01*
X219205Y-17156008D02*
X228729Y-17165531D01*
X228729Y-17165531D02*
X238253Y-17184579D01*
X238253Y-17184579D02*
X238253Y-17203627D01*
X238253Y-17203627D02*
X228729Y-17232198D01*
X228729Y-17232198D02*
X114443Y-17346484D01*
X114443Y-17346484D02*
X238253Y-17346484D01*
X362062Y-17146484D02*
X381110Y-17146484D01*
X381110Y-17146484D02*
X400158Y-17156008D01*
X400158Y-17156008D02*
X409682Y-17165531D01*
X409682Y-17165531D02*
X419205Y-17184579D01*
X419205Y-17184579D02*
X428729Y-17222674D01*
X428729Y-17222674D02*
X428729Y-17270293D01*
X428729Y-17270293D02*
X419205Y-17308389D01*
X419205Y-17308389D02*
X409682Y-17327436D01*
X409682Y-17327436D02*
X400158Y-17336960D01*
X400158Y-17336960D02*
X381110Y-17346484D01*
X381110Y-17346484D02*
X362062Y-17346484D01*
X362062Y-17346484D02*
X343015Y-17336960D01*
X343015Y-17336960D02*
X333491Y-17327436D01*
X333491Y-17327436D02*
X323967Y-17308389D01*
X323967Y-17308389D02*
X314444Y-17270293D01*
X314444Y-17270293D02*
X314444Y-17222674D01*
X314444Y-17222674D02*
X323967Y-17184579D01*
X323967Y-17184579D02*
X333491Y-17165531D01*
X333491Y-17165531D02*
X343015Y-17156008D01*
X343015Y-17156008D02*
X362062Y-17146484D01*
X552539Y-17146484D02*
X571586Y-17146484D01*
X571586Y-17146484D02*
X590634Y-17156008D01*
X590634Y-17156008D02*
X600158Y-17165531D01*
X600158Y-17165531D02*
X609682Y-17184579D01*
X609682Y-17184579D02*
X619205Y-17222674D01*
X619205Y-17222674D02*
X619205Y-17270293D01*
X619205Y-17270293D02*
X609682Y-17308389D01*
X609682Y-17308389D02*
X600158Y-17327436D01*
X600158Y-17327436D02*
X590634Y-17336960D01*
X590634Y-17336960D02*
X571586Y-17346484D01*
X571586Y-17346484D02*
X552539Y-17346484D01*
X552539Y-17346484D02*
X533491Y-17336960D01*
X533491Y-17336960D02*
X523967Y-17327436D01*
X523967Y-17327436D02*
X514443Y-17308389D01*
X514443Y-17308389D02*
X504920Y-17270293D01*
X504920Y-17270293D02*
X504920Y-17222674D01*
X504920Y-17222674D02*
X514443Y-17184579D01*
X514443Y-17184579D02*
X523967Y-17165531D01*
X523967Y-17165531D02*
X533491Y-17156008D01*
X533491Y-17156008D02*
X552539Y-17146484D01*
X704920Y-17346484D02*
X704920Y-17213150D01*
X704920Y-17232198D02*
X714443Y-17222674D01*
X714443Y-17222674D02*
X733491Y-17213150D01*
X733491Y-17213150D02*
X762063Y-17213150D01*
X762063Y-17213150D02*
X781110Y-17222674D01*
X781110Y-17222674D02*
X790634Y-17241722D01*
X790634Y-17241722D02*
X790634Y-17346484D01*
X790634Y-17241722D02*
X800158Y-17222674D01*
X800158Y-17222674D02*
X819205Y-17213150D01*
X819205Y-17213150D02*
X847777Y-17213150D01*
X847777Y-17213150D02*
X866824Y-17222674D01*
X866824Y-17222674D02*
X876348Y-17241722D01*
X876348Y-17241722D02*
X876348Y-17346484D01*
X971586Y-17346484D02*
X971586Y-17213150D01*
X971586Y-17232198D02*
X981110Y-17222674D01*
X981110Y-17222674D02*
X1000158Y-17213150D01*
X1000158Y-17213150D02*
X1028729Y-17213150D01*
X1028729Y-17213150D02*
X1047777Y-17222674D01*
X1047777Y-17222674D02*
X1057301Y-17241722D01*
X1057301Y-17241722D02*
X1057301Y-17346484D01*
X1057301Y-17241722D02*
X1066825Y-17222674D01*
X1066825Y-17222674D02*
X1085872Y-17213150D01*
X1085872Y-17213150D02*
X1114444Y-17213150D01*
X1114444Y-17213150D02*
X1133491Y-17222674D01*
X1133491Y-17222674D02*
X1143015Y-17241722D01*
X1143015Y-17241722D02*
X1143015Y-17346484D01*
X1533491Y-17136960D02*
X1362063Y-17394103D01*
X1790634Y-17146484D02*
X1809682Y-17146484D01*
X1809682Y-17146484D02*
X1828729Y-17156008D01*
X1828729Y-17156008D02*
X1838253Y-17165531D01*
X1838253Y-17165531D02*
X1847777Y-17184579D01*
X1847777Y-17184579D02*
X1857301Y-17222674D01*
X1857301Y-17222674D02*
X1857301Y-17270293D01*
X1857301Y-17270293D02*
X1847777Y-17308389D01*
X1847777Y-17308389D02*
X1838253Y-17327436D01*
X1838253Y-17327436D02*
X1828729Y-17336960D01*
X1828729Y-17336960D02*
X1809682Y-17346484D01*
X1809682Y-17346484D02*
X1790634Y-17346484D01*
X1790634Y-17346484D02*
X1771586Y-17336960D01*
X1771586Y-17336960D02*
X1762063Y-17327436D01*
X1762063Y-17327436D02*
X1752539Y-17308389D01*
X1752539Y-17308389D02*
X1743015Y-17270293D01*
X1743015Y-17270293D02*
X1743015Y-17222674D01*
X1743015Y-17222674D02*
X1752539Y-17184579D01*
X1752539Y-17184579D02*
X1762063Y-17165531D01*
X1762063Y-17165531D02*
X1771586Y-17156008D01*
X1771586Y-17156008D02*
X1790634Y-17146484D01*
X1943015Y-17327436D02*
X1952539Y-17336960D01*
X1952539Y-17336960D02*
X1943015Y-17346484D01*
X1943015Y-17346484D02*
X1933491Y-17336960D01*
X1933491Y-17336960D02*
X1943015Y-17327436D01*
X1943015Y-17327436D02*
X1943015Y-17346484D01*
X2143015Y-17346484D02*
X2028729Y-17346484D01*
X2085872Y-17346484D02*
X2085872Y-17146484D01*
X2085872Y-17146484D02*
X2066825Y-17175055D01*
X2066825Y-17175055D02*
X2047777Y-17194103D01*
X2047777Y-17194103D02*
X2028729Y-17203627D01*
X2219206Y-17165531D02*
X2228729Y-17156008D01*
X2228729Y-17156008D02*
X2247777Y-17146484D01*
X2247777Y-17146484D02*
X2295396Y-17146484D01*
X2295396Y-17146484D02*
X2314444Y-17156008D01*
X2314444Y-17156008D02*
X2323968Y-17165531D01*
X2323968Y-17165531D02*
X2333491Y-17184579D01*
X2333491Y-17184579D02*
X2333491Y-17203627D01*
X2333491Y-17203627D02*
X2323968Y-17232198D01*
X2323968Y-17232198D02*
X2209682Y-17346484D01*
X2209682Y-17346484D02*
X2333491Y-17346484D01*
X2504920Y-17146484D02*
X2466825Y-17146484D01*
X2466825Y-17146484D02*
X2447777Y-17156008D01*
X2447777Y-17156008D02*
X2438253Y-17165531D01*
X2438253Y-17165531D02*
X2419206Y-17194103D01*
X2419206Y-17194103D02*
X2409682Y-17232198D01*
X2409682Y-17232198D02*
X2409682Y-17308389D01*
X2409682Y-17308389D02*
X2419206Y-17327436D01*
X2419206Y-17327436D02*
X2428729Y-17336960D01*
X2428729Y-17336960D02*
X2447777Y-17346484D01*
X2447777Y-17346484D02*
X2485872Y-17346484D01*
X2485872Y-17346484D02*
X2504920Y-17336960D01*
X2504920Y-17336960D02*
X2514444Y-17327436D01*
X2514444Y-17327436D02*
X2523968Y-17308389D01*
X2523968Y-17308389D02*
X2523968Y-17260770D01*
X2523968Y-17260770D02*
X2514444Y-17241722D01*
X2514444Y-17241722D02*
X2504920Y-17232198D01*
X2504920Y-17232198D02*
X2485872Y-17222674D01*
X2485872Y-17222674D02*
X2447777Y-17222674D01*
X2447777Y-17222674D02*
X2428729Y-17232198D01*
X2428729Y-17232198D02*
X2419206Y-17241722D01*
X2419206Y-17241722D02*
X2409682Y-17260770D01*
X2647777Y-17146484D02*
X2666825Y-17146484D01*
X2666825Y-17146484D02*
X2685872Y-17156008D01*
X2685872Y-17156008D02*
X2695396Y-17165531D01*
X2695396Y-17165531D02*
X2704920Y-17184579D01*
X2704920Y-17184579D02*
X2714444Y-17222674D01*
X2714444Y-17222674D02*
X2714444Y-17270293D01*
X2714444Y-17270293D02*
X2704920Y-17308389D01*
X2704920Y-17308389D02*
X2695396Y-17327436D01*
X2695396Y-17327436D02*
X2685872Y-17336960D01*
X2685872Y-17336960D02*
X2666825Y-17346484D01*
X2666825Y-17346484D02*
X2647777Y-17346484D01*
X2647777Y-17346484D02*
X2628729Y-17336960D01*
X2628729Y-17336960D02*
X2619206Y-17327436D01*
X2619206Y-17327436D02*
X2609682Y-17308389D01*
X2609682Y-17308389D02*
X2600158Y-17270293D01*
X2600158Y-17270293D02*
X2600158Y-17222674D01*
X2600158Y-17222674D02*
X2609682Y-17184579D01*
X2609682Y-17184579D02*
X2619206Y-17165531D01*
X2619206Y-17165531D02*
X2628729Y-17156008D01*
X2628729Y-17156008D02*
X2647777Y-17146484D01*
X2790634Y-17146484D02*
X2790634Y-17184579D01*
X2866825Y-17146484D02*
X2866825Y-17184579D01*
X3162063Y-17422674D02*
X3152539Y-17413150D01*
X3152539Y-17413150D02*
X3133491Y-17384579D01*
X3133491Y-17384579D02*
X3123968Y-17365531D01*
X3123968Y-17365531D02*
X3114444Y-17336960D01*
X3114444Y-17336960D02*
X3104920Y-17289341D01*
X3104920Y-17289341D02*
X3104920Y-17251246D01*
X3104920Y-17251246D02*
X3114444Y-17203627D01*
X3114444Y-17203627D02*
X3123968Y-17175055D01*
X3123968Y-17175055D02*
X3133491Y-17156008D01*
X3133491Y-17156008D02*
X3152539Y-17127436D01*
X3152539Y-17127436D02*
X3162063Y-17117912D01*
X3323968Y-17213150D02*
X3323968Y-17346484D01*
X3276348Y-17136960D02*
X3228729Y-17279817D01*
X3228729Y-17279817D02*
X3352539Y-17279817D01*
X3581110Y-17346484D02*
X3581110Y-17146484D01*
X3666825Y-17346484D02*
X3666825Y-17241722D01*
X3666825Y-17241722D02*
X3657301Y-17222674D01*
X3657301Y-17222674D02*
X3638253Y-17213150D01*
X3638253Y-17213150D02*
X3609682Y-17213150D01*
X3609682Y-17213150D02*
X3590634Y-17222674D01*
X3590634Y-17222674D02*
X3581110Y-17232198D01*
X3790634Y-17346484D02*
X3771587Y-17336960D01*
X3771587Y-17336960D02*
X3762063Y-17327436D01*
X3762063Y-17327436D02*
X3752539Y-17308389D01*
X3752539Y-17308389D02*
X3752539Y-17251246D01*
X3752539Y-17251246D02*
X3762063Y-17232198D01*
X3762063Y-17232198D02*
X3771587Y-17222674D01*
X3771587Y-17222674D02*
X3790634Y-17213150D01*
X3790634Y-17213150D02*
X3819206Y-17213150D01*
X3819206Y-17213150D02*
X3838253Y-17222674D01*
X3838253Y-17222674D02*
X3847777Y-17232198D01*
X3847777Y-17232198D02*
X3857301Y-17251246D01*
X3857301Y-17251246D02*
X3857301Y-17308389D01*
X3857301Y-17308389D02*
X3847777Y-17327436D01*
X3847777Y-17327436D02*
X3838253Y-17336960D01*
X3838253Y-17336960D02*
X3819206Y-17346484D01*
X3819206Y-17346484D02*
X3790634Y-17346484D01*
X3971587Y-17346484D02*
X3952539Y-17336960D01*
X3952539Y-17336960D02*
X3943015Y-17317912D01*
X3943015Y-17317912D02*
X3943015Y-17146484D01*
X4123968Y-17336960D02*
X4104920Y-17346484D01*
X4104920Y-17346484D02*
X4066825Y-17346484D01*
X4066825Y-17346484D02*
X4047777Y-17336960D01*
X4047777Y-17336960D02*
X4038253Y-17317912D01*
X4038253Y-17317912D02*
X4038253Y-17241722D01*
X4038253Y-17241722D02*
X4047777Y-17222674D01*
X4047777Y-17222674D02*
X4066825Y-17213150D01*
X4066825Y-17213150D02*
X4104920Y-17213150D01*
X4104920Y-17213150D02*
X4123968Y-17222674D01*
X4123968Y-17222674D02*
X4133491Y-17241722D01*
X4133491Y-17241722D02*
X4133491Y-17260770D01*
X4133491Y-17260770D02*
X4038253Y-17279817D01*
X4209682Y-17336960D02*
X4228730Y-17346484D01*
X4228730Y-17346484D02*
X4266825Y-17346484D01*
X4266825Y-17346484D02*
X4285873Y-17336960D01*
X4285873Y-17336960D02*
X4295396Y-17317912D01*
X4295396Y-17317912D02*
X4295396Y-17308389D01*
X4295396Y-17308389D02*
X4285873Y-17289341D01*
X4285873Y-17289341D02*
X4266825Y-17279817D01*
X4266825Y-17279817D02*
X4238253Y-17279817D01*
X4238253Y-17279817D02*
X4219206Y-17270293D01*
X4219206Y-17270293D02*
X4209682Y-17251246D01*
X4209682Y-17251246D02*
X4209682Y-17241722D01*
X4209682Y-17241722D02*
X4219206Y-17222674D01*
X4219206Y-17222674D02*
X4238253Y-17213150D01*
X4238253Y-17213150D02*
X4266825Y-17213150D01*
X4266825Y-17213150D02*
X4285873Y-17222674D01*
X4362063Y-17422674D02*
X4371587Y-17413150D01*
X4371587Y-17413150D02*
X4390634Y-17384579D01*
X4390634Y-17384579D02*
X4400158Y-17365531D01*
X4400158Y-17365531D02*
X4409682Y-17336960D01*
X4409682Y-17336960D02*
X4419206Y-17289341D01*
X4419206Y-17289341D02*
X4419206Y-17251246D01*
X4419206Y-17251246D02*
X4409682Y-17203627D01*
X4409682Y-17203627D02*
X4400158Y-17175055D01*
X4400158Y-17175055D02*
X4390634Y-17156008D01*
X4390634Y-17156008D02*
X4371587Y-17127436D01*
X4371587Y-17127436D02*
X4362063Y-17117912D01*
X4723968Y-17422674D02*
X4714444Y-17413150D01*
X4714444Y-17413150D02*
X4695396Y-17384579D01*
X4695396Y-17384579D02*
X4685873Y-17365531D01*
X4685873Y-17365531D02*
X4676349Y-17336960D01*
X4676349Y-17336960D02*
X4666825Y-17289341D01*
X4666825Y-17289341D02*
X4666825Y-17251246D01*
X4666825Y-17251246D02*
X4676349Y-17203627D01*
X4676349Y-17203627D02*
X4685873Y-17175055D01*
X4685873Y-17175055D02*
X4695396Y-17156008D01*
X4695396Y-17156008D02*
X4714444Y-17127436D01*
X4714444Y-17127436D02*
X4723968Y-17117912D01*
X4800158Y-17213150D02*
X4800158Y-17346484D01*
X4800158Y-17232198D02*
X4809682Y-17222674D01*
X4809682Y-17222674D02*
X4828730Y-17213150D01*
X4828730Y-17213150D02*
X4857301Y-17213150D01*
X4857301Y-17213150D02*
X4876349Y-17222674D01*
X4876349Y-17222674D02*
X4885873Y-17241722D01*
X4885873Y-17241722D02*
X4885873Y-17346484D01*
X5009682Y-17346484D02*
X4990634Y-17336960D01*
X4990634Y-17336960D02*
X4981111Y-17327436D01*
X4981111Y-17327436D02*
X4971587Y-17308389D01*
X4971587Y-17308389D02*
X4971587Y-17251246D01*
X4971587Y-17251246D02*
X4981111Y-17232198D01*
X4981111Y-17232198D02*
X4990634Y-17222674D01*
X4990634Y-17222674D02*
X5009682Y-17213150D01*
X5009682Y-17213150D02*
X5038254Y-17213150D01*
X5038254Y-17213150D02*
X5057301Y-17222674D01*
X5057301Y-17222674D02*
X5066825Y-17232198D01*
X5066825Y-17232198D02*
X5076349Y-17251246D01*
X5076349Y-17251246D02*
X5076349Y-17308389D01*
X5076349Y-17308389D02*
X5066825Y-17327436D01*
X5066825Y-17327436D02*
X5057301Y-17336960D01*
X5057301Y-17336960D02*
X5038254Y-17346484D01*
X5038254Y-17346484D02*
X5009682Y-17346484D01*
X5133492Y-17213150D02*
X5209682Y-17213150D01*
X5162063Y-17146484D02*
X5162063Y-17317912D01*
X5162063Y-17317912D02*
X5171587Y-17336960D01*
X5171587Y-17336960D02*
X5190634Y-17346484D01*
X5190634Y-17346484D02*
X5209682Y-17346484D01*
X5428730Y-17213150D02*
X5428730Y-17413150D01*
X5428730Y-17222674D02*
X5447777Y-17213150D01*
X5447777Y-17213150D02*
X5485873Y-17213150D01*
X5485873Y-17213150D02*
X5504920Y-17222674D01*
X5504920Y-17222674D02*
X5514444Y-17232198D01*
X5514444Y-17232198D02*
X5523968Y-17251246D01*
X5523968Y-17251246D02*
X5523968Y-17308389D01*
X5523968Y-17308389D02*
X5514444Y-17327436D01*
X5514444Y-17327436D02*
X5504920Y-17336960D01*
X5504920Y-17336960D02*
X5485873Y-17346484D01*
X5485873Y-17346484D02*
X5447777Y-17346484D01*
X5447777Y-17346484D02*
X5428730Y-17336960D01*
X5638253Y-17346484D02*
X5619206Y-17336960D01*
X5619206Y-17336960D02*
X5609682Y-17317912D01*
X5609682Y-17317912D02*
X5609682Y-17146484D01*
X5800158Y-17346484D02*
X5800158Y-17241722D01*
X5800158Y-17241722D02*
X5790634Y-17222674D01*
X5790634Y-17222674D02*
X5771587Y-17213150D01*
X5771587Y-17213150D02*
X5733492Y-17213150D01*
X5733492Y-17213150D02*
X5714444Y-17222674D01*
X5800158Y-17336960D02*
X5781111Y-17346484D01*
X5781111Y-17346484D02*
X5733492Y-17346484D01*
X5733492Y-17346484D02*
X5714444Y-17336960D01*
X5714444Y-17336960D02*
X5704920Y-17317912D01*
X5704920Y-17317912D02*
X5704920Y-17298865D01*
X5704920Y-17298865D02*
X5714444Y-17279817D01*
X5714444Y-17279817D02*
X5733492Y-17270293D01*
X5733492Y-17270293D02*
X5781111Y-17270293D01*
X5781111Y-17270293D02*
X5800158Y-17260770D01*
X5866825Y-17213150D02*
X5943015Y-17213150D01*
X5895396Y-17146484D02*
X5895396Y-17317912D01*
X5895396Y-17317912D02*
X5904920Y-17336960D01*
X5904920Y-17336960D02*
X5923968Y-17346484D01*
X5923968Y-17346484D02*
X5943015Y-17346484D01*
X6085873Y-17336960D02*
X6066825Y-17346484D01*
X6066825Y-17346484D02*
X6028730Y-17346484D01*
X6028730Y-17346484D02*
X6009682Y-17336960D01*
X6009682Y-17336960D02*
X6000158Y-17317912D01*
X6000158Y-17317912D02*
X6000158Y-17241722D01*
X6000158Y-17241722D02*
X6009682Y-17222674D01*
X6009682Y-17222674D02*
X6028730Y-17213150D01*
X6028730Y-17213150D02*
X6066825Y-17213150D01*
X6066825Y-17213150D02*
X6085873Y-17222674D01*
X6085873Y-17222674D02*
X6095396Y-17241722D01*
X6095396Y-17241722D02*
X6095396Y-17260770D01*
X6095396Y-17260770D02*
X6000158Y-17279817D01*
X6266825Y-17346484D02*
X6266825Y-17146484D01*
X6266825Y-17336960D02*
X6247777Y-17346484D01*
X6247777Y-17346484D02*
X6209682Y-17346484D01*
X6209682Y-17346484D02*
X6190634Y-17336960D01*
X6190634Y-17336960D02*
X6181111Y-17327436D01*
X6181111Y-17327436D02*
X6171587Y-17308389D01*
X6171587Y-17308389D02*
X6171587Y-17251246D01*
X6171587Y-17251246D02*
X6181111Y-17232198D01*
X6181111Y-17232198D02*
X6190634Y-17222674D01*
X6190634Y-17222674D02*
X6209682Y-17213150D01*
X6209682Y-17213150D02*
X6247777Y-17213150D01*
X6247777Y-17213150D02*
X6266825Y-17222674D01*
X6343015Y-17422674D02*
X6352539Y-17413150D01*
X6352539Y-17413150D02*
X6371587Y-17384579D01*
X6371587Y-17384579D02*
X6381111Y-17365531D01*
X6381111Y-17365531D02*
X6390634Y-17336960D01*
X6390634Y-17336960D02*
X6400158Y-17289341D01*
X6400158Y-17289341D02*
X6400158Y-17251246D01*
X6400158Y-17251246D02*
X6390634Y-17203627D01*
X6390634Y-17203627D02*
X6381111Y-17175055D01*
X6381111Y-17175055D02*
X6371587Y-17156008D01*
X6371587Y-17156008D02*
X6352539Y-17127436D01*
X6352539Y-17127436D02*
X6343015Y-17117912D01*
M02*
