%TF.GenerationSoftware,KiCad,Pcbnew,(5.99.0-7356-g63088e8bdb)*%
%TF.CreationDate,2021-06-15T08:44:58+08:00*%
%TF.ProjectId,MotherBoard,4d6f7468-6572-4426-9f61-72642e6b6963,rev?*%
%TF.SameCoordinates,Original*%
%TF.FileFunction,Legend,Top*%
%TF.FilePolarity,Positive*%
%FSLAX46Y46*%
G04 Gerber Fmt 4.6, Leading zero omitted, Abs format (unit mm)*
G04 Created by KiCad (PCBNEW (5.99.0-7356-g63088e8bdb)) date 2021-06-15 08:44:58*
%MOMM*%
%LPD*%
G01*
G04 APERTURE LIST*
%ADD10C,0.150000*%
%ADD11C,0.300000*%
%ADD12C,0.120000*%
G04 APERTURE END LIST*
D10*
X26030572Y-110490000D02*
X26030572Y-125730000D01*
X57710000Y-34014000D02*
X57710000Y-69828000D01*
X113633143Y-34036000D02*
X113633143Y-49276000D01*
X104237000Y-33987000D02*
X104237000Y-69674000D01*
X67056000Y-34036000D02*
X67056000Y-49276000D01*
X26090572Y-138780000D02*
X26090572Y-154020000D01*
X66191142Y-56078380D02*
X66191142Y-55078380D01*
X66572095Y-55078380D01*
X66667333Y-55126000D01*
X66714952Y-55173619D01*
X66762571Y-55268857D01*
X66762571Y-55411714D01*
X66714952Y-55506952D01*
X66667333Y-55554571D01*
X66572095Y-55602190D01*
X66191142Y-55602190D01*
X67381619Y-55078380D02*
X67572095Y-55078380D01*
X67667333Y-55126000D01*
X67762571Y-55221238D01*
X67810190Y-55411714D01*
X67810190Y-55745047D01*
X67762571Y-55935523D01*
X67667333Y-56030761D01*
X67572095Y-56078380D01*
X67381619Y-56078380D01*
X67286380Y-56030761D01*
X67191142Y-55935523D01*
X67143523Y-55745047D01*
X67143523Y-55411714D01*
X67191142Y-55221238D01*
X67286380Y-55126000D01*
X67381619Y-55078380D01*
X68810190Y-56078380D02*
X68476857Y-55602190D01*
X68238761Y-56078380D02*
X68238761Y-55078380D01*
X68619714Y-55078380D01*
X68714952Y-55126000D01*
X68762571Y-55173619D01*
X68810190Y-55268857D01*
X68810190Y-55411714D01*
X68762571Y-55506952D01*
X68714952Y-55554571D01*
X68619714Y-55602190D01*
X68238761Y-55602190D01*
X69095904Y-55078380D02*
X69667333Y-55078380D01*
X69381619Y-56078380D02*
X69381619Y-55078380D01*
X70524476Y-56078380D02*
X69953047Y-56078380D01*
X70238761Y-56078380D02*
X70238761Y-55078380D01*
X70143523Y-55221238D01*
X70048285Y-55316476D01*
X69953047Y-55364095D01*
X71286380Y-55554571D02*
X71429238Y-55602190D01*
X71476857Y-55649809D01*
X71524476Y-55745047D01*
X71524476Y-55887904D01*
X71476857Y-55983142D01*
X71429238Y-56030761D01*
X71334000Y-56078380D01*
X70953047Y-56078380D01*
X70953047Y-55078380D01*
X71286380Y-55078380D01*
X71381619Y-55126000D01*
X71429238Y-55173619D01*
X71476857Y-55268857D01*
X71476857Y-55364095D01*
X71429238Y-55459333D01*
X71381619Y-55506952D01*
X71286380Y-55554571D01*
X70953047Y-55554571D01*
X66662323Y-70318380D02*
X66186133Y-70318380D01*
X66138514Y-70794571D01*
X66186133Y-70746952D01*
X66281371Y-70699333D01*
X66519466Y-70699333D01*
X66614704Y-70746952D01*
X66662323Y-70794571D01*
X66709942Y-70889809D01*
X66709942Y-71127904D01*
X66662323Y-71223142D01*
X66614704Y-71270761D01*
X66519466Y-71318380D01*
X66281371Y-71318380D01*
X66186133Y-71270761D01*
X66138514Y-71223142D01*
X66995657Y-70318380D02*
X67328990Y-71318380D01*
X67662323Y-70318380D01*
D11*
X160806095Y-125796476D02*
X165806095Y-125796476D01*
X162234666Y-127463142D01*
X165806095Y-129129809D01*
X160806095Y-129129809D01*
X160806095Y-131510761D02*
X164139428Y-131510761D01*
X165806095Y-131510761D02*
X165568000Y-131272666D01*
X165329904Y-131510761D01*
X165568000Y-131748857D01*
X165806095Y-131510761D01*
X165329904Y-131510761D01*
X164139428Y-133891714D02*
X160806095Y-133891714D01*
X163663238Y-133891714D02*
X163901333Y-134129809D01*
X164139428Y-134606000D01*
X164139428Y-135320285D01*
X163901333Y-135796476D01*
X163425142Y-136034571D01*
X160806095Y-136034571D01*
X160806095Y-138415523D02*
X164139428Y-138415523D01*
X165806095Y-138415523D02*
X165568000Y-138177428D01*
X165329904Y-138415523D01*
X165568000Y-138653619D01*
X165806095Y-138415523D01*
X165329904Y-138415523D01*
X160806095Y-140796476D02*
X164139428Y-140796476D01*
X165806095Y-140796476D02*
X165568000Y-140558380D01*
X165329904Y-140796476D01*
X165568000Y-141034571D01*
X165806095Y-140796476D01*
X165329904Y-140796476D01*
X161044190Y-142939333D02*
X160806095Y-143415523D01*
X160806095Y-144367904D01*
X161044190Y-144844095D01*
X161520380Y-145082190D01*
X161758476Y-145082190D01*
X162234666Y-144844095D01*
X162472761Y-144367904D01*
X162472761Y-143653619D01*
X162710857Y-143177428D01*
X163187047Y-142939333D01*
X163425142Y-142939333D01*
X163901333Y-143177428D01*
X164139428Y-143653619D01*
X164139428Y-144367904D01*
X163901333Y-144844095D01*
X160806095Y-147225047D02*
X165806095Y-147225047D01*
X160806095Y-149367904D02*
X163425142Y-149367904D01*
X163901333Y-149129809D01*
X164139428Y-148653619D01*
X164139428Y-147939333D01*
X163901333Y-147463142D01*
X163663238Y-147225047D01*
X164139428Y-155082190D02*
X160806095Y-156272666D01*
X164139428Y-157463142D01*
X160806095Y-161986952D02*
X160806095Y-159129809D01*
X160806095Y-160558380D02*
X165806095Y-160558380D01*
X165091809Y-160082190D01*
X164615619Y-159606000D01*
X164377523Y-159129809D01*
X161282285Y-164129809D02*
X161044190Y-164367904D01*
X160806095Y-164129809D01*
X161044190Y-163891714D01*
X161282285Y-164129809D01*
X160806095Y-164129809D01*
X165329904Y-166272666D02*
X165568000Y-166510761D01*
X165806095Y-166986952D01*
X165806095Y-168177428D01*
X165568000Y-168653619D01*
X165329904Y-168891714D01*
X164853714Y-169129809D01*
X164377523Y-169129809D01*
X163663238Y-168891714D01*
X160806095Y-166034571D01*
X160806095Y-169129809D01*
X160806095Y-173415523D02*
X163425142Y-173415523D01*
X163901333Y-173177428D01*
X164139428Y-172701238D01*
X164139428Y-171748857D01*
X163901333Y-171272666D01*
X161044190Y-173415523D02*
X160806095Y-172939333D01*
X160806095Y-171748857D01*
X161044190Y-171272666D01*
X161520380Y-171034571D01*
X161996571Y-171034571D01*
X162472761Y-171272666D01*
X162710857Y-171748857D01*
X162710857Y-172939333D01*
X162948952Y-173415523D01*
D10*
X113296723Y-70318380D02*
X112820533Y-70318380D01*
X112772914Y-70794571D01*
X112820533Y-70746952D01*
X112915771Y-70699333D01*
X113153866Y-70699333D01*
X113249104Y-70746952D01*
X113296723Y-70794571D01*
X113344342Y-70889809D01*
X113344342Y-71127904D01*
X113296723Y-71223142D01*
X113249104Y-71270761D01*
X113153866Y-71318380D01*
X112915771Y-71318380D01*
X112820533Y-71270761D01*
X112772914Y-71223142D01*
X113630057Y-70318380D02*
X113963390Y-71318380D01*
X114296723Y-70318380D01*
X25431904Y-155742380D02*
X25431904Y-154742380D01*
X25812857Y-154742380D01*
X25908095Y-154790000D01*
X25955714Y-154837619D01*
X26003333Y-154932857D01*
X26003333Y-155075714D01*
X25955714Y-155170952D01*
X25908095Y-155218571D01*
X25812857Y-155266190D01*
X25431904Y-155266190D01*
X26765238Y-155218571D02*
X26908095Y-155266190D01*
X26955714Y-155313809D01*
X27003333Y-155409047D01*
X27003333Y-155551904D01*
X26955714Y-155647142D01*
X26908095Y-155694761D01*
X26812857Y-155742380D01*
X26431904Y-155742380D01*
X26431904Y-154742380D01*
X26765238Y-154742380D01*
X26860476Y-154790000D01*
X26908095Y-154837619D01*
X26955714Y-154932857D01*
X26955714Y-155028095D01*
X26908095Y-155123333D01*
X26860476Y-155170952D01*
X26765238Y-155218571D01*
X26431904Y-155218571D01*
X27336666Y-154742380D02*
X28003333Y-154742380D01*
X27574761Y-155742380D01*
X83510571Y-173486474D02*
X83843904Y-173486474D01*
X83986761Y-174010283D02*
X83510571Y-174010283D01*
X83510571Y-173010283D01*
X83986761Y-173010283D01*
X84320095Y-173010283D02*
X84986761Y-174010283D01*
X84986761Y-173010283D02*
X84320095Y-174010283D01*
X85224857Y-173010283D02*
X85796285Y-173010283D01*
X85510571Y-174010283D02*
X85510571Y-173010283D01*
X79287619Y-182059045D02*
X79287619Y-181582855D01*
X78811428Y-181535236D01*
X78859047Y-181582855D01*
X78906666Y-181678093D01*
X78906666Y-181916188D01*
X78859047Y-182011426D01*
X78811428Y-182059045D01*
X78716190Y-182106664D01*
X78478095Y-182106664D01*
X78382857Y-182059045D01*
X78335238Y-182011426D01*
X78287619Y-181916188D01*
X78287619Y-181678093D01*
X78335238Y-181582855D01*
X78382857Y-181535236D01*
X79287619Y-182392379D02*
X78287619Y-182725712D01*
X79287619Y-183059045D01*
X112799904Y-33218380D02*
X112799904Y-32218380D01*
X113038000Y-32218380D01*
X113180857Y-32266000D01*
X113276095Y-32361238D01*
X113323714Y-32456476D01*
X113371333Y-32646952D01*
X113371333Y-32789809D01*
X113323714Y-32980285D01*
X113276095Y-33075523D01*
X113180857Y-33170761D01*
X113038000Y-33218380D01*
X112799904Y-33218380D01*
X113990380Y-32218380D02*
X114085619Y-32218380D01*
X114180857Y-32266000D01*
X114228476Y-32313619D01*
X114276095Y-32408857D01*
X114323714Y-32599333D01*
X114323714Y-32837428D01*
X114276095Y-33027904D01*
X114228476Y-33123142D01*
X114180857Y-33170761D01*
X114085619Y-33218380D01*
X113990380Y-33218380D01*
X113895142Y-33170761D01*
X113847523Y-33123142D01*
X113799904Y-33027904D01*
X113752285Y-32837428D01*
X113752285Y-32599333D01*
X113799904Y-32408857D01*
X113847523Y-32313619D01*
X113895142Y-32266000D01*
X113990380Y-32218380D01*
X145782277Y-57475428D02*
X146544182Y-57475428D01*
X146163230Y-57856380D02*
X146163230Y-57094476D01*
X112768285Y-56078380D02*
X112768285Y-55078380D01*
X113149238Y-55078380D01*
X113244476Y-55126000D01*
X113292095Y-55173619D01*
X113339714Y-55268857D01*
X113339714Y-55411714D01*
X113292095Y-55506952D01*
X113244476Y-55554571D01*
X113149238Y-55602190D01*
X112768285Y-55602190D01*
X113958762Y-55078380D02*
X114149238Y-55078380D01*
X114244476Y-55126000D01*
X114339714Y-55221238D01*
X114387333Y-55411714D01*
X114387333Y-55745047D01*
X114339714Y-55935523D01*
X114244476Y-56030761D01*
X114149238Y-56078380D01*
X113958762Y-56078380D01*
X113863523Y-56030761D01*
X113768285Y-55935523D01*
X113720666Y-55745047D01*
X113720666Y-55411714D01*
X113768285Y-55221238D01*
X113863523Y-55126000D01*
X113958762Y-55078380D01*
X115387333Y-56078380D02*
X115054000Y-55602190D01*
X114815904Y-56078380D02*
X114815904Y-55078380D01*
X115196857Y-55078380D01*
X115292095Y-55126000D01*
X115339714Y-55173619D01*
X115387333Y-55268857D01*
X115387333Y-55411714D01*
X115339714Y-55506952D01*
X115292095Y-55554571D01*
X115196857Y-55602190D01*
X114815904Y-55602190D01*
X115673047Y-55078380D02*
X116244476Y-55078380D01*
X115958762Y-56078380D02*
X115958762Y-55078380D01*
X116530190Y-55173619D02*
X116577809Y-55126000D01*
X116673047Y-55078380D01*
X116911143Y-55078380D01*
X117006381Y-55126000D01*
X117054000Y-55173619D01*
X117101619Y-55268857D01*
X117101619Y-55364095D01*
X117054000Y-55506952D01*
X116482571Y-56078380D01*
X117101619Y-56078380D01*
X117863523Y-55554571D02*
X118006381Y-55602190D01*
X118054000Y-55649809D01*
X118101619Y-55745047D01*
X118101619Y-55887904D01*
X118054000Y-55983142D01*
X118006381Y-56030761D01*
X117911143Y-56078380D01*
X117530190Y-56078380D01*
X117530190Y-55078380D01*
X117863523Y-55078380D01*
X117958762Y-55126000D01*
X118006381Y-55173619D01*
X118054000Y-55268857D01*
X118054000Y-55364095D01*
X118006381Y-55459333D01*
X117958762Y-55506952D01*
X117863523Y-55554571D01*
X117530190Y-55554571D01*
X56392523Y-71264666D02*
X56868714Y-71264666D01*
X56297285Y-71550380D02*
X56630619Y-70550380D01*
X56963952Y-71550380D01*
X57821095Y-71550380D02*
X57249666Y-71550380D01*
X57535380Y-71550380D02*
X57535380Y-70550380D01*
X57440142Y-70693238D01*
X57344904Y-70788476D01*
X57249666Y-70836095D01*
X58725857Y-70550380D02*
X58249666Y-70550380D01*
X58202047Y-71026571D01*
X58249666Y-70978952D01*
X58344904Y-70931333D01*
X58583000Y-70931333D01*
X58678238Y-70978952D01*
X58725857Y-71026571D01*
X58773476Y-71121809D01*
X58773476Y-71359904D01*
X58725857Y-71455142D01*
X58678238Y-71502761D01*
X58583000Y-71550380D01*
X58344904Y-71550380D01*
X58249666Y-71502761D01*
X58202047Y-71455142D01*
X66714952Y-62746000D02*
X66619714Y-62698380D01*
X66476857Y-62698380D01*
X66333999Y-62746000D01*
X66238761Y-62841238D01*
X66191142Y-62936476D01*
X66143523Y-63126952D01*
X66143523Y-63269809D01*
X66191142Y-63460285D01*
X66238761Y-63555523D01*
X66333999Y-63650761D01*
X66476857Y-63698380D01*
X66572095Y-63698380D01*
X66714952Y-63650761D01*
X66762571Y-63603142D01*
X66762571Y-63269809D01*
X66572095Y-63269809D01*
X67191142Y-63698380D02*
X67191142Y-62698380D01*
X67762571Y-63698380D01*
X67762571Y-62698380D01*
X68238761Y-63698380D02*
X68238761Y-62698380D01*
X68476857Y-62698380D01*
X68619714Y-62746000D01*
X68714952Y-62841238D01*
X68762571Y-62936476D01*
X68810190Y-63126952D01*
X68810190Y-63269809D01*
X68762571Y-63460285D01*
X68714952Y-63555523D01*
X68619714Y-63650761D01*
X68476857Y-63698380D01*
X68238761Y-63698380D01*
X65405047Y-111323428D02*
X66166952Y-111323428D01*
X65786000Y-111704380D02*
X65786000Y-110942476D01*
X25431904Y-137962380D02*
X25431904Y-136962380D01*
X25812857Y-136962380D01*
X25908095Y-137010000D01*
X25955714Y-137057619D01*
X26003333Y-137152857D01*
X26003333Y-137295714D01*
X25955714Y-137390952D01*
X25908095Y-137438571D01*
X25812857Y-137486190D01*
X25431904Y-137486190D01*
X26765238Y-137438571D02*
X26908095Y-137486190D01*
X26955714Y-137533809D01*
X27003333Y-137629047D01*
X27003333Y-137771904D01*
X26955714Y-137867142D01*
X26908095Y-137914761D01*
X26812857Y-137962380D01*
X26431904Y-137962380D01*
X26431904Y-136962380D01*
X26765238Y-136962380D01*
X26860476Y-137010000D01*
X26908095Y-137057619D01*
X26955714Y-137152857D01*
X26955714Y-137248095D01*
X26908095Y-137343333D01*
X26860476Y-137390952D01*
X26765238Y-137438571D01*
X26431904Y-137438571D01*
X27622380Y-136962380D02*
X27717619Y-136962380D01*
X27812857Y-137010000D01*
X27860476Y-137057619D01*
X27908095Y-137152857D01*
X27955714Y-137343333D01*
X27955714Y-137581428D01*
X27908095Y-137771904D01*
X27860476Y-137867142D01*
X27812857Y-137914761D01*
X27717619Y-137962380D01*
X27622380Y-137962380D01*
X27527142Y-137914761D01*
X27479523Y-137867142D01*
X27431904Y-137771904D01*
X27384285Y-137581428D01*
X27384285Y-137343333D01*
X27431904Y-137152857D01*
X27479523Y-137057619D01*
X27527142Y-137010000D01*
X27622380Y-136962380D01*
X113292095Y-62746000D02*
X113196857Y-62698380D01*
X113054000Y-62698380D01*
X112911142Y-62746000D01*
X112815904Y-62841238D01*
X112768285Y-62936476D01*
X112720666Y-63126952D01*
X112720666Y-63269809D01*
X112768285Y-63460285D01*
X112815904Y-63555523D01*
X112911142Y-63650761D01*
X113054000Y-63698380D01*
X113149238Y-63698380D01*
X113292095Y-63650761D01*
X113339714Y-63603142D01*
X113339714Y-63269809D01*
X113149238Y-63269809D01*
X113768285Y-63698380D02*
X113768285Y-62698380D01*
X114339714Y-63698380D01*
X114339714Y-62698380D01*
X114815904Y-63698380D02*
X114815904Y-62698380D01*
X115054000Y-62698380D01*
X115196857Y-62746000D01*
X115292095Y-62841238D01*
X115339714Y-62936476D01*
X115387333Y-63126952D01*
X115387333Y-63269809D01*
X115339714Y-63460285D01*
X115292095Y-63555523D01*
X115196857Y-63650761D01*
X115054000Y-63698380D01*
X114815904Y-63698380D01*
X56995714Y-32910666D02*
X57471904Y-32910666D01*
X56900476Y-33196380D02*
X57233809Y-32196380D01*
X57567142Y-33196380D01*
X58090952Y-32196380D02*
X58186190Y-32196380D01*
X58281428Y-32244000D01*
X58329047Y-32291619D01*
X58376666Y-32386857D01*
X58424285Y-32577333D01*
X58424285Y-32815428D01*
X58376666Y-33005904D01*
X58329047Y-33101142D01*
X58281428Y-33148761D01*
X58186190Y-33196380D01*
X58090952Y-33196380D01*
X57995714Y-33148761D01*
X57948095Y-33101142D01*
X57900476Y-33005904D01*
X57852857Y-32815428D01*
X57852857Y-32577333D01*
X57900476Y-32386857D01*
X57948095Y-32291619D01*
X57995714Y-32244000D01*
X58090952Y-32196380D01*
X66762571Y-61063142D02*
X66714952Y-61110761D01*
X66572095Y-61158380D01*
X66476857Y-61158380D01*
X66334000Y-61110761D01*
X66238762Y-61015523D01*
X66191143Y-60920285D01*
X66143524Y-60729809D01*
X66143524Y-60586952D01*
X66191143Y-60396476D01*
X66238762Y-60301238D01*
X66334000Y-60206000D01*
X66476857Y-60158380D01*
X66572095Y-60158380D01*
X66714952Y-60206000D01*
X66762571Y-60253619D01*
X67667333Y-61158380D02*
X67191143Y-61158380D01*
X67191143Y-60158380D01*
X68000667Y-61158380D02*
X68000667Y-60158380D01*
X68572095Y-61158380D02*
X68143524Y-60586952D01*
X68572095Y-60158380D02*
X68000667Y-60729809D01*
X112799904Y-50998380D02*
X112799904Y-49998380D01*
X113038000Y-49998380D01*
X113180857Y-50046000D01*
X113276095Y-50141238D01*
X113323714Y-50236476D01*
X113371333Y-50426952D01*
X113371333Y-50569809D01*
X113323714Y-50760285D01*
X113276095Y-50855523D01*
X113180857Y-50950761D01*
X113038000Y-50998380D01*
X112799904Y-50998380D01*
X113704666Y-49998380D02*
X114371333Y-49998380D01*
X113942761Y-50998380D01*
X26014761Y-129897142D02*
X25967142Y-129944761D01*
X25824285Y-129992380D01*
X25729047Y-129992380D01*
X25586190Y-129944761D01*
X25490952Y-129849523D01*
X25443333Y-129754285D01*
X25395714Y-129563809D01*
X25395714Y-129420952D01*
X25443333Y-129230476D01*
X25490952Y-129135238D01*
X25586190Y-129040000D01*
X25729047Y-128992380D01*
X25824285Y-128992380D01*
X25967142Y-129040000D01*
X26014761Y-129087619D01*
X26395714Y-129706666D02*
X26871904Y-129706666D01*
X26300476Y-129992380D02*
X26633809Y-128992380D01*
X26967142Y-129992380D01*
X27824285Y-129992380D02*
X27252857Y-129992380D01*
X27538571Y-129992380D02*
X27538571Y-128992380D01*
X27443333Y-129135238D01*
X27348095Y-129230476D01*
X27252857Y-129278095D01*
X133477047Y-57475428D02*
X134238952Y-57475428D01*
X133858000Y-57856380D02*
X133858000Y-57094476D01*
X25371905Y-109672380D02*
X25371905Y-108672380D01*
X25752857Y-108672380D01*
X25848095Y-108720000D01*
X25895714Y-108767619D01*
X25943333Y-108862857D01*
X25943333Y-109005714D01*
X25895714Y-109100952D01*
X25848095Y-109148571D01*
X25752857Y-109196190D01*
X25371905Y-109196190D01*
X26324286Y-109386666D02*
X26800476Y-109386666D01*
X26229048Y-109672380D02*
X26562381Y-108672380D01*
X26895714Y-109672380D01*
X27419524Y-108672380D02*
X27514762Y-108672380D01*
X27610000Y-108720000D01*
X27657619Y-108767619D01*
X27705238Y-108862857D01*
X27752857Y-109053333D01*
X27752857Y-109291428D01*
X27705238Y-109481904D01*
X27657619Y-109577142D01*
X27610000Y-109624761D01*
X27514762Y-109672380D01*
X27419524Y-109672380D01*
X27324286Y-109624761D01*
X27276667Y-109577142D01*
X27229048Y-109481904D01*
X27181429Y-109291428D01*
X27181429Y-109053333D01*
X27229048Y-108862857D01*
X27276667Y-108767619D01*
X27324286Y-108720000D01*
X27419524Y-108672380D01*
X66222761Y-50998380D02*
X66222761Y-49998380D01*
X66460857Y-49998380D01*
X66603714Y-50046000D01*
X66698952Y-50141238D01*
X66746571Y-50236476D01*
X66794190Y-50426952D01*
X66794190Y-50569809D01*
X66746571Y-50760285D01*
X66698952Y-50855523D01*
X66603714Y-50950761D01*
X66460857Y-50998380D01*
X66222761Y-50998380D01*
X67127523Y-49998380D02*
X67794190Y-49998380D01*
X67365618Y-50998380D01*
X83510571Y-171470283D02*
X83510571Y-170470283D01*
X83986761Y-171470283D02*
X83986761Y-170470283D01*
X84558190Y-171470283D01*
X84558190Y-170470283D01*
X84891523Y-170470283D02*
X85462952Y-170470283D01*
X85177237Y-171470283D02*
X85177237Y-170470283D01*
X113339714Y-53538380D02*
X113006380Y-53062190D01*
X112768285Y-53538380D02*
X112768285Y-52538380D01*
X113149238Y-52538380D01*
X113244476Y-52586000D01*
X113292095Y-52633619D01*
X113339714Y-52728857D01*
X113339714Y-52871714D01*
X113292095Y-52966952D01*
X113244476Y-53014571D01*
X113149238Y-53062190D01*
X112768285Y-53062190D01*
X113673047Y-52538380D02*
X113911142Y-53538380D01*
X114101619Y-52824095D01*
X114292095Y-53538380D01*
X114530190Y-52538380D01*
X26003333Y-160727142D02*
X25955714Y-160774761D01*
X25812857Y-160822380D01*
X25717619Y-160822380D01*
X25574761Y-160774761D01*
X25479523Y-160679523D01*
X25431904Y-160584285D01*
X25384285Y-160393809D01*
X25384285Y-160250952D01*
X25431904Y-160060476D01*
X25479523Y-159965238D01*
X25574761Y-159870000D01*
X25717619Y-159822380D01*
X25812857Y-159822380D01*
X25955714Y-159870000D01*
X26003333Y-159917619D01*
X26765238Y-160298571D02*
X26908095Y-160346190D01*
X26955714Y-160393809D01*
X27003333Y-160489047D01*
X27003333Y-160631904D01*
X26955714Y-160727142D01*
X26908095Y-160774761D01*
X26812857Y-160822380D01*
X26431904Y-160822380D01*
X26431904Y-159822380D01*
X26765238Y-159822380D01*
X26860476Y-159870000D01*
X26908095Y-159917619D01*
X26955714Y-160012857D01*
X26955714Y-160108095D01*
X26908095Y-160203333D01*
X26860476Y-160250952D01*
X26765238Y-160298571D01*
X26431904Y-160298571D01*
X27384285Y-159917619D02*
X27431904Y-159870000D01*
X27527142Y-159822380D01*
X27765238Y-159822380D01*
X27860476Y-159870000D01*
X27908095Y-159917619D01*
X27955714Y-160012857D01*
X27955714Y-160108095D01*
X27908095Y-160250952D01*
X27336666Y-160822380D01*
X27955714Y-160822380D01*
X66700495Y-67826000D02*
X66605257Y-67778380D01*
X66462400Y-67778380D01*
X66319542Y-67826000D01*
X66224304Y-67921238D01*
X66176685Y-68016476D01*
X66129066Y-68206952D01*
X66129066Y-68349809D01*
X66176685Y-68540285D01*
X66224304Y-68635523D01*
X66319542Y-68730761D01*
X66462400Y-68778380D01*
X66557638Y-68778380D01*
X66700495Y-68730761D01*
X66748114Y-68683142D01*
X66748114Y-68349809D01*
X66557638Y-68349809D01*
X67176685Y-68778380D02*
X67176685Y-67778380D01*
X67748114Y-68778380D01*
X67748114Y-67778380D01*
X68224304Y-68778380D02*
X68224304Y-67778380D01*
X68462400Y-67778380D01*
X68605257Y-67826000D01*
X68700495Y-67921238D01*
X68748114Y-68016476D01*
X68795733Y-68206952D01*
X68795733Y-68349809D01*
X68748114Y-68540285D01*
X68700495Y-68635523D01*
X68605257Y-68730761D01*
X68462400Y-68778380D01*
X68224304Y-68778380D01*
X85907619Y-182154283D02*
X86383809Y-181820950D01*
X85907619Y-181582855D02*
X86907619Y-181582855D01*
X86907619Y-181963807D01*
X86860000Y-182059045D01*
X86812380Y-182106664D01*
X86717142Y-182154283D01*
X86574285Y-182154283D01*
X86479047Y-182106664D01*
X86431428Y-182059045D01*
X86383809Y-181963807D01*
X86383809Y-181582855D01*
X85955238Y-182535236D02*
X85907619Y-182678093D01*
X85907619Y-182916188D01*
X85955238Y-183011426D01*
X86002857Y-183059045D01*
X86098095Y-183106664D01*
X86193333Y-183106664D01*
X86288571Y-183059045D01*
X86336190Y-183011426D01*
X86383809Y-182916188D01*
X86431428Y-182725712D01*
X86479047Y-182630474D01*
X86526666Y-182582855D01*
X86621904Y-182535236D01*
X86717142Y-182535236D01*
X86812380Y-182582855D01*
X86860000Y-182630474D01*
X86907619Y-182725712D01*
X86907619Y-182963807D01*
X86860000Y-183106664D01*
X86907619Y-183392379D02*
X86907619Y-183963807D01*
X85907619Y-183678093D02*
X86907619Y-183678093D01*
X83462857Y-182154283D02*
X83415238Y-182106664D01*
X83367619Y-181963807D01*
X83367619Y-181868569D01*
X83415238Y-181725712D01*
X83510476Y-181630474D01*
X83605714Y-181582855D01*
X83796190Y-181535236D01*
X83939047Y-181535236D01*
X84129523Y-181582855D01*
X84224761Y-181630474D01*
X84320000Y-181725712D01*
X84367619Y-181868569D01*
X84367619Y-181963807D01*
X84320000Y-182106664D01*
X84272380Y-182154283D01*
X83367619Y-183059045D02*
X83367619Y-182582855D01*
X84367619Y-182582855D01*
X83367619Y-183392379D02*
X84367619Y-183392379D01*
X83367619Y-183963807D02*
X83939047Y-183535236D01*
X84367619Y-183963807D02*
X83796190Y-183392379D01*
X112741295Y-68778380D02*
X112741295Y-67778380D01*
X112979390Y-67778380D01*
X113122247Y-67826000D01*
X113217485Y-67921238D01*
X113265104Y-68016476D01*
X113312723Y-68206952D01*
X113312723Y-68349809D01*
X113265104Y-68540285D01*
X113217485Y-68635523D01*
X113122247Y-68730761D01*
X112979390Y-68778380D01*
X112741295Y-68778380D01*
X113741295Y-68778380D02*
X113741295Y-67778380D01*
X114074628Y-68492666D01*
X114407961Y-67778380D01*
X114407961Y-68778380D01*
X114836533Y-68492666D02*
X115312723Y-68492666D01*
X114741295Y-68778380D02*
X115074628Y-67778380D01*
X115407961Y-68778380D01*
X116074628Y-68254571D02*
X116217485Y-68302190D01*
X116265104Y-68349809D01*
X116312723Y-68445047D01*
X116312723Y-68587904D01*
X116265104Y-68683142D01*
X116217485Y-68730761D01*
X116122247Y-68778380D01*
X115741295Y-68778380D01*
X115741295Y-67778380D01*
X116074628Y-67778380D01*
X116169866Y-67826000D01*
X116217485Y-67873619D01*
X116265104Y-67968857D01*
X116265104Y-68064095D01*
X116217485Y-68159333D01*
X116169866Y-68206952D01*
X116074628Y-68254571D01*
X115741295Y-68254571D01*
X26014761Y-132437142D02*
X25967142Y-132484761D01*
X25824285Y-132532380D01*
X25729047Y-132532380D01*
X25586190Y-132484761D01*
X25490952Y-132389523D01*
X25443333Y-132294285D01*
X25395714Y-132103809D01*
X25395714Y-131960952D01*
X25443333Y-131770476D01*
X25490952Y-131675238D01*
X25586190Y-131580000D01*
X25729047Y-131532380D01*
X25824285Y-131532380D01*
X25967142Y-131580000D01*
X26014761Y-131627619D01*
X26395714Y-132246666D02*
X26871904Y-132246666D01*
X26300476Y-132532380D02*
X26633809Y-131532380D01*
X26967142Y-132532380D01*
X27252857Y-131627619D02*
X27300476Y-131580000D01*
X27395714Y-131532380D01*
X27633809Y-131532380D01*
X27729047Y-131580000D01*
X27776666Y-131627619D01*
X27824285Y-131722857D01*
X27824285Y-131818095D01*
X27776666Y-131960952D01*
X27205238Y-132532380D01*
X27824285Y-132532380D01*
X113339714Y-61063142D02*
X113292095Y-61110761D01*
X113149238Y-61158380D01*
X113054000Y-61158380D01*
X112911143Y-61110761D01*
X112815905Y-61015523D01*
X112768286Y-60920285D01*
X112720667Y-60729809D01*
X112720667Y-60586952D01*
X112768286Y-60396476D01*
X112815905Y-60301238D01*
X112911143Y-60206000D01*
X113054000Y-60158380D01*
X113149238Y-60158380D01*
X113292095Y-60206000D01*
X113339714Y-60253619D01*
X114244476Y-61158380D02*
X113768286Y-61158380D01*
X113768286Y-60158380D01*
X114577810Y-61158380D02*
X114577810Y-60158380D01*
X115149238Y-61158380D02*
X114720667Y-60586952D01*
X115149238Y-60158380D02*
X114577810Y-60729809D01*
X166330380Y-64817333D02*
X166330380Y-64150666D01*
X167330380Y-64579238D01*
X166949428Y-63769714D02*
X166949428Y-63007809D01*
X167330380Y-62007809D02*
X167330380Y-62579238D01*
X167330380Y-62293523D02*
X166330380Y-62293523D01*
X166473238Y-62388761D01*
X166568476Y-62484000D01*
X166616095Y-62579238D01*
X166425619Y-61626857D02*
X166378000Y-61579238D01*
X166330380Y-61484000D01*
X166330380Y-61245904D01*
X166378000Y-61150666D01*
X166425619Y-61103047D01*
X166520857Y-61055428D01*
X166616095Y-61055428D01*
X166758952Y-61103047D01*
X167330380Y-61674476D01*
X167330380Y-61055428D01*
X166330380Y-60769714D02*
X167330380Y-60436380D01*
X166330380Y-60103047D01*
X25698095Y-103640000D02*
X25602857Y-103592380D01*
X25460000Y-103592380D01*
X25317142Y-103640000D01*
X25221904Y-103735238D01*
X25174285Y-103830476D01*
X25126666Y-104020952D01*
X25126666Y-104163809D01*
X25174285Y-104354285D01*
X25221904Y-104449523D01*
X25317142Y-104544761D01*
X25460000Y-104592380D01*
X25555238Y-104592380D01*
X25698095Y-104544761D01*
X25745714Y-104497142D01*
X25745714Y-104163809D01*
X25555238Y-104163809D01*
X26174285Y-104592380D02*
X26174285Y-103592380D01*
X26745714Y-104592380D01*
X26745714Y-103592380D01*
X27221904Y-104592380D02*
X27221904Y-103592380D01*
X27460000Y-103592380D01*
X27602857Y-103640000D01*
X27698095Y-103735238D01*
X27745714Y-103830476D01*
X27793333Y-104020952D01*
X27793333Y-104163809D01*
X27745714Y-104354285D01*
X27698095Y-104449523D01*
X27602857Y-104544761D01*
X27460000Y-104592380D01*
X27221904Y-104592380D01*
X81780000Y-182106664D02*
X81827619Y-182011426D01*
X81827619Y-181868569D01*
X81780000Y-181725711D01*
X81684761Y-181630473D01*
X81589523Y-181582854D01*
X81399047Y-181535235D01*
X81256190Y-181535235D01*
X81065714Y-181582854D01*
X80970476Y-181630473D01*
X80875238Y-181725711D01*
X80827619Y-181868569D01*
X80827619Y-181963807D01*
X80875238Y-182106664D01*
X80922857Y-182154283D01*
X81256190Y-182154283D01*
X81256190Y-181963807D01*
X80827619Y-182582854D02*
X81827619Y-182582854D01*
X80827619Y-183154283D01*
X81827619Y-183154283D01*
X80827619Y-183630473D02*
X81827619Y-183630473D01*
X81827619Y-183868569D01*
X81780000Y-184011426D01*
X81684761Y-184106664D01*
X81589523Y-184154283D01*
X81399047Y-184201902D01*
X81256190Y-184201902D01*
X81065714Y-184154283D01*
X80970476Y-184106664D01*
X80875238Y-184011426D01*
X80827619Y-183868569D01*
X80827619Y-183630473D01*
X26003333Y-158187142D02*
X25955714Y-158234761D01*
X25812857Y-158282380D01*
X25717619Y-158282380D01*
X25574761Y-158234761D01*
X25479523Y-158139523D01*
X25431904Y-158044285D01*
X25384285Y-157853809D01*
X25384285Y-157710952D01*
X25431904Y-157520476D01*
X25479523Y-157425238D01*
X25574761Y-157330000D01*
X25717619Y-157282380D01*
X25812857Y-157282380D01*
X25955714Y-157330000D01*
X26003333Y-157377619D01*
X26765238Y-157758571D02*
X26908095Y-157806190D01*
X26955714Y-157853809D01*
X27003333Y-157949047D01*
X27003333Y-158091904D01*
X26955714Y-158187142D01*
X26908095Y-158234761D01*
X26812857Y-158282380D01*
X26431904Y-158282380D01*
X26431904Y-157282380D01*
X26765238Y-157282380D01*
X26860476Y-157330000D01*
X26908095Y-157377619D01*
X26955714Y-157472857D01*
X26955714Y-157568095D01*
X26908095Y-157663333D01*
X26860476Y-157710952D01*
X26765238Y-157758571D01*
X26431904Y-157758571D01*
X27955714Y-158282380D02*
X27384285Y-158282380D01*
X27670000Y-158282380D02*
X27670000Y-157282380D01*
X27574761Y-157425238D01*
X27479523Y-157520476D01*
X27384285Y-157568095D01*
X151529047Y-62315428D02*
X152290952Y-62315428D01*
X151910000Y-62696380D02*
X151910000Y-61934476D01*
X25371905Y-127452380D02*
X25371905Y-126452380D01*
X25752857Y-126452380D01*
X25848095Y-126500000D01*
X25895714Y-126547619D01*
X25943333Y-126642857D01*
X25943333Y-126785714D01*
X25895714Y-126880952D01*
X25848095Y-126928571D01*
X25752857Y-126976190D01*
X25371905Y-126976190D01*
X26324286Y-127166666D02*
X26800476Y-127166666D01*
X26229048Y-127452380D02*
X26562381Y-126452380D01*
X26895714Y-127452380D01*
X27133810Y-126452380D02*
X27800476Y-126452380D01*
X27371905Y-127452380D01*
X103522714Y-32883666D02*
X103998904Y-32883666D01*
X103427476Y-33169380D02*
X103760809Y-32169380D01*
X104094142Y-33169380D01*
X104617952Y-32169380D02*
X104713190Y-32169380D01*
X104808428Y-32217000D01*
X104856047Y-32264619D01*
X104903666Y-32359857D01*
X104951285Y-32550333D01*
X104951285Y-32788428D01*
X104903666Y-32978904D01*
X104856047Y-33074142D01*
X104808428Y-33121761D01*
X104713190Y-33169380D01*
X104617952Y-33169380D01*
X104522714Y-33121761D01*
X104475095Y-33074142D01*
X104427476Y-32978904D01*
X104379857Y-32788428D01*
X104379857Y-32550333D01*
X104427476Y-32359857D01*
X104475095Y-32264619D01*
X104522714Y-32217000D01*
X104617952Y-32169380D01*
X129029047Y-63915428D02*
X129790952Y-63915428D01*
X129410000Y-64296380D02*
X129410000Y-63534476D01*
X102919523Y-71110666D02*
X103395714Y-71110666D01*
X102824285Y-71396380D02*
X103157619Y-70396380D01*
X103490952Y-71396380D01*
X104348095Y-71396380D02*
X103776666Y-71396380D01*
X104062380Y-71396380D02*
X104062380Y-70396380D01*
X103967142Y-70539238D01*
X103871904Y-70634476D01*
X103776666Y-70682095D01*
X105252857Y-70396380D02*
X104776666Y-70396380D01*
X104729047Y-70872571D01*
X104776666Y-70824952D01*
X104871904Y-70777333D01*
X105110000Y-70777333D01*
X105205238Y-70824952D01*
X105252857Y-70872571D01*
X105300476Y-70967809D01*
X105300476Y-71205904D01*
X105252857Y-71301142D01*
X105205238Y-71348761D01*
X105110000Y-71396380D01*
X104871904Y-71396380D01*
X104776666Y-71348761D01*
X104729047Y-71301142D01*
X66222761Y-33218380D02*
X66222761Y-32218380D01*
X66460857Y-32218380D01*
X66603714Y-32266000D01*
X66698952Y-32361238D01*
X66746571Y-32456476D01*
X66794190Y-32646952D01*
X66794190Y-32789809D01*
X66746571Y-32980285D01*
X66698952Y-33075523D01*
X66603714Y-33170761D01*
X66460857Y-33218380D01*
X66222761Y-33218380D01*
X67413237Y-32218380D02*
X67508476Y-32218380D01*
X67603714Y-32266000D01*
X67651333Y-32313619D01*
X67698952Y-32408857D01*
X67746571Y-32599333D01*
X67746571Y-32837428D01*
X67698952Y-33027904D01*
X67651333Y-33123142D01*
X67603714Y-33170761D01*
X67508476Y-33218380D01*
X67413237Y-33218380D01*
X67317999Y-33170761D01*
X67270380Y-33123142D01*
X67222761Y-33027904D01*
X67175142Y-32837428D01*
X67175142Y-32599333D01*
X67222761Y-32408857D01*
X67270380Y-32313619D01*
X67317999Y-32266000D01*
X67413237Y-32218380D01*
X66191143Y-58618380D02*
X66191143Y-57618380D01*
X67238762Y-58618380D02*
X66905428Y-58142190D01*
X66667333Y-58618380D02*
X66667333Y-57618380D01*
X67048285Y-57618380D01*
X67143523Y-57666000D01*
X67191143Y-57713619D01*
X67238762Y-57808857D01*
X67238762Y-57951714D01*
X67191143Y-58046952D01*
X67143523Y-58094571D01*
X67048285Y-58142190D01*
X66667333Y-58142190D01*
X68334000Y-58713619D02*
X68238762Y-58666000D01*
X68143523Y-58570761D01*
X68000666Y-58427904D01*
X67905428Y-58380285D01*
X67810190Y-58380285D01*
X67857809Y-58618380D02*
X67762571Y-58570761D01*
X67667333Y-58475523D01*
X67619714Y-58285047D01*
X67619714Y-57951714D01*
X67667333Y-57761238D01*
X67762571Y-57666000D01*
X67857809Y-57618380D01*
X68048285Y-57618380D01*
X68143523Y-57666000D01*
X68238762Y-57761238D01*
X68286381Y-57951714D01*
X68286381Y-58285047D01*
X68238762Y-58475523D01*
X68143523Y-58570761D01*
X68048285Y-58618380D01*
X67857809Y-58618380D01*
X68905428Y-57618380D02*
X69000666Y-57618380D01*
X69095904Y-57666000D01*
X69143523Y-57713619D01*
X69191143Y-57808857D01*
X69238762Y-57999333D01*
X69238762Y-58237428D01*
X69191143Y-58427904D01*
X69143523Y-58523142D01*
X69095904Y-58570761D01*
X69000666Y-58618380D01*
X68905428Y-58618380D01*
X68810190Y-58570761D01*
X68762571Y-58523142D01*
X68714952Y-58427904D01*
X68667333Y-58237428D01*
X68667333Y-57999333D01*
X68714952Y-57808857D01*
X68762571Y-57713619D01*
X68810190Y-57666000D01*
X68905428Y-57618380D01*
X70000666Y-58094571D02*
X70143523Y-58142190D01*
X70191143Y-58189809D01*
X70238762Y-58285047D01*
X70238762Y-58427904D01*
X70191143Y-58523142D01*
X70143523Y-58570761D01*
X70048285Y-58618380D01*
X69667333Y-58618380D01*
X69667333Y-57618380D01*
X70000666Y-57618380D01*
X70095904Y-57666000D01*
X70143523Y-57713619D01*
X70191143Y-57808857D01*
X70191143Y-57904095D01*
X70143523Y-57999333D01*
X70095904Y-58046952D01*
X70000666Y-58094571D01*
X69667333Y-58094571D01*
X66762571Y-53538380D02*
X66429237Y-53062190D01*
X66191142Y-53538380D02*
X66191142Y-52538380D01*
X66572095Y-52538380D01*
X66667333Y-52586000D01*
X66714952Y-52633619D01*
X66762571Y-52728857D01*
X66762571Y-52871714D01*
X66714952Y-52966952D01*
X66667333Y-53014571D01*
X66572095Y-53062190D01*
X66191142Y-53062190D01*
X67095904Y-52538380D02*
X67333999Y-53538380D01*
X67524476Y-52824095D01*
X67714952Y-53538380D01*
X67953047Y-52538380D01*
X26888571Y-101052380D02*
X26412381Y-101052380D01*
X26364762Y-101528571D01*
X26412381Y-101480952D01*
X26507619Y-101433333D01*
X26745714Y-101433333D01*
X26840952Y-101480952D01*
X26888571Y-101528571D01*
X26936190Y-101623809D01*
X26936190Y-101861904D01*
X26888571Y-101957142D01*
X26840952Y-102004761D01*
X26745714Y-102052380D01*
X26507619Y-102052380D01*
X26412381Y-102004761D01*
X26364762Y-101957142D01*
X27221905Y-101052380D02*
X27555238Y-102052380D01*
X27888571Y-101052380D01*
X56261047Y-170759428D02*
X57022952Y-170759428D01*
X56642000Y-171140380D02*
X56642000Y-170378476D01*
X66762571Y-66238380D02*
X66429238Y-65762190D01*
X66191143Y-66238380D02*
X66191143Y-65238380D01*
X66572095Y-65238380D01*
X66667333Y-65286000D01*
X66714952Y-65333619D01*
X66762571Y-65428857D01*
X66762571Y-65571714D01*
X66714952Y-65666952D01*
X66667333Y-65714571D01*
X66572095Y-65762190D01*
X66191143Y-65762190D01*
X67143524Y-66190761D02*
X67286381Y-66238380D01*
X67524476Y-66238380D01*
X67619714Y-66190761D01*
X67667333Y-66143142D01*
X67714952Y-66047904D01*
X67714952Y-65952666D01*
X67667333Y-65857428D01*
X67619714Y-65809809D01*
X67524476Y-65762190D01*
X67334000Y-65714571D01*
X67238762Y-65666952D01*
X67191143Y-65619333D01*
X67143524Y-65524095D01*
X67143524Y-65428857D01*
X67191143Y-65333619D01*
X67238762Y-65286000D01*
X67334000Y-65238380D01*
X67572095Y-65238380D01*
X67714952Y-65286000D01*
X68000667Y-65238380D02*
X68572095Y-65238380D01*
X68286381Y-66238380D02*
X68286381Y-65238380D01*
X113339714Y-66238380D02*
X113006381Y-65762190D01*
X112768286Y-66238380D02*
X112768286Y-65238380D01*
X113149238Y-65238380D01*
X113244476Y-65286000D01*
X113292095Y-65333619D01*
X113339714Y-65428857D01*
X113339714Y-65571714D01*
X113292095Y-65666952D01*
X113244476Y-65714571D01*
X113149238Y-65762190D01*
X112768286Y-65762190D01*
X113720667Y-66190761D02*
X113863524Y-66238380D01*
X114101619Y-66238380D01*
X114196857Y-66190761D01*
X114244476Y-66143142D01*
X114292095Y-66047904D01*
X114292095Y-65952666D01*
X114244476Y-65857428D01*
X114196857Y-65809809D01*
X114101619Y-65762190D01*
X113911143Y-65714571D01*
X113815905Y-65666952D01*
X113768286Y-65619333D01*
X113720667Y-65524095D01*
X113720667Y-65428857D01*
X113768286Y-65333619D01*
X113815905Y-65286000D01*
X113911143Y-65238380D01*
X114149238Y-65238380D01*
X114292095Y-65286000D01*
X114577810Y-65238380D02*
X115149238Y-65238380D01*
X114863524Y-66238380D02*
X114863524Y-65238380D01*
X112801757Y-58475665D02*
X112801757Y-57475665D01*
X113373186Y-58475665D01*
X113373186Y-57475665D01*
X113849376Y-58475665D02*
X113849376Y-57475665D01*
X114182710Y-58189951D01*
X114516043Y-57475665D01*
X114516043Y-58475665D01*
X114992234Y-58475665D02*
X114992234Y-57475665D01*
X115801757Y-57951856D02*
X115944615Y-57999475D01*
X115992234Y-58047094D01*
X116039853Y-58142332D01*
X116039853Y-58285189D01*
X115992234Y-58380427D01*
X115944615Y-58428046D01*
X115849376Y-58475665D01*
X115468424Y-58475665D01*
X115468424Y-57475665D01*
X115801757Y-57475665D01*
X115896996Y-57523285D01*
X115944615Y-57570904D01*
X115992234Y-57666142D01*
X115992234Y-57761380D01*
X115944615Y-57856618D01*
X115896996Y-57904237D01*
X115801757Y-57951856D01*
X115468424Y-57951856D01*
%TO.C,U10*%
X94392904Y-53891380D02*
X94392904Y-54700904D01*
X94440523Y-54796142D01*
X94488142Y-54843761D01*
X94583380Y-54891380D01*
X94773857Y-54891380D01*
X94869095Y-54843761D01*
X94916714Y-54796142D01*
X94964333Y-54700904D01*
X94964333Y-53891380D01*
X95964333Y-54891380D02*
X95392904Y-54891380D01*
X95678619Y-54891380D02*
X95678619Y-53891380D01*
X95583380Y-54034238D01*
X95488142Y-54129476D01*
X95392904Y-54177095D01*
X96583380Y-53891380D02*
X96678619Y-53891380D01*
X96773857Y-53939000D01*
X96821476Y-53986619D01*
X96869095Y-54081857D01*
X96916714Y-54272333D01*
X96916714Y-54510428D01*
X96869095Y-54700904D01*
X96821476Y-54796142D01*
X96773857Y-54843761D01*
X96678619Y-54891380D01*
X96583380Y-54891380D01*
X96488142Y-54843761D01*
X96440523Y-54796142D01*
X96392904Y-54700904D01*
X96345285Y-54510428D01*
X96345285Y-54272333D01*
X96392904Y-54081857D01*
X96440523Y-53986619D01*
X96488142Y-53939000D01*
X96583380Y-53891380D01*
%TO.C,U3*%
X49783095Y-111422380D02*
X49783095Y-112231904D01*
X49830714Y-112327142D01*
X49878333Y-112374761D01*
X49973571Y-112422380D01*
X50164047Y-112422380D01*
X50259285Y-112374761D01*
X50306904Y-112327142D01*
X50354523Y-112231904D01*
X50354523Y-111422380D01*
X50735476Y-111422380D02*
X51354523Y-111422380D01*
X51021190Y-111803333D01*
X51164047Y-111803333D01*
X51259285Y-111850952D01*
X51306904Y-111898571D01*
X51354523Y-111993809D01*
X51354523Y-112231904D01*
X51306904Y-112327142D01*
X51259285Y-112374761D01*
X51164047Y-112422380D01*
X50878333Y-112422380D01*
X50783095Y-112374761D01*
X50735476Y-112327142D01*
%TO.C,U14*%
X48250679Y-25951380D02*
X48250679Y-26760904D01*
X48298298Y-26856142D01*
X48345917Y-26903761D01*
X48441155Y-26951380D01*
X48631632Y-26951380D01*
X48726870Y-26903761D01*
X48774489Y-26856142D01*
X48822108Y-26760904D01*
X48822108Y-25951380D01*
X49822108Y-26951380D02*
X49250679Y-26951380D01*
X49536394Y-26951380D02*
X49536394Y-25951380D01*
X49441155Y-26094238D01*
X49345917Y-26189476D01*
X49250679Y-26237095D01*
X50679251Y-26284714D02*
X50679251Y-26951380D01*
X50441155Y-25903761D02*
X50203060Y-26618047D01*
X50822108Y-26618047D01*
%TO.C,U4*%
X108458095Y-103802380D02*
X108458095Y-104611904D01*
X108505714Y-104707142D01*
X108553333Y-104754761D01*
X108648571Y-104802380D01*
X108839047Y-104802380D01*
X108934285Y-104754761D01*
X108981904Y-104707142D01*
X109029523Y-104611904D01*
X109029523Y-103802380D01*
X109934285Y-104135714D02*
X109934285Y-104802380D01*
X109696190Y-103754761D02*
X109458095Y-104469047D01*
X110077142Y-104469047D01*
%TO.C,X1*%
X65230476Y-166660283D02*
X65897142Y-167660283D01*
X65897142Y-166660283D02*
X65230476Y-167660283D01*
X66801904Y-167660283D02*
X66230476Y-167660283D01*
X66516190Y-167660283D02*
X66516190Y-166660283D01*
X66420952Y-166803141D01*
X66325714Y-166898379D01*
X66230476Y-166945998D01*
%TO.C,C2*%
X130465142Y-54284666D02*
X130512761Y-54332285D01*
X130560380Y-54475142D01*
X130560380Y-54570380D01*
X130512761Y-54713238D01*
X130417523Y-54808476D01*
X130322285Y-54856095D01*
X130131809Y-54903714D01*
X129988952Y-54903714D01*
X129798476Y-54856095D01*
X129703238Y-54808476D01*
X129608000Y-54713238D01*
X129560380Y-54570380D01*
X129560380Y-54475142D01*
X129608000Y-54332285D01*
X129655619Y-54284666D01*
X129655619Y-53903714D02*
X129608000Y-53856095D01*
X129560380Y-53760857D01*
X129560380Y-53522761D01*
X129608000Y-53427523D01*
X129655619Y-53379904D01*
X129750857Y-53332285D01*
X129846095Y-53332285D01*
X129988952Y-53379904D01*
X130560380Y-53951333D01*
X130560380Y-53332285D01*
%TO.C,C1*%
X142770372Y-54248846D02*
X142817991Y-54296465D01*
X142865610Y-54439322D01*
X142865610Y-54534560D01*
X142817991Y-54677418D01*
X142722753Y-54772656D01*
X142627515Y-54820275D01*
X142437039Y-54867894D01*
X142294182Y-54867894D01*
X142103706Y-54820275D01*
X142008468Y-54772656D01*
X141913230Y-54677418D01*
X141865610Y-54534560D01*
X141865610Y-54439322D01*
X141913230Y-54296465D01*
X141960849Y-54248846D01*
X142865610Y-53296465D02*
X142865610Y-53867894D01*
X142865610Y-53582180D02*
X141865610Y-53582180D01*
X142008468Y-53677418D01*
X142103706Y-53772656D01*
X142151325Y-53867894D01*
%TO.C,F2*%
X141438571Y-65177333D02*
X141438571Y-65510666D01*
X141962380Y-65510666D02*
X140962380Y-65510666D01*
X140962380Y-65034476D01*
X141057619Y-64701142D02*
X141010000Y-64653523D01*
X140962380Y-64558285D01*
X140962380Y-64320190D01*
X141010000Y-64224952D01*
X141057619Y-64177333D01*
X141152857Y-64129714D01*
X141248095Y-64129714D01*
X141390952Y-64177333D01*
X141962380Y-64748761D01*
X141962380Y-64129714D01*
%TO.C,J11*%
X89734000Y-128214380D02*
X89734000Y-127214380D01*
X89972095Y-127214380D01*
X90114952Y-127262000D01*
X90210190Y-127357238D01*
X90257809Y-127452476D01*
X90305428Y-127642952D01*
X90305428Y-127785809D01*
X90257809Y-127976285D01*
X90210190Y-128071523D01*
X90114952Y-128166761D01*
X89972095Y-128214380D01*
X89734000Y-128214380D01*
X90734000Y-128214380D02*
X90734000Y-127214380D01*
X91067333Y-127928666D01*
X91400666Y-127214380D01*
X91400666Y-128214380D01*
X91829238Y-127928666D02*
X92305428Y-127928666D01*
X91734000Y-128214380D02*
X92067333Y-127214380D01*
X92400666Y-128214380D01*
X92495904Y-128309619D02*
X93257809Y-128309619D01*
X93495904Y-128214380D02*
X93495904Y-127214380D01*
X93876857Y-127214380D01*
X93972095Y-127262000D01*
X94019714Y-127309619D01*
X94067333Y-127404857D01*
X94067333Y-127547714D01*
X94019714Y-127642952D01*
X93972095Y-127690571D01*
X93876857Y-127738190D01*
X93495904Y-127738190D01*
X94495904Y-127214380D02*
X94495904Y-128023904D01*
X94543523Y-128119142D01*
X94591142Y-128166761D01*
X94686380Y-128214380D01*
X94876857Y-128214380D01*
X94972095Y-128166761D01*
X95019714Y-128119142D01*
X95067333Y-128023904D01*
X95067333Y-127214380D01*
X96019714Y-128214380D02*
X95543523Y-128214380D01*
X95543523Y-127214380D01*
X96829238Y-128214380D02*
X96353047Y-128214380D01*
X96353047Y-127214380D01*
X97162571Y-127214380D02*
X97162571Y-128023904D01*
X97210190Y-128119142D01*
X97257809Y-128166761D01*
X97353047Y-128214380D01*
X97543523Y-128214380D01*
X97638761Y-128166761D01*
X97686380Y-128119142D01*
X97734000Y-128023904D01*
X97734000Y-127214380D01*
X98210190Y-128214380D02*
X98210190Y-127214380D01*
X98591142Y-127214380D01*
X98686380Y-127262000D01*
X98734000Y-127309619D01*
X98781619Y-127404857D01*
X98781619Y-127547714D01*
X98734000Y-127642952D01*
X98686380Y-127690571D01*
X98591142Y-127738190D01*
X98210190Y-127738190D01*
%TO.C,R4*%
X135191117Y-74387124D02*
X134714927Y-74720458D01*
X135191117Y-74958553D02*
X134191117Y-74958553D01*
X134191117Y-74577600D01*
X134238737Y-74482362D01*
X134286356Y-74434743D01*
X134381594Y-74387124D01*
X134524451Y-74387124D01*
X134619689Y-74434743D01*
X134667308Y-74482362D01*
X134714927Y-74577600D01*
X134714927Y-74958553D01*
X134524451Y-73529981D02*
X135191117Y-73529981D01*
X134143498Y-73768077D02*
X134857784Y-74006172D01*
X134857784Y-73387124D01*
%TO.C,U13*%
X48313033Y-53769032D02*
X48313033Y-54578556D01*
X48360652Y-54673794D01*
X48408271Y-54721413D01*
X48503509Y-54769032D01*
X48693986Y-54769032D01*
X48789224Y-54721413D01*
X48836843Y-54673794D01*
X48884462Y-54578556D01*
X48884462Y-53769032D01*
X49884462Y-54769032D02*
X49313033Y-54769032D01*
X49598748Y-54769032D02*
X49598748Y-53769032D01*
X49503509Y-53911890D01*
X49408271Y-54007128D01*
X49313033Y-54054747D01*
X50217795Y-53769032D02*
X50836843Y-53769032D01*
X50503509Y-54149985D01*
X50646367Y-54149985D01*
X50741605Y-54197604D01*
X50789224Y-54245223D01*
X50836843Y-54340461D01*
X50836843Y-54578556D01*
X50789224Y-54673794D01*
X50741605Y-54721413D01*
X50646367Y-54769032D01*
X50360652Y-54769032D01*
X50265414Y-54721413D01*
X50217795Y-54673794D01*
%TO.C,FB2*%
X141538571Y-78877333D02*
X141538571Y-79210666D01*
X142062380Y-79210666D02*
X141062380Y-79210666D01*
X141062380Y-78734476D01*
X141538571Y-78020190D02*
X141586190Y-77877333D01*
X141633809Y-77829714D01*
X141729047Y-77782095D01*
X141871904Y-77782095D01*
X141967142Y-77829714D01*
X142014761Y-77877333D01*
X142062380Y-77972571D01*
X142062380Y-78353523D01*
X141062380Y-78353523D01*
X141062380Y-78020190D01*
X141110000Y-77924952D01*
X141157619Y-77877333D01*
X141252857Y-77829714D01*
X141348095Y-77829714D01*
X141443333Y-77877333D01*
X141490952Y-77924952D01*
X141538571Y-78020190D01*
X141538571Y-78353523D01*
X141157619Y-77401142D02*
X141110000Y-77353523D01*
X141062380Y-77258285D01*
X141062380Y-77020190D01*
X141110000Y-76924952D01*
X141157619Y-76877333D01*
X141252857Y-76829714D01*
X141348095Y-76829714D01*
X141490952Y-76877333D01*
X142062380Y-77448761D01*
X142062380Y-76829714D01*
%TO.C,SW2*%
X158998761Y-78105333D02*
X159046380Y-77962476D01*
X159046380Y-77724380D01*
X158998761Y-77629142D01*
X158951142Y-77581523D01*
X158855904Y-77533904D01*
X158760666Y-77533904D01*
X158665428Y-77581523D01*
X158617809Y-77629142D01*
X158570190Y-77724380D01*
X158522571Y-77914857D01*
X158474952Y-78010095D01*
X158427333Y-78057714D01*
X158332095Y-78105333D01*
X158236857Y-78105333D01*
X158141619Y-78057714D01*
X158094000Y-78010095D01*
X158046380Y-77914857D01*
X158046380Y-77676761D01*
X158094000Y-77533904D01*
X158046380Y-77200571D02*
X159046380Y-76962476D01*
X158332095Y-76772000D01*
X159046380Y-76581523D01*
X158046380Y-76343428D01*
X158141619Y-76010095D02*
X158094000Y-75962476D01*
X158046380Y-75867238D01*
X158046380Y-75629142D01*
X158094000Y-75533904D01*
X158141619Y-75486285D01*
X158236857Y-75438666D01*
X158332095Y-75438666D01*
X158474952Y-75486285D01*
X159046380Y-76057714D01*
X159046380Y-75438666D01*
%TO.C,J12*%
X120634666Y-58618380D02*
X120634666Y-57618380D01*
X121206095Y-58618380D01*
X121206095Y-57618380D01*
X121682285Y-58618380D02*
X121682285Y-57618380D01*
X122015619Y-58332666D01*
X122348952Y-57618380D01*
X122348952Y-58618380D01*
X122825142Y-58618380D02*
X122825142Y-57618380D01*
X123063238Y-58713619D02*
X123825142Y-58713619D01*
X124063238Y-58618380D02*
X124063238Y-57618380D01*
X124444190Y-57618380D01*
X124539428Y-57666000D01*
X124587047Y-57713619D01*
X124634666Y-57808857D01*
X124634666Y-57951714D01*
X124587047Y-58046952D01*
X124539428Y-58094571D01*
X124444190Y-58142190D01*
X124063238Y-58142190D01*
X125063238Y-57618380D02*
X125063238Y-58427904D01*
X125110857Y-58523142D01*
X125158476Y-58570761D01*
X125253714Y-58618380D01*
X125444190Y-58618380D01*
X125539428Y-58570761D01*
X125587047Y-58523142D01*
X125634666Y-58427904D01*
X125634666Y-57618380D01*
X126587047Y-58618380D02*
X126110857Y-58618380D01*
X126110857Y-57618380D01*
X127396571Y-58618380D02*
X126920380Y-58618380D01*
X126920380Y-57618380D01*
X127729904Y-57618380D02*
X127729904Y-58427904D01*
X127777523Y-58523142D01*
X127825142Y-58570761D01*
X127920380Y-58618380D01*
X128110857Y-58618380D01*
X128206095Y-58570761D01*
X128253714Y-58523142D01*
X128301333Y-58427904D01*
X128301333Y-57618380D01*
X128777523Y-58618380D02*
X128777523Y-57618380D01*
X129158476Y-57618380D01*
X129253714Y-57666000D01*
X129301333Y-57713619D01*
X129348952Y-57808857D01*
X129348952Y-57951714D01*
X129301333Y-58046952D01*
X129253714Y-58094571D01*
X129158476Y-58142190D01*
X128777523Y-58142190D01*
%TO.C,R5*%
X85288380Y-119546666D02*
X84812190Y-119880000D01*
X85288380Y-120118095D02*
X84288380Y-120118095D01*
X84288380Y-119737142D01*
X84336000Y-119641904D01*
X84383619Y-119594285D01*
X84478857Y-119546666D01*
X84621714Y-119546666D01*
X84716952Y-119594285D01*
X84764571Y-119641904D01*
X84812190Y-119737142D01*
X84812190Y-120118095D01*
X84288380Y-118641904D02*
X84288380Y-119118095D01*
X84764571Y-119165714D01*
X84716952Y-119118095D01*
X84669333Y-119022857D01*
X84669333Y-118784761D01*
X84716952Y-118689523D01*
X84764571Y-118641904D01*
X84859809Y-118594285D01*
X85097904Y-118594285D01*
X85193142Y-118641904D01*
X85240761Y-118689523D01*
X85288380Y-118784761D01*
X85288380Y-119022857D01*
X85240761Y-119118095D01*
X85193142Y-119165714D01*
%TO.C,U11*%
X119665904Y-27221380D02*
X119665904Y-28030904D01*
X119713523Y-28126142D01*
X119761142Y-28173761D01*
X119856380Y-28221380D01*
X120046857Y-28221380D01*
X120142095Y-28173761D01*
X120189714Y-28126142D01*
X120237333Y-28030904D01*
X120237333Y-27221380D01*
X121237333Y-28221380D02*
X120665904Y-28221380D01*
X120951619Y-28221380D02*
X120951619Y-27221380D01*
X120856380Y-27364238D01*
X120761142Y-27459476D01*
X120665904Y-27507095D01*
X122189714Y-28221380D02*
X121618285Y-28221380D01*
X121904000Y-28221380D02*
X121904000Y-27221380D01*
X121808761Y-27364238D01*
X121713523Y-27459476D01*
X121618285Y-27507095D01*
%TO.C,J3*%
X108506666Y-29326380D02*
X108506666Y-30040666D01*
X108459047Y-30183523D01*
X108363809Y-30278761D01*
X108220952Y-30326380D01*
X108125714Y-30326380D01*
X108887619Y-29326380D02*
X109506666Y-29326380D01*
X109173333Y-29707333D01*
X109316190Y-29707333D01*
X109411428Y-29754952D01*
X109459047Y-29802571D01*
X109506666Y-29897809D01*
X109506666Y-30135904D01*
X109459047Y-30231142D01*
X109411428Y-30278761D01*
X109316190Y-30326380D01*
X109030476Y-30326380D01*
X108935238Y-30278761D01*
X108887619Y-30231142D01*
%TO.C,SW1*%
X163316761Y-92737333D02*
X163364380Y-92594476D01*
X163364380Y-92356380D01*
X163316761Y-92261142D01*
X163269142Y-92213523D01*
X163173904Y-92165904D01*
X163078666Y-92165904D01*
X162983428Y-92213523D01*
X162935809Y-92261142D01*
X162888190Y-92356380D01*
X162840571Y-92546857D01*
X162792952Y-92642095D01*
X162745333Y-92689714D01*
X162650095Y-92737333D01*
X162554857Y-92737333D01*
X162459619Y-92689714D01*
X162412000Y-92642095D01*
X162364380Y-92546857D01*
X162364380Y-92308761D01*
X162412000Y-92165904D01*
X162364380Y-91832571D02*
X163364380Y-91594476D01*
X162650095Y-91404000D01*
X163364380Y-91213523D01*
X162364380Y-90975428D01*
X163364380Y-90070666D02*
X163364380Y-90642095D01*
X163364380Y-90356380D02*
X162364380Y-90356380D01*
X162507238Y-90451619D01*
X162602476Y-90546857D01*
X162650095Y-90642095D01*
D11*
%TO.C,XiaoNiuNiu*%
X152726571Y-119271142D02*
X151202571Y-120287142D01*
X152726571Y-120287142D02*
X151202571Y-119271142D01*
X151202571Y-120867714D02*
X152218571Y-120867714D01*
X152726571Y-120867714D02*
X152654000Y-120795142D01*
X152581428Y-120867714D01*
X152654000Y-120940285D01*
X152726571Y-120867714D01*
X152581428Y-120867714D01*
X151202571Y-122246571D02*
X152000857Y-122246571D01*
X152146000Y-122174000D01*
X152218571Y-122028857D01*
X152218571Y-121738571D01*
X152146000Y-121593428D01*
X151275142Y-122246571D02*
X151202571Y-122101428D01*
X151202571Y-121738571D01*
X151275142Y-121593428D01*
X151420285Y-121520857D01*
X151565428Y-121520857D01*
X151710571Y-121593428D01*
X151783142Y-121738571D01*
X151783142Y-122101428D01*
X151855714Y-122246571D01*
X151202571Y-123190000D02*
X151275142Y-123044857D01*
X151347714Y-122972285D01*
X151492857Y-122899714D01*
X151928285Y-122899714D01*
X152073428Y-122972285D01*
X152146000Y-123044857D01*
X152218571Y-123190000D01*
X152218571Y-123407714D01*
X152146000Y-123552857D01*
X152073428Y-123625428D01*
X151928285Y-123698000D01*
X151492857Y-123698000D01*
X151347714Y-123625428D01*
X151275142Y-123552857D01*
X151202571Y-123407714D01*
X151202571Y-123190000D01*
X151202571Y-124351142D02*
X152726571Y-124351142D01*
X151202571Y-125222000D01*
X152726571Y-125222000D01*
X151202571Y-125947714D02*
X152218571Y-125947714D01*
X152726571Y-125947714D02*
X152654000Y-125875142D01*
X152581428Y-125947714D01*
X152654000Y-126020285D01*
X152726571Y-125947714D01*
X152581428Y-125947714D01*
X152218571Y-127326571D02*
X151202571Y-127326571D01*
X152218571Y-126673428D02*
X151420285Y-126673428D01*
X151275142Y-126746000D01*
X151202571Y-126891142D01*
X151202571Y-127108857D01*
X151275142Y-127254000D01*
X151347714Y-127326571D01*
X151202571Y-128052285D02*
X152726571Y-128052285D01*
X151202571Y-128923142D01*
X152726571Y-128923142D01*
X151202571Y-129648857D02*
X152218571Y-129648857D01*
X152726571Y-129648857D02*
X152654000Y-129576285D01*
X152581428Y-129648857D01*
X152654000Y-129721428D01*
X152726571Y-129648857D01*
X152581428Y-129648857D01*
X152218571Y-131027714D02*
X151202571Y-131027714D01*
X152218571Y-130374571D02*
X151420285Y-130374571D01*
X151275142Y-130447142D01*
X151202571Y-130592285D01*
X151202571Y-130810000D01*
X151275142Y-130955142D01*
X151347714Y-131027714D01*
D10*
%TO.C,U8*%
X118872095Y-146982380D02*
X118872095Y-147791904D01*
X118919714Y-147887142D01*
X118967333Y-147934761D01*
X119062571Y-147982380D01*
X119253047Y-147982380D01*
X119348285Y-147934761D01*
X119395904Y-147887142D01*
X119443523Y-147791904D01*
X119443523Y-146982380D01*
X120062571Y-147410952D02*
X119967333Y-147363333D01*
X119919714Y-147315714D01*
X119872095Y-147220476D01*
X119872095Y-147172857D01*
X119919714Y-147077619D01*
X119967333Y-147030000D01*
X120062571Y-146982380D01*
X120253047Y-146982380D01*
X120348285Y-147030000D01*
X120395904Y-147077619D01*
X120443523Y-147172857D01*
X120443523Y-147220476D01*
X120395904Y-147315714D01*
X120348285Y-147363333D01*
X120253047Y-147410952D01*
X120062571Y-147410952D01*
X119967333Y-147458571D01*
X119919714Y-147506190D01*
X119872095Y-147601428D01*
X119872095Y-147791904D01*
X119919714Y-147887142D01*
X119967333Y-147934761D01*
X120062571Y-147982380D01*
X120253047Y-147982380D01*
X120348285Y-147934761D01*
X120395904Y-147887142D01*
X120443523Y-147791904D01*
X120443523Y-147601428D01*
X120395904Y-147506190D01*
X120348285Y-147458571D01*
X120253047Y-147410952D01*
%TO.C,U2*%
X134112095Y-94572380D02*
X134112095Y-95381904D01*
X134159714Y-95477142D01*
X134207333Y-95524761D01*
X134302571Y-95572380D01*
X134493047Y-95572380D01*
X134588285Y-95524761D01*
X134635904Y-95477142D01*
X134683523Y-95381904D01*
X134683523Y-94572380D01*
X135112095Y-94667619D02*
X135159714Y-94620000D01*
X135254952Y-94572380D01*
X135493047Y-94572380D01*
X135588285Y-94620000D01*
X135635904Y-94667619D01*
X135683523Y-94762857D01*
X135683523Y-94858095D01*
X135635904Y-95000952D01*
X135064476Y-95572380D01*
X135683523Y-95572380D01*
%TO.C,C6*%
X151995142Y-105576666D02*
X152042761Y-105624285D01*
X152090380Y-105767142D01*
X152090380Y-105862380D01*
X152042761Y-106005238D01*
X151947523Y-106100476D01*
X151852285Y-106148095D01*
X151661809Y-106195714D01*
X151518952Y-106195714D01*
X151328476Y-106148095D01*
X151233238Y-106100476D01*
X151138000Y-106005238D01*
X151090380Y-105862380D01*
X151090380Y-105767142D01*
X151138000Y-105624285D01*
X151185619Y-105576666D01*
X151090380Y-104719523D02*
X151090380Y-104910000D01*
X151138000Y-105005238D01*
X151185619Y-105052857D01*
X151328476Y-105148095D01*
X151518952Y-105195714D01*
X151899904Y-105195714D01*
X151995142Y-105148095D01*
X152042761Y-105100476D01*
X152090380Y-105005238D01*
X152090380Y-104814761D01*
X152042761Y-104719523D01*
X151995142Y-104671904D01*
X151899904Y-104624285D01*
X151661809Y-104624285D01*
X151566571Y-104671904D01*
X151518952Y-104719523D01*
X151471333Y-104814761D01*
X151471333Y-105005238D01*
X151518952Y-105100476D01*
X151566571Y-105148095D01*
X151661809Y-105195714D01*
%TO.C,C5*%
X38169142Y-163976666D02*
X38216761Y-164024285D01*
X38264380Y-164167142D01*
X38264380Y-164262380D01*
X38216761Y-164405238D01*
X38121523Y-164500476D01*
X38026285Y-164548095D01*
X37835809Y-164595714D01*
X37692952Y-164595714D01*
X37502476Y-164548095D01*
X37407238Y-164500476D01*
X37312000Y-164405238D01*
X37264380Y-164262380D01*
X37264380Y-164167142D01*
X37312000Y-164024285D01*
X37359619Y-163976666D01*
X37264380Y-163071904D02*
X37264380Y-163548095D01*
X37740571Y-163595714D01*
X37692952Y-163548095D01*
X37645333Y-163452857D01*
X37645333Y-163214761D01*
X37692952Y-163119523D01*
X37740571Y-163071904D01*
X37835809Y-163024285D01*
X38073904Y-163024285D01*
X38169142Y-163071904D01*
X38216761Y-163119523D01*
X38264380Y-163214761D01*
X38264380Y-163452857D01*
X38216761Y-163548095D01*
X38169142Y-163595714D01*
%TO.C,U1*%
X139059912Y-27500997D02*
X139059912Y-28310521D01*
X139107531Y-28405759D01*
X139155150Y-28453378D01*
X139250388Y-28500997D01*
X139440864Y-28500997D01*
X139536102Y-28453378D01*
X139583721Y-28405759D01*
X139631340Y-28310521D01*
X139631340Y-27500997D01*
X140631340Y-28500997D02*
X140059912Y-28500997D01*
X140345626Y-28500997D02*
X140345626Y-27500997D01*
X140250388Y-27643855D01*
X140155150Y-27739093D01*
X140059912Y-27786712D01*
%TO.C,J4*%
X61806666Y-29326380D02*
X61806666Y-30040666D01*
X61759047Y-30183523D01*
X61663809Y-30278761D01*
X61520952Y-30326380D01*
X61425714Y-30326380D01*
X62711428Y-29659714D02*
X62711428Y-30326380D01*
X62473333Y-29278761D02*
X62235238Y-29993047D01*
X62854285Y-29993047D01*
%TO.C,FB1*%
X147538571Y-78777333D02*
X147538571Y-79110666D01*
X148062380Y-79110666D02*
X147062380Y-79110666D01*
X147062380Y-78634476D01*
X147538571Y-77920190D02*
X147586190Y-77777333D01*
X147633809Y-77729714D01*
X147729047Y-77682095D01*
X147871904Y-77682095D01*
X147967142Y-77729714D01*
X148014761Y-77777333D01*
X148062380Y-77872571D01*
X148062380Y-78253523D01*
X147062380Y-78253523D01*
X147062380Y-77920190D01*
X147110000Y-77824952D01*
X147157619Y-77777333D01*
X147252857Y-77729714D01*
X147348095Y-77729714D01*
X147443333Y-77777333D01*
X147490952Y-77824952D01*
X147538571Y-77920190D01*
X147538571Y-78253523D01*
X148062380Y-76729714D02*
X148062380Y-77301142D01*
X148062380Y-77015428D02*
X147062380Y-77015428D01*
X147205238Y-77110666D01*
X147300476Y-77205904D01*
X147348095Y-77301142D01*
%TO.C,C8*%
X83588593Y-111333989D02*
X83540974Y-111381608D01*
X83398117Y-111429227D01*
X83302879Y-111429227D01*
X83160021Y-111381608D01*
X83064783Y-111286370D01*
X83017164Y-111191132D01*
X82969545Y-111000656D01*
X82969545Y-110857799D01*
X83017164Y-110667323D01*
X83064783Y-110572085D01*
X83160021Y-110476847D01*
X83302879Y-110429227D01*
X83398117Y-110429227D01*
X83540974Y-110476847D01*
X83588593Y-110524466D01*
X84160021Y-110857799D02*
X84064783Y-110810180D01*
X84017164Y-110762561D01*
X83969545Y-110667323D01*
X83969545Y-110619704D01*
X84017164Y-110524466D01*
X84064783Y-110476847D01*
X84160021Y-110429227D01*
X84350498Y-110429227D01*
X84445736Y-110476847D01*
X84493355Y-110524466D01*
X84540974Y-110619704D01*
X84540974Y-110667323D01*
X84493355Y-110762561D01*
X84445736Y-110810180D01*
X84350498Y-110857799D01*
X84160021Y-110857799D01*
X84064783Y-110905418D01*
X84017164Y-110953037D01*
X83969545Y-111048275D01*
X83969545Y-111238751D01*
X84017164Y-111333989D01*
X84064783Y-111381608D01*
X84160021Y-111429227D01*
X84350498Y-111429227D01*
X84445736Y-111381608D01*
X84493355Y-111333989D01*
X84540974Y-111238751D01*
X84540974Y-111048275D01*
X84493355Y-110953037D01*
X84445736Y-110905418D01*
X84350498Y-110857799D01*
%TO.C,C7*%
X117451142Y-104052666D02*
X117498761Y-104100285D01*
X117546380Y-104243142D01*
X117546380Y-104338380D01*
X117498761Y-104481238D01*
X117403523Y-104576476D01*
X117308285Y-104624095D01*
X117117809Y-104671714D01*
X116974952Y-104671714D01*
X116784476Y-104624095D01*
X116689238Y-104576476D01*
X116594000Y-104481238D01*
X116546380Y-104338380D01*
X116546380Y-104243142D01*
X116594000Y-104100285D01*
X116641619Y-104052666D01*
X116546380Y-103719333D02*
X116546380Y-103052666D01*
X117546380Y-103481238D01*
%TO.C,J13*%
X159112476Y-36132380D02*
X159112476Y-36846666D01*
X159064857Y-36989523D01*
X158969619Y-37084761D01*
X158826761Y-37132380D01*
X158731523Y-37132380D01*
X160112476Y-37132380D02*
X159541047Y-37132380D01*
X159826761Y-37132380D02*
X159826761Y-36132380D01*
X159731523Y-36275238D01*
X159636285Y-36370476D01*
X159541047Y-36418095D01*
X160445809Y-36132380D02*
X161064857Y-36132380D01*
X160731523Y-36513333D01*
X160874380Y-36513333D01*
X160969619Y-36560952D01*
X161017238Y-36608571D01*
X161064857Y-36703809D01*
X161064857Y-36941904D01*
X161017238Y-37037142D01*
X160969619Y-37084761D01*
X160874380Y-37132380D01*
X160588666Y-37132380D01*
X160493428Y-37084761D01*
X160445809Y-37037142D01*
%TO.C,F1*%
X147538571Y-65277333D02*
X147538571Y-65610666D01*
X148062380Y-65610666D02*
X147062380Y-65610666D01*
X147062380Y-65134476D01*
X148062380Y-64229714D02*
X148062380Y-64801142D01*
X148062380Y-64515428D02*
X147062380Y-64515428D01*
X147205238Y-64610666D01*
X147300476Y-64705904D01*
X147348095Y-64801142D01*
%TO.C,C4*%
X61167142Y-133260666D02*
X61214761Y-133308285D01*
X61262380Y-133451142D01*
X61262380Y-133546380D01*
X61214761Y-133689238D01*
X61119523Y-133784476D01*
X61024285Y-133832095D01*
X60833809Y-133879714D01*
X60690952Y-133879714D01*
X60500476Y-133832095D01*
X60405238Y-133784476D01*
X60310000Y-133689238D01*
X60262380Y-133546380D01*
X60262380Y-133451142D01*
X60310000Y-133308285D01*
X60357619Y-133260666D01*
X60595714Y-132403523D02*
X61262380Y-132403523D01*
X60214761Y-132641619D02*
X60929047Y-132879714D01*
X60929047Y-132260666D01*
%TO.C,J1*%
X162802666Y-55932380D02*
X162802666Y-56646666D01*
X162755047Y-56789523D01*
X162659809Y-56884761D01*
X162516952Y-56932380D01*
X162421714Y-56932380D01*
X163802666Y-56932380D02*
X163231238Y-56932380D01*
X163516952Y-56932380D02*
X163516952Y-55932380D01*
X163421714Y-56075238D01*
X163326476Y-56170476D01*
X163231238Y-56218095D01*
%TO.C,D1*%
X132865904Y-60396380D02*
X132865904Y-59396380D01*
X133104000Y-59396380D01*
X133246857Y-59444000D01*
X133342095Y-59539238D01*
X133389714Y-59634476D01*
X133437333Y-59824952D01*
X133437333Y-59967809D01*
X133389714Y-60158285D01*
X133342095Y-60253523D01*
X133246857Y-60348761D01*
X133104000Y-60396380D01*
X132865904Y-60396380D01*
X134389714Y-60396380D02*
X133818285Y-60396380D01*
X134104000Y-60396380D02*
X134104000Y-59396380D01*
X134008761Y-59539238D01*
X133913523Y-59634476D01*
X133818285Y-59682095D01*
%TO.C,R6*%
X73350380Y-69571025D02*
X72874190Y-69904359D01*
X73350380Y-70142454D02*
X72350380Y-70142454D01*
X72350380Y-69761501D01*
X72398000Y-69666263D01*
X72445619Y-69618644D01*
X72540857Y-69571025D01*
X72683714Y-69571025D01*
X72778952Y-69618644D01*
X72826571Y-69666263D01*
X72874190Y-69761501D01*
X72874190Y-70142454D01*
X72350380Y-68713882D02*
X72350380Y-68904359D01*
X72398000Y-68999597D01*
X72445619Y-69047216D01*
X72588476Y-69142454D01*
X72778952Y-69190073D01*
X73159904Y-69190073D01*
X73255142Y-69142454D01*
X73302761Y-69094835D01*
X73350380Y-68999597D01*
X73350380Y-68809120D01*
X73302761Y-68713882D01*
X73255142Y-68666263D01*
X73159904Y-68618644D01*
X72921809Y-68618644D01*
X72826571Y-68666263D01*
X72778952Y-68713882D01*
X72731333Y-68809120D01*
X72731333Y-68999597D01*
X72778952Y-69094835D01*
X72826571Y-69142454D01*
X72921809Y-69190073D01*
%TO.C,U12*%
X72931757Y-27205665D02*
X72931757Y-28015189D01*
X72979376Y-28110427D01*
X73026995Y-28158046D01*
X73122233Y-28205665D01*
X73312710Y-28205665D01*
X73407948Y-28158046D01*
X73455567Y-28110427D01*
X73503186Y-28015189D01*
X73503186Y-27205665D01*
X74503186Y-28205665D02*
X73931757Y-28205665D01*
X74217472Y-28205665D02*
X74217472Y-27205665D01*
X74122233Y-27348523D01*
X74026995Y-27443761D01*
X73931757Y-27491380D01*
X74884138Y-27300904D02*
X74931757Y-27253285D01*
X75026995Y-27205665D01*
X75265091Y-27205665D01*
X75360329Y-27253285D01*
X75407948Y-27300904D01*
X75455567Y-27396142D01*
X75455567Y-27491380D01*
X75407948Y-27634237D01*
X74836519Y-28205665D01*
X75455567Y-28205665D01*
%TO.C,R2*%
X88550803Y-119613227D02*
X88074613Y-119946561D01*
X88550803Y-120184656D02*
X87550803Y-120184656D01*
X87550803Y-119803703D01*
X87598423Y-119708465D01*
X87646042Y-119660846D01*
X87741280Y-119613227D01*
X87884137Y-119613227D01*
X87979375Y-119660846D01*
X88026994Y-119708465D01*
X88074613Y-119803703D01*
X88074613Y-120184656D01*
X87646042Y-119232275D02*
X87598423Y-119184656D01*
X87550803Y-119089418D01*
X87550803Y-118851322D01*
X87598423Y-118756084D01*
X87646042Y-118708465D01*
X87741280Y-118660846D01*
X87836518Y-118660846D01*
X87979375Y-118708465D01*
X88550803Y-119279894D01*
X88550803Y-118660846D01*
%TO.C,R7*%
X84161333Y-104846380D02*
X83828000Y-104370190D01*
X83589904Y-104846380D02*
X83589904Y-103846380D01*
X83970857Y-103846380D01*
X84066095Y-103894000D01*
X84113714Y-103941619D01*
X84161333Y-104036857D01*
X84161333Y-104179714D01*
X84113714Y-104274952D01*
X84066095Y-104322571D01*
X83970857Y-104370190D01*
X83589904Y-104370190D01*
X84494666Y-103846380D02*
X85161333Y-103846380D01*
X84732761Y-104846380D01*
%TO.C,U9*%
X94869095Y-25951380D02*
X94869095Y-26760904D01*
X94916714Y-26856142D01*
X94964333Y-26903761D01*
X95059571Y-26951380D01*
X95250047Y-26951380D01*
X95345285Y-26903761D01*
X95392904Y-26856142D01*
X95440523Y-26760904D01*
X95440523Y-25951380D01*
X95964333Y-26951380D02*
X96154809Y-26951380D01*
X96250047Y-26903761D01*
X96297666Y-26856142D01*
X96392904Y-26713285D01*
X96440523Y-26522809D01*
X96440523Y-26141857D01*
X96392904Y-26046619D01*
X96345285Y-25999000D01*
X96250047Y-25951380D01*
X96059571Y-25951380D01*
X95964333Y-25999000D01*
X95916714Y-26046619D01*
X95869095Y-26141857D01*
X95869095Y-26379952D01*
X95916714Y-26475190D01*
X95964333Y-26522809D01*
X96059571Y-26570428D01*
X96250047Y-26570428D01*
X96345285Y-26522809D01*
X96392904Y-26475190D01*
X96440523Y-26379952D01*
%TO.C,J14*%
X75017904Y-58618380D02*
X75017904Y-57618380D01*
X76065523Y-58618380D02*
X75732190Y-58142190D01*
X75494095Y-58618380D02*
X75494095Y-57618380D01*
X75875047Y-57618380D01*
X75970285Y-57666000D01*
X76017904Y-57713619D01*
X76065523Y-57808857D01*
X76065523Y-57951714D01*
X76017904Y-58046952D01*
X75970285Y-58094571D01*
X75875047Y-58142190D01*
X75494095Y-58142190D01*
X77160761Y-58713619D02*
X77065523Y-58666000D01*
X76970285Y-58570761D01*
X76827428Y-58427904D01*
X76732190Y-58380285D01*
X76636952Y-58380285D01*
X76684571Y-58618380D02*
X76589333Y-58570761D01*
X76494095Y-58475523D01*
X76446476Y-58285047D01*
X76446476Y-57951714D01*
X76494095Y-57761238D01*
X76589333Y-57666000D01*
X76684571Y-57618380D01*
X76875047Y-57618380D01*
X76970285Y-57666000D01*
X77065523Y-57761238D01*
X77113142Y-57951714D01*
X77113142Y-58285047D01*
X77065523Y-58475523D01*
X76970285Y-58570761D01*
X76875047Y-58618380D01*
X76684571Y-58618380D01*
X77732190Y-57618380D02*
X77827428Y-57618380D01*
X77922666Y-57666000D01*
X77970285Y-57713619D01*
X78017904Y-57808857D01*
X78065523Y-57999333D01*
X78065523Y-58237428D01*
X78017904Y-58427904D01*
X77970285Y-58523142D01*
X77922666Y-58570761D01*
X77827428Y-58618380D01*
X77732190Y-58618380D01*
X77636952Y-58570761D01*
X77589333Y-58523142D01*
X77541714Y-58427904D01*
X77494095Y-58237428D01*
X77494095Y-57999333D01*
X77541714Y-57808857D01*
X77589333Y-57713619D01*
X77636952Y-57666000D01*
X77732190Y-57618380D01*
X78256000Y-58713619D02*
X79017904Y-58713619D01*
X79256000Y-58618380D02*
X79256000Y-57618380D01*
X79636952Y-57618380D01*
X79732190Y-57666000D01*
X79779809Y-57713619D01*
X79827428Y-57808857D01*
X79827428Y-57951714D01*
X79779809Y-58046952D01*
X79732190Y-58094571D01*
X79636952Y-58142190D01*
X79256000Y-58142190D01*
X80256000Y-57618380D02*
X80256000Y-58427904D01*
X80303619Y-58523142D01*
X80351238Y-58570761D01*
X80446476Y-58618380D01*
X80636952Y-58618380D01*
X80732190Y-58570761D01*
X80779809Y-58523142D01*
X80827428Y-58427904D01*
X80827428Y-57618380D01*
X81779809Y-58618380D02*
X81303619Y-58618380D01*
X81303619Y-57618380D01*
X82589333Y-58618380D02*
X82113142Y-58618380D01*
X82113142Y-57618380D01*
X82922666Y-57618380D02*
X82922666Y-58427904D01*
X82970285Y-58523142D01*
X83017904Y-58570761D01*
X83113142Y-58618380D01*
X83303619Y-58618380D01*
X83398857Y-58570761D01*
X83446476Y-58523142D01*
X83494095Y-58427904D01*
X83494095Y-57618380D01*
X83970285Y-58618380D02*
X83970285Y-57618380D01*
X84351238Y-57618380D01*
X84446476Y-57666000D01*
X84494095Y-57713619D01*
X84541714Y-57808857D01*
X84541714Y-57951714D01*
X84494095Y-58046952D01*
X84446476Y-58094571D01*
X84351238Y-58142190D01*
X83970285Y-58142190D01*
%TO.C,C3*%
X62143333Y-107873483D02*
X62095714Y-107921102D01*
X61952857Y-107968721D01*
X61857619Y-107968721D01*
X61714761Y-107921102D01*
X61619523Y-107825864D01*
X61571904Y-107730626D01*
X61524285Y-107540150D01*
X61524285Y-107397293D01*
X61571904Y-107206817D01*
X61619523Y-107111579D01*
X61714761Y-107016341D01*
X61857619Y-106968721D01*
X61952857Y-106968721D01*
X62095714Y-107016341D01*
X62143333Y-107063960D01*
X62476666Y-106968721D02*
X63095714Y-106968721D01*
X62762380Y-107349674D01*
X62905238Y-107349674D01*
X63000476Y-107397293D01*
X63048095Y-107444912D01*
X63095714Y-107540150D01*
X63095714Y-107778245D01*
X63048095Y-107873483D01*
X63000476Y-107921102D01*
X62905238Y-107968721D01*
X62619523Y-107968721D01*
X62524285Y-107921102D01*
X62476666Y-107873483D01*
%TO.C,R1*%
X118816380Y-69629799D02*
X118340190Y-69963133D01*
X118816380Y-70201228D02*
X117816380Y-70201228D01*
X117816380Y-69820275D01*
X117864000Y-69725037D01*
X117911619Y-69677418D01*
X118006857Y-69629799D01*
X118149714Y-69629799D01*
X118244952Y-69677418D01*
X118292571Y-69725037D01*
X118340190Y-69820275D01*
X118340190Y-70201228D01*
X118816380Y-68677418D02*
X118816380Y-69248847D01*
X118816380Y-68963133D02*
X117816380Y-68963133D01*
X117959238Y-69058371D01*
X118054476Y-69153609D01*
X118102095Y-69248847D01*
%TO.C,R3*%
X84167148Y-108175291D02*
X83833815Y-107699101D01*
X83595719Y-108175291D02*
X83595719Y-107175291D01*
X83976672Y-107175291D01*
X84071910Y-107222911D01*
X84119529Y-107270530D01*
X84167148Y-107365768D01*
X84167148Y-107508625D01*
X84119529Y-107603863D01*
X84071910Y-107651482D01*
X83976672Y-107699101D01*
X83595719Y-107699101D01*
X84500481Y-107175291D02*
X85119529Y-107175291D01*
X84786195Y-107556244D01*
X84929053Y-107556244D01*
X85024291Y-107603863D01*
X85071910Y-107651482D01*
X85119529Y-107746720D01*
X85119529Y-107984815D01*
X85071910Y-108080053D01*
X85024291Y-108127672D01*
X84929053Y-108175291D01*
X84643338Y-108175291D01*
X84548100Y-108127672D01*
X84500481Y-108080053D01*
%TO.C,C9*%
X126717367Y-148365837D02*
X126669748Y-148413456D01*
X126526891Y-148461075D01*
X126431653Y-148461075D01*
X126288795Y-148413456D01*
X126193557Y-148318218D01*
X126145938Y-148222980D01*
X126098319Y-148032504D01*
X126098319Y-147889647D01*
X126145938Y-147699171D01*
X126193557Y-147603933D01*
X126288795Y-147508695D01*
X126431653Y-147461075D01*
X126526891Y-147461075D01*
X126669748Y-147508695D01*
X126717367Y-147556314D01*
X127193557Y-148461075D02*
X127384034Y-148461075D01*
X127479272Y-148413456D01*
X127526891Y-148365837D01*
X127622129Y-148222980D01*
X127669748Y-148032504D01*
X127669748Y-147651552D01*
X127622129Y-147556314D01*
X127574510Y-147508695D01*
X127479272Y-147461075D01*
X127288795Y-147461075D01*
X127193557Y-147508695D01*
X127145938Y-147556314D01*
X127098319Y-147651552D01*
X127098319Y-147889647D01*
X127145938Y-147984885D01*
X127193557Y-148032504D01*
X127288795Y-148080123D01*
X127479272Y-148080123D01*
X127574510Y-148032504D01*
X127622129Y-147984885D01*
X127669748Y-147889647D01*
%TO.C,U5*%
X72898095Y-111422380D02*
X72898095Y-112231904D01*
X72945714Y-112327142D01*
X72993333Y-112374761D01*
X73088571Y-112422380D01*
X73279047Y-112422380D01*
X73374285Y-112374761D01*
X73421904Y-112327142D01*
X73469523Y-112231904D01*
X73469523Y-111422380D01*
X74421904Y-111422380D02*
X73945714Y-111422380D01*
X73898095Y-111898571D01*
X73945714Y-111850952D01*
X74040952Y-111803333D01*
X74279047Y-111803333D01*
X74374285Y-111850952D01*
X74421904Y-111898571D01*
X74469523Y-111993809D01*
X74469523Y-112231904D01*
X74421904Y-112327142D01*
X74374285Y-112374761D01*
X74279047Y-112422380D01*
X74040952Y-112422380D01*
X73945714Y-112374761D01*
X73898095Y-112327142D01*
%TO.C,U7*%
X133096095Y-146982380D02*
X133096095Y-147791904D01*
X133143714Y-147887142D01*
X133191333Y-147934761D01*
X133286571Y-147982380D01*
X133477047Y-147982380D01*
X133572285Y-147934761D01*
X133619904Y-147887142D01*
X133667523Y-147791904D01*
X133667523Y-146982380D01*
X134048476Y-146982380D02*
X134715142Y-146982380D01*
X134286571Y-147982380D01*
%TO.C,U6*%
X147249665Y-146982380D02*
X147249665Y-147791904D01*
X147297284Y-147887142D01*
X147344903Y-147934761D01*
X147440141Y-147982380D01*
X147630617Y-147982380D01*
X147725855Y-147934761D01*
X147773474Y-147887142D01*
X147821093Y-147791904D01*
X147821093Y-146982380D01*
X148725855Y-146982380D02*
X148535379Y-146982380D01*
X148440141Y-147030000D01*
X148392522Y-147077619D01*
X148297284Y-147220476D01*
X148249665Y-147410952D01*
X148249665Y-147791904D01*
X148297284Y-147887142D01*
X148344903Y-147934761D01*
X148440141Y-147982380D01*
X148630617Y-147982380D01*
X148725855Y-147934761D01*
X148773474Y-147887142D01*
X148821093Y-147791904D01*
X148821093Y-147553809D01*
X148773474Y-147458571D01*
X148725855Y-147410952D01*
X148630617Y-147363333D01*
X148440141Y-147363333D01*
X148344903Y-147410952D01*
X148297284Y-147458571D01*
X148249665Y-147553809D01*
D12*
%TO.C,U10*%
X92981000Y-55439000D02*
X92981000Y-80959000D01*
X98281000Y-55439000D02*
X96631000Y-55439000D01*
X92981000Y-80959000D02*
X98281000Y-80959000D01*
X98281000Y-80959000D02*
X98281000Y-55439000D01*
X94631000Y-55439000D02*
X92981000Y-55439000D01*
X96631000Y-55439000D02*
G75*
G02*
X94631000Y-55439000I-1000000J0D01*
G01*
%TO.C,J5*%
X28895000Y-161350000D02*
X31555000Y-161350000D01*
X30225000Y-135830000D02*
X31555000Y-135830000D01*
X31555000Y-135830000D02*
X31555000Y-137160000D01*
X31555000Y-138430000D02*
X31555000Y-161350000D01*
X28895000Y-138430000D02*
X31555000Y-138430000D01*
X28895000Y-138430000D02*
X28895000Y-161350000D01*
%TO.C,U3*%
X57005000Y-163890000D02*
X57005000Y-112970000D01*
X44085000Y-112970000D02*
X44085000Y-163890000D01*
X44085000Y-163890000D02*
X57005000Y-163890000D01*
X57005000Y-112970000D02*
X51545000Y-112970000D01*
X49545000Y-112970000D02*
X44085000Y-112970000D01*
X51545000Y-112970000D02*
G75*
G02*
X49545000Y-112970000I-1000000J0D01*
G01*
%TO.C,U14*%
X46838775Y-27499000D02*
X46838775Y-53019000D01*
X48488775Y-27499000D02*
X46838775Y-27499000D01*
X52138775Y-53019000D02*
X52138775Y-27499000D01*
X46838775Y-53019000D02*
X52138775Y-53019000D01*
X52138775Y-27499000D02*
X50488775Y-27499000D01*
X50488775Y-27499000D02*
G75*
G02*
X48488775Y-27499000I-1000000J0D01*
G01*
%TO.C,J2*%
X28895000Y-110490000D02*
X28895000Y-133410000D01*
X31555000Y-107890000D02*
X31555000Y-109220000D01*
X31555000Y-110490000D02*
X31555000Y-133410000D01*
X28895000Y-110490000D02*
X31555000Y-110490000D01*
X30225000Y-107890000D02*
X31555000Y-107890000D01*
X28895000Y-133410000D02*
X31555000Y-133410000D01*
%TO.C,U4*%
X108220000Y-105350000D02*
X102760000Y-105350000D01*
X102760000Y-141030000D02*
X115680000Y-141030000D01*
X115680000Y-105350000D02*
X110220000Y-105350000D01*
X115680000Y-141030000D02*
X115680000Y-105350000D01*
X102760000Y-105350000D02*
X102760000Y-141030000D01*
X110220000Y-105350000D02*
G75*
G02*
X108220000Y-105350000I-1000000J0D01*
G01*
%TO.C,X1*%
X55590000Y-181023903D02*
X75740000Y-181023903D01*
X76490000Y-180273903D02*
X76490000Y-168873903D01*
X55590000Y-168873903D02*
X55590000Y-181023903D01*
X75740000Y-168123903D02*
X56340000Y-168123903D01*
X75740000Y-181023903D02*
G75*
G03*
X76490000Y-180273903I0J750000D01*
G01*
X56340000Y-168123903D02*
G75*
G03*
X55590000Y-168873903I0J-750000D01*
G01*
X76490000Y-168873903D02*
G75*
G03*
X75740000Y-168123903I-750000J0D01*
G01*
%TO.C,C2*%
X136478000Y-54118000D02*
G75*
G03*
X136478000Y-54118000I-2620000J0D01*
G01*
%TO.C,C1*%
X148783230Y-54082180D02*
G75*
G03*
X148783230Y-54082180I-2620000J0D01*
G01*
%TO.C,F2*%
X142868000Y-60460000D02*
X142868000Y-69080000D01*
X142868000Y-60460000D02*
X140088000Y-60460000D01*
X140088000Y-60460000D02*
X140088000Y-69080000D01*
X142868000Y-69080000D02*
X140088000Y-69080000D01*
%TO.C,J11*%
X85090000Y-128838000D02*
X83760000Y-128838000D01*
X86360000Y-128838000D02*
X88960000Y-128838000D01*
X83760000Y-128838000D02*
X83760000Y-127508000D01*
X86360000Y-128838000D02*
X86360000Y-126178000D01*
X86360000Y-126178000D02*
X88960000Y-126178000D01*
X88960000Y-128838000D02*
X88960000Y-126178000D01*
%TO.C,R4*%
X134738737Y-70180458D02*
X134738737Y-70950458D01*
X134738737Y-78260458D02*
X134738737Y-77490458D01*
X133368737Y-77490458D02*
X136108737Y-77490458D01*
X136108737Y-70950458D02*
X133368737Y-70950458D01*
X136108737Y-77490458D02*
X136108737Y-70950458D01*
X133368737Y-70950458D02*
X133368737Y-77490458D01*
%TO.C,U13*%
X46901129Y-55316652D02*
X46901129Y-80836652D01*
X46901129Y-80836652D02*
X52201129Y-80836652D01*
X52201129Y-55316652D02*
X50551129Y-55316652D01*
X48551129Y-55316652D02*
X46901129Y-55316652D01*
X52201129Y-80836652D02*
X52201129Y-55316652D01*
X50551129Y-55316652D02*
G75*
G02*
X48551129Y-55316652I-1000000J0D01*
G01*
%TO.C,FB2*%
X139358000Y-72854000D02*
X139358000Y-82594000D01*
X143598000Y-72854000D02*
X139358000Y-72854000D01*
X139358000Y-82594000D02*
X143598000Y-82594000D01*
X141478000Y-72614000D02*
X141478000Y-72854000D01*
X143598000Y-82594000D02*
X143598000Y-72854000D01*
X141478000Y-82834000D02*
X141478000Y-82594000D01*
%TO.C,SW2*%
X165394000Y-83772000D02*
X160194000Y-83772000D01*
X158494000Y-84072000D02*
X158494000Y-82772000D01*
X160194000Y-69772000D02*
X165394000Y-69772000D01*
X166144000Y-71822000D02*
X166144000Y-81722000D01*
X159444000Y-81722000D02*
X159444000Y-71822000D01*
X159794000Y-84072000D02*
X158494000Y-84072000D01*
%TO.C,J12*%
X117034000Y-62036000D02*
X119694000Y-62036000D01*
X117034000Y-56836000D02*
X118364000Y-56836000D01*
X119694000Y-59436000D02*
X119694000Y-62036000D01*
X117034000Y-59436000D02*
X117034000Y-62036000D01*
X117034000Y-58166000D02*
X117034000Y-56836000D01*
X117034000Y-59436000D02*
X119694000Y-59436000D01*
%TO.C,R5*%
X84720000Y-115340000D02*
X84720000Y-116110000D01*
X84720000Y-123420000D02*
X84720000Y-122650000D01*
X86090000Y-116110000D02*
X83350000Y-116110000D01*
X83350000Y-116110000D02*
X83350000Y-122650000D01*
X83350000Y-122650000D02*
X86090000Y-122650000D01*
X86090000Y-122650000D02*
X86090000Y-116110000D01*
%TO.C,U11*%
X123554000Y-54289000D02*
X123554000Y-28769000D01*
X119904000Y-28769000D02*
X118254000Y-28769000D01*
X118254000Y-28769000D02*
X118254000Y-54289000D01*
X118254000Y-54289000D02*
X123554000Y-54289000D01*
X123554000Y-28769000D02*
X121904000Y-28769000D01*
X121904000Y-28769000D02*
G75*
G02*
X119904000Y-28769000I-1000000J0D01*
G01*
%TO.C,J3*%
X110110000Y-31314000D02*
X111440000Y-31314000D01*
X108840000Y-31314000D02*
X108840000Y-33914000D01*
X106240000Y-31314000D02*
X106240000Y-72074000D01*
X111440000Y-31314000D02*
X111440000Y-32644000D01*
X106240000Y-72074000D02*
X111440000Y-72074000D01*
X106240000Y-31314000D02*
X108840000Y-31314000D01*
X111440000Y-33914000D02*
X111440000Y-72074000D01*
X108840000Y-33914000D02*
X111440000Y-33914000D01*
%TO.C,SW1*%
X163622000Y-94744000D02*
X163392000Y-94744000D01*
X163622000Y-88064000D02*
X163392000Y-88064000D01*
X160792000Y-94744000D02*
X160282000Y-94744000D01*
X163622000Y-94204000D02*
X163622000Y-94744000D01*
X160282000Y-87544000D02*
X160282000Y-88064000D01*
X163622000Y-89704000D02*
X163622000Y-93104000D01*
X160792000Y-95264000D02*
X160282000Y-95264000D01*
X167292000Y-87544000D02*
X167292000Y-95264000D01*
X160792000Y-88064000D02*
X160282000Y-88064000D01*
X160792000Y-87544000D02*
X160282000Y-87544000D01*
X160282000Y-94744000D02*
X160282000Y-95264000D01*
X163622000Y-88064000D02*
X163622000Y-88604000D01*
X167292000Y-95264000D02*
X163392000Y-95264000D01*
X167292000Y-87544000D02*
X163392000Y-87544000D01*
%TO.C,XiaoNiuNiu*%
G36*
X158019565Y-113895480D02*
G01*
X158182367Y-114018811D01*
X158272676Y-114145334D01*
X158332486Y-114282727D01*
X158331885Y-114377239D01*
X158267711Y-114468460D01*
X158245012Y-114491755D01*
X158097707Y-114574494D01*
X157916571Y-114585667D01*
X157729945Y-114532536D01*
X157566171Y-114422362D01*
X157467798Y-114292608D01*
X157403535Y-114136487D01*
X157407382Y-114024305D01*
X157481562Y-113924247D01*
X157494371Y-113912380D01*
X157648830Y-113834262D01*
X157832807Y-113831296D01*
X158019565Y-113895480D01*
G37*
G36*
X158094968Y-112509123D02*
G01*
X158228654Y-112595229D01*
X158305374Y-112730831D01*
X158306114Y-112880237D01*
X158300865Y-112895656D01*
X158194666Y-113068126D01*
X158038846Y-113195069D01*
X157858287Y-113267533D01*
X157677873Y-113276567D01*
X157522486Y-113213220D01*
X157492047Y-113186617D01*
X157405872Y-113054209D01*
X157412287Y-112912946D01*
X157512057Y-112750120D01*
X157518789Y-112742041D01*
X157668857Y-112612760D01*
X157849272Y-112526366D01*
X158023347Y-112497690D01*
X158094968Y-112509123D01*
G37*
G36*
X161642047Y-114391001D02*
G01*
X161802432Y-114486009D01*
X161888397Y-114599996D01*
X161942768Y-114791197D01*
X161915139Y-114963593D01*
X161823748Y-115103934D01*
X161686837Y-115198972D01*
X161522644Y-115235458D01*
X161349411Y-115200141D01*
X161202810Y-115097988D01*
X161083872Y-114921974D01*
X161060837Y-114735442D01*
X161135302Y-114551586D01*
X161136441Y-114549954D01*
X161280486Y-114421073D01*
X161458543Y-114368722D01*
X161642047Y-114391001D01*
G37*
G36*
X158278627Y-106981849D02*
G01*
X159052770Y-107041842D01*
X159815498Y-107191008D01*
X160557294Y-107428453D01*
X161268640Y-107753280D01*
X161940020Y-108164595D01*
X162122779Y-108297578D01*
X162361217Y-108477659D01*
X162361959Y-108209312D01*
X162376887Y-107970514D01*
X162416405Y-107717013D01*
X162474483Y-107468349D01*
X162545092Y-107244063D01*
X162622202Y-107063698D01*
X162699782Y-106946795D01*
X162762313Y-106911914D01*
X162826536Y-106945462D01*
X162828813Y-106946652D01*
X162947250Y-107041644D01*
X163101814Y-107183056D01*
X163276691Y-107357053D01*
X163306454Y-107387989D01*
X163527846Y-107627857D01*
X163694686Y-107832019D01*
X163828557Y-108030215D01*
X163951039Y-108252184D01*
X163989445Y-108329195D01*
X164111549Y-108608327D01*
X164207564Y-108886875D01*
X164272072Y-109143147D01*
X164299656Y-109355452D01*
X164284897Y-109502098D01*
X164283397Y-109506169D01*
X164278278Y-109562978D01*
X164298376Y-109564435D01*
X164362813Y-109533283D01*
X164491872Y-109470511D01*
X164659967Y-109388567D01*
X164694522Y-109371704D01*
X165061216Y-109228759D01*
X165329663Y-109180035D01*
X165494858Y-109172243D01*
X165592925Y-109185931D01*
X165656483Y-109231204D01*
X165703730Y-109295926D01*
X165753141Y-109387538D01*
X165768889Y-109482185D01*
X165753685Y-109617031D01*
X165734371Y-109715737D01*
X165680870Y-109906770D01*
X165596881Y-110136283D01*
X165500492Y-110354892D01*
X165499562Y-110356785D01*
X165323537Y-110714502D01*
X165470254Y-111038080D01*
X165718182Y-111700448D01*
X165885032Y-112404192D01*
X165970779Y-113132823D01*
X165975399Y-113869850D01*
X165898870Y-114598784D01*
X165741166Y-115303134D01*
X165502265Y-115966412D01*
X165477463Y-116022022D01*
X165337955Y-116329701D01*
X165504558Y-116653119D01*
X165646767Y-116972244D01*
X165730168Y-117257263D01*
X165753995Y-117497573D01*
X165717477Y-117682576D01*
X165619847Y-117801670D01*
X165589051Y-117818450D01*
X165432866Y-117845230D01*
X165215303Y-117821157D01*
X164958529Y-117751045D01*
X164684714Y-117639710D01*
X164620092Y-117607983D01*
X164443492Y-117530658D01*
X164323244Y-117503592D01*
X164269504Y-117527134D01*
X164289263Y-117596626D01*
X164305979Y-117698241D01*
X164286131Y-117869368D01*
X164235345Y-118088419D01*
X164159250Y-118333806D01*
X164063471Y-118583943D01*
X163989445Y-118746806D01*
X163866141Y-118981950D01*
X163738033Y-119184247D01*
X163583540Y-119383435D01*
X163381081Y-119609256D01*
X163306454Y-119688012D01*
X163129742Y-119866062D01*
X162970730Y-120013814D01*
X162845230Y-120117434D01*
X162769055Y-120163086D01*
X162762313Y-120164087D01*
X162689413Y-120117461D01*
X162611624Y-119990665D01*
X162535026Y-119803325D01*
X162465702Y-119575064D01*
X162409732Y-119325508D01*
X162373197Y-119074281D01*
X162361959Y-118872082D01*
X162361217Y-118609128D01*
X161983285Y-118880299D01*
X161303656Y-119306392D01*
X160572981Y-119646138D01*
X159791897Y-119899256D01*
X159486583Y-119971686D01*
X159055420Y-120040578D01*
X158566045Y-120079310D01*
X158051594Y-120087955D01*
X157545202Y-120066584D01*
X157080003Y-120015268D01*
X156815438Y-119965897D01*
X156011972Y-119736306D01*
X155264180Y-119423482D01*
X154569498Y-119025968D01*
X153925363Y-118542307D01*
X153357802Y-118001586D01*
X152927528Y-117544507D01*
X152780969Y-117648866D01*
X152455886Y-117828422D01*
X152084285Y-117947612D01*
X151819715Y-117986995D01*
X151571096Y-117990602D01*
X151392647Y-117949904D01*
X151259211Y-117852091D01*
X151145630Y-117684350D01*
X151116948Y-117629107D01*
X151076878Y-117545247D01*
X151046136Y-117464751D01*
X151023250Y-117372896D01*
X151006747Y-117254959D01*
X150995154Y-117096216D01*
X150986999Y-116881943D01*
X150980808Y-116597417D01*
X150975110Y-116227914D01*
X150974831Y-116208290D01*
X150971786Y-115676393D01*
X150980442Y-115235213D01*
X151002742Y-114875549D01*
X151040630Y-114588199D01*
X151096048Y-114363960D01*
X151170940Y-114193632D01*
X151267251Y-114068010D01*
X151386923Y-113977894D01*
X151452915Y-113944689D01*
X151541369Y-113899906D01*
X151587518Y-113846325D01*
X151603436Y-113754119D01*
X151601198Y-113593463D01*
X151600701Y-113579642D01*
X151590886Y-113412173D01*
X151566699Y-113313592D01*
X151512909Y-113252398D01*
X151508704Y-113250034D01*
X151819715Y-113250034D01*
X151819715Y-113568752D01*
X151822262Y-113742433D01*
X151836564Y-113841023D01*
X151872618Y-113889814D01*
X151940419Y-113914095D01*
X151957759Y-113918035D01*
X152339799Y-114026880D01*
X152654334Y-114175889D01*
X152931437Y-114381601D01*
X153097938Y-114545203D01*
X153359455Y-114892627D01*
X153543280Y-115283968D01*
X153643476Y-115699824D01*
X153654110Y-116120794D01*
X153631435Y-116289105D01*
X153575452Y-116510272D01*
X153491293Y-116746127D01*
X153391742Y-116967937D01*
X153289585Y-117146967D01*
X153204246Y-117249225D01*
X153137972Y-117330294D01*
X153144975Y-117420173D01*
X153228703Y-117542238D01*
X153251326Y-117568452D01*
X153340594Y-117657603D01*
X153408958Y-117677705D01*
X153488178Y-117644546D01*
X153590888Y-117615875D01*
X153788892Y-117590384D01*
X154077127Y-117568549D01*
X154450527Y-117550847D01*
X154505288Y-117548866D01*
X154830061Y-117536836D01*
X155076511Y-117524459D01*
X155266663Y-117508305D01*
X155422543Y-117484943D01*
X155566176Y-117450942D01*
X155719587Y-117402871D01*
X155904801Y-117337299D01*
X155935921Y-117326020D01*
X156268870Y-117215862D01*
X156536220Y-117152460D01*
X156755644Y-117130971D01*
X156927872Y-117134021D01*
X157037874Y-117157916D01*
X157123559Y-117216270D01*
X157191775Y-117287598D01*
X157301723Y-117439073D01*
X157376267Y-117618001D01*
X157420559Y-117845178D01*
X157439751Y-118141399D01*
X157441570Y-118295838D01*
X157450608Y-118568003D01*
X157475594Y-118786970D01*
X157511425Y-118923308D01*
X157578026Y-119028623D01*
X157698699Y-119176570D01*
X157852781Y-119342749D01*
X157938105Y-119427173D01*
X158090181Y-119578144D01*
X158210030Y-119706990D01*
X158281804Y-119796116D01*
X158295209Y-119823634D01*
X158341473Y-119850199D01*
X158467941Y-119859888D01*
X158656123Y-119854247D01*
X158887534Y-119834821D01*
X159143686Y-119803157D01*
X159406091Y-119760800D01*
X159652669Y-119710133D01*
X159857250Y-119661414D01*
X160021476Y-119620179D01*
X160123242Y-119592094D01*
X160145154Y-119583888D01*
X160161531Y-119530447D01*
X160188922Y-119403125D01*
X160222009Y-119227097D01*
X160229388Y-119185119D01*
X160272731Y-118981304D01*
X160324929Y-118801346D01*
X160375382Y-118681238D01*
X160379986Y-118673808D01*
X160428398Y-118609131D01*
X160484982Y-118572734D01*
X160575487Y-118558816D01*
X160725663Y-118561578D01*
X160847925Y-118568396D01*
X161168863Y-118608125D01*
X161415410Y-118686710D01*
X161449977Y-118703543D01*
X161594286Y-118763597D01*
X161712699Y-118788562D01*
X161749780Y-118784446D01*
X161834991Y-118737945D01*
X161955380Y-118657030D01*
X162083570Y-118562247D01*
X162192184Y-118474140D01*
X162253845Y-118413253D01*
X162259270Y-118402118D01*
X162215615Y-118392650D01*
X162101647Y-118400353D01*
X161997284Y-118414885D01*
X161715611Y-118447767D01*
X161387784Y-118465543D01*
X161042072Y-118468638D01*
X160706742Y-118457479D01*
X160410062Y-118432496D01*
X160180299Y-118394113D01*
X160152522Y-118387000D01*
X159548071Y-118171244D01*
X158959260Y-117861046D01*
X158392760Y-117461956D01*
X157855243Y-116979528D01*
X157353378Y-116419312D01*
X156893838Y-115786859D01*
X156745704Y-115551887D01*
X156634670Y-115355589D01*
X156518037Y-115127051D01*
X156405616Y-114888352D01*
X156307218Y-114661568D01*
X156232653Y-114468780D01*
X156191733Y-114332066D01*
X156186909Y-114294350D01*
X156145019Y-114231802D01*
X156047854Y-114172445D01*
X155938171Y-114141123D01*
X155921902Y-114140372D01*
X155856120Y-114172119D01*
X155736497Y-114257555D01*
X155582681Y-114381968D01*
X155479372Y-114471682D01*
X155226687Y-114684388D01*
X155019850Y-114827592D01*
X154842426Y-114910531D01*
X154677981Y-114942441D01*
X154639818Y-114943534D01*
X154439889Y-114896730D01*
X154256277Y-114769447D01*
X154098605Y-114581378D01*
X153976495Y-114352215D01*
X153899571Y-114101652D01*
X153877454Y-113849380D01*
X153919768Y-113615093D01*
X153953062Y-113538103D01*
X154048738Y-113414185D01*
X156344783Y-113414185D01*
X156358233Y-113721249D01*
X156409688Y-114046185D01*
X156433014Y-114144892D01*
X156500342Y-114367749D01*
X156592798Y-114621880D01*
X156698548Y-114879353D01*
X156805756Y-115112233D01*
X156902588Y-115292588D01*
X156948017Y-115360424D01*
X157077222Y-115452933D01*
X157271598Y-115501897D01*
X157506361Y-115508341D01*
X157756722Y-115473293D01*
X157997897Y-115397778D01*
X158165964Y-115309969D01*
X158477639Y-115049710D01*
X158722195Y-114728748D01*
X158898591Y-114361963D01*
X159005789Y-113964233D01*
X159042750Y-113550437D01*
X159008434Y-113135454D01*
X158901803Y-112734164D01*
X158721817Y-112361444D01*
X158467437Y-112032174D01*
X158399552Y-111965325D01*
X158241010Y-111830094D01*
X158082259Y-111715676D01*
X157969475Y-111652584D01*
X157826186Y-111615275D01*
X157627413Y-111590548D01*
X157410830Y-111580104D01*
X157214112Y-111585647D01*
X157074933Y-111608880D01*
X157066821Y-111611780D01*
X156995907Y-111678416D01*
X156902992Y-111822003D01*
X156796478Y-112023812D01*
X156684769Y-112265113D01*
X156576265Y-112527178D01*
X156479369Y-112791275D01*
X156402483Y-113038675D01*
X156371617Y-113161518D01*
X156344783Y-113414185D01*
X154048738Y-113414185D01*
X154087879Y-113363491D01*
X154288363Y-113207340D01*
X154520100Y-113096072D01*
X154535244Y-113091080D01*
X154787637Y-112986145D01*
X155019021Y-112834713D01*
X155238777Y-112626514D01*
X155456285Y-112351276D01*
X155680926Y-111998729D01*
X155905217Y-111591038D01*
X156090242Y-111254670D01*
X156090666Y-111254008D01*
X157226170Y-111254008D01*
X157410830Y-111277347D01*
X157515332Y-111290555D01*
X157737495Y-111335751D01*
X157972396Y-111408869D01*
X158071194Y-111449200D01*
X158438145Y-111669949D01*
X158746077Y-111969897D01*
X158996498Y-112350803D01*
X159155987Y-112713751D01*
X159230073Y-113008648D01*
X159266829Y-113359233D01*
X159266256Y-113727997D01*
X159228353Y-114077430D01*
X159155987Y-114362250D01*
X158957230Y-114792338D01*
X158702674Y-115154533D01*
X158400175Y-115441912D01*
X158057591Y-115647551D01*
X157682779Y-115764524D01*
X157543404Y-115783422D01*
X157384321Y-115803115D01*
X157274798Y-115826747D01*
X157241059Y-115845814D01*
X157271460Y-115895661D01*
X157354346Y-116006003D01*
X157477243Y-116160791D01*
X157627676Y-116343972D01*
X157635720Y-116353616D01*
X158127234Y-116882470D01*
X158651042Y-117332894D01*
X159198948Y-117699416D01*
X159762757Y-117976564D01*
X160334274Y-118158866D01*
X160342199Y-118160698D01*
X160547873Y-118190582D01*
X160825313Y-118206678D01*
X161146903Y-118209423D01*
X161485027Y-118199254D01*
X161812069Y-118176609D01*
X162100412Y-118141924D01*
X162160427Y-118131921D01*
X162429641Y-118086060D01*
X162612048Y-118065715D01*
X162719461Y-118077600D01*
X162763693Y-118128426D01*
X162756554Y-118224907D01*
X162709858Y-118373756D01*
X162688949Y-118432269D01*
X162642764Y-118613610D01*
X162616490Y-118818975D01*
X162614409Y-118874139D01*
X162623610Y-119046167D01*
X162650280Y-119244513D01*
X162688888Y-119444701D01*
X162733901Y-119622256D01*
X162779787Y-119752701D01*
X162821016Y-119811562D01*
X162826536Y-119812704D01*
X162896631Y-119774806D01*
X163009938Y-119672566D01*
X163151076Y-119523163D01*
X163304663Y-119343779D01*
X163455318Y-119151592D01*
X163587659Y-118963783D01*
X163590566Y-118959344D01*
X163840695Y-118497404D01*
X164001117Y-118007563D01*
X164062269Y-117654206D01*
X164082610Y-117439282D01*
X164080708Y-117296425D01*
X164055232Y-117199505D01*
X164037390Y-117166545D01*
X163982919Y-117043700D01*
X163967541Y-116959193D01*
X163958046Y-116913495D01*
X163917172Y-116883288D01*
X163826340Y-116863930D01*
X163666969Y-116850777D01*
X163501045Y-116842616D01*
X163190195Y-116816189D01*
X162959088Y-116762342D01*
X162788834Y-116672385D01*
X162660543Y-116537626D01*
X162592003Y-116424364D01*
X162508187Y-116182592D01*
X162468992Y-115880003D01*
X162470454Y-115535979D01*
X162508610Y-115169903D01*
X162579494Y-114801155D01*
X162679144Y-114449117D01*
X162803593Y-114133171D01*
X162948880Y-113872698D01*
X163111038Y-113687081D01*
X163159253Y-113650945D01*
X163390539Y-113554843D01*
X163652614Y-113539919D01*
X163923176Y-113602145D01*
X164179918Y-113737495D01*
X164328045Y-113861997D01*
X164410153Y-113974417D01*
X164503452Y-114147693D01*
X164589358Y-114346805D01*
X164598858Y-114372336D01*
X164717567Y-114665122D01*
X164830402Y-114862631D01*
X164946370Y-114968870D01*
X165074478Y-114987848D01*
X165223731Y-114923573D01*
X165403135Y-114780053D01*
X165439123Y-114746306D01*
X165698497Y-114498880D01*
X165716958Y-113741991D01*
X165702425Y-112989332D01*
X165619693Y-112306101D01*
X165467801Y-111687171D01*
X165245786Y-111127414D01*
X165214498Y-111064197D01*
X165150587Y-110947702D01*
X165102310Y-110907337D01*
X165042720Y-110928313D01*
X165008701Y-110951252D01*
X164832721Y-111018293D01*
X164619611Y-111017231D01*
X164399693Y-110954323D01*
X164203291Y-110835823D01*
X164135172Y-110771051D01*
X164016096Y-110574877D01*
X163954191Y-110332340D01*
X163959477Y-110085713D01*
X163965595Y-110055677D01*
X164004797Y-109919808D01*
X164046225Y-109827369D01*
X164054858Y-109816376D01*
X164075929Y-109738618D01*
X164074739Y-109588307D01*
X164054587Y-109389974D01*
X164018776Y-109168152D01*
X163970606Y-108947373D01*
X163913381Y-108752170D01*
X163910556Y-108744127D01*
X163825426Y-108543168D01*
X163707527Y-108313045D01*
X163590566Y-108116657D01*
X163458873Y-107929174D01*
X163308485Y-107736888D01*
X163154785Y-107556980D01*
X163013154Y-107406629D01*
X162898973Y-107303017D01*
X162827626Y-107263322D01*
X162826536Y-107263297D01*
X162786502Y-107309111D01*
X162740968Y-107430237D01*
X162695465Y-107602199D01*
X162655525Y-107800521D01*
X162626680Y-108000727D01*
X162614462Y-108178341D01*
X162614409Y-108201862D01*
X162632161Y-108399537D01*
X162673696Y-108596134D01*
X162688949Y-108643732D01*
X162746914Y-108817809D01*
X162764579Y-108932376D01*
X162730456Y-108994531D01*
X162633058Y-109011370D01*
X162460896Y-108989993D01*
X162210624Y-108939244D01*
X161947895Y-108897256D01*
X161630729Y-108868691D01*
X161287467Y-108853935D01*
X160946449Y-108853377D01*
X160636013Y-108867403D01*
X160384501Y-108896401D01*
X160303114Y-108913173D01*
X160027788Y-109000772D01*
X159706192Y-109133194D01*
X159372067Y-109294618D01*
X159059151Y-109469219D01*
X158897789Y-109572246D01*
X158595081Y-109801203D01*
X158266064Y-110089945D01*
X157937475Y-110413018D01*
X157636051Y-110744969D01*
X157526686Y-110877526D01*
X157226170Y-111254008D01*
X156090666Y-111254008D01*
X156246982Y-111010217D01*
X156378143Y-110854106D01*
X156486433Y-110782761D01*
X156521651Y-110777131D01*
X156652434Y-110804397D01*
X156804456Y-110871224D01*
X156933206Y-110955157D01*
X156984945Y-111010866D01*
X157032138Y-111075060D01*
X157069879Y-111052188D01*
X157093531Y-111014551D01*
X157254820Y-110784462D01*
X157481053Y-110515781D01*
X157754120Y-110226321D01*
X158055913Y-109933898D01*
X158368323Y-109656325D01*
X158673242Y-109411418D01*
X158857980Y-109278768D01*
X159097044Y-109138051D01*
X159398197Y-108991820D01*
X159725331Y-108855434D01*
X160042333Y-108744254D01*
X160248057Y-108687495D01*
X160470008Y-108652055D01*
X160759913Y-108628382D01*
X161085974Y-108616909D01*
X161416393Y-108618067D01*
X161719370Y-108632291D01*
X161963106Y-108660011D01*
X161984725Y-108663864D01*
X162135214Y-108689481D01*
X162226927Y-108695679D01*
X162255550Y-108676489D01*
X162216768Y-108625938D01*
X162106269Y-108538058D01*
X161919738Y-108406877D01*
X161683549Y-108247033D01*
X161265355Y-107983575D01*
X160869771Y-107774496D01*
X160454463Y-107597616D01*
X160416691Y-107583278D01*
X160201254Y-107507281D01*
X160055566Y-107474712D01*
X159957809Y-107487840D01*
X159886162Y-107548930D01*
X159827184Y-107644539D01*
X159688093Y-107841530D01*
X159497547Y-108032061D01*
X159285827Y-108190763D01*
X159083211Y-108292264D01*
X159038277Y-108305547D01*
X158886495Y-108336691D01*
X158674196Y-108372727D01*
X158440609Y-108407130D01*
X158375328Y-108415763D01*
X158148984Y-108450735D01*
X157938842Y-108493444D01*
X157781040Y-108536240D01*
X157747857Y-108548554D01*
X157546053Y-108662497D01*
X157381149Y-108810709D01*
X157280229Y-108967470D01*
X157268448Y-109003863D01*
X157190204Y-109126302D01*
X157039886Y-109219606D01*
X156841368Y-109282137D01*
X156618522Y-109312254D01*
X156395222Y-109308317D01*
X156195341Y-109268686D01*
X156042752Y-109191721D01*
X155967103Y-109093261D01*
X155937566Y-108959596D01*
X155954456Y-108816001D01*
X156023754Y-108651768D01*
X156151441Y-108456191D01*
X156343498Y-108218565D01*
X156605906Y-107928182D01*
X156635758Y-107896350D01*
X156814126Y-107703476D01*
X156964837Y-107534455D01*
X157075680Y-107403459D01*
X157134446Y-107324657D01*
X157140664Y-107310377D01*
X157131965Y-107288185D01*
X157094131Y-107281755D01*
X157009554Y-107293345D01*
X156860625Y-107325209D01*
X156663786Y-107371471D01*
X155980303Y-107581489D01*
X155309241Y-107877875D01*
X154668648Y-108249499D01*
X154076574Y-108685230D01*
X153551067Y-109173940D01*
X153319909Y-109433491D01*
X153076755Y-109725670D01*
X153256348Y-109975650D01*
X153484188Y-110373129D01*
X153618916Y-110792411D01*
X153661532Y-111220973D01*
X153613035Y-111646294D01*
X153474426Y-112055851D01*
X153246703Y-112437123D01*
X153040854Y-112674449D01*
X152767711Y-112901939D01*
X152460056Y-113081965D01*
X152150134Y-113197232D01*
X152017117Y-113223556D01*
X151819715Y-113250034D01*
X151508704Y-113250034D01*
X151416224Y-113198052D01*
X151250473Y-113067881D01*
X151124068Y-112858788D01*
X151032723Y-112563134D01*
X151017120Y-112486838D01*
X150997525Y-112324045D01*
X150983241Y-112083969D01*
X150974095Y-111786196D01*
X150969918Y-111450311D01*
X150970537Y-111095900D01*
X150975782Y-110742548D01*
X150985482Y-110409842D01*
X150999466Y-110117366D01*
X151017563Y-109884707D01*
X151039601Y-109731451D01*
X151041245Y-109724378D01*
X151132988Y-109467567D01*
X151269768Y-109295986D01*
X151463165Y-109200210D01*
X151721366Y-109170807D01*
X152028266Y-109201680D01*
X152343671Y-109285511D01*
X152623634Y-109409116D01*
X152721682Y-109470860D01*
X152872798Y-109578464D01*
X153463154Y-108981502D01*
X153917598Y-108550678D01*
X154360663Y-108193499D01*
X154818586Y-107890525D01*
X155258253Y-107651535D01*
X155982882Y-107345874D01*
X156734166Y-107132970D01*
X157094131Y-107076268D01*
X157502587Y-107011927D01*
X158278627Y-106981849D01*
G37*
G36*
X161748674Y-111964143D02*
G01*
X161773321Y-111982486D01*
X161896374Y-112129533D01*
X161938940Y-112294904D01*
X161912978Y-112459699D01*
X161830449Y-112605018D01*
X161703310Y-112711962D01*
X161543523Y-112761631D01*
X161363046Y-112735125D01*
X161311629Y-112712099D01*
X161142455Y-112579540D01*
X161062017Y-112413671D01*
X161073164Y-112232395D01*
X161178745Y-112053613D01*
X161202810Y-112028210D01*
X161378897Y-111909034D01*
X161564523Y-111887384D01*
X161748674Y-111964143D01*
G37*
%TO.C,U8*%
X122284000Y-148530000D02*
X120634000Y-148530000D01*
X116984000Y-179130000D02*
X122284000Y-179130000D01*
X116984000Y-148530000D02*
X116984000Y-179130000D01*
X118634000Y-148530000D02*
X116984000Y-148530000D01*
X122284000Y-179130000D02*
X122284000Y-148530000D01*
X120634000Y-148530000D02*
G75*
G02*
X118634000Y-148530000I-1000000J0D01*
G01*
%TO.C,J6*%
X85040000Y-180374000D02*
X77360000Y-180374000D01*
X85040000Y-177714000D02*
X77360000Y-177714000D01*
X77360000Y-177714000D02*
X77360000Y-180374000D01*
X85040000Y-177714000D02*
X85040000Y-180374000D01*
X87640000Y-177714000D02*
X87640000Y-179044000D01*
X86310000Y-177714000D02*
X87640000Y-177714000D01*
%TO.C,U2*%
X146424000Y-146620000D02*
X146424000Y-96020000D01*
X123324000Y-96020000D02*
X123324000Y-97880000D01*
X125604000Y-96020000D02*
X125604000Y-98280000D01*
X123324000Y-146620000D02*
X146424000Y-146620000D01*
X122304000Y-107950000D02*
X122304000Y-105410000D01*
X146424000Y-96020000D02*
X123324000Y-96020000D01*
X123324000Y-102780000D02*
X123324000Y-146620000D01*
X124954000Y-100330000D02*
G75*
G03*
X124954000Y-100330000I-900000J0D01*
G01*
X126604000Y-100330000D02*
G75*
G03*
X126604000Y-100330000I-2550000J0D01*
G01*
%TO.C,C6*%
X147728000Y-102810000D02*
X150468000Y-102810000D01*
X147728000Y-108050000D02*
X150468000Y-108050000D01*
X150468000Y-108050000D02*
X150468000Y-102810000D01*
X147728000Y-108050000D02*
X147728000Y-102810000D01*
%TO.C,C5*%
X38778000Y-161190000D02*
X38778000Y-166430000D01*
X41518000Y-166430000D02*
X38778000Y-166430000D01*
X41518000Y-161190000D02*
X41518000Y-166430000D01*
X41518000Y-161190000D02*
X38778000Y-161190000D01*
%TO.C,U1*%
X134701817Y-29048617D02*
X144941817Y-29048617D01*
X134701817Y-29048617D02*
X134701817Y-44938617D01*
X142361817Y-44938617D02*
X142361817Y-47478617D01*
X144941817Y-29048617D02*
X144941817Y-44938617D01*
X139821817Y-44938617D02*
X139821817Y-47478617D01*
X137281817Y-44938617D02*
X137281817Y-47478617D01*
X134701817Y-44938617D02*
X144941817Y-44938617D01*
%TO.C,J4*%
X64740000Y-33914000D02*
X64740000Y-72074000D01*
X63410000Y-31314000D02*
X64740000Y-31314000D01*
X59540000Y-72074000D02*
X64740000Y-72074000D01*
X59540000Y-31314000D02*
X59540000Y-72074000D01*
X62140000Y-31314000D02*
X62140000Y-33914000D01*
X62140000Y-33914000D02*
X64740000Y-33914000D01*
X59540000Y-31314000D02*
X62140000Y-31314000D01*
X64740000Y-31314000D02*
X64740000Y-32644000D01*
%TO.C,FB1*%
X149694000Y-82594000D02*
X149694000Y-72854000D01*
X147574000Y-82834000D02*
X147574000Y-82594000D01*
X145454000Y-82594000D02*
X149694000Y-82594000D01*
X145454000Y-72854000D02*
X145454000Y-82594000D01*
X147574000Y-72614000D02*
X147574000Y-72854000D01*
X149694000Y-72854000D02*
X145454000Y-72854000D01*
%TO.C,C8*%
X86365260Y-109610121D02*
X86365260Y-109925121D01*
X81125260Y-112035121D02*
X81125260Y-112350121D01*
X81125260Y-109610121D02*
X86365260Y-109610121D01*
X81125260Y-112350121D02*
X86365260Y-112350121D01*
X81125260Y-109610121D02*
X81125260Y-109925121D01*
X86365260Y-112035121D02*
X86365260Y-112350121D01*
%TO.C,C7*%
X121021000Y-108050000D02*
X121021000Y-102810000D01*
X118281000Y-108050000D02*
X118281000Y-102810000D01*
X118281000Y-108050000D02*
X121021000Y-108050000D01*
X118281000Y-102810000D02*
X121021000Y-102810000D01*
%TO.C,J13*%
X155822000Y-39540000D02*
X151562000Y-39540000D01*
X168282000Y-51860000D02*
X159922000Y-51860000D01*
X150842000Y-44950000D02*
X151342000Y-44450000D01*
X151342000Y-44450000D02*
X150842000Y-43950000D01*
X168282000Y-39540000D02*
X168282000Y-51860000D01*
X159922000Y-39540000D02*
X168282000Y-39540000D01*
X151562000Y-39540000D02*
X151562000Y-51860000D01*
X150842000Y-43950000D02*
X150842000Y-44950000D01*
X151562000Y-51860000D02*
X155822000Y-51860000D01*
%TO.C,F1*%
X148964000Y-60460000D02*
X146184000Y-60460000D01*
X148964000Y-69080000D02*
X146184000Y-69080000D01*
X148964000Y-60460000D02*
X148964000Y-69080000D01*
X146184000Y-60460000D02*
X146184000Y-69080000D01*
%TO.C,C4*%
X64633000Y-130474000D02*
X64633000Y-135714000D01*
X64633000Y-130474000D02*
X61893000Y-130474000D01*
X64633000Y-135714000D02*
X61893000Y-135714000D01*
X61893000Y-130474000D02*
X61893000Y-135714000D01*
%TO.C,J1*%
X159686000Y-57630000D02*
X168486000Y-57630000D01*
X168486000Y-57630000D02*
X168486000Y-66830000D01*
X154636000Y-67030000D02*
X153586000Y-67030000D01*
X153786000Y-60330000D02*
X153786000Y-57630000D01*
X153786000Y-66830000D02*
X153786000Y-64230000D01*
X168486000Y-66830000D02*
X153786000Y-66830000D01*
X153586000Y-65980000D02*
X153586000Y-67030000D01*
X153786000Y-57630000D02*
X155686000Y-57630000D01*
%TO.C,D1*%
X135910000Y-65553000D02*
X135910000Y-62463000D01*
X130360000Y-64008462D02*
G75*
G02*
X135910000Y-62463170I2990000J462D01*
G01*
X130360000Y-64007538D02*
G75*
G03*
X135910000Y-65552830I2990000J-462D01*
G01*
X135850000Y-64008000D02*
G75*
G03*
X135850000Y-64008000I-2500000J0D01*
G01*
%TO.C,R6*%
X71528000Y-66134359D02*
X71528000Y-72674359D01*
X74268000Y-72674359D02*
X74268000Y-66134359D01*
X72898000Y-73444359D02*
X72898000Y-72674359D01*
X72898000Y-65364359D02*
X72898000Y-66134359D01*
X74268000Y-66134359D02*
X71528000Y-66134359D01*
X71528000Y-72674359D02*
X74268000Y-72674359D01*
%TO.C,J10*%
X28895000Y-105470000D02*
X31555000Y-105470000D01*
X28895000Y-102870000D02*
X31555000Y-102870000D01*
X31555000Y-102870000D02*
X31555000Y-105470000D01*
X28895000Y-102870000D02*
X28895000Y-105470000D01*
X31555000Y-100270000D02*
X31555000Y-101600000D01*
X30225000Y-100270000D02*
X31555000Y-100270000D01*
%TO.C,U12*%
X76819853Y-54273285D02*
X76819853Y-28753285D01*
X76819853Y-28753285D02*
X75169853Y-28753285D01*
X71519853Y-28753285D02*
X71519853Y-54273285D01*
X73169853Y-28753285D02*
X71519853Y-28753285D01*
X71519853Y-54273285D02*
X76819853Y-54273285D01*
X75169853Y-28753285D02*
G75*
G02*
X73169853Y-28753285I-1000000J0D01*
G01*
%TO.C,R2*%
X86646423Y-122716561D02*
X89386423Y-122716561D01*
X86646423Y-116176561D02*
X86646423Y-122716561D01*
X89386423Y-116176561D02*
X86646423Y-116176561D01*
X88016423Y-115406561D02*
X88016423Y-116176561D01*
X88016423Y-123486561D02*
X88016423Y-122716561D01*
X89386423Y-122716561D02*
X89386423Y-116176561D01*
%TO.C,R7*%
X81058000Y-105764000D02*
X87598000Y-105764000D01*
X81058000Y-103024000D02*
X81058000Y-105764000D01*
X87598000Y-103024000D02*
X81058000Y-103024000D01*
X80288000Y-104394000D02*
X81058000Y-104394000D01*
X87598000Y-105764000D02*
X87598000Y-103024000D01*
X88368000Y-104394000D02*
X87598000Y-104394000D01*
%TO.C,U9*%
X92981000Y-27499000D02*
X92981000Y-53019000D01*
X92981000Y-53019000D02*
X98281000Y-53019000D01*
X98281000Y-27499000D02*
X96631000Y-27499000D01*
X94631000Y-27499000D02*
X92981000Y-27499000D01*
X98281000Y-53019000D02*
X98281000Y-27499000D01*
X96631000Y-27499000D02*
G75*
G02*
X94631000Y-27499000I-1000000J0D01*
G01*
%TO.C,J9*%
X77410000Y-172143112D02*
X80010000Y-172143112D01*
X77410000Y-170873112D02*
X77410000Y-169543112D01*
X77410000Y-169543112D02*
X78740000Y-169543112D01*
X77410000Y-174743112D02*
X82610000Y-174743112D01*
X80010000Y-172143112D02*
X80010000Y-169543112D01*
X82610000Y-169543112D02*
X82610000Y-174743112D01*
X80010000Y-169543112D02*
X82610000Y-169543112D01*
X77410000Y-172143112D02*
X77410000Y-174743112D01*
%TO.C,J14*%
X71568000Y-59436000D02*
X71568000Y-62036000D01*
X71568000Y-62036000D02*
X74228000Y-62036000D01*
X71568000Y-58166000D02*
X71568000Y-56836000D01*
X71568000Y-56836000D02*
X72898000Y-56836000D01*
X74228000Y-59436000D02*
X74228000Y-62036000D01*
X71568000Y-59436000D02*
X74228000Y-59436000D01*
%TO.C,C3*%
X64930000Y-111326341D02*
G75*
G03*
X64930000Y-111326341I-2620000J0D01*
G01*
%TO.C,R1*%
X118364000Y-65423133D02*
X118364000Y-66193133D01*
X119734000Y-66193133D02*
X116994000Y-66193133D01*
X118364000Y-73503133D02*
X118364000Y-72733133D01*
X116994000Y-72733133D02*
X119734000Y-72733133D01*
X116994000Y-66193133D02*
X116994000Y-72733133D01*
X119734000Y-72733133D02*
X119734000Y-66193133D01*
%TO.C,R3*%
X87598000Y-109092911D02*
X87598000Y-106352911D01*
X88368000Y-107722911D02*
X87598000Y-107722911D01*
X87598000Y-106352911D02*
X81058000Y-106352911D01*
X80288000Y-107722911D02*
X81058000Y-107722911D01*
X81058000Y-109092911D02*
X87598000Y-109092911D01*
X81058000Y-106352911D02*
X81058000Y-109092911D01*
%TO.C,C9*%
X125514034Y-149666695D02*
X125514034Y-154906695D01*
X128254034Y-154906695D02*
X127939034Y-154906695D01*
X128254034Y-149666695D02*
X127939034Y-149666695D01*
X125829034Y-149666695D02*
X125514034Y-149666695D01*
X125829034Y-154906695D02*
X125514034Y-154906695D01*
X128254034Y-149666695D02*
X128254034Y-154906695D01*
%TO.C,U5*%
X80120000Y-112970000D02*
X74660000Y-112970000D01*
X67200000Y-112970000D02*
X67200000Y-163890000D01*
X72660000Y-112970000D02*
X67200000Y-112970000D01*
X67200000Y-163890000D02*
X80120000Y-163890000D01*
X80120000Y-163890000D02*
X80120000Y-112970000D01*
X74660000Y-112970000D02*
G75*
G02*
X72660000Y-112970000I-1000000J0D01*
G01*
%TO.C,U7*%
X131208000Y-174050000D02*
X136508000Y-174050000D01*
X136508000Y-148530000D02*
X134858000Y-148530000D01*
X131208000Y-148530000D02*
X131208000Y-174050000D01*
X132858000Y-148530000D02*
X131208000Y-148530000D01*
X136508000Y-174050000D02*
X136508000Y-148530000D01*
X134858000Y-148530000D02*
G75*
G02*
X132858000Y-148530000I-1000000J0D01*
G01*
%TO.C,U6*%
X150661570Y-148530000D02*
X149011570Y-148530000D01*
X145361570Y-168970000D02*
X150661570Y-168970000D01*
X145361570Y-148530000D02*
X145361570Y-168970000D01*
X147011570Y-148530000D02*
X145361570Y-148530000D01*
X150661570Y-168970000D02*
X150661570Y-148530000D01*
X149011570Y-148530000D02*
G75*
G02*
X147011570Y-148530000I-1000000J0D01*
G01*
%TD*%
M02*
