%TF.GenerationSoftware,KiCad,Pcbnew,7.0.6*%
%TF.CreationDate,2023-07-08T17:29:01+08:00*%
%TF.ProjectId,MotherBoard,4d6f7468-6572-4426-9f61-72642e6b6963,rev?*%
%TF.SameCoordinates,PX10513f0PY11c7c20*%
%TF.FileFunction,Soldermask,Bot*%
%TF.FilePolarity,Negative*%
%FSLAX46Y46*%
G04 Gerber Fmt 4.6, Leading zero omitted, Abs format (unit mm)*
G04 Created by KiCad (PCBNEW 7.0.6) date 2023-07-08 17:29:01*
%MOMM*%
%LPD*%
G01*
G04 APERTURE LIST*
G04 Aperture macros list*
%AMRoundRect*
0 Rectangle with rounded corners*
0 $1 Rounding radius*
0 $2 $3 $4 $5 $6 $7 $8 $9 X,Y pos of 4 corners*
0 Add a 4 corners polygon primitive as box body*
4,1,4,$2,$3,$4,$5,$6,$7,$8,$9,$2,$3,0*
0 Add four circle primitives for the rounded corners*
1,1,$1+$1,$2,$3*
1,1,$1+$1,$4,$5*
1,1,$1+$1,$6,$7*
1,1,$1+$1,$8,$9*
0 Add four rect primitives between the rounded corners*
20,1,$1+$1,$2,$3,$4,$5,0*
20,1,$1+$1,$4,$5,$6,$7,0*
20,1,$1+$1,$6,$7,$8,$9,0*
20,1,$1+$1,$8,$9,$2,$3,0*%
G04 Aperture macros list end*
%ADD10C,1.600000*%
%ADD11O,1.600000X1.600000*%
%ADD12R,1.700000X1.700000*%
%ADD13O,1.700000X1.700000*%
%ADD14R,1.050000X1.500000*%
%ADD15O,1.050000X1.500000*%
%ADD16R,1.600000X1.600000*%
%ADD17C,3.200000*%
%ADD18RoundRect,0.250001X1.399999X-1.099999X1.399999X1.099999X-1.399999X1.099999X-1.399999X-1.099999X0*%
%ADD19O,3.300000X2.700000*%
%ADD20C,2.000000*%
%ADD21C,1.700000*%
%ADD22R,2.200000X2.200000*%
%ADD23O,2.200000X2.200000*%
%ADD24R,1.800000X1.800000*%
%ADD25C,1.800000*%
%ADD26C,2.100000*%
%ADD27C,1.750000*%
G04 APERTURE END LIST*
D10*
%TO.C,R11*%
X117840000Y-60690000D03*
D11*
X128000000Y-60690000D03*
%TD*%
D10*
%TO.C,R5*%
X124190000Y-9890000D03*
D11*
X124190000Y-20050000D03*
%TD*%
D10*
%TO.C,R9*%
X37830000Y-64500000D03*
D11*
X37830000Y-74660000D03*
%TD*%
D12*
%TO.C,J5*%
X114030000Y-57139000D03*
D13*
X114030000Y-54599000D03*
%TD*%
D14*
%TO.C,Q1*%
X126730000Y-25130000D03*
D15*
X128000000Y-25130000D03*
X129270000Y-25130000D03*
%TD*%
D12*
%TO.C,J7*%
X25765000Y-85328000D03*
D13*
X23225000Y-85328000D03*
%TD*%
D16*
%TO.C,U6*%
X44180000Y-86090000D03*
D11*
X44180000Y-88630000D03*
X44180000Y-91170000D03*
X44180000Y-93710000D03*
X44180000Y-96250000D03*
X44180000Y-98790000D03*
X44180000Y-101330000D03*
X44180000Y-103870000D03*
X44180000Y-106410000D03*
X44180000Y-108950000D03*
X51800000Y-108950000D03*
X51800000Y-106410000D03*
X51800000Y-103870000D03*
X51800000Y-101330000D03*
X51800000Y-98790000D03*
X51800000Y-96250000D03*
X51800000Y-93710000D03*
X51800000Y-91170000D03*
X51800000Y-88630000D03*
X51800000Y-86090000D03*
%TD*%
D10*
%TO.C,C10*%
X38485000Y-82915000D03*
X40985000Y-82915000D03*
%TD*%
D16*
%TO.C,U1*%
X2270000Y-110855000D03*
D11*
X2270000Y-113395000D03*
X2270000Y-115935000D03*
X2270000Y-118475000D03*
X2270000Y-121015000D03*
X2270000Y-123555000D03*
X2270000Y-126095000D03*
X2270000Y-128635000D03*
X9890000Y-128635000D03*
X9890000Y-126095000D03*
X9890000Y-123555000D03*
X9890000Y-121015000D03*
X9890000Y-118475000D03*
X9890000Y-115935000D03*
X9890000Y-113395000D03*
X9890000Y-110855000D03*
%TD*%
D12*
%TO.C,J10*%
X37830000Y-58404000D03*
D13*
X37830000Y-60944000D03*
%TD*%
D16*
%TO.C,U9*%
X82280000Y-153400000D03*
D11*
X84820000Y-153400000D03*
X87360000Y-153400000D03*
X89900000Y-153400000D03*
X92440000Y-153400000D03*
X94980000Y-153400000D03*
X97520000Y-153400000D03*
X100060000Y-153400000D03*
X102600000Y-153400000D03*
X105140000Y-153400000D03*
X107680000Y-153400000D03*
X110220000Y-153400000D03*
X112760000Y-153400000D03*
X115300000Y-153400000D03*
X117840000Y-153400000D03*
X120380000Y-153400000D03*
X122920000Y-153400000D03*
X125460000Y-153400000D03*
X128000000Y-153400000D03*
X130540000Y-153400000D03*
X130540000Y-138160000D03*
X128000000Y-138160000D03*
X125460000Y-138160000D03*
X122920000Y-138160000D03*
X120380000Y-138160000D03*
X117840000Y-138160000D03*
X115300000Y-138160000D03*
X112760000Y-138160000D03*
X110220000Y-138160000D03*
X107680000Y-138160000D03*
X105140000Y-138160000D03*
X102600000Y-138160000D03*
X100060000Y-138160000D03*
X97520000Y-138160000D03*
X94980000Y-138160000D03*
X92440000Y-138160000D03*
X89900000Y-138160000D03*
X87360000Y-138160000D03*
X84820000Y-138160000D03*
X82280000Y-138160000D03*
%TD*%
D17*
%TO.C,H1*%
X0Y0D03*
%TD*%
D12*
%TO.C,J4*%
X1000000Y-133080000D03*
D13*
X1000000Y-135620000D03*
X1000000Y-138160000D03*
X1000000Y-140700000D03*
%TD*%
D12*
%TO.C,J19*%
X11160000Y-161020000D03*
D13*
X13700000Y-161020000D03*
X16240000Y-161020000D03*
X18780000Y-161020000D03*
X21320000Y-161020000D03*
X23860000Y-161020000D03*
X26400000Y-161020000D03*
X28940000Y-161020000D03*
X31480000Y-161020000D03*
X34020000Y-161020000D03*
%TD*%
D10*
%TO.C,C8*%
X67675000Y-82875000D03*
X67675000Y-80375000D03*
%TD*%
D16*
%TO.C,U7*%
X58795000Y-86085000D03*
D11*
X58795000Y-88625000D03*
X58795000Y-91165000D03*
X58795000Y-93705000D03*
X58795000Y-96245000D03*
X58795000Y-98785000D03*
X58795000Y-101325000D03*
X58795000Y-103865000D03*
X58795000Y-106405000D03*
X58795000Y-108945000D03*
X58795000Y-111485000D03*
X58795000Y-114025000D03*
X66415000Y-114025000D03*
X66415000Y-111485000D03*
X66415000Y-108945000D03*
X66415000Y-106405000D03*
X66415000Y-103865000D03*
X66415000Y-101325000D03*
X66415000Y-98785000D03*
X66415000Y-96245000D03*
X66415000Y-93705000D03*
X66415000Y-91165000D03*
X66415000Y-88625000D03*
X66415000Y-86085000D03*
%TD*%
D10*
%TO.C,C1*%
X9850000Y-105775000D03*
X7350000Y-105775000D03*
%TD*%
%TO.C,R2*%
X117840000Y-55864000D03*
D11*
X128000000Y-55864000D03*
%TD*%
D18*
%TO.C,J25*%
X155520000Y-60100000D03*
D19*
X155520000Y-55900000D03*
X155520000Y-51700000D03*
X155520000Y-47500000D03*
X155520000Y-43300000D03*
X155520000Y-39100000D03*
X155520000Y-34900000D03*
X155520000Y-30700000D03*
X155520000Y-26500000D03*
X155520000Y-22300000D03*
X155520000Y-18100000D03*
X155520000Y-13900000D03*
X161020000Y-60100000D03*
X161020000Y-55900000D03*
X161020000Y-51700000D03*
X161020000Y-47500000D03*
X161020000Y-43300000D03*
X161020000Y-39100000D03*
X161020000Y-34900000D03*
X161020000Y-30700000D03*
X161020000Y-26500000D03*
X161020000Y-22300000D03*
X161020000Y-18100000D03*
X161020000Y-13900000D03*
%TD*%
D16*
%TO.C,SW1*%
X22590000Y-93710000D03*
D11*
X20050000Y-93710000D03*
X17510000Y-93710000D03*
X14970000Y-93710000D03*
X12430000Y-93710000D03*
X12430000Y-101330000D03*
X14970000Y-101330000D03*
X17510000Y-101330000D03*
X20050000Y-101330000D03*
X22590000Y-101330000D03*
%TD*%
D12*
%TO.C,J8*%
X2778000Y-58531000D03*
D13*
X2778000Y-61071000D03*
%TD*%
D10*
%TO.C,C5*%
X108220000Y-76565000D03*
X110220000Y-76565000D03*
%TD*%
%TO.C,C9*%
X51760000Y-82915000D03*
X49260000Y-82915000D03*
%TD*%
D12*
%TO.C,J14*%
X9382000Y-1000000D03*
X14462000Y-1000000D03*
D13*
X9382000Y-3540000D03*
X14462000Y-3540000D03*
X9382000Y-6080000D03*
X14462000Y-6080000D03*
X9382000Y-8620000D03*
X14462000Y-8620000D03*
X9382000Y-11160000D03*
X14462000Y-11160000D03*
X9382000Y-13700000D03*
X14462000Y-13700000D03*
X9382000Y-16240000D03*
X14462000Y-16240000D03*
X9382000Y-18780000D03*
X14462000Y-18780000D03*
X9382000Y-21320000D03*
X14462000Y-21320000D03*
X9382000Y-23860000D03*
X14462000Y-23860000D03*
X9382000Y-26400000D03*
X14462000Y-26400000D03*
X9382000Y-28940000D03*
X14462000Y-28940000D03*
X9382000Y-31480000D03*
X14462000Y-31480000D03*
X9382000Y-34020000D03*
X14462000Y-34020000D03*
X9382000Y-36560000D03*
X14462000Y-36560000D03*
X9382000Y-39100000D03*
X14462000Y-39100000D03*
X9382000Y-41640000D03*
X14462000Y-41640000D03*
X9382000Y-44180000D03*
X14462000Y-44180000D03*
X9382000Y-46720000D03*
X14462000Y-46720000D03*
X9382000Y-49260000D03*
X14462000Y-49260000D03*
X9382000Y-51800000D03*
X14462000Y-51800000D03*
X9382000Y-54340000D03*
X14462000Y-54340000D03*
X9382000Y-56880000D03*
X14462000Y-56880000D03*
X9382000Y-59420000D03*
X14462000Y-59420000D03*
X9382000Y-61960000D03*
X14462000Y-61960000D03*
X9382000Y-64500000D03*
X14462000Y-64500000D03*
X9382000Y-67040000D03*
X14462000Y-67040000D03*
X9382000Y-69580000D03*
X14462000Y-69580000D03*
X9382000Y-72120000D03*
X14462000Y-72120000D03*
X9382000Y-74660000D03*
X14462000Y-74660000D03*
%TD*%
D16*
%TO.C,U4*%
X114025000Y-65775000D03*
D11*
X114025000Y-68315000D03*
X114025000Y-70855000D03*
X114025000Y-73395000D03*
X114025000Y-75935000D03*
X114025000Y-78475000D03*
X114025000Y-81015000D03*
X114025000Y-83555000D03*
X114025000Y-86095000D03*
X114025000Y-88635000D03*
X114025000Y-91175000D03*
X114025000Y-93715000D03*
X114025000Y-96255000D03*
X114025000Y-98795000D03*
X114025000Y-101335000D03*
X114025000Y-103875000D03*
X114025000Y-106415000D03*
X114025000Y-108955000D03*
X114025000Y-111495000D03*
X114025000Y-114035000D03*
X129265000Y-114035000D03*
X129265000Y-111495000D03*
X129265000Y-108955000D03*
X129265000Y-106415000D03*
X129265000Y-103875000D03*
X129265000Y-101335000D03*
X129265000Y-98795000D03*
X129265000Y-96255000D03*
X129265000Y-93715000D03*
X129265000Y-91175000D03*
X129265000Y-88635000D03*
X129265000Y-86095000D03*
X129265000Y-83555000D03*
X129265000Y-81015000D03*
X129265000Y-78475000D03*
X129265000Y-75935000D03*
X129265000Y-73395000D03*
X129265000Y-70855000D03*
X129265000Y-68315000D03*
X129265000Y-65775000D03*
%TD*%
D10*
%TO.C,C13*%
X4810000Y-133080000D03*
X7310000Y-133080000D03*
%TD*%
D16*
%TO.C,U10*%
X129280000Y-9900000D03*
D11*
X129280000Y-12440000D03*
X129280000Y-14980000D03*
X129280000Y-17520000D03*
X136900000Y-17520000D03*
X136900000Y-14980000D03*
X136900000Y-12440000D03*
X136900000Y-9900000D03*
%TD*%
D12*
%TO.C,J20*%
X39100000Y-161020000D03*
D13*
X41640000Y-161020000D03*
X44180000Y-161020000D03*
X46720000Y-161020000D03*
X49260000Y-161020000D03*
X51800000Y-161020000D03*
X54340000Y-161020000D03*
X56880000Y-161020000D03*
X59420000Y-161020000D03*
X61960000Y-161020000D03*
%TD*%
D12*
%TO.C,J21*%
X67040000Y-161020000D03*
D13*
X69580000Y-161020000D03*
%TD*%
D16*
%TO.C,X1*%
X23225000Y-126095000D03*
D10*
X23225000Y-110855000D03*
X15605000Y-110855000D03*
X15605000Y-126095000D03*
%TD*%
%TO.C,C12*%
X135620000Y-153400000D03*
X135620000Y-150900000D03*
%TD*%
D12*
%TO.C,J11*%
X20050000Y-58145000D03*
D13*
X20050000Y-60685000D03*
%TD*%
D10*
%TO.C,C14*%
X140700000Y-17510000D03*
X140700000Y-20010000D03*
%TD*%
%TO.C,R8*%
X55610000Y-64500000D03*
D11*
X55610000Y-74660000D03*
%TD*%
D12*
%TO.C,J24*%
X133080000Y-161020000D03*
D13*
X135620000Y-161020000D03*
%TD*%
D12*
%TO.C,J9*%
X55610000Y-58145000D03*
D13*
X55610000Y-60685000D03*
%TD*%
D10*
%TO.C,R7*%
X2778000Y-64632000D03*
D11*
X2778000Y-74792000D03*
%TD*%
D20*
%TO.C,SW2*%
X150320000Y-3825000D03*
X150320000Y2175000D03*
X138320000Y-3825000D03*
X138320000Y2175000D03*
D21*
X148320000Y-2075000D03*
X144320000Y-2075000D03*
X140320000Y-2075000D03*
%TD*%
D16*
%TO.C,U3*%
X139430000Y-65770000D03*
D11*
X139430000Y-68310000D03*
X139430000Y-70850000D03*
X139430000Y-73390000D03*
X139430000Y-75930000D03*
X139430000Y-78470000D03*
X139430000Y-81010000D03*
X139430000Y-83550000D03*
X139430000Y-86090000D03*
X139430000Y-88630000D03*
X139430000Y-91170000D03*
X139430000Y-93710000D03*
X139430000Y-96250000D03*
X139430000Y-98790000D03*
X154670000Y-98790000D03*
X154670000Y-96250000D03*
X154670000Y-93710000D03*
X154670000Y-91170000D03*
X154670000Y-88630000D03*
X154670000Y-86090000D03*
X154670000Y-83550000D03*
X154670000Y-81010000D03*
X154670000Y-78470000D03*
X154670000Y-75930000D03*
X154670000Y-73390000D03*
X154670000Y-70850000D03*
X154670000Y-68310000D03*
X154670000Y-65770000D03*
%TD*%
D10*
%TO.C,R10*%
X20050000Y-64500000D03*
D11*
X20050000Y-74660000D03*
%TD*%
D10*
%TO.C,C7*%
X158480000Y-65810000D03*
X158480000Y-68310000D03*
%TD*%
D12*
%TO.C,J6*%
X113776000Y-46715000D03*
D13*
X113776000Y-49255000D03*
%TD*%
D10*
%TO.C,C11*%
X69580000Y-153320000D03*
X69580000Y-150820000D03*
%TD*%
D12*
%TO.C,J16*%
X27035000Y-1000000D03*
X32115000Y-1000000D03*
D13*
X27035000Y-3540000D03*
X32115000Y-3540000D03*
X27035000Y-6080000D03*
X32115000Y-6080000D03*
X27035000Y-8620000D03*
X32115000Y-8620000D03*
X27035000Y-11160000D03*
X32115000Y-11160000D03*
X27035000Y-13700000D03*
X32115000Y-13700000D03*
X27035000Y-16240000D03*
X32115000Y-16240000D03*
X27035000Y-18780000D03*
X32115000Y-18780000D03*
X27035000Y-21320000D03*
X32115000Y-21320000D03*
X27035000Y-23860000D03*
X32115000Y-23860000D03*
X27035000Y-26400000D03*
X32115000Y-26400000D03*
X27035000Y-28940000D03*
X32115000Y-28940000D03*
X27035000Y-31480000D03*
X32115000Y-31480000D03*
X27035000Y-34020000D03*
X32115000Y-34020000D03*
X27035000Y-36560000D03*
X32115000Y-36560000D03*
X27035000Y-39100000D03*
X32115000Y-39100000D03*
X27035000Y-41640000D03*
X32115000Y-41640000D03*
X27035000Y-44180000D03*
X32115000Y-44180000D03*
X27035000Y-46720000D03*
X32115000Y-46720000D03*
X27035000Y-49260000D03*
X32115000Y-49260000D03*
X27035000Y-51800000D03*
X32115000Y-51800000D03*
X27035000Y-54340000D03*
X32115000Y-54340000D03*
X27035000Y-56880000D03*
X32115000Y-56880000D03*
X27035000Y-59420000D03*
X32115000Y-59420000D03*
X27035000Y-61960000D03*
X32115000Y-61960000D03*
X27035000Y-64500000D03*
X32115000Y-64500000D03*
X27035000Y-67040000D03*
X32115000Y-67040000D03*
X27035000Y-69580000D03*
X32115000Y-69580000D03*
X27035000Y-72120000D03*
X32115000Y-72120000D03*
X27035000Y-74660000D03*
X32115000Y-74660000D03*
%TD*%
D10*
%TO.C,R4*%
X117840000Y-50530000D03*
D11*
X128000000Y-50530000D03*
%TD*%
D16*
%TO.C,U8*%
X16240000Y-153400000D03*
D11*
X18780000Y-153400000D03*
X21320000Y-153400000D03*
X23860000Y-153400000D03*
X26400000Y-153400000D03*
X28940000Y-153400000D03*
X31480000Y-153400000D03*
X34020000Y-153400000D03*
X36560000Y-153400000D03*
X39100000Y-153400000D03*
X41640000Y-153400000D03*
X44180000Y-153400000D03*
X46720000Y-153400000D03*
X49260000Y-153400000D03*
X51800000Y-153400000D03*
X54340000Y-153400000D03*
X56880000Y-153400000D03*
X59420000Y-153400000D03*
X61960000Y-153400000D03*
X64500000Y-153400000D03*
X64500000Y-138160000D03*
X61960000Y-138160000D03*
X59420000Y-138160000D03*
X56880000Y-138160000D03*
X54340000Y-138160000D03*
X51800000Y-138160000D03*
X49260000Y-138160000D03*
X46720000Y-138160000D03*
X44180000Y-138160000D03*
X41640000Y-138160000D03*
X39100000Y-138160000D03*
X36560000Y-138160000D03*
X34020000Y-138160000D03*
X31480000Y-138160000D03*
X28940000Y-138160000D03*
X26400000Y-138160000D03*
X23860000Y-138160000D03*
X21320000Y-138160000D03*
X18780000Y-138160000D03*
X16240000Y-138160000D03*
%TD*%
D17*
%TO.C,H4*%
X0Y-155000000D03*
%TD*%
D16*
%TO.C,U5*%
X30220000Y-86105000D03*
D11*
X30220000Y-88645000D03*
X30220000Y-91185000D03*
X30220000Y-93725000D03*
X30220000Y-96265000D03*
X30220000Y-98805000D03*
X30220000Y-101345000D03*
X30220000Y-103885000D03*
X37840000Y-103885000D03*
X37840000Y-101345000D03*
X37840000Y-98805000D03*
X37840000Y-96265000D03*
X37840000Y-93725000D03*
X37840000Y-91185000D03*
X37840000Y-88645000D03*
X37840000Y-86105000D03*
%TD*%
D10*
%TO.C,C4*%
X116570000Y-9890000D03*
X116570000Y-12390000D03*
%TD*%
%TO.C,R6*%
X20050000Y-85328000D03*
D11*
X9890000Y-85328000D03*
%TD*%
D22*
%TO.C,D2*%
X109585000Y-46720000D03*
D23*
X109585000Y-56880000D03*
%TD*%
D17*
%TO.C,H2*%
X158000000Y-5000000D03*
%TD*%
D12*
%TO.C,J18*%
X62590000Y-1000000D03*
X67670000Y-1000000D03*
D13*
X62590000Y-3540000D03*
X67670000Y-3540000D03*
X62590000Y-6080000D03*
X67670000Y-6080000D03*
X62590000Y-8620000D03*
X67670000Y-8620000D03*
X62590000Y-11160000D03*
X67670000Y-11160000D03*
X62590000Y-13700000D03*
X67670000Y-13700000D03*
X62590000Y-16240000D03*
X67670000Y-16240000D03*
X62590000Y-18780000D03*
X67670000Y-18780000D03*
X62590000Y-21320000D03*
X67670000Y-21320000D03*
X62590000Y-23860000D03*
X67670000Y-23860000D03*
X62590000Y-26400000D03*
X67670000Y-26400000D03*
X62590000Y-28940000D03*
X67670000Y-28940000D03*
X62590000Y-31480000D03*
X67670000Y-31480000D03*
X62590000Y-34020000D03*
X67670000Y-34020000D03*
X62590000Y-36560000D03*
X67670000Y-36560000D03*
X62590000Y-39100000D03*
X67670000Y-39100000D03*
X62590000Y-41640000D03*
X67670000Y-41640000D03*
X62590000Y-44180000D03*
X67670000Y-44180000D03*
X62590000Y-46720000D03*
X67670000Y-46720000D03*
X62590000Y-49260000D03*
X67670000Y-49260000D03*
X62590000Y-51800000D03*
X67670000Y-51800000D03*
X62590000Y-54340000D03*
X67670000Y-54340000D03*
X62590000Y-56880000D03*
X67670000Y-56880000D03*
X62590000Y-59420000D03*
X67670000Y-59420000D03*
X62590000Y-61960000D03*
X67670000Y-61960000D03*
X62590000Y-64500000D03*
X67670000Y-64500000D03*
X62590000Y-67040000D03*
X67670000Y-67040000D03*
X62590000Y-69580000D03*
X67670000Y-69580000D03*
X62590000Y-72120000D03*
X67670000Y-72120000D03*
X62590000Y-74660000D03*
X67670000Y-74660000D03*
%TD*%
D17*
%TO.C,H3*%
X158000000Y-155000000D03*
%TD*%
D12*
%TO.C,J17*%
X44815000Y-1000000D03*
X49895000Y-1000000D03*
D13*
X44815000Y-3540000D03*
X49895000Y-3540000D03*
X44815000Y-6080000D03*
X49895000Y-6080000D03*
X44815000Y-8620000D03*
X49895000Y-8620000D03*
X44815000Y-11160000D03*
X49895000Y-11160000D03*
X44815000Y-13700000D03*
X49895000Y-13700000D03*
X44815000Y-16240000D03*
X49895000Y-16240000D03*
X44815000Y-18780000D03*
X49895000Y-18780000D03*
X44815000Y-21320000D03*
X49895000Y-21320000D03*
X44815000Y-23860000D03*
X49895000Y-23860000D03*
X44815000Y-26400000D03*
X49895000Y-26400000D03*
X44815000Y-28940000D03*
X49895000Y-28940000D03*
X44815000Y-31480000D03*
X49895000Y-31480000D03*
X44815000Y-34020000D03*
X49895000Y-34020000D03*
X44815000Y-36560000D03*
X49895000Y-36560000D03*
X44815000Y-39100000D03*
X49895000Y-39100000D03*
X44815000Y-41640000D03*
X49895000Y-41640000D03*
X44815000Y-44180000D03*
X49895000Y-44180000D03*
X44815000Y-46720000D03*
X49895000Y-46720000D03*
X44815000Y-49260000D03*
X49895000Y-49260000D03*
X44815000Y-51800000D03*
X49895000Y-51800000D03*
X44815000Y-54340000D03*
X49895000Y-54340000D03*
X44815000Y-56880000D03*
X49895000Y-56880000D03*
X44815000Y-59420000D03*
X49895000Y-59420000D03*
X44815000Y-61960000D03*
X49895000Y-61960000D03*
X44815000Y-64500000D03*
X49895000Y-64500000D03*
X44815000Y-67040000D03*
X49895000Y-67040000D03*
X44815000Y-69580000D03*
X49895000Y-69580000D03*
X44815000Y-72120000D03*
X49895000Y-72120000D03*
X44815000Y-74660000D03*
X49895000Y-74660000D03*
%TD*%
D12*
%TO.C,J22*%
X77200000Y-161020000D03*
D13*
X79740000Y-161020000D03*
X82280000Y-161020000D03*
X84820000Y-161020000D03*
X87360000Y-161020000D03*
X89900000Y-161020000D03*
X92440000Y-161020000D03*
X94980000Y-161020000D03*
X97520000Y-161020000D03*
X100060000Y-161020000D03*
%TD*%
D24*
%TO.C,D3*%
X147050000Y-13700000D03*
D25*
X147050000Y-11160000D03*
%TD*%
D10*
%TO.C,R3*%
X120380000Y-20050000D03*
D11*
X120380000Y-9890000D03*
%TD*%
D10*
%TO.C,R12*%
X117840000Y-45450000D03*
D11*
X128000000Y-45450000D03*
%TD*%
D12*
%TO.C,J3*%
X7604000Y-136890000D03*
D13*
X7604000Y-139430000D03*
X5064000Y-136890000D03*
X5064000Y-139430000D03*
%TD*%
D10*
%TO.C,R13*%
X133080000Y-26400000D03*
D11*
X143240000Y-26400000D03*
%TD*%
D10*
%TO.C,C6*%
X110855000Y-83510000D03*
X110855000Y-81010000D03*
%TD*%
D26*
%TO.C,SW3*%
X120990000Y-2270000D03*
X128000000Y-2270000D03*
D27*
X122240000Y220000D03*
X126740000Y220000D03*
%TD*%
D12*
%TO.C,J23*%
X105140000Y-161020000D03*
D13*
X107680000Y-161020000D03*
X110220000Y-161020000D03*
X112760000Y-161020000D03*
X115300000Y-161020000D03*
X117840000Y-161020000D03*
X120380000Y-161020000D03*
X122920000Y-161020000D03*
X125460000Y-161020000D03*
X128000000Y-161020000D03*
%TD*%
D10*
%TO.C,R14*%
X147050000Y-18780000D03*
D11*
X147050000Y-28940000D03*
%TD*%
M02*
