M48
; DRILL file {KiCad (5.99.0-7356-g63088e8bdb)} date Tue Jun 15 08:44:55 2021
; FORMAT={-:-/ absolute / metric / decimal}
; #@! TF.CreationDate,2021-06-15T08:44:55+08:00
; #@! TF.GenerationSoftware,Kicad,Pcbnew,(5.99.0-7356-g63088e8bdb)
; #@! TF.FileFunction,Plated,1,2,PTH
FMAT,2
METRIC
T1C0.300
T2C0.400
T3C0.800
T4C0.900
T5C0.920
T6C0.990
T7C1.000
T8C1.100
T9C1.200
T10C1.300
T11C2.330
T12C3.200
%
G90
G05
T1
X26.162Y-52.959
X26.162Y-82.55
X26.924Y-50.419
X26.924Y-83.312
X27.686Y-49.149
X27.686Y-94.742
X28.448Y-47.879
X28.448Y-84.074
X29.21Y-46.609
X29.21Y-93.98
X29.972Y-45.339
X29.972Y-84.836
X30.734Y-44.069
X30.734Y-93.218
X31.496Y-42.799
X31.496Y-85.598
X32.258Y-41.529
X32.258Y-92.456
X32.975Y-40.259
X33.02Y-86.36
X33.782Y-38.862
X33.782Y-91.694
X34.544Y-37.592
X34.544Y-87.122
X35.306Y-36.449
X35.306Y-90.932
X36.068Y-35.179
X36.068Y-87.884
X36.785Y-33.909
X36.83Y-90.17
X37.547Y-31.369
X37.592Y-89.408
X38.354Y-56.642
X38.354Y-81.788
X39.116Y-59.309
X39.116Y-95.504
X39.878Y-61.849
X39.878Y-96.266
X40.64Y-64.262
X40.64Y-97.028
X41.402Y-66.802
X41.402Y-97.79
X42.164Y-69.342
X42.164Y-98.552
X42.926Y-71.882
X42.926Y-99.314
X43.688Y-74.422
X43.688Y-100.076
X44.41Y-88.644
X44.958Y-114.3
X45.974Y-116.84
X46.735Y-119.396
X46.736Y-89.408
X47.498Y-90.17
X47.513Y-121.92
X48.26Y-90.932
X48.275Y-124.46
X49.022Y-91.694
X49.037Y-127.0
X49.828Y-81.026
X50.56Y-82.55
X50.56Y-149.86
X51.322Y-83.312
X51.322Y-147.32
X52.068Y-144.796
X52.07Y-84.074
X52.83Y-142.256
X52.832Y-84.836
X53.592Y-139.716
X53.594Y-85.598
X54.354Y-137.16
X54.356Y-86.36
X55.117Y-134.62
X55.118Y-87.122
X55.878Y-132.096
X55.88Y-87.884
X56.641Y-129.54
X56.642Y-115.57
X62.128Y-81.026
X67.31Y-101.6
X67.31Y-165.862
X68.071Y-127.0
X68.072Y-100.838
X68.834Y-97.79
X68.834Y-162.56
X69.596Y-97.028
X69.596Y-160.02
X70.358Y-96.266
X70.358Y-157.48
X71.12Y-95.504
X71.12Y-154.94
X71.882Y-94.742
X71.882Y-152.4
X72.644Y-93.98
X72.644Y-149.86
X73.406Y-93.218
X73.406Y-147.32
X74.1Y-144.83
X74.168Y-92.456
X74.93Y-91.738
X74.93Y-142.24
X75.692Y-90.932
X75.692Y-139.7
X75.91Y-88.644
X76.41Y-77.044
X76.454Y-90.17
X76.454Y-137.16
X77.216Y-89.408
X77.216Y-134.62
X77.977Y-151.13
X77.978Y-60.579
X77.978Y-121.92
X78.695Y-65.659
X79.502Y-49.165
X79.502Y-94.742
X80.264Y-46.609
X80.264Y-93.98
X81.026Y-44.085
X81.026Y-93.218
X81.788Y-41.529
X81.788Y-92.456
X82.55Y-38.989
X82.55Y-91.694
X83.312Y-36.449
X83.312Y-90.932
X84.074Y-33.909
X84.074Y-90.17
X84.836Y-31.242
X84.836Y-89.408
X85.598Y-59.309
X85.598Y-95.504
X86.36Y-61.849
X86.36Y-96.266
X87.122Y-64.278
X87.122Y-97.028
X87.884Y-66.818
X87.884Y-97.79
X88.646Y-69.358
X88.646Y-98.552
X89.408Y-72.025
X89.408Y-99.314
X90.17Y-74.565
X90.17Y-100.076
X91.01Y-81.026
X91.01Y-129.544
X91.01Y-169.418
X91.948Y-87.884
X91.948Y-132.08
X92.71Y-87.122
X92.71Y-134.62
X93.472Y-68.072
X93.472Y-86.36
X93.472Y-137.16
X94.234Y-85.598
X94.234Y-139.7
X94.996Y-84.836
X94.996Y-135.89
X94.996Y-142.24
X95.758Y-84.074
X95.758Y-133.35
X95.758Y-144.78
X96.52Y-83.312
X96.52Y-130.81
X96.52Y-147.32
X97.282Y-82.55
X97.282Y-128.27
X97.282Y-149.86
X98.01Y-152.4
X98.044Y-88.644
X98.806Y-129.032
X98.806Y-170.18
X103.124Y-89.408
X103.124Y-129.54
X103.886Y-90.17
X103.886Y-127.0
X104.648Y-90.932
X104.648Y-124.46
X105.41Y-91.694
X105.41Y-121.92
X106.172Y-92.456
X106.172Y-119.38
X106.934Y-93.218
X106.934Y-116.84
X107.696Y-93.98
X107.696Y-114.3
X108.458Y-94.742
X108.458Y-111.76
X109.22Y-99.314
X109.22Y-110.744
X109.22Y-157.48
X109.982Y-98.552
X109.982Y-109.22
X109.982Y-160.02
X110.744Y-100.076
X110.744Y-106.68
X110.744Y-154.94
X112.522Y-95.504
X112.522Y-114.3
X113.284Y-96.266
X113.284Y-116.84
X114.046Y-97.79
X114.046Y-119.38
X114.808Y-97.028
X114.808Y-124.46
X115.61Y-81.044
X116.332Y-100.838
X117.856Y-81.788
X121.412Y-55.499
X122.174Y-66.802
X123.19Y-125.984
X131.064Y-127.0
X131.826Y-130.81
X132.588Y-133.35
X133.35Y-135.89
X134.112Y-138.43
X134.874Y-137.16
X135.636Y-134.62
X136.398Y-132.08
X139.192Y-128.27
X139.827Y-101.6
X148.082Y-168.91
T2
X66.592Y-102.362
T3
X40.148Y-162.56
X40.148Y-165.06
X42.925Y-114.3
X42.925Y-116.84
X42.925Y-119.38
X42.925Y-121.92
X42.925Y-124.46
X42.925Y-127.0
X42.925Y-129.54
X42.925Y-132.08
X42.925Y-134.62
X42.925Y-137.16
X42.925Y-139.7
X42.925Y-142.24
X42.925Y-144.78
X42.925Y-147.32
X42.925Y-149.86
X42.925Y-152.4
X42.925Y-154.94
X42.925Y-157.48
X42.925Y-160.02
X42.925Y-162.56
X45.679Y-28.829
X45.679Y-31.369
X45.679Y-33.909
X45.679Y-36.449
X45.679Y-38.989
X45.679Y-41.529
X45.679Y-44.069
X45.679Y-46.609
X45.679Y-49.149
X45.679Y-51.689
X45.741Y-56.647
X45.741Y-59.187
X45.741Y-61.727
X45.741Y-64.267
X45.741Y-66.807
X45.741Y-69.347
X45.741Y-71.887
X45.741Y-74.427
X45.741Y-76.967
X45.741Y-79.507
X53.299Y-28.829
X53.299Y-31.369
X53.299Y-33.909
X53.299Y-36.449
X53.299Y-38.989
X53.299Y-41.529
X53.299Y-44.069
X53.299Y-46.609
X53.299Y-49.149
X53.299Y-51.689
X53.361Y-56.647
X53.361Y-59.187
X53.361Y-61.727
X53.361Y-64.267
X53.361Y-66.807
X53.361Y-69.347
X53.361Y-71.887
X53.361Y-74.427
X53.361Y-76.967
X53.361Y-79.507
X58.165Y-114.3
X58.165Y-116.84
X58.165Y-119.38
X58.165Y-121.92
X58.165Y-124.46
X58.165Y-127.0
X58.165Y-129.54
X58.165Y-132.08
X58.165Y-134.62
X58.165Y-137.16
X58.165Y-139.7
X58.165Y-142.24
X58.165Y-144.78
X58.165Y-147.32
X58.165Y-149.86
X58.165Y-152.4
X58.165Y-154.94
X58.165Y-157.48
X58.165Y-160.02
X58.165Y-162.56
X58.42Y-170.764
X58.42Y-178.384
X61.31Y-111.326
X63.263Y-131.844
X63.263Y-134.344
X63.31Y-111.326
X66.04Y-114.3
X66.04Y-116.84
X66.04Y-119.38
X66.04Y-121.92
X66.04Y-124.46
X66.04Y-127.0
X66.04Y-129.54
X66.04Y-132.08
X66.04Y-134.62
X66.04Y-137.16
X66.04Y-139.7
X66.04Y-142.24
X66.04Y-144.78
X66.04Y-147.32
X66.04Y-149.86
X66.04Y-152.4
X66.04Y-154.94
X66.04Y-157.48
X66.04Y-160.02
X66.04Y-162.56
X70.36Y-30.083
X70.36Y-32.623
X70.36Y-35.163
X70.36Y-37.703
X70.36Y-40.243
X70.36Y-42.783
X70.36Y-45.323
X70.36Y-47.863
X70.36Y-50.403
X70.36Y-52.943
X72.898Y-64.324
X72.898Y-74.484
X73.66Y-170.764
X73.66Y-178.384
X77.98Y-30.083
X77.98Y-32.623
X77.98Y-35.163
X77.98Y-37.703
X77.98Y-40.243
X77.98Y-42.783
X77.98Y-45.323
X77.98Y-47.863
X77.98Y-50.403
X77.98Y-52.943
X79.248Y-104.394
X79.248Y-107.723
X81.245Y-110.98
X81.28Y-114.3
X81.28Y-116.84
X81.28Y-119.38
X81.28Y-121.92
X81.28Y-124.46
X81.28Y-127.0
X81.28Y-129.54
X81.28Y-132.08
X81.28Y-134.62
X81.28Y-137.16
X81.28Y-139.7
X81.28Y-142.24
X81.28Y-144.78
X81.28Y-147.32
X81.28Y-149.86
X81.28Y-152.4
X81.28Y-154.94
X81.28Y-157.48
X81.28Y-160.02
X81.28Y-162.56
X84.72Y-114.3
X84.72Y-124.46
X86.245Y-110.98
X88.016Y-114.367
X88.016Y-124.527
X89.408Y-104.394
X89.408Y-107.723
X91.821Y-28.829
X91.821Y-31.369
X91.821Y-33.909
X91.821Y-36.449
X91.821Y-38.989
X91.821Y-41.529
X91.821Y-44.069
X91.821Y-46.609
X91.821Y-49.149
X91.821Y-51.689
X91.821Y-56.769
X91.821Y-59.309
X91.821Y-61.849
X91.821Y-64.389
X91.821Y-66.929
X91.821Y-69.469
X91.821Y-72.009
X91.821Y-74.549
X91.821Y-77.089
X91.821Y-79.629
X99.441Y-28.829
X99.441Y-31.369
X99.441Y-33.909
X99.441Y-36.449
X99.441Y-38.989
X99.441Y-41.529
X99.441Y-44.069
X99.441Y-46.609
X99.441Y-49.149
X99.441Y-51.689
X99.441Y-56.769
X99.441Y-59.309
X99.441Y-61.849
X99.441Y-64.389
X99.441Y-66.929
X99.441Y-69.469
X99.441Y-72.009
X99.441Y-74.549
X99.441Y-77.089
X99.441Y-79.629
X101.6Y-106.68
X101.6Y-109.22
X101.6Y-111.76
X101.6Y-114.3
X101.6Y-116.84
X101.6Y-119.38
X101.6Y-121.92
X101.6Y-124.46
X101.6Y-127.0
X101.6Y-129.54
X101.6Y-132.08
X101.6Y-134.62
X101.6Y-137.16
X101.6Y-139.7
X115.824Y-149.86
X115.824Y-152.4
X115.824Y-154.94
X115.824Y-157.48
X115.824Y-160.02
X115.824Y-162.56
X115.824Y-165.1
X115.824Y-167.64
X115.824Y-170.18
X115.824Y-172.72
X115.824Y-175.26
X115.824Y-177.8
X116.84Y-106.68
X116.84Y-109.22
X116.84Y-111.76
X116.84Y-114.3
X116.84Y-116.84
X116.84Y-119.38
X116.84Y-121.92
X116.84Y-124.46
X116.84Y-127.0
X116.84Y-129.54
X116.84Y-132.08
X116.84Y-134.62
X116.84Y-137.16
X116.84Y-139.7
X117.094Y-30.099
X117.094Y-32.639
X117.094Y-35.179
X117.094Y-37.719
X117.094Y-40.259
X117.094Y-42.799
X117.094Y-45.339
X117.094Y-47.879
X117.094Y-50.419
X117.094Y-52.959
X118.364Y-64.383
X118.364Y-74.543
X119.651Y-104.18
X119.651Y-106.68
X123.444Y-149.86
X123.444Y-152.4
X123.444Y-154.94
X123.444Y-157.48
X123.444Y-160.02
X123.444Y-162.56
X123.444Y-165.1
X123.444Y-167.64
X123.444Y-170.18
X123.444Y-172.72
X123.444Y-175.26
X123.444Y-177.8
X124.714Y-30.099
X124.714Y-32.639
X124.714Y-35.179
X124.714Y-37.719
X124.714Y-40.259
X124.714Y-42.799
X124.714Y-45.339
X124.714Y-47.879
X124.714Y-50.419
X124.714Y-52.959
X126.884Y-149.787
X126.884Y-154.787
X130.048Y-149.86
X130.048Y-152.4
X130.048Y-154.94
X130.048Y-157.48
X130.048Y-160.02
X130.048Y-162.56
X130.048Y-165.1
X130.048Y-167.64
X130.048Y-170.18
X130.048Y-172.72
X133.858Y-53.118
X133.858Y-55.118
X134.739Y-69.14
X134.739Y-79.3
X137.668Y-149.86
X137.668Y-152.4
X137.668Y-154.94
X137.668Y-157.48
X137.668Y-160.02
X137.668Y-162.56
X137.668Y-165.1
X137.668Y-167.64
X137.668Y-170.18
X137.668Y-172.72
X141.478Y-62.23
X141.478Y-67.31
X144.202Y-149.86
X144.202Y-152.4
X144.202Y-154.94
X144.202Y-157.48
X144.202Y-160.02
X144.202Y-162.56
X144.202Y-165.1
X144.202Y-167.64
X146.163Y-53.082
X146.163Y-55.082
X147.574Y-62.23
X147.574Y-67.31
X149.098Y-104.18
X149.098Y-106.68
X151.822Y-149.86
X151.822Y-152.4
X151.822Y-154.94
X151.822Y-157.48
X151.822Y-160.02
X151.822Y-162.56
X151.822Y-165.1
X151.822Y-167.64
T4
X132.08Y-64.008
X134.62Y-64.008
X161.544Y-72.772
X161.544Y-76.772
X161.544Y-80.772
T5
X153.162Y-44.45
X153.162Y-46.95
X155.162Y-44.45
X155.162Y-46.95
T6
X164.592Y-89.154
X164.592Y-93.654
T7
X30.225Y-101.6
X30.225Y-104.14
X30.225Y-109.22
X30.225Y-111.76
X30.225Y-114.3
X30.225Y-116.84
X30.225Y-119.38
X30.225Y-121.92
X30.225Y-124.46
X30.225Y-127.0
X30.225Y-129.54
X30.225Y-132.08
X30.225Y-137.16
X30.225Y-139.7
X30.225Y-142.24
X30.225Y-144.78
X30.225Y-147.32
X30.225Y-149.86
X30.225Y-152.4
X30.225Y-154.94
X30.225Y-157.48
X30.225Y-160.02
X60.87Y-32.644
X60.87Y-35.184
X60.87Y-37.724
X60.87Y-40.264
X60.87Y-42.804
X60.87Y-45.344
X60.87Y-47.884
X60.87Y-50.424
X60.87Y-52.964
X60.87Y-55.504
X60.87Y-58.044
X60.87Y-60.584
X60.87Y-63.124
X60.87Y-65.664
X60.87Y-68.204
X60.87Y-70.744
X63.41Y-32.644
X63.41Y-35.184
X63.41Y-37.724
X63.41Y-40.264
X63.41Y-42.804
X63.41Y-45.344
X63.41Y-47.884
X63.41Y-50.424
X63.41Y-52.964
X63.41Y-55.504
X63.41Y-58.044
X63.41Y-60.584
X63.41Y-63.124
X63.41Y-65.664
X63.41Y-68.204
X63.41Y-70.744
X72.898Y-58.166
X72.898Y-60.706
X78.69Y-179.044
X78.74Y-170.873
X78.74Y-173.413
X81.23Y-179.044
X81.28Y-170.873
X81.28Y-173.413
X83.77Y-179.044
X85.09Y-127.508
X86.31Y-179.044
X87.63Y-127.508
X107.57Y-32.644
X107.57Y-35.184
X107.57Y-37.724
X107.57Y-40.264
X107.57Y-42.804
X107.57Y-45.344
X107.57Y-47.884
X107.57Y-50.424
X107.57Y-52.964
X107.57Y-55.504
X107.57Y-58.044
X107.57Y-60.584
X107.57Y-63.124
X107.57Y-65.664
X107.57Y-68.204
X107.57Y-70.744
X110.11Y-32.644
X110.11Y-35.184
X110.11Y-37.724
X110.11Y-40.264
X110.11Y-42.804
X110.11Y-45.344
X110.11Y-47.884
X110.11Y-50.424
X110.11Y-52.964
X110.11Y-55.504
X110.11Y-58.044
X110.11Y-60.584
X110.11Y-63.124
X110.11Y-65.664
X110.11Y-68.204
X110.11Y-70.744
X118.364Y-58.166
X118.364Y-60.706
X127.254Y-106.68
X127.254Y-109.22
X127.254Y-111.76
X127.254Y-114.3
X127.254Y-116.84
X127.254Y-119.38
X127.254Y-121.92
X127.254Y-124.46
X127.254Y-127.0
X127.254Y-129.54
X127.254Y-132.08
X127.254Y-134.62
X127.254Y-137.16
X127.254Y-139.7
X141.478Y-71.374
X141.478Y-84.074
X142.494Y-106.68
X142.494Y-109.22
X142.494Y-111.76
X142.494Y-114.3
X142.494Y-116.84
X142.494Y-119.38
X142.494Y-121.92
X142.494Y-124.46
X142.494Y-127.0
X142.494Y-129.54
X142.494Y-132.08
X142.494Y-134.62
X142.494Y-137.16
X142.494Y-139.7
X147.574Y-71.374
X147.574Y-84.074
T8
X137.282Y-48.629
X139.822Y-48.629
X142.362Y-48.629
T9
X159.794Y-70.772
X159.794Y-82.772
X165.794Y-70.772
X165.794Y-82.772
T10
X162.102Y-87.904
X162.102Y-94.914
T11
X157.872Y-39.68
X157.872Y-51.72
T12
X28.116Y-30.0
X28.116Y-180.0
X163.116Y-30.0
X163.116Y-180.0
T7
G00X154.686Y-63.23
M15
G01X154.686Y-61.23
M16
G05
G00X158.686Y-57.53
M15
G01X156.686Y-57.53
M16
G05
G00X160.686Y-63.23
M15
G01X160.686Y-61.23
M16
G05
T0
M30
