%TF.GenerationSoftware,KiCad,Pcbnew,7.0.3*%
%TF.CreationDate,2023-05-19T23:21:28+08:00*%
%TF.ProjectId,MotherBoard,4d6f7468-6572-4426-9f61-72642e6b6963,rev?*%
%TF.SameCoordinates,PX10513f0PY11c7c20*%
%TF.FileFunction,Copper,L1,Top*%
%TF.FilePolarity,Positive*%
%FSLAX46Y46*%
G04 Gerber Fmt 4.6, Leading zero omitted, Abs format (unit mm)*
G04 Created by KiCad (PCBNEW 7.0.3) date 2023-05-19 23:21:28*
%MOMM*%
%LPD*%
G01*
G04 APERTURE LIST*
G04 Aperture macros list*
%AMRoundRect*
0 Rectangle with rounded corners*
0 $1 Rounding radius*
0 $2 $3 $4 $5 $6 $7 $8 $9 X,Y pos of 4 corners*
0 Add a 4 corners polygon primitive as box body*
4,1,4,$2,$3,$4,$5,$6,$7,$8,$9,$2,$3,0*
0 Add four circle primitives for the rounded corners*
1,1,$1+$1,$2,$3*
1,1,$1+$1,$4,$5*
1,1,$1+$1,$6,$7*
1,1,$1+$1,$8,$9*
0 Add four rect primitives between the rounded corners*
20,1,$1+$1,$2,$3,$4,$5,0*
20,1,$1+$1,$4,$5,$6,$7,0*
20,1,$1+$1,$6,$7,$8,$9,0*
20,1,$1+$1,$8,$9,$2,$3,0*%
G04 Aperture macros list end*
%TA.AperFunction,ComponentPad*%
%ADD10C,1.600000*%
%TD*%
%TA.AperFunction,ComponentPad*%
%ADD11O,1.600000X1.600000*%
%TD*%
%TA.AperFunction,ComponentPad*%
%ADD12R,1.700000X1.700000*%
%TD*%
%TA.AperFunction,ComponentPad*%
%ADD13O,1.700000X1.700000*%
%TD*%
%TA.AperFunction,ComponentPad*%
%ADD14R,1.905000X2.000000*%
%TD*%
%TA.AperFunction,ComponentPad*%
%ADD15O,1.905000X2.000000*%
%TD*%
%TA.AperFunction,ComponentPad*%
%ADD16R,1.600000X1.600000*%
%TD*%
%TA.AperFunction,ComponentPad*%
%ADD17C,1.700000*%
%TD*%
%TA.AperFunction,ComponentPad*%
%ADD18C,3.500000*%
%TD*%
%TA.AperFunction,ComponentPad*%
%ADD19C,2.000000*%
%TD*%
%TA.AperFunction,ComponentPad*%
%ADD20O,2.000000X2.000000*%
%TD*%
%TA.AperFunction,ComponentPad*%
%ADD21R,1.800000X1.800000*%
%TD*%
%TA.AperFunction,ComponentPad*%
%ADD22C,1.800000*%
%TD*%
%TA.AperFunction,ComponentPad*%
%ADD23R,2.200000X2.200000*%
%TD*%
%TA.AperFunction,ComponentPad*%
%ADD24O,2.200000X2.200000*%
%TD*%
%TA.AperFunction,ComponentPad*%
%ADD25R,3.500000X3.500000*%
%TD*%
%TA.AperFunction,ComponentPad*%
%ADD26RoundRect,0.750000X-1.000000X0.750000X-1.000000X-0.750000X1.000000X-0.750000X1.000000X0.750000X0*%
%TD*%
%TA.AperFunction,ComponentPad*%
%ADD27RoundRect,0.875000X-0.875000X0.875000X-0.875000X-0.875000X0.875000X-0.875000X0.875000X0.875000X0*%
%TD*%
%TA.AperFunction,ComponentPad*%
%ADD28C,2.100000*%
%TD*%
%TA.AperFunction,ComponentPad*%
%ADD29C,1.750000*%
%TD*%
%TA.AperFunction,ViaPad*%
%ADD30C,0.600000*%
%TD*%
%TA.AperFunction,Conductor*%
%ADD31C,0.300000*%
%TD*%
%TA.AperFunction,Conductor*%
%ADD32C,0.500000*%
%TD*%
G04 APERTURE END LIST*
D10*
%TO.P,R11,1*%
%TO.N,/North Bridge/RDY*%
X108950000Y-61960000D03*
D11*
%TO.P,R11,2*%
%TO.N,+5V*%
X119110000Y-61960000D03*
%TD*%
D10*
%TO.P,R9,1*%
%TO.N,Net-(J10-Pin_2)*%
X37830000Y-64500000D03*
D11*
%TO.P,R9,2*%
%TO.N,+5V*%
X37830000Y-74660000D03*
%TD*%
D12*
%TO.P,J5,1,Pin_1*%
%TO.N,/North Bridge/NMIB*%
X114030000Y-57139000D03*
D13*
%TO.P,J5,2,Pin_2*%
%TO.N,Net-(J5-Pin_2)*%
X114030000Y-54599000D03*
%TD*%
D14*
%TO.P,U2,1,GND*%
%TO.N,GND*%
X110220000Y-35830000D03*
D15*
%TO.P,U2,2,VO*%
%TO.N,Net-(SW2-A)*%
X112760000Y-35830000D03*
%TO.P,U2,3,VI*%
%TO.N,Net-(#FLG01-pwr)*%
X115300000Y-35830000D03*
%TD*%
D12*
%TO.P,J7,1,Pin_1*%
%TO.N,/Ports/IRQ2B*%
X25765000Y-85328000D03*
D13*
%TO.P,J7,2,Pin_2*%
%TO.N,Net-(J7-Pin_2)*%
X23225000Y-85328000D03*
%TD*%
D16*
%TO.P,U6,1,OE*%
%TO.N,Net-(U6-OE)*%
X44180000Y-86090000D03*
D11*
%TO.P,U6,2,D0*%
%TO.N,GND*%
X44180000Y-88630000D03*
%TO.P,U6,3,D1*%
%TO.N,Net-(U5-S0)*%
X44180000Y-91170000D03*
%TO.P,U6,4,D2*%
%TO.N,Net-(U5-S1)*%
X44180000Y-93710000D03*
%TO.P,U6,5,D3*%
%TO.N,Net-(U5-S2)*%
X44180000Y-96250000D03*
%TO.P,U6,6,D4*%
%TO.N,GND*%
X44180000Y-98790000D03*
%TO.P,U6,7,D5*%
X44180000Y-101330000D03*
%TO.P,U6,8,D6*%
X44180000Y-103870000D03*
%TO.P,U6,9,D7*%
X44180000Y-106410000D03*
%TO.P,U6,10,GND*%
X44180000Y-108950000D03*
%TO.P,U6,11,Cp*%
%TO.N,CLOCK*%
X51800000Y-108950000D03*
%TO.P,U6,12,Q7*%
%TO.N,/GPIO/D7*%
X51800000Y-106410000D03*
%TO.P,U6,13,Q6*%
%TO.N,/GPIO/D6*%
X51800000Y-103870000D03*
%TO.P,U6,14,Q5*%
%TO.N,/GPIO/D5*%
X51800000Y-101330000D03*
%TO.P,U6,15,Q4*%
%TO.N,/GPIO/D4*%
X51800000Y-98790000D03*
%TO.P,U6,16,Q3*%
%TO.N,/GPIO/D3*%
X51800000Y-96250000D03*
%TO.P,U6,17,Q2*%
%TO.N,/GPIO/D2*%
X51800000Y-93710000D03*
%TO.P,U6,18,Q1*%
%TO.N,/GPIO/D1*%
X51800000Y-91170000D03*
%TO.P,U6,19,Q0*%
%TO.N,/GPIO/D0*%
X51800000Y-88630000D03*
%TO.P,U6,20,VCC*%
%TO.N,+5V*%
X51800000Y-86090000D03*
%TD*%
D10*
%TO.P,C10,1*%
%TO.N,+5V*%
X38485000Y-82915000D03*
%TO.P,C10,2*%
%TO.N,GND*%
X40985000Y-82915000D03*
%TD*%
D16*
%TO.P,U1,1,Q1*%
%TO.N,/4MHz*%
X2270000Y-110855000D03*
D11*
%TO.P,U1,2,Q2*%
%TO.N,/2MHz*%
X2270000Y-113395000D03*
%TO.P,U1,3,Q3*%
%TO.N,/1MHz*%
X2270000Y-115935000D03*
%TO.P,U1,4,Q4*%
%TO.N,unconnected-(U1-Q4-Pad4)*%
X2270000Y-118475000D03*
%TO.P,U1,5,Q5*%
%TO.N,unconnected-(U1-Q5-Pad5)*%
X2270000Y-121015000D03*
%TO.P,U1,6,Q6*%
%TO.N,unconnected-(U1-Q6-Pad6)*%
X2270000Y-123555000D03*
%TO.P,U1,7,Q7*%
%TO.N,unconnected-(U1-Q7-Pad7)*%
X2270000Y-126095000D03*
%TO.P,U1,8,GND*%
%TO.N,GND*%
X2270000Y-128635000D03*
%TO.P,U1,9,~{RCO}*%
%TO.N,unconnected-(U1-~{RCO}-Pad9)*%
X9890000Y-128635000D03*
%TO.P,U1,10,~{MRC}*%
%TO.N,+5V*%
X9890000Y-126095000D03*
%TO.P,U1,11,CPC*%
%TO.N,/16MHz*%
X9890000Y-123555000D03*
%TO.P,U1,12,~{CE}*%
%TO.N,GND*%
X9890000Y-121015000D03*
%TO.P,U1,13,CPR*%
%TO.N,/16MHz*%
X9890000Y-118475000D03*
%TO.P,U1,14,~{OE}*%
%TO.N,GND*%
X9890000Y-115935000D03*
%TO.P,U1,15,Q0*%
%TO.N,/8MHz*%
X9890000Y-113395000D03*
%TO.P,U1,16,VCC*%
%TO.N,+5V*%
X9890000Y-110855000D03*
%TD*%
D12*
%TO.P,J10,1,Pin_1*%
%TO.N,/Ports/IRQ5B*%
X37830000Y-58404000D03*
D13*
%TO.P,J10,2,Pin_2*%
%TO.N,Net-(J10-Pin_2)*%
X37830000Y-60944000D03*
%TD*%
D16*
%TO.P,U9,1,GND*%
%TO.N,GND*%
X82280000Y-153400000D03*
D11*
%TO.P,U9,2,PA0*%
%TO.N,PA20*%
X84820000Y-153400000D03*
%TO.P,U9,3,PA1*%
%TO.N,PA21*%
X87360000Y-153400000D03*
%TO.P,U9,4,PA2*%
%TO.N,PA22*%
X89900000Y-153400000D03*
%TO.P,U9,5,PA3*%
%TO.N,PA23*%
X92440000Y-153400000D03*
%TO.P,U9,6,PA4*%
%TO.N,PA24*%
X94980000Y-153400000D03*
%TO.P,U9,7,PA5*%
%TO.N,PA25*%
X97520000Y-153400000D03*
%TO.P,U9,8,PA6*%
%TO.N,PA26*%
X100060000Y-153400000D03*
%TO.P,U9,9,PA7*%
%TO.N,PA27*%
X102600000Y-153400000D03*
%TO.P,U9,10,PB0*%
%TO.N,PB20*%
X105140000Y-153400000D03*
%TO.P,U9,11,PB1*%
%TO.N,PB21*%
X107680000Y-153400000D03*
%TO.P,U9,12,PB2*%
%TO.N,PB22*%
X110220000Y-153400000D03*
%TO.P,U9,13,PB3*%
%TO.N,PB23*%
X112760000Y-153400000D03*
%TO.P,U9,14,PB4*%
%TO.N,PB24*%
X115300000Y-153400000D03*
%TO.P,U9,15,PB5*%
%TO.N,PB25*%
X117840000Y-153400000D03*
%TO.P,U9,16,PB6*%
%TO.N,PB26*%
X120380000Y-153400000D03*
%TO.P,U9,17,PB7*%
%TO.N,PB27*%
X122920000Y-153400000D03*
%TO.P,U9,18,CB1*%
%TO.N,CB21*%
X125460000Y-153400000D03*
%TO.P,U9,19,CB2*%
%TO.N,CB22*%
X128000000Y-153400000D03*
%TO.P,U9,20,VCC*%
%TO.N,+5V*%
X130540000Y-153400000D03*
%TO.P,U9,21,~{IRQ}*%
%TO.N,/GPIO/IRQ1B*%
X130540000Y-138160000D03*
%TO.P,U9,22,R/~{W}*%
%TO.N,/GPIO/RW*%
X128000000Y-138160000D03*
%TO.P,U9,23,~{CS2}*%
%TO.N,/GPIO/CIA2CSB*%
X125460000Y-138160000D03*
%TO.P,U9,24,CS1*%
%TO.N,+5V*%
X122920000Y-138160000D03*
%TO.P,U9,25,PHI2*%
%TO.N,CLOCK*%
X120380000Y-138160000D03*
%TO.P,U9,26,D7*%
%TO.N,/GPIO/D7*%
X117840000Y-138160000D03*
%TO.P,U9,27,D6*%
%TO.N,/GPIO/D6*%
X115300000Y-138160000D03*
%TO.P,U9,28,D5*%
%TO.N,/GPIO/D5*%
X112760000Y-138160000D03*
%TO.P,U9,29,D4*%
%TO.N,/GPIO/D4*%
X110220000Y-138160000D03*
%TO.P,U9,30,D3*%
%TO.N,/GPIO/D3*%
X107680000Y-138160000D03*
%TO.P,U9,31,D2*%
%TO.N,/GPIO/D2*%
X105140000Y-138160000D03*
%TO.P,U9,32,D1*%
%TO.N,/GPIO/D1*%
X102600000Y-138160000D03*
%TO.P,U9,33,D0*%
%TO.N,/GPIO/D0*%
X100060000Y-138160000D03*
%TO.P,U9,34,~{RESET}*%
%TO.N,RESET*%
X97520000Y-138160000D03*
%TO.P,U9,35,RS3*%
%TO.N,/GPIO/A3*%
X94980000Y-138160000D03*
%TO.P,U9,36,RS2*%
%TO.N,/GPIO/A2*%
X92440000Y-138160000D03*
%TO.P,U9,37,RS1*%
%TO.N,/GPIO/A1*%
X89900000Y-138160000D03*
%TO.P,U9,38,RS0*%
%TO.N,/GPIO/A0*%
X87360000Y-138160000D03*
%TO.P,U9,39,CA2*%
%TO.N,CA22*%
X84820000Y-138160000D03*
%TO.P,U9,40,CA1*%
%TO.N,CA21*%
X82280000Y-138160000D03*
%TD*%
D10*
%TO.P,R1,1*%
%TO.N,Net-(D1-K)*%
X161020000Y-21320000D03*
D11*
%TO.P,R1,2*%
%TO.N,GND*%
X161020000Y-31480000D03*
%TD*%
D12*
%TO.P,J4,1,Pin_1*%
%TO.N,RESET*%
X1000000Y-133080000D03*
D13*
%TO.P,J4,2,Pin_2*%
%TO.N,ECLOCK*%
X1000000Y-135620000D03*
%TO.P,J4,3,Pin_3*%
%TO.N,GND*%
X1000000Y-138160000D03*
%TO.P,J4,4,Pin_4*%
%TO.N,+5V*%
X1000000Y-140700000D03*
%TD*%
D12*
%TO.P,J19,1,Pin_1*%
%TO.N,PA10*%
X11160000Y-161020000D03*
D13*
%TO.P,J19,2,Pin_2*%
%TO.N,PA11*%
X13700000Y-161020000D03*
%TO.P,J19,3,Pin_3*%
%TO.N,PA12*%
X16240000Y-161020000D03*
%TO.P,J19,4,Pin_4*%
%TO.N,PA13*%
X18780000Y-161020000D03*
%TO.P,J19,5,Pin_5*%
%TO.N,PA14*%
X21320000Y-161020000D03*
%TO.P,J19,6,Pin_6*%
%TO.N,PA15*%
X23860000Y-161020000D03*
%TO.P,J19,7,Pin_7*%
%TO.N,PA16*%
X26400000Y-161020000D03*
%TO.P,J19,8,Pin_8*%
%TO.N,PA17*%
X28940000Y-161020000D03*
%TO.P,J19,9,Pin_9*%
%TO.N,CA11*%
X31480000Y-161020000D03*
%TO.P,J19,10,Pin_10*%
%TO.N,CA12*%
X34020000Y-161020000D03*
%TD*%
D10*
%TO.P,C8,1*%
%TO.N,+5V*%
X67675000Y-82875000D03*
%TO.P,C8,2*%
%TO.N,GND*%
X67675000Y-80375000D03*
%TD*%
D16*
%TO.P,U7,1,CLK*%
%TO.N,CLOCK*%
X58795000Y-86085000D03*
D11*
%TO.P,U7,2,I0*%
%TO.N,/GPIO/A15*%
X58795000Y-88625000D03*
%TO.P,U7,3,I1*%
%TO.N,/GPIO/A14*%
X58795000Y-91165000D03*
%TO.P,U7,4,I2*%
%TO.N,/GPIO/A13*%
X58795000Y-93705000D03*
%TO.P,U7,5,I3*%
%TO.N,/GPIO/A12*%
X58795000Y-96245000D03*
%TO.P,U7,6,I4*%
%TO.N,/GPIO/A11*%
X58795000Y-98785000D03*
%TO.P,U7,7,I5*%
%TO.N,/GPIO/A10*%
X58795000Y-101325000D03*
%TO.P,U7,8,I6*%
%TO.N,/GPIO/A9*%
X58795000Y-103865000D03*
%TO.P,U7,9,I7*%
%TO.N,/GPIO/A8*%
X58795000Y-106405000D03*
%TO.P,U7,10,I8*%
%TO.N,/North Bridge/DMAB*%
X58795000Y-108945000D03*
%TO.P,U7,11,I9*%
%TO.N,GND*%
X58795000Y-111485000D03*
%TO.P,U7,12,GND*%
X58795000Y-114025000D03*
%TO.P,U7,13,~{OE}*%
X66415000Y-114025000D03*
%TO.P,U7,14,O9*%
%TO.N,unconnected-(U7-O9-Pad14)*%
X66415000Y-111485000D03*
%TO.P,U7,15,O8*%
%TO.N,/North Bridge/RAMCSB*%
X66415000Y-108945000D03*
%TO.P,U7,16,O7*%
%TO.N,/Ports/ROMCSB*%
X66415000Y-106405000D03*
%TO.P,U7,17,O6*%
%TO.N,/Ports/PORT1CSB*%
X66415000Y-103865000D03*
%TO.P,U7,18,O5*%
%TO.N,/Ports/PORT2CSB*%
X66415000Y-101325000D03*
%TO.P,U7,19,O4*%
%TO.N,/Ports/PORT3CSB*%
X66415000Y-98785000D03*
%TO.P,U7,20,O3*%
%TO.N,/GPIO/CIA1CSB*%
X66415000Y-96245000D03*
%TO.P,U7,21,O2*%
%TO.N,/GPIO/CIA2CSB*%
X66415000Y-93705000D03*
%TO.P,U7,22,O1*%
%TO.N,/Ports/USRCSB*%
X66415000Y-91165000D03*
%TO.P,U7,23,O0*%
%TO.N,Net-(U6-OE)*%
X66415000Y-88625000D03*
%TO.P,U7,24,VCC*%
%TO.N,+5V*%
X66415000Y-86085000D03*
%TD*%
D10*
%TO.P,C1,1*%
%TO.N,+5V*%
X9850000Y-105775000D03*
%TO.P,C1,2*%
%TO.N,GND*%
X7350000Y-105775000D03*
%TD*%
%TO.P,R2,1*%
%TO.N,Net-(J5-Pin_2)*%
X117840000Y-53070000D03*
D11*
%TO.P,R2,2*%
%TO.N,+5V*%
X128000000Y-53070000D03*
%TD*%
D12*
%TO.P,J1,1,VBUS*%
%TO.N,Net-(J1-VBUS)*%
X144530000Y-12022500D03*
D17*
%TO.P,J1,2,D-*%
%TO.N,unconnected-(J1-D--Pad2)*%
X147030000Y-12022500D03*
%TO.P,J1,3,D+*%
%TO.N,unconnected-(J1-D+-Pad3)*%
X147030000Y-10022500D03*
%TO.P,J1,4,GND*%
%TO.N,GND*%
X144530000Y-10022500D03*
D18*
%TO.P,J1,5,Shield*%
%TO.N,unconnected-(J1-Shield-Pad5)*%
X139760000Y-7312500D03*
X151800000Y-7312500D03*
%TD*%
D16*
%TO.P,SW1,1*%
%TO.N,/16MHz*%
X22590000Y-93710000D03*
D11*
%TO.P,SW1,2*%
%TO.N,/8MHz*%
X20050000Y-93710000D03*
%TO.P,SW1,3*%
%TO.N,/4MHz*%
X17510000Y-93710000D03*
%TO.P,SW1,4*%
%TO.N,/2MHz*%
X14970000Y-93710000D03*
%TO.P,SW1,5*%
%TO.N,/1MHz*%
X12430000Y-93710000D03*
%TO.P,SW1,6*%
%TO.N,Net-(J3-Pin_1)*%
X12430000Y-101330000D03*
%TO.P,SW1,7*%
X14970000Y-101330000D03*
%TO.P,SW1,8*%
X17510000Y-101330000D03*
%TO.P,SW1,9*%
X20050000Y-101330000D03*
%TO.P,SW1,10*%
X22590000Y-101330000D03*
%TD*%
D12*
%TO.P,J8,1,Pin_1*%
%TO.N,/Ports/IRQ3B*%
X2778000Y-58531000D03*
D13*
%TO.P,J8,2,Pin_2*%
%TO.N,Net-(J8-Pin_2)*%
X2778000Y-61071000D03*
%TD*%
D10*
%TO.P,C5,1*%
%TO.N,+5V*%
X108220000Y-76565000D03*
%TO.P,C5,2*%
%TO.N,GND*%
X110220000Y-76565000D03*
%TD*%
%TO.P,C2,1*%
%TO.N,Net-(#FLG01-pwr)*%
X127365000Y-35925000D03*
%TO.P,C2,2*%
%TO.N,GND*%
X127365000Y-33925000D03*
%TD*%
%TO.P,C9,1*%
%TO.N,+5V*%
X51760000Y-82915000D03*
%TO.P,C9,2*%
%TO.N,GND*%
X49260000Y-82915000D03*
%TD*%
D12*
%TO.P,J14,1,Pin_1*%
%TO.N,GND*%
X9382000Y-1000000D03*
%TO.P,J14,2,Pin_2*%
%TO.N,+5V*%
X14462000Y-1000000D03*
D13*
%TO.P,J14,3,Pin_3*%
%TO.N,/GPIO/A11*%
X9382000Y-3540000D03*
%TO.P,J14,4,Pin_4*%
%TO.N,CLOCK*%
X14462000Y-3540000D03*
%TO.P,J14,5,Pin_5*%
%TO.N,/GPIO/A10*%
X9382000Y-6080000D03*
%TO.P,J14,6,Pin_6*%
%TO.N,/GPIO/A12*%
X14462000Y-6080000D03*
%TO.P,J14,7,Pin_7*%
%TO.N,/GPIO/A9*%
X9382000Y-8620000D03*
%TO.P,J14,8,Pin_8*%
%TO.N,/GPIO/A13*%
X14462000Y-8620000D03*
%TO.P,J14,9,Pin_9*%
%TO.N,/GPIO/A8*%
X9382000Y-11160000D03*
%TO.P,J14,10,Pin_10*%
%TO.N,/GPIO/A14*%
X14462000Y-11160000D03*
%TO.P,J14,11,Pin_11*%
%TO.N,/GPIO/A7*%
X9382000Y-13700000D03*
%TO.P,J14,12,Pin_12*%
%TO.N,/GPIO/A15*%
X14462000Y-13700000D03*
%TO.P,J14,13,Pin_13*%
%TO.N,/GPIO/A6*%
X9382000Y-16240000D03*
%TO.P,J14,14,Pin_14*%
%TO.N,/GPIO/D7*%
X14462000Y-16240000D03*
%TO.P,J14,15,Pin_15*%
%TO.N,/GPIO/A5*%
X9382000Y-18780000D03*
%TO.P,J14,16,Pin_16*%
%TO.N,/GPIO/D6*%
X14462000Y-18780000D03*
%TO.P,J14,17,Pin_17*%
%TO.N,/GPIO/A4*%
X9382000Y-21320000D03*
%TO.P,J14,18,Pin_18*%
%TO.N,/GPIO/D5*%
X14462000Y-21320000D03*
%TO.P,J14,19,Pin_19*%
%TO.N,/GPIO/A3*%
X9382000Y-23860000D03*
%TO.P,J14,20,Pin_20*%
%TO.N,/GPIO/D4*%
X14462000Y-23860000D03*
%TO.P,J14,21,Pin_21*%
%TO.N,/GPIO/A2*%
X9382000Y-26400000D03*
%TO.P,J14,22,Pin_22*%
%TO.N,/GPIO/D3*%
X14462000Y-26400000D03*
%TO.P,J14,23,Pin_23*%
%TO.N,/GPIO/A1*%
X9382000Y-28940000D03*
%TO.P,J14,24,Pin_24*%
%TO.N,/GPIO/D2*%
X14462000Y-28940000D03*
%TO.P,J14,25,Pin_25*%
%TO.N,/GPIO/A0*%
X9382000Y-31480000D03*
%TO.P,J14,26,Pin_26*%
%TO.N,/GPIO/D1*%
X14462000Y-31480000D03*
%TO.P,J14,27,Pin_27*%
%TO.N,/GPIO/RW*%
X9382000Y-34020000D03*
%TO.P,J14,28,Pin_28*%
%TO.N,/GPIO/D0*%
X14462000Y-34020000D03*
%TO.P,J14,29,Pin_29*%
%TO.N,/Ports/IRQ3B*%
X9382000Y-36560000D03*
%TO.P,J14,30,Pin_30*%
%TO.N,/Ports/PORT1CSB*%
X14462000Y-36560000D03*
%TO.P,J14,31,Pin_31*%
%TO.N,GND*%
X9382000Y-39100000D03*
%TO.P,J14,32,Pin_32*%
%TO.N,RESET*%
X14462000Y-39100000D03*
%TO.P,J14,33,Pin_33*%
%TO.N,/North Bridge/RAMCSB*%
X9382000Y-41640000D03*
%TO.P,J14,34,Pin_34*%
%TO.N,/North Bridge/DMAB*%
X14462000Y-41640000D03*
%TO.P,J14,35,Pin_35*%
%TO.N,unconnected-(J14-Pin_35-Pad35)*%
X9382000Y-44180000D03*
%TO.P,J14,36,Pin_36*%
%TO.N,/North Bridge/NMIB*%
X14462000Y-44180000D03*
%TO.P,J14,37,Pin_37*%
%TO.N,unconnected-(J14-Pin_37-Pad37)*%
X9382000Y-46720000D03*
%TO.P,J14,38,Pin_38*%
%TO.N,unconnected-(J14-Pin_38-Pad38)*%
X14462000Y-46720000D03*
%TO.P,J14,39,Pin_39*%
%TO.N,unconnected-(J14-Pin_39-Pad39)*%
X9382000Y-49260000D03*
%TO.P,J14,40,Pin_40*%
%TO.N,unconnected-(J14-Pin_40-Pad40)*%
X14462000Y-49260000D03*
%TO.P,J14,41,Pin_41*%
%TO.N,unconnected-(J14-Pin_41-Pad41)*%
X9382000Y-51800000D03*
%TO.P,J14,42,Pin_42*%
%TO.N,unconnected-(J14-Pin_42-Pad42)*%
X14462000Y-51800000D03*
%TO.P,J14,43,Pin_43*%
%TO.N,unconnected-(J14-Pin_43-Pad43)*%
X9382000Y-54340000D03*
%TO.P,J14,44,Pin_44*%
%TO.N,unconnected-(J14-Pin_44-Pad44)*%
X14462000Y-54340000D03*
%TO.P,J14,45,Pin_45*%
%TO.N,unconnected-(J14-Pin_45-Pad45)*%
X9382000Y-56880000D03*
%TO.P,J14,46,Pin_46*%
%TO.N,unconnected-(J14-Pin_46-Pad46)*%
X14462000Y-56880000D03*
%TO.P,J14,47,Pin_47*%
%TO.N,unconnected-(J14-Pin_47-Pad47)*%
X9382000Y-59420000D03*
%TO.P,J14,48,Pin_48*%
%TO.N,unconnected-(J14-Pin_48-Pad48)*%
X14462000Y-59420000D03*
%TO.P,J14,49,Pin_49*%
%TO.N,unconnected-(J14-Pin_49-Pad49)*%
X9382000Y-61960000D03*
%TO.P,J14,50,Pin_50*%
%TO.N,unconnected-(J14-Pin_50-Pad50)*%
X14462000Y-61960000D03*
%TO.P,J14,51,Pin_51*%
%TO.N,unconnected-(J14-Pin_51-Pad51)*%
X9382000Y-64500000D03*
%TO.P,J14,52,Pin_52*%
%TO.N,unconnected-(J14-Pin_52-Pad52)*%
X14462000Y-64500000D03*
%TO.P,J14,53,Pin_53*%
%TO.N,unconnected-(J14-Pin_53-Pad53)*%
X9382000Y-67040000D03*
%TO.P,J14,54,Pin_54*%
%TO.N,unconnected-(J14-Pin_54-Pad54)*%
X14462000Y-67040000D03*
%TO.P,J14,55,Pin_55*%
%TO.N,unconnected-(J14-Pin_55-Pad55)*%
X9382000Y-69580000D03*
%TO.P,J14,56,Pin_56*%
%TO.N,unconnected-(J14-Pin_56-Pad56)*%
X14462000Y-69580000D03*
%TO.P,J14,57,Pin_57*%
%TO.N,unconnected-(J14-Pin_57-Pad57)*%
X9382000Y-72120000D03*
%TO.P,J14,58,Pin_58*%
%TO.N,unconnected-(J14-Pin_58-Pad58)*%
X14462000Y-72120000D03*
%TO.P,J14,59,Pin_59*%
%TO.N,+5V*%
X9382000Y-74660000D03*
%TO.P,J14,60,Pin_60*%
%TO.N,unconnected-(J14-Pin_60-Pad60)*%
X14462000Y-74660000D03*
%TD*%
D16*
%TO.P,U4,1,~{VP}*%
%TO.N,unconnected-(U4-~{VP}-Pad1)*%
X114025000Y-65775000D03*
D11*
%TO.P,U4,2,RDY*%
%TO.N,/North Bridge/RDY*%
X114025000Y-68315000D03*
%TO.P,U4,3,PHI1out*%
%TO.N,unconnected-(U4-PHI1out-Pad3)*%
X114025000Y-70855000D03*
%TO.P,U4,4,~{IRQ}*%
%TO.N,/North Bridge/IRQB*%
X114025000Y-73395000D03*
%TO.P,U4,5,~{ML}*%
%TO.N,unconnected-(U4-~{ML}-Pad5)*%
X114025000Y-75935000D03*
%TO.P,U4,6,~{NMI}*%
%TO.N,/North Bridge/NMIB*%
X114025000Y-78475000D03*
%TO.P,U4,7,SYNC*%
%TO.N,unconnected-(U4-SYNC-Pad7)*%
X114025000Y-81015000D03*
%TO.P,U4,8,VCC*%
%TO.N,+5V*%
X114025000Y-83555000D03*
%TO.P,U4,9,A0*%
%TO.N,/GPIO/A0*%
X114025000Y-86095000D03*
%TO.P,U4,10,A1*%
%TO.N,/GPIO/A1*%
X114025000Y-88635000D03*
%TO.P,U4,11,A2*%
%TO.N,/GPIO/A2*%
X114025000Y-91175000D03*
%TO.P,U4,12,A3*%
%TO.N,/GPIO/A3*%
X114025000Y-93715000D03*
%TO.P,U4,13,A4*%
%TO.N,/GPIO/A4*%
X114025000Y-96255000D03*
%TO.P,U4,14,A5*%
%TO.N,/GPIO/A5*%
X114025000Y-98795000D03*
%TO.P,U4,15,A6*%
%TO.N,/GPIO/A6*%
X114025000Y-101335000D03*
%TO.P,U4,16,A7*%
%TO.N,/GPIO/A7*%
X114025000Y-103875000D03*
%TO.P,U4,17,A8*%
%TO.N,/GPIO/A8*%
X114025000Y-106415000D03*
%TO.P,U4,18,A9*%
%TO.N,/GPIO/A9*%
X114025000Y-108955000D03*
%TO.P,U4,19,A10*%
%TO.N,/GPIO/A10*%
X114025000Y-111495000D03*
%TO.P,U4,20,A11*%
%TO.N,/GPIO/A11*%
X114025000Y-114035000D03*
%TO.P,U4,21,GND*%
%TO.N,GND*%
X129265000Y-114035000D03*
%TO.P,U4,22,A12*%
%TO.N,/GPIO/A12*%
X129265000Y-111495000D03*
%TO.P,U4,23,A13*%
%TO.N,/GPIO/A13*%
X129265000Y-108955000D03*
%TO.P,U4,24,A14*%
%TO.N,/GPIO/A14*%
X129265000Y-106415000D03*
%TO.P,U4,25,A15*%
%TO.N,/GPIO/A15*%
X129265000Y-103875000D03*
%TO.P,U4,26,D7*%
%TO.N,/GPIO/D7*%
X129265000Y-101335000D03*
%TO.P,U4,27,D6*%
%TO.N,/GPIO/D6*%
X129265000Y-98795000D03*
%TO.P,U4,28,D5*%
%TO.N,/GPIO/D5*%
X129265000Y-96255000D03*
%TO.P,U4,29,D4*%
%TO.N,/GPIO/D4*%
X129265000Y-93715000D03*
%TO.P,U4,30,D3*%
%TO.N,/GPIO/D3*%
X129265000Y-91175000D03*
%TO.P,U4,31,D2*%
%TO.N,/GPIO/D2*%
X129265000Y-88635000D03*
%TO.P,U4,32,D1*%
%TO.N,/GPIO/D1*%
X129265000Y-86095000D03*
%TO.P,U4,33,D0*%
%TO.N,/GPIO/D0*%
X129265000Y-83555000D03*
%TO.P,U4,34,R/~{W}*%
%TO.N,/GPIO/RW*%
X129265000Y-81015000D03*
%TO.P,U4,35,NC*%
%TO.N,unconnected-(U4-NC-Pad35)*%
X129265000Y-78475000D03*
%TO.P,U4,36,BE*%
%TO.N,/North Bridge/DMAB*%
X129265000Y-75935000D03*
%TO.P,U4,37,PHI2*%
%TO.N,CLOCK*%
X129265000Y-73395000D03*
%TO.P,U4,38,~{SO}*%
%TO.N,/North Bridge/SOB*%
X129265000Y-70855000D03*
%TO.P,U4,39,PHI2out*%
%TO.N,unconnected-(U4-PHI2out-Pad39)*%
X129265000Y-68315000D03*
%TO.P,U4,40,~{RESET}*%
%TO.N,RESET*%
X129265000Y-65775000D03*
%TD*%
D19*
%TO.P,FB2,1*%
%TO.N,Net-(F2-Pad2)*%
X135620000Y-23225000D03*
D20*
%TO.P,FB2,2*%
%TO.N,Net-(#FLG01-pwr)*%
X135620000Y-35925000D03*
%TD*%
D12*
%TO.P,J20,1,Pin_1*%
%TO.N,PB10*%
X39100000Y-161020000D03*
D13*
%TO.P,J20,2,Pin_2*%
%TO.N,PB11*%
X41640000Y-161020000D03*
%TO.P,J20,3,Pin_3*%
%TO.N,PB12*%
X44180000Y-161020000D03*
%TO.P,J20,4,Pin_4*%
%TO.N,PB13*%
X46720000Y-161020000D03*
%TO.P,J20,5,Pin_5*%
%TO.N,PB14*%
X49260000Y-161020000D03*
%TO.P,J20,6,Pin_6*%
%TO.N,PB15*%
X51800000Y-161020000D03*
%TO.P,J20,7,Pin_7*%
%TO.N,PB16*%
X54340000Y-161020000D03*
%TO.P,J20,8,Pin_8*%
%TO.N,PB17*%
X56880000Y-161020000D03*
%TO.P,J20,9,Pin_9*%
%TO.N,CB11*%
X59420000Y-161020000D03*
%TO.P,J20,10,Pin_10*%
%TO.N,CB12*%
X61960000Y-161020000D03*
%TD*%
D12*
%TO.P,J21,1,Pin_1*%
%TO.N,+5V*%
X67040000Y-161020000D03*
D13*
%TO.P,J21,2,Pin_2*%
%TO.N,GND*%
X69580000Y-161020000D03*
%TD*%
D16*
%TO.P,X1,1,NC*%
%TO.N,unconnected-(X1-NC-Pad1)*%
X23225000Y-126095000D03*
D10*
%TO.P,X1,7,GND*%
%TO.N,GND*%
X23225000Y-110855000D03*
%TO.P,X1,8,OUT*%
%TO.N,/16MHz*%
X15605000Y-110855000D03*
%TO.P,X1,14,Vcc*%
%TO.N,+5V*%
X15605000Y-126095000D03*
%TD*%
%TO.P,C12,1*%
%TO.N,+5V*%
X135620000Y-153400000D03*
%TO.P,C12,2*%
%TO.N,GND*%
X135620000Y-150900000D03*
%TD*%
D12*
%TO.P,J11,1,Pin_1*%
%TO.N,/Ports/IRQ4B*%
X20050000Y-58145000D03*
D13*
%TO.P,J11,2,Pin_2*%
%TO.N,Net-(J11-Pin_2)*%
X20050000Y-60685000D03*
%TD*%
D10*
%TO.P,R8,1*%
%TO.N,Net-(J9-Pin_2)*%
X55610000Y-64500000D03*
D11*
%TO.P,R8,2*%
%TO.N,+5V*%
X55610000Y-74660000D03*
%TD*%
D13*
%TO.P,J24,2,Pin_2*%
%TO.N,GND*%
X135620000Y-161020000D03*
D12*
%TO.P,J24,1,Pin_1*%
%TO.N,+5V*%
X133080000Y-161020000D03*
%TD*%
%TO.P,J9,1,Pin_1*%
%TO.N,/Ports/IRQ6B*%
X55610000Y-58145000D03*
D13*
%TO.P,J9,2,Pin_2*%
%TO.N,Net-(J9-Pin_2)*%
X55610000Y-60685000D03*
%TD*%
D21*
%TO.P,D1,1,K*%
%TO.N,Net-(D1-K)*%
X161020000Y-13700000D03*
D22*
%TO.P,D1,2,A*%
%TO.N,+5V*%
X158480000Y-13700000D03*
%TD*%
D10*
%TO.P,R7,1*%
%TO.N,Net-(J8-Pin_2)*%
X2778000Y-64632000D03*
D11*
%TO.P,R7,2*%
%TO.N,+5V*%
X2778000Y-74792000D03*
%TD*%
D19*
%TO.P,SW2,*%
%TO.N,*%
X120380000Y-3825000D03*
X120380000Y2175000D03*
X108380000Y-3825000D03*
X108380000Y2175000D03*
D17*
%TO.P,SW2,1,A*%
%TO.N,Net-(SW2-A)*%
X118380000Y-2075000D03*
%TO.P,SW2,2,B*%
%TO.N,+5V*%
X114380000Y-2075000D03*
%TO.P,SW2,3*%
%TO.N,N/C*%
X110380000Y-2075000D03*
%TD*%
D16*
%TO.P,U3,1,A14*%
%TO.N,/GPIO/A14*%
X139430000Y-65770000D03*
D11*
%TO.P,U3,2,A12*%
%TO.N,/GPIO/A12*%
X139430000Y-68310000D03*
%TO.P,U3,3,A7*%
%TO.N,/GPIO/A7*%
X139430000Y-70850000D03*
%TO.P,U3,4,A6*%
%TO.N,/GPIO/A6*%
X139430000Y-73390000D03*
%TO.P,U3,5,A5*%
%TO.N,/GPIO/A5*%
X139430000Y-75930000D03*
%TO.P,U3,6,A4*%
%TO.N,/GPIO/A4*%
X139430000Y-78470000D03*
%TO.P,U3,7,A3*%
%TO.N,/GPIO/A3*%
X139430000Y-81010000D03*
%TO.P,U3,8,A2*%
%TO.N,/GPIO/A2*%
X139430000Y-83550000D03*
%TO.P,U3,9,A1*%
%TO.N,/GPIO/A1*%
X139430000Y-86090000D03*
%TO.P,U3,10,A0*%
%TO.N,/GPIO/A0*%
X139430000Y-88630000D03*
%TO.P,U3,11,Q0*%
%TO.N,/GPIO/D0*%
X139430000Y-91170000D03*
%TO.P,U3,12,Q1*%
%TO.N,/GPIO/D1*%
X139430000Y-93710000D03*
%TO.P,U3,13,Q2*%
%TO.N,/GPIO/D2*%
X139430000Y-96250000D03*
%TO.P,U3,14,GND*%
%TO.N,GND*%
X139430000Y-98790000D03*
%TO.P,U3,15,Q3*%
%TO.N,/GPIO/D3*%
X154670000Y-98790000D03*
%TO.P,U3,16,Q4*%
%TO.N,/GPIO/D4*%
X154670000Y-96250000D03*
%TO.P,U3,17,Q5*%
%TO.N,/GPIO/D5*%
X154670000Y-93710000D03*
%TO.P,U3,18,Q6*%
%TO.N,/GPIO/D6*%
X154670000Y-91170000D03*
%TO.P,U3,19,Q7*%
%TO.N,/GPIO/D7*%
X154670000Y-88630000D03*
%TO.P,U3,20,~{CS}*%
%TO.N,/North Bridge/RAMCSB*%
X154670000Y-86090000D03*
%TO.P,U3,21,A10*%
%TO.N,/GPIO/A10*%
X154670000Y-83550000D03*
%TO.P,U3,22,~{OE}*%
%TO.N,GND*%
X154670000Y-81010000D03*
%TO.P,U3,23,A11*%
%TO.N,/GPIO/A11*%
X154670000Y-78470000D03*
%TO.P,U3,24,A9*%
%TO.N,/GPIO/A9*%
X154670000Y-75930000D03*
%TO.P,U3,25,A8*%
%TO.N,/GPIO/A8*%
X154670000Y-73390000D03*
%TO.P,U3,26,A13*%
%TO.N,/GPIO/A13*%
X154670000Y-70850000D03*
%TO.P,U3,27,~{WE}*%
%TO.N,/GPIO/RW*%
X154670000Y-68310000D03*
%TO.P,U3,28,VCC*%
%TO.N,+5V*%
X154670000Y-65770000D03*
%TD*%
D10*
%TO.P,R10,1*%
%TO.N,Net-(J11-Pin_2)*%
X20050000Y-64500000D03*
D11*
%TO.P,R10,2*%
%TO.N,+5V*%
X20050000Y-74660000D03*
%TD*%
D10*
%TO.P,C7,1*%
%TO.N,+5V*%
X158480000Y-65810000D03*
%TO.P,C7,2*%
%TO.N,GND*%
X158480000Y-68310000D03*
%TD*%
D12*
%TO.P,J6,1,Pin_1*%
%TO.N,/North Bridge/DMAB*%
X113776000Y-46715000D03*
D13*
%TO.P,J6,2,Pin_2*%
%TO.N,Net-(J6-Pin_2)*%
X113776000Y-49255000D03*
%TD*%
D10*
%TO.P,F2,1*%
%TO.N,Net-(F2-Pad1)*%
X130540000Y-18780000D03*
%TO.P,F2,2*%
%TO.N,Net-(F2-Pad2)*%
X135620000Y-18780000D03*
%TD*%
%TO.P,C11,1*%
%TO.N,+5V*%
X69580000Y-153320000D03*
%TO.P,C11,2*%
%TO.N,GND*%
X69580000Y-150820000D03*
%TD*%
D12*
%TO.P,J16,1,Pin_1*%
%TO.N,GND*%
X27035000Y-1000000D03*
%TO.P,J16,2,Pin_2*%
%TO.N,+5V*%
X32115000Y-1000000D03*
D13*
%TO.P,J16,3,Pin_3*%
%TO.N,/GPIO/A11*%
X27035000Y-3540000D03*
%TO.P,J16,4,Pin_4*%
%TO.N,CLOCK*%
X32115000Y-3540000D03*
%TO.P,J16,5,Pin_5*%
%TO.N,/GPIO/A10*%
X27035000Y-6080000D03*
%TO.P,J16,6,Pin_6*%
%TO.N,/GPIO/A12*%
X32115000Y-6080000D03*
%TO.P,J16,7,Pin_7*%
%TO.N,/GPIO/A9*%
X27035000Y-8620000D03*
%TO.P,J16,8,Pin_8*%
%TO.N,/GPIO/A13*%
X32115000Y-8620000D03*
%TO.P,J16,9,Pin_9*%
%TO.N,/GPIO/A8*%
X27035000Y-11160000D03*
%TO.P,J16,10,Pin_10*%
%TO.N,/GPIO/A14*%
X32115000Y-11160000D03*
%TO.P,J16,11,Pin_11*%
%TO.N,/GPIO/A7*%
X27035000Y-13700000D03*
%TO.P,J16,12,Pin_12*%
%TO.N,/GPIO/A15*%
X32115000Y-13700000D03*
%TO.P,J16,13,Pin_13*%
%TO.N,/GPIO/A6*%
X27035000Y-16240000D03*
%TO.P,J16,14,Pin_14*%
%TO.N,/GPIO/D7*%
X32115000Y-16240000D03*
%TO.P,J16,15,Pin_15*%
%TO.N,/GPIO/A5*%
X27035000Y-18780000D03*
%TO.P,J16,16,Pin_16*%
%TO.N,/GPIO/D6*%
X32115000Y-18780000D03*
%TO.P,J16,17,Pin_17*%
%TO.N,/GPIO/A4*%
X27035000Y-21320000D03*
%TO.P,J16,18,Pin_18*%
%TO.N,/GPIO/D5*%
X32115000Y-21320000D03*
%TO.P,J16,19,Pin_19*%
%TO.N,/GPIO/A3*%
X27035000Y-23860000D03*
%TO.P,J16,20,Pin_20*%
%TO.N,/GPIO/D4*%
X32115000Y-23860000D03*
%TO.P,J16,21,Pin_21*%
%TO.N,/GPIO/A2*%
X27035000Y-26400000D03*
%TO.P,J16,22,Pin_22*%
%TO.N,/GPIO/D3*%
X32115000Y-26400000D03*
%TO.P,J16,23,Pin_23*%
%TO.N,/GPIO/A1*%
X27035000Y-28940000D03*
%TO.P,J16,24,Pin_24*%
%TO.N,/GPIO/D2*%
X32115000Y-28940000D03*
%TO.P,J16,25,Pin_25*%
%TO.N,/GPIO/A0*%
X27035000Y-31480000D03*
%TO.P,J16,26,Pin_26*%
%TO.N,/GPIO/D1*%
X32115000Y-31480000D03*
%TO.P,J16,27,Pin_27*%
%TO.N,/GPIO/RW*%
X27035000Y-34020000D03*
%TO.P,J16,28,Pin_28*%
%TO.N,/GPIO/D0*%
X32115000Y-34020000D03*
%TO.P,J16,29,Pin_29*%
%TO.N,/Ports/IRQ4B*%
X27035000Y-36560000D03*
%TO.P,J16,30,Pin_30*%
%TO.N,/Ports/PORT2CSB*%
X32115000Y-36560000D03*
%TO.P,J16,31,Pin_31*%
%TO.N,GND*%
X27035000Y-39100000D03*
%TO.P,J16,32,Pin_32*%
%TO.N,RESET*%
X32115000Y-39100000D03*
%TO.P,J16,33,Pin_33*%
%TO.N,/North Bridge/RAMCSB*%
X27035000Y-41640000D03*
%TO.P,J16,34,Pin_34*%
%TO.N,/North Bridge/DMAB*%
X32115000Y-41640000D03*
%TO.P,J16,35,Pin_35*%
%TO.N,unconnected-(J16-Pin_35-Pad35)*%
X27035000Y-44180000D03*
%TO.P,J16,36,Pin_36*%
%TO.N,/North Bridge/NMIB*%
X32115000Y-44180000D03*
%TO.P,J16,37,Pin_37*%
%TO.N,unconnected-(J16-Pin_37-Pad37)*%
X27035000Y-46720000D03*
%TO.P,J16,38,Pin_38*%
%TO.N,unconnected-(J16-Pin_38-Pad38)*%
X32115000Y-46720000D03*
%TO.P,J16,39,Pin_39*%
%TO.N,unconnected-(J16-Pin_39-Pad39)*%
X27035000Y-49260000D03*
%TO.P,J16,40,Pin_40*%
%TO.N,unconnected-(J16-Pin_40-Pad40)*%
X32115000Y-49260000D03*
%TO.P,J16,41,Pin_41*%
%TO.N,unconnected-(J16-Pin_41-Pad41)*%
X27035000Y-51800000D03*
%TO.P,J16,42,Pin_42*%
%TO.N,unconnected-(J16-Pin_42-Pad42)*%
X32115000Y-51800000D03*
%TO.P,J16,43,Pin_43*%
%TO.N,unconnected-(J16-Pin_43-Pad43)*%
X27035000Y-54340000D03*
%TO.P,J16,44,Pin_44*%
%TO.N,unconnected-(J16-Pin_44-Pad44)*%
X32115000Y-54340000D03*
%TO.P,J16,45,Pin_45*%
%TO.N,unconnected-(J16-Pin_45-Pad45)*%
X27035000Y-56880000D03*
%TO.P,J16,46,Pin_46*%
%TO.N,unconnected-(J16-Pin_46-Pad46)*%
X32115000Y-56880000D03*
%TO.P,J16,47,Pin_47*%
%TO.N,unconnected-(J16-Pin_47-Pad47)*%
X27035000Y-59420000D03*
%TO.P,J16,48,Pin_48*%
%TO.N,unconnected-(J16-Pin_48-Pad48)*%
X32115000Y-59420000D03*
%TO.P,J16,49,Pin_49*%
%TO.N,unconnected-(J16-Pin_49-Pad49)*%
X27035000Y-61960000D03*
%TO.P,J16,50,Pin_50*%
%TO.N,unconnected-(J16-Pin_50-Pad50)*%
X32115000Y-61960000D03*
%TO.P,J16,51,Pin_51*%
%TO.N,unconnected-(J16-Pin_51-Pad51)*%
X27035000Y-64500000D03*
%TO.P,J16,52,Pin_52*%
%TO.N,unconnected-(J16-Pin_52-Pad52)*%
X32115000Y-64500000D03*
%TO.P,J16,53,Pin_53*%
%TO.N,unconnected-(J16-Pin_53-Pad53)*%
X27035000Y-67040000D03*
%TO.P,J16,54,Pin_54*%
%TO.N,unconnected-(J16-Pin_54-Pad54)*%
X32115000Y-67040000D03*
%TO.P,J16,55,Pin_55*%
%TO.N,unconnected-(J16-Pin_55-Pad55)*%
X27035000Y-69580000D03*
%TO.P,J16,56,Pin_56*%
%TO.N,unconnected-(J16-Pin_56-Pad56)*%
X32115000Y-69580000D03*
%TO.P,J16,57,Pin_57*%
%TO.N,unconnected-(J16-Pin_57-Pad57)*%
X27035000Y-72120000D03*
%TO.P,J16,58,Pin_58*%
%TO.N,unconnected-(J16-Pin_58-Pad58)*%
X32115000Y-72120000D03*
%TO.P,J16,59,Pin_59*%
%TO.N,+5V*%
X27035000Y-74660000D03*
%TO.P,J16,60,Pin_60*%
%TO.N,unconnected-(J16-Pin_60-Pad60)*%
X32115000Y-74660000D03*
%TD*%
D10*
%TO.P,R4,1*%
%TO.N,Net-(J6-Pin_2)*%
X117840000Y-47990000D03*
D11*
%TO.P,R4,2*%
%TO.N,+5V*%
X128000000Y-47990000D03*
%TD*%
D16*
%TO.P,U8,1,GND*%
%TO.N,GND*%
X16240000Y-153400000D03*
D11*
%TO.P,U8,2,PA0*%
%TO.N,PA10*%
X18780000Y-153400000D03*
%TO.P,U8,3,PA1*%
%TO.N,PA11*%
X21320000Y-153400000D03*
%TO.P,U8,4,PA2*%
%TO.N,PA12*%
X23860000Y-153400000D03*
%TO.P,U8,5,PA3*%
%TO.N,PA13*%
X26400000Y-153400000D03*
%TO.P,U8,6,PA4*%
%TO.N,PA14*%
X28940000Y-153400000D03*
%TO.P,U8,7,PA5*%
%TO.N,PA15*%
X31480000Y-153400000D03*
%TO.P,U8,8,PA6*%
%TO.N,PA16*%
X34020000Y-153400000D03*
%TO.P,U8,9,PA7*%
%TO.N,PA17*%
X36560000Y-153400000D03*
%TO.P,U8,10,PB0*%
%TO.N,PB10*%
X39100000Y-153400000D03*
%TO.P,U8,11,PB1*%
%TO.N,PB11*%
X41640000Y-153400000D03*
%TO.P,U8,12,PB2*%
%TO.N,PB12*%
X44180000Y-153400000D03*
%TO.P,U8,13,PB3*%
%TO.N,PB13*%
X46720000Y-153400000D03*
%TO.P,U8,14,PB4*%
%TO.N,PB14*%
X49260000Y-153400000D03*
%TO.P,U8,15,PB5*%
%TO.N,PB15*%
X51800000Y-153400000D03*
%TO.P,U8,16,PB6*%
%TO.N,PB16*%
X54340000Y-153400000D03*
%TO.P,U8,17,PB7*%
%TO.N,PB17*%
X56880000Y-153400000D03*
%TO.P,U8,18,CB1*%
%TO.N,CB11*%
X59420000Y-153400000D03*
%TO.P,U8,19,CB2*%
%TO.N,CB12*%
X61960000Y-153400000D03*
%TO.P,U8,20,VCC*%
%TO.N,+5V*%
X64500000Y-153400000D03*
%TO.P,U8,21,~{IRQ}*%
%TO.N,/GPIO/IRQ0B*%
X64500000Y-138160000D03*
%TO.P,U8,22,R/~{W}*%
%TO.N,/GPIO/RW*%
X61960000Y-138160000D03*
%TO.P,U8,23,~{CS2}*%
%TO.N,/GPIO/CIA1CSB*%
X59420000Y-138160000D03*
%TO.P,U8,24,CS1*%
%TO.N,+5V*%
X56880000Y-138160000D03*
%TO.P,U8,25,PHI2*%
%TO.N,CLOCK*%
X54340000Y-138160000D03*
%TO.P,U8,26,D7*%
%TO.N,/GPIO/D7*%
X51800000Y-138160000D03*
%TO.P,U8,27,D6*%
%TO.N,/GPIO/D6*%
X49260000Y-138160000D03*
%TO.P,U8,28,D5*%
%TO.N,/GPIO/D5*%
X46720000Y-138160000D03*
%TO.P,U8,29,D4*%
%TO.N,/GPIO/D4*%
X44180000Y-138160000D03*
%TO.P,U8,30,D3*%
%TO.N,/GPIO/D3*%
X41640000Y-138160000D03*
%TO.P,U8,31,D2*%
%TO.N,/GPIO/D2*%
X39100000Y-138160000D03*
%TO.P,U8,32,D1*%
%TO.N,/GPIO/D1*%
X36560000Y-138160000D03*
%TO.P,U8,33,D0*%
%TO.N,/GPIO/D0*%
X34020000Y-138160000D03*
%TO.P,U8,34,~{RESET}*%
%TO.N,RESET*%
X31480000Y-138160000D03*
%TO.P,U8,35,RS3*%
%TO.N,/GPIO/A3*%
X28940000Y-138160000D03*
%TO.P,U8,36,RS2*%
%TO.N,/GPIO/A2*%
X26400000Y-138160000D03*
%TO.P,U8,37,RS1*%
%TO.N,/GPIO/A1*%
X23860000Y-138160000D03*
%TO.P,U8,38,RS0*%
%TO.N,/GPIO/A0*%
X21320000Y-138160000D03*
%TO.P,U8,39,CA2*%
%TO.N,CA12*%
X18780000Y-138160000D03*
%TO.P,U8,40,CA1*%
%TO.N,CA11*%
X16240000Y-138160000D03*
%TD*%
D16*
%TO.P,U5,1,I4*%
%TO.N,/Ports/IRQ3B*%
X30220000Y-86105000D03*
D11*
%TO.P,U5,2,I5*%
%TO.N,/Ports/IRQ2B*%
X30220000Y-88645000D03*
%TO.P,U5,3,I6*%
%TO.N,/GPIO/IRQ1B*%
X30220000Y-91185000D03*
%TO.P,U5,4,I7*%
%TO.N,/GPIO/IRQ0B*%
X30220000Y-93725000D03*
%TO.P,U5,5,EI*%
%TO.N,GND*%
X30220000Y-96265000D03*
%TO.P,U5,6,S2*%
%TO.N,Net-(U5-S2)*%
X30220000Y-98805000D03*
%TO.P,U5,7,S1*%
%TO.N,Net-(U5-S1)*%
X30220000Y-101345000D03*
%TO.P,U5,8,GND*%
%TO.N,GND*%
X30220000Y-103885000D03*
%TO.P,U5,9,S0*%
%TO.N,Net-(U5-S0)*%
X37840000Y-103885000D03*
%TO.P,U5,10,IO*%
%TO.N,+5V*%
X37840000Y-101345000D03*
%TO.P,U5,11,I1*%
%TO.N,/Ports/IRQ6B*%
X37840000Y-98805000D03*
%TO.P,U5,12,I2*%
%TO.N,/Ports/IRQ5B*%
X37840000Y-96265000D03*
%TO.P,U5,13,I3*%
%TO.N,/Ports/IRQ4B*%
X37840000Y-93725000D03*
%TO.P,U5,14,GS*%
%TO.N,/North Bridge/IRQB*%
X37840000Y-91185000D03*
%TO.P,U5,15,EO*%
%TO.N,unconnected-(U5-EO-Pad15)*%
X37840000Y-88645000D03*
%TO.P,U5,16,VCC*%
%TO.N,+5V*%
X37840000Y-86105000D03*
%TD*%
D10*
%TO.P,C4,1*%
%TO.N,RESET*%
X129230000Y-61960000D03*
%TO.P,C4,2*%
%TO.N,GND*%
X124230000Y-61960000D03*
%TD*%
%TO.P,F1,1*%
%TO.N,Net-(J1-VBUS)*%
X145780000Y-18780000D03*
%TO.P,F1,2*%
%TO.N,Net-(F1-Pad2)*%
X150860000Y-18780000D03*
%TD*%
%TO.P,R6,1*%
%TO.N,Net-(J7-Pin_2)*%
X20050000Y-85328000D03*
D11*
%TO.P,R6,2*%
%TO.N,+5V*%
X9890000Y-85328000D03*
%TD*%
D23*
%TO.P,D2,1,K*%
%TO.N,/North Bridge/DMAB*%
X108950000Y-46720000D03*
D24*
%TO.P,D2,2,A*%
%TO.N,/North Bridge/RDY*%
X108950000Y-56880000D03*
%TD*%
D12*
%TO.P,J18,1,Pin_1*%
%TO.N,GND*%
X62590000Y-1000000D03*
%TO.P,J18,2,Pin_2*%
%TO.N,+5V*%
X67670000Y-1000000D03*
D13*
%TO.P,J18,3,Pin_3*%
%TO.N,/GPIO/A11*%
X62590000Y-3540000D03*
%TO.P,J18,4,Pin_4*%
%TO.N,CLOCK*%
X67670000Y-3540000D03*
%TO.P,J18,5,Pin_5*%
%TO.N,/GPIO/A10*%
X62590000Y-6080000D03*
%TO.P,J18,6,Pin_6*%
%TO.N,/GPIO/A12*%
X67670000Y-6080000D03*
%TO.P,J18,7,Pin_7*%
%TO.N,/GPIO/A9*%
X62590000Y-8620000D03*
%TO.P,J18,8,Pin_8*%
%TO.N,/GPIO/A13*%
X67670000Y-8620000D03*
%TO.P,J18,9,Pin_9*%
%TO.N,/GPIO/A8*%
X62590000Y-11160000D03*
%TO.P,J18,10,Pin_10*%
%TO.N,/GPIO/A14*%
X67670000Y-11160000D03*
%TO.P,J18,11,Pin_11*%
%TO.N,/GPIO/A7*%
X62590000Y-13700000D03*
%TO.P,J18,12,Pin_12*%
%TO.N,/GPIO/A15*%
X67670000Y-13700000D03*
%TO.P,J18,13,Pin_13*%
%TO.N,/GPIO/A6*%
X62590000Y-16240000D03*
%TO.P,J18,14,Pin_14*%
%TO.N,/GPIO/D7*%
X67670000Y-16240000D03*
%TO.P,J18,15,Pin_15*%
%TO.N,/GPIO/A5*%
X62590000Y-18780000D03*
%TO.P,J18,16,Pin_16*%
%TO.N,/GPIO/D6*%
X67670000Y-18780000D03*
%TO.P,J18,17,Pin_17*%
%TO.N,/GPIO/A4*%
X62590000Y-21320000D03*
%TO.P,J18,18,Pin_18*%
%TO.N,/GPIO/D5*%
X67670000Y-21320000D03*
%TO.P,J18,19,Pin_19*%
%TO.N,/GPIO/A3*%
X62590000Y-23860000D03*
%TO.P,J18,20,Pin_20*%
%TO.N,/GPIO/D4*%
X67670000Y-23860000D03*
%TO.P,J18,21,Pin_21*%
%TO.N,/GPIO/A2*%
X62590000Y-26400000D03*
%TO.P,J18,22,Pin_22*%
%TO.N,/GPIO/D3*%
X67670000Y-26400000D03*
%TO.P,J18,23,Pin_23*%
%TO.N,/GPIO/A1*%
X62590000Y-28940000D03*
%TO.P,J18,24,Pin_24*%
%TO.N,/GPIO/D2*%
X67670000Y-28940000D03*
%TO.P,J18,25,Pin_25*%
%TO.N,/GPIO/A0*%
X62590000Y-31480000D03*
%TO.P,J18,26,Pin_26*%
%TO.N,/GPIO/D1*%
X67670000Y-31480000D03*
%TO.P,J18,27,Pin_27*%
%TO.N,/GPIO/RW*%
X62590000Y-34020000D03*
%TO.P,J18,28,Pin_28*%
%TO.N,/GPIO/D0*%
X67670000Y-34020000D03*
%TO.P,J18,29,Pin_29*%
%TO.N,/Ports/IRQ6B*%
X62590000Y-36560000D03*
%TO.P,J18,30,Pin_30*%
%TO.N,/Ports/ROMCSB*%
X67670000Y-36560000D03*
%TO.P,J18,31,Pin_31*%
%TO.N,GND*%
X62590000Y-39100000D03*
%TO.P,J18,32,Pin_32*%
%TO.N,RESET*%
X67670000Y-39100000D03*
%TO.P,J18,33,Pin_33*%
%TO.N,/North Bridge/RAMCSB*%
X62590000Y-41640000D03*
%TO.P,J18,34,Pin_34*%
%TO.N,/North Bridge/DMAB*%
X67670000Y-41640000D03*
%TO.P,J18,35,Pin_35*%
%TO.N,unconnected-(J18-Pin_35-Pad35)*%
X62590000Y-44180000D03*
%TO.P,J18,36,Pin_36*%
%TO.N,/North Bridge/NMIB*%
X67670000Y-44180000D03*
%TO.P,J18,37,Pin_37*%
%TO.N,unconnected-(J18-Pin_37-Pad37)*%
X62590000Y-46720000D03*
%TO.P,J18,38,Pin_38*%
%TO.N,unconnected-(J18-Pin_38-Pad38)*%
X67670000Y-46720000D03*
%TO.P,J18,39,Pin_39*%
%TO.N,unconnected-(J18-Pin_39-Pad39)*%
X62590000Y-49260000D03*
%TO.P,J18,40,Pin_40*%
%TO.N,unconnected-(J18-Pin_40-Pad40)*%
X67670000Y-49260000D03*
%TO.P,J18,41,Pin_41*%
%TO.N,unconnected-(J18-Pin_41-Pad41)*%
X62590000Y-51800000D03*
%TO.P,J18,42,Pin_42*%
%TO.N,unconnected-(J18-Pin_42-Pad42)*%
X67670000Y-51800000D03*
%TO.P,J18,43,Pin_43*%
%TO.N,unconnected-(J18-Pin_43-Pad43)*%
X62590000Y-54340000D03*
%TO.P,J18,44,Pin_44*%
%TO.N,unconnected-(J18-Pin_44-Pad44)*%
X67670000Y-54340000D03*
%TO.P,J18,45,Pin_45*%
%TO.N,unconnected-(J18-Pin_45-Pad45)*%
X62590000Y-56880000D03*
%TO.P,J18,46,Pin_46*%
%TO.N,unconnected-(J18-Pin_46-Pad46)*%
X67670000Y-56880000D03*
%TO.P,J18,47,Pin_47*%
%TO.N,unconnected-(J18-Pin_47-Pad47)*%
X62590000Y-59420000D03*
%TO.P,J18,48,Pin_48*%
%TO.N,unconnected-(J18-Pin_48-Pad48)*%
X67670000Y-59420000D03*
%TO.P,J18,49,Pin_49*%
%TO.N,unconnected-(J18-Pin_49-Pad49)*%
X62590000Y-61960000D03*
%TO.P,J18,50,Pin_50*%
%TO.N,unconnected-(J18-Pin_50-Pad50)*%
X67670000Y-61960000D03*
%TO.P,J18,51,Pin_51*%
%TO.N,unconnected-(J18-Pin_51-Pad51)*%
X62590000Y-64500000D03*
%TO.P,J18,52,Pin_52*%
%TO.N,unconnected-(J18-Pin_52-Pad52)*%
X67670000Y-64500000D03*
%TO.P,J18,53,Pin_53*%
%TO.N,unconnected-(J18-Pin_53-Pad53)*%
X62590000Y-67040000D03*
%TO.P,J18,54,Pin_54*%
%TO.N,unconnected-(J18-Pin_54-Pad54)*%
X67670000Y-67040000D03*
%TO.P,J18,55,Pin_55*%
%TO.N,unconnected-(J18-Pin_55-Pad55)*%
X62590000Y-69580000D03*
%TO.P,J18,56,Pin_56*%
%TO.N,unconnected-(J18-Pin_56-Pad56)*%
X67670000Y-69580000D03*
%TO.P,J18,57,Pin_57*%
%TO.N,unconnected-(J18-Pin_57-Pad57)*%
X62590000Y-72120000D03*
%TO.P,J18,58,Pin_58*%
%TO.N,unconnected-(J18-Pin_58-Pad58)*%
X67670000Y-72120000D03*
%TO.P,J18,59,Pin_59*%
%TO.N,+5V*%
X62590000Y-74660000D03*
%TO.P,J18,60,Pin_60*%
%TO.N,unconnected-(J18-Pin_60-Pad60)*%
X67670000Y-74660000D03*
%TD*%
D19*
%TO.P,FB1,1*%
%TO.N,Net-(F1-Pad2)*%
X150860000Y-23225000D03*
D20*
%TO.P,FB1,2*%
%TO.N,Net-(SW2-A)*%
X150860000Y-35925000D03*
%TD*%
D12*
%TO.P,J17,1,Pin_1*%
%TO.N,GND*%
X44815000Y-1000000D03*
%TO.P,J17,2,Pin_2*%
%TO.N,+5V*%
X49895000Y-1000000D03*
D13*
%TO.P,J17,3,Pin_3*%
%TO.N,/GPIO/A11*%
X44815000Y-3540000D03*
%TO.P,J17,4,Pin_4*%
%TO.N,CLOCK*%
X49895000Y-3540000D03*
%TO.P,J17,5,Pin_5*%
%TO.N,/GPIO/A10*%
X44815000Y-6080000D03*
%TO.P,J17,6,Pin_6*%
%TO.N,/GPIO/A12*%
X49895000Y-6080000D03*
%TO.P,J17,7,Pin_7*%
%TO.N,/GPIO/A9*%
X44815000Y-8620000D03*
%TO.P,J17,8,Pin_8*%
%TO.N,/GPIO/A13*%
X49895000Y-8620000D03*
%TO.P,J17,9,Pin_9*%
%TO.N,/GPIO/A8*%
X44815000Y-11160000D03*
%TO.P,J17,10,Pin_10*%
%TO.N,/GPIO/A14*%
X49895000Y-11160000D03*
%TO.P,J17,11,Pin_11*%
%TO.N,/GPIO/A7*%
X44815000Y-13700000D03*
%TO.P,J17,12,Pin_12*%
%TO.N,/GPIO/A15*%
X49895000Y-13700000D03*
%TO.P,J17,13,Pin_13*%
%TO.N,/GPIO/A6*%
X44815000Y-16240000D03*
%TO.P,J17,14,Pin_14*%
%TO.N,/GPIO/D7*%
X49895000Y-16240000D03*
%TO.P,J17,15,Pin_15*%
%TO.N,/GPIO/A5*%
X44815000Y-18780000D03*
%TO.P,J17,16,Pin_16*%
%TO.N,/GPIO/D6*%
X49895000Y-18780000D03*
%TO.P,J17,17,Pin_17*%
%TO.N,/GPIO/A4*%
X44815000Y-21320000D03*
%TO.P,J17,18,Pin_18*%
%TO.N,/GPIO/D5*%
X49895000Y-21320000D03*
%TO.P,J17,19,Pin_19*%
%TO.N,/GPIO/A3*%
X44815000Y-23860000D03*
%TO.P,J17,20,Pin_20*%
%TO.N,/GPIO/D4*%
X49895000Y-23860000D03*
%TO.P,J17,21,Pin_21*%
%TO.N,/GPIO/A2*%
X44815000Y-26400000D03*
%TO.P,J17,22,Pin_22*%
%TO.N,/GPIO/D3*%
X49895000Y-26400000D03*
%TO.P,J17,23,Pin_23*%
%TO.N,/GPIO/A1*%
X44815000Y-28940000D03*
%TO.P,J17,24,Pin_24*%
%TO.N,/GPIO/D2*%
X49895000Y-28940000D03*
%TO.P,J17,25,Pin_25*%
%TO.N,/GPIO/A0*%
X44815000Y-31480000D03*
%TO.P,J17,26,Pin_26*%
%TO.N,/GPIO/D1*%
X49895000Y-31480000D03*
%TO.P,J17,27,Pin_27*%
%TO.N,/GPIO/RW*%
X44815000Y-34020000D03*
%TO.P,J17,28,Pin_28*%
%TO.N,/GPIO/D0*%
X49895000Y-34020000D03*
%TO.P,J17,29,Pin_29*%
%TO.N,/Ports/IRQ5B*%
X44815000Y-36560000D03*
%TO.P,J17,30,Pin_30*%
%TO.N,/Ports/PORT3CSB*%
X49895000Y-36560000D03*
%TO.P,J17,31,Pin_31*%
%TO.N,GND*%
X44815000Y-39100000D03*
%TO.P,J17,32,Pin_32*%
%TO.N,RESET*%
X49895000Y-39100000D03*
%TO.P,J17,33,Pin_33*%
%TO.N,/North Bridge/RAMCSB*%
X44815000Y-41640000D03*
%TO.P,J17,34,Pin_34*%
%TO.N,/North Bridge/DMAB*%
X49895000Y-41640000D03*
%TO.P,J17,35,Pin_35*%
%TO.N,unconnected-(J17-Pin_35-Pad35)*%
X44815000Y-44180000D03*
%TO.P,J17,36,Pin_36*%
%TO.N,/North Bridge/NMIB*%
X49895000Y-44180000D03*
%TO.P,J17,37,Pin_37*%
%TO.N,unconnected-(J17-Pin_37-Pad37)*%
X44815000Y-46720000D03*
%TO.P,J17,38,Pin_38*%
%TO.N,unconnected-(J17-Pin_38-Pad38)*%
X49895000Y-46720000D03*
%TO.P,J17,39,Pin_39*%
%TO.N,unconnected-(J17-Pin_39-Pad39)*%
X44815000Y-49260000D03*
%TO.P,J17,40,Pin_40*%
%TO.N,unconnected-(J17-Pin_40-Pad40)*%
X49895000Y-49260000D03*
%TO.P,J17,41,Pin_41*%
%TO.N,unconnected-(J17-Pin_41-Pad41)*%
X44815000Y-51800000D03*
%TO.P,J17,42,Pin_42*%
%TO.N,unconnected-(J17-Pin_42-Pad42)*%
X49895000Y-51800000D03*
%TO.P,J17,43,Pin_43*%
%TO.N,unconnected-(J17-Pin_43-Pad43)*%
X44815000Y-54340000D03*
%TO.P,J17,44,Pin_44*%
%TO.N,unconnected-(J17-Pin_44-Pad44)*%
X49895000Y-54340000D03*
%TO.P,J17,45,Pin_45*%
%TO.N,unconnected-(J17-Pin_45-Pad45)*%
X44815000Y-56880000D03*
%TO.P,J17,46,Pin_46*%
%TO.N,unconnected-(J17-Pin_46-Pad46)*%
X49895000Y-56880000D03*
%TO.P,J17,47,Pin_47*%
%TO.N,unconnected-(J17-Pin_47-Pad47)*%
X44815000Y-59420000D03*
%TO.P,J17,48,Pin_48*%
%TO.N,unconnected-(J17-Pin_48-Pad48)*%
X49895000Y-59420000D03*
%TO.P,J17,49,Pin_49*%
%TO.N,unconnected-(J17-Pin_49-Pad49)*%
X44815000Y-61960000D03*
%TO.P,J17,50,Pin_50*%
%TO.N,unconnected-(J17-Pin_50-Pad50)*%
X49895000Y-61960000D03*
%TO.P,J17,51,Pin_51*%
%TO.N,unconnected-(J17-Pin_51-Pad51)*%
X44815000Y-64500000D03*
%TO.P,J17,52,Pin_52*%
%TO.N,unconnected-(J17-Pin_52-Pad52)*%
X49895000Y-64500000D03*
%TO.P,J17,53,Pin_53*%
%TO.N,unconnected-(J17-Pin_53-Pad53)*%
X44815000Y-67040000D03*
%TO.P,J17,54,Pin_54*%
%TO.N,unconnected-(J17-Pin_54-Pad54)*%
X49895000Y-67040000D03*
%TO.P,J17,55,Pin_55*%
%TO.N,unconnected-(J17-Pin_55-Pad55)*%
X44815000Y-69580000D03*
%TO.P,J17,56,Pin_56*%
%TO.N,unconnected-(J17-Pin_56-Pad56)*%
X49895000Y-69580000D03*
%TO.P,J17,57,Pin_57*%
%TO.N,unconnected-(J17-Pin_57-Pad57)*%
X44815000Y-72120000D03*
%TO.P,J17,58,Pin_58*%
%TO.N,unconnected-(J17-Pin_58-Pad58)*%
X49895000Y-72120000D03*
%TO.P,J17,59,Pin_59*%
%TO.N,+5V*%
X44815000Y-74660000D03*
%TO.P,J17,60,Pin_60*%
%TO.N,unconnected-(J17-Pin_60-Pad60)*%
X49895000Y-74660000D03*
%TD*%
D12*
%TO.P,J22,1,Pin_1*%
%TO.N,PA20*%
X77200000Y-161020000D03*
D13*
%TO.P,J22,2,Pin_2*%
%TO.N,PA21*%
X79740000Y-161020000D03*
%TO.P,J22,3,Pin_3*%
%TO.N,PA22*%
X82280000Y-161020000D03*
%TO.P,J22,4,Pin_4*%
%TO.N,PA23*%
X84820000Y-161020000D03*
%TO.P,J22,5,Pin_5*%
%TO.N,PA24*%
X87360000Y-161020000D03*
%TO.P,J22,6,Pin_6*%
%TO.N,PA25*%
X89900000Y-161020000D03*
%TO.P,J22,7,Pin_7*%
%TO.N,PA26*%
X92440000Y-161020000D03*
%TO.P,J22,8,Pin_8*%
%TO.N,PA27*%
X94980000Y-161020000D03*
%TO.P,J22,9,Pin_9*%
%TO.N,CA21*%
X97520000Y-161020000D03*
%TO.P,J22,10,Pin_10*%
%TO.N,CA22*%
X100060000Y-161020000D03*
%TD*%
D25*
%TO.P,J2,1*%
%TO.N,Net-(F2-Pad1)*%
X130540000Y-10175000D03*
D26*
%TO.P,J2,2*%
%TO.N,GND*%
X130540000Y-4175000D03*
D27*
%TO.P,J2,3*%
%TO.N,N/C*%
X125840000Y-7175000D03*
%TD*%
D10*
%TO.P,R3,1*%
%TO.N,+5V*%
X117840000Y-58150000D03*
D11*
%TO.P,R3,2*%
%TO.N,RESET*%
X128000000Y-58150000D03*
%TD*%
D10*
%TO.P,R12,1*%
%TO.N,/North Bridge/SOB*%
X134350000Y-70850000D03*
D11*
%TO.P,R12,2*%
%TO.N,+5V*%
X134350000Y-60690000D03*
%TD*%
D12*
%TO.P,J3,1,Pin_1*%
%TO.N,Net-(J3-Pin_1)*%
X6080000Y-133080000D03*
D13*
%TO.P,J3,2,Pin_2*%
%TO.N,CLOCK*%
X8620000Y-133080000D03*
%TO.P,J3,3,Pin_3*%
%TO.N,ECLOCK*%
X6080000Y-135620000D03*
%TO.P,J3,4,Pin_4*%
%TO.N,CLOCK*%
X8620000Y-135620000D03*
%TD*%
D10*
%TO.P,C6,1*%
%TO.N,+5V*%
X110855000Y-83510000D03*
%TO.P,C6,2*%
%TO.N,GND*%
X110855000Y-81010000D03*
%TD*%
D28*
%TO.P,SW3,*%
%TO.N,*%
X96850000Y-2270000D03*
X103860000Y-2270000D03*
D29*
%TO.P,SW3,1,1*%
%TO.N,RESET*%
X98100000Y220000D03*
%TO.P,SW3,2,2*%
%TO.N,GND*%
X102600000Y220000D03*
%TD*%
D13*
%TO.P,J23,10,Pin_10*%
%TO.N,CB22*%
X128000000Y-161020000D03*
%TO.P,J23,9,Pin_9*%
%TO.N,CB21*%
X125460000Y-161020000D03*
%TO.P,J23,8,Pin_8*%
%TO.N,PB27*%
X122920000Y-161020000D03*
%TO.P,J23,7,Pin_7*%
%TO.N,PB26*%
X120380000Y-161020000D03*
%TO.P,J23,6,Pin_6*%
%TO.N,PB25*%
X117840000Y-161020000D03*
%TO.P,J23,5,Pin_5*%
%TO.N,PB24*%
X115300000Y-161020000D03*
%TO.P,J23,4,Pin_4*%
%TO.N,PB23*%
X112760000Y-161020000D03*
%TO.P,J23,3,Pin_3*%
%TO.N,PB22*%
X110220000Y-161020000D03*
%TO.P,J23,2,Pin_2*%
%TO.N,PB21*%
X107680000Y-161020000D03*
D12*
%TO.P,J23,1,Pin_1*%
%TO.N,PB20*%
X105140000Y-161020000D03*
%TD*%
D10*
%TO.P,C3,1*%
%TO.N,Net-(SW2-A)*%
X127365000Y-28940000D03*
%TO.P,C3,2*%
%TO.N,GND*%
X127365000Y-26940000D03*
%TD*%
D30*
%TO.N,RESET*%
X31480000Y-135620000D03*
X73390000Y-135620000D03*
X73390000Y-39100000D03*
X129270000Y-39100000D03*
X97520000Y-135620000D03*
%TO.N,/North Bridge/DMAB*%
X106410000Y-74660000D03*
X106410000Y-41640000D03*
X59420000Y-41640000D03*
X106410000Y-46720000D03*
%TO.N,CLOCK*%
X72120000Y-136890000D03*
X72120000Y-3540000D03*
X58150000Y-136890000D03*
X126730000Y-136890000D03*
X57515000Y-110220000D03*
%TO.N,/North Bridge/NMIB*%
X116062000Y-44180000D03*
X116062000Y-78470000D03*
X116062000Y-57134000D03*
%TO.N,/Ports/IRQ3B*%
X6080000Y-58658000D03*
X6080000Y-83296000D03*
%TO.N,/Ports/IRQ6B*%
X33385000Y-77835000D03*
X65770000Y-77835000D03*
X65770000Y-58150000D03*
%TO.N,/Ports/IRQ5B*%
X34655000Y-80375000D03*
X41640000Y-80375000D03*
X41640000Y-58404000D03*
%TO.N,/Ports/IRQ4B*%
X23860000Y-58150000D03*
X35925000Y-82534000D03*
X22336000Y-82534000D03*
%TO.N,/GPIO/A14*%
X103870000Y-11160000D03*
X103870000Y-105140000D03*
X149590000Y-106410000D03*
%TO.N,/GPIO/A12*%
X101330000Y-6080000D03*
X101330000Y-110220000D03*
X148320000Y-111490000D03*
%TO.N,/GPIO/A7*%
X94980000Y-14970000D03*
X147050000Y-105140000D03*
X94980000Y-103870000D03*
%TO.N,/GPIO/A6*%
X93710000Y-17510000D03*
X145780000Y-102600000D03*
X93710000Y-101330000D03*
%TO.N,/GPIO/A5*%
X92440000Y-98790000D03*
X92440000Y-20050000D03*
X131810000Y-100060000D03*
%TO.N,/GPIO/A4*%
X91170000Y-96250000D03*
X91170000Y-22590000D03*
X133080000Y-97520000D03*
%TO.N,/GPIO/A3*%
X89900000Y-130540000D03*
X134350000Y-94980000D03*
X89900000Y-93710000D03*
X89900000Y-25130000D03*
X94980000Y-130540000D03*
X28940000Y-130540000D03*
%TO.N,/GPIO/A2*%
X88630000Y-131810000D03*
X135620000Y-92440000D03*
X88630000Y-27670000D03*
X92440000Y-131810000D03*
X26400000Y-131810000D03*
X88630000Y-91170000D03*
%TO.N,/GPIO/A1*%
X137525000Y-89900000D03*
X87360000Y-133080000D03*
X89900000Y-133080000D03*
X87360000Y-30210000D03*
X23860000Y-133080000D03*
X87360000Y-88630000D03*
%TO.N,/GPIO/A0*%
X21320000Y-134350000D03*
X86090000Y-32750000D03*
X87360000Y-134350000D03*
X86090000Y-86090000D03*
X86090000Y-134350000D03*
%TO.N,/GPIO/D0*%
X37830000Y-129270000D03*
X34020000Y-129270000D03*
X75930000Y-129270000D03*
X141970000Y-84820000D03*
X141970000Y-91170000D03*
X100060000Y-129270000D03*
X75930000Y-34020000D03*
X75930000Y-82280000D03*
%TO.N,/GPIO/D1*%
X40370000Y-128000000D03*
X143240000Y-93710000D03*
X36560000Y-128000000D03*
X77200000Y-128000000D03*
X102600000Y-128000000D03*
X143240000Y-87360000D03*
X77200000Y-84820000D03*
X77200000Y-31480000D03*
%TO.N,/GPIO/D2*%
X78470000Y-87360000D03*
X78470000Y-126730000D03*
X144510000Y-96250000D03*
X42910000Y-126730000D03*
X39100000Y-126730000D03*
X78470000Y-28940000D03*
X144510000Y-89900000D03*
X105140000Y-126730000D03*
%TO.N,/GPIO/D3*%
X107680000Y-125460000D03*
X79740000Y-26400000D03*
X79740000Y-125460000D03*
X79740000Y-89900000D03*
X153400000Y-92560000D03*
X41640000Y-125460000D03*
X45450000Y-125460000D03*
%TO.N,/GPIO/D4*%
X81010000Y-92440000D03*
X47990000Y-124190000D03*
X81010000Y-124190000D03*
X81010000Y-23860000D03*
X44180000Y-124190000D03*
X110220000Y-124190000D03*
%TO.N,/GPIO/D5*%
X46720000Y-122920000D03*
X155940000Y-97520000D03*
X82280000Y-94980000D03*
X50530000Y-122920000D03*
X82280000Y-122920000D03*
X112760000Y-122920000D03*
X82280000Y-21320000D03*
%TO.N,/GPIO/D6*%
X83550000Y-97520000D03*
X152130000Y-100060000D03*
X54848000Y-121650000D03*
X49260000Y-121650000D03*
X115300000Y-121650000D03*
X83550000Y-18780000D03*
X83550000Y-121650000D03*
%TO.N,/GPIO/D7*%
X53705000Y-120380000D03*
X150860000Y-101330000D03*
X84820000Y-16240000D03*
X84820000Y-120380000D03*
X84820000Y-100060000D03*
X117840000Y-120380000D03*
X51800000Y-120380000D03*
%TO.N,/North Bridge/RAMCSB*%
X152130000Y-42910000D03*
X69580000Y-108950000D03*
X69580000Y-42910000D03*
%TO.N,/GPIO/A10*%
X56245000Y-101330000D03*
X58785000Y-7350000D03*
X157210000Y-112760000D03*
X98790000Y-111490000D03*
X98790000Y-7350000D03*
%TO.N,/GPIO/A11*%
X100060000Y-4810000D03*
X100060000Y-112760000D03*
X159750000Y-115300000D03*
%TO.N,/GPIO/A9*%
X54975000Y-103870000D03*
X97520000Y-9890000D03*
X53070000Y-9890000D03*
X97520000Y-108950000D03*
X161020000Y-110220000D03*
%TO.N,/GPIO/A8*%
X162290000Y-107680000D03*
X51800000Y-12430000D03*
X96250000Y-106410000D03*
X56118000Y-106410000D03*
X96250000Y-12430000D03*
%TO.N,/GPIO/A13*%
X102600000Y-8620000D03*
X163560000Y-108950000D03*
X102600000Y-107680000D03*
%TO.N,/GPIO/RW*%
X128000000Y-117840000D03*
X74660000Y-35290000D03*
X61960000Y-117840000D03*
X74660000Y-79740000D03*
X74660000Y-117840000D03*
%TO.N,/North Bridge/IRQB*%
X39862000Y-73395000D03*
%TO.N,/GPIO/A15*%
X105140000Y-102600000D03*
X105140000Y-13700000D03*
%TO.N,/GPIO/IRQ1B*%
X130540000Y-116570000D03*
X33385000Y-115300000D03*
%TO.N,/GPIO/IRQ0B*%
X27670000Y-116570000D03*
X64500000Y-116570000D03*
%TO.N,Net-(U5-S1)*%
X41005000Y-100060000D03*
%TO.N,/Ports/ROMCSB*%
X70850000Y-106405000D03*
X70850000Y-37830000D03*
%TO.N,/Ports/PORT1CSB*%
X12430000Y-79105000D03*
X62595000Y-79105000D03*
%TO.N,/Ports/PORT2CSB*%
X63865000Y-81645000D03*
X30210000Y-81645000D03*
%TO.N,/Ports/PORT3CSB*%
X47990000Y-80375000D03*
X65135000Y-80375000D03*
%TO.N,/GPIO/CIA1CSB*%
X67675000Y-119110000D03*
X59420000Y-119110000D03*
%TO.N,/GPIO/CIA2CSB*%
X68310000Y-115300000D03*
X125460000Y-115300000D03*
%TD*%
D31*
%TO.N,/GPIO/D4*%
X137525000Y-93710000D02*
X128000000Y-93710000D01*
X126730000Y-92440000D02*
X81010000Y-92440000D01*
X138795000Y-94980000D02*
X137525000Y-93710000D01*
X153400000Y-94980000D02*
X138795000Y-94980000D01*
X128000000Y-93710000D02*
X126730000Y-92440000D01*
X154670000Y-96250000D02*
X153400000Y-94980000D01*
%TO.N,/GPIO/A10*%
X157210000Y-112760000D02*
X127823223Y-112760000D01*
X127823223Y-112760000D02*
X126553223Y-111490000D01*
X126553223Y-111490000D02*
X98790000Y-111490000D01*
%TO.N,/GPIO/D5*%
X155940000Y-97520000D02*
X139073654Y-97520000D01*
X139073654Y-97520000D02*
X137803654Y-96250000D01*
X128000000Y-96250000D02*
X126730000Y-94980000D01*
X137803654Y-96250000D02*
X128000000Y-96250000D01*
X126730000Y-94980000D02*
X82280000Y-94980000D01*
D32*
%TO.N,+5V*%
X15762000Y300000D02*
X30815000Y300000D01*
X70850000Y2175000D02*
X104489416Y2175000D01*
X-1540000Y-130540000D02*
X-1540000Y-131175000D01*
X151749000Y-365000D02*
X154162000Y-2778000D01*
X33415000Y300000D02*
X48595000Y300000D01*
X154670000Y-65770000D02*
X158480000Y-65770000D01*
X104489416Y2175000D02*
X107029416Y-365000D01*
X107029416Y-365000D02*
X112821486Y-365000D01*
X-1540000Y-138160000D02*
X1000000Y-140700000D01*
X28940000Y-76565000D02*
X27035000Y-74660000D01*
X130540000Y-153400000D02*
X135620000Y-153400000D01*
X7985000Y-124190000D02*
X9890000Y-126095000D01*
X57515000Y-145780000D02*
X64500000Y-145780000D01*
X111744000Y-77200000D02*
X132064000Y-77200000D01*
X64460000Y-76530000D02*
X62590000Y-74660000D01*
X-1540000Y-90535000D02*
X-1540000Y-131175000D01*
X44815000Y-74660000D02*
X42910000Y-76565000D01*
X128000000Y-47990000D02*
X128000000Y-53070000D01*
X27035000Y-105775000D02*
X27670000Y-106410000D01*
X66405000Y-86090000D02*
X66405000Y-84145000D01*
X56880000Y-145780000D02*
X57515000Y-145780000D01*
X42910000Y-76565000D02*
X37800000Y-76565000D01*
X37840000Y-86105000D02*
X37840000Y-83560000D01*
X32775000Y-106410000D02*
X37840000Y-101345000D01*
X9890000Y-110855000D02*
X9890000Y-105815000D01*
X64500000Y-153400000D02*
X69500000Y-153400000D01*
X122920000Y-145780000D02*
X130540000Y-153400000D01*
X6080000Y-145780000D02*
X57515000Y-145780000D01*
X117840000Y-58150000D02*
X119110000Y-59420000D01*
X116090000Y-365000D02*
X151749000Y-365000D01*
X-1540000Y-90535000D02*
X-1540000Y-8620000D01*
X56880000Y-138160000D02*
X56880000Y-145780000D01*
X69615000Y-76565000D02*
X108220000Y-76565000D01*
X69580000Y-153320000D02*
X69580000Y-158480000D01*
X66370000Y300000D02*
X67670000Y-1000000D01*
X154670000Y-65770000D02*
X154670000Y-60690000D01*
X-1540000Y-76565000D02*
X7477000Y-76565000D01*
X64460000Y-76530000D02*
X69580000Y-76530000D01*
X135620000Y-158480000D02*
X133080000Y-161020000D01*
X134350000Y-60690000D02*
X134350000Y-56880000D01*
X119110000Y-59420000D02*
X119110000Y-61960000D01*
X69580000Y-158480000D02*
X67040000Y-161020000D01*
X9890000Y-90535000D02*
X25765000Y-90535000D01*
X110982000Y-77962000D02*
X111744000Y-77200000D01*
X46720000Y-76565000D02*
X60685000Y-76565000D01*
X69580000Y-76530000D02*
X69615000Y-76565000D01*
X133080000Y-55610000D02*
X128000000Y-55610000D01*
X156448000Y-13700000D02*
X158480000Y-13700000D01*
X128000000Y-55610000D02*
X119110000Y-55610000D01*
X20050000Y-76565000D02*
X20050000Y-74660000D01*
X114380000Y-2075000D02*
X116090000Y-365000D01*
X64500000Y-153400000D02*
X64500000Y-145780000D01*
X38485000Y-82915000D02*
X39755000Y-84185000D01*
X-1540000Y-131175000D02*
X-1540000Y-138160000D01*
X135620000Y-153400000D02*
X135620000Y-158480000D01*
X67675000Y-82875000D02*
X69540000Y-82875000D01*
X46720000Y-76565000D02*
X44815000Y-74660000D01*
X134350000Y-60690000D02*
X135600000Y-59440000D01*
X51800000Y-86090000D02*
X51800000Y-82955000D01*
X52990000Y-84145000D02*
X66405000Y-84145000D01*
X15605000Y-126095000D02*
X9890000Y-126095000D01*
X67670000Y-1000000D02*
X68995000Y325000D01*
X1000000Y-140700000D02*
X6080000Y-145780000D01*
X25765000Y-90535000D02*
X27035000Y-91805000D01*
X154162000Y-11414000D02*
X156448000Y-13700000D01*
X66405000Y-84145000D02*
X67675000Y-82875000D01*
X153420000Y-59440000D02*
X154670000Y-60690000D01*
X109617000Y-77962000D02*
X110982000Y-77962000D01*
X32115000Y-1000000D02*
X33415000Y300000D01*
X51760000Y-82915000D02*
X52990000Y-84145000D01*
X68995000Y325000D02*
X69000000Y325000D01*
X14462000Y-1000000D02*
X15762000Y300000D01*
X27670000Y-106410000D02*
X32775000Y-106410000D01*
X-1540000Y-8620000D02*
X7985000Y905000D01*
X132064000Y-77200000D02*
X136636000Y-72628000D01*
X49895000Y-1000000D02*
X51195000Y300000D01*
X50490000Y-84185000D02*
X51760000Y-82915000D01*
X122920000Y-145780000D02*
X122920000Y-138160000D01*
X114030000Y-83550000D02*
X70215000Y-83550000D01*
X64500000Y-145780000D02*
X122920000Y-145780000D01*
X7985000Y905000D02*
X12557000Y905000D01*
X9890000Y-85328000D02*
X9890000Y-90535000D01*
X69540000Y-82875000D02*
X69580000Y-82915000D01*
X27035000Y-74660000D02*
X25130000Y-76565000D01*
X30815000Y300000D02*
X32115000Y-1000000D01*
X37830000Y-76565000D02*
X37830000Y-74660000D01*
X51195000Y300000D02*
X66370000Y300000D01*
X11287000Y-76565000D02*
X9382000Y-74660000D01*
X39755000Y-84185000D02*
X50490000Y-84185000D01*
X7985000Y-112760000D02*
X7985000Y-124190000D01*
X112821486Y-365000D02*
X114380000Y-1923514D01*
X69580000Y-82915000D02*
X69580000Y-76530000D01*
X55610000Y-76565000D02*
X55610000Y-74660000D01*
X-1540000Y-90535000D02*
X9890000Y-90535000D01*
X37840000Y-83560000D02*
X38485000Y-82915000D01*
X12557000Y905000D02*
X14462000Y-1000000D01*
X108220000Y-76565000D02*
X109617000Y-77962000D01*
X5445000Y-130540000D02*
X-1540000Y-130540000D01*
X27035000Y-91805000D02*
X27035000Y-105775000D01*
X37800000Y-76565000D02*
X28940000Y-76565000D01*
X9890000Y-126095000D02*
X5445000Y-130540000D01*
X135600000Y-59440000D02*
X153420000Y-59440000D01*
X11287000Y-76565000D02*
X25130000Y-76565000D01*
X119110000Y-55610000D02*
X117840000Y-56880000D01*
X134350000Y-56880000D02*
X133080000Y-55610000D01*
X9382000Y-74660000D02*
X7477000Y-76565000D01*
X154162000Y-2778000D02*
X154162000Y-11414000D01*
X69000000Y325000D02*
X70850000Y2175000D01*
X9890000Y-110855000D02*
X7985000Y-112760000D01*
X70215000Y-83550000D02*
X69580000Y-82915000D01*
X136636000Y-72628000D02*
X136636000Y-62976000D01*
X37800000Y-76565000D02*
X37830000Y-76565000D01*
X158480000Y-56880000D02*
X154670000Y-60690000D01*
X62590000Y-74660000D02*
X60685000Y-76565000D01*
X128000000Y-53070000D02*
X128000000Y-55610000D01*
X158480000Y-13700000D02*
X158480000Y-56880000D01*
X2778000Y-74792000D02*
X2778000Y-76570000D01*
X48595000Y300000D02*
X49895000Y-1000000D01*
X136636000Y-62976000D02*
X134350000Y-60690000D01*
X117840000Y-56880000D02*
X117840000Y-58150000D01*
%TO.N,Net-(#FLG01-pwr)*%
X115395000Y-35925000D02*
X134985000Y-35925000D01*
%TO.N,Net-(SW2-A)*%
X119110000Y-33290000D02*
X120380000Y-32020000D01*
X150860000Y-35925000D02*
X142605000Y-35925000D01*
X120380000Y-9890000D02*
X118380000Y-7890000D01*
X118380000Y-7890000D02*
X118380000Y-2710000D01*
X112760000Y-34560000D02*
X114030000Y-33290000D01*
X120380000Y-32020000D02*
X120380000Y-28940000D01*
X120380000Y-28940000D02*
X120380000Y-9890000D01*
X114030000Y-33290000D02*
X119110000Y-33290000D01*
X120380000Y-28940000D02*
X135620000Y-28940000D01*
X112760000Y-36170000D02*
X112760000Y-34560000D01*
X142605000Y-35925000D02*
X135620000Y-28940000D01*
D31*
%TO.N,RESET*%
X27670000Y-37830000D02*
X28940000Y-39100000D01*
X129270000Y-39100000D02*
X67670000Y-39100000D01*
X60690000Y-39100000D02*
X61960000Y-37830000D01*
X31480000Y-135620000D02*
X97520000Y-135620000D01*
X64500000Y-39100000D02*
X67670000Y-39100000D01*
X31457555Y-135642445D02*
X31480000Y-135620000D01*
X26400000Y-37830000D02*
X27670000Y-37830000D01*
X49895000Y-39100000D02*
X60690000Y-39100000D01*
X25130000Y-39100000D02*
X26400000Y-37830000D01*
X11182445Y-135642445D02*
X31457555Y-135642445D01*
X11182445Y-135642445D02*
X10230529Y-134690529D01*
X129270000Y-59420000D02*
X128000000Y-58150000D01*
X32115000Y-39100000D02*
X42910000Y-39100000D01*
X42910000Y-39100000D02*
X44180000Y-37830000D01*
X46720000Y-39100000D02*
X49895000Y-39100000D01*
X28940000Y-39100000D02*
X32115000Y-39100000D01*
X129270000Y-65770000D02*
X129270000Y-59420000D01*
X9679264Y-131810000D02*
X2270000Y-131810000D01*
X45450000Y-37830000D02*
X46720000Y-39100000D01*
X63230000Y-37830000D02*
X64500000Y-39100000D01*
X14462000Y-39100000D02*
X25130000Y-39100000D01*
X10230529Y-134690529D02*
X10230529Y-132361265D01*
X61960000Y-37830000D02*
X63230000Y-37830000D01*
X44180000Y-37830000D02*
X45450000Y-37830000D01*
X2270000Y-131810000D02*
X1000000Y-133080000D01*
X10230529Y-132361265D02*
X9679264Y-131810000D01*
%TO.N,Net-(D1-K)*%
X161020000Y-13700000D02*
X161020000Y-21320000D01*
%TO.N,/North Bridge/DMAB*%
X62092943Y-40440000D02*
X63300000Y-40440000D01*
X42910000Y-41640000D02*
X44180000Y-40370000D01*
X60892943Y-41640000D02*
X62092943Y-40440000D01*
X128000000Y-74660000D02*
X106410000Y-74660000D01*
X108950000Y-46720000D02*
X113771000Y-46720000D01*
X25337943Y-41640000D02*
X26537943Y-40440000D01*
X14462000Y-41640000D02*
X25337943Y-41640000D01*
X28940000Y-41640000D02*
X32115000Y-41640000D01*
X44180000Y-40370000D02*
X45450000Y-40370000D01*
X64500000Y-41640000D02*
X67670000Y-41640000D01*
X46720000Y-41640000D02*
X49895000Y-41640000D01*
X108950000Y-46720000D02*
X106410000Y-46720000D01*
X26537943Y-40440000D02*
X27740000Y-40440000D01*
X129270000Y-75930000D02*
X128000000Y-74660000D01*
X32115000Y-41640000D02*
X42910000Y-41640000D01*
X27740000Y-40440000D02*
X28940000Y-41640000D01*
X45450000Y-40370000D02*
X46720000Y-41640000D01*
X49895000Y-41640000D02*
X60892943Y-41640000D01*
X67670000Y-41640000D02*
X106410000Y-41640000D01*
X63300000Y-40440000D02*
X64500000Y-41640000D01*
%TO.N,/North Bridge/RDY*%
X112003000Y-68315000D02*
X108950000Y-65262000D01*
X114025000Y-68315000D02*
X112003000Y-68315000D01*
X108950000Y-65262000D02*
X108950000Y-61960000D01*
D32*
%TO.N,Net-(J1-VBUS)*%
X144530000Y-17530000D02*
X145780000Y-18780000D01*
X144530000Y-12022500D02*
X144530000Y-17530000D01*
%TO.N,Net-(F1-Pad2)*%
X150860000Y-18780000D02*
X150860000Y-23225000D01*
%TO.N,Net-(F2-Pad1)*%
X130540000Y-10175000D02*
X130540000Y-18780000D01*
%TO.N,Net-(F2-Pad2)*%
X135620000Y-18780000D02*
X135620000Y-23225000D01*
%TO.N,unconnected-(J1-Shield-Pad5)*%
X139760000Y-7312500D02*
X151800000Y-7312500D01*
D31*
%TO.N,CLOCK*%
X49895000Y-3540000D02*
X60892943Y-3540000D01*
X120380000Y-136890000D02*
X120380000Y-138160000D01*
X27600000Y-2200000D02*
X28940000Y-3540000D01*
X14462000Y-3540000D02*
X25060000Y-3540000D01*
X60892943Y-3540000D02*
X62092943Y-2340000D01*
X8620000Y-135620000D02*
X9890000Y-136890000D01*
X55610000Y-136890000D02*
X126730000Y-136890000D01*
X25060000Y-3540000D02*
X26400000Y-2200000D01*
X28940000Y-3540000D02*
X32115000Y-3540000D01*
X45520000Y-2340000D02*
X46720000Y-3540000D01*
X63087057Y-2340000D02*
X64287057Y-3540000D01*
X32115000Y-3540000D02*
X43117943Y-3540000D01*
X26400000Y-2200000D02*
X27600000Y-2200000D01*
X51800000Y-108950000D02*
X56245000Y-108950000D01*
X54340000Y-138160000D02*
X55610000Y-136890000D01*
X67670000Y-3540000D02*
X72120000Y-3540000D01*
X64287057Y-3540000D02*
X67670000Y-3540000D01*
X46720000Y-3540000D02*
X49895000Y-3540000D01*
X8620000Y-133080000D02*
X8620000Y-135620000D01*
X9890000Y-136890000D02*
X53070000Y-136890000D01*
X62092943Y-2340000D02*
X63087057Y-2340000D01*
X44317943Y-2340000D02*
X45520000Y-2340000D01*
X43117943Y-3540000D02*
X44317943Y-2340000D01*
X56245000Y-108950000D02*
X57515000Y-110220000D01*
X53070000Y-136890000D02*
X54340000Y-138160000D01*
%TO.N,ECLOCK*%
X1000000Y-135620000D02*
X6080000Y-135620000D01*
%TO.N,/North Bridge/NMIB*%
X114030000Y-57139000D02*
X116057000Y-57139000D01*
X32115000Y-44180000D02*
X42982107Y-44180000D01*
X67670000Y-44180000D02*
X116062000Y-44180000D01*
X14462000Y-44180000D02*
X25337943Y-44180000D01*
X64422894Y-44180000D02*
X67670000Y-44180000D01*
X28732057Y-44180000D02*
X32115000Y-44180000D01*
X63152894Y-42910000D02*
X64422894Y-44180000D01*
X42982107Y-44180000D02*
X44182107Y-42980000D01*
X44182107Y-42980000D02*
X45312057Y-42980000D01*
X26537943Y-42980000D02*
X27532057Y-42980000D01*
X116057000Y-57139000D02*
X116062000Y-57134000D01*
X116062000Y-78470000D02*
X114025000Y-78475000D01*
X46512057Y-44180000D02*
X49895000Y-44180000D01*
X49895000Y-44180000D02*
X60757106Y-44180000D01*
X62027106Y-42910000D02*
X63152894Y-42910000D01*
X60757106Y-44180000D02*
X62027106Y-42910000D01*
X25337943Y-44180000D02*
X26537943Y-42980000D01*
X27532057Y-42980000D02*
X28732057Y-44180000D01*
X45312057Y-42980000D02*
X46512057Y-44180000D01*
%TO.N,Net-(J5-Pin_2)*%
X116311000Y-54599000D02*
X117840000Y-53070000D01*
X114030000Y-54599000D02*
X116311000Y-54599000D01*
%TO.N,/Ports/IRQ2B*%
X26903000Y-85328000D02*
X30220000Y-88645000D01*
X25765000Y-85328000D02*
X26903000Y-85328000D01*
%TO.N,/Ports/IRQ3B*%
X6080000Y-58658000D02*
X2905000Y-58658000D01*
X6080000Y-83296000D02*
X27411000Y-83296000D01*
X27411000Y-83296000D02*
X30220000Y-86105000D01*
%TO.N,Net-(J8-Pin_2)*%
X2778000Y-64632000D02*
X2778000Y-61198000D01*
%TO.N,/Ports/IRQ6B*%
X65770000Y-77835000D02*
X33385000Y-77835000D01*
X65765000Y-58145000D02*
X65770000Y-58150000D01*
X55610000Y-58145000D02*
X65765000Y-58145000D01*
%TO.N,Net-(J9-Pin_2)*%
X55610000Y-60685000D02*
X55610000Y-64373000D01*
%TO.N,/Ports/IRQ5B*%
X34655000Y-80375000D02*
X41640000Y-80375000D01*
X37830000Y-58404000D02*
X41513000Y-58404000D01*
X41513000Y-58404000D02*
X41640000Y-58277000D01*
%TO.N,Net-(J10-Pin_2)*%
X37830000Y-60944000D02*
X37830000Y-63865000D01*
%TO.N,/Ports/IRQ4B*%
X22336000Y-82534000D02*
X35925000Y-82534000D01*
X20055000Y-58150000D02*
X23860000Y-58150000D01*
%TO.N,Net-(J11-Pin_2)*%
X20304000Y-64500000D02*
X20304000Y-63738000D01*
X20050000Y-63738000D02*
X20050000Y-60685000D01*
%TO.N,PA10*%
X11160000Y-161020000D02*
X18780000Y-153400000D01*
%TO.N,PA11*%
X13700000Y-161020000D02*
X21320000Y-153400000D01*
%TO.N,PA12*%
X16240000Y-161020000D02*
X23860000Y-153400000D01*
%TO.N,PA13*%
X18780000Y-161020000D02*
X26400000Y-153400000D01*
%TO.N,PA14*%
X21320000Y-161020000D02*
X28940000Y-153400000D01*
%TO.N,PA15*%
X23860000Y-161020000D02*
X31480000Y-153400000D01*
%TO.N,PA16*%
X26400000Y-161020000D02*
X34020000Y-153400000D01*
%TO.N,PA17*%
X28940000Y-161020000D02*
X36560000Y-153400000D01*
%TO.N,PB10*%
X39100000Y-161020000D02*
X39100000Y-153400000D01*
%TO.N,PB11*%
X41640000Y-153400000D02*
X41640000Y-161020000D01*
%TO.N,PB12*%
X44180000Y-153400000D02*
X44180000Y-161020000D01*
%TO.N,PB13*%
X46720000Y-153400000D02*
X46720000Y-161020000D01*
%TO.N,PB14*%
X49260000Y-153400000D02*
X49260000Y-161020000D01*
%TO.N,PB15*%
X51800000Y-153400000D02*
X51800000Y-161020000D01*
%TO.N,PB16*%
X54340000Y-153400000D02*
X54340000Y-161020000D01*
%TO.N,PB17*%
X56880000Y-153400000D02*
X56880000Y-161020000D01*
%TO.N,CB11*%
X59420000Y-153400000D02*
X59420000Y-161020000D01*
%TO.N,CB12*%
X61960000Y-153400000D02*
X61960000Y-161020000D01*
%TO.N,PA20*%
X84820000Y-153400000D02*
X77200000Y-161020000D01*
%TO.N,PA21*%
X87360000Y-153400000D02*
X79740000Y-161020000D01*
%TO.N,PA22*%
X89900000Y-153400000D02*
X82280000Y-161020000D01*
%TO.N,PA23*%
X92440000Y-153400000D02*
X84820000Y-161020000D01*
%TO.N,PA24*%
X94980000Y-153400000D02*
X87360000Y-161020000D01*
%TO.N,PA25*%
X97520000Y-153400000D02*
X89900000Y-161020000D01*
%TO.N,PA26*%
X100060000Y-153400000D02*
X92440000Y-161020000D01*
%TO.N,PA27*%
X102600000Y-153400000D02*
X94980000Y-161020000D01*
%TO.N,PB20*%
X105140000Y-153400000D02*
X105140000Y-161020000D01*
%TO.N,PB21*%
X107680000Y-153400000D02*
X107680000Y-161020000D01*
%TO.N,PB22*%
X110220000Y-153400000D02*
X110220000Y-161020000D01*
%TO.N,PB23*%
X112760000Y-153400000D02*
X112760000Y-161020000D01*
%TO.N,PB24*%
X115300000Y-153400000D02*
X115300000Y-161020000D01*
%TO.N,PB25*%
X117840000Y-153400000D02*
X117840000Y-161020000D01*
%TO.N,PB26*%
X120380000Y-153400000D02*
X120380000Y-161020000D01*
%TO.N,PB27*%
X122920000Y-153400000D02*
X122920000Y-161020000D01*
%TO.N,CB21*%
X125460000Y-153400000D02*
X125460000Y-161020000D01*
%TO.N,CB22*%
X128000000Y-153400000D02*
X128000000Y-161020000D01*
%TO.N,/North Bridge/SOB*%
X129270000Y-70850000D02*
X134350000Y-70850000D01*
%TO.N,/16MHz*%
X9890000Y-123555000D02*
X13700000Y-123555000D01*
X9890000Y-118475000D02*
X15605000Y-118475000D01*
X15605000Y-116570000D02*
X15605000Y-110855000D01*
X15605000Y-121650000D02*
X15605000Y-117840000D01*
X15605000Y-118475000D02*
X15605000Y-116570000D01*
X15605000Y-117840000D02*
X15605000Y-116570000D01*
X21320000Y-105140000D02*
X15605000Y-110855000D01*
X22590000Y-93710000D02*
X21320000Y-94980000D01*
X21320000Y-94980000D02*
X21320000Y-105140000D01*
X13700000Y-123555000D02*
X15605000Y-121650000D01*
%TO.N,/8MHz*%
X18900000Y-94860000D02*
X18900000Y-104385000D01*
X18900000Y-104385000D02*
X9890000Y-113395000D01*
X20050000Y-93710000D02*
X18900000Y-94860000D01*
%TO.N,/4MHz*%
X17510000Y-93710000D02*
X14335000Y-96885000D01*
X7350000Y-96885000D02*
X2270000Y-101965000D01*
X2270000Y-101965000D02*
X2270000Y-110855000D01*
X14335000Y-96885000D02*
X7350000Y-96885000D01*
%TO.N,/2MHz*%
X13065000Y-95615000D02*
X6080000Y-95615000D01*
X1000000Y-112125000D02*
X2270000Y-113395000D01*
X1000000Y-100695000D02*
X1000000Y-112125000D01*
X6080000Y-95615000D02*
X1000000Y-100695000D01*
X14970000Y-93710000D02*
X13065000Y-95615000D01*
%TO.N,/1MHz*%
X-270000Y-113395000D02*
X2270000Y-115935000D01*
X12430000Y-93710000D02*
X11795000Y-94345000D01*
X4810000Y-94345000D02*
X-270000Y-99425000D01*
X-270000Y-99425000D02*
X-270000Y-113395000D01*
X11795000Y-94345000D02*
X4810000Y-94345000D01*
%TO.N,/GPIO/A14*%
X27633947Y-9926053D02*
X28867894Y-11160000D01*
X60892943Y-11160000D02*
X62092943Y-9960000D01*
X25337943Y-11160000D02*
X26571890Y-9926053D01*
X49895000Y-11160000D02*
X60892943Y-11160000D01*
X62092943Y-9960000D02*
X63222894Y-9960000D01*
X128000000Y-106410000D02*
X126730000Y-105140000D01*
X69580000Y-92440000D02*
X82280000Y-105140000D01*
X64422894Y-11160000D02*
X67670000Y-11160000D01*
X26571890Y-9926053D02*
X27633947Y-9926053D01*
X14462000Y-11160000D02*
X25337943Y-11160000D01*
X67670000Y-11160000D02*
X103870000Y-11160000D01*
X43117943Y-11160000D02*
X44351890Y-9926053D01*
X82280000Y-105140000D02*
X126730000Y-105140000D01*
X60055000Y-92440000D02*
X69580000Y-92440000D01*
X45413947Y-9926053D02*
X46647894Y-11160000D01*
X44351890Y-9926053D02*
X45413947Y-9926053D01*
X129270000Y-106410000D02*
X128000000Y-106410000D01*
X63222894Y-9960000D02*
X64422894Y-11160000D01*
X129270000Y-106410000D02*
X149590000Y-106410000D01*
X32115000Y-11160000D02*
X43117943Y-11160000D01*
X58785000Y-91170000D02*
X60055000Y-92440000D01*
X28867894Y-11160000D02*
X32115000Y-11160000D01*
X46647894Y-11160000D02*
X49895000Y-11160000D01*
%TO.N,/GPIO/A12*%
X43117943Y-6080000D02*
X44317943Y-4880000D01*
X14462000Y-6080000D02*
X25337943Y-6080000D01*
X25337943Y-6080000D02*
X26537943Y-4880000D01*
X82280000Y-110220000D02*
X126730000Y-110220000D01*
X63087057Y-4880000D02*
X64287057Y-6080000D01*
X32115000Y-6080000D02*
X43117943Y-6080000D01*
X49895000Y-6080000D02*
X60892943Y-6080000D01*
X27532057Y-4880000D02*
X28732057Y-6080000D01*
X60892943Y-6080000D02*
X62092943Y-4880000D01*
X46647894Y-6080000D02*
X49895000Y-6080000D01*
X101330000Y-6080000D02*
X67670000Y-6080000D01*
X44317943Y-4880000D02*
X45447894Y-4880000D01*
X58785000Y-96250000D02*
X60055000Y-97520000D01*
X69580000Y-97520000D02*
X82280000Y-110220000D01*
X26537943Y-4880000D02*
X27532057Y-4880000D01*
X60055000Y-97520000D02*
X69580000Y-97520000D01*
X28732057Y-6080000D02*
X32115000Y-6080000D01*
X45447894Y-4880000D02*
X46647894Y-6080000D01*
X64287057Y-6080000D02*
X67670000Y-6080000D01*
X62092943Y-4880000D02*
X63087057Y-4880000D01*
X128000000Y-111490000D02*
X126730000Y-110220000D01*
X129270000Y-111490000D02*
X128000000Y-111490000D01*
X129270000Y-111490000D02*
X148320000Y-111490000D01*
%TO.N,/GPIO/A7*%
X147050000Y-105140000D02*
X128000000Y-105140000D01*
X28235000Y-14900000D02*
X43615000Y-14900000D01*
X61390000Y-14900000D02*
X62590000Y-13700000D01*
X25835000Y-14900000D02*
X27035000Y-13700000D01*
X43615000Y-14900000D02*
X44815000Y-13700000D01*
X63860000Y-14970000D02*
X62590000Y-13700000D01*
X94980000Y-14970000D02*
X63860000Y-14970000D01*
X44815000Y-13700000D02*
X46015000Y-14900000D01*
X9382000Y-13700000D02*
X10582000Y-14900000D01*
X27035000Y-13700000D02*
X28235000Y-14900000D01*
X46015000Y-14900000D02*
X61390000Y-14900000D01*
X126730000Y-103870000D02*
X94980000Y-103870000D01*
X128000000Y-105140000D02*
X126730000Y-103870000D01*
X10582000Y-14900000D02*
X25835000Y-14900000D01*
%TO.N,/GPIO/A6*%
X63860000Y-17510000D02*
X62590000Y-16240000D01*
X61390000Y-17440000D02*
X62590000Y-16240000D01*
X27035000Y-16240000D02*
X28235000Y-17440000D01*
X46015000Y-17440000D02*
X61390000Y-17440000D01*
X44815000Y-16240000D02*
X46015000Y-17440000D01*
X126730000Y-101330000D02*
X93710000Y-101330000D01*
X28235000Y-17440000D02*
X43615000Y-17440000D01*
X43615000Y-17440000D02*
X44815000Y-16240000D01*
X93710000Y-17510000D02*
X63860000Y-17510000D01*
X10582000Y-17440000D02*
X25835000Y-17440000D01*
X9382000Y-16240000D02*
X10582000Y-17440000D01*
X128000000Y-102600000D02*
X126730000Y-101330000D01*
X145780000Y-102600000D02*
X128000000Y-102600000D01*
X25835000Y-17440000D02*
X27035000Y-16240000D01*
%TO.N,/GPIO/A5*%
X43615000Y-19980000D02*
X44815000Y-18780000D01*
X61390000Y-19980000D02*
X62590000Y-18780000D01*
X9382000Y-18780000D02*
X10582000Y-19980000D01*
X27035000Y-18780000D02*
X28235000Y-19980000D01*
X10582000Y-19980000D02*
X25835000Y-19980000D01*
X126730000Y-98790000D02*
X128000000Y-100060000D01*
X28235000Y-19980000D02*
X43615000Y-19980000D01*
X44815000Y-18780000D02*
X46015000Y-19980000D01*
X62590000Y-18780000D02*
X63790000Y-19980000D01*
X63865000Y-20050000D02*
X62595000Y-18780000D01*
X92440000Y-98790000D02*
X126730000Y-98790000D01*
X25835000Y-19980000D02*
X27035000Y-18780000D01*
X92440000Y-20050000D02*
X63865000Y-20050000D01*
X46015000Y-19980000D02*
X61390000Y-19980000D01*
X128000000Y-100060000D02*
X131810000Y-100060000D01*
%TO.N,/GPIO/A4*%
X46015000Y-22520000D02*
X61390000Y-22520000D01*
X44815000Y-21320000D02*
X46015000Y-22520000D01*
X91170000Y-22590000D02*
X63860000Y-22590000D01*
X27035000Y-21320000D02*
X28235000Y-22520000D01*
X133080000Y-97520000D02*
X128000000Y-97520000D01*
X10582000Y-22520000D02*
X25835000Y-22520000D01*
X128000000Y-97520000D02*
X126730000Y-96250000D01*
X25835000Y-22520000D02*
X27035000Y-21320000D01*
X43615000Y-22520000D02*
X44815000Y-21320000D01*
X28235000Y-22520000D02*
X43615000Y-22520000D01*
X9382000Y-21320000D02*
X10582000Y-22520000D01*
X63860000Y-22590000D02*
X62590000Y-21320000D01*
X61390000Y-22520000D02*
X62590000Y-21320000D01*
X126730000Y-96250000D02*
X91170000Y-96250000D01*
%TO.N,/GPIO/A3*%
X89900000Y-25130000D02*
X63860000Y-25130000D01*
X63860000Y-25130000D02*
X62590000Y-23860000D01*
X27035000Y-23860000D02*
X28235000Y-25060000D01*
X10582000Y-25060000D02*
X25835000Y-25060000D01*
X46085000Y-25130000D02*
X61320000Y-25130000D01*
X25835000Y-25060000D02*
X27035000Y-23860000D01*
X61320000Y-25130000D02*
X62590000Y-23860000D01*
X126730000Y-93710000D02*
X128000000Y-94980000D01*
X43615000Y-25060000D02*
X44815000Y-23860000D01*
X89900000Y-93710000D02*
X126730000Y-93710000D01*
X28940000Y-130540000D02*
X94980000Y-130540000D01*
X28235000Y-25060000D02*
X43615000Y-25060000D01*
X9382000Y-23860000D02*
X10582000Y-25060000D01*
X128000000Y-94980000D02*
X134350000Y-94980000D01*
X44815000Y-23860000D02*
X46085000Y-25130000D01*
%TO.N,/GPIO/A2*%
X9382000Y-26400000D02*
X10582000Y-27600000D01*
X61390000Y-27600000D02*
X62590000Y-26400000D01*
X28235000Y-27600000D02*
X43615000Y-27600000D01*
X10582000Y-27600000D02*
X25835000Y-27600000D01*
X44815000Y-26400000D02*
X46015000Y-27600000D01*
X62590000Y-26400000D02*
X63860000Y-27670000D01*
X27035000Y-26400000D02*
X28235000Y-27600000D01*
X126730000Y-91170000D02*
X88630000Y-91170000D01*
X63860000Y-27670000D02*
X88630000Y-27670000D01*
X46015000Y-27600000D02*
X61390000Y-27600000D01*
X26400000Y-131810000D02*
X92440000Y-131810000D01*
X135620000Y-92440000D02*
X128000000Y-92440000D01*
X25835000Y-27600000D02*
X27035000Y-26400000D01*
X128000000Y-92440000D02*
X126730000Y-91170000D01*
X43615000Y-27600000D02*
X44815000Y-26400000D01*
%TO.N,/GPIO/A1*%
X25835000Y-30140000D02*
X27035000Y-28940000D01*
X137525000Y-89900000D02*
X128000000Y-89900000D01*
X62590000Y-28940000D02*
X63860000Y-30210000D01*
X61390000Y-30140000D02*
X62590000Y-28940000D01*
X63860000Y-30210000D02*
X87360000Y-30210000D01*
X10582000Y-30140000D02*
X25835000Y-30140000D01*
X9382000Y-28940000D02*
X10582000Y-30140000D01*
X44815000Y-28940000D02*
X46015000Y-30140000D01*
X27035000Y-28940000D02*
X28235000Y-30140000D01*
X126730000Y-88630000D02*
X87360000Y-88630000D01*
X28235000Y-30140000D02*
X43615000Y-30140000D01*
X128000000Y-89900000D02*
X126730000Y-88630000D01*
X43615000Y-30140000D02*
X44815000Y-28940000D01*
X46015000Y-30140000D02*
X61390000Y-30140000D01*
X23860000Y-133080000D02*
X89900000Y-133080000D01*
%TO.N,/GPIO/A0*%
X128000000Y-87360000D02*
X126730000Y-86090000D01*
X43615000Y-32680000D02*
X44815000Y-31480000D01*
X25835000Y-32680000D02*
X27035000Y-31480000D01*
X126730000Y-86090000D02*
X86090000Y-86090000D01*
X27035000Y-31480000D02*
X28235000Y-32680000D01*
X44815000Y-31480000D02*
X46015000Y-32680000D01*
X10582000Y-32680000D02*
X25835000Y-32680000D01*
X138160000Y-87360000D02*
X128000000Y-87360000D01*
X46015000Y-32680000D02*
X61390000Y-32680000D01*
X63860000Y-32750000D02*
X86090000Y-32750000D01*
X9382000Y-31480000D02*
X10582000Y-32680000D01*
X21320000Y-134350000D02*
X87360000Y-134350000D01*
X28235000Y-32680000D02*
X43615000Y-32680000D01*
X62590000Y-31480000D02*
X63860000Y-32750000D01*
X139430000Y-88630000D02*
X138160000Y-87360000D01*
X61390000Y-32680000D02*
X62590000Y-31480000D01*
%TO.N,/GPIO/D0*%
X34020000Y-129270000D02*
X37830000Y-129270000D01*
X27532057Y-32820000D02*
X28732057Y-34020000D01*
X62092943Y-32820000D02*
X63087057Y-32820000D01*
X63087057Y-32820000D02*
X64287057Y-34020000D01*
X129270000Y-83550000D02*
X137525000Y-83550000D01*
X141970000Y-91170000D02*
X139430000Y-91170000D01*
X37830000Y-129270000D02*
X100060000Y-129270000D01*
X43117943Y-34020000D02*
X44317943Y-32820000D01*
X49895000Y-34020000D02*
X60892943Y-34020000D01*
X14462000Y-34020000D02*
X25337943Y-34020000D01*
X32115000Y-34020000D02*
X43117943Y-34020000D01*
X44317943Y-32820000D02*
X45312057Y-32820000D01*
X64287057Y-34020000D02*
X67670000Y-34020000D01*
X137525000Y-83550000D02*
X138795000Y-84820000D01*
X25337943Y-34020000D02*
X26537943Y-32820000D01*
X67670000Y-34020000D02*
X75930000Y-34020000D01*
X138795000Y-84820000D02*
X141970000Y-84820000D01*
X26537943Y-32820000D02*
X27532057Y-32820000D01*
X128000000Y-82280000D02*
X129270000Y-83550000D01*
X60892943Y-34020000D02*
X62092943Y-32820000D01*
X28732057Y-34020000D02*
X32115000Y-34020000D01*
X46512057Y-34020000D02*
X49895000Y-34020000D01*
X45312057Y-32820000D02*
X46512057Y-34020000D01*
X75930000Y-82280000D02*
X128000000Y-82280000D01*
%TO.N,/GPIO/D1*%
X26537943Y-30280000D02*
X27532057Y-30280000D01*
X60892943Y-31480000D02*
X62092943Y-30280000D01*
X49895000Y-31480000D02*
X60892943Y-31480000D01*
X36560000Y-128000000D02*
X40370000Y-128000000D01*
X63087057Y-30280000D02*
X64287057Y-31480000D01*
X27532057Y-30280000D02*
X28732057Y-31480000D01*
X40370000Y-128000000D02*
X102600000Y-128000000D01*
X44317943Y-30280000D02*
X45312057Y-30280000D01*
X43117943Y-31480000D02*
X44317943Y-30280000D01*
X46512057Y-31480000D02*
X49895000Y-31480000D01*
X14462000Y-31480000D02*
X25337943Y-31480000D01*
X28732057Y-31480000D02*
X32115000Y-31480000D01*
X139430000Y-93710000D02*
X143240000Y-93710000D01*
X25337943Y-31480000D02*
X26537943Y-30280000D01*
X77200000Y-31480000D02*
X67670000Y-31480000D01*
X137597106Y-86090000D02*
X129270000Y-86090000D01*
X32115000Y-31480000D02*
X43117943Y-31480000D01*
X143240000Y-87360000D02*
X138867106Y-87360000D01*
X138867106Y-87360000D02*
X137597106Y-86090000D01*
X64287057Y-31480000D02*
X67670000Y-31480000D01*
X45312057Y-30280000D02*
X46512057Y-31480000D01*
X128000000Y-84820000D02*
X77200000Y-84820000D01*
X62092943Y-30280000D02*
X63087057Y-30280000D01*
X129270000Y-86090000D02*
X128000000Y-84820000D01*
%TO.N,/GPIO/D2*%
X144510000Y-89900000D02*
X138795000Y-89900000D01*
X45312057Y-27740000D02*
X46512057Y-28940000D01*
X139430000Y-96250000D02*
X144510000Y-96250000D01*
X128000000Y-88630000D02*
X126622073Y-87360000D01*
X14462000Y-28940000D02*
X25337943Y-28940000D01*
X63087057Y-27740000D02*
X64287057Y-28940000D01*
X49895000Y-28940000D02*
X60892943Y-28940000D01*
X44317943Y-27740000D02*
X45312057Y-27740000D01*
X28732057Y-28940000D02*
X32115000Y-28940000D01*
X25337943Y-28940000D02*
X26537943Y-27740000D01*
X138795000Y-89900000D02*
X137525000Y-88630000D01*
X78470000Y-28940000D02*
X67670000Y-28940000D01*
X39100000Y-126730000D02*
X42910000Y-126730000D01*
X43117943Y-28940000D02*
X44317943Y-27740000D01*
X62092943Y-27740000D02*
X63087057Y-27740000D01*
X60892943Y-28940000D02*
X62092943Y-27740000D01*
X126622073Y-87360000D02*
X78470000Y-87360000D01*
X27532057Y-27740000D02*
X28732057Y-28940000D01*
X32115000Y-28940000D02*
X43117943Y-28940000D01*
X46512057Y-28940000D02*
X49895000Y-28940000D01*
X42910000Y-126730000D02*
X105140000Y-126730000D01*
X137525000Y-88630000D02*
X128000000Y-88630000D01*
X64287057Y-28940000D02*
X67670000Y-28940000D01*
X26537943Y-27740000D02*
X27532057Y-27740000D01*
%TO.N,/GPIO/D3*%
X45312057Y-25200000D02*
X46512057Y-26400000D01*
X45450000Y-125460000D02*
X107680000Y-125460000D01*
X126730000Y-89900000D02*
X79740000Y-89900000D01*
X43117943Y-26400000D02*
X44317943Y-25200000D01*
X46512057Y-26400000D02*
X49895000Y-26400000D01*
X14462000Y-26400000D02*
X25337943Y-26400000D01*
X137525000Y-91170000D02*
X128000000Y-91170000D01*
X64287057Y-26400000D02*
X67670000Y-26400000D01*
X26537943Y-25200000D02*
X27532057Y-25200000D01*
X49895000Y-26400000D02*
X60892943Y-26400000D01*
X62092943Y-25200000D02*
X63087057Y-25200000D01*
X41640000Y-125460000D02*
X45450000Y-125460000D01*
X60892943Y-26400000D02*
X62092943Y-25200000D01*
X79740000Y-26400000D02*
X67670000Y-26400000D01*
X44317943Y-25200000D02*
X45312057Y-25200000D01*
X27532057Y-25200000D02*
X28732057Y-26400000D01*
X63087057Y-25200000D02*
X64287057Y-26400000D01*
X25337943Y-26400000D02*
X26537943Y-25200000D01*
X32115000Y-26400000D02*
X43117943Y-26400000D01*
X153400000Y-92560000D02*
X138915000Y-92560000D01*
X28732057Y-26400000D02*
X32115000Y-26400000D01*
X138915000Y-92560000D02*
X137525000Y-91170000D01*
X128000000Y-91170000D02*
X126730000Y-89900000D01*
%TO.N,/GPIO/D4*%
X45312057Y-22660000D02*
X46512057Y-23860000D01*
X49895000Y-23860000D02*
X60892943Y-23860000D01*
X64287057Y-23860000D02*
X67670000Y-23860000D01*
X62092943Y-22660000D02*
X63087057Y-22660000D01*
X43117943Y-23860000D02*
X44317943Y-22660000D01*
X26537943Y-22660000D02*
X27532057Y-22660000D01*
X27532057Y-22660000D02*
X28732057Y-23860000D01*
X44180000Y-124190000D02*
X47990000Y-124190000D01*
X28732057Y-23860000D02*
X32115000Y-23860000D01*
X44317943Y-22660000D02*
X45312057Y-22660000D01*
X47990000Y-124190000D02*
X110220000Y-124190000D01*
X46512057Y-23860000D02*
X49895000Y-23860000D01*
X25337943Y-23860000D02*
X26537943Y-22660000D01*
X60892943Y-23860000D02*
X62092943Y-22660000D01*
X32115000Y-23860000D02*
X43117943Y-23860000D01*
X14462000Y-23860000D02*
X25337943Y-23860000D01*
X81010000Y-23860000D02*
X67670000Y-23860000D01*
X63087057Y-22660000D02*
X64287057Y-23860000D01*
%TO.N,/GPIO/D5*%
X45413947Y-20086053D02*
X46647894Y-21320000D01*
X60892943Y-21320000D02*
X62092943Y-20120000D01*
X43117943Y-21320000D02*
X44351890Y-20086053D01*
X32115000Y-21320000D02*
X43117943Y-21320000D01*
X82280000Y-21320000D02*
X67670000Y-21320000D01*
X26537943Y-20120000D02*
X27532057Y-20120000D01*
X62092943Y-20120000D02*
X63087057Y-20120000D01*
X44351890Y-20086053D02*
X45413947Y-20086053D01*
X27532057Y-20120000D02*
X28732057Y-21320000D01*
X46647894Y-21320000D02*
X49895000Y-21320000D01*
X63087057Y-20120000D02*
X64287057Y-21320000D01*
X46720000Y-122920000D02*
X112760000Y-122920000D01*
X14462000Y-21320000D02*
X25337943Y-21320000D01*
X49895000Y-21320000D02*
X60892943Y-21320000D01*
X25337943Y-21320000D02*
X26537943Y-20120000D01*
X28732057Y-21320000D02*
X32115000Y-21320000D01*
X64287057Y-21320000D02*
X67670000Y-21320000D01*
%TO.N,/GPIO/D6*%
X25337943Y-18780000D02*
X26537943Y-17580000D01*
X45312057Y-17580000D02*
X46512057Y-18780000D01*
X28732057Y-18780000D02*
X32115000Y-18780000D01*
X49895000Y-18780000D02*
X60892943Y-18780000D01*
X64287057Y-18780000D02*
X67670000Y-18780000D01*
X49260000Y-121650000D02*
X115300000Y-121650000D01*
X46512057Y-18780000D02*
X49895000Y-18780000D01*
X60892943Y-18780000D02*
X62092943Y-17580000D01*
X128000000Y-98790000D02*
X126730000Y-97520000D01*
X26537943Y-17580000D02*
X27532057Y-17580000D01*
X137803654Y-98790000D02*
X128000000Y-98790000D01*
X152130000Y-100060000D02*
X139073654Y-100060000D01*
X62092943Y-17580000D02*
X63087057Y-17580000D01*
X126730000Y-97520000D02*
X83550000Y-97520000D01*
X27532057Y-17580000D02*
X28732057Y-18780000D01*
X67670000Y-18780000D02*
X83550000Y-18780000D01*
X43117943Y-18780000D02*
X44317943Y-17580000D01*
X139073654Y-100060000D02*
X137803654Y-98790000D01*
X63087057Y-17580000D02*
X64287057Y-18780000D01*
X14462000Y-18780000D02*
X25337943Y-18780000D01*
X44317943Y-17580000D02*
X45312057Y-17580000D01*
X32115000Y-18780000D02*
X43117943Y-18780000D01*
%TO.N,/GPIO/D7*%
X62092943Y-15040000D02*
X63087057Y-15040000D01*
X64287057Y-16240000D02*
X67670000Y-16240000D01*
X63087057Y-15040000D02*
X64287057Y-16240000D01*
X51800000Y-120380000D02*
X117840000Y-120380000D01*
X49895000Y-16240000D02*
X60892943Y-16240000D01*
X43117943Y-16240000D02*
X44317943Y-15040000D01*
X60892943Y-16240000D02*
X62092943Y-15040000D01*
X27532057Y-15040000D02*
X28732057Y-16240000D01*
X84820000Y-16240000D02*
X67670000Y-16240000D01*
X26537943Y-15040000D02*
X27532057Y-15040000D01*
X128000000Y-101330000D02*
X126730000Y-100060000D01*
X28732057Y-16240000D02*
X32115000Y-16240000D01*
X150860000Y-101330000D02*
X128000000Y-101330000D01*
X44317943Y-15040000D02*
X45312057Y-15040000D01*
X45312057Y-15040000D02*
X46512057Y-16240000D01*
X126730000Y-100060000D02*
X84820000Y-100060000D01*
X14462000Y-16240000D02*
X25337943Y-16240000D01*
X46512057Y-16240000D02*
X49895000Y-16240000D01*
X32115000Y-16240000D02*
X43117943Y-16240000D01*
X25337943Y-16240000D02*
X26537943Y-15040000D01*
%TO.N,/North Bridge/RAMCSB*%
X44815000Y-41640000D02*
X46015000Y-42840000D01*
X25835000Y-42840000D02*
X27035000Y-41640000D01*
X43545000Y-42910000D02*
X44815000Y-41640000D01*
X28305000Y-42910000D02*
X43545000Y-42910000D01*
X152130000Y-42910000D02*
X63860000Y-42910000D01*
X9382000Y-41640000D02*
X10582000Y-42840000D01*
X46015000Y-42840000D02*
X61390000Y-42840000D01*
X66405000Y-108950000D02*
X69580000Y-108950000D01*
X27035000Y-41640000D02*
X28305000Y-42910000D01*
X63860000Y-42910000D02*
X62590000Y-41640000D01*
X10582000Y-42840000D02*
X25835000Y-42840000D01*
X61390000Y-42840000D02*
X62590000Y-41640000D01*
%TO.N,/GPIO/A10*%
X9382000Y-6080000D02*
X10582000Y-7280000D01*
X58785000Y-101330000D02*
X56245000Y-101330000D01*
X25835000Y-7280000D02*
X27035000Y-6080000D01*
X46085000Y-7350000D02*
X61320000Y-7350000D01*
X61320000Y-7350000D02*
X62590000Y-6080000D01*
X10582000Y-7280000D02*
X25835000Y-7280000D01*
X28235000Y-7280000D02*
X43615000Y-7280000D01*
X62590000Y-6080000D02*
X63860000Y-7350000D01*
X44815000Y-6080000D02*
X46085000Y-7350000D01*
X43615000Y-7280000D02*
X44815000Y-6080000D01*
X63860000Y-7350000D02*
X98790000Y-7350000D01*
X27035000Y-6080000D02*
X28235000Y-7280000D01*
%TO.N,/GPIO/A11*%
X60055000Y-100060000D02*
X69580000Y-100060000D01*
X58785000Y-98790000D02*
X60055000Y-100060000D01*
X61390000Y-4740000D02*
X62590000Y-3540000D01*
X114025000Y-114035000D02*
X112765000Y-114035000D01*
X112765000Y-114035000D02*
X111490000Y-112760000D01*
X25695000Y-4880000D02*
X27035000Y-3540000D01*
X159750000Y-115300000D02*
X128000000Y-115300000D01*
X82280000Y-112760000D02*
X111490000Y-112760000D01*
X9382000Y-3540000D02*
X10722000Y-4880000D01*
X28235000Y-4740000D02*
X43615000Y-4740000D01*
X100060000Y-4810000D02*
X63860000Y-4810000D01*
X126730000Y-114030000D02*
X114030000Y-114030000D01*
X69580000Y-100060000D02*
X82280000Y-112760000D01*
X46015000Y-4740000D02*
X61390000Y-4740000D01*
X128000000Y-115300000D02*
X126730000Y-114030000D01*
X63860000Y-4810000D02*
X62590000Y-3540000D01*
X10722000Y-4880000D02*
X25695000Y-4880000D01*
X27035000Y-3540000D02*
X28235000Y-4740000D01*
X43615000Y-4740000D02*
X44815000Y-3540000D01*
X44815000Y-3540000D02*
X46015000Y-4740000D01*
%TO.N,/GPIO/A9*%
X58785000Y-103870000D02*
X54975000Y-103870000D01*
X9382000Y-8620000D02*
X10582000Y-9820000D01*
X25835000Y-9820000D02*
X27035000Y-8620000D01*
X63860000Y-9890000D02*
X62590000Y-8620000D01*
X161020000Y-110220000D02*
X128000000Y-110220000D01*
X44815000Y-8620000D02*
X46085000Y-9890000D01*
X128000000Y-110220000D02*
X126730000Y-108950000D01*
X97520000Y-9890000D02*
X63860000Y-9890000D01*
X46085000Y-9890000D02*
X61320000Y-9890000D01*
X126730000Y-108950000D02*
X97520000Y-108950000D01*
X43615000Y-9820000D02*
X44815000Y-8620000D01*
X27035000Y-8620000D02*
X28235000Y-9820000D01*
X61320000Y-9890000D02*
X62590000Y-8620000D01*
X28235000Y-9820000D02*
X43615000Y-9820000D01*
X10582000Y-9820000D02*
X25835000Y-9820000D01*
%TO.N,/GPIO/A8*%
X61320000Y-12430000D02*
X62590000Y-11160000D01*
X46085000Y-12430000D02*
X61320000Y-12430000D01*
X114030000Y-106410000D02*
X96250000Y-106410000D01*
X128000000Y-107680000D02*
X126730000Y-106410000D01*
X43615000Y-12360000D02*
X44815000Y-11160000D01*
X162290000Y-107680000D02*
X128000000Y-107680000D01*
X44815000Y-11160000D02*
X46085000Y-12430000D01*
X28235000Y-12360000D02*
X43615000Y-12360000D01*
X58785000Y-106410000D02*
X56118000Y-106410000D01*
X96250000Y-12430000D02*
X63860000Y-12430000D01*
X10582000Y-12360000D02*
X25835000Y-12360000D01*
X62590000Y-11160000D02*
X63860000Y-12430000D01*
X25835000Y-12360000D02*
X27035000Y-11160000D01*
X126730000Y-106410000D02*
X114030000Y-106410000D01*
X27035000Y-11160000D02*
X28235000Y-12360000D01*
X9382000Y-11160000D02*
X10582000Y-12360000D01*
%TO.N,/GPIO/A13*%
X46647894Y-8620000D02*
X49895000Y-8620000D01*
X25337943Y-8620000D02*
X26537943Y-7420000D01*
X44351890Y-7386053D02*
X45413947Y-7386053D01*
X49895000Y-8620000D02*
X60892943Y-8620000D01*
X43117943Y-8620000D02*
X44351890Y-7386053D01*
X28732057Y-8620000D02*
X32115000Y-8620000D01*
X14462000Y-8620000D02*
X25337943Y-8620000D01*
X129270000Y-108950000D02*
X163560000Y-108950000D01*
X128138630Y-108950000D02*
X126868630Y-107680000D01*
X63087057Y-7420000D02*
X64287057Y-8620000D01*
X102600000Y-8620000D02*
X67670000Y-8620000D01*
X58785000Y-93710000D02*
X60055000Y-94980000D01*
X32115000Y-8620000D02*
X43117943Y-8620000D01*
X45413947Y-7386053D02*
X46647894Y-8620000D01*
X64287057Y-8620000D02*
X67670000Y-8620000D01*
X129270000Y-108950000D02*
X128138630Y-108950000D01*
X82280000Y-107680000D02*
X126868630Y-107680000D01*
X60892943Y-8620000D02*
X62092943Y-7420000D01*
X26537943Y-7420000D02*
X27532057Y-7420000D01*
X60055000Y-94980000D02*
X69580000Y-94980000D01*
X69580000Y-94980000D02*
X82280000Y-107680000D01*
X62092943Y-7420000D02*
X63087057Y-7420000D01*
X27532057Y-7420000D02*
X28732057Y-8620000D01*
%TO.N,/GPIO/RW*%
X9382000Y-34020000D02*
X10582000Y-35220000D01*
X128000000Y-79740000D02*
X74660000Y-79740000D01*
X27035000Y-34020000D02*
X28235000Y-35220000D01*
X152130000Y-80375000D02*
X150225000Y-82280000D01*
X10582000Y-35220000D02*
X25835000Y-35220000D01*
X150225000Y-82280000D02*
X137525000Y-82280000D01*
X25835000Y-35220000D02*
X27035000Y-34020000D01*
X136255000Y-81010000D02*
X129270000Y-81010000D01*
X61390000Y-35220000D02*
X62590000Y-34020000D01*
X61960000Y-117840000D02*
X128000000Y-117840000D01*
X154670000Y-68310000D02*
X152130000Y-70850000D01*
X43615000Y-35220000D02*
X44815000Y-34020000D01*
X74660000Y-35290000D02*
X63860000Y-35290000D01*
X46015000Y-35220000D02*
X61390000Y-35220000D01*
X63860000Y-35290000D02*
X62590000Y-34020000D01*
X44815000Y-34020000D02*
X46015000Y-35220000D01*
X28235000Y-35220000D02*
X43615000Y-35220000D01*
X152130000Y-70850000D02*
X152130000Y-80375000D01*
X137525000Y-82280000D02*
X136255000Y-81010000D01*
X129270000Y-81010000D02*
X128000000Y-79740000D01*
%TO.N,/North Bridge/IRQB*%
X39862000Y-73395000D02*
X114025000Y-73395000D01*
%TO.N,/GPIO/A15*%
X26537943Y-12500000D02*
X27532057Y-12500000D01*
X58785000Y-88630000D02*
X60055000Y-89900000D01*
X62092943Y-12500000D02*
X63087057Y-12500000D01*
X128000000Y-103870000D02*
X126730000Y-102600000D01*
X25337943Y-13700000D02*
X26537943Y-12500000D01*
X14462000Y-13700000D02*
X25337943Y-13700000D01*
X43117943Y-13700000D02*
X44317943Y-12500000D01*
X44317943Y-12500000D02*
X45312057Y-12500000D01*
X82280000Y-102600000D02*
X126730000Y-102600000D01*
X63087057Y-12500000D02*
X64287057Y-13700000D01*
X105140000Y-13700000D02*
X67670000Y-13700000D01*
X49895000Y-13700000D02*
X60892943Y-13700000D01*
X69580000Y-89900000D02*
X82280000Y-102600000D01*
X32115000Y-13700000D02*
X43117943Y-13700000D01*
X60055000Y-89900000D02*
X69580000Y-89900000D01*
X64287057Y-13700000D02*
X67670000Y-13700000D01*
X27532057Y-12500000D02*
X28732057Y-13700000D01*
X60892943Y-13700000D02*
X62092943Y-12500000D01*
X45312057Y-12500000D02*
X46512057Y-13700000D01*
X28732057Y-13700000D02*
X32115000Y-13700000D01*
X46512057Y-13700000D02*
X49895000Y-13700000D01*
X129270000Y-103870000D02*
X128000000Y-103870000D01*
%TO.N,/GPIO/IRQ1B*%
X65008000Y-115300000D02*
X66278000Y-116570000D01*
X66278000Y-116570000D02*
X130540000Y-116570000D01*
X33385000Y-115300000D02*
X65008000Y-115300000D01*
%TO.N,/GPIO/IRQ0B*%
X27670000Y-116570000D02*
X64500000Y-116570000D01*
%TO.N,Net-(U5-S2)*%
X35910000Y-98805000D02*
X37195000Y-97520000D01*
X30220000Y-98805000D02*
X35910000Y-98805000D01*
X37195000Y-97520000D02*
X42910000Y-97520000D01*
X42910000Y-97520000D02*
X44180000Y-96250000D01*
%TO.N,Net-(U5-S1)*%
X41005000Y-100060000D02*
X37195000Y-100060000D01*
X35910000Y-101345000D02*
X30220000Y-101345000D01*
X37195000Y-100060000D02*
X35910000Y-101345000D01*
%TO.N,Net-(U6-OE)*%
X44180000Y-86090000D02*
X45450000Y-87360000D01*
X45450000Y-87360000D02*
X65135000Y-87360000D01*
X65135000Y-87360000D02*
X66405000Y-88630000D01*
%TO.N,/Ports/ROMCSB*%
X70850000Y-37830000D02*
X68940000Y-37830000D01*
X66415000Y-106405000D02*
X70850000Y-106405000D01*
X68940000Y-37830000D02*
X67670000Y-36560000D01*
%TO.N,/Ports/PORT1CSB*%
X12430000Y-79105000D02*
X62595000Y-79105000D01*
%TO.N,/Ports/PORT2CSB*%
X63865000Y-81645000D02*
X30210000Y-81645000D01*
%TO.N,/Ports/PORT3CSB*%
X47990000Y-80375000D02*
X65135000Y-80375000D01*
%TO.N,/GPIO/CIA1CSB*%
X59420000Y-119110000D02*
X67675000Y-119110000D01*
%TO.N,/GPIO/CIA2CSB*%
X68310000Y-115300000D02*
X125460000Y-115300000D01*
%TO.N,Net-(J7-Pin_2)*%
X20050000Y-85328000D02*
X23225000Y-85328000D01*
%TO.N,Net-(J6-Pin_2)*%
X116482305Y-49255000D02*
X117747305Y-47990000D01*
X113776000Y-49255000D02*
X116482305Y-49255000D01*
%TD*%
M02*
