%TF.GenerationSoftware,KiCad,Pcbnew,(5.99.0-7356-g63088e8bdb)*%
%TF.CreationDate,2021-06-15T08:44:58+08:00*%
%TF.ProjectId,MotherBoard,4d6f7468-6572-4426-9f61-72642e6b6963,rev?*%
%TF.SameCoordinates,Original*%
%TF.FileFunction,Soldermask,Top*%
%TF.FilePolarity,Negative*%
%FSLAX46Y46*%
G04 Gerber Fmt 4.6, Leading zero omitted, Abs format (unit mm)*
G04 Created by KiCad (PCBNEW (5.99.0-7356-g63088e8bdb)) date 2021-06-15 08:44:58*
%MOMM*%
%LPD*%
G01*
G04 APERTURE LIST*
G04 Aperture macros list*
%AMRoundRect*
0 Rectangle with rounded corners*
0 $1 Rounding radius*
0 $2 $3 $4 $5 $6 $7 $8 $9 X,Y pos of 4 corners*
0 Add a 4 corners polygon primitive as box body*
4,1,4,$2,$3,$4,$5,$6,$7,$8,$9,$2,$3,0*
0 Add four circle primitives for the rounded corners*
1,1,$1+$1,$2,$3,0*
1,1,$1+$1,$4,$5,0*
1,1,$1+$1,$6,$7,0*
1,1,$1+$1,$8,$9,0*
0 Add four rect primitives between the rounded corners*
20,1,$1+$1,$2,$3,$4,$5,0*
20,1,$1+$1,$4,$5,$6,$7,0*
20,1,$1+$1,$6,$7,$8,$9,0*
20,1,$1+$1,$8,$9,$2,$3,0*%
G04 Aperture macros list end*
%ADD10R,1.600000X1.600000*%
%ADD11O,1.600000X1.600000*%
%ADD12R,1.700000X1.700000*%
%ADD13O,1.700000X1.700000*%
%ADD14C,1.600000*%
%ADD15C,3.200000*%
%ADD16C,2.000000*%
%ADD17O,2.000000X2.000000*%
%ADD18C,1.700000*%
%ADD19C,2.100000*%
%ADD20C,1.750000*%
%ADD21R,2.000000X1.440000*%
%ADD22O,2.000000X1.440000*%
%ADD23O,3.500000X3.500000*%
%ADD24R,1.905000X2.000000*%
%ADD25O,1.905000X2.000000*%
%ADD26C,3.500000*%
%ADD27R,3.500000X3.500000*%
%ADD28RoundRect,0.750000X0.750000X1.000000X-0.750000X1.000000X-0.750000X-1.000000X0.750000X-1.000000X0*%
%ADD29RoundRect,0.875000X0.875000X0.875000X-0.875000X0.875000X-0.875000X-0.875000X0.875000X-0.875000X0*%
%ADD30R,1.800000X1.800000*%
%ADD31C,1.800000*%
G04 APERTURE END LIST*
D10*
%TO.C,U10*%
X91821000Y-56769000D03*
D11*
X91821000Y-59309000D03*
X91821000Y-61849000D03*
X91821000Y-64389000D03*
X91821000Y-66929000D03*
X91821000Y-69469000D03*
X91821000Y-72009000D03*
X91821000Y-74549000D03*
X91821000Y-77089000D03*
X91821000Y-79629000D03*
X99441000Y-79629000D03*
X99441000Y-77089000D03*
X99441000Y-74549000D03*
X99441000Y-72009000D03*
X99441000Y-69469000D03*
X99441000Y-66929000D03*
X99441000Y-64389000D03*
X99441000Y-61849000D03*
X99441000Y-59309000D03*
X99441000Y-56769000D03*
%TD*%
D12*
%TO.C,J5*%
X30225000Y-137160000D03*
D13*
X30225000Y-139700000D03*
X30225000Y-142240000D03*
X30225000Y-144780000D03*
X30225000Y-147320000D03*
X30225000Y-149860000D03*
X30225000Y-152400000D03*
X30225000Y-154940000D03*
X30225000Y-157480000D03*
X30225000Y-160020000D03*
%TD*%
D10*
%TO.C,U3*%
X42925000Y-114300000D03*
D11*
X42925000Y-116840000D03*
X42925000Y-119380000D03*
X42925000Y-121920000D03*
X42925000Y-124460000D03*
X42925000Y-127000000D03*
X42925000Y-129540000D03*
X42925000Y-132080000D03*
X42925000Y-134620000D03*
X42925000Y-137160000D03*
X42925000Y-139700000D03*
X42925000Y-142240000D03*
X42925000Y-144780000D03*
X42925000Y-147320000D03*
X42925000Y-149860000D03*
X42925000Y-152400000D03*
X42925000Y-154940000D03*
X42925000Y-157480000D03*
X42925000Y-160020000D03*
X42925000Y-162560000D03*
X58165000Y-162560000D03*
X58165000Y-160020000D03*
X58165000Y-157480000D03*
X58165000Y-154940000D03*
X58165000Y-152400000D03*
X58165000Y-149860000D03*
X58165000Y-147320000D03*
X58165000Y-144780000D03*
X58165000Y-142240000D03*
X58165000Y-139700000D03*
X58165000Y-137160000D03*
X58165000Y-134620000D03*
X58165000Y-132080000D03*
X58165000Y-129540000D03*
X58165000Y-127000000D03*
X58165000Y-124460000D03*
X58165000Y-121920000D03*
X58165000Y-119380000D03*
X58165000Y-116840000D03*
X58165000Y-114300000D03*
%TD*%
D10*
%TO.C,U14*%
X45678775Y-28829000D03*
D11*
X45678775Y-31369000D03*
X45678775Y-33909000D03*
X45678775Y-36449000D03*
X45678775Y-38989000D03*
X45678775Y-41529000D03*
X45678775Y-44069000D03*
X45678775Y-46609000D03*
X45678775Y-49149000D03*
X45678775Y-51689000D03*
X53298775Y-51689000D03*
X53298775Y-49149000D03*
X53298775Y-46609000D03*
X53298775Y-44069000D03*
X53298775Y-41529000D03*
X53298775Y-38989000D03*
X53298775Y-36449000D03*
X53298775Y-33909000D03*
X53298775Y-31369000D03*
X53298775Y-28829000D03*
%TD*%
D12*
%TO.C,J2*%
X30225000Y-109220000D03*
D13*
X30225000Y-111760000D03*
X30225000Y-114300000D03*
X30225000Y-116840000D03*
X30225000Y-119380000D03*
X30225000Y-121920000D03*
X30225000Y-124460000D03*
X30225000Y-127000000D03*
X30225000Y-129540000D03*
X30225000Y-132080000D03*
%TD*%
D10*
%TO.C,U4*%
X101600000Y-106680000D03*
D11*
X101600000Y-109220000D03*
X101600000Y-111760000D03*
X101600000Y-114300000D03*
X101600000Y-116840000D03*
X101600000Y-119380000D03*
X101600000Y-121920000D03*
X101600000Y-124460000D03*
X101600000Y-127000000D03*
X101600000Y-129540000D03*
X101600000Y-132080000D03*
X101600000Y-134620000D03*
X101600000Y-137160000D03*
X101600000Y-139700000D03*
X116840000Y-139700000D03*
X116840000Y-137160000D03*
X116840000Y-134620000D03*
X116840000Y-132080000D03*
X116840000Y-129540000D03*
X116840000Y-127000000D03*
X116840000Y-124460000D03*
X116840000Y-121920000D03*
X116840000Y-119380000D03*
X116840000Y-116840000D03*
X116840000Y-114300000D03*
X116840000Y-111760000D03*
X116840000Y-109220000D03*
X116840000Y-106680000D03*
%TD*%
D10*
%TO.C,X1*%
X58420000Y-178383903D03*
D14*
X73660000Y-178383903D03*
X73660000Y-170763903D03*
X58420000Y-170763903D03*
%TD*%
%TO.C,C2*%
X133858000Y-55118000D03*
X133858000Y-53118000D03*
%TD*%
%TO.C,C1*%
X146163230Y-55082180D03*
X146163230Y-53082180D03*
%TD*%
%TO.C,F2*%
X141478000Y-62230000D03*
X141478000Y-67310000D03*
%TD*%
D15*
%TO.C,H4*%
X163116157Y-180000000D03*
%TD*%
D12*
%TO.C,J11*%
X85090000Y-127508000D03*
D13*
X87630000Y-127508000D03*
%TD*%
D14*
%TO.C,R4*%
X134738737Y-69140458D03*
D11*
X134738737Y-79300458D03*
%TD*%
D10*
%TO.C,U13*%
X45741129Y-56646652D03*
D11*
X45741129Y-59186652D03*
X45741129Y-61726652D03*
X45741129Y-64266652D03*
X45741129Y-66806652D03*
X45741129Y-69346652D03*
X45741129Y-71886652D03*
X45741129Y-74426652D03*
X45741129Y-76966652D03*
X45741129Y-79506652D03*
X53361129Y-79506652D03*
X53361129Y-76966652D03*
X53361129Y-74426652D03*
X53361129Y-71886652D03*
X53361129Y-69346652D03*
X53361129Y-66806652D03*
X53361129Y-64266652D03*
X53361129Y-61726652D03*
X53361129Y-59186652D03*
X53361129Y-56646652D03*
%TD*%
D16*
%TO.C,FB2*%
X141478000Y-71374000D03*
D17*
X141478000Y-84074000D03*
%TD*%
D16*
%TO.C,SW2*%
X159794000Y-82772000D03*
X165794000Y-82772000D03*
X159794000Y-70772000D03*
X165794000Y-70772000D03*
D18*
X161544000Y-80772000D03*
X161544000Y-76772000D03*
X161544000Y-72772000D03*
%TD*%
D12*
%TO.C,J12*%
X118364000Y-58166000D03*
D13*
X118364000Y-60706000D03*
%TD*%
D14*
%TO.C,R5*%
X84720000Y-114300000D03*
D11*
X84720000Y-124460000D03*
%TD*%
D10*
%TO.C,U11*%
X117094000Y-30099000D03*
D11*
X117094000Y-32639000D03*
X117094000Y-35179000D03*
X117094000Y-37719000D03*
X117094000Y-40259000D03*
X117094000Y-42799000D03*
X117094000Y-45339000D03*
X117094000Y-47879000D03*
X117094000Y-50419000D03*
X117094000Y-52959000D03*
X124714000Y-52959000D03*
X124714000Y-50419000D03*
X124714000Y-47879000D03*
X124714000Y-45339000D03*
X124714000Y-42799000D03*
X124714000Y-40259000D03*
X124714000Y-37719000D03*
X124714000Y-35179000D03*
X124714000Y-32639000D03*
X124714000Y-30099000D03*
%TD*%
D12*
%TO.C,J3*%
X110110000Y-32644000D03*
D13*
X110110000Y-35184000D03*
X110110000Y-37724000D03*
X110110000Y-40264000D03*
X110110000Y-42804000D03*
X110110000Y-45344000D03*
X110110000Y-47884000D03*
X110110000Y-50424000D03*
X110110000Y-52964000D03*
X110110000Y-55504000D03*
X110110000Y-58044000D03*
X110110000Y-60584000D03*
X110110000Y-63124000D03*
X110110000Y-65664000D03*
X110110000Y-68204000D03*
X110110000Y-70744000D03*
X107570000Y-32644000D03*
X107570000Y-35184000D03*
X107570000Y-37724000D03*
X107570000Y-40264000D03*
X107570000Y-42804000D03*
X107570000Y-45344000D03*
X107570000Y-47884000D03*
X107570000Y-50424000D03*
X107570000Y-52964000D03*
X107570000Y-55504000D03*
X107570000Y-58044000D03*
X107570000Y-60584000D03*
X107570000Y-63124000D03*
X107570000Y-65664000D03*
X107570000Y-68204000D03*
X107570000Y-70744000D03*
%TD*%
D19*
%TO.C,SW1*%
X162102000Y-87904000D03*
X162102000Y-94914000D03*
D20*
X164592000Y-89154000D03*
X164592000Y-93654000D03*
%TD*%
D10*
%TO.C,U8*%
X115824000Y-149860000D03*
D11*
X115824000Y-152400000D03*
X115824000Y-154940000D03*
X115824000Y-157480000D03*
X115824000Y-160020000D03*
X115824000Y-162560000D03*
X115824000Y-165100000D03*
X115824000Y-167640000D03*
X115824000Y-170180000D03*
X115824000Y-172720000D03*
X115824000Y-175260000D03*
X115824000Y-177800000D03*
X123444000Y-177800000D03*
X123444000Y-175260000D03*
X123444000Y-172720000D03*
X123444000Y-170180000D03*
X123444000Y-167640000D03*
X123444000Y-165100000D03*
X123444000Y-162560000D03*
X123444000Y-160020000D03*
X123444000Y-157480000D03*
X123444000Y-154940000D03*
X123444000Y-152400000D03*
X123444000Y-149860000D03*
%TD*%
D12*
%TO.C,J6*%
X86310000Y-179044000D03*
D13*
X83770000Y-179044000D03*
X81230000Y-179044000D03*
X78690000Y-179044000D03*
%TD*%
D21*
%TO.C,U2*%
X127254000Y-106680000D03*
D22*
X127254000Y-109220000D03*
X127254000Y-111760000D03*
X127254000Y-114300000D03*
X127254000Y-116840000D03*
X127254000Y-119380000D03*
X127254000Y-121920000D03*
X127254000Y-124460000D03*
X127254000Y-127000000D03*
X127254000Y-129540000D03*
X127254000Y-132080000D03*
X127254000Y-134620000D03*
X127254000Y-137160000D03*
X127254000Y-139700000D03*
X142494000Y-139700000D03*
X142494000Y-137160000D03*
X142494000Y-134620000D03*
X142494000Y-132080000D03*
X142494000Y-129540000D03*
X142494000Y-127000000D03*
X142494000Y-124460000D03*
X142494000Y-121920000D03*
X142494000Y-119380000D03*
X142494000Y-116840000D03*
X142494000Y-114300000D03*
X142494000Y-111760000D03*
X142494000Y-109220000D03*
X142494000Y-106680000D03*
%TD*%
D14*
%TO.C,C6*%
X149098000Y-106680000D03*
X149098000Y-104180000D03*
%TD*%
D15*
%TO.C,H3*%
X28116157Y-180000000D03*
%TD*%
D14*
%TO.C,C5*%
X40148000Y-162560000D03*
X40148000Y-165060000D03*
%TD*%
D23*
%TO.C,U1*%
X139821817Y-31968617D03*
D24*
X137281817Y-48628617D03*
D25*
X139821817Y-48628617D03*
X142361817Y-48628617D03*
%TD*%
D12*
%TO.C,J4*%
X63410000Y-32644000D03*
D13*
X63410000Y-35184000D03*
X63410000Y-37724000D03*
X63410000Y-40264000D03*
X63410000Y-42804000D03*
X63410000Y-45344000D03*
X63410000Y-47884000D03*
X63410000Y-50424000D03*
X63410000Y-52964000D03*
X63410000Y-55504000D03*
X63410000Y-58044000D03*
X63410000Y-60584000D03*
X63410000Y-63124000D03*
X63410000Y-65664000D03*
X63410000Y-68204000D03*
X63410000Y-70744000D03*
X60870000Y-32644000D03*
X60870000Y-35184000D03*
X60870000Y-37724000D03*
X60870000Y-40264000D03*
X60870000Y-42804000D03*
X60870000Y-45344000D03*
X60870000Y-47884000D03*
X60870000Y-50424000D03*
X60870000Y-52964000D03*
X60870000Y-55504000D03*
X60870000Y-58044000D03*
X60870000Y-60584000D03*
X60870000Y-63124000D03*
X60870000Y-65664000D03*
X60870000Y-68204000D03*
X60870000Y-70744000D03*
%TD*%
D16*
%TO.C,FB1*%
X147574000Y-71374000D03*
D17*
X147574000Y-84074000D03*
%TD*%
D14*
%TO.C,C8*%
X81245260Y-110980121D03*
X86245260Y-110980121D03*
%TD*%
%TO.C,C7*%
X119651000Y-106680000D03*
X119651000Y-104180000D03*
%TD*%
D12*
%TO.C,J13*%
X153162000Y-44450000D03*
D18*
X153162000Y-46950000D03*
X155162000Y-46950000D03*
X155162000Y-44450000D03*
D26*
X157872000Y-39680000D03*
X157872000Y-51720000D03*
%TD*%
D14*
%TO.C,F1*%
X147574000Y-62230000D03*
X147574000Y-67310000D03*
%TD*%
D15*
%TO.C,H2*%
X28116157Y-30000000D03*
%TD*%
D14*
%TO.C,C4*%
X63263000Y-131844000D03*
X63263000Y-134344000D03*
%TD*%
D27*
%TO.C,J1*%
X154686000Y-62230000D03*
D28*
X160686000Y-62230000D03*
D29*
X157686000Y-57530000D03*
%TD*%
D30*
%TO.C,D1*%
X134620000Y-64008000D03*
D31*
X132080000Y-64008000D03*
%TD*%
D14*
%TO.C,R6*%
X72898000Y-64324359D03*
D11*
X72898000Y-74484359D03*
%TD*%
D12*
%TO.C,J10*%
X30225000Y-101600000D03*
D13*
X30225000Y-104140000D03*
%TD*%
D10*
%TO.C,U12*%
X70359853Y-30083285D03*
D11*
X70359853Y-32623285D03*
X70359853Y-35163285D03*
X70359853Y-37703285D03*
X70359853Y-40243285D03*
X70359853Y-42783285D03*
X70359853Y-45323285D03*
X70359853Y-47863285D03*
X70359853Y-50403285D03*
X70359853Y-52943285D03*
X77979853Y-52943285D03*
X77979853Y-50403285D03*
X77979853Y-47863285D03*
X77979853Y-45323285D03*
X77979853Y-42783285D03*
X77979853Y-40243285D03*
X77979853Y-37703285D03*
X77979853Y-35163285D03*
X77979853Y-32623285D03*
X77979853Y-30083285D03*
%TD*%
D14*
%TO.C,R2*%
X88016423Y-114366561D03*
D11*
X88016423Y-124526561D03*
%TD*%
D15*
%TO.C,H1*%
X163116157Y-30000000D03*
%TD*%
D14*
%TO.C,R7*%
X79248000Y-104394000D03*
D11*
X89408000Y-104394000D03*
%TD*%
D10*
%TO.C,U9*%
X91821000Y-28829000D03*
D11*
X91821000Y-31369000D03*
X91821000Y-33909000D03*
X91821000Y-36449000D03*
X91821000Y-38989000D03*
X91821000Y-41529000D03*
X91821000Y-44069000D03*
X91821000Y-46609000D03*
X91821000Y-49149000D03*
X91821000Y-51689000D03*
X99441000Y-51689000D03*
X99441000Y-49149000D03*
X99441000Y-46609000D03*
X99441000Y-44069000D03*
X99441000Y-41529000D03*
X99441000Y-38989000D03*
X99441000Y-36449000D03*
X99441000Y-33909000D03*
X99441000Y-31369000D03*
X99441000Y-28829000D03*
%TD*%
D12*
%TO.C,J9*%
X78740000Y-170873112D03*
D13*
X81280000Y-170873112D03*
X78740000Y-173413112D03*
X81280000Y-173413112D03*
%TD*%
D12*
%TO.C,J14*%
X72898000Y-58166000D03*
D13*
X72898000Y-60706000D03*
%TD*%
D14*
%TO.C,C3*%
X63310000Y-111326341D03*
X61310000Y-111326341D03*
%TD*%
%TO.C,R1*%
X118364000Y-64383133D03*
D11*
X118364000Y-74543133D03*
%TD*%
D14*
%TO.C,R3*%
X89408000Y-107722911D03*
D11*
X79248000Y-107722911D03*
%TD*%
D14*
%TO.C,C9*%
X126884034Y-149786695D03*
X126884034Y-154786695D03*
%TD*%
D10*
%TO.C,U5*%
X66040000Y-114300000D03*
D11*
X66040000Y-116840000D03*
X66040000Y-119380000D03*
X66040000Y-121920000D03*
X66040000Y-124460000D03*
X66040000Y-127000000D03*
X66040000Y-129540000D03*
X66040000Y-132080000D03*
X66040000Y-134620000D03*
X66040000Y-137160000D03*
X66040000Y-139700000D03*
X66040000Y-142240000D03*
X66040000Y-144780000D03*
X66040000Y-147320000D03*
X66040000Y-149860000D03*
X66040000Y-152400000D03*
X66040000Y-154940000D03*
X66040000Y-157480000D03*
X66040000Y-160020000D03*
X66040000Y-162560000D03*
X81280000Y-162560000D03*
X81280000Y-160020000D03*
X81280000Y-157480000D03*
X81280000Y-154940000D03*
X81280000Y-152400000D03*
X81280000Y-149860000D03*
X81280000Y-147320000D03*
X81280000Y-144780000D03*
X81280000Y-142240000D03*
X81280000Y-139700000D03*
X81280000Y-137160000D03*
X81280000Y-134620000D03*
X81280000Y-132080000D03*
X81280000Y-129540000D03*
X81280000Y-127000000D03*
X81280000Y-124460000D03*
X81280000Y-121920000D03*
X81280000Y-119380000D03*
X81280000Y-116840000D03*
X81280000Y-114300000D03*
%TD*%
D10*
%TO.C,U7*%
X130048000Y-149860000D03*
D11*
X130048000Y-152400000D03*
X130048000Y-154940000D03*
X130048000Y-157480000D03*
X130048000Y-160020000D03*
X130048000Y-162560000D03*
X130048000Y-165100000D03*
X130048000Y-167640000D03*
X130048000Y-170180000D03*
X130048000Y-172720000D03*
X137668000Y-172720000D03*
X137668000Y-170180000D03*
X137668000Y-167640000D03*
X137668000Y-165100000D03*
X137668000Y-162560000D03*
X137668000Y-160020000D03*
X137668000Y-157480000D03*
X137668000Y-154940000D03*
X137668000Y-152400000D03*
X137668000Y-149860000D03*
%TD*%
D10*
%TO.C,U6*%
X144201570Y-149860000D03*
D11*
X144201570Y-152400000D03*
X144201570Y-154940000D03*
X144201570Y-157480000D03*
X144201570Y-160020000D03*
X144201570Y-162560000D03*
X144201570Y-165100000D03*
X144201570Y-167640000D03*
X151821570Y-167640000D03*
X151821570Y-165100000D03*
X151821570Y-162560000D03*
X151821570Y-160020000D03*
X151821570Y-157480000D03*
X151821570Y-154940000D03*
X151821570Y-152400000D03*
X151821570Y-149860000D03*
%TD*%
M02*
