M48
; DRILL file {KiCad (5.99.0-7129-g2932fe1e64)} date Sun Nov 22 16:30:07 2020
; FORMAT={-:-/ absolute / metric / decimal}
; #@! TF.CreationDate,2020-11-22T16:30:07+08:00
; #@! TF.GenerationSoftware,Kicad,Pcbnew,(5.99.0-7129-g2932fe1e64)
; #@! TF.FileFunction,Plated,1,2,PTH
FMAT,2
METRIC
T1C0.300
T2C0.800
T3C0.900
T4C1.000
T5C1.100
T6C3.200
%
G90
G05
T1
X26.162Y-52.959
X26.162Y-82.55
X26.924Y-50.419
X26.924Y-83.312
X27.686Y-49.149
X27.686Y-94.742
X28.448Y-47.879
X28.448Y-84.074
X29.21Y-46.609
X29.21Y-93.98
X29.972Y-45.339
X29.972Y-84.836
X30.734Y-44.069
X30.734Y-93.218
X31.496Y-42.799
X31.496Y-85.598
X32.258Y-41.529
X32.258Y-92.456
X32.975Y-40.259
X33.02Y-86.36
X33.782Y-38.862
X33.782Y-91.694
X34.544Y-37.592
X34.544Y-87.122
X35.306Y-36.449
X35.306Y-90.932
X36.068Y-35.179
X36.068Y-87.884
X36.785Y-33.909
X36.83Y-90.17
X37.547Y-31.369
X37.592Y-89.408
X38.354Y-56.642
X38.354Y-81.788
X39.116Y-59.309
X39.116Y-95.504
X39.878Y-61.849
X39.878Y-96.266
X40.64Y-64.262
X40.64Y-97.028
X41.402Y-66.802
X41.402Y-97.79
X42.164Y-69.342
X42.164Y-98.552
X42.926Y-71.882
X42.926Y-99.314
X43.688Y-74.422
X43.688Y-100.076
X44.958Y-114.3
X45.974Y-116.84
X46.735Y-119.396
X46.736Y-89.408
X47.498Y-90.17
X47.513Y-121.92
X48.26Y-90.932
X48.275Y-124.46
X49.022Y-91.694
X49.037Y-127.0
X49.784Y-88.646
X50.56Y-82.55
X50.56Y-149.86
X51.322Y-83.312
X51.322Y-147.32
X52.068Y-144.796
X52.07Y-84.074
X52.83Y-142.256
X52.832Y-84.836
X53.592Y-139.716
X53.594Y-85.598
X54.354Y-137.16
X54.356Y-86.36
X55.117Y-134.62
X55.118Y-87.122
X55.878Y-132.096
X55.88Y-87.884
X56.641Y-129.54
X56.642Y-102.616
X66.548Y-97.79
X66.929Y-58.039
X67.31Y-97.028
X67.818Y-57.277
X67.818Y-88.646
X68.071Y-127.0
X68.072Y-96.266
X68.834Y-95.504
X68.834Y-162.56
X69.596Y-94.742
X69.596Y-160.02
X70.358Y-93.98
X70.358Y-157.48
X71.12Y-93.218
X71.12Y-154.94
X71.85Y-92.488
X71.882Y-152.4
X72.6Y-91.738
X72.644Y-55.372
X72.644Y-149.86
X73.406Y-90.932
X73.406Y-147.32
X74.1Y-144.83
X74.168Y-90.17
X74.93Y-65.659
X74.93Y-142.24
X75.692Y-139.7
X76.454Y-90.17
X76.454Y-137.16
X77.216Y-89.408
X77.216Y-134.62
X77.977Y-121.936
X77.977Y-151.13
X77.978Y-60.579
X79.502Y-49.165
X79.502Y-94.742
X80.264Y-46.609
X80.264Y-93.98
X81.026Y-44.085
X81.026Y-93.218
X81.788Y-41.529
X81.788Y-92.456
X82.55Y-38.989
X82.55Y-91.694
X83.312Y-36.449
X83.312Y-90.932
X84.074Y-33.909
X84.074Y-90.17
X84.836Y-31.242
X84.836Y-89.408
X85.598Y-59.309
X85.598Y-95.504
X86.36Y-61.849
X86.36Y-96.266
X87.122Y-64.278
X87.122Y-97.028
X87.884Y-66.818
X87.884Y-97.79
X88.646Y-69.358
X88.646Y-98.552
X89.408Y-72.025
X89.408Y-99.314
X90.17Y-74.565
X90.17Y-100.076
X91.186Y-88.646
X91.186Y-129.54
X91.948Y-87.884
X91.948Y-132.08
X92.71Y-87.122
X92.71Y-134.62
X93.472Y-86.36
X93.472Y-137.16
X94.234Y-85.598
X94.234Y-139.7
X94.996Y-84.836
X94.996Y-142.24
X95.758Y-84.074
X95.758Y-144.78
X96.52Y-83.312
X96.52Y-147.32
X97.282Y-82.55
X97.282Y-149.86
X100.838Y-157.48
X101.6Y-160.02
X103.124Y-89.408
X103.124Y-129.54
X103.886Y-90.17
X103.886Y-127.0
X104.648Y-90.932
X104.648Y-124.46
X105.41Y-91.694
X105.41Y-121.92
X105.664Y-154.94
X106.172Y-92.456
X106.172Y-119.38
X106.934Y-93.218
X106.934Y-116.84
X107.696Y-93.98
X107.696Y-114.3
X108.458Y-94.742
X108.458Y-111.76
X109.22Y-99.314
X109.22Y-110.744
X109.982Y-98.552
X109.982Y-109.22
X110.744Y-100.076
X110.744Y-106.68
X111.76Y-137.16
X111.76Y-142.24
X112.522Y-95.504
X112.522Y-114.3
X112.522Y-134.62
X112.522Y-144.78
X113.284Y-96.266
X113.284Y-116.84
X113.284Y-132.08
X113.284Y-147.32
X114.046Y-97.79
X114.046Y-119.38
X114.046Y-129.54
X114.046Y-149.86
X114.808Y-97.028
X114.808Y-124.46
X114.808Y-127.0
X115.57Y-52.959
X115.57Y-88.646
X115.57Y-151.13
X121.412Y-81.788
X122.174Y-85.598
X122.174Y-138.43
X122.936Y-55.499
X122.936Y-123.19
X123.698Y-118.11
X134.62Y-153.162
X139.954Y-127.0
X144.78Y-152.4
T2
X124.46Y-157.48
X124.46Y-160.02
X124.46Y-162.56
X124.46Y-165.1
X124.46Y-167.64
X124.46Y-170.18
X124.46Y-172.72
X132.08Y-157.48
X132.08Y-160.02
X132.08Y-162.56
X132.08Y-165.1
X132.08Y-167.64
X132.08Y-170.18
X132.08Y-172.72
X101.6Y-119.38
X144.78Y-167.64
X144.78Y-170.18
X144.78Y-172.72
X101.6Y-106.68
X101.6Y-109.22
X101.6Y-111.76
X101.6Y-114.3
X101.6Y-116.84
X101.6Y-134.62
X152.4Y-157.48
X152.4Y-160.02
X152.4Y-162.56
X101.6Y-121.92
X101.6Y-124.46
X101.6Y-127.0
X101.6Y-129.54
X101.6Y-132.08
X144.78Y-162.56
X53.299Y-38.989
X144.78Y-157.48
X144.78Y-160.02
X53.299Y-28.829
X53.299Y-31.369
X53.299Y-33.909
X53.299Y-36.449
X124.714Y-30.099
X124.714Y-32.639
X124.714Y-35.179
X63.263Y-129.834
X63.263Y-132.334
X160.782Y-63.245
X160.782Y-68.325
X144.78Y-165.1
X152.4Y-165.1
X101.6Y-137.16
X101.6Y-139.7
X124.714Y-37.719
X124.714Y-40.259
X124.714Y-42.799
X124.714Y-45.339
X116.84Y-106.68
X116.84Y-109.22
X116.84Y-111.76
X116.84Y-114.3
X116.84Y-116.84
X116.84Y-119.38
X116.84Y-121.92
X116.84Y-124.46
X116.84Y-127.0
X116.84Y-129.54
X116.84Y-132.08
X116.84Y-134.62
X116.84Y-137.16
X116.84Y-139.7
X63.263Y-116.896
X117.094Y-30.099
X117.094Y-32.639
X117.094Y-35.179
X117.094Y-37.719
X117.094Y-40.259
X117.094Y-42.799
X117.094Y-45.339
X117.094Y-47.879
X117.094Y-50.419
X117.094Y-52.959
X124.714Y-47.879
X124.714Y-50.419
X124.714Y-52.959
X63.263Y-127.056
X53.299Y-44.069
X152.4Y-167.64
X152.4Y-170.18
X152.4Y-172.72
X91.821Y-56.769
X91.821Y-59.309
X91.821Y-61.849
X91.821Y-64.389
X91.821Y-66.929
X91.821Y-69.469
X91.821Y-72.009
X91.821Y-74.549
X91.821Y-77.089
X91.821Y-79.629
X99.441Y-56.769
X99.441Y-59.309
X99.441Y-61.849
X99.441Y-64.389
X99.441Y-66.929
X99.441Y-69.469
X99.441Y-72.009
X99.441Y-74.549
X99.441Y-77.089
X99.441Y-79.629
X45.679Y-28.829
X45.679Y-31.369
X45.679Y-33.909
X45.679Y-36.449
X45.679Y-38.989
X45.679Y-41.529
X45.679Y-44.069
X45.679Y-46.609
X45.679Y-49.149
X45.679Y-51.689
X53.299Y-41.529
X53.299Y-46.609
X53.299Y-49.149
X53.299Y-51.689
X88.9Y-104.14
X132.588Y-66.294
X132.588Y-68.294
X88.9Y-114.3
X104.14Y-157.48
X104.14Y-160.02
X104.14Y-162.56
X104.14Y-165.1
X104.14Y-167.64
X104.14Y-170.18
X104.14Y-172.72
X111.76Y-157.48
X111.76Y-160.02
X111.76Y-162.56
X111.76Y-165.1
X111.76Y-167.64
X111.76Y-170.18
X111.76Y-172.72
X153.162Y-68.325
X81.28Y-114.3
X153.162Y-66.325
X132.842Y-44.381
X143.002Y-44.381
X66.04Y-147.32
X66.04Y-149.86
X66.04Y-152.4
X66.04Y-154.94
X66.04Y-157.48
X66.04Y-160.02
X66.04Y-162.56
X119.651Y-104.18
X66.04Y-114.3
X66.04Y-116.84
X66.04Y-119.38
X66.04Y-121.92
X66.04Y-124.46
X66.04Y-127.0
X66.04Y-129.54
X66.04Y-132.08
X66.04Y-134.62
X66.04Y-137.16
X66.04Y-139.7
X66.04Y-144.78
X119.651Y-106.68
X66.04Y-142.24
X81.28Y-116.84
X81.28Y-119.38
X81.28Y-121.92
X81.28Y-124.46
X81.28Y-127.0
X81.28Y-129.54
X81.28Y-132.08
X81.28Y-134.62
X81.28Y-137.16
X81.28Y-139.7
X81.28Y-142.24
X81.28Y-144.78
X81.28Y-147.32
X81.28Y-149.86
X81.28Y-152.4
X81.28Y-154.94
X81.28Y-157.48
X81.28Y-160.02
X81.28Y-162.56
X42.925Y-147.32
X58.42Y-170.764
X42.925Y-116.84
X42.925Y-119.38
X42.925Y-132.08
X73.66Y-170.764
X73.66Y-178.384
X42.925Y-114.3
X42.925Y-121.92
X42.925Y-124.46
X42.925Y-127.0
X42.925Y-129.54
X58.42Y-178.384
X42.925Y-134.62
X42.925Y-137.16
X42.925Y-139.7
X42.925Y-142.24
X40.148Y-162.56
X40.148Y-165.06
X42.925Y-144.78
X42.925Y-149.86
X42.925Y-152.4
X42.925Y-154.94
X42.925Y-157.48
X42.925Y-160.02
X42.925Y-162.56
X58.165Y-114.3
X58.165Y-116.84
X58.165Y-119.38
X58.165Y-121.92
X58.165Y-124.46
X58.165Y-127.0
X58.165Y-129.54
X58.165Y-132.08
X58.165Y-134.62
X58.165Y-137.16
X58.165Y-139.7
X58.165Y-142.24
X58.165Y-144.78
X58.165Y-147.32
X58.165Y-149.86
X58.165Y-152.4
X58.165Y-154.94
X58.165Y-157.48
X58.165Y-160.02
X58.165Y-162.56
X45.741Y-56.647
X45.741Y-59.187
X45.741Y-61.727
X45.741Y-64.267
X45.741Y-66.807
X45.741Y-69.347
X45.741Y-71.887
X45.741Y-74.427
X45.741Y-76.967
X45.741Y-79.507
X53.361Y-56.647
X53.361Y-59.187
X53.361Y-61.727
X53.361Y-64.267
X53.361Y-66.807
X53.361Y-69.347
X53.361Y-71.887
X53.361Y-74.427
X53.361Y-76.967
X53.361Y-79.507
X144.289Y-106.68
X126.238Y-106.68
X144.289Y-104.18
X70.36Y-30.083
X70.36Y-32.623
X70.36Y-35.163
X70.36Y-37.703
X70.36Y-40.243
X70.36Y-42.783
X70.36Y-45.323
X70.36Y-47.863
X70.36Y-50.403
X70.36Y-52.943
X77.98Y-30.083
X77.98Y-32.623
X77.98Y-35.163
X77.98Y-37.703
X77.98Y-40.243
X77.98Y-42.783
X77.98Y-45.323
X77.98Y-47.863
X77.98Y-50.403
X77.98Y-52.943
X126.238Y-109.22
X126.238Y-111.76
X126.238Y-114.3
X126.238Y-116.84
X126.238Y-119.38
X126.238Y-121.92
X126.238Y-124.46
X126.238Y-127.0
X126.238Y-129.54
X126.238Y-132.08
X126.238Y-134.62
X126.238Y-137.16
X126.238Y-139.7
X141.478Y-106.68
X141.478Y-109.22
X141.478Y-111.76
X141.478Y-114.3
X141.478Y-116.84
X141.478Y-119.38
X141.478Y-121.92
X141.478Y-124.46
X141.478Y-127.0
X141.478Y-129.54
X141.478Y-132.08
X141.478Y-134.62
X141.478Y-137.16
X141.478Y-139.7
X91.821Y-28.829
X91.821Y-31.369
X91.821Y-33.909
X91.821Y-36.449
X91.821Y-38.989
X91.821Y-41.529
X91.821Y-44.069
X91.821Y-46.609
X91.821Y-49.149
X91.821Y-51.689
X99.441Y-28.829
X99.441Y-31.369
X99.441Y-33.909
X99.441Y-36.449
X99.441Y-38.989
X99.441Y-41.529
X85.344Y-104.162
X85.344Y-114.322
X99.441Y-44.069
X99.441Y-46.609
X99.441Y-49.149
X99.441Y-51.689
X86.36Y-122.46
X86.36Y-124.46
T3
X130.302Y-54.355
X132.842Y-54.355
T4
X78.74Y-170.873
X78.74Y-173.413
X81.28Y-170.873
X81.28Y-173.413
X30.225Y-109.22
X30.225Y-111.76
X30.225Y-114.3
X30.225Y-116.84
X30.225Y-119.38
X30.225Y-121.92
X30.225Y-124.46
X30.225Y-127.0
X30.225Y-129.54
X30.225Y-132.08
X106.68Y-33.909
X106.68Y-36.449
X106.68Y-38.989
X106.68Y-41.529
X106.68Y-44.069
X106.68Y-46.609
X106.68Y-49.149
X106.68Y-51.689
X106.68Y-54.229
X106.68Y-56.769
X106.68Y-59.309
X63.62Y-68.199
X30.225Y-104.14
X63.62Y-32.639
X63.62Y-35.179
X63.62Y-37.719
X63.62Y-40.259
X63.62Y-42.799
X63.62Y-45.339
X63.62Y-47.879
X63.62Y-50.419
X63.62Y-52.959
X63.62Y-55.499
X63.62Y-58.039
X63.62Y-60.579
X63.62Y-63.119
X63.62Y-65.659
X106.68Y-64.389
X30.225Y-101.6
X106.68Y-61.849
X106.68Y-66.929
X106.68Y-69.469
X60.06Y-33.909
X60.06Y-36.449
X60.06Y-38.989
X60.06Y-41.529
X60.06Y-44.069
X60.06Y-46.609
X60.06Y-49.149
X60.06Y-51.689
X60.06Y-54.229
X60.06Y-56.769
X60.06Y-59.309
X60.06Y-61.849
X60.06Y-64.389
X60.06Y-66.929
X60.06Y-69.469
X30.225Y-137.16
X30.225Y-139.7
X30.225Y-142.24
X30.225Y-144.78
X30.225Y-147.32
X30.225Y-149.86
X30.225Y-152.4
X30.225Y-154.94
X30.225Y-157.48
X30.225Y-160.02
X78.74Y-179.324
X81.28Y-179.324
X83.82Y-179.324
X86.36Y-179.324
X110.236Y-32.639
X110.236Y-35.179
X110.236Y-37.719
X110.236Y-40.259
X110.236Y-42.799
X110.236Y-45.339
X110.236Y-47.879
X110.236Y-50.419
X110.236Y-52.959
X110.236Y-55.499
X110.236Y-58.039
X148.082Y-76.072
X160.782Y-76.072
X110.236Y-60.579
X110.236Y-63.119
X110.236Y-65.659
X110.236Y-68.199
T5
X74.902Y-102.783
X74.902Y-107.283
X81.402Y-102.783
X81.402Y-107.283
X140.462Y-68.325
X143.002Y-68.325
X145.542Y-68.325
T6
X28.116Y-30.0
X163.116Y-180.0
X163.116Y-30.0
X28.116Y-180.0
T4
G00X154.488Y-54.617
M15
G01X154.488Y-52.617
M16
G05
G00X158.488Y-48.917
M15
G01X156.488Y-48.917
M16
G05
G00X160.488Y-54.617
M15
G01X160.488Y-52.617
M16
G05
T0
M30
