M48
; DRILL file {KiCad (5.99.0-2358-g6d8fb94d8)} date Sun Oct 18 12:13:33 2020
; FORMAT={-:-/ absolute / metric / decimal}
; #@! TF.CreationDate,2020-10-18T12:13:33+08:00
; #@! TF.GenerationSoftware,Kicad,Pcbnew,(5.99.0-2358-g6d8fb94d8)
; #@! TF.FileFunction,Plated,1,2,PTH
FMAT,2
METRIC
T1C0.800
T2C0.900
T3C1.000
T4C1.100
T5C3.200
%
G90
G05
T1
X17.78Y-101.6
X17.78Y-124.46
X20.32Y-104.14
X20.32Y-127.0
X25.4Y-99.06
X30.48Y-40.64
X30.48Y-165.1
X33.02Y-22.86
X33.02Y-132.08
X35.56Y-20.32
X35.56Y-129.54
X38.1Y-17.78
X38.1Y-127.0
X40.64Y-50.8
X40.64Y-124.46
X45.72Y-25.4
X45.72Y-134.62
X45.72Y-157.48
X45.72Y-162.56
X48.26Y-27.94
X48.26Y-137.16
X48.26Y-152.4
X48.26Y-167.64
X50.8Y-30.48
X50.8Y-139.7
X50.8Y-147.32
X50.8Y-160.02
X53.34Y-33.02
X53.34Y-142.24
X55.88Y-35.56
X55.88Y-144.78
X58.42Y-38.1
X58.42Y-154.94
X60.96Y-157.48
X63.5Y-86.36
X63.5Y-154.94
X66.04Y-83.82
X66.04Y-152.4
X68.58Y-81.28
X68.58Y-149.86
X71.12Y-78.74
X71.12Y-147.32
X73.66Y-76.2
X73.66Y-144.78
X76.2Y-73.66
X76.2Y-142.24
X78.74Y-71.12
X78.74Y-139.7
X81.28Y-68.58
X81.28Y-137.16
X83.82Y-66.04
X83.82Y-134.62
X86.36Y-63.5
X88.9Y-60.96
X91.44Y-58.42
X93.98Y-43.18
X93.98Y-132.08
X96.52Y-45.72
X96.52Y-129.54
X99.06Y-50.8
X99.06Y-121.92
X99.06Y-127.0
X101.6Y-116.84
X101.6Y-162.56
X104.14Y-116.84
X104.14Y-160.02
X109.22Y-53.34
X116.84Y-38.1
X116.84Y-124.46
X119.38Y-17.78
X119.38Y-127.0
X121.92Y-20.32
X121.92Y-129.54
X124.338Y-22.86
X124.46Y-132.08
X126.878Y-25.4
X126.878Y-134.62
X129.418Y-27.94
X129.418Y-137.16
X131.958Y-30.48
X131.958Y-139.7
X134.498Y-33.02
X134.498Y-142.24
X137.038Y-35.56
X137.16Y-144.78
X139.7Y-124.46
X142.24Y-58.42
X142.24Y-121.92
X142.24Y-152.4
X144.78Y-60.96
X144.78Y-119.38
X144.78Y-154.94
X147.32Y-63.5
X147.32Y-116.84
X147.32Y-152.4
X149.86Y-66.04
X149.86Y-114.3
X149.86Y-149.86
X152.4Y-68.58
X152.4Y-111.76
X154.94Y-71.12
X157.48Y-73.66
X157.48Y-109.22
X160.02Y-76.2
X160.02Y-106.68
X160.02Y-134.62
X162.56Y-88.9
X162.56Y-104.14
X162.56Y-111.76
X162.56Y-134.62
X165.1Y-93.98
X165.1Y-101.6
X165.1Y-109.22
X165.1Y-134.62
X167.64Y-48.26
X167.64Y-121.92
X170.18Y-53.34
X170.18Y-152.4
X172.72Y-132.08
X172.72Y-137.16
X175.26Y-91.44
X175.26Y-106.68
X175.26Y-129.54
X175.26Y-139.7
X175.26Y-175.26
X177.8Y-78.74
X177.8Y-109.22
X177.8Y-127.0
X177.8Y-142.24
X180.34Y-81.28
X180.34Y-111.76
X180.34Y-124.46
X180.34Y-144.78
X180.34Y-162.56
X180.34Y-177.8
X182.88Y-86.36
X182.88Y-114.3
X182.88Y-170.18
X182.88Y-177.8
X185.42Y-83.82
X185.42Y-119.38
X185.42Y-149.86
X187.96Y-45.72
X187.96Y-134.62
X187.96Y-157.48
X190.5Y-86.36
X190.5Y-165.1
X190.5Y-177.8
X193.04Y-50.8
X193.04Y-154.94
X193.04Y-177.8
X195.58Y-43.18
X195.58Y-132.08
X195.58Y-149.86
X195.58Y-162.56
X198.12Y-40.64
X198.12Y-129.54
X200.66Y-38.1
X200.66Y-127.0
X203.2Y-58.42
X203.2Y-124.46
X203.2Y-154.94
X203.2Y-172.72
X205.74Y-60.96
X205.74Y-121.92
X208.28Y-63.5
X208.28Y-119.38
X210.82Y-66.04
X210.82Y-116.84
X213.36Y-68.58
X213.36Y-114.3
X215.9Y-71.12
X215.9Y-111.76
X218.44Y-73.66
X218.44Y-109.22
X220.98Y-76.2
X220.98Y-106.68
X223.52Y-88.9
X223.52Y-104.14
X226.06Y-93.98
X228.6Y-91.44
X228.6Y-106.68
X228.6Y-132.08
X228.6Y-139.7
X231.14Y-78.74
X231.14Y-109.22
X231.14Y-129.54
X231.14Y-142.24
X233.68Y-81.28
X233.68Y-111.76
X233.68Y-127.0
X233.68Y-144.78
X236.22Y-86.36
X236.22Y-114.3
X236.22Y-124.46
X236.22Y-147.32
X238.76Y-83.82
X238.76Y-119.38
X238.76Y-121.92
X238.76Y-149.86
X27.94Y-109.22
X27.94Y-111.76
X27.94Y-114.3
X27.94Y-116.84
X27.94Y-119.38
X27.94Y-121.92
X27.94Y-124.46
X27.94Y-127.0
X27.94Y-129.54
X27.94Y-132.08
X27.94Y-134.62
X27.94Y-137.16
X27.94Y-139.7
X27.94Y-142.24
X27.94Y-144.78
X27.94Y-147.32
X27.94Y-149.86
X27.94Y-152.4
X27.94Y-154.94
X27.94Y-157.48
X43.18Y-109.22
X43.18Y-111.76
X43.18Y-114.3
X43.18Y-116.84
X43.18Y-119.38
X43.18Y-121.92
X43.18Y-124.46
X43.18Y-127.0
X43.18Y-129.54
X43.18Y-132.08
X43.18Y-134.62
X43.18Y-137.16
X43.18Y-139.7
X43.18Y-142.24
X43.18Y-144.78
X43.18Y-147.32
X43.18Y-149.86
X43.18Y-152.4
X43.18Y-154.94
X43.18Y-157.48
X91.44Y-109.22
X91.44Y-111.76
X91.44Y-114.3
X91.44Y-116.84
X91.44Y-119.38
X91.44Y-121.92
X91.44Y-124.46
X91.44Y-127.0
X91.44Y-129.54
X91.44Y-132.08
X91.44Y-134.62
X91.44Y-137.16
X91.44Y-139.7
X91.44Y-142.24
X91.44Y-144.78
X91.44Y-147.32
X91.44Y-149.86
X91.44Y-152.4
X91.44Y-154.94
X91.44Y-157.48
X106.68Y-109.22
X106.68Y-111.76
X106.68Y-114.3
X106.68Y-116.84
X106.68Y-119.38
X106.68Y-121.92
X106.68Y-124.46
X106.68Y-127.0
X106.68Y-129.54
X106.68Y-132.08
X106.68Y-134.62
X106.68Y-137.16
X106.68Y-139.7
X106.68Y-142.24
X106.68Y-144.78
X106.68Y-147.32
X106.68Y-149.86
X106.68Y-152.4
X106.68Y-154.94
X106.68Y-157.48
X177.8Y-152.4
X177.8Y-154.94
X177.8Y-157.48
X177.8Y-160.02
X177.8Y-162.56
X177.8Y-165.1
X177.8Y-167.64
X185.42Y-152.4
X185.42Y-154.94
X185.42Y-157.48
X185.42Y-160.02
X185.42Y-162.56
X185.42Y-165.1
X185.42Y-167.64
X88.663Y-111.816
X88.663Y-121.976
X244.111Y-99.1
X244.111Y-101.6
X111.76Y-117.38
X111.76Y-119.38
X238.76Y-55.88
X238.76Y-60.96
X157.48Y-152.4
X157.48Y-154.94
X157.48Y-157.48
X157.48Y-160.02
X157.48Y-162.56
X157.48Y-165.1
X157.48Y-167.64
X165.1Y-152.4
X165.1Y-154.94
X165.1Y-157.48
X165.1Y-160.02
X165.1Y-162.56
X165.1Y-165.1
X165.1Y-167.64
X114.3Y-162.56
X114.3Y-170.18
X129.54Y-162.56
X129.54Y-170.18
X198.12Y-152.4
X198.12Y-154.94
X198.12Y-157.48
X198.12Y-160.02
X198.12Y-162.56
X198.12Y-165.1
X198.12Y-167.64
X205.74Y-152.4
X205.74Y-154.94
X205.74Y-157.48
X205.74Y-160.02
X205.74Y-162.56
X205.74Y-165.1
X205.74Y-167.64
X226.06Y-101.6
X226.06Y-104.14
X226.06Y-106.68
X226.06Y-109.22
X226.06Y-111.76
X226.06Y-114.3
X226.06Y-116.84
X226.06Y-119.38
X226.06Y-121.92
X226.06Y-124.46
X226.06Y-127.0
X226.06Y-129.54
X226.06Y-132.08
X226.06Y-134.62
X241.3Y-101.6
X241.3Y-104.14
X241.3Y-106.68
X241.3Y-109.22
X241.3Y-111.76
X241.3Y-114.3
X241.3Y-116.84
X241.3Y-119.38
X241.3Y-121.92
X241.3Y-124.46
X241.3Y-127.0
X241.3Y-129.54
X241.3Y-132.08
X241.3Y-134.62
X110.744Y-99.082
X110.744Y-109.242
X172.991Y-99.1
X172.991Y-101.6
X25.163Y-157.48
X25.163Y-159.98
X205.74Y-38.1
X215.9Y-38.1
X114.3Y-99.06
X114.3Y-109.22
X88.663Y-124.754
X88.663Y-127.254
X210.82Y-58.96
X210.82Y-60.96
X231.14Y-58.96
X231.14Y-60.96
X154.94Y-101.6
X154.94Y-104.14
X154.94Y-106.68
X154.94Y-109.22
X154.94Y-111.76
X154.94Y-114.3
X154.94Y-116.84
X154.94Y-119.38
X154.94Y-121.92
X154.94Y-124.46
X154.94Y-127.0
X154.94Y-129.54
X154.94Y-132.08
X154.94Y-134.62
X170.18Y-101.6
X170.18Y-104.14
X170.18Y-106.68
X170.18Y-109.22
X170.18Y-111.76
X170.18Y-114.3
X170.18Y-116.84
X170.18Y-119.38
X170.18Y-121.92
X170.18Y-124.46
X170.18Y-127.0
X170.18Y-129.54
X170.18Y-132.08
X170.18Y-134.62
T2
X205.74Y-46.939
X208.28Y-46.939
T3
X114.3Y-58.42
X114.3Y-60.96
X114.3Y-63.5
X114.3Y-66.04
X114.3Y-68.58
X114.3Y-71.12
X114.3Y-73.66
X114.3Y-76.2
X114.3Y-78.74
X114.3Y-81.28
X114.3Y-83.82
X114.3Y-86.36
X114.3Y-88.9
X114.3Y-91.44
X114.3Y-93.98
X226.06Y-68.58
X238.76Y-68.58
X134.62Y-171.011
X137.16Y-171.011
X139.7Y-171.011
X142.24Y-171.011
X15.24Y-96.52
X15.24Y-99.06
X114.3Y-17.78
X114.3Y-20.32
X114.3Y-22.86
X114.3Y-25.4
X114.3Y-27.94
X114.3Y-30.48
X114.3Y-33.02
X114.3Y-35.56
X114.3Y-38.1
X114.3Y-40.64
X114.3Y-43.18
X114.3Y-45.72
X114.3Y-48.26
X114.3Y-50.8
X114.3Y-53.34
X15.24Y-132.08
X15.24Y-134.62
X15.24Y-137.16
X15.24Y-139.7
X15.24Y-142.24
X15.24Y-144.78
X15.24Y-147.32
X15.24Y-149.86
X15.24Y-152.4
X15.24Y-154.94
X15.24Y-104.14
X15.24Y-106.68
X15.24Y-109.22
X15.24Y-111.76
X15.24Y-114.3
X15.24Y-116.84
X15.24Y-119.38
X15.24Y-121.92
X15.24Y-124.46
X15.24Y-127.0
X134.62Y-162.56
X134.62Y-165.1
X137.16Y-162.56
X137.16Y-165.1
X27.94Y-17.78
X27.94Y-20.32
X27.94Y-22.86
X27.94Y-25.4
X27.94Y-27.94
X27.94Y-30.48
X27.94Y-33.02
X27.94Y-35.56
X27.94Y-38.1
X27.94Y-40.64
X27.94Y-43.18
X27.94Y-45.72
X27.94Y-48.26
X27.94Y-50.8
X27.94Y-53.34
X27.94Y-58.42
X27.94Y-60.96
X27.94Y-63.5
X27.94Y-66.04
X27.94Y-68.58
X27.94Y-71.12
X27.94Y-73.66
X27.94Y-76.2
X27.94Y-78.74
X27.94Y-81.28
X27.94Y-83.82
X27.94Y-86.36
X27.94Y-88.9
X27.94Y-91.44
X27.94Y-93.98
T4
X218.44Y-60.96
X220.98Y-60.96
X223.52Y-60.96
X100.18Y-96.52
X100.18Y-101.02
X106.68Y-96.52
X106.68Y-101.02
T5
X241.3Y-175.26
X17.78Y-175.26
X17.78Y-20.32
X241.3Y-20.32
T3
G00X233.68Y-47.622
M15
G01X233.68Y-45.622
M16
G05
G00X237.68Y-41.922
M15
G01X235.68Y-41.922
M16
G05
G00X239.68Y-47.622
M15
G01X239.68Y-45.622
M16
G05
T0
M30
