%TF.GenerationSoftware,KiCad,Pcbnew,(5.99.0-7356-g63088e8bdb)*%
%TF.CreationDate,2021-06-15T08:44:57+08:00*%
%TF.ProjectId,MotherBoard,4d6f7468-6572-4426-9f61-72642e6b6963,rev?*%
%TF.SameCoordinates,Original*%
%TF.FileFunction,Copper,L1,Top*%
%TF.FilePolarity,Positive*%
%FSLAX46Y46*%
G04 Gerber Fmt 4.6, Leading zero omitted, Abs format (unit mm)*
G04 Created by KiCad (PCBNEW (5.99.0-7356-g63088e8bdb)) date 2021-06-15 08:44:57*
%MOMM*%
%LPD*%
G01*
G04 APERTURE LIST*
G04 Aperture macros list*
%AMRoundRect*
0 Rectangle with rounded corners*
0 $1 Rounding radius*
0 $2 $3 $4 $5 $6 $7 $8 $9 X,Y pos of 4 corners*
0 Add a 4 corners polygon primitive as box body*
4,1,4,$2,$3,$4,$5,$6,$7,$8,$9,$2,$3,0*
0 Add four circle primitives for the rounded corners*
1,1,$1+$1,$2,$3,0*
1,1,$1+$1,$4,$5,0*
1,1,$1+$1,$6,$7,0*
1,1,$1+$1,$8,$9,0*
0 Add four rect primitives between the rounded corners*
20,1,$1+$1,$2,$3,$4,$5,0*
20,1,$1+$1,$4,$5,$6,$7,0*
20,1,$1+$1,$6,$7,$8,$9,0*
20,1,$1+$1,$8,$9,$2,$3,0*%
G04 Aperture macros list end*
%TA.AperFunction,ComponentPad*%
%ADD10R,1.600000X1.600000*%
%TD*%
%TA.AperFunction,ComponentPad*%
%ADD11O,1.600000X1.600000*%
%TD*%
%TA.AperFunction,ComponentPad*%
%ADD12R,1.700000X1.700000*%
%TD*%
%TA.AperFunction,ComponentPad*%
%ADD13O,1.700000X1.700000*%
%TD*%
%TA.AperFunction,ComponentPad*%
%ADD14C,1.600000*%
%TD*%
%TA.AperFunction,ComponentPad*%
%ADD15C,3.200000*%
%TD*%
%TA.AperFunction,ComponentPad*%
%ADD16C,2.000000*%
%TD*%
%TA.AperFunction,ComponentPad*%
%ADD17O,2.000000X2.000000*%
%TD*%
%TA.AperFunction,ComponentPad*%
%ADD18C,1.700000*%
%TD*%
%TA.AperFunction,ComponentPad*%
%ADD19C,2.100000*%
%TD*%
%TA.AperFunction,ComponentPad*%
%ADD20C,1.750000*%
%TD*%
%TA.AperFunction,ComponentPad*%
%ADD21R,2.000000X1.440000*%
%TD*%
%TA.AperFunction,ComponentPad*%
%ADD22O,2.000000X1.440000*%
%TD*%
%TA.AperFunction,ComponentPad*%
%ADD23R,1.905000X2.000000*%
%TD*%
%TA.AperFunction,ComponentPad*%
%ADD24O,1.905000X2.000000*%
%TD*%
%TA.AperFunction,ComponentPad*%
%ADD25C,3.500000*%
%TD*%
%TA.AperFunction,ComponentPad*%
%ADD26R,3.500000X3.500000*%
%TD*%
%TA.AperFunction,ComponentPad*%
%ADD27RoundRect,0.750000X0.750000X1.000000X-0.750000X1.000000X-0.750000X-1.000000X0.750000X-1.000000X0*%
%TD*%
%TA.AperFunction,ComponentPad*%
%ADD28RoundRect,0.875000X0.875000X0.875000X-0.875000X0.875000X-0.875000X-0.875000X0.875000X-0.875000X0*%
%TD*%
%TA.AperFunction,ComponentPad*%
%ADD29R,1.800000X1.800000*%
%TD*%
%TA.AperFunction,ComponentPad*%
%ADD30C,1.800000*%
%TD*%
%TA.AperFunction,ViaPad*%
%ADD31C,0.800000*%
%TD*%
%TA.AperFunction,ViaPad*%
%ADD32C,0.600000*%
%TD*%
%TA.AperFunction,Conductor*%
%ADD33C,0.500000*%
%TD*%
%TA.AperFunction,Conductor*%
%ADD34C,0.300000*%
%TD*%
G04 APERTURE END LIST*
D10*
%TO.P,U10,1,DIR*%
%TO.N,/DMAB*%
X91821000Y-56769000D03*
D11*
%TO.P,U10,2,A1*%
%TO.N,/A8*%
X91821000Y-59309000D03*
%TO.P,U10,3,A2*%
%TO.N,/A9*%
X91821000Y-61849000D03*
%TO.P,U10,4,A3*%
%TO.N,/A10*%
X91821000Y-64389000D03*
%TO.P,U10,5,A4*%
%TO.N,/A11*%
X91821000Y-66929000D03*
%TO.P,U10,6,A5*%
%TO.N,/A12*%
X91821000Y-69469000D03*
%TO.P,U10,7,A6*%
%TO.N,/A13*%
X91821000Y-72009000D03*
%TO.P,U10,8,A7*%
%TO.N,/A14*%
X91821000Y-74549000D03*
%TO.P,U10,9,A8*%
%TO.N,/A15*%
X91821000Y-77089000D03*
%TO.P,U10,10,GND*%
%TO.N,GND*%
X91821000Y-79629000D03*
%TO.P,U10,11,B8*%
%TO.N,Net-(J3-Pad32)*%
X99441000Y-79629000D03*
%TO.P,U10,12,B7*%
%TO.N,Net-(J3-Pad31)*%
X99441000Y-77089000D03*
%TO.P,U10,13,B6*%
%TO.N,Net-(J3-Pad30)*%
X99441000Y-74549000D03*
%TO.P,U10,14,B5*%
%TO.N,Net-(J3-Pad29)*%
X99441000Y-72009000D03*
%TO.P,U10,15,B4*%
%TO.N,Net-(J3-Pad28)*%
X99441000Y-69469000D03*
%TO.P,U10,16,B3*%
%TO.N,Net-(J3-Pad27)*%
X99441000Y-66929000D03*
%TO.P,U10,17,B2*%
%TO.N,Net-(J3-Pad26)*%
X99441000Y-64389000D03*
%TO.P,U10,18,B1*%
%TO.N,Net-(J3-Pad25)*%
X99441000Y-61849000D03*
%TO.P,U10,19,~OE*%
%TO.N,/PORT2B*%
X99441000Y-59309000D03*
%TO.P,U10,20,VCC*%
%TO.N,+5V*%
X99441000Y-56769000D03*
%TD*%
D12*
%TO.P,J5,1,Pin_1*%
%TO.N,PB0*%
X30225000Y-137160000D03*
D13*
%TO.P,J5,2,Pin_2*%
%TO.N,PB1*%
X30225000Y-139700000D03*
%TO.P,J5,3,Pin_3*%
%TO.N,PB2*%
X30225000Y-142240000D03*
%TO.P,J5,4,Pin_4*%
%TO.N,PB3*%
X30225000Y-144780000D03*
%TO.P,J5,5,Pin_5*%
%TO.N,PB4*%
X30225000Y-147320000D03*
%TO.P,J5,6,Pin_6*%
%TO.N,PB5*%
X30225000Y-149860000D03*
%TO.P,J5,7,Pin_7*%
%TO.N,PB6*%
X30225000Y-152400000D03*
%TO.P,J5,8,Pin_8*%
%TO.N,PB7*%
X30225000Y-154940000D03*
%TO.P,J5,9,Pin_9*%
%TO.N,CB1*%
X30225000Y-157480000D03*
%TO.P,J5,10,Pin_10*%
%TO.N,CB2*%
X30225000Y-160020000D03*
%TD*%
D10*
%TO.P,U3,1,GND*%
%TO.N,GND*%
X42925000Y-114300000D03*
D11*
%TO.P,U3,2,PA0*%
%TO.N,PA0*%
X42925000Y-116840000D03*
%TO.P,U3,3,PA1*%
%TO.N,PA1*%
X42925000Y-119380000D03*
%TO.P,U3,4,PA2*%
%TO.N,PA2*%
X42925000Y-121920000D03*
%TO.P,U3,5,PA3*%
%TO.N,PA3*%
X42925000Y-124460000D03*
%TO.P,U3,6,PA4*%
%TO.N,PA4*%
X42925000Y-127000000D03*
%TO.P,U3,7,PA5*%
%TO.N,PA5*%
X42925000Y-129540000D03*
%TO.P,U3,8,PA6*%
%TO.N,PA6*%
X42925000Y-132080000D03*
%TO.P,U3,9,PA7*%
%TO.N,PA7*%
X42925000Y-134620000D03*
%TO.P,U3,10,PB0*%
%TO.N,PB0*%
X42925000Y-137160000D03*
%TO.P,U3,11,PB1*%
%TO.N,PB1*%
X42925000Y-139700000D03*
%TO.P,U3,12,PB2*%
%TO.N,PB2*%
X42925000Y-142240000D03*
%TO.P,U3,13,PB3*%
%TO.N,PB3*%
X42925000Y-144780000D03*
%TO.P,U3,14,PB4*%
%TO.N,PB4*%
X42925000Y-147320000D03*
%TO.P,U3,15,PB5*%
%TO.N,PB5*%
X42925000Y-149860000D03*
%TO.P,U3,16,PB6*%
%TO.N,PB6*%
X42925000Y-152400000D03*
%TO.P,U3,17,PB7*%
%TO.N,PB7*%
X42925000Y-154940000D03*
%TO.P,U3,18,CB1*%
%TO.N,CB1*%
X42925000Y-157480000D03*
%TO.P,U3,19,CB2*%
%TO.N,CB2*%
X42925000Y-160020000D03*
%TO.P,U3,20,VCC*%
%TO.N,+5V*%
X42925000Y-162560000D03*
%TO.P,U3,21,~IRQ*%
%TO.N,/IRQ1B*%
X58165000Y-162560000D03*
%TO.P,U3,22,R/~W*%
%TO.N,/RW*%
X58165000Y-160020000D03*
%TO.P,U3,23,~CS2*%
%TO.N,/IOCSB*%
X58165000Y-157480000D03*
%TO.P,U3,24,CS1*%
%TO.N,+5V*%
X58165000Y-154940000D03*
%TO.P,U3,25,PHI2*%
%TO.N,CLOCK*%
X58165000Y-152400000D03*
%TO.P,U3,26,D7*%
%TO.N,/D7*%
X58165000Y-149860000D03*
%TO.P,U3,27,D6*%
%TO.N,/D6*%
X58165000Y-147320000D03*
%TO.P,U3,28,D5*%
%TO.N,/D5*%
X58165000Y-144780000D03*
%TO.P,U3,29,D4*%
%TO.N,/D4*%
X58165000Y-142240000D03*
%TO.P,U3,30,D3*%
%TO.N,/D3*%
X58165000Y-139700000D03*
%TO.P,U3,31,D2*%
%TO.N,/D2*%
X58165000Y-137160000D03*
%TO.P,U3,32,D1*%
%TO.N,/D1*%
X58165000Y-134620000D03*
%TO.P,U3,33,D0*%
%TO.N,/D0*%
X58165000Y-132080000D03*
%TO.P,U3,34,~RESET*%
%TO.N,RESET*%
X58165000Y-129540000D03*
%TO.P,U3,35,RS3*%
%TO.N,/A3*%
X58165000Y-127000000D03*
%TO.P,U3,36,RS2*%
%TO.N,/A2*%
X58165000Y-124460000D03*
%TO.P,U3,37,RS1*%
%TO.N,/A1*%
X58165000Y-121920000D03*
%TO.P,U3,38,RS0*%
%TO.N,/A0*%
X58165000Y-119380000D03*
%TO.P,U3,39,CA2*%
%TO.N,CA2*%
X58165000Y-116840000D03*
%TO.P,U3,40,CA1*%
%TO.N,CA1*%
X58165000Y-114300000D03*
%TD*%
D10*
%TO.P,U14,1,G1*%
%TO.N,/PORT1B*%
X45678775Y-28829000D03*
D11*
%TO.P,U14,2,A0*%
%TO.N,/A0*%
X45678775Y-31369000D03*
%TO.P,U14,3,A1*%
%TO.N,/A1*%
X45678775Y-33909000D03*
%TO.P,U14,4,A2*%
%TO.N,/A2*%
X45678775Y-36449000D03*
%TO.P,U14,5,A3*%
%TO.N,/A3*%
X45678775Y-38989000D03*
%TO.P,U14,6,A4*%
%TO.N,/A4*%
X45678775Y-41529000D03*
%TO.P,U14,7,A5*%
%TO.N,/A5*%
X45678775Y-44069000D03*
%TO.P,U14,8,A6*%
%TO.N,/A6*%
X45678775Y-46609000D03*
%TO.P,U14,9,A7*%
%TO.N,/A7*%
X45678775Y-49149000D03*
%TO.P,U14,10,GND*%
%TO.N,GND*%
X45678775Y-51689000D03*
%TO.P,U14,11,Y7*%
%TO.N,Net-(J4-Pad24)*%
X53298775Y-51689000D03*
%TO.P,U14,12,Y6*%
%TO.N,Net-(J4-Pad23)*%
X53298775Y-49149000D03*
%TO.P,U14,13,Y5*%
%TO.N,Net-(J4-Pad22)*%
X53298775Y-46609000D03*
%TO.P,U14,14,Y4*%
%TO.N,Net-(J4-Pad21)*%
X53298775Y-44069000D03*
%TO.P,U14,15,Y3*%
%TO.N,Net-(J4-Pad20)*%
X53298775Y-41529000D03*
%TO.P,U14,16,Y2*%
%TO.N,Net-(J4-Pad19)*%
X53298775Y-38989000D03*
%TO.P,U14,17,Y1*%
%TO.N,Net-(J4-Pad18)*%
X53298775Y-36449000D03*
%TO.P,U14,18,Y0*%
%TO.N,Net-(J4-Pad17)*%
X53298775Y-33909000D03*
%TO.P,U14,19,G2*%
%TO.N,/PORT1B*%
X53298775Y-31369000D03*
%TO.P,U14,20,VCC*%
%TO.N,+5V*%
X53298775Y-28829000D03*
%TD*%
D12*
%TO.P,J2,1,Pin_1*%
%TO.N,PA0*%
X30225000Y-109220000D03*
D13*
%TO.P,J2,2,Pin_2*%
%TO.N,PA1*%
X30225000Y-111760000D03*
%TO.P,J2,3,Pin_3*%
%TO.N,PA2*%
X30225000Y-114300000D03*
%TO.P,J2,4,Pin_4*%
%TO.N,PA3*%
X30225000Y-116840000D03*
%TO.P,J2,5,Pin_5*%
%TO.N,PA4*%
X30225000Y-119380000D03*
%TO.P,J2,6,Pin_6*%
%TO.N,PA5*%
X30225000Y-121920000D03*
%TO.P,J2,7,Pin_7*%
%TO.N,PA6*%
X30225000Y-124460000D03*
%TO.P,J2,8,Pin_8*%
%TO.N,PA7*%
X30225000Y-127000000D03*
%TO.P,J2,9,Pin_9*%
%TO.N,CA1*%
X30225000Y-129540000D03*
%TO.P,J2,10,Pin_10*%
%TO.N,CA2*%
X30225000Y-132080000D03*
%TD*%
D10*
%TO.P,U4,1,A14*%
%TO.N,/A14*%
X101600000Y-106680000D03*
D11*
%TO.P,U4,2,A12*%
%TO.N,/A12*%
X101600000Y-109220000D03*
%TO.P,U4,3,A7*%
%TO.N,/A7*%
X101600000Y-111760000D03*
%TO.P,U4,4,A6*%
%TO.N,/A6*%
X101600000Y-114300000D03*
%TO.P,U4,5,A5*%
%TO.N,/A5*%
X101600000Y-116840000D03*
%TO.P,U4,6,A4*%
%TO.N,/A4*%
X101600000Y-119380000D03*
%TO.P,U4,7,A3*%
%TO.N,/A3*%
X101600000Y-121920000D03*
%TO.P,U4,8,A2*%
%TO.N,/A2*%
X101600000Y-124460000D03*
%TO.P,U4,9,A1*%
%TO.N,/A1*%
X101600000Y-127000000D03*
%TO.P,U4,10,A0*%
%TO.N,/A0*%
X101600000Y-129540000D03*
%TO.P,U4,11,Q0*%
%TO.N,/D0*%
X101600000Y-132080000D03*
%TO.P,U4,12,Q1*%
%TO.N,/D1*%
X101600000Y-134620000D03*
%TO.P,U4,13,Q2*%
%TO.N,/D2*%
X101600000Y-137160000D03*
%TO.P,U4,14,GND*%
%TO.N,GND*%
X101600000Y-139700000D03*
%TO.P,U4,15,Q3*%
%TO.N,/D3*%
X116840000Y-139700000D03*
%TO.P,U4,16,Q4*%
%TO.N,/D4*%
X116840000Y-137160000D03*
%TO.P,U4,17,Q5*%
%TO.N,/D5*%
X116840000Y-134620000D03*
%TO.P,U4,18,Q6*%
%TO.N,/D6*%
X116840000Y-132080000D03*
%TO.P,U4,19,Q7*%
%TO.N,/D7*%
X116840000Y-129540000D03*
%TO.P,U4,20,~CS*%
%TO.N,/RAMCSB*%
X116840000Y-127000000D03*
%TO.P,U4,21,A10*%
%TO.N,/A10*%
X116840000Y-124460000D03*
%TO.P,U4,22,~OE*%
%TO.N,GND*%
X116840000Y-121920000D03*
%TO.P,U4,23,A11*%
%TO.N,/A11*%
X116840000Y-119380000D03*
%TO.P,U4,24,A9*%
%TO.N,/A9*%
X116840000Y-116840000D03*
%TO.P,U4,25,A8*%
%TO.N,/A8*%
X116840000Y-114300000D03*
%TO.P,U4,26,A13*%
%TO.N,/A13*%
X116840000Y-111760000D03*
%TO.P,U4,27,~WE*%
%TO.N,/RW*%
X116840000Y-109220000D03*
%TO.P,U4,28,VCC*%
%TO.N,+5V*%
X116840000Y-106680000D03*
%TD*%
D10*
%TO.P,X1,1,NC*%
%TO.N,N/C*%
X58420000Y-178383903D03*
D14*
%TO.P,X1,7,GND*%
%TO.N,GND*%
X73660000Y-178383903D03*
%TO.P,X1,8,OUT*%
%TO.N,Net-(J9-Pad1)*%
X73660000Y-170763903D03*
%TO.P,X1,14,Vcc*%
%TO.N,+5V*%
X58420000Y-170763903D03*
%TD*%
%TO.P,C2,1*%
%TO.N,Net-(C2-Pad1)*%
X133858000Y-55118000D03*
%TO.P,C2,2*%
%TO.N,GND*%
X133858000Y-53118000D03*
%TD*%
%TO.P,C1,1*%
%TO.N,Net-(C1-Pad1)*%
X146163230Y-55082180D03*
%TO.P,C1,2*%
%TO.N,GND*%
X146163230Y-53082180D03*
%TD*%
%TO.P,F2,1*%
%TO.N,Net-(F2-Pad1)*%
X141478000Y-62230000D03*
%TO.P,F2,2*%
%TO.N,Net-(F2-Pad2)*%
X141478000Y-67310000D03*
%TD*%
D15*
%TO.P,H4,1,1*%
%TO.N,GND*%
X163116157Y-180000000D03*
%TD*%
D12*
%TO.P,J11,1,Pin_1*%
%TO.N,/DMAB*%
X85090000Y-127508000D03*
D13*
%TO.P,J11,2,Pin_2*%
%TO.N,Net-(J11-Pad2)*%
X87630000Y-127508000D03*
%TD*%
D14*
%TO.P,R4,1*%
%TO.N,Net-(D1-Pad1)*%
X134738737Y-69140458D03*
D11*
%TO.P,R4,2*%
%TO.N,GND*%
X134738737Y-79300458D03*
%TD*%
D10*
%TO.P,U13,1,G1*%
%TO.N,/PORT1B*%
X45741129Y-56646652D03*
D11*
%TO.P,U13,2,A0*%
%TO.N,/A8*%
X45741129Y-59186652D03*
%TO.P,U13,3,A1*%
%TO.N,/A9*%
X45741129Y-61726652D03*
%TO.P,U13,4,A2*%
%TO.N,/A10*%
X45741129Y-64266652D03*
%TO.P,U13,5,A3*%
%TO.N,/A11*%
X45741129Y-66806652D03*
%TO.P,U13,6,A4*%
%TO.N,/A12*%
X45741129Y-69346652D03*
%TO.P,U13,7,A5*%
%TO.N,/A13*%
X45741129Y-71886652D03*
%TO.P,U13,8,A6*%
%TO.N,/A14*%
X45741129Y-74426652D03*
%TO.P,U13,9,A7*%
%TO.N,/A15*%
X45741129Y-76966652D03*
%TO.P,U13,10,GND*%
%TO.N,GND*%
X45741129Y-79506652D03*
%TO.P,U13,11,Y7*%
%TO.N,Net-(J4-Pad32)*%
X53361129Y-79506652D03*
%TO.P,U13,12,Y6*%
%TO.N,Net-(J4-Pad31)*%
X53361129Y-76966652D03*
%TO.P,U13,13,Y5*%
%TO.N,Net-(J4-Pad30)*%
X53361129Y-74426652D03*
%TO.P,U13,14,Y4*%
%TO.N,Net-(J4-Pad29)*%
X53361129Y-71886652D03*
%TO.P,U13,15,Y3*%
%TO.N,Net-(J4-Pad28)*%
X53361129Y-69346652D03*
%TO.P,U13,16,Y2*%
%TO.N,Net-(J4-Pad27)*%
X53361129Y-66806652D03*
%TO.P,U13,17,Y1*%
%TO.N,Net-(J4-Pad26)*%
X53361129Y-64266652D03*
%TO.P,U13,18,Y0*%
%TO.N,Net-(J4-Pad25)*%
X53361129Y-61726652D03*
%TO.P,U13,19,G2*%
%TO.N,/PORT1B*%
X53361129Y-59186652D03*
%TO.P,U13,20,VCC*%
%TO.N,+5V*%
X53361129Y-56646652D03*
%TD*%
D16*
%TO.P,FB2,1*%
%TO.N,Net-(F2-Pad2)*%
X141478000Y-71374000D03*
D17*
%TO.P,FB2,2*%
%TO.N,Net-(C2-Pad1)*%
X141478000Y-84074000D03*
%TD*%
D16*
%TO.P,SW2,*%
%TO.N,*%
X159794000Y-82772000D03*
X165794000Y-82772000D03*
X159794000Y-70772000D03*
X165794000Y-70772000D03*
D18*
%TO.P,SW2,1,A*%
%TO.N,Net-(C2-Pad1)*%
X161544000Y-80772000D03*
%TO.P,SW2,2,B*%
%TO.N,+5V*%
X161544000Y-76772000D03*
%TO.P,SW2,3*%
%TO.N,N/C*%
X161544000Y-72772000D03*
%TD*%
D12*
%TO.P,J12,1,Pin_1*%
%TO.N,/NMIB*%
X118364000Y-58166000D03*
D13*
%TO.P,J12,2,Pin_2*%
%TO.N,Net-(J12-Pad2)*%
X118364000Y-60706000D03*
%TD*%
D14*
%TO.P,R5,1*%
%TO.N,Net-(R5-Pad1)*%
X84720000Y-114300000D03*
D11*
%TO.P,R5,2*%
%TO.N,/DMAB*%
X84720000Y-124460000D03*
%TD*%
D10*
%TO.P,U11,1,DIR*%
%TO.N,/DMARW*%
X117094000Y-30099000D03*
D11*
%TO.P,U11,2,A1*%
%TO.N,Net-(J3-Pad1)*%
X117094000Y-32639000D03*
%TO.P,U11,3,A2*%
%TO.N,Net-(J3-Pad2)*%
X117094000Y-35179000D03*
%TO.P,U11,4,A3*%
%TO.N,Net-(J3-Pad3)*%
X117094000Y-37719000D03*
%TO.P,U11,5,A4*%
%TO.N,Net-(J3-Pad4)*%
X117094000Y-40259000D03*
%TO.P,U11,6,A5*%
%TO.N,Net-(J3-Pad5)*%
X117094000Y-42799000D03*
%TO.P,U11,7,A6*%
%TO.N,Net-(J3-Pad6)*%
X117094000Y-45339000D03*
%TO.P,U11,8,A7*%
%TO.N,Net-(J3-Pad7)*%
X117094000Y-47879000D03*
%TO.P,U11,9,A8*%
%TO.N,Net-(J3-Pad8)*%
X117094000Y-50419000D03*
%TO.P,U11,10,GND*%
%TO.N,GND*%
X117094000Y-52959000D03*
%TO.P,U11,11,B8*%
%TO.N,/D7*%
X124714000Y-52959000D03*
%TO.P,U11,12,B7*%
%TO.N,/D6*%
X124714000Y-50419000D03*
%TO.P,U11,13,B6*%
%TO.N,/D5*%
X124714000Y-47879000D03*
%TO.P,U11,14,B5*%
%TO.N,/D4*%
X124714000Y-45339000D03*
%TO.P,U11,15,B4*%
%TO.N,/D3*%
X124714000Y-42799000D03*
%TO.P,U11,16,B3*%
%TO.N,/D2*%
X124714000Y-40259000D03*
%TO.P,U11,17,B2*%
%TO.N,/D1*%
X124714000Y-37719000D03*
%TO.P,U11,18,B1*%
%TO.N,/D0*%
X124714000Y-35179000D03*
%TO.P,U11,19,~OE*%
%TO.N,/PORT2B*%
X124714000Y-32639000D03*
%TO.P,U11,20,VCC*%
%TO.N,+5V*%
X124714000Y-30099000D03*
%TD*%
D12*
%TO.P,J3,1,Pin_1*%
%TO.N,Net-(J3-Pad1)*%
X110110000Y-32644000D03*
D13*
%TO.P,J3,2,Pin_2*%
%TO.N,Net-(J3-Pad2)*%
X110110000Y-35184000D03*
%TO.P,J3,3,Pin_3*%
%TO.N,Net-(J3-Pad3)*%
X110110000Y-37724000D03*
%TO.P,J3,4,Pin_4*%
%TO.N,Net-(J3-Pad4)*%
X110110000Y-40264000D03*
%TO.P,J3,5,Pin_5*%
%TO.N,Net-(J3-Pad5)*%
X110110000Y-42804000D03*
%TO.P,J3,6,Pin_6*%
%TO.N,Net-(J3-Pad6)*%
X110110000Y-45344000D03*
%TO.P,J3,7,Pin_7*%
%TO.N,Net-(J3-Pad7)*%
X110110000Y-47884000D03*
%TO.P,J3,8,Pin_8*%
%TO.N,Net-(J3-Pad8)*%
X110110000Y-50424000D03*
%TO.P,J3,9,Pin_9*%
%TO.N,/RW*%
X110110000Y-52964000D03*
%TO.P,J3,10,Pin_10*%
%TO.N,/PORT2B*%
X110110000Y-55504000D03*
%TO.P,J3,11,Pin_11*%
%TO.N,/NMIB*%
X110110000Y-58044000D03*
%TO.P,J3,12,Pin_12*%
%TO.N,CLOCK*%
X110110000Y-60584000D03*
%TO.P,J3,13,Pin_13*%
%TO.N,GND*%
X110110000Y-63124000D03*
%TO.P,J3,14,Pin_14*%
%TO.N,RESET*%
X110110000Y-65664000D03*
%TO.P,J3,15,Pin_15*%
%TO.N,/DMAB*%
X110110000Y-68204000D03*
%TO.P,J3,16,Pin_16*%
%TO.N,+5V*%
X110110000Y-70744000D03*
%TO.P,J3,17,Pin_17*%
%TO.N,Net-(J3-Pad17)*%
X107570000Y-32644000D03*
%TO.P,J3,18,Pin_18*%
%TO.N,Net-(J3-Pad18)*%
X107570000Y-35184000D03*
%TO.P,J3,19,Pin_19*%
%TO.N,Net-(J3-Pad19)*%
X107570000Y-37724000D03*
%TO.P,J3,20,Pin_20*%
%TO.N,Net-(J3-Pad20)*%
X107570000Y-40264000D03*
%TO.P,J3,21,Pin_21*%
%TO.N,Net-(J3-Pad21)*%
X107570000Y-42804000D03*
%TO.P,J3,22,Pin_22*%
%TO.N,Net-(J3-Pad22)*%
X107570000Y-45344000D03*
%TO.P,J3,23,Pin_23*%
%TO.N,Net-(J3-Pad23)*%
X107570000Y-47884000D03*
%TO.P,J3,24,Pin_24*%
%TO.N,Net-(J3-Pad24)*%
X107570000Y-50424000D03*
%TO.P,J3,25,Pin_25*%
%TO.N,Net-(J3-Pad25)*%
X107570000Y-52964000D03*
%TO.P,J3,26,Pin_26*%
%TO.N,Net-(J3-Pad26)*%
X107570000Y-55504000D03*
%TO.P,J3,27,Pin_27*%
%TO.N,Net-(J3-Pad27)*%
X107570000Y-58044000D03*
%TO.P,J3,28,Pin_28*%
%TO.N,Net-(J3-Pad28)*%
X107570000Y-60584000D03*
%TO.P,J3,29,Pin_29*%
%TO.N,Net-(J3-Pad29)*%
X107570000Y-63124000D03*
%TO.P,J3,30,Pin_30*%
%TO.N,Net-(J3-Pad30)*%
X107570000Y-65664000D03*
%TO.P,J3,31,Pin_31*%
%TO.N,Net-(J3-Pad31)*%
X107570000Y-68204000D03*
%TO.P,J3,32,Pin_32*%
%TO.N,Net-(J3-Pad32)*%
X107570000Y-70744000D03*
%TD*%
D19*
%TO.P,SW1,*%
%TO.N,*%
X162102000Y-87904000D03*
X162102000Y-94914000D03*
D20*
%TO.P,SW1,1,1*%
%TO.N,RESET*%
X164592000Y-89154000D03*
%TO.P,SW1,2,2*%
%TO.N,GND*%
X164592000Y-93654000D03*
%TD*%
D10*
%TO.P,U8,1,CLK*%
%TO.N,CLOCK*%
X115824000Y-149860000D03*
D11*
%TO.P,U8,2,I0*%
%TO.N,/A15*%
X115824000Y-152400000D03*
%TO.P,U8,3,I1*%
%TO.N,/A14*%
X115824000Y-154940000D03*
%TO.P,U8,4,I2*%
%TO.N,/A13*%
X115824000Y-157480000D03*
%TO.P,U8,5,I3*%
%TO.N,/A12*%
X115824000Y-160020000D03*
%TO.P,U8,6,I4*%
%TO.N,/A11*%
X115824000Y-162560000D03*
%TO.P,U8,7,I5*%
%TO.N,/A10*%
X115824000Y-165100000D03*
%TO.P,U8,8,I6*%
%TO.N,/A9*%
X115824000Y-167640000D03*
%TO.P,U8,9,I7*%
%TO.N,/A8*%
X115824000Y-170180000D03*
%TO.P,U8,10,I8*%
%TO.N,/RW*%
X115824000Y-172720000D03*
%TO.P,U8,11,I9*%
%TO.N,/DMAB*%
X115824000Y-175260000D03*
%TO.P,U8,12,GND*%
%TO.N,GND*%
X115824000Y-177800000D03*
%TO.P,U8,13,~OE~*%
X123444000Y-177800000D03*
%TO.P,U8,14,O9*%
%TO.N,N/C*%
X123444000Y-175260000D03*
%TO.P,U8,15,O8*%
X123444000Y-172720000D03*
%TO.P,U8,16,O7*%
X123444000Y-170180000D03*
%TO.P,U8,17,O6*%
%TO.N,/DMARW*%
X123444000Y-167640000D03*
%TO.P,U8,18,O5*%
%TO.N,/ROMCSB*%
X123444000Y-165100000D03*
%TO.P,U8,19,O4*%
%TO.N,/RAMCSB*%
X123444000Y-162560000D03*
%TO.P,U8,20,O3*%
%TO.N,Net-(U7-Pad1)*%
X123444000Y-160020000D03*
%TO.P,U8,21,O2*%
%TO.N,/PORT2B*%
X123444000Y-157480000D03*
%TO.P,U8,22,O1*%
%TO.N,/PORT1B*%
X123444000Y-154940000D03*
%TO.P,U8,23,O0*%
%TO.N,/IOCSB*%
X123444000Y-152400000D03*
%TO.P,U8,24,VCC*%
%TO.N,+5V*%
X123444000Y-149860000D03*
%TD*%
D12*
%TO.P,J6,1,Pin_1*%
%TO.N,RESET*%
X86310000Y-179044000D03*
D13*
%TO.P,J6,2,Pin_2*%
%TO.N,ECLOCK*%
X83770000Y-179044000D03*
%TO.P,J6,3,Pin_3*%
%TO.N,GND*%
X81230000Y-179044000D03*
%TO.P,J6,4,Pin_4*%
%TO.N,+5V*%
X78690000Y-179044000D03*
%TD*%
D21*
%TO.P,U2,1,A14*%
%TO.N,/A14*%
X127254000Y-106680000D03*
D22*
%TO.P,U2,2,A12*%
%TO.N,/A12*%
X127254000Y-109220000D03*
%TO.P,U2,3,A7*%
%TO.N,/A7*%
X127254000Y-111760000D03*
%TO.P,U2,4,A6*%
%TO.N,/A6*%
X127254000Y-114300000D03*
%TO.P,U2,5,A5*%
%TO.N,/A5*%
X127254000Y-116840000D03*
%TO.P,U2,6,A4*%
%TO.N,/A4*%
X127254000Y-119380000D03*
%TO.P,U2,7,A3*%
%TO.N,/A3*%
X127254000Y-121920000D03*
%TO.P,U2,8,A2*%
%TO.N,/A2*%
X127254000Y-124460000D03*
%TO.P,U2,9,A1*%
%TO.N,/A1*%
X127254000Y-127000000D03*
%TO.P,U2,10,A0*%
%TO.N,/A0*%
X127254000Y-129540000D03*
%TO.P,U2,11,D0*%
%TO.N,/D0*%
X127254000Y-132080000D03*
%TO.P,U2,12,D1*%
%TO.N,/D1*%
X127254000Y-134620000D03*
%TO.P,U2,13,D2*%
%TO.N,/D2*%
X127254000Y-137160000D03*
%TO.P,U2,14,GND*%
%TO.N,GND*%
X127254000Y-139700000D03*
%TO.P,U2,15,D3*%
%TO.N,/D3*%
X142494000Y-139700000D03*
%TO.P,U2,16,D4*%
%TO.N,/D4*%
X142494000Y-137160000D03*
%TO.P,U2,17,D5*%
%TO.N,/D5*%
X142494000Y-134620000D03*
%TO.P,U2,18,D6*%
%TO.N,/D6*%
X142494000Y-132080000D03*
%TO.P,U2,19,D7*%
%TO.N,/D7*%
X142494000Y-129540000D03*
%TO.P,U2,20,~CS*%
%TO.N,/ROMCSB*%
X142494000Y-127000000D03*
%TO.P,U2,21,A10*%
%TO.N,/A10*%
X142494000Y-124460000D03*
%TO.P,U2,22,~OE*%
%TO.N,GND*%
X142494000Y-121920000D03*
%TO.P,U2,23,A11*%
%TO.N,/A11*%
X142494000Y-119380000D03*
%TO.P,U2,24,A9*%
%TO.N,/A9*%
X142494000Y-116840000D03*
%TO.P,U2,25,A8*%
%TO.N,/A8*%
X142494000Y-114300000D03*
%TO.P,U2,26,A13*%
%TO.N,/A13*%
X142494000Y-111760000D03*
%TO.P,U2,27,~WE*%
%TO.N,+5V*%
X142494000Y-109220000D03*
%TO.P,U2,28,VCC*%
X142494000Y-106680000D03*
%TD*%
D14*
%TO.P,C6,1*%
%TO.N,+5V*%
X149098000Y-106680000D03*
%TO.P,C6,2*%
%TO.N,GND*%
X149098000Y-104180000D03*
%TD*%
D15*
%TO.P,H3,1,1*%
%TO.N,GND*%
X28116157Y-180000000D03*
%TD*%
D14*
%TO.P,C5,1*%
%TO.N,+5V*%
X40148000Y-162560000D03*
%TO.P,C5,2*%
%TO.N,GND*%
X40148000Y-165060000D03*
%TD*%
D23*
%TO.P,U1,1,GND*%
%TO.N,GND*%
X137281817Y-48628617D03*
D24*
%TO.P,U1,2,VO*%
%TO.N,Net-(C2-Pad1)*%
X139821817Y-48628617D03*
%TO.P,U1,3,VI*%
%TO.N,Net-(C1-Pad1)*%
X142361817Y-48628617D03*
%TD*%
D12*
%TO.P,J4,1,Pin_1*%
%TO.N,Net-(J4-Pad1)*%
X63410000Y-32644000D03*
D13*
%TO.P,J4,2,Pin_2*%
%TO.N,Net-(J4-Pad2)*%
X63410000Y-35184000D03*
%TO.P,J4,3,Pin_3*%
%TO.N,Net-(J4-Pad3)*%
X63410000Y-37724000D03*
%TO.P,J4,4,Pin_4*%
%TO.N,Net-(J4-Pad4)*%
X63410000Y-40264000D03*
%TO.P,J4,5,Pin_5*%
%TO.N,Net-(J4-Pad5)*%
X63410000Y-42804000D03*
%TO.P,J4,6,Pin_6*%
%TO.N,Net-(J4-Pad6)*%
X63410000Y-45344000D03*
%TO.P,J4,7,Pin_7*%
%TO.N,Net-(J4-Pad7)*%
X63410000Y-47884000D03*
%TO.P,J4,8,Pin_8*%
%TO.N,Net-(J4-Pad8)*%
X63410000Y-50424000D03*
%TO.P,J4,9,Pin_9*%
%TO.N,/RW*%
X63410000Y-52964000D03*
%TO.P,J4,10,Pin_10*%
%TO.N,/PORT1B*%
X63410000Y-55504000D03*
%TO.P,J4,11,Pin_11*%
%TO.N,/IRQ0B*%
X63410000Y-58044000D03*
%TO.P,J4,12,Pin_12*%
%TO.N,CLOCK*%
X63410000Y-60584000D03*
%TO.P,J4,13,Pin_13*%
%TO.N,GND*%
X63410000Y-63124000D03*
%TO.P,J4,14,Pin_14*%
%TO.N,RESET*%
X63410000Y-65664000D03*
%TO.P,J4,15,Pin_15*%
%TO.N,GND*%
X63410000Y-68204000D03*
%TO.P,J4,16,Pin_16*%
%TO.N,+5V*%
X63410000Y-70744000D03*
%TO.P,J4,17,Pin_17*%
%TO.N,Net-(J4-Pad17)*%
X60870000Y-32644000D03*
%TO.P,J4,18,Pin_18*%
%TO.N,Net-(J4-Pad18)*%
X60870000Y-35184000D03*
%TO.P,J4,19,Pin_19*%
%TO.N,Net-(J4-Pad19)*%
X60870000Y-37724000D03*
%TO.P,J4,20,Pin_20*%
%TO.N,Net-(J4-Pad20)*%
X60870000Y-40264000D03*
%TO.P,J4,21,Pin_21*%
%TO.N,Net-(J4-Pad21)*%
X60870000Y-42804000D03*
%TO.P,J4,22,Pin_22*%
%TO.N,Net-(J4-Pad22)*%
X60870000Y-45344000D03*
%TO.P,J4,23,Pin_23*%
%TO.N,Net-(J4-Pad23)*%
X60870000Y-47884000D03*
%TO.P,J4,24,Pin_24*%
%TO.N,Net-(J4-Pad24)*%
X60870000Y-50424000D03*
%TO.P,J4,25,Pin_25*%
%TO.N,Net-(J4-Pad25)*%
X60870000Y-52964000D03*
%TO.P,J4,26,Pin_26*%
%TO.N,Net-(J4-Pad26)*%
X60870000Y-55504000D03*
%TO.P,J4,27,Pin_27*%
%TO.N,Net-(J4-Pad27)*%
X60870000Y-58044000D03*
%TO.P,J4,28,Pin_28*%
%TO.N,Net-(J4-Pad28)*%
X60870000Y-60584000D03*
%TO.P,J4,29,Pin_29*%
%TO.N,Net-(J4-Pad29)*%
X60870000Y-63124000D03*
%TO.P,J4,30,Pin_30*%
%TO.N,Net-(J4-Pad30)*%
X60870000Y-65664000D03*
%TO.P,J4,31,Pin_31*%
%TO.N,Net-(J4-Pad31)*%
X60870000Y-68204000D03*
%TO.P,J4,32,Pin_32*%
%TO.N,Net-(J4-Pad32)*%
X60870000Y-70744000D03*
%TD*%
D16*
%TO.P,FB1,1*%
%TO.N,Net-(F1-Pad2)*%
X147574000Y-71374000D03*
D17*
%TO.P,FB1,2*%
%TO.N,Net-(C1-Pad1)*%
X147574000Y-84074000D03*
%TD*%
D14*
%TO.P,C8,1*%
%TO.N,RESET*%
X81245260Y-110980121D03*
%TO.P,C8,2*%
%TO.N,GND*%
X86245260Y-110980121D03*
%TD*%
%TO.P,C7,1*%
%TO.N,+5V*%
X119651000Y-106680000D03*
%TO.P,C7,2*%
%TO.N,GND*%
X119651000Y-104180000D03*
%TD*%
D12*
%TO.P,J13,1,VBUS*%
%TO.N,Net-(F2-Pad1)*%
X153162000Y-44450000D03*
D18*
%TO.P,J13,2,D-*%
%TO.N,N/C*%
X153162000Y-46950000D03*
%TO.P,J13,3,D+*%
X155162000Y-46950000D03*
%TO.P,J13,4,GND*%
%TO.N,GND*%
X155162000Y-44450000D03*
D25*
%TO.P,J13,5,Shield*%
%TO.N,no_connect_129*%
X157872000Y-39680000D03*
X157872000Y-51720000D03*
%TD*%
D14*
%TO.P,F1,1*%
%TO.N,Net-(F1-Pad1)*%
X147574000Y-62230000D03*
%TO.P,F1,2*%
%TO.N,Net-(F1-Pad2)*%
X147574000Y-67310000D03*
%TD*%
D15*
%TO.P,H2,1,1*%
%TO.N,GND*%
X28116157Y-30000000D03*
%TD*%
D14*
%TO.P,C4,1*%
%TO.N,+5V*%
X63263000Y-131844000D03*
%TO.P,C4,2*%
%TO.N,GND*%
X63263000Y-134344000D03*
%TD*%
D26*
%TO.P,J1,1*%
%TO.N,Net-(F1-Pad1)*%
X154686000Y-62230000D03*
D27*
%TO.P,J1,2*%
%TO.N,GND*%
X160686000Y-62230000D03*
D28*
%TO.P,J1,3*%
%TO.N,N/C*%
X157686000Y-57530000D03*
%TD*%
D29*
%TO.P,D1,1,K*%
%TO.N,Net-(D1-Pad1)*%
X134620000Y-64008000D03*
D30*
%TO.P,D1,2,A*%
%TO.N,+5V*%
X132080000Y-64008000D03*
%TD*%
D14*
%TO.P,R6,1*%
%TO.N,Net-(J14-Pad2)*%
X72898000Y-64324359D03*
D11*
%TO.P,R6,2*%
%TO.N,+5V*%
X72898000Y-74484359D03*
%TD*%
D12*
%TO.P,J10,1,Pin_1*%
%TO.N,+5V*%
X30225000Y-101600000D03*
D13*
%TO.P,J10,2,Pin_2*%
%TO.N,GND*%
X30225000Y-104140000D03*
%TD*%
D10*
%TO.P,U12,1,DIR*%
%TO.N,/RW*%
X70359853Y-30083285D03*
D11*
%TO.P,U12,2,A1*%
%TO.N,Net-(J4-Pad1)*%
X70359853Y-32623285D03*
%TO.P,U12,3,A2*%
%TO.N,Net-(J4-Pad2)*%
X70359853Y-35163285D03*
%TO.P,U12,4,A3*%
%TO.N,Net-(J4-Pad3)*%
X70359853Y-37703285D03*
%TO.P,U12,5,A4*%
%TO.N,Net-(J4-Pad4)*%
X70359853Y-40243285D03*
%TO.P,U12,6,A5*%
%TO.N,Net-(J4-Pad5)*%
X70359853Y-42783285D03*
%TO.P,U12,7,A6*%
%TO.N,Net-(J4-Pad6)*%
X70359853Y-45323285D03*
%TO.P,U12,8,A7*%
%TO.N,Net-(J4-Pad7)*%
X70359853Y-47863285D03*
%TO.P,U12,9,A8*%
%TO.N,Net-(J4-Pad8)*%
X70359853Y-50403285D03*
%TO.P,U12,10,GND*%
%TO.N,GND*%
X70359853Y-52943285D03*
%TO.P,U12,11,B8*%
%TO.N,/D7*%
X77979853Y-52943285D03*
%TO.P,U12,12,B7*%
%TO.N,/D6*%
X77979853Y-50403285D03*
%TO.P,U12,13,B6*%
%TO.N,/D5*%
X77979853Y-47863285D03*
%TO.P,U12,14,B5*%
%TO.N,/D4*%
X77979853Y-45323285D03*
%TO.P,U12,15,B4*%
%TO.N,/D3*%
X77979853Y-42783285D03*
%TO.P,U12,16,B3*%
%TO.N,/D2*%
X77979853Y-40243285D03*
%TO.P,U12,17,B2*%
%TO.N,/D1*%
X77979853Y-37703285D03*
%TO.P,U12,18,B1*%
%TO.N,/D0*%
X77979853Y-35163285D03*
%TO.P,U12,19,~OE*%
%TO.N,/PORT1B*%
X77979853Y-32623285D03*
%TO.P,U12,20,VCC*%
%TO.N,+5V*%
X77979853Y-30083285D03*
%TD*%
D14*
%TO.P,R2,1*%
%TO.N,+5V*%
X88016423Y-114366561D03*
D11*
%TO.P,R2,2*%
%TO.N,Net-(R2-Pad2)*%
X88016423Y-124526561D03*
%TD*%
D15*
%TO.P,H1,1,1*%
%TO.N,GND*%
X163116157Y-30000000D03*
%TD*%
D14*
%TO.P,R7,1*%
%TO.N,+5V*%
X79248000Y-104394000D03*
D11*
%TO.P,R7,2*%
%TO.N,Net-(J11-Pad2)*%
X89408000Y-104394000D03*
%TD*%
D10*
%TO.P,U9,1,DIR*%
%TO.N,/DMAB*%
X91821000Y-28829000D03*
D11*
%TO.P,U9,2,A1*%
%TO.N,/A0*%
X91821000Y-31369000D03*
%TO.P,U9,3,A2*%
%TO.N,/A1*%
X91821000Y-33909000D03*
%TO.P,U9,4,A3*%
%TO.N,/A2*%
X91821000Y-36449000D03*
%TO.P,U9,5,A4*%
%TO.N,/A3*%
X91821000Y-38989000D03*
%TO.P,U9,6,A5*%
%TO.N,/A4*%
X91821000Y-41529000D03*
%TO.P,U9,7,A6*%
%TO.N,/A5*%
X91821000Y-44069000D03*
%TO.P,U9,8,A7*%
%TO.N,/A6*%
X91821000Y-46609000D03*
%TO.P,U9,9,A8*%
%TO.N,/A7*%
X91821000Y-49149000D03*
%TO.P,U9,10,GND*%
%TO.N,GND*%
X91821000Y-51689000D03*
%TO.P,U9,11,B8*%
%TO.N,Net-(J3-Pad24)*%
X99441000Y-51689000D03*
%TO.P,U9,12,B7*%
%TO.N,Net-(J3-Pad23)*%
X99441000Y-49149000D03*
%TO.P,U9,13,B6*%
%TO.N,Net-(J3-Pad22)*%
X99441000Y-46609000D03*
%TO.P,U9,14,B5*%
%TO.N,Net-(J3-Pad21)*%
X99441000Y-44069000D03*
%TO.P,U9,15,B4*%
%TO.N,Net-(J3-Pad20)*%
X99441000Y-41529000D03*
%TO.P,U9,16,B3*%
%TO.N,Net-(J3-Pad19)*%
X99441000Y-38989000D03*
%TO.P,U9,17,B2*%
%TO.N,Net-(J3-Pad18)*%
X99441000Y-36449000D03*
%TO.P,U9,18,B1*%
%TO.N,Net-(J3-Pad17)*%
X99441000Y-33909000D03*
%TO.P,U9,19,~OE*%
%TO.N,/PORT2B*%
X99441000Y-31369000D03*
%TO.P,U9,20,VCC*%
%TO.N,+5V*%
X99441000Y-28829000D03*
%TD*%
D12*
%TO.P,J9,1,Pin_1*%
%TO.N,Net-(J9-Pad1)*%
X78740000Y-170873112D03*
D13*
%TO.P,J9,2,Pin_2*%
%TO.N,CLOCK*%
X81280000Y-170873112D03*
%TO.P,J9,3,Pin_3*%
%TO.N,ECLOCK*%
X78740000Y-173413112D03*
%TO.P,J9,4,Pin_4*%
%TO.N,CLOCK*%
X81280000Y-173413112D03*
%TD*%
D12*
%TO.P,J14,1,Pin_1*%
%TO.N,/IRQ0B*%
X72898000Y-58166000D03*
D13*
%TO.P,J14,2,Pin_2*%
%TO.N,Net-(J14-Pad2)*%
X72898000Y-60706000D03*
%TD*%
D14*
%TO.P,C3,1*%
%TO.N,+5V*%
X63310000Y-111326341D03*
%TO.P,C3,2*%
%TO.N,GND*%
X61310000Y-111326341D03*
%TD*%
%TO.P,R1,1*%
%TO.N,Net-(J12-Pad2)*%
X118364000Y-64383133D03*
D11*
%TO.P,R1,2*%
%TO.N,+5V*%
X118364000Y-74543133D03*
%TD*%
D14*
%TO.P,R3,1*%
%TO.N,+5V*%
X89408000Y-107722911D03*
D11*
%TO.P,R3,2*%
%TO.N,RESET*%
X79248000Y-107722911D03*
%TD*%
D14*
%TO.P,C9,1*%
%TO.N,+5V*%
X126884034Y-149786695D03*
%TO.P,C9,2*%
%TO.N,GND*%
X126884034Y-154786695D03*
%TD*%
D10*
%TO.P,U5,1,~VP*%
%TO.N,N/C*%
X66040000Y-114300000D03*
D11*
%TO.P,U5,2,RDY*%
%TO.N,Net-(R5-Pad1)*%
X66040000Y-116840000D03*
%TO.P,U5,3,PHI1out*%
%TO.N,N/C*%
X66040000Y-119380000D03*
%TO.P,U5,4,~IRQ*%
%TO.N,/IRQB*%
X66040000Y-121920000D03*
%TO.P,U5,5,~ML*%
%TO.N,N/C*%
X66040000Y-124460000D03*
%TO.P,U5,6,~NMI*%
%TO.N,/NMIB*%
X66040000Y-127000000D03*
%TO.P,U5,7,SYNC*%
%TO.N,N/C*%
X66040000Y-129540000D03*
%TO.P,U5,8,VCC*%
%TO.N,+5V*%
X66040000Y-132080000D03*
%TO.P,U5,9,A0*%
%TO.N,/A0*%
X66040000Y-134620000D03*
%TO.P,U5,10,A1*%
%TO.N,/A1*%
X66040000Y-137160000D03*
%TO.P,U5,11,A2*%
%TO.N,/A2*%
X66040000Y-139700000D03*
%TO.P,U5,12,A3*%
%TO.N,/A3*%
X66040000Y-142240000D03*
%TO.P,U5,13,A4*%
%TO.N,/A4*%
X66040000Y-144780000D03*
%TO.P,U5,14,A5*%
%TO.N,/A5*%
X66040000Y-147320000D03*
%TO.P,U5,15,A6*%
%TO.N,/A6*%
X66040000Y-149860000D03*
%TO.P,U5,16,A7*%
%TO.N,/A7*%
X66040000Y-152400000D03*
%TO.P,U5,17,A8*%
%TO.N,/A8*%
X66040000Y-154940000D03*
%TO.P,U5,18,A9*%
%TO.N,/A9*%
X66040000Y-157480000D03*
%TO.P,U5,19,A10*%
%TO.N,/A10*%
X66040000Y-160020000D03*
%TO.P,U5,20,A11*%
%TO.N,/A11*%
X66040000Y-162560000D03*
%TO.P,U5,21,GND*%
%TO.N,GND*%
X81280000Y-162560000D03*
%TO.P,U5,22,A12*%
%TO.N,/A12*%
X81280000Y-160020000D03*
%TO.P,U5,23,A13*%
%TO.N,/A13*%
X81280000Y-157480000D03*
%TO.P,U5,24,A14*%
%TO.N,/A14*%
X81280000Y-154940000D03*
%TO.P,U5,25,A15*%
%TO.N,/A15*%
X81280000Y-152400000D03*
%TO.P,U5,26,D7*%
%TO.N,/D7*%
X81280000Y-149860000D03*
%TO.P,U5,27,D6*%
%TO.N,/D6*%
X81280000Y-147320000D03*
%TO.P,U5,28,D5*%
%TO.N,/D5*%
X81280000Y-144780000D03*
%TO.P,U5,29,D4*%
%TO.N,/D4*%
X81280000Y-142240000D03*
%TO.P,U5,30,D3*%
%TO.N,/D3*%
X81280000Y-139700000D03*
%TO.P,U5,31,D2*%
%TO.N,/D2*%
X81280000Y-137160000D03*
%TO.P,U5,32,D1*%
%TO.N,/D1*%
X81280000Y-134620000D03*
%TO.P,U5,33,D0*%
%TO.N,/D0*%
X81280000Y-132080000D03*
%TO.P,U5,34,R/~W*%
%TO.N,/RW*%
X81280000Y-129540000D03*
%TO.P,U5,35,NC*%
%TO.N,N/C*%
X81280000Y-127000000D03*
%TO.P,U5,36,BE*%
%TO.N,/DMAB*%
X81280000Y-124460000D03*
%TO.P,U5,37,PHI2*%
%TO.N,CLOCK*%
X81280000Y-121920000D03*
%TO.P,U5,38,~SO*%
%TO.N,Net-(R2-Pad2)*%
X81280000Y-119380000D03*
%TO.P,U5,39,PHI2out*%
%TO.N,N/C*%
X81280000Y-116840000D03*
%TO.P,U5,40,~RESET*%
%TO.N,RESET*%
X81280000Y-114300000D03*
%TD*%
D10*
%TO.P,U7,1,OE*%
%TO.N,Net-(U7-Pad1)*%
X130048000Y-149860000D03*
D11*
%TO.P,U7,2,D0*%
%TO.N,GND*%
X130048000Y-152400000D03*
%TO.P,U7,3,D1*%
%TO.N,Net-(U6-Pad9)*%
X130048000Y-154940000D03*
%TO.P,U7,4,D2*%
%TO.N,Net-(U6-Pad7)*%
X130048000Y-157480000D03*
%TO.P,U7,5,D3*%
%TO.N,Net-(U6-Pad6)*%
X130048000Y-160020000D03*
%TO.P,U7,6,D4*%
%TO.N,GND*%
X130048000Y-162560000D03*
%TO.P,U7,7,D5*%
X130048000Y-165100000D03*
%TO.P,U7,8,D6*%
X130048000Y-167640000D03*
%TO.P,U7,9,D7*%
X130048000Y-170180000D03*
%TO.P,U7,10,GND*%
X130048000Y-172720000D03*
%TO.P,U7,11,Cp*%
%TO.N,CLOCK*%
X137668000Y-172720000D03*
%TO.P,U7,12,Q7*%
%TO.N,/D7*%
X137668000Y-170180000D03*
%TO.P,U7,13,Q6*%
%TO.N,/D6*%
X137668000Y-167640000D03*
%TO.P,U7,14,Q5*%
%TO.N,/D5*%
X137668000Y-165100000D03*
%TO.P,U7,15,Q4*%
%TO.N,/D4*%
X137668000Y-162560000D03*
%TO.P,U7,16,Q3*%
%TO.N,/D3*%
X137668000Y-160020000D03*
%TO.P,U7,17,Q2*%
%TO.N,/D2*%
X137668000Y-157480000D03*
%TO.P,U7,18,Q1*%
%TO.N,/D1*%
X137668000Y-154940000D03*
%TO.P,U7,19,Q0*%
%TO.N,/D0*%
X137668000Y-152400000D03*
%TO.P,U7,20,VCC*%
%TO.N,+5V*%
X137668000Y-149860000D03*
%TD*%
D10*
%TO.P,U6,1,I4*%
%TO.N,+5V*%
X144201570Y-149860000D03*
D11*
%TO.P,U6,2,I5*%
X144201570Y-152400000D03*
%TO.P,U6,3,I6*%
%TO.N,/IRQ1B*%
X144201570Y-154940000D03*
%TO.P,U6,4,I7*%
%TO.N,/IRQ0B*%
X144201570Y-157480000D03*
%TO.P,U6,5,EI*%
%TO.N,GND*%
X144201570Y-160020000D03*
%TO.P,U6,6,S2*%
%TO.N,Net-(U6-Pad6)*%
X144201570Y-162560000D03*
%TO.P,U6,7,S1*%
%TO.N,Net-(U6-Pad7)*%
X144201570Y-165100000D03*
%TO.P,U6,8,GND*%
%TO.N,GND*%
X144201570Y-167640000D03*
%TO.P,U6,9,S0*%
%TO.N,Net-(U6-Pad9)*%
X151821570Y-167640000D03*
%TO.P,U6,10,IO*%
%TO.N,+5V*%
X151821570Y-165100000D03*
%TO.P,U6,11,I1*%
X151821570Y-162560000D03*
%TO.P,U6,12,I2*%
X151821570Y-160020000D03*
%TO.P,U6,13,I3*%
X151821570Y-157480000D03*
%TO.P,U6,14,GS*%
%TO.N,/IRQB*%
X151821570Y-154940000D03*
%TO.P,U6,15,EO*%
%TO.N,N/C*%
X151821570Y-152400000D03*
%TO.P,U6,16,VCC*%
%TO.N,+5V*%
X151821570Y-149860000D03*
%TD*%
D31*
%TO.N,+5V*%
X66592000Y-102362000D03*
D32*
%TO.N,/A15*%
X76410000Y-77044000D03*
X75910000Y-88644000D03*
X44410000Y-88644000D03*
X98010000Y-152400000D03*
X98044000Y-88644000D03*
%TO.N,/RW*%
X115610000Y-81044000D03*
X91010000Y-169418000D03*
X91010000Y-129544000D03*
X91010000Y-81026000D03*
X49828000Y-81026000D03*
X62128000Y-81026000D03*
%TO.N,CA2*%
X45974000Y-116840000D03*
%TO.N,CA1*%
X44958000Y-114300000D03*
%TO.N,RESET*%
X56642000Y-115570000D03*
X56641000Y-129540000D03*
X78695000Y-65659000D03*
X122174000Y-66802000D03*
%TO.N,/D7*%
X97282000Y-149860000D03*
X26162000Y-52959000D03*
X26162000Y-82550000D03*
X97282000Y-82550000D03*
X97282000Y-128270000D03*
X139192000Y-128270000D03*
X50560000Y-149860000D03*
X50560000Y-82550000D03*
%TO.N,/D6*%
X51322000Y-83312000D03*
X131826000Y-130810000D03*
X26924000Y-50419000D03*
X51322000Y-147320000D03*
X96520000Y-83312000D03*
X96520000Y-147320000D03*
X26924000Y-83312000D03*
X96520000Y-130810000D03*
%TO.N,/D5*%
X95758000Y-144780000D03*
X52070000Y-84074000D03*
X132588000Y-133350000D03*
X95758000Y-84074000D03*
X28448000Y-84074000D03*
X52068000Y-144796000D03*
X95758000Y-133350000D03*
X28448000Y-47879000D03*
%TO.N,/D4*%
X52832000Y-84836000D03*
X52830000Y-142256000D03*
X133350000Y-135890000D03*
X94996000Y-84836000D03*
X94996000Y-142240000D03*
X29972000Y-84836000D03*
X94996000Y-135890000D03*
X29972000Y-45339000D03*
%TO.N,/D3*%
X94234000Y-85598000D03*
X31496000Y-85598000D03*
X31496000Y-42799000D03*
X134112000Y-138430000D03*
X53594000Y-85598000D03*
X53592000Y-139716000D03*
X94234000Y-139700000D03*
%TO.N,/D2*%
X93472000Y-137160000D03*
X32974779Y-40259000D03*
X54354000Y-137160000D03*
X93472000Y-86360000D03*
X134874000Y-137160000D03*
X33020000Y-86360000D03*
X54356000Y-86360000D03*
%TO.N,/D1*%
X55117000Y-134620000D03*
X92710000Y-134620000D03*
X92710000Y-87122000D03*
X135636000Y-134620000D03*
X34544000Y-37592000D03*
X34544000Y-87122000D03*
X55118000Y-87122000D03*
%TO.N,/D0*%
X36068000Y-87884000D03*
X136398000Y-132080000D03*
X36068000Y-35179000D03*
X91948000Y-132080000D03*
X55878000Y-132096000D03*
X55880000Y-87884000D03*
X91948000Y-87884000D03*
%TO.N,/A14*%
X43688000Y-74422000D03*
X110744000Y-106680000D03*
X90170000Y-74564715D03*
X110744000Y-100076000D03*
X90170000Y-100076000D03*
X43688000Y-100076000D03*
X110744000Y-154940000D03*
%TO.N,/A13*%
X109220000Y-99314000D03*
X42926000Y-99314000D03*
X109220000Y-110744000D03*
X109220000Y-157480000D03*
X89408000Y-99314000D03*
X89408000Y-72024715D03*
X42926000Y-71882000D03*
%TO.N,/A12*%
X88646000Y-98552000D03*
X109982000Y-109220000D03*
X42164000Y-98552000D03*
X88646000Y-69357715D03*
X42164000Y-69342000D03*
X109982000Y-98552000D03*
X109982000Y-160020000D03*
%TO.N,/A11*%
X87884000Y-97790000D03*
X68834000Y-162560000D03*
X41402000Y-66802000D03*
X114046000Y-119380000D03*
X41402000Y-97790000D03*
X87884000Y-66817715D03*
X114046000Y-97790000D03*
X68834000Y-97790000D03*
%TO.N,/A10*%
X69596000Y-97028000D03*
X69596000Y-160020000D03*
X114808000Y-97028000D03*
X87122000Y-64277715D03*
X87122000Y-97028000D03*
X40640000Y-64262000D03*
X40640000Y-97028000D03*
X114808000Y-124460000D03*
%TO.N,/A9*%
X113284000Y-116840000D03*
X86360000Y-61849000D03*
X70358000Y-96266000D03*
X39878000Y-96266000D03*
X86360000Y-96266000D03*
X39878000Y-61849000D03*
X70358000Y-157480000D03*
X113284000Y-96266000D03*
%TO.N,/A8*%
X71120000Y-95504000D03*
X112522000Y-95504000D03*
X85598000Y-95504000D03*
X85598000Y-59309000D03*
X112522000Y-114300000D03*
X39116000Y-95504000D03*
X71120000Y-154940000D03*
X39116000Y-59309000D03*
%TO.N,/A7*%
X71882000Y-94742000D03*
X79502000Y-94742000D03*
X79502000Y-49164715D03*
X27686000Y-94742000D03*
X108458000Y-94742000D03*
X27686000Y-49149000D03*
X71882000Y-152400000D03*
X108458000Y-111760000D03*
%TO.N,/A6*%
X107696000Y-114300000D03*
X72644000Y-149860000D03*
X107696000Y-93980000D03*
X80264000Y-46609000D03*
X29210000Y-93980000D03*
X72644000Y-93980000D03*
X80264000Y-93980000D03*
X29210000Y-46609000D03*
%TO.N,/A5*%
X81026000Y-93218000D03*
X30734000Y-93218000D03*
X106934000Y-93218000D03*
X73406000Y-93218000D03*
X30734000Y-44069000D03*
X81026000Y-44084715D03*
X106934000Y-116840000D03*
X73406000Y-147320000D03*
%TO.N,/A4*%
X74168000Y-92456000D03*
X106172000Y-92456000D03*
X32258000Y-92456000D03*
X81788000Y-92456000D03*
X81788000Y-41529000D03*
X106172000Y-119380000D03*
X74100000Y-144830000D03*
X32258000Y-41529000D03*
%TO.N,/A3*%
X49037000Y-127000000D03*
X82550000Y-38989000D03*
X33782000Y-38862000D03*
X49022000Y-91694000D03*
X33782000Y-91694000D03*
X74930000Y-142240000D03*
X74930000Y-91738000D03*
X82550000Y-91694000D03*
X105410000Y-91694000D03*
X105410000Y-121920000D03*
%TO.N,/A2*%
X35306000Y-36449000D03*
X104648000Y-90932000D03*
X83312000Y-36449000D03*
X104648000Y-124460000D03*
X35306000Y-90932000D03*
X75692000Y-90932000D03*
X83312000Y-90932000D03*
X48275000Y-124460000D03*
X48260000Y-90932000D03*
X75692000Y-139700000D03*
%TO.N,/A1*%
X103886000Y-127000000D03*
X84074000Y-90170000D03*
X47513000Y-121920000D03*
X103886000Y-90170000D03*
X36830000Y-90170000D03*
X84074000Y-33909000D03*
X76454000Y-90170000D03*
X76454000Y-137160000D03*
X47498000Y-90170000D03*
X36784779Y-33909000D03*
%TO.N,/A0*%
X77216000Y-134620000D03*
X46735000Y-119396000D03*
X37592000Y-89408000D03*
X84836000Y-89408000D03*
X103124000Y-89408000D03*
X37546779Y-31369000D03*
X77216000Y-89408000D03*
X84836000Y-31242000D03*
X103124000Y-129540000D03*
X46736000Y-89408000D03*
%TO.N,/ROMCSB*%
X131064000Y-127000000D03*
%TO.N,/RAMCSB*%
X123190000Y-125984000D03*
%TO.N,/IRQ0B*%
X67310000Y-101600000D03*
X139827000Y-101600000D03*
%TO.N,/IRQ1B*%
X148082000Y-168910000D03*
%TO.N,/IRQB*%
X67310000Y-165862000D03*
%TO.N,/PORT1B*%
X38354000Y-56642000D03*
X117856000Y-81788000D03*
X38354000Y-81788000D03*
%TO.N,CLOCK*%
X77977000Y-151130000D03*
X77978000Y-121920000D03*
X77978000Y-60579000D03*
%TO.N,/PORT2B*%
X121412000Y-55499000D03*
%TO.N,/NMIB*%
X68072000Y-100838000D03*
X68071000Y-127000000D03*
X116332000Y-100838000D03*
%TO.N,/DMAB*%
X93472000Y-68072000D03*
X98806000Y-129032000D03*
X98806000Y-170180000D03*
%TD*%
D33*
%TO.N,+5V*%
X142510000Y-106664000D02*
X142510000Y-102344000D01*
X66592000Y-102362000D02*
X79248000Y-102362000D01*
X66548000Y-102362000D02*
X32004000Y-102362000D01*
X32004000Y-102362000D02*
X31242000Y-101600000D01*
X31242000Y-101600000D02*
X30225000Y-101600000D01*
X63310000Y-102344000D02*
X63310000Y-111326341D01*
D34*
%TO.N,Net-(R5-Pad1)*%
X84720000Y-114384000D02*
X83414001Y-115689999D01*
X83414001Y-115689999D02*
X68364001Y-115689999D01*
X68364001Y-115689999D02*
X67214000Y-116840000D01*
X67214000Y-116840000D02*
X66040000Y-116840000D01*
%TO.N,/A15*%
X76410000Y-77044000D02*
X91776000Y-77044000D01*
%TO.N,/D0*%
X36068000Y-87884000D02*
X91948000Y-87884000D01*
%TO.N,/A15*%
X44410000Y-88644000D02*
X49010000Y-88644000D01*
X98044000Y-88644000D02*
X91186000Y-88646000D01*
X91186000Y-88646000D02*
X49010000Y-88644000D01*
%TO.N,/RW*%
X115610000Y-81044000D02*
X91028000Y-81044000D01*
X91028000Y-81044000D02*
X91010000Y-81026000D01*
X91010000Y-169418000D02*
X110236000Y-169418000D01*
X110236000Y-169418000D02*
X113538000Y-172720000D01*
X113538000Y-172720000D02*
X115824000Y-172720000D01*
X81280000Y-129540000D02*
X91010000Y-129544000D01*
X62128000Y-81026000D02*
X91010000Y-81026000D01*
X49828000Y-81026000D02*
X62128000Y-81026000D01*
D33*
%TO.N,Net-(C1-Pad1)*%
X142494000Y-48760800D02*
X142494000Y-54102000D01*
X139192000Y-59436000D02*
X139192000Y-75692000D01*
X143510000Y-55118000D02*
X139192000Y-59436000D01*
X139192000Y-75692000D02*
X147574000Y-84074000D01*
X142494000Y-54102000D02*
X143510000Y-55118000D01*
X143510000Y-55118000D02*
X146127410Y-55118000D01*
%TO.N,+5V*%
X77979853Y-30083285D02*
X81012138Y-27051000D01*
X72898000Y-74484359D02*
X69157641Y-70744000D01*
X52741520Y-28973999D02*
X53140519Y-28575000D01*
X86028000Y-102362000D02*
X116840000Y-102362000D01*
X128524000Y-77978000D02*
X137922000Y-87376000D01*
X70358000Y-170763903D02*
X58420000Y-170763903D01*
X142494000Y-106680000D02*
X149098000Y-106680000D01*
X79248000Y-104394000D02*
X79248000Y-102362000D01*
X163322000Y-78550000D02*
X163322000Y-82042000D01*
X110110000Y-70744000D02*
X118237000Y-70739000D01*
X158242000Y-149860000D02*
X158242000Y-174498000D01*
X128524000Y-33909000D02*
X128524000Y-64008000D01*
X86079089Y-102413089D02*
X86079089Y-104394000D01*
X137922000Y-87376000D02*
X157988000Y-87376000D01*
X132080000Y-64008000D02*
X128524000Y-64008000D01*
X79248000Y-102362000D02*
X86028000Y-102362000D01*
X69157641Y-70744000D02*
X63410000Y-70744000D01*
X163322000Y-82042000D02*
X157988000Y-87376000D01*
X144201570Y-152400000D02*
X144201570Y-149860000D01*
X56515000Y-154940000D02*
X58165000Y-154940000D01*
X116840000Y-106680000D02*
X119651000Y-106680000D01*
X137668000Y-149860000D02*
X151821570Y-149860000D01*
X123078715Y-28590715D02*
X124714000Y-30099000D01*
X116840000Y-106680000D02*
X116840000Y-102362000D01*
X158310000Y-149792000D02*
X158310000Y-115892000D01*
X149352000Y-156210000D02*
X149352000Y-149860000D01*
X151821570Y-165100000D02*
X151821570Y-162560000D01*
X88016423Y-114366561D02*
X88016423Y-109114488D01*
X136144000Y-148336000D02*
X137668000Y-149860000D01*
X55753000Y-162560000D02*
X55753000Y-168096903D01*
X158310000Y-115892000D02*
X149098000Y-106680000D01*
X151821570Y-157480000D02*
X150622000Y-157480000D01*
X40148000Y-162560000D02*
X42925000Y-162560000D01*
X128524000Y-64008000D02*
X128524000Y-70739000D01*
X116840000Y-102362000D02*
X142492000Y-102362000D01*
X81012138Y-27051000D02*
X97663000Y-27051000D01*
X151821570Y-162560000D02*
X151821570Y-160020000D01*
X118237000Y-74416133D02*
X118237000Y-70739000D01*
X88016423Y-109114488D02*
X89408000Y-107722911D01*
X53140519Y-28575000D02*
X76471568Y-28575000D01*
X55753000Y-162560000D02*
X55753000Y-155702000D01*
X99747666Y-28590715D02*
X123078715Y-28590715D01*
X161544000Y-76772000D02*
X163322000Y-78550000D01*
X142494000Y-106680000D02*
X142494000Y-109220000D01*
X86079089Y-104394000D02*
X89408000Y-107722911D01*
X151821570Y-149860000D02*
X158242000Y-149860000D01*
X81026000Y-181610000D02*
X78740000Y-179324000D01*
X118237000Y-70739000D02*
X128524000Y-70739000D01*
X86028000Y-102362000D02*
X86079089Y-102413089D01*
X158242000Y-174498000D02*
X151130000Y-181610000D01*
X126884034Y-149786695D02*
X128334729Y-148336000D01*
X142510000Y-102344000D02*
X142510000Y-87376000D01*
X55753000Y-168096903D02*
X58420000Y-170763903D01*
X123444000Y-149860000D02*
X126810729Y-149860000D01*
X128524000Y-70739000D02*
X128524000Y-77978000D01*
X142492000Y-102362000D02*
X142510000Y-102344000D01*
X63263000Y-131844000D02*
X65804000Y-131844000D01*
X128334729Y-148336000D02*
X136144000Y-148336000D01*
X55753000Y-155702000D02*
X56515000Y-154940000D01*
X158242000Y-149860000D02*
X158310000Y-149792000D01*
X150622000Y-157480000D02*
X149352000Y-156210000D01*
X151130000Y-181610000D02*
X81026000Y-181610000D01*
X76471568Y-28575000D02*
X77979853Y-30083285D01*
X97663000Y-27051000D02*
X99441000Y-28829000D01*
X124714000Y-30099000D02*
X128524000Y-33909000D01*
X151821570Y-160020000D02*
X151821570Y-157480000D01*
X42925000Y-162560000D02*
X55753000Y-162560000D01*
X78740000Y-179324000D02*
X70358000Y-170763903D01*
%TO.N,Net-(D1-Pad1)*%
X134620000Y-64008000D02*
X134620000Y-69021721D01*
%TO.N,Net-(F1-Pad2)*%
X147574000Y-67310000D02*
X147574000Y-71374000D01*
%TO.N,Net-(F1-Pad1)*%
X154686000Y-62230000D02*
X147574000Y-62230000D01*
D34*
%TO.N,CA2*%
X45974000Y-116840000D02*
X58165000Y-116840000D01*
%TO.N,CA1*%
X44958000Y-114300000D02*
X58165000Y-114300000D01*
%TO.N,PA7*%
X32765000Y-127000000D02*
X40385000Y-134620000D01*
X30225000Y-127000000D02*
X32765000Y-127000000D01*
X40385000Y-134620000D02*
X42925000Y-134620000D01*
%TO.N,PA6*%
X40385000Y-132080000D02*
X42925000Y-132080000D01*
X30225000Y-124460000D02*
X32765000Y-124460000D01*
X40385000Y-132080000D02*
X32765000Y-124460000D01*
%TO.N,PA5*%
X40385000Y-129540000D02*
X32765000Y-121920000D01*
X32765000Y-121920000D02*
X30225000Y-121920000D01*
X40385000Y-129540000D02*
X42925000Y-129540000D01*
%TO.N,PA4*%
X40385000Y-127000000D02*
X32765000Y-119380000D01*
X32765000Y-119380000D02*
X30225000Y-119380000D01*
X40385000Y-127000000D02*
X42925000Y-127000000D01*
%TO.N,PA3*%
X40385000Y-124460000D02*
X42925000Y-124460000D01*
X40385000Y-124460000D02*
X32765000Y-116840000D01*
X32765000Y-116840000D02*
X30225000Y-116840000D01*
%TO.N,PA2*%
X40385000Y-121920000D02*
X32765000Y-114300000D01*
X40385000Y-121920000D02*
X42925000Y-121920000D01*
X32765000Y-114300000D02*
X30225000Y-114300000D01*
%TO.N,PA1*%
X40385000Y-119380000D02*
X32765000Y-111760000D01*
X40385000Y-119380000D02*
X42925000Y-119380000D01*
X32765000Y-111760000D02*
X30225000Y-111760000D01*
%TO.N,PA0*%
X40766000Y-116840000D02*
X42925000Y-116840000D01*
X40766000Y-116840000D02*
X33146000Y-109220000D01*
X33146000Y-109220000D02*
X30225000Y-109220000D01*
%TO.N,RESET*%
X111379000Y-66802000D02*
X122174000Y-66802000D01*
X109021000Y-64444000D02*
X111379000Y-66802000D01*
X104995000Y-65659000D02*
X106210000Y-64444000D01*
X68270002Y-114300000D02*
X81280000Y-114300000D01*
X67000002Y-115570000D02*
X68270002Y-114300000D01*
X63410000Y-65664000D02*
X78695000Y-65659000D01*
X78695000Y-65659000D02*
X104995000Y-65659000D01*
X58165000Y-129540000D02*
X56641000Y-129540000D01*
X106210000Y-64444000D02*
X109021000Y-64444000D01*
X56642000Y-115570000D02*
X67000002Y-115570000D01*
%TO.N,/D7*%
X106265000Y-51689000D02*
X123317000Y-51689000D01*
X81280000Y-149860000D02*
X97282000Y-149860000D01*
X76725568Y-51689000D02*
X77979853Y-52943285D01*
X59565000Y-51689000D02*
X76725568Y-51689000D01*
X77979853Y-52943285D02*
X105010715Y-52943285D01*
X122173000Y-128270000D02*
X141224000Y-128270000D01*
X50560000Y-82550000D02*
X26162000Y-82550000D01*
X97282000Y-128270000D02*
X103124000Y-128270000D01*
X58295000Y-52959000D02*
X59565000Y-51689000D01*
X104394000Y-129540000D02*
X120903000Y-129540000D01*
X58165000Y-149860000D02*
X50560000Y-149860000D01*
X97282000Y-82550000D02*
X50560000Y-82550000D01*
X26162000Y-52959000D02*
X58295000Y-52959000D01*
X141224000Y-128270000D02*
X142494000Y-129540000D01*
X120903000Y-129540000D02*
X122173000Y-128270000D01*
X123317000Y-51689000D02*
X124587000Y-52959000D01*
X105010715Y-52943285D02*
X106265000Y-51689000D01*
X103124000Y-128270000D02*
X104394000Y-129540000D01*
%TO.N,/D6*%
X104950715Y-50403285D02*
X106189285Y-49164715D01*
X141224000Y-130810000D02*
X142494000Y-132080000D01*
X58165000Y-147320000D02*
X51322000Y-147320000D01*
X81280000Y-147320000D02*
X96520000Y-147320000D01*
X76725568Y-49149000D02*
X77979853Y-50403285D01*
X123332715Y-49164715D02*
X124587000Y-50419000D01*
X76725568Y-49149000D02*
X59505000Y-49149000D01*
X96520000Y-83312000D02*
X51322000Y-83312000D01*
X116840000Y-132080000D02*
X103886000Y-132080000D01*
X51322000Y-83312000D02*
X26924000Y-83312000D01*
X26924000Y-50419000D02*
X58235000Y-50419000D01*
X122173000Y-130810000D02*
X141224000Y-130810000D01*
X58235000Y-50419000D02*
X59505000Y-49149000D01*
X103886000Y-132080000D02*
X102616000Y-130810000D01*
X120903000Y-132080000D02*
X122173000Y-130810000D01*
X116840000Y-132080000D02*
X120903000Y-132080000D01*
X77979853Y-50403285D02*
X104950715Y-50403285D01*
X102616000Y-130810000D02*
X96520000Y-130810000D01*
X106189285Y-49164715D02*
X123332715Y-49164715D01*
%TO.N,/D5*%
X96012000Y-144780000D02*
X81280000Y-144780000D01*
X116840000Y-134620000D02*
X103886000Y-134620000D01*
X28448000Y-47879000D02*
X58175000Y-47879000D01*
X122173000Y-133350000D02*
X141224000Y-133350000D01*
X52084000Y-144780000D02*
X52068000Y-144796000D01*
X141224000Y-133350000D02*
X142494000Y-134620000D01*
X58165000Y-144780000D02*
X52084000Y-144780000D01*
X104863216Y-47894715D02*
X106133216Y-46624715D01*
X103886000Y-134620000D02*
X102616000Y-133350000D01*
X76725568Y-46609000D02*
X77979853Y-47863285D01*
X78011283Y-47894715D02*
X104863216Y-47894715D01*
X76725568Y-46609000D02*
X59445000Y-46609000D01*
X58175000Y-47879000D02*
X59445000Y-46609000D01*
X52070000Y-84074000D02*
X28448000Y-84074000D01*
X120903000Y-134620000D02*
X122173000Y-133350000D01*
X123332715Y-46624715D02*
X124587000Y-47879000D01*
X52070000Y-84074000D02*
X95758000Y-84074000D01*
X116840000Y-134620000D02*
X120903000Y-134620000D01*
X106133216Y-46624715D02*
X123332715Y-46624715D01*
X102616000Y-133350000D02*
X95758000Y-133350000D01*
%TO.N,/D4*%
X76725568Y-44069000D02*
X77979853Y-45323285D01*
X58313000Y-45341000D02*
X59585000Y-44069000D01*
X120903000Y-137160000D02*
X122173000Y-135890000D01*
X104897285Y-45356715D02*
X106169285Y-44084715D01*
X122173000Y-135890000D02*
X141224000Y-135890000D01*
X29972000Y-45341000D02*
X58313000Y-45341000D01*
X76725568Y-44069000D02*
X59585000Y-44069000D01*
X52832000Y-84836000D02*
X29972000Y-84836000D01*
X106169285Y-44084715D02*
X123332715Y-44084715D01*
X123332715Y-44084715D02*
X124587000Y-45339000D01*
X52832000Y-84836000D02*
X94996000Y-84836000D01*
X116840000Y-137160000D02*
X120903000Y-137160000D01*
X102616000Y-135890000D02*
X94996000Y-135890000D01*
X103886000Y-137160000D02*
X116840000Y-137160000D01*
X141224000Y-135890000D02*
X142494000Y-137160000D01*
X78013283Y-45356715D02*
X104897285Y-45356715D01*
X103886000Y-137160000D02*
X102616000Y-135890000D01*
X81280000Y-142240000D02*
X94996000Y-142240000D01*
X58165000Y-142240000D02*
X52846000Y-142240000D01*
X52846000Y-142240000D02*
X52830000Y-142256000D01*
%TO.N,/D3*%
X76725568Y-41529000D02*
X59525000Y-41529000D01*
X58255000Y-42799000D02*
X59525000Y-41529000D01*
X92231717Y-42814715D02*
X104939285Y-42814715D01*
X116840000Y-139700000D02*
X103886000Y-139700000D01*
X58165000Y-139700000D02*
X53608000Y-139700000D01*
X76725568Y-41529000D02*
X77979853Y-42783285D01*
X120903500Y-139700000D02*
X122173500Y-138430000D01*
X104939285Y-42814715D02*
X106209285Y-41544715D01*
X77979853Y-42783285D02*
X92200287Y-42783285D01*
X106209285Y-41544715D02*
X123332715Y-41544715D01*
X122174000Y-138430000D02*
X141478000Y-138430000D01*
X53594000Y-85598000D02*
X94234000Y-85598000D01*
X103886000Y-139700000D02*
X102616000Y-138430000D01*
X81280000Y-139700000D02*
X94234000Y-139700000D01*
X116840000Y-139700000D02*
X120903500Y-139700000D01*
X102616000Y-138430000D02*
X95504000Y-138430000D01*
X95504000Y-138430000D02*
X94234000Y-139700000D01*
X141478000Y-138430000D02*
X142494000Y-139446000D01*
X53608000Y-139700000D02*
X53592000Y-139716000D01*
X31496000Y-42799000D02*
X58255000Y-42799000D01*
X123332715Y-41544715D02*
X124587000Y-42799000D01*
X53594000Y-85598000D02*
X31496000Y-85598000D01*
X92200287Y-42783285D02*
X92231717Y-42814715D01*
%TO.N,/D2*%
X76725568Y-38989000D02*
X59565000Y-38989000D01*
X76725568Y-38989000D02*
X77979853Y-40243285D01*
X58293000Y-40261000D02*
X59565000Y-38989000D01*
X120903000Y-138430000D02*
X122173000Y-137160000D01*
X123391999Y-39063999D02*
X124587000Y-40259000D01*
X32974779Y-40261000D02*
X58293000Y-40261000D01*
X101600000Y-137160000D02*
X102616000Y-137160000D01*
X93472000Y-86360000D02*
X54356000Y-86360000D01*
X93472000Y-137160000D02*
X101600000Y-137160000D01*
X103886000Y-138430000D02*
X120903000Y-138430000D01*
X134874000Y-137160000D02*
X127254000Y-137160000D01*
X77979853Y-40243285D02*
X105010715Y-40243285D01*
X105010715Y-40243285D02*
X106190001Y-39063999D01*
X33020000Y-86360000D02*
X54356000Y-86360000D01*
X122173000Y-137160000D02*
X127254000Y-137160000D01*
X106190001Y-39063999D02*
X123391999Y-39063999D01*
X102616000Y-137160000D02*
X103886000Y-138430000D01*
X81280000Y-137160000D02*
X93472000Y-137160000D01*
X58165000Y-137160000D02*
X54354000Y-137160000D01*
%TO.N,/D1*%
X81280000Y-134620000D02*
X92710000Y-134620000D01*
X135636000Y-134620000D02*
X127254000Y-134620000D01*
X53850776Y-37599001D02*
X53857777Y-37592000D01*
X59530001Y-36423999D02*
X59730001Y-36423999D01*
X46237777Y-37592000D02*
X52739773Y-37592000D01*
X34544000Y-37592000D02*
X45119773Y-37592000D01*
X123332715Y-36464715D02*
X124587000Y-37719000D01*
X77979853Y-37703285D02*
X105050715Y-37703285D01*
X120903000Y-135890000D02*
X122173000Y-134620000D01*
X102616000Y-134620000D02*
X103886000Y-135890000D01*
X45119773Y-37592000D02*
X45126774Y-37599001D01*
X45126774Y-37599001D02*
X46230776Y-37599001D01*
X101600000Y-134620000D02*
X102616000Y-134620000D01*
X106289285Y-36464715D02*
X123332715Y-36464715D01*
X59755002Y-36449000D02*
X59730001Y-36423999D01*
X52739773Y-37592000D02*
X52746774Y-37599001D01*
X105050715Y-37703285D02*
X106289285Y-36464715D01*
X53857777Y-37592000D02*
X58362000Y-37592000D01*
X92710000Y-134620000D02*
X101600000Y-134620000D01*
X55118000Y-87122000D02*
X34544000Y-87122000D01*
X103886000Y-135890000D02*
X120903000Y-135890000D01*
X58165000Y-134620000D02*
X55117000Y-134620000D01*
X92710000Y-87122000D02*
X55118000Y-87122000D01*
X46230776Y-37599001D02*
X46237777Y-37592000D01*
X76725568Y-36449000D02*
X77979853Y-37703285D01*
X122173000Y-134620000D02*
X127254000Y-134620000D01*
X76725568Y-36449000D02*
X59755002Y-36449000D01*
X58362000Y-37592000D02*
X59530001Y-36423999D01*
X52746774Y-37599001D02*
X53850776Y-37599001D01*
%TO.N,/D0*%
X78011283Y-35194715D02*
X104859285Y-35194715D01*
X102616000Y-132080000D02*
X103886000Y-133350000D01*
X104859285Y-35194715D02*
X106129285Y-33924715D01*
X120903000Y-133350000D02*
X122173000Y-132080000D01*
X103886000Y-133350000D02*
X120903000Y-133350000D01*
X76725568Y-33909000D02*
X77979853Y-35163285D01*
X106129285Y-33924715D02*
X123332715Y-33924715D01*
X123332715Y-33924715D02*
X124587000Y-35179000D01*
X36068000Y-35179000D02*
X58275000Y-35179000D01*
X91948000Y-132080000D02*
X101600000Y-132080000D01*
X76725568Y-33909000D02*
X59545000Y-33909000D01*
X58165000Y-132080000D02*
X55878000Y-132096000D01*
X81280000Y-132080000D02*
X91948000Y-132080000D01*
X127254000Y-132080000D02*
X136398000Y-132080000D01*
X122173000Y-132080000D02*
X127254000Y-132080000D01*
X58275000Y-35179000D02*
X59545000Y-33909000D01*
X101600000Y-132080000D02*
X102616000Y-132080000D01*
%TO.N,CB2*%
X30225000Y-160020000D02*
X42925000Y-160020000D01*
%TO.N,CB1*%
X42925000Y-157480000D02*
X30225000Y-157480000D01*
%TO.N,PB7*%
X30225000Y-154940000D02*
X42925000Y-154940000D01*
%TO.N,PB6*%
X42925000Y-152400000D02*
X30225000Y-152400000D01*
%TO.N,PB5*%
X30225000Y-149860000D02*
X42925000Y-149860000D01*
%TO.N,PB4*%
X42925000Y-147320000D02*
X30225000Y-147320000D01*
%TO.N,PB3*%
X30225000Y-144780000D02*
X42925000Y-144780000D01*
%TO.N,PB2*%
X42925000Y-142240000D02*
X30225000Y-142240000D01*
%TO.N,PB1*%
X30225000Y-139700000D02*
X42925000Y-139700000D01*
%TO.N,PB0*%
X42925000Y-137160000D02*
X30225000Y-137160000D01*
%TO.N,/A14*%
X101600000Y-106680000D02*
X110744000Y-106680000D01*
X110744000Y-154940000D02*
X115824000Y-154940000D01*
X81280000Y-154940000D02*
X110744000Y-154940000D01*
X43688000Y-100076000D02*
X90170000Y-100076000D01*
X112014000Y-107950000D02*
X121412000Y-107950000D01*
X90170000Y-74564715D02*
X91805285Y-74564715D01*
X90170000Y-100076000D02*
X110744000Y-100076000D01*
X110744000Y-106680000D02*
X112014000Y-107950000D01*
X45736477Y-74422000D02*
X43688000Y-74422000D01*
X122682000Y-106680000D02*
X127254000Y-106680000D01*
X121412000Y-107950000D02*
X122682000Y-106680000D01*
%TO.N,/A13*%
X45736477Y-71882000D02*
X42926000Y-71882000D01*
X116840000Y-111760000D02*
X120649000Y-111760000D01*
X141224000Y-110490000D02*
X142494000Y-111760000D01*
X109220000Y-157480000D02*
X115824000Y-157480000D01*
X42926000Y-99314000D02*
X89408000Y-99314000D01*
X81280000Y-157480000D02*
X109220000Y-157480000D01*
X121919000Y-110490000D02*
X141224000Y-110490000D01*
X109220000Y-110744000D02*
X110236000Y-111760000D01*
X120649000Y-111760000D02*
X121919000Y-110490000D01*
X89408000Y-99314000D02*
X109220000Y-99314000D01*
X110236000Y-111760000D02*
X116840000Y-111760000D01*
X89408000Y-72024715D02*
X91805285Y-72024715D01*
%TO.N,/A12*%
X121920000Y-109220000D02*
X127254000Y-109220000D01*
X42164000Y-98552000D02*
X109982000Y-98552000D01*
X111252000Y-110490000D02*
X120650000Y-110490000D01*
X88646000Y-69357715D02*
X91709715Y-69357715D01*
X81280000Y-160020000D02*
X109982000Y-160020000D01*
X42164000Y-69342000D02*
X45736477Y-69342000D01*
X109982000Y-160020000D02*
X115824000Y-160020000D01*
X101600000Y-109220000D02*
X109982000Y-109220000D01*
X120650000Y-110490000D02*
X121920000Y-109220000D01*
X109982000Y-109220000D02*
X111252000Y-110490000D01*
%TO.N,/A11*%
X141224000Y-118110000D02*
X142494000Y-119380000D01*
X45736477Y-66802000D02*
X41402000Y-66802000D01*
X116840000Y-119380000D02*
X120649000Y-119380000D01*
X120649000Y-119380000D02*
X121919000Y-118110000D01*
X115824000Y-162560000D02*
X114554000Y-163830000D01*
X70104000Y-163830000D02*
X114554000Y-163830000D01*
X113792000Y-97790000D02*
X114046000Y-97790000D01*
X121919000Y-118110000D02*
X141224000Y-118110000D01*
X68834000Y-162560000D02*
X70104000Y-163830000D01*
X116840000Y-119380000D02*
X114046000Y-119380000D01*
X66040000Y-162560000D02*
X68834000Y-162560000D01*
X41402000Y-97790000D02*
X68834000Y-97790000D01*
X68834000Y-97790000D02*
X113792000Y-97790000D01*
X87884000Y-66817715D02*
X91709715Y-66817715D01*
%TO.N,/A10*%
X45736477Y-64262000D02*
X40640000Y-64262000D01*
X40640000Y-97028000D02*
X69596000Y-97028000D01*
X117467999Y-162171999D02*
X117467999Y-163456001D01*
X116840000Y-124460000D02*
X114808000Y-124460000D01*
X70866000Y-161290000D02*
X116586000Y-161290000D01*
X87122000Y-64277715D02*
X91709715Y-64277715D01*
X117467999Y-163456001D02*
X115824000Y-165100000D01*
X116840000Y-124460000D02*
X120903000Y-124460000D01*
X120903000Y-124460000D02*
X122173000Y-123190000D01*
X69596000Y-97028000D02*
X114808000Y-97028000D01*
X69596000Y-160020000D02*
X70866000Y-161290000D01*
X122173000Y-123190000D02*
X141224000Y-123190000D01*
X116586000Y-161290000D02*
X117467999Y-162171999D01*
X141224000Y-123190000D02*
X142494000Y-124460000D01*
X66040000Y-160020000D02*
X69596000Y-160020000D01*
%TO.N,/A9*%
X70358000Y-157480000D02*
X71628000Y-158750000D01*
X120649000Y-116840000D02*
X121919000Y-115570000D01*
X118110000Y-159766000D02*
X118110000Y-165354000D01*
X116840000Y-116840000D02*
X113284000Y-116840000D01*
X117094000Y-158750000D02*
X118110000Y-159766000D01*
X116840000Y-116840000D02*
X120649000Y-116840000D01*
X118110000Y-165354000D02*
X115824000Y-167640000D01*
X70358000Y-96266000D02*
X113284000Y-96266000D01*
X121919000Y-115570000D02*
X141224000Y-115570000D01*
X91821000Y-61849000D02*
X86360000Y-61849000D01*
X39878000Y-96266000D02*
X70358000Y-96266000D01*
X66040000Y-157480000D02*
X70358000Y-157480000D01*
X39878000Y-61849000D02*
X45618781Y-61849000D01*
X71628000Y-158750000D02*
X117094000Y-158750000D01*
X141224000Y-115570000D02*
X142494000Y-116840000D01*
%TO.N,/A8*%
X121919000Y-113030000D02*
X141224000Y-113030000D01*
X85598000Y-59309000D02*
X85852000Y-59309000D01*
X120649000Y-114300000D02*
X121919000Y-113030000D01*
X141224000Y-113030000D02*
X142494000Y-114300000D01*
X117602000Y-156210000D02*
X118872000Y-157480000D01*
X72390000Y-156210000D02*
X117602000Y-156210000D01*
X45618781Y-59309000D02*
X39116000Y-59309000D01*
X66040000Y-154940000D02*
X71120000Y-154940000D01*
X112522000Y-95504000D02*
X71120000Y-95504000D01*
X116840000Y-114300000D02*
X112522000Y-114300000D01*
X85852000Y-59309000D02*
X91821000Y-59309000D01*
X116840000Y-114300000D02*
X120649000Y-114300000D01*
X71120000Y-154940000D02*
X72390000Y-156210000D01*
X39116000Y-95504000D02*
X71120000Y-95504000D01*
X118872000Y-167132000D02*
X115824000Y-170180000D01*
X118872000Y-157480000D02*
X118872000Y-167132000D01*
%TO.N,/A7*%
X79502000Y-94742000D02*
X108458000Y-94742000D01*
X101600000Y-111760000D02*
X108458000Y-111760000D01*
X109728000Y-113030000D02*
X120649000Y-113030000D01*
X120649000Y-113030000D02*
X121919000Y-111760000D01*
X66040000Y-152400000D02*
X71882000Y-152400000D01*
X71882000Y-94742000D02*
X27686000Y-94742000D01*
X79502000Y-49164715D02*
X91805285Y-49164715D01*
X108458000Y-111760000D02*
X109728000Y-113030000D01*
X45678775Y-49149000D02*
X27686000Y-49149000D01*
X121919000Y-111760000D02*
X127254000Y-111760000D01*
X71882000Y-94742000D02*
X79502000Y-94742000D01*
%TO.N,/A6*%
X80264000Y-46609000D02*
X91821000Y-46609000D01*
X108966000Y-115570000D02*
X120649000Y-115570000D01*
X72644000Y-93980000D02*
X107696000Y-93980000D01*
X121919000Y-114300000D02*
X127254000Y-114300000D01*
X66040000Y-149860000D02*
X72644000Y-149860000D01*
X120649000Y-115570000D02*
X121919000Y-114300000D01*
X107696000Y-114300000D02*
X108966000Y-115570000D01*
X45678775Y-46609000D02*
X29210000Y-46609000D01*
X72644000Y-93980000D02*
X29210000Y-93980000D01*
X101600000Y-114300000D02*
X107696000Y-114300000D01*
%TO.N,/A5*%
X45678775Y-44069000D02*
X30734000Y-44069000D01*
X81026000Y-44084715D02*
X91805285Y-44084715D01*
X108204000Y-118110000D02*
X120584795Y-118110000D01*
X73406000Y-147320000D02*
X73350000Y-147330000D01*
X106934000Y-116840000D02*
X108204000Y-118110000D01*
X120584795Y-118110000D02*
X121854795Y-116840000D01*
X121854795Y-116840000D02*
X127254000Y-116840000D01*
X66040000Y-147320000D02*
X73406000Y-147320000D01*
X73406000Y-93218000D02*
X106934000Y-93218000D01*
X73406000Y-93218000D02*
X30734000Y-93218000D01*
X101600000Y-116840000D02*
X106934000Y-116840000D01*
%TO.N,/A4*%
X81788000Y-92456000D02*
X74168000Y-92456000D01*
X106172000Y-119380000D02*
X107442000Y-120650000D01*
X81788000Y-41529000D02*
X91821000Y-41529000D01*
X101600000Y-119380000D02*
X106172000Y-119380000D01*
X81788000Y-92456000D02*
X81820000Y-92488000D01*
X106140000Y-92488000D02*
X106172000Y-92456000D01*
X120649000Y-120650000D02*
X121919000Y-119380000D01*
X45678775Y-41529000D02*
X32212779Y-41529000D01*
X107442000Y-120650000D02*
X120649000Y-120650000D01*
X81820000Y-92488000D02*
X106140000Y-92488000D01*
X66040000Y-144780000D02*
X74050000Y-144780000D01*
X121919000Y-119380000D02*
X127254000Y-119380000D01*
X74168000Y-92456000D02*
X32258000Y-92456000D01*
X74050000Y-144780000D02*
X74100000Y-144830000D01*
%TO.N,/A3*%
X66040000Y-142240000D02*
X74930000Y-142240000D01*
X82550000Y-38989000D02*
X91821000Y-38989000D01*
X120903000Y-123190000D02*
X122173000Y-121920000D01*
X74930000Y-91738000D02*
X105366000Y-91738000D01*
X101600000Y-121920000D02*
X105410000Y-121920000D01*
X105410000Y-121920000D02*
X106680000Y-123190000D01*
X49037000Y-127000000D02*
X49021000Y-127016000D01*
X106680000Y-123190000D02*
X120903000Y-123190000D01*
X45678775Y-38989000D02*
X33782000Y-38862000D01*
X49022000Y-91694000D02*
X33782000Y-91694000D01*
X49066000Y-91738000D02*
X49022000Y-91694000D01*
X74930000Y-91738000D02*
X49066000Y-91738000D01*
X122173000Y-121920000D02*
X127254000Y-121920000D01*
X58165000Y-127000000D02*
X49037000Y-127000000D01*
X105366000Y-91738000D02*
X105410000Y-91694000D01*
%TO.N,/A2*%
X122173000Y-124460000D02*
X127254000Y-124460000D01*
X48260000Y-90932000D02*
X35306000Y-90932000D01*
X120903000Y-125730000D02*
X122173000Y-124460000D01*
X48275000Y-124460000D02*
X48259000Y-124476000D01*
X104648000Y-124460000D02*
X101600000Y-124460000D01*
X105918000Y-125730000D02*
X120903000Y-125730000D01*
X35306000Y-36449000D02*
X45678775Y-36449000D01*
X83312000Y-36449000D02*
X91821000Y-36449000D01*
X75692000Y-90932000D02*
X48260000Y-90932000D01*
X104648000Y-124460000D02*
X105918000Y-125730000D01*
X75692000Y-90932000D02*
X104648000Y-90932000D01*
X58165000Y-124460000D02*
X48275000Y-124460000D01*
X66040000Y-139700000D02*
X75692000Y-139700000D01*
%TO.N,/A1*%
X84074000Y-33909000D02*
X91821000Y-33909000D01*
X105156000Y-128270000D02*
X120838795Y-128270000D01*
X122108795Y-127000000D02*
X127254000Y-127000000D01*
X36830000Y-90170000D02*
X76454000Y-90170000D01*
X120838795Y-128270000D02*
X122108795Y-127000000D01*
X103886000Y-90170000D02*
X76454000Y-90170000D01*
X103886000Y-127000000D02*
X105156000Y-128270000D01*
X101600000Y-127000000D02*
X103886000Y-127000000D01*
X66040000Y-137160000D02*
X76454000Y-137160000D01*
X58165000Y-121920000D02*
X47513000Y-121920000D01*
X45678775Y-33909000D02*
X36784779Y-33909000D01*
%TO.N,/A0*%
X46736000Y-89408000D02*
X37592000Y-89408000D01*
X66040000Y-134620000D02*
X77216000Y-134620000D01*
X101600000Y-129540000D02*
X103124000Y-129540000D01*
X58165000Y-119380000D02*
X46751000Y-119380000D01*
X120903000Y-130810000D02*
X122173000Y-129540000D01*
X46751000Y-119380000D02*
X46735000Y-119396000D01*
X84836000Y-31242000D02*
X91694000Y-31242000D01*
X103124000Y-129540000D02*
X104394000Y-130810000D01*
X77216000Y-89408000D02*
X46736000Y-89408000D01*
X122173000Y-129540000D02*
X127254000Y-129540000D01*
X103124000Y-89408000D02*
X84836000Y-89408000D01*
X84836000Y-89408000D02*
X77216000Y-89408000D01*
X104394000Y-130810000D02*
X120903000Y-130810000D01*
X37546779Y-31369000D02*
X45678775Y-31369000D01*
%TO.N,ECLOCK*%
X78740000Y-174074000D02*
X83710000Y-179044000D01*
%TO.N,Net-(J9-Pad1)*%
X73660000Y-170763903D02*
X78630791Y-170763903D01*
D33*
%TO.N,Net-(F2-Pad2)*%
X141478000Y-67310000D02*
X141478000Y-71374000D01*
D34*
%TO.N,Net-(R2-Pad2)*%
X88016423Y-124526561D02*
X88016423Y-120750423D01*
X81280000Y-119380000D02*
X86646000Y-119380000D01*
X86646000Y-119380000D02*
X88016423Y-120750423D01*
%TO.N,/ROMCSB*%
X131064000Y-127000000D02*
X142494000Y-127000000D01*
%TO.N,/IOCSB*%
X113538000Y-153670000D02*
X122174000Y-153670000D01*
X64007000Y-153686000D02*
X113522000Y-153686000D01*
X113067999Y-153670000D02*
X113538000Y-153670000D01*
X123444000Y-152400000D02*
X122174000Y-153670000D01*
X60213000Y-157480000D02*
X58165000Y-157480000D01*
X64007000Y-153686000D02*
X60213000Y-157480000D01*
X113538000Y-153670000D02*
X113522000Y-153686000D01*
%TO.N,/RAMCSB*%
X120650000Y-127000000D02*
X121666000Y-125984000D01*
X116840000Y-127000000D02*
X120650000Y-127000000D01*
X121666000Y-125984000D02*
X123190000Y-125984000D01*
%TO.N,/IRQ0B*%
X63532000Y-58166000D02*
X72898000Y-58166000D01*
X67310000Y-101600000D02*
X139827000Y-101600000D01*
%TO.N,Net-(J3-Pad24)*%
X106110000Y-50544000D02*
X107450000Y-50544000D01*
X105110000Y-51544000D02*
X106110000Y-50544000D01*
X99586000Y-51544000D02*
X105110000Y-51544000D01*
%TO.N,Net-(J3-Pad23)*%
X106110000Y-47844000D02*
X107530000Y-47844000D01*
X99446000Y-49144000D02*
X104810000Y-49144000D01*
X104810000Y-49144000D02*
X106110000Y-47844000D01*
%TO.N,Net-(J12-Pad2)*%
X118364000Y-60706000D02*
X118364000Y-64383133D01*
%TO.N,Net-(J14-Pad2)*%
X72898000Y-60706000D02*
X72898000Y-64324359D01*
%TO.N,Net-(U6-Pad6)*%
X130048000Y-160020000D02*
X133858000Y-163830000D01*
X133858000Y-163830000D02*
X142931570Y-163830000D01*
X142931570Y-163830000D02*
X144201570Y-162560000D01*
%TO.N,Net-(U7-Pad1)*%
X125222000Y-160020000D02*
X128270000Y-156972000D01*
X123444000Y-160020000D02*
X125222000Y-160020000D01*
X128270000Y-151638000D02*
X130048000Y-149860000D01*
X128270000Y-156972000D02*
X128270000Y-151638000D01*
%TO.N,/IRQ1B*%
X60705000Y-165100000D02*
X78994000Y-165100000D01*
X136552440Y-168910000D02*
X148082000Y-168910000D01*
X78994000Y-165100000D02*
X82550000Y-168656000D01*
X58165000Y-162560000D02*
X60705000Y-165100000D01*
X134012440Y-171450000D02*
X136552440Y-168910000D01*
X110998000Y-168656000D02*
X113792000Y-171450000D01*
X82550000Y-168656000D02*
X110998000Y-168656000D01*
X113792000Y-171450000D02*
X134012440Y-171450000D01*
%TO.N,/A15*%
X81280000Y-152400000D02*
X115824000Y-152400000D01*
%TO.N,Net-(J3-Pad8)*%
X110226918Y-50434715D02*
X116951285Y-50434715D01*
%TO.N,Net-(J3-Pad7)*%
X110226918Y-47894715D02*
X116951285Y-47894715D01*
%TO.N,Net-(J3-Pad6)*%
X110110000Y-45344000D02*
X116951285Y-45354715D01*
%TO.N,Net-(J3-Pad5)*%
X110110000Y-42804000D02*
X116951285Y-42814715D01*
%TO.N,Net-(J3-Pad4)*%
X110110000Y-40264000D02*
X116951285Y-40274715D01*
%TO.N,Net-(J3-Pad3)*%
X110110000Y-37724000D02*
X116951285Y-37734715D01*
%TO.N,Net-(J3-Pad2)*%
X110110000Y-35184000D02*
X116951285Y-35194715D01*
%TO.N,Net-(J3-Pad1)*%
X110110000Y-32644000D02*
X116951285Y-32654715D01*
%TO.N,Net-(J3-Pad22)*%
X99441000Y-46609000D02*
X99925295Y-46124705D01*
X106789295Y-46124705D02*
X107570000Y-45344000D01*
X99925295Y-46124705D02*
X106789295Y-46124705D01*
%TO.N,Net-(J3-Pad21)*%
X106110000Y-42844000D02*
X107530000Y-42844000D01*
X104910000Y-44044000D02*
X106110000Y-42844000D01*
X99466000Y-44044000D02*
X104910000Y-44044000D01*
%TO.N,Net-(J3-Pad20)*%
X106190000Y-40264000D02*
X107570000Y-40264000D01*
X99456000Y-41544000D02*
X104910000Y-41544000D01*
X104910000Y-41544000D02*
X106190000Y-40264000D01*
%TO.N,Net-(J3-Pad19)*%
X106158220Y-37744000D02*
X107550000Y-37744000D01*
X99496000Y-39044000D02*
X104858220Y-39044000D01*
X104858220Y-39044000D02*
X106158220Y-37744000D01*
%TO.N,Net-(J3-Pad18)*%
X106270000Y-35184000D02*
X105005000Y-36449000D01*
X107570000Y-35184000D02*
X106270000Y-35184000D01*
X105005000Y-36449000D02*
X99441000Y-36449000D01*
%TO.N,Net-(J3-Pad17)*%
X107570000Y-32644000D02*
X106110000Y-32644000D01*
X104845000Y-33909000D02*
X99441000Y-33909000D01*
X106110000Y-32644000D02*
X104845000Y-33909000D01*
%TO.N,Net-(J3-Pad25)*%
X106490000Y-52964000D02*
X107570000Y-52964000D01*
X106010000Y-53444000D02*
X106490000Y-52964000D01*
X106010000Y-55280000D02*
X106010000Y-53444000D01*
X99441000Y-61849000D02*
X106010000Y-55280000D01*
%TO.N,Net-(J3-Pad31)*%
X99441000Y-76713000D02*
X107570000Y-68584000D01*
%TO.N,Net-(J3-Pad32)*%
X107570000Y-71984000D02*
X99925000Y-79629000D01*
X107570000Y-70744000D02*
X107570000Y-71984000D01*
%TO.N,/IRQB*%
X152273000Y-154940000D02*
X154559000Y-157226000D01*
X108712000Y-170942000D02*
X83756500Y-170942000D01*
X131318000Y-176530000D02*
X114300000Y-176530000D01*
X83756500Y-170942000D02*
X78676500Y-165862000D01*
X154559000Y-168402000D02*
X151511000Y-171450000D01*
X136398000Y-171450000D02*
X131318000Y-176530000D01*
X114300000Y-176530000D02*
X108712000Y-170942000D01*
X151511000Y-171450000D02*
X136398000Y-171450000D01*
X78676500Y-165862000D02*
X67310000Y-165862000D01*
X154559000Y-157226000D02*
X154559000Y-168402000D01*
%TO.N,Net-(J4-Pad24)*%
X53298775Y-51689000D02*
X58165000Y-51689000D01*
X58165000Y-51689000D02*
X59430000Y-50424000D01*
X59430000Y-50424000D02*
X60870000Y-50424000D01*
%TO.N,Net-(J4-Pad8)*%
X63410000Y-50424000D02*
X70344138Y-50419000D01*
%TO.N,Net-(J4-Pad7)*%
X63619771Y-47879000D02*
X70344138Y-47879000D01*
%TO.N,Net-(J4-Pad6)*%
X63410000Y-45344000D02*
X70344138Y-45339000D01*
%TO.N,Net-(J4-Pad5)*%
X63410000Y-42804000D02*
X70344138Y-42799000D01*
%TO.N,Net-(J4-Pad4)*%
X63410000Y-40264000D02*
X70344138Y-40259000D01*
%TO.N,Net-(J4-Pad3)*%
X63410000Y-37724000D02*
X70344138Y-37719000D01*
%TO.N,Net-(J4-Pad2)*%
X63410000Y-35184000D02*
X70344138Y-35179000D01*
%TO.N,Net-(J4-Pad1)*%
X63410000Y-32644000D02*
X70344138Y-32639000D01*
%TO.N,Net-(J4-Pad23)*%
X59270000Y-47884000D02*
X60870000Y-47884000D01*
X58010000Y-49144000D02*
X59270000Y-47884000D01*
X53303775Y-49144000D02*
X58010000Y-49144000D01*
%TO.N,Net-(J4-Pad22)*%
X59410000Y-45344000D02*
X60870000Y-45344000D01*
X58145000Y-46609000D02*
X59410000Y-45344000D01*
X53298775Y-46609000D02*
X58145000Y-46609000D01*
%TO.N,Net-(J4-Pad21)*%
X58210000Y-44044000D02*
X59450000Y-42804000D01*
X53323775Y-44044000D02*
X58210000Y-44044000D01*
X59450000Y-42804000D02*
X60870000Y-42804000D01*
%TO.N,Net-(J4-Pad20)*%
X59390000Y-40264000D02*
X60870000Y-40264000D01*
X58125000Y-41529000D02*
X59390000Y-40264000D01*
X53298775Y-41529000D02*
X58125000Y-41529000D01*
%TO.N,Net-(J4-Pad19)*%
X59333560Y-37724000D02*
X60870000Y-37724000D01*
X58068560Y-38989000D02*
X59333560Y-37724000D01*
X53298775Y-38989000D02*
X58068560Y-38989000D01*
%TO.N,Net-(J4-Pad18)*%
X58105000Y-36449000D02*
X59360000Y-35194000D01*
X59360000Y-35194000D02*
X60860000Y-35194000D01*
X53298775Y-36449000D02*
X58105000Y-36449000D01*
%TO.N,Net-(J4-Pad17)*%
X58145000Y-33909000D02*
X53298775Y-33909000D01*
X59410000Y-32644000D02*
X58145000Y-33909000D01*
X60870000Y-32644000D02*
X59410000Y-32644000D01*
%TO.N,Net-(J4-Pad25)*%
X53361129Y-61726652D02*
X54864000Y-60125519D01*
X54864000Y-60125519D02*
X54864000Y-58870000D01*
X54864000Y-58870000D02*
X60870000Y-52964000D01*
%TO.N,Net-(J4-Pad26)*%
X55626000Y-60628000D02*
X60850000Y-55404000D01*
X55626000Y-62001781D02*
X55626000Y-60628000D01*
X53361129Y-64266652D02*
X55626000Y-62001781D01*
%TO.N,Net-(J4-Pad27)*%
X56388000Y-63779781D02*
X56388000Y-62526000D01*
X53361129Y-66806652D02*
X56388000Y-63779781D01*
X56388000Y-62526000D02*
X60870000Y-58044000D01*
%TO.N,Net-(J4-Pad28)*%
X57150000Y-65557781D02*
X57150000Y-64304000D01*
X60870000Y-60584000D02*
X57150000Y-64304000D01*
X53361129Y-69346652D02*
X57150000Y-65557781D01*
%TO.N,Net-(J4-Pad29)*%
X57912000Y-65982000D02*
X60870000Y-63024000D01*
X57912000Y-67335781D02*
X57912000Y-65982000D01*
X53361129Y-71886652D02*
X57912000Y-67335781D01*
%TO.N,Net-(J4-Pad30)*%
X58674000Y-67680000D02*
X58674000Y-69113781D01*
X60790000Y-65564000D02*
X58674000Y-67680000D01*
X58674000Y-69113781D02*
X53361129Y-74426652D01*
%TO.N,Net-(J4-Pad31)*%
X53361129Y-76966652D02*
X59410000Y-70917781D01*
X59410000Y-70917781D02*
X59410000Y-69664000D01*
X59410000Y-69664000D02*
X60870000Y-68204000D01*
%TO.N,Net-(J4-Pad32)*%
X60870000Y-71997781D02*
X60870000Y-70744000D01*
X53361129Y-79506652D02*
X60870000Y-71997781D01*
%TO.N,/PORT1B*%
X38354000Y-81788000D02*
X117856000Y-81788000D01*
X76795567Y-31438999D02*
X66704999Y-31438999D01*
X66210000Y-30944000D02*
X53723775Y-30944000D01*
X66704999Y-31438999D02*
X66210000Y-30944000D01*
X50600519Y-28829000D02*
X53140519Y-31369000D01*
X38354000Y-56642000D02*
X45736477Y-56642000D01*
X77979853Y-32623285D02*
X76795567Y-31438999D01*
X45741129Y-56646652D02*
X50821129Y-56646652D01*
X50821129Y-56646652D02*
X53361129Y-59186652D01*
X45520519Y-28829000D02*
X50600519Y-28829000D01*
%TO.N,CLOCK*%
X62737000Y-152400000D02*
X58165000Y-152400000D01*
X108770001Y-61923999D02*
X103630001Y-61923999D01*
X103630001Y-61923999D02*
X102498500Y-63055500D01*
X64762771Y-59436000D02*
X76835000Y-59436000D01*
X115290000Y-179044000D02*
X131344000Y-179044000D01*
X114554000Y-151130000D02*
X64007000Y-151130000D01*
X77978000Y-121920000D02*
X81280000Y-121920000D01*
X95440500Y-63055500D02*
X92964000Y-60579000D01*
X76835000Y-59436000D02*
X77978000Y-60579000D01*
X92964000Y-60579000D02*
X77978000Y-60579000D01*
X107950000Y-171704000D02*
X115290000Y-179044000D01*
X102498500Y-63055500D02*
X95440500Y-63055500D01*
X82110888Y-171704000D02*
X107950000Y-171704000D01*
X110110000Y-60584000D02*
X108770001Y-61923999D01*
X64007000Y-151130000D02*
X62737000Y-152400000D01*
X81280000Y-170873112D02*
X81280000Y-173413112D01*
X63410000Y-60584000D02*
X64762771Y-59436000D01*
X81280000Y-170873112D02*
X82110888Y-171704000D01*
X131344000Y-179044000D02*
X137668000Y-172720000D01*
X115824000Y-149860000D02*
X114554000Y-151130000D01*
%TO.N,/PORT2B*%
X110110000Y-55504000D02*
X121412000Y-55499000D01*
%TO.N,Net-(U6-Pad7)*%
X130048000Y-157480000D02*
X133858000Y-161290000D01*
X145415000Y-161290000D02*
X145923000Y-161798000D01*
X133858000Y-161290000D02*
X145415000Y-161290000D01*
X145923000Y-163378570D02*
X144201570Y-165100000D01*
X145923000Y-161798000D02*
X145923000Y-163378570D01*
%TO.N,Net-(U6-Pad9)*%
X150368000Y-160782000D02*
X150368000Y-166186430D01*
X130048000Y-154940000D02*
X133858000Y-158750000D01*
X150368000Y-166186430D02*
X151821570Y-167640000D01*
X133858000Y-158750000D02*
X148336000Y-158750000D01*
X148336000Y-158750000D02*
X150368000Y-160782000D01*
D33*
%TO.N,Net-(C2-Pad1)*%
X136906000Y-55118000D02*
X137668000Y-55880000D01*
X159647998Y-80772000D02*
X161544000Y-80772000D01*
X136906000Y-55118000D02*
X133858000Y-55118000D01*
X139954000Y-48760800D02*
X139954000Y-52070000D01*
X143510000Y-86106000D02*
X154313998Y-86106000D01*
X154313998Y-86106000D02*
X159647998Y-80772000D01*
X141478000Y-84074000D02*
X143510000Y-86106000D01*
X137668000Y-80264000D02*
X141478000Y-84074000D01*
X137668000Y-55880000D02*
X137668000Y-80264000D01*
X139954000Y-52070000D02*
X136906000Y-55118000D01*
D34*
%TO.N,/NMIB*%
X68072000Y-100838000D02*
X116332000Y-100838000D01*
X68071000Y-127000000D02*
X66040000Y-127000000D01*
X110232000Y-58166000D02*
X118364000Y-58166000D01*
%TO.N,/DMAB*%
X81280000Y-124460000D02*
X84720000Y-124460000D01*
X93529001Y-68129001D02*
X105048199Y-68129001D01*
X105048199Y-68129001D02*
X106173201Y-67003999D01*
X115824000Y-175260000D02*
X114554000Y-175260000D01*
X106173201Y-67003999D02*
X108909999Y-67003999D01*
X108909999Y-67003999D02*
X110110000Y-68204000D01*
X93472000Y-68072000D02*
X93529001Y-68129001D01*
X91948000Y-129032000D02*
X91694000Y-128778000D01*
X98806000Y-129032000D02*
X91948000Y-129032000D01*
X91694000Y-128778000D02*
X86360000Y-128778000D01*
X85090000Y-127508000D02*
X85090000Y-124830000D01*
X109474000Y-170180000D02*
X98806000Y-170180000D01*
X86360000Y-128778000D02*
X85090000Y-127508000D01*
X114554000Y-175260000D02*
X109474000Y-170180000D01*
D33*
%TO.N,Net-(F2-Pad1)*%
X144272000Y-59436000D02*
X141478000Y-62230000D01*
X148844000Y-59436000D02*
X144272000Y-59436000D01*
X153162000Y-44450000D02*
X151384000Y-46228000D01*
X151384000Y-46228000D02*
X151384000Y-56896000D01*
X151384000Y-56896000D02*
X148844000Y-59436000D01*
D34*
%TO.N,Net-(J11-Pad2)*%
X90678000Y-105664000D02*
X90678000Y-124460000D01*
X90678000Y-124460000D02*
X87630000Y-127508000D01*
X89408000Y-104394000D02*
X90678000Y-105664000D01*
%TO.N,no_connect_129*%
X157872000Y-51720000D02*
X157872000Y-39680000D01*
%TD*%
M02*
