%TF.GenerationSoftware,KiCad,Pcbnew,(5.99.0-7129-g2932fe1e64)*%
%TF.CreationDate,2020-11-22T16:30:12+08:00*%
%TF.ProjectId,MotherBoard,4d6f7468-6572-4426-9f61-72642e6b6963,rev?*%
%TF.SameCoordinates,Original*%
%TF.FileFunction,Copper,L1,Top*%
%TF.FilePolarity,Positive*%
%FSLAX46Y46*%
G04 Gerber Fmt 4.6, Leading zero omitted, Abs format (unit mm)*
G04 Created by KiCad (PCBNEW (5.99.0-7129-g2932fe1e64)) date 2020-11-22 16:30:12*
%MOMM*%
%LPD*%
G01*
G04 APERTURE LIST*
G04 Aperture macros list*
%AMRoundRect*
0 Rectangle with rounded corners*
0 $1 Rounding radius*
0 $2 $3 $4 $5 $6 $7 $8 $9 X,Y pos of 4 corners*
0 Add a 4 corners polygon primitive as box body*
4,1,4,$2,$3,$4,$5,$6,$7,$8,$9,$2,$3,0*
0 Add four circle primitives for the rounded corners*
1,1,$1+$1,$2,$3,0*
1,1,$1+$1,$4,$5,0*
1,1,$1+$1,$6,$7,0*
1,1,$1+$1,$8,$9,0*
0 Add four rect primitives between the rounded corners*
20,1,$1+$1,$2,$3,$4,$5,0*
20,1,$1+$1,$4,$5,$6,$7,0*
20,1,$1+$1,$6,$7,$8,$9,0*
20,1,$1+$1,$8,$9,$2,$3,0*%
G04 Aperture macros list end*
%TA.AperFunction,ComponentPad*%
%ADD10R,1.600000X1.600000*%
%TD*%
%TA.AperFunction,ComponentPad*%
%ADD11O,1.600000X1.600000*%
%TD*%
%TA.AperFunction,ComponentPad*%
%ADD12R,1.700000X1.700000*%
%TD*%
%TA.AperFunction,ComponentPad*%
%ADD13O,1.700000X1.700000*%
%TD*%
%TA.AperFunction,ComponentPad*%
%ADD14C,1.600000*%
%TD*%
%TA.AperFunction,ComponentPad*%
%ADD15C,3.200000*%
%TD*%
%TA.AperFunction,ComponentPad*%
%ADD16C,2.000000*%
%TD*%
%TA.AperFunction,ComponentPad*%
%ADD17R,1.905000X2.000000*%
%TD*%
%TA.AperFunction,ComponentPad*%
%ADD18O,1.905000X2.000000*%
%TD*%
%TA.AperFunction,ComponentPad*%
%ADD19O,2.000000X2.000000*%
%TD*%
%TA.AperFunction,ComponentPad*%
%ADD20R,3.500000X3.500000*%
%TD*%
%TA.AperFunction,ComponentPad*%
%ADD21RoundRect,0.750000X0.750000X1.000000X-0.750000X1.000000X-0.750000X-1.000000X0.750000X-1.000000X0*%
%TD*%
%TA.AperFunction,ComponentPad*%
%ADD22RoundRect,0.875000X0.875000X0.875000X-0.875000X0.875000X-0.875000X-0.875000X0.875000X-0.875000X0*%
%TD*%
%TA.AperFunction,ComponentPad*%
%ADD23R,1.800000X1.800000*%
%TD*%
%TA.AperFunction,ComponentPad*%
%ADD24C,1.800000*%
%TD*%
%TA.AperFunction,ViaPad*%
%ADD25C,0.600000*%
%TD*%
%TA.AperFunction,Conductor*%
%ADD26C,0.300000*%
%TD*%
%TA.AperFunction,Conductor*%
%ADD27C,0.500000*%
%TD*%
G04 APERTURE END LIST*
D10*
%TO.P,U7,1*%
%TO.N,Net-(U7-Pad1)*%
X124460000Y-157480000D03*
D11*
%TO.P,U7,2*%
%TO.N,Net-(U7-Pad2)*%
X124460000Y-160020000D03*
%TO.P,U7,3*%
%TO.N,Net-(U7-Pad1)*%
X124460000Y-162560000D03*
%TO.P,U7,4*%
%TO.N,Net-(U7-Pad2)*%
X124460000Y-165100000D03*
%TO.P,U7,5*%
%TO.N,/A10*%
X124460000Y-167640000D03*
%TO.P,U7,6*%
%TO.N,/PORT1B*%
X124460000Y-170180000D03*
%TO.P,U7,7,VSS*%
%TO.N,GND*%
X124460000Y-172720000D03*
%TO.P,U7,8*%
%TO.N,Net-(U7-Pad8)*%
X132080000Y-172720000D03*
%TO.P,U7,9*%
%TO.N,/IOCSB*%
X132080000Y-170180000D03*
%TO.P,U7,10*%
%TO.N,/PORT2B*%
X132080000Y-167640000D03*
%TO.P,U7,11*%
%TO.N,Net-(U7-Pad1)*%
X132080000Y-165100000D03*
%TO.P,U7,12*%
%TO.N,/A11*%
X132080000Y-162560000D03*
%TO.P,U7,13*%
%TO.N,+5V*%
X132080000Y-160020000D03*
%TO.P,U7,14,VDD*%
X132080000Y-157480000D03*
%TD*%
D10*
%TO.P,U10,1,G1*%
%TO.N,/PORT2B*%
X91821000Y-56769000D03*
D11*
%TO.P,U10,2,A0*%
%TO.N,/A8*%
X91821000Y-59309000D03*
%TO.P,U10,3,A1*%
%TO.N,/A9*%
X91821000Y-61849000D03*
%TO.P,U10,4,A2*%
%TO.N,/A10*%
X91821000Y-64389000D03*
%TO.P,U10,5,A3*%
%TO.N,/A11*%
X91821000Y-66929000D03*
%TO.P,U10,6,A4*%
%TO.N,/A12*%
X91821000Y-69469000D03*
%TO.P,U10,7,A5*%
%TO.N,/A13*%
X91821000Y-72009000D03*
%TO.P,U10,8,A6*%
%TO.N,/A14*%
X91821000Y-74549000D03*
%TO.P,U10,9,A7*%
%TO.N,GND*%
X91821000Y-77089000D03*
%TO.P,U10,10,GND*%
X91821000Y-79629000D03*
%TO.P,U10,11,Y7*%
%TO.N,Net-(U10-Pad11)*%
X99441000Y-79629000D03*
%TO.P,U10,12,Y6*%
%TO.N,Net-(J8-Pad15)*%
X99441000Y-77089000D03*
%TO.P,U10,13,Y5*%
%TO.N,Net-(J8-Pad14)*%
X99441000Y-74549000D03*
%TO.P,U10,14,Y4*%
%TO.N,Net-(J8-Pad13)*%
X99441000Y-72009000D03*
%TO.P,U10,15,Y3*%
%TO.N,Net-(J8-Pad12)*%
X99441000Y-69469000D03*
%TO.P,U10,16,Y2*%
%TO.N,Net-(J8-Pad11)*%
X99441000Y-66929000D03*
%TO.P,U10,17,Y1*%
%TO.N,Net-(J8-Pad10)*%
X99441000Y-64389000D03*
%TO.P,U10,18,Y0*%
%TO.N,Net-(J8-Pad9)*%
X99441000Y-61849000D03*
%TO.P,U10,19,G2*%
%TO.N,/PORT2B*%
X99441000Y-59309000D03*
%TO.P,U10,20,VCC*%
%TO.N,+5V*%
X99441000Y-56769000D03*
%TD*%
D12*
%TO.P,J5,1,Pin_1*%
%TO.N,PB0*%
X30225000Y-137160000D03*
D13*
%TO.P,J5,2,Pin_2*%
%TO.N,PB1*%
X30225000Y-139700000D03*
%TO.P,J5,3,Pin_3*%
%TO.N,PB2*%
X30225000Y-142240000D03*
%TO.P,J5,4,Pin_4*%
%TO.N,PB3*%
X30225000Y-144780000D03*
%TO.P,J5,5,Pin_5*%
%TO.N,PB4*%
X30225000Y-147320000D03*
%TO.P,J5,6,Pin_6*%
%TO.N,PB5*%
X30225000Y-149860000D03*
%TO.P,J5,7,Pin_7*%
%TO.N,PB6*%
X30225000Y-152400000D03*
%TO.P,J5,8,Pin_8*%
%TO.N,PB7*%
X30225000Y-154940000D03*
%TO.P,J5,9,Pin_9*%
%TO.N,CB1*%
X30225000Y-157480000D03*
%TO.P,J5,10,Pin_10*%
%TO.N,CB2*%
X30225000Y-160020000D03*
%TD*%
D10*
%TO.P,U3,1,GND*%
%TO.N,GND*%
X42925000Y-114300000D03*
D11*
%TO.P,U3,2,PA0*%
%TO.N,PA0*%
X42925000Y-116840000D03*
%TO.P,U3,3,PA1*%
%TO.N,PA1*%
X42925000Y-119380000D03*
%TO.P,U3,4,PA2*%
%TO.N,PA2*%
X42925000Y-121920000D03*
%TO.P,U3,5,PA3*%
%TO.N,PA3*%
X42925000Y-124460000D03*
%TO.P,U3,6,PA4*%
%TO.N,PA4*%
X42925000Y-127000000D03*
%TO.P,U3,7,PA5*%
%TO.N,PA5*%
X42925000Y-129540000D03*
%TO.P,U3,8,PA6*%
%TO.N,PA6*%
X42925000Y-132080000D03*
%TO.P,U3,9,PA7*%
%TO.N,PA7*%
X42925000Y-134620000D03*
%TO.P,U3,10,PB0*%
%TO.N,PB0*%
X42925000Y-137160000D03*
%TO.P,U3,11,PB1*%
%TO.N,PB1*%
X42925000Y-139700000D03*
%TO.P,U3,12,PB2*%
%TO.N,PB2*%
X42925000Y-142240000D03*
%TO.P,U3,13,PB3*%
%TO.N,PB3*%
X42925000Y-144780000D03*
%TO.P,U3,14,PB4*%
%TO.N,PB4*%
X42925000Y-147320000D03*
%TO.P,U3,15,PB5*%
%TO.N,PB5*%
X42925000Y-149860000D03*
%TO.P,U3,16,PB6*%
%TO.N,PB6*%
X42925000Y-152400000D03*
%TO.P,U3,17,PB7*%
%TO.N,PB7*%
X42925000Y-154940000D03*
%TO.P,U3,18,CB1*%
%TO.N,CB1*%
X42925000Y-157480000D03*
%TO.P,U3,19,CB2*%
%TO.N,CB2*%
X42925000Y-160020000D03*
%TO.P,U3,20,VCC*%
%TO.N,+5V*%
X42925000Y-162560000D03*
%TO.P,U3,21,~IRQ*%
%TO.N,Net-(U3-Pad21)*%
X58165000Y-162560000D03*
%TO.P,U3,22,R/~W*%
%TO.N,/RW*%
X58165000Y-160020000D03*
%TO.P,U3,23,~CS2*%
%TO.N,/IOCSB*%
X58165000Y-157480000D03*
%TO.P,U3,24,CS1*%
%TO.N,+5V*%
X58165000Y-154940000D03*
%TO.P,U3,25,PHI2*%
%TO.N,/CLOCK*%
X58165000Y-152400000D03*
%TO.P,U3,26,D7*%
%TO.N,/D7*%
X58165000Y-149860000D03*
%TO.P,U3,27,D6*%
%TO.N,/D6*%
X58165000Y-147320000D03*
%TO.P,U3,28,D5*%
%TO.N,/D5*%
X58165000Y-144780000D03*
%TO.P,U3,29,D4*%
%TO.N,/D4*%
X58165000Y-142240000D03*
%TO.P,U3,30,D3*%
%TO.N,/D3*%
X58165000Y-139700000D03*
%TO.P,U3,31,D2*%
%TO.N,/D2*%
X58165000Y-137160000D03*
%TO.P,U3,32,D1*%
%TO.N,/D1*%
X58165000Y-134620000D03*
%TO.P,U3,33,D0*%
%TO.N,/D0*%
X58165000Y-132080000D03*
%TO.P,U3,34,~RESET*%
%TO.N,RESET*%
X58165000Y-129540000D03*
%TO.P,U3,35,RS3*%
%TO.N,/A3*%
X58165000Y-127000000D03*
%TO.P,U3,36,RS2*%
%TO.N,/A2*%
X58165000Y-124460000D03*
%TO.P,U3,37,RS1*%
%TO.N,/A1*%
X58165000Y-121920000D03*
%TO.P,U3,38,RS0*%
%TO.N,/A0*%
X58165000Y-119380000D03*
%TO.P,U3,39,CA2*%
%TO.N,CA2*%
X58165000Y-116840000D03*
%TO.P,U3,40,CA1*%
%TO.N,CA1*%
X58165000Y-114300000D03*
%TD*%
D10*
%TO.P,U14,1,G1*%
%TO.N,/PORT1B*%
X45678775Y-28829000D03*
D11*
%TO.P,U14,2,A0*%
%TO.N,/A0*%
X45678775Y-31369000D03*
%TO.P,U14,3,A1*%
%TO.N,/A1*%
X45678775Y-33909000D03*
%TO.P,U14,4,A2*%
%TO.N,/A2*%
X45678775Y-36449000D03*
%TO.P,U14,5,A3*%
%TO.N,/A3*%
X45678775Y-38989000D03*
%TO.P,U14,6,A4*%
%TO.N,/A4*%
X45678775Y-41529000D03*
%TO.P,U14,7,A5*%
%TO.N,/A5*%
X45678775Y-44069000D03*
%TO.P,U14,8,A6*%
%TO.N,/A6*%
X45678775Y-46609000D03*
%TO.P,U14,9,A7*%
%TO.N,/A7*%
X45678775Y-49149000D03*
%TO.P,U14,10,GND*%
%TO.N,GND*%
X45678775Y-51689000D03*
%TO.P,U14,11,Y7*%
%TO.N,Net-(J7-Pad8)*%
X53298775Y-51689000D03*
%TO.P,U14,12,Y6*%
%TO.N,Net-(J7-Pad7)*%
X53298775Y-49149000D03*
%TO.P,U14,13,Y5*%
%TO.N,Net-(J7-Pad6)*%
X53298775Y-46609000D03*
%TO.P,U14,14,Y4*%
%TO.N,Net-(J7-Pad5)*%
X53298775Y-44069000D03*
%TO.P,U14,15,Y3*%
%TO.N,Net-(J7-Pad4)*%
X53298775Y-41529000D03*
%TO.P,U14,16,Y2*%
%TO.N,Net-(J7-Pad3)*%
X53298775Y-38989000D03*
%TO.P,U14,17,Y1*%
%TO.N,Net-(J7-Pad2)*%
X53298775Y-36449000D03*
%TO.P,U14,18,Y0*%
%TO.N,Net-(J7-Pad1)*%
X53298775Y-33909000D03*
%TO.P,U14,19,G2*%
%TO.N,/PORT1B*%
X53298775Y-31369000D03*
%TO.P,U14,20,VCC*%
%TO.N,+5V*%
X53298775Y-28829000D03*
%TD*%
D12*
%TO.P,J2,1,Pin_1*%
%TO.N,PA0*%
X30225000Y-109220000D03*
D13*
%TO.P,J2,2,Pin_2*%
%TO.N,PA1*%
X30225000Y-111760000D03*
%TO.P,J2,3,Pin_3*%
%TO.N,PA2*%
X30225000Y-114300000D03*
%TO.P,J2,4,Pin_4*%
%TO.N,PA3*%
X30225000Y-116840000D03*
%TO.P,J2,5,Pin_5*%
%TO.N,PA4*%
X30225000Y-119380000D03*
%TO.P,J2,6,Pin_6*%
%TO.N,PA5*%
X30225000Y-121920000D03*
%TO.P,J2,7,Pin_7*%
%TO.N,PA6*%
X30225000Y-124460000D03*
%TO.P,J2,8,Pin_8*%
%TO.N,PA7*%
X30225000Y-127000000D03*
%TO.P,J2,9,Pin_9*%
%TO.N,CA1*%
X30225000Y-129540000D03*
%TO.P,J2,10,Pin_10*%
%TO.N,CA2*%
X30225000Y-132080000D03*
%TD*%
D10*
%TO.P,U4,1,A14*%
%TO.N,/A14*%
X101600000Y-106680000D03*
D11*
%TO.P,U4,2,A12*%
%TO.N,/A12*%
X101600000Y-109220000D03*
%TO.P,U4,3,A7*%
%TO.N,/A7*%
X101600000Y-111760000D03*
%TO.P,U4,4,A6*%
%TO.N,/A6*%
X101600000Y-114300000D03*
%TO.P,U4,5,A5*%
%TO.N,/A5*%
X101600000Y-116840000D03*
%TO.P,U4,6,A4*%
%TO.N,/A4*%
X101600000Y-119380000D03*
%TO.P,U4,7,A3*%
%TO.N,/A3*%
X101600000Y-121920000D03*
%TO.P,U4,8,A2*%
%TO.N,/A2*%
X101600000Y-124460000D03*
%TO.P,U4,9,A1*%
%TO.N,/A1*%
X101600000Y-127000000D03*
%TO.P,U4,10,A0*%
%TO.N,/A0*%
X101600000Y-129540000D03*
%TO.P,U4,11,Q0*%
%TO.N,/D0*%
X101600000Y-132080000D03*
%TO.P,U4,12,Q1*%
%TO.N,/D1*%
X101600000Y-134620000D03*
%TO.P,U4,13,Q2*%
%TO.N,/D2*%
X101600000Y-137160000D03*
%TO.P,U4,14,GND*%
%TO.N,GND*%
X101600000Y-139700000D03*
%TO.P,U4,15,Q3*%
%TO.N,/D3*%
X116840000Y-139700000D03*
%TO.P,U4,16,Q4*%
%TO.N,/D4*%
X116840000Y-137160000D03*
%TO.P,U4,17,Q5*%
%TO.N,/D5*%
X116840000Y-134620000D03*
%TO.P,U4,18,Q6*%
%TO.N,/D6*%
X116840000Y-132080000D03*
%TO.P,U4,19,Q7*%
%TO.N,/D7*%
X116840000Y-129540000D03*
%TO.P,U4,20,~CS*%
%TO.N,/RAMCSB*%
X116840000Y-127000000D03*
%TO.P,U4,21,A10*%
%TO.N,/A10*%
X116840000Y-124460000D03*
%TO.P,U4,22,~OE*%
%TO.N,GND*%
X116840000Y-121920000D03*
%TO.P,U4,23,A11*%
%TO.N,/A11*%
X116840000Y-119380000D03*
%TO.P,U4,24,A9*%
%TO.N,/A9*%
X116840000Y-116840000D03*
%TO.P,U4,25,A8*%
%TO.N,/A8*%
X116840000Y-114300000D03*
%TO.P,U4,26,A13*%
%TO.N,/A13*%
X116840000Y-111760000D03*
%TO.P,U4,27,~WE*%
%TO.N,/RW*%
X116840000Y-109220000D03*
%TO.P,U4,28,VCC*%
%TO.N,+5V*%
X116840000Y-106680000D03*
%TD*%
D10*
%TO.P,X1,1,NC*%
%TO.N,Net-(X1-Pad1)*%
X58420000Y-178383903D03*
D14*
%TO.P,X1,7,GND*%
%TO.N,GND*%
X73660000Y-178383903D03*
%TO.P,X1,8,OUT*%
%TO.N,Net-(J9-Pad1)*%
X73660000Y-170763903D03*
%TO.P,X1,14,Vcc*%
%TO.N,+5V*%
X58420000Y-170763903D03*
%TD*%
D12*
%TO.P,J8,1,Pin_1*%
%TO.N,Net-(J8-Pad1)*%
X106680000Y-33909000D03*
D13*
%TO.P,J8,2,Pin_2*%
%TO.N,Net-(J8-Pad2)*%
X106680000Y-36449000D03*
%TO.P,J8,3,Pin_3*%
%TO.N,Net-(J8-Pad3)*%
X106680000Y-38989000D03*
%TO.P,J8,4,Pin_4*%
%TO.N,Net-(J8-Pad4)*%
X106680000Y-41529000D03*
%TO.P,J8,5,Pin_5*%
%TO.N,Net-(J8-Pad5)*%
X106680000Y-44069000D03*
%TO.P,J8,6,Pin_6*%
%TO.N,Net-(J8-Pad6)*%
X106680000Y-46609000D03*
%TO.P,J8,7,Pin_7*%
%TO.N,Net-(J8-Pad7)*%
X106680000Y-49149000D03*
%TO.P,J8,8,Pin_8*%
%TO.N,Net-(J8-Pad8)*%
X106680000Y-51689000D03*
%TO.P,J8,9,Pin_9*%
%TO.N,Net-(J8-Pad9)*%
X106680000Y-54229000D03*
%TO.P,J8,10,Pin_10*%
%TO.N,Net-(J8-Pad10)*%
X106680000Y-56769000D03*
%TO.P,J8,11,Pin_11*%
%TO.N,Net-(J8-Pad11)*%
X106680000Y-59309000D03*
%TO.P,J8,12,Pin_12*%
%TO.N,Net-(J8-Pad12)*%
X106680000Y-61849000D03*
%TO.P,J8,13,Pin_13*%
%TO.N,Net-(J8-Pad13)*%
X106680000Y-64389000D03*
%TO.P,J8,14,Pin_14*%
%TO.N,Net-(J8-Pad14)*%
X106680000Y-66929000D03*
%TO.P,J8,15,Pin_15*%
%TO.N,Net-(J8-Pad15)*%
X106680000Y-69469000D03*
%TD*%
D14*
%TO.P,C2,1*%
%TO.N,+5V*%
X132588000Y-68293990D03*
%TO.P,C2,2*%
%TO.N,GND*%
X132588000Y-66293990D03*
%TD*%
D12*
%TO.P,J7,1,Pin_1*%
%TO.N,Net-(J7-Pad1)*%
X60060157Y-33909000D03*
D13*
%TO.P,J7,2,Pin_2*%
%TO.N,Net-(J7-Pad2)*%
X60060157Y-36449000D03*
%TO.P,J7,3,Pin_3*%
%TO.N,Net-(J7-Pad3)*%
X60060157Y-38989000D03*
%TO.P,J7,4,Pin_4*%
%TO.N,Net-(J7-Pad4)*%
X60060157Y-41529000D03*
%TO.P,J7,5,Pin_5*%
%TO.N,Net-(J7-Pad5)*%
X60060157Y-44069000D03*
%TO.P,J7,6,Pin_6*%
%TO.N,Net-(J7-Pad6)*%
X60060157Y-46609000D03*
%TO.P,J7,7,Pin_7*%
%TO.N,Net-(J7-Pad7)*%
X60060157Y-49149000D03*
%TO.P,J7,8,Pin_8*%
%TO.N,Net-(J7-Pad8)*%
X60060157Y-51689000D03*
%TO.P,J7,9,Pin_9*%
%TO.N,Net-(J7-Pad9)*%
X60060157Y-54229000D03*
%TO.P,J7,10,Pin_10*%
%TO.N,Net-(J7-Pad10)*%
X60060157Y-56769000D03*
%TO.P,J7,11,Pin_11*%
%TO.N,Net-(J7-Pad11)*%
X60060157Y-59309000D03*
%TO.P,J7,12,Pin_12*%
%TO.N,Net-(J7-Pad12)*%
X60060157Y-61849000D03*
%TO.P,J7,13,Pin_13*%
%TO.N,Net-(J7-Pad13)*%
X60060157Y-64389000D03*
%TO.P,J7,14,Pin_14*%
%TO.N,Net-(J7-Pad14)*%
X60060157Y-66929000D03*
%TO.P,J7,15,Pin_15*%
%TO.N,Net-(J7-Pad15)*%
X60060157Y-69469000D03*
%TD*%
D14*
%TO.P,C1,1*%
%TO.N,Net-(C1-Pad1)*%
X153162000Y-68325500D03*
%TO.P,C1,2*%
%TO.N,GND*%
X153162000Y-66325500D03*
%TD*%
D15*
%TO.P,H4,1,1*%
%TO.N,GND*%
X163116157Y-180000000D03*
%TD*%
D14*
%TO.P,R1,1*%
%TO.N,Net-(R1-Pad1)*%
X63263000Y-116895831D03*
D11*
%TO.P,R1,2*%
%TO.N,+5V*%
X63263000Y-127055831D03*
%TD*%
D14*
%TO.P,R4,1*%
%TO.N,Net-(D1-Pad1)*%
X132842000Y-44381301D03*
D11*
%TO.P,R4,2*%
%TO.N,GND*%
X143002000Y-44381301D03*
%TD*%
D10*
%TO.P,U13,1,G1*%
%TO.N,/PORT1B*%
X45741129Y-56646652D03*
D11*
%TO.P,U13,2,A0*%
%TO.N,/A8*%
X45741129Y-59186652D03*
%TO.P,U13,3,A1*%
%TO.N,/A9*%
X45741129Y-61726652D03*
%TO.P,U13,4,A2*%
%TO.N,/A10*%
X45741129Y-64266652D03*
%TO.P,U13,5,A3*%
%TO.N,/A11*%
X45741129Y-66806652D03*
%TO.P,U13,6,A4*%
%TO.N,/A12*%
X45741129Y-69346652D03*
%TO.P,U13,7,A5*%
%TO.N,/A13*%
X45741129Y-71886652D03*
%TO.P,U13,8,A6*%
%TO.N,/A14*%
X45741129Y-74426652D03*
%TO.P,U13,9,A7*%
%TO.N,GND*%
X45741129Y-76966652D03*
%TO.P,U13,10,GND*%
X45741129Y-79506652D03*
%TO.P,U13,11,Y7*%
%TO.N,Net-(U13-Pad11)*%
X53361129Y-79506652D03*
%TO.P,U13,12,Y6*%
%TO.N,Net-(J7-Pad15)*%
X53361129Y-76966652D03*
%TO.P,U13,13,Y5*%
%TO.N,Net-(J7-Pad14)*%
X53361129Y-74426652D03*
%TO.P,U13,14,Y4*%
%TO.N,Net-(J7-Pad13)*%
X53361129Y-71886652D03*
%TO.P,U13,15,Y3*%
%TO.N,Net-(J7-Pad12)*%
X53361129Y-69346652D03*
%TO.P,U13,16,Y2*%
%TO.N,Net-(J7-Pad11)*%
X53361129Y-66806652D03*
%TO.P,U13,17,Y1*%
%TO.N,Net-(J7-Pad10)*%
X53361129Y-64266652D03*
%TO.P,U13,18,Y0*%
%TO.N,Net-(J7-Pad9)*%
X53361129Y-61726652D03*
%TO.P,U13,19,G2*%
%TO.N,/PORT1B*%
X53361129Y-59186652D03*
%TO.P,U13,20,VCC*%
%TO.N,+5V*%
X53361129Y-56646652D03*
%TD*%
D10*
%TO.P,U11,1,DIR*%
%TO.N,/RW*%
X117094000Y-30099000D03*
D11*
%TO.P,U11,2,A1*%
%TO.N,Net-(J4-Pad1)*%
X117094000Y-32639000D03*
%TO.P,U11,3,A2*%
%TO.N,Net-(J4-Pad2)*%
X117094000Y-35179000D03*
%TO.P,U11,4,A3*%
%TO.N,Net-(J4-Pad3)*%
X117094000Y-37719000D03*
%TO.P,U11,5,A4*%
%TO.N,Net-(J4-Pad4)*%
X117094000Y-40259000D03*
%TO.P,U11,6,A5*%
%TO.N,Net-(J4-Pad5)*%
X117094000Y-42799000D03*
%TO.P,U11,7,A6*%
%TO.N,Net-(J4-Pad6)*%
X117094000Y-45339000D03*
%TO.P,U11,8,A7*%
%TO.N,Net-(J4-Pad7)*%
X117094000Y-47879000D03*
%TO.P,U11,9,A8*%
%TO.N,Net-(J4-Pad8)*%
X117094000Y-50419000D03*
%TO.P,U11,10,GND*%
%TO.N,GND*%
X117094000Y-52959000D03*
%TO.P,U11,11,B8*%
%TO.N,/D7*%
X124714000Y-52959000D03*
%TO.P,U11,12,B7*%
%TO.N,/D6*%
X124714000Y-50419000D03*
%TO.P,U11,13,B6*%
%TO.N,/D5*%
X124714000Y-47879000D03*
%TO.P,U11,14,B5*%
%TO.N,/D4*%
X124714000Y-45339000D03*
%TO.P,U11,15,B4*%
%TO.N,/D3*%
X124714000Y-42799000D03*
%TO.P,U11,16,B3*%
%TO.N,/D2*%
X124714000Y-40259000D03*
%TO.P,U11,17,B2*%
%TO.N,/D1*%
X124714000Y-37719000D03*
%TO.P,U11,18,B1*%
%TO.N,/D0*%
X124714000Y-35179000D03*
%TO.P,U11,19,~OE*%
%TO.N,/PORT2B*%
X124714000Y-32639000D03*
%TO.P,U11,20,VCC*%
%TO.N,+5V*%
X124714000Y-30099000D03*
%TD*%
D12*
%TO.P,J3,1,Pin_1*%
%TO.N,Net-(J3-Pad1)*%
X63619771Y-32639000D03*
D13*
%TO.P,J3,2,Pin_2*%
%TO.N,Net-(J3-Pad2)*%
X63619771Y-35179000D03*
%TO.P,J3,3,Pin_3*%
%TO.N,Net-(J3-Pad3)*%
X63619771Y-37719000D03*
%TO.P,J3,4,Pin_4*%
%TO.N,Net-(J3-Pad4)*%
X63619771Y-40259000D03*
%TO.P,J3,5,Pin_5*%
%TO.N,Net-(J3-Pad5)*%
X63619771Y-42799000D03*
%TO.P,J3,6,Pin_6*%
%TO.N,Net-(J3-Pad6)*%
X63619771Y-45339000D03*
%TO.P,J3,7,Pin_7*%
%TO.N,Net-(J3-Pad7)*%
X63619771Y-47879000D03*
%TO.P,J3,8,Pin_8*%
%TO.N,Net-(J3-Pad8)*%
X63619771Y-50419000D03*
%TO.P,J3,9,Pin_9*%
%TO.N,/RW*%
X63619771Y-52959000D03*
%TO.P,J3,10,Pin_10*%
%TO.N,/PORT1B*%
X63619771Y-55499000D03*
%TO.P,J3,11,Pin_11*%
%TO.N,Net-(J3-Pad11)*%
X63619771Y-58039000D03*
%TO.P,J3,12,Pin_12*%
%TO.N,/CLOCK*%
X63619771Y-60579000D03*
%TO.P,J3,13,Pin_13*%
%TO.N,GND*%
X63619771Y-63119000D03*
%TO.P,J3,14,Pin_14*%
%TO.N,RESET*%
X63619771Y-65659000D03*
%TO.P,J3,15,Pin_15*%
%TO.N,+5V*%
X63619771Y-68199000D03*
%TD*%
D16*
%TO.P,SW1,1,1*%
%TO.N,RESET*%
X74902222Y-102782776D03*
X81402222Y-102782776D03*
%TO.P,SW1,2,2*%
%TO.N,GND*%
X81402222Y-107282776D03*
X74902222Y-107282776D03*
%TD*%
D12*
%TO.P,J6,1,Pin_1*%
%TO.N,+5V*%
X78740000Y-179324000D03*
D13*
%TO.P,J6,2,Pin_2*%
%TO.N,GND*%
X81280000Y-179324000D03*
%TO.P,J6,3,Pin_3*%
%TO.N,ECLOCK*%
X83820000Y-179324000D03*
%TO.P,J6,4,Pin_4*%
%TO.N,RESET*%
X86360000Y-179324000D03*
%TD*%
D10*
%TO.P,U2,1,A14*%
%TO.N,/A14*%
X126238000Y-106680000D03*
D11*
%TO.P,U2,2,A12*%
%TO.N,/A12*%
X126238000Y-109220000D03*
%TO.P,U2,3,A7*%
%TO.N,/A7*%
X126238000Y-111760000D03*
%TO.P,U2,4,A6*%
%TO.N,/A6*%
X126238000Y-114300000D03*
%TO.P,U2,5,A5*%
%TO.N,/A5*%
X126238000Y-116840000D03*
%TO.P,U2,6,A4*%
%TO.N,/A4*%
X126238000Y-119380000D03*
%TO.P,U2,7,A3*%
%TO.N,/A3*%
X126238000Y-121920000D03*
%TO.P,U2,8,A2*%
%TO.N,/A2*%
X126238000Y-124460000D03*
%TO.P,U2,9,A1*%
%TO.N,/A1*%
X126238000Y-127000000D03*
%TO.P,U2,10,A0*%
%TO.N,/A0*%
X126238000Y-129540000D03*
%TO.P,U2,11,D0*%
%TO.N,/D0*%
X126238000Y-132080000D03*
%TO.P,U2,12,D1*%
%TO.N,/D1*%
X126238000Y-134620000D03*
%TO.P,U2,13,D2*%
%TO.N,/D2*%
X126238000Y-137160000D03*
%TO.P,U2,14,GND*%
%TO.N,GND*%
X126238000Y-139700000D03*
%TO.P,U2,15,D3*%
%TO.N,/D3*%
X141478000Y-139700000D03*
%TO.P,U2,16,D4*%
%TO.N,/D4*%
X141478000Y-137160000D03*
%TO.P,U2,17,D5*%
%TO.N,/D5*%
X141478000Y-134620000D03*
%TO.P,U2,18,D6*%
%TO.N,/D6*%
X141478000Y-132080000D03*
%TO.P,U2,19,D7*%
%TO.N,/D7*%
X141478000Y-129540000D03*
%TO.P,U2,20,~CS*%
%TO.N,/ROMCSB*%
X141478000Y-127000000D03*
%TO.P,U2,21,A10*%
%TO.N,/A10*%
X141478000Y-124460000D03*
%TO.P,U2,22,~OE*%
%TO.N,GND*%
X141478000Y-121920000D03*
%TO.P,U2,23,A11*%
%TO.N,/A11*%
X141478000Y-119380000D03*
%TO.P,U2,24,A9*%
%TO.N,/A9*%
X141478000Y-116840000D03*
%TO.P,U2,25,A8*%
%TO.N,/A8*%
X141478000Y-114300000D03*
%TO.P,U2,26,A13*%
%TO.N,/A13*%
X141478000Y-111760000D03*
%TO.P,U2,27,~WE*%
%TO.N,+5V*%
X141478000Y-109220000D03*
%TO.P,U2,28,VCC*%
X141478000Y-106680000D03*
%TD*%
D14*
%TO.P,C6,1*%
%TO.N,+5V*%
X144289000Y-106680000D03*
%TO.P,C6,2*%
%TO.N,GND*%
X144289000Y-104180000D03*
%TD*%
D15*
%TO.P,H3,1,1*%
%TO.N,GND*%
X28116157Y-180000000D03*
%TD*%
D14*
%TO.P,C5,1*%
%TO.N,+5V*%
X40148000Y-162560000D03*
%TO.P,C5,2*%
%TO.N,GND*%
X40148000Y-165060000D03*
%TD*%
D17*
%TO.P,U1,1,GND*%
%TO.N,GND*%
X140462000Y-68325500D03*
D18*
%TO.P,U1,2,VO*%
%TO.N,+5V*%
X143002000Y-68325500D03*
%TO.P,U1,3,VI*%
%TO.N,Net-(C1-Pad1)*%
X145542000Y-68325500D03*
%TD*%
D12*
%TO.P,J4,1,Pin_1*%
%TO.N,Net-(J4-Pad1)*%
X110236000Y-32639000D03*
D13*
%TO.P,J4,2,Pin_2*%
%TO.N,Net-(J4-Pad2)*%
X110236000Y-35179000D03*
%TO.P,J4,3,Pin_3*%
%TO.N,Net-(J4-Pad3)*%
X110236000Y-37719000D03*
%TO.P,J4,4,Pin_4*%
%TO.N,Net-(J4-Pad4)*%
X110236000Y-40259000D03*
%TO.P,J4,5,Pin_5*%
%TO.N,Net-(J4-Pad5)*%
X110236000Y-42799000D03*
%TO.P,J4,6,Pin_6*%
%TO.N,Net-(J4-Pad6)*%
X110236000Y-45339000D03*
%TO.P,J4,7,Pin_7*%
%TO.N,Net-(J4-Pad7)*%
X110236000Y-47879000D03*
%TO.P,J4,8,Pin_8*%
%TO.N,Net-(J4-Pad8)*%
X110236000Y-50419000D03*
%TO.P,J4,9,Pin_9*%
%TO.N,/RW*%
X110236000Y-52959000D03*
%TO.P,J4,10,Pin_10*%
%TO.N,/PORT2B*%
X110236000Y-55499000D03*
%TO.P,J4,11,Pin_11*%
%TO.N,/NMIB*%
X110236000Y-58039000D03*
%TO.P,J4,12,Pin_12*%
%TO.N,/CLOCK*%
X110236000Y-60579000D03*
%TO.P,J4,13,Pin_13*%
%TO.N,GND*%
X110236000Y-63119000D03*
%TO.P,J4,14,Pin_14*%
%TO.N,RESET*%
X110236000Y-65659000D03*
%TO.P,J4,15,Pin_15*%
%TO.N,+5V*%
X110236000Y-68199000D03*
%TD*%
D16*
%TO.P,FB1,1*%
%TO.N,Net-(F1-Pad2)*%
X160782000Y-76072500D03*
D19*
%TO.P,FB1,2*%
%TO.N,Net-(C1-Pad1)*%
X148082000Y-76072500D03*
%TD*%
D14*
%TO.P,C7,1*%
%TO.N,+5V*%
X119651000Y-106680000D03*
%TO.P,C7,2*%
%TO.N,GND*%
X119651000Y-104180000D03*
%TD*%
%TO.P,F1,1*%
%TO.N,Net-(F1-Pad1)*%
X160782000Y-63245500D03*
%TO.P,F1,2*%
%TO.N,Net-(F1-Pad2)*%
X160782000Y-68325500D03*
%TD*%
D15*
%TO.P,H2,1,1*%
%TO.N,GND*%
X28116157Y-30000000D03*
%TD*%
D14*
%TO.P,C4,1*%
%TO.N,+5V*%
X63263000Y-132334000D03*
%TO.P,C4,2*%
%TO.N,GND*%
X63263000Y-129834000D03*
%TD*%
D20*
%TO.P,J1,1*%
%TO.N,Net-(F1-Pad1)*%
X154487802Y-53617266D03*
D21*
%TO.P,J1,2*%
%TO.N,GND*%
X160487802Y-53617266D03*
D22*
%TO.P,J1,3*%
%TO.N,N/C*%
X157487802Y-48917266D03*
%TD*%
D23*
%TO.P,D1,1,K*%
%TO.N,Net-(D1-Pad1)*%
X132842000Y-54355500D03*
D24*
%TO.P,D1,2,A*%
%TO.N,+5V*%
X130302000Y-54355500D03*
%TD*%
D12*
%TO.P,J10,1,Pin_1*%
%TO.N,+5V*%
X30225000Y-101600000D03*
D13*
%TO.P,J10,2,Pin_2*%
%TO.N,GND*%
X30225000Y-104140000D03*
%TD*%
D10*
%TO.P,U12,1,DIR*%
%TO.N,/RW*%
X70359853Y-30083285D03*
D11*
%TO.P,U12,2,A1*%
%TO.N,Net-(J3-Pad1)*%
X70359853Y-32623285D03*
%TO.P,U12,3,A2*%
%TO.N,Net-(J3-Pad2)*%
X70359853Y-35163285D03*
%TO.P,U12,4,A3*%
%TO.N,Net-(J3-Pad3)*%
X70359853Y-37703285D03*
%TO.P,U12,5,A4*%
%TO.N,Net-(J3-Pad4)*%
X70359853Y-40243285D03*
%TO.P,U12,6,A5*%
%TO.N,Net-(J3-Pad5)*%
X70359853Y-42783285D03*
%TO.P,U12,7,A6*%
%TO.N,Net-(J3-Pad6)*%
X70359853Y-45323285D03*
%TO.P,U12,8,A7*%
%TO.N,Net-(J3-Pad7)*%
X70359853Y-47863285D03*
%TO.P,U12,9,A8*%
%TO.N,Net-(J3-Pad8)*%
X70359853Y-50403285D03*
%TO.P,U12,10,GND*%
%TO.N,GND*%
X70359853Y-52943285D03*
%TO.P,U12,11,B8*%
%TO.N,/D7*%
X77979853Y-52943285D03*
%TO.P,U12,12,B7*%
%TO.N,/D6*%
X77979853Y-50403285D03*
%TO.P,U12,13,B6*%
%TO.N,/D5*%
X77979853Y-47863285D03*
%TO.P,U12,14,B5*%
%TO.N,/D4*%
X77979853Y-45323285D03*
%TO.P,U12,15,B4*%
%TO.N,/D3*%
X77979853Y-42783285D03*
%TO.P,U12,16,B3*%
%TO.N,/D2*%
X77979853Y-40243285D03*
%TO.P,U12,17,B2*%
%TO.N,/D1*%
X77979853Y-37703285D03*
%TO.P,U12,18,B1*%
%TO.N,/D0*%
X77979853Y-35163285D03*
%TO.P,U12,19,~OE*%
%TO.N,/PORT1B*%
X77979853Y-32623285D03*
%TO.P,U12,20,VCC*%
%TO.N,+5V*%
X77979853Y-30083285D03*
%TD*%
D14*
%TO.P,R2,1*%
%TO.N,+5V*%
X88900000Y-104140000D03*
D11*
%TO.P,R2,2*%
%TO.N,Net-(R2-Pad2)*%
X88900000Y-114300000D03*
%TD*%
D15*
%TO.P,H1,1,1*%
%TO.N,GND*%
X163116157Y-30000000D03*
%TD*%
D10*
%TO.P,U9,1,G1*%
%TO.N,/PORT2B*%
X91821000Y-28829000D03*
D11*
%TO.P,U9,2,A0*%
%TO.N,/A0*%
X91821000Y-31369000D03*
%TO.P,U9,3,A1*%
%TO.N,/A1*%
X91821000Y-33909000D03*
%TO.P,U9,4,A2*%
%TO.N,/A2*%
X91821000Y-36449000D03*
%TO.P,U9,5,A3*%
%TO.N,/A3*%
X91821000Y-38989000D03*
%TO.P,U9,6,A4*%
%TO.N,/A4*%
X91821000Y-41529000D03*
%TO.P,U9,7,A5*%
%TO.N,/A5*%
X91821000Y-44069000D03*
%TO.P,U9,8,A6*%
%TO.N,/A6*%
X91821000Y-46609000D03*
%TO.P,U9,9,A7*%
%TO.N,/A7*%
X91821000Y-49149000D03*
%TO.P,U9,10,GND*%
%TO.N,GND*%
X91821000Y-51689000D03*
%TO.P,U9,11,Y7*%
%TO.N,Net-(J8-Pad8)*%
X99441000Y-51689000D03*
%TO.P,U9,12,Y6*%
%TO.N,Net-(J8-Pad7)*%
X99441000Y-49149000D03*
%TO.P,U9,13,Y5*%
%TO.N,Net-(J8-Pad6)*%
X99441000Y-46609000D03*
%TO.P,U9,14,Y4*%
%TO.N,Net-(J8-Pad5)*%
X99441000Y-44069000D03*
%TO.P,U9,15,Y3*%
%TO.N,Net-(J8-Pad4)*%
X99441000Y-41529000D03*
%TO.P,U9,16,Y2*%
%TO.N,Net-(J8-Pad3)*%
X99441000Y-38989000D03*
%TO.P,U9,17,Y1*%
%TO.N,Net-(J8-Pad2)*%
X99441000Y-36449000D03*
%TO.P,U9,18,Y0*%
%TO.N,Net-(J8-Pad1)*%
X99441000Y-33909000D03*
%TO.P,U9,19,G2*%
%TO.N,/PORT2B*%
X99441000Y-31369000D03*
%TO.P,U9,20,VCC*%
%TO.N,+5V*%
X99441000Y-28829000D03*
%TD*%
D12*
%TO.P,J9,1,Pin_1*%
%TO.N,Net-(J9-Pad1)*%
X78740000Y-170873112D03*
D13*
%TO.P,J9,2,Pin_2*%
%TO.N,/CLOCK*%
X81280000Y-170873112D03*
%TO.P,J9,3,Pin_3*%
%TO.N,ECLOCK*%
X78740000Y-173413112D03*
%TO.P,J9,4,Pin_4*%
%TO.N,/CLOCK*%
X81280000Y-173413112D03*
%TD*%
D10*
%TO.P,U6,1*%
%TO.N,Net-(U6-Pad1)*%
X104140000Y-157480000D03*
D11*
%TO.P,U6,2*%
%TO.N,/ROMCSB*%
X104140000Y-160020000D03*
%TO.P,U6,3*%
%TO.N,/A14*%
X104140000Y-162560000D03*
%TO.P,U6,4*%
%TO.N,/A13*%
X104140000Y-165100000D03*
%TO.P,U6,5*%
%TO.N,/A12*%
X104140000Y-167640000D03*
%TO.P,U6,6*%
%TO.N,N/C*%
X104140000Y-170180000D03*
%TO.P,U6,7,VSS*%
%TO.N,GND*%
X104140000Y-172720000D03*
%TO.P,U6,8*%
%TO.N,N/C*%
X111760000Y-172720000D03*
%TO.P,U6,9*%
%TO.N,Net-(U6-Pad1)*%
X111760000Y-170180000D03*
%TO.P,U6,10*%
%TO.N,/ROMCSB*%
X111760000Y-167640000D03*
%TO.P,U6,11*%
%TO.N,/CLOCK*%
X111760000Y-165100000D03*
%TO.P,U6,12*%
%TO.N,+5V*%
X111760000Y-162560000D03*
%TO.P,U6,13*%
%TO.N,/RAMCSB*%
X111760000Y-160020000D03*
%TO.P,U6,14,VDD*%
%TO.N,+5V*%
X111760000Y-157480000D03*
%TD*%
D14*
%TO.P,C3,1*%
%TO.N,+5V*%
X86360000Y-124460000D03*
%TO.P,C3,2*%
%TO.N,GND*%
X86360000Y-122460000D03*
%TD*%
D10*
%TO.P,U8,1*%
%TO.N,/A15*%
X144780000Y-157480000D03*
D11*
%TO.P,U8,2*%
%TO.N,/ROMCSB*%
X144780000Y-160020000D03*
%TO.P,U8,3*%
%TO.N,/A11*%
X144780000Y-162560000D03*
%TO.P,U8,4*%
%TO.N,Net-(U7-Pad2)*%
X144780000Y-165100000D03*
%TO.P,U8,5*%
%TO.N,/A10*%
X144780000Y-167640000D03*
%TO.P,U8,6*%
%TO.N,Net-(U7-Pad8)*%
X144780000Y-170180000D03*
%TO.P,U8,7,VSS*%
%TO.N,GND*%
X144780000Y-172720000D03*
%TO.P,U8,8*%
%TO.N,Net-(U7-Pad1)*%
X152400000Y-172720000D03*
%TO.P,U8,9*%
%TO.N,Net-(U6-Pad1)*%
X152400000Y-170180000D03*
%TO.P,U8,10*%
%TO.N,Net-(U8-Pad10)*%
X152400000Y-167640000D03*
%TO.P,U8,11*%
%TO.N,+5V*%
X152400000Y-165100000D03*
%TO.P,U8,12*%
%TO.N,Net-(U8-Pad12)*%
X152400000Y-162560000D03*
%TO.P,U8,13*%
%TO.N,+5V*%
X152400000Y-160020000D03*
%TO.P,U8,14,VDD*%
X152400000Y-157480000D03*
%TD*%
D14*
%TO.P,R3,1*%
%TO.N,+5V*%
X85344000Y-104162330D03*
D11*
%TO.P,R3,2*%
%TO.N,RESET*%
X85344000Y-114322330D03*
%TD*%
D10*
%TO.P,U5,1,~VP*%
%TO.N,Net-(U5-Pad1)*%
X66040000Y-114300000D03*
D11*
%TO.P,U5,2,RDY*%
%TO.N,Net-(R1-Pad1)*%
X66040000Y-116840000D03*
%TO.P,U5,3,PHI1out*%
%TO.N,Net-(U5-Pad3)*%
X66040000Y-119380000D03*
%TO.P,U5,4,~IRQ*%
%TO.N,Net-(U3-Pad21)*%
X66040000Y-121920000D03*
%TO.P,U5,5,~ML*%
%TO.N,Net-(U5-Pad5)*%
X66040000Y-124460000D03*
%TO.P,U5,6,~NMI*%
%TO.N,/NMIB*%
X66040000Y-127000000D03*
%TO.P,U5,7,SYNC*%
%TO.N,Net-(U5-Pad7)*%
X66040000Y-129540000D03*
%TO.P,U5,8,VCC*%
%TO.N,+5V*%
X66040000Y-132080000D03*
%TO.P,U5,9,A0*%
%TO.N,/A0*%
X66040000Y-134620000D03*
%TO.P,U5,10,A1*%
%TO.N,/A1*%
X66040000Y-137160000D03*
%TO.P,U5,11,A2*%
%TO.N,/A2*%
X66040000Y-139700000D03*
%TO.P,U5,12,A3*%
%TO.N,/A3*%
X66040000Y-142240000D03*
%TO.P,U5,13,A4*%
%TO.N,/A4*%
X66040000Y-144780000D03*
%TO.P,U5,14,A5*%
%TO.N,/A5*%
X66040000Y-147320000D03*
%TO.P,U5,15,A6*%
%TO.N,/A6*%
X66040000Y-149860000D03*
%TO.P,U5,16,A7*%
%TO.N,/A7*%
X66040000Y-152400000D03*
%TO.P,U5,17,A8*%
%TO.N,/A8*%
X66040000Y-154940000D03*
%TO.P,U5,18,A9*%
%TO.N,/A9*%
X66040000Y-157480000D03*
%TO.P,U5,19,A10*%
%TO.N,/A10*%
X66040000Y-160020000D03*
%TO.P,U5,20,A11*%
%TO.N,/A11*%
X66040000Y-162560000D03*
%TO.P,U5,21,GND*%
%TO.N,GND*%
X81280000Y-162560000D03*
%TO.P,U5,22,A12*%
%TO.N,/A12*%
X81280000Y-160020000D03*
%TO.P,U5,23,A13*%
%TO.N,/A13*%
X81280000Y-157480000D03*
%TO.P,U5,24,A14*%
%TO.N,/A14*%
X81280000Y-154940000D03*
%TO.P,U5,25,A15*%
%TO.N,/A15*%
X81280000Y-152400000D03*
%TO.P,U5,26,D7*%
%TO.N,/D7*%
X81280000Y-149860000D03*
%TO.P,U5,27,D6*%
%TO.N,/D6*%
X81280000Y-147320000D03*
%TO.P,U5,28,D5*%
%TO.N,/D5*%
X81280000Y-144780000D03*
%TO.P,U5,29,D4*%
%TO.N,/D4*%
X81280000Y-142240000D03*
%TO.P,U5,30,D3*%
%TO.N,/D3*%
X81280000Y-139700000D03*
%TO.P,U5,31,D2*%
%TO.N,/D2*%
X81280000Y-137160000D03*
%TO.P,U5,32,D1*%
%TO.N,/D1*%
X81280000Y-134620000D03*
%TO.P,U5,33,D0*%
%TO.N,/D0*%
X81280000Y-132080000D03*
%TO.P,U5,34,R/~W*%
%TO.N,/RW*%
X81280000Y-129540000D03*
%TO.P,U5,35,NC*%
%TO.N,Net-(U5-Pad35)*%
X81280000Y-127000000D03*
%TO.P,U5,36,BE*%
%TO.N,+5V*%
X81280000Y-124460000D03*
%TO.P,U5,37,PHI2*%
%TO.N,/CLOCK*%
X81280000Y-121920000D03*
%TO.P,U5,38,~SO*%
%TO.N,Net-(R2-Pad2)*%
X81280000Y-119380000D03*
%TO.P,U5,39,PHI2out*%
%TO.N,Net-(U5-Pad39)*%
X81280000Y-116840000D03*
%TO.P,U5,40,~RESET*%
%TO.N,RESET*%
X81280000Y-114300000D03*
%TD*%
D25*
%TO.N,+5V*%
X72644000Y-55372000D03*
%TO.N,CA2*%
X45974000Y-116840000D03*
%TO.N,CA1*%
X44958000Y-114300000D03*
%TO.N,RESET*%
X56641000Y-129540000D03*
X74930000Y-65659000D03*
X56642000Y-102616000D03*
%TO.N,/D7*%
X114046000Y-129540000D03*
X97282000Y-149860000D03*
X26162000Y-52959000D03*
X26162000Y-82550000D03*
X114046000Y-149860000D03*
X97282000Y-82550000D03*
X50560000Y-149860000D03*
X50560000Y-82550000D03*
%TO.N,/D6*%
X51322000Y-83312000D03*
X26924000Y-50419000D03*
X113284000Y-147320000D03*
X51322000Y-147320000D03*
X96520000Y-83312000D03*
X96520000Y-147320000D03*
X26924000Y-83312000D03*
X113284000Y-132080000D03*
%TO.N,/D5*%
X95758000Y-144780000D03*
X52070000Y-84074000D03*
X95758000Y-84074000D03*
X28448000Y-84074000D03*
X112522000Y-134620000D03*
X52068000Y-144796000D03*
X112522000Y-144780000D03*
X28448000Y-47879000D03*
%TO.N,/D4*%
X52832000Y-84836000D03*
X111760000Y-142240000D03*
X52830000Y-142256000D03*
X94996000Y-84836000D03*
X111760000Y-137160000D03*
X94996000Y-142240000D03*
X29972000Y-84836000D03*
X29972000Y-45339000D03*
%TO.N,/D3*%
X94234000Y-85598000D03*
X122174000Y-138430000D03*
X31496000Y-85598000D03*
X31496000Y-42799000D03*
X122174000Y-85598000D03*
X53594000Y-85598000D03*
X53592000Y-139716000D03*
X94234000Y-139700000D03*
%TO.N,/D2*%
X93472000Y-137160000D03*
X32974779Y-40259000D03*
X54354000Y-137160000D03*
X93472000Y-86360000D03*
X33020000Y-86360000D03*
X54356000Y-86360000D03*
%TO.N,/D1*%
X55117000Y-134620000D03*
X92710000Y-134620000D03*
X92710000Y-87122000D03*
X34544000Y-37592000D03*
X34544000Y-87122000D03*
X55118000Y-87122000D03*
%TO.N,/D0*%
X36068000Y-87884000D03*
X36068000Y-35179000D03*
X91948000Y-132080000D03*
X55878000Y-132096000D03*
X55880000Y-87884000D03*
X91948000Y-87884000D03*
%TO.N,/A14*%
X43688000Y-74422000D03*
X110744000Y-106680000D03*
X105664000Y-154940000D03*
X90170000Y-74564715D03*
X110744000Y-100076000D03*
X90170000Y-100076000D03*
X43688000Y-100076000D03*
%TO.N,/A13*%
X109220000Y-99314000D03*
X42926000Y-99314000D03*
X109220000Y-110744000D03*
X100838000Y-157480000D03*
X89408000Y-99314000D03*
X89408000Y-72024715D03*
X42926000Y-71882000D03*
%TO.N,/A12*%
X88646000Y-98552000D03*
X109982000Y-109220000D03*
X42164000Y-98552000D03*
X88646000Y-69357715D03*
X42164000Y-69342000D03*
X109982000Y-98552000D03*
X101600000Y-160020000D03*
%TO.N,/A11*%
X87884000Y-97790000D03*
X68834000Y-162560000D03*
X41402000Y-66802000D03*
X123698000Y-118110000D03*
X114046000Y-119380000D03*
X41402000Y-97790000D03*
X87884000Y-66817715D03*
X114046000Y-97790000D03*
X66548000Y-97790000D03*
%TO.N,/A10*%
X69596000Y-160020000D03*
X122936000Y-123190000D03*
X114808000Y-97028000D03*
X87122000Y-64277715D03*
X87122000Y-97028000D03*
X40640000Y-64262000D03*
X40640000Y-97028000D03*
X67310000Y-97028000D03*
X114808000Y-124460000D03*
%TO.N,/A9*%
X113284000Y-116840000D03*
X86360000Y-61849000D03*
X68072000Y-96266000D03*
X39878000Y-96266000D03*
X86360000Y-96266000D03*
X39878000Y-61849000D03*
X70358000Y-157480000D03*
X113284000Y-96266000D03*
%TO.N,/A8*%
X112522000Y-95504000D03*
X85598000Y-95504000D03*
X85598000Y-59309000D03*
X112522000Y-114300000D03*
X39116000Y-95504000D03*
X68834000Y-95504000D03*
X71120000Y-154940000D03*
X39116000Y-59309000D03*
%TO.N,/A7*%
X79502000Y-94742000D03*
X79502000Y-49164715D03*
X69596000Y-94742000D03*
X27686000Y-94742000D03*
X108458000Y-94742000D03*
X27686000Y-49149000D03*
X71882000Y-152400000D03*
X108458000Y-111760000D03*
%TO.N,/A6*%
X107696000Y-114300000D03*
X72644000Y-149860000D03*
X107696000Y-93980000D03*
X80264000Y-46609000D03*
X70358000Y-93980000D03*
X29210000Y-93980000D03*
X80264000Y-93980000D03*
X29210000Y-46609000D03*
%TO.N,/A5*%
X81026000Y-93218000D03*
X30734000Y-93218000D03*
X106934000Y-93218000D03*
X71120000Y-93218000D03*
X30734000Y-44069000D03*
X81026000Y-44084715D03*
X106934000Y-116840000D03*
X73406000Y-147320000D03*
%TO.N,/A4*%
X106172000Y-92456000D03*
X71850000Y-92488000D03*
X32258000Y-92456000D03*
X81788000Y-92456000D03*
X81788000Y-41529000D03*
X106172000Y-119380000D03*
X74100000Y-144830000D03*
X32258000Y-41529000D03*
%TO.N,/A3*%
X49037000Y-127000000D03*
X82550000Y-38989000D03*
X33782000Y-38862000D03*
X49022000Y-91694000D03*
X33782000Y-91694000D03*
X74930000Y-142240000D03*
X82550000Y-91694000D03*
X105410000Y-91694000D03*
X72600000Y-91738000D03*
X105410000Y-121920000D03*
%TO.N,/A2*%
X35306000Y-36449000D03*
X104648000Y-90932000D03*
X83312000Y-36449000D03*
X73406000Y-90932000D03*
X104648000Y-124460000D03*
X35306000Y-90932000D03*
X83312000Y-90932000D03*
X48275000Y-124460000D03*
X48260000Y-90932000D03*
X75692000Y-139700000D03*
%TO.N,/A1*%
X103886000Y-127000000D03*
X84074000Y-90170000D03*
X47513000Y-121920000D03*
X103886000Y-90170000D03*
X74168000Y-90170000D03*
X36830000Y-90170000D03*
X84074000Y-33909000D03*
X76454000Y-90170000D03*
X76454000Y-137160000D03*
X47498000Y-90170000D03*
X36784779Y-33909000D03*
%TO.N,/A0*%
X77216000Y-134620000D03*
X46735000Y-119396000D03*
X37592000Y-89408000D03*
X84836000Y-89408000D03*
X103124000Y-89408000D03*
X37546779Y-31369000D03*
X77216000Y-89408000D03*
X84836000Y-31242000D03*
X103124000Y-129540000D03*
X46736000Y-89408000D03*
%TO.N,/ROMCSB*%
X139954000Y-127000000D03*
%TO.N,/IOCSB*%
X134620000Y-153162000D03*
%TO.N,/RAMCSB*%
X114808000Y-127000000D03*
%TO.N,/A15*%
X144780000Y-152400000D03*
%TO.N,/RW*%
X67818000Y-57277000D03*
X91186000Y-129540000D03*
X91186000Y-88646000D03*
X115570000Y-88646000D03*
X67818000Y-88646000D03*
X115570000Y-52959000D03*
X49784000Y-88646000D03*
%TO.N,/PORT1B*%
X38354000Y-56642000D03*
X121412000Y-81788000D03*
X38354000Y-81788000D03*
%TO.N,/CLOCK*%
X77977000Y-121936000D03*
X77977000Y-151130000D03*
X115570000Y-151130000D03*
X77978000Y-60579000D03*
%TO.N,/PORT2B*%
X122936000Y-55499000D03*
%TO.N,/NMIB*%
X68071000Y-127000000D03*
X66929000Y-58039000D03*
%TD*%
D26*
%TO.N,GND*%
X74902222Y-107282776D02*
X81402222Y-107282776D01*
%TO.N,Net-(C1-Pad1)*%
X145542000Y-73405500D02*
X148082000Y-75945500D01*
X153162000Y-68325500D02*
X145542000Y-68325500D01*
X145542000Y-68325500D02*
X145542000Y-73405500D01*
D27*
%TO.N,+5V*%
X98044000Y-55372000D02*
X99441000Y-56769000D01*
X77979853Y-30083285D02*
X81012138Y-27051000D01*
X63263000Y-127055831D02*
X61468000Y-128850831D01*
X52741520Y-28973999D02*
X53140519Y-28575000D01*
X50545000Y-162560000D02*
X58165000Y-154940000D01*
X127254500Y-54355500D02*
X127254000Y-68326000D01*
X66040000Y-132080000D02*
X78740000Y-132080000D01*
X81280000Y-124460000D02*
X86360000Y-124460000D01*
X86360000Y-124460000D02*
X88900000Y-124460000D01*
X81280000Y-124460000D02*
X80010000Y-124460000D01*
X146050000Y-151892000D02*
X146050000Y-154178000D01*
X80010000Y-124460000D02*
X79502000Y-124968000D01*
X152400000Y-160020000D02*
X152400000Y-157480000D01*
X133857500Y-70865500D02*
X141733000Y-70865500D01*
X127254000Y-68326000D02*
X127254000Y-101092000D01*
X116840000Y-101092000D02*
X127254000Y-101092000D01*
X88900000Y-101092000D02*
X88900000Y-104140000D01*
X111760000Y-157480000D02*
X111760000Y-155194000D01*
X152654000Y-160020000D02*
X155194000Y-162560000D01*
X79502000Y-124968000D02*
X79502000Y-131318000D01*
X116840000Y-101092000D02*
X30733000Y-101092000D01*
X152400000Y-157480000D02*
X149098000Y-154178000D01*
X132080000Y-157480000D02*
X132080000Y-154178000D01*
X132080000Y-154178000D02*
X146050000Y-154178000D01*
X50546000Y-162560000D02*
X58420000Y-170763903D01*
X155194000Y-179832000D02*
X153416000Y-181610000D01*
X116840000Y-106680000D02*
X116840000Y-101092000D01*
X116840000Y-106680000D02*
X119651000Y-106680000D01*
X132588000Y-69596000D02*
X133857500Y-70865500D01*
X144272000Y-106697000D02*
X144272000Y-150114000D01*
X88900000Y-124460000D02*
X90424000Y-122936000D01*
X132080000Y-154178000D02*
X112776000Y-154178000D01*
X123078715Y-28590715D02*
X124714000Y-30099000D01*
X131318000Y-101092000D02*
X136906000Y-106680000D01*
X149098000Y-154178000D02*
X146050000Y-154178000D01*
X127363432Y-68216568D02*
X132510578Y-68216568D01*
X127254000Y-54355000D02*
X127254000Y-32639000D01*
X81026000Y-181610000D02*
X78740000Y-179324000D01*
X40148000Y-162560000D02*
X42925000Y-162560000D01*
X90424000Y-122936000D02*
X90424000Y-105664000D01*
X127254000Y-101092000D02*
X131318000Y-101092000D01*
X81012138Y-27051000D02*
X97663000Y-27051000D01*
X130302000Y-54355500D02*
X127254500Y-54355500D01*
X141733000Y-70865500D02*
X143002000Y-69596500D01*
X143002000Y-69596500D02*
X143002000Y-68325500D01*
X88900000Y-104140000D02*
X85366330Y-104140000D01*
X53140519Y-28575000D02*
X76471568Y-28575000D01*
X153416000Y-181610000D02*
X81026000Y-181610000D01*
X79502000Y-131318000D02*
X78740000Y-132080000D01*
X63517000Y-132080000D02*
X65532000Y-132080000D01*
X141478000Y-106680000D02*
X144289000Y-106680000D01*
X99747666Y-28590715D02*
X123078715Y-28590715D01*
X141478000Y-106680000D02*
X141478000Y-109220000D01*
X42925000Y-162560000D02*
X50545000Y-162560000D01*
X155194000Y-165100000D02*
X152400000Y-165100000D01*
X50545000Y-162560000D02*
X50546000Y-162560000D01*
X155194000Y-162560000D02*
X155194000Y-179832000D01*
X61468000Y-130539000D02*
X63263000Y-132334000D01*
X127254500Y-54355500D02*
X127254000Y-54355000D01*
X111760000Y-155194000D02*
X112776000Y-154178000D01*
X61468000Y-128850831D02*
X61468000Y-130539000D01*
X113284000Y-159004000D02*
X113284000Y-161036000D01*
X144272000Y-150114000D02*
X146050000Y-151892000D01*
X113284000Y-161036000D02*
X111760000Y-162560000D01*
X132080000Y-157480000D02*
X132080000Y-160020000D01*
X132588000Y-68293990D02*
X132588000Y-69596000D01*
X110226918Y-68214715D02*
X127363432Y-68216568D01*
X76471568Y-28575000D02*
X77979853Y-30083285D01*
X58420000Y-170763903D02*
X70358000Y-170763903D01*
X97663000Y-27051000D02*
X99441000Y-28829000D01*
X111760000Y-157480000D02*
X113284000Y-159004000D01*
X70358000Y-170763903D02*
X78740000Y-179324000D01*
X127254000Y-32639000D02*
X124714000Y-30099000D01*
X90424000Y-105664000D02*
X88900000Y-104140000D01*
X72644000Y-55372000D02*
X98044000Y-55372000D01*
X136906000Y-106680000D02*
X141478000Y-106680000D01*
D26*
%TO.N,Net-(D1-Pad1)*%
X132842000Y-44381301D02*
X132842000Y-54304033D01*
%TO.N,Net-(F1-Pad2)*%
X160782000Y-68325500D02*
X160782000Y-75945500D01*
%TO.N,Net-(F1-Pad1)*%
X154487802Y-53617266D02*
X154487802Y-55416171D01*
X155702000Y-56630369D02*
X155702000Y-60705500D01*
X154487802Y-55416171D02*
X155702000Y-56630369D01*
X158242000Y-63245500D02*
X160782000Y-63245500D01*
X155702000Y-60705500D02*
X158242000Y-63245500D01*
%TO.N,CA2*%
X45974000Y-116840000D02*
X58165000Y-116840000D01*
%TO.N,CA1*%
X44958000Y-114300000D02*
X58165000Y-114300000D01*
%TO.N,PA7*%
X32765000Y-127000000D02*
X40385000Y-134620000D01*
X30225000Y-127000000D02*
X32765000Y-127000000D01*
X40385000Y-134620000D02*
X42925000Y-134620000D01*
%TO.N,PA6*%
X40385000Y-132080000D02*
X42925000Y-132080000D01*
X30225000Y-124460000D02*
X32765000Y-124460000D01*
X40385000Y-132080000D02*
X32765000Y-124460000D01*
%TO.N,PA5*%
X40385000Y-129540000D02*
X32765000Y-121920000D01*
X32765000Y-121920000D02*
X30225000Y-121920000D01*
X40385000Y-129540000D02*
X42925000Y-129540000D01*
%TO.N,PA4*%
X40385000Y-127000000D02*
X32765000Y-119380000D01*
X32765000Y-119380000D02*
X30225000Y-119380000D01*
X40385000Y-127000000D02*
X42925000Y-127000000D01*
%TO.N,PA3*%
X40385000Y-124460000D02*
X42925000Y-124460000D01*
X40385000Y-124460000D02*
X32765000Y-116840000D01*
X32765000Y-116840000D02*
X30225000Y-116840000D01*
%TO.N,PA2*%
X40385000Y-121920000D02*
X32765000Y-114300000D01*
X40385000Y-121920000D02*
X42925000Y-121920000D01*
X32765000Y-114300000D02*
X30225000Y-114300000D01*
%TO.N,PA1*%
X40385000Y-119380000D02*
X32765000Y-111760000D01*
X40385000Y-119380000D02*
X42925000Y-119380000D01*
X32765000Y-111760000D02*
X30225000Y-111760000D01*
%TO.N,PA0*%
X40766000Y-116840000D02*
X42925000Y-116840000D01*
X40766000Y-116840000D02*
X33146000Y-109220000D01*
X33146000Y-109220000D02*
X30225000Y-109220000D01*
%TO.N,RESET*%
X83058000Y-104438554D02*
X81402222Y-102782776D01*
X74735446Y-102616000D02*
X56642000Y-102616000D01*
X81280000Y-114300000D02*
X85321670Y-114300000D01*
X100711000Y-68199000D02*
X103251000Y-65659000D01*
X95758000Y-65659000D02*
X98298000Y-68199000D01*
X63619771Y-65659000D02*
X74930000Y-65659000D01*
X74902222Y-102782776D02*
X81402222Y-102782776D01*
X58165000Y-129540000D02*
X56641000Y-129540000D01*
X74930000Y-65659000D02*
X95758000Y-65659000D01*
X81288779Y-114300000D02*
X83058000Y-112530779D01*
X98298000Y-68199000D02*
X100711000Y-68199000D01*
X103251000Y-65659000D02*
X110236000Y-65659000D01*
X83058000Y-112530779D02*
X83058000Y-104438554D01*
%TO.N,/D7*%
X76725568Y-51689000D02*
X77979853Y-52943285D01*
X108743372Y-51689000D02*
X123317000Y-51689000D01*
X81280000Y-149860000D02*
X97282000Y-149860000D01*
X116840000Y-129540000D02*
X114046000Y-129540000D01*
X116840000Y-129540000D02*
X120903000Y-129540000D01*
X140208000Y-128270000D02*
X141478000Y-129540000D01*
X60850510Y-52959000D02*
X62120510Y-51689000D01*
X122173000Y-128270000D02*
X140208000Y-128270000D01*
X50560000Y-82550000D02*
X26162000Y-82550000D01*
X62120510Y-51689000D02*
X76725568Y-51689000D01*
X123317000Y-51689000D02*
X124587000Y-52959000D01*
X58165000Y-149860000D02*
X50560000Y-149860000D01*
X107426227Y-52943285D02*
X107457657Y-52974715D01*
X77979853Y-52943285D02*
X107426227Y-52943285D01*
X107457657Y-52974715D02*
X108743372Y-51689000D01*
X26162000Y-52959000D02*
X60850510Y-52959000D01*
X97282000Y-82550000D02*
X50560000Y-82550000D01*
X97282000Y-149860000D02*
X114046000Y-149860000D01*
X120903000Y-129540000D02*
X122173000Y-128270000D01*
%TO.N,/D6*%
X122173000Y-130810000D02*
X140208000Y-130810000D01*
X58165000Y-147320000D02*
X51322000Y-147320000D01*
X76725568Y-49149000D02*
X77979853Y-50403285D01*
X26924000Y-50419000D02*
X60960000Y-50419000D01*
X116840000Y-132080000D02*
X113284000Y-132080000D01*
X62230000Y-49149000D02*
X76725568Y-49149000D01*
X81280000Y-147320000D02*
X96520000Y-147320000D01*
X60960000Y-50419000D02*
X62230000Y-49149000D01*
X96520000Y-83312000D02*
X51322000Y-83312000D01*
X51322000Y-83312000D02*
X26924000Y-83312000D01*
X96520000Y-147320000D02*
X113284000Y-147320000D01*
X108837147Y-49164715D02*
X123332715Y-49164715D01*
X120903000Y-132080000D02*
X122173000Y-130810000D01*
X107567147Y-50434715D02*
X108837147Y-49164715D01*
X116840000Y-132080000D02*
X120903000Y-132080000D01*
X140208000Y-130810000D02*
X141478000Y-132080000D01*
X123332715Y-49164715D02*
X124587000Y-50419000D01*
X107535717Y-50403285D02*
X107567147Y-50434715D01*
X77979853Y-50403285D02*
X107535717Y-50403285D01*
%TO.N,/D5*%
X96012000Y-144780000D02*
X81280000Y-144780000D01*
X60960000Y-47879000D02*
X62230000Y-46609000D01*
X140208000Y-133350000D02*
X141478000Y-134620000D01*
X52084000Y-144780000D02*
X52068000Y-144796000D01*
X123332715Y-46624715D02*
X124587000Y-47879000D01*
X58165000Y-144780000D02*
X52084000Y-144780000D01*
X62230000Y-46609000D02*
X76725568Y-46609000D01*
X107567147Y-47894715D02*
X108837147Y-46624715D01*
X95758000Y-144780000D02*
X112522000Y-144780000D01*
X78011283Y-47894715D02*
X107567147Y-47894715D01*
X52070000Y-84074000D02*
X28448000Y-84074000D01*
X120903000Y-134620000D02*
X122173000Y-133350000D01*
X108837147Y-46624715D02*
X123332715Y-46624715D01*
X28448000Y-47879000D02*
X60960000Y-47879000D01*
X116840000Y-134620000D02*
X112522000Y-134620000D01*
X52070000Y-84074000D02*
X95758000Y-84074000D01*
X122173000Y-133350000D02*
X140208000Y-133350000D01*
X76725568Y-46609000D02*
X77979853Y-47863285D01*
X116840000Y-134620000D02*
X120903000Y-134620000D01*
%TO.N,/D4*%
X29972000Y-45341000D02*
X60958000Y-45341000D01*
X120903000Y-137160000D02*
X122173000Y-135890000D01*
X108837147Y-44084715D02*
X123332715Y-44084715D01*
X107565147Y-45356715D02*
X108837147Y-44084715D01*
X122173000Y-135890000D02*
X140208000Y-135890000D01*
X140208000Y-135890000D02*
X141478000Y-137160000D01*
X52832000Y-84836000D02*
X29972000Y-84836000D01*
X60958000Y-45341000D02*
X62230000Y-44069000D01*
X94996000Y-142240000D02*
X111760000Y-142240000D01*
X52832000Y-84836000D02*
X94996000Y-84836000D01*
X116840000Y-137160000D02*
X120903000Y-137160000D01*
X62230000Y-44069000D02*
X76725568Y-44069000D01*
X116840000Y-137160000D02*
X111760000Y-137160000D01*
X76725568Y-44069000D02*
X77979853Y-45323285D01*
X81280000Y-142240000D02*
X94996000Y-142240000D01*
X58165000Y-142240000D02*
X52846000Y-142240000D01*
X78013283Y-45356715D02*
X107565147Y-45356715D01*
X52846000Y-142240000D02*
X52830000Y-142256000D01*
X123332715Y-44084715D02*
X124587000Y-45339000D01*
%TO.N,/D3*%
X122174000Y-138430000D02*
X140462000Y-138430000D01*
X123332715Y-41544715D02*
X124587000Y-42799000D01*
X92200287Y-42783285D02*
X92231717Y-42814715D01*
X77979853Y-42783285D02*
X92200287Y-42783285D01*
X58165000Y-139700000D02*
X53608000Y-139700000D01*
X122173500Y-138430000D02*
X122174000Y-138430000D01*
X141478000Y-139446000D02*
X140462000Y-138430000D01*
X94234000Y-85598000D02*
X122174000Y-85598000D01*
X31496000Y-42799000D02*
X60960000Y-42799000D01*
X120903500Y-139700000D02*
X122173500Y-138430000D01*
X107567147Y-42814715D02*
X108837147Y-41544715D01*
X53594000Y-85598000D02*
X94234000Y-85598000D01*
X81280000Y-139700000D02*
X94234000Y-139700000D01*
X116840000Y-139700000D02*
X120903500Y-139700000D01*
X76725568Y-41529000D02*
X77979853Y-42783285D01*
X62230000Y-41529000D02*
X76725568Y-41529000D01*
X108837147Y-41544715D02*
X123332715Y-41544715D01*
X53608000Y-139700000D02*
X53592000Y-139716000D01*
X60960000Y-42799000D02*
X62230000Y-41529000D01*
X92231717Y-42814715D02*
X107567147Y-42814715D01*
X53594000Y-85598000D02*
X31496000Y-85598000D01*
%TO.N,/D2*%
X62230000Y-38989000D02*
X76725568Y-38989000D01*
X107565147Y-40276715D02*
X108837147Y-39004715D01*
X108837147Y-39004715D02*
X123332715Y-39004715D01*
X77979853Y-40243285D02*
X107164717Y-40243285D01*
X122173000Y-137160000D02*
X126238000Y-137160000D01*
X107164717Y-40243285D02*
X107198147Y-40276715D01*
X60958000Y-40261000D02*
X62230000Y-38989000D01*
X93472000Y-86360000D02*
X54356000Y-86360000D01*
X32974779Y-40261000D02*
X60958000Y-40261000D01*
X93472000Y-137160000D02*
X101600000Y-137160000D01*
X102870000Y-138430000D02*
X120903000Y-138430000D01*
X101600000Y-137160000D02*
X102870000Y-138430000D01*
X120903000Y-138430000D02*
X122173000Y-137160000D01*
X76725568Y-38989000D02*
X77979853Y-40243285D01*
X33020000Y-86360000D02*
X54356000Y-86360000D01*
X123332715Y-39004715D02*
X124587000Y-40259000D01*
X107198147Y-40276715D02*
X107565147Y-40276715D01*
X81280000Y-137160000D02*
X93472000Y-137160000D01*
X58165000Y-137160000D02*
X54354000Y-137160000D01*
%TO.N,/D1*%
X81280000Y-134620000D02*
X92710000Y-134620000D01*
X34544000Y-37592000D02*
X60958000Y-37721000D01*
X123332715Y-36464715D02*
X124587000Y-37719000D01*
X107531717Y-37703285D02*
X107565147Y-37736715D01*
X77979853Y-37703285D02*
X107531717Y-37703285D01*
X107565147Y-37736715D02*
X108837147Y-36464715D01*
X102870000Y-135890000D02*
X120903000Y-135890000D01*
X101600000Y-134620000D02*
X102870000Y-135890000D01*
X76725568Y-36449000D02*
X77979853Y-37703285D01*
X108837147Y-36464715D02*
X123332715Y-36464715D01*
X92710000Y-134620000D02*
X101600000Y-134620000D01*
X55118000Y-87122000D02*
X34544000Y-87122000D01*
X122173000Y-134620000D02*
X126238000Y-134620000D01*
X62230000Y-36449000D02*
X76725568Y-36449000D01*
X60958000Y-37721000D02*
X62230000Y-36449000D01*
X58165000Y-134620000D02*
X55117000Y-134620000D01*
X92710000Y-87122000D02*
X55118000Y-87122000D01*
X120903000Y-135890000D02*
X122173000Y-134620000D01*
%TO.N,/D0*%
X102870000Y-133350000D02*
X120903000Y-133350000D01*
X55880000Y-87884000D02*
X36068000Y-87884000D01*
X62431260Y-33909000D02*
X76725568Y-33909000D01*
X120903000Y-133350000D02*
X122173000Y-132080000D01*
X107768407Y-35194715D02*
X109038407Y-33924715D01*
X123332715Y-33924715D02*
X124587000Y-35179000D01*
X91948000Y-132080000D02*
X101600000Y-132080000D01*
X78011283Y-35194715D02*
X107768407Y-35194715D01*
X91948000Y-87884000D02*
X55880000Y-87884000D01*
X36068000Y-35179000D02*
X61161260Y-35179000D01*
X58165000Y-132080000D02*
X55878000Y-132096000D01*
X101600000Y-132080000D02*
X102870000Y-133350000D01*
X81280000Y-132080000D02*
X91948000Y-132080000D01*
X76725568Y-33909000D02*
X77979853Y-35163285D01*
X61161260Y-35179000D02*
X62431260Y-33909000D01*
X109038407Y-33924715D02*
X123332715Y-33924715D01*
X122173000Y-132080000D02*
X126238000Y-132080000D01*
%TO.N,CB2*%
X30225000Y-160020000D02*
X42925000Y-160020000D01*
%TO.N,CB1*%
X42925000Y-157480000D02*
X30225000Y-157480000D01*
%TO.N,PB7*%
X30225000Y-154940000D02*
X42925000Y-154940000D01*
%TO.N,PB6*%
X42925000Y-152400000D02*
X30225000Y-152400000D01*
%TO.N,PB5*%
X30225000Y-149860000D02*
X42925000Y-149860000D01*
%TO.N,PB4*%
X42925000Y-147320000D02*
X30225000Y-147320000D01*
%TO.N,PB3*%
X30225000Y-144780000D02*
X42925000Y-144780000D01*
%TO.N,PB2*%
X42925000Y-142240000D02*
X30225000Y-142240000D01*
%TO.N,PB1*%
X30225000Y-139700000D02*
X42925000Y-139700000D01*
%TO.N,PB0*%
X42925000Y-137160000D02*
X30225000Y-137160000D01*
%TO.N,/A14*%
X101600000Y-106680000D02*
X110744000Y-106680000D01*
X43688000Y-100076000D02*
X90170000Y-100076000D01*
X112014000Y-107950000D02*
X121412000Y-107950000D01*
X81280000Y-154940000D02*
X102362000Y-154940000D01*
X90170000Y-74564715D02*
X91805285Y-74564715D01*
X90170000Y-100076000D02*
X110744000Y-100076000D01*
X102362000Y-154940000D02*
X105664000Y-154940000D01*
X110744000Y-106680000D02*
X112014000Y-107950000D01*
X45736477Y-74422000D02*
X43688000Y-74422000D01*
X102362000Y-160782000D02*
X104140000Y-162560000D01*
X102362000Y-154940000D02*
X102362000Y-160782000D01*
X122682000Y-106680000D02*
X126238000Y-106680000D01*
X121412000Y-107950000D02*
X122682000Y-106680000D01*
%TO.N,/A13*%
X45736477Y-71882000D02*
X42926000Y-71882000D01*
X121919000Y-110490000D02*
X140208000Y-110490000D01*
X116840000Y-111760000D02*
X120649000Y-111760000D01*
X42926000Y-99314000D02*
X89408000Y-99314000D01*
X109220000Y-110744000D02*
X110236000Y-111760000D01*
X120649000Y-111760000D02*
X121919000Y-110490000D01*
X81280000Y-157480000D02*
X100838000Y-157480000D01*
X89408000Y-99314000D02*
X109220000Y-99314000D01*
X110236000Y-111760000D02*
X116840000Y-111760000D01*
X89408000Y-72024715D02*
X91805285Y-72024715D01*
X140208000Y-110490000D02*
X141478000Y-111760000D01*
%TO.N,/A12*%
X121920000Y-109220000D02*
X126238000Y-109220000D01*
X42164000Y-98552000D02*
X109982000Y-98552000D01*
X111252000Y-110490000D02*
X120650000Y-110490000D01*
X88646000Y-69357715D02*
X91709715Y-69357715D01*
X101600000Y-165100000D02*
X104140000Y-167640000D01*
X42164000Y-69342000D02*
X45736477Y-69342000D01*
X81280000Y-160020000D02*
X101600000Y-160020000D01*
X101600000Y-109220000D02*
X109982000Y-109220000D01*
X120650000Y-110490000D02*
X121920000Y-109220000D01*
X101600000Y-160020000D02*
X101600000Y-165100000D01*
X109982000Y-109220000D02*
X111252000Y-110490000D01*
%TO.N,/A11*%
X144780000Y-162560000D02*
X132080000Y-162560000D01*
X45736477Y-66802000D02*
X41402000Y-66802000D01*
X116840000Y-119380000D02*
X120649000Y-119380000D01*
X140208000Y-118110000D02*
X141478000Y-119380000D01*
X120649000Y-119380000D02*
X121919000Y-118110000D01*
X114046000Y-97790000D02*
X113792000Y-97790000D01*
X41402000Y-97790000D02*
X66548000Y-97790000D01*
X116840000Y-119380000D02*
X114046000Y-119380000D01*
X123698000Y-118110000D02*
X140208000Y-118110000D01*
X66040000Y-162560000D02*
X68834000Y-162560000D01*
X113792000Y-97790000D02*
X66548000Y-97790000D01*
X87884000Y-66817715D02*
X91709715Y-66817715D01*
X121919000Y-118110000D02*
X123698000Y-118110000D01*
%TO.N,/A10*%
X45736477Y-64262000D02*
X40640000Y-64262000D01*
X122173000Y-123190000D02*
X122936000Y-123190000D01*
X116840000Y-124460000D02*
X114808000Y-124460000D01*
X137160000Y-168910000D02*
X125730000Y-168910000D01*
X40640000Y-97028000D02*
X67310000Y-97028000D01*
X87122000Y-64277715D02*
X91709715Y-64277715D01*
X144780000Y-167640000D02*
X138430000Y-167640000D01*
X116840000Y-124460000D02*
X120903000Y-124460000D01*
X140208000Y-123190000D02*
X141478000Y-124460000D01*
X125730000Y-168910000D02*
X124460000Y-167640000D01*
X122936000Y-123190000D02*
X140208000Y-123190000D01*
X120903000Y-124460000D02*
X122173000Y-123190000D01*
X138430000Y-167640000D02*
X137160000Y-168910000D01*
X67310000Y-97028000D02*
X114808000Y-97028000D01*
X66040000Y-160020000D02*
X69596000Y-160020000D01*
%TO.N,/A9*%
X120649000Y-116840000D02*
X121919000Y-115570000D01*
X121919000Y-115570000D02*
X140208000Y-115570000D01*
X116840000Y-116840000D02*
X113284000Y-116840000D01*
X68072000Y-96266000D02*
X113284000Y-96266000D01*
X116840000Y-116840000D02*
X120649000Y-116840000D01*
X140208000Y-115570000D02*
X141478000Y-116840000D01*
X39878000Y-96266000D02*
X68072000Y-96266000D01*
X91821000Y-61849000D02*
X86360000Y-61849000D01*
X66040000Y-157480000D02*
X70358000Y-157480000D01*
X39878000Y-61849000D02*
X45618781Y-61849000D01*
%TO.N,/A8*%
X85598000Y-59309000D02*
X85852000Y-59309000D01*
X120649000Y-114300000D02*
X121919000Y-113030000D01*
X39116000Y-95504000D02*
X68834000Y-95504000D01*
X45618781Y-59309000D02*
X39116000Y-59309000D01*
X66040000Y-154940000D02*
X71120000Y-154940000D01*
X116840000Y-114300000D02*
X112522000Y-114300000D01*
X140208000Y-113030000D02*
X141478000Y-114300000D01*
X112522000Y-95504000D02*
X68834000Y-95504000D01*
X85852000Y-59309000D02*
X91821000Y-59309000D01*
X116840000Y-114300000D02*
X120649000Y-114300000D01*
X121919000Y-113030000D02*
X140208000Y-113030000D01*
%TO.N,/A7*%
X79502000Y-94742000D02*
X108458000Y-94742000D01*
X101600000Y-111760000D02*
X108458000Y-111760000D01*
X109728000Y-113030000D02*
X120649000Y-113030000D01*
X120649000Y-113030000D02*
X121919000Y-111760000D01*
X66040000Y-152400000D02*
X71882000Y-152400000D01*
X69596000Y-94742000D02*
X27686000Y-94742000D01*
X79502000Y-49164715D02*
X91805285Y-49164715D01*
X121919000Y-111760000D02*
X126238000Y-111760000D01*
X108458000Y-111760000D02*
X109728000Y-113030000D01*
X45678775Y-49149000D02*
X27686000Y-49149000D01*
X69596000Y-94742000D02*
X79502000Y-94742000D01*
%TO.N,/A6*%
X80264000Y-46609000D02*
X91821000Y-46609000D01*
X108966000Y-115570000D02*
X120649000Y-115570000D01*
X70358000Y-93980000D02*
X107696000Y-93980000D01*
X121919000Y-114300000D02*
X126238000Y-114300000D01*
X66040000Y-149860000D02*
X72644000Y-149860000D01*
X120649000Y-115570000D02*
X121919000Y-114300000D01*
X107696000Y-114300000D02*
X108966000Y-115570000D01*
X45678775Y-46609000D02*
X29210000Y-46609000D01*
X70358000Y-93980000D02*
X29210000Y-93980000D01*
X101600000Y-114300000D02*
X107696000Y-114300000D01*
%TO.N,/A5*%
X45678775Y-44069000D02*
X30734000Y-44069000D01*
X81026000Y-44084715D02*
X91805285Y-44084715D01*
X108204000Y-118110000D02*
X120584795Y-118110000D01*
X73406000Y-147320000D02*
X73350000Y-147330000D01*
X106934000Y-116840000D02*
X108204000Y-118110000D01*
X120584795Y-118110000D02*
X121854795Y-116840000D01*
X71120000Y-93218000D02*
X106934000Y-93218000D01*
X66040000Y-147320000D02*
X73406000Y-147320000D01*
X71120000Y-93218000D02*
X30734000Y-93218000D01*
X121854795Y-116840000D02*
X126238000Y-116840000D01*
X101600000Y-116840000D02*
X106934000Y-116840000D01*
%TO.N,/A4*%
X71850000Y-92488000D02*
X106140000Y-92488000D01*
X106172000Y-119380000D02*
X107442000Y-120650000D01*
X81788000Y-41529000D02*
X91821000Y-41529000D01*
X101600000Y-119380000D02*
X106172000Y-119380000D01*
X121919000Y-119380000D02*
X126238000Y-119380000D01*
X120649000Y-120650000D02*
X121919000Y-119380000D01*
X71850000Y-92488000D02*
X32290000Y-92488000D01*
X32290000Y-92488000D02*
X32258000Y-92456000D01*
X45678775Y-41529000D02*
X32212779Y-41529000D01*
X107442000Y-120650000D02*
X120649000Y-120650000D01*
X66040000Y-144780000D02*
X74050000Y-144780000D01*
X106140000Y-92488000D02*
X106172000Y-92456000D01*
X74050000Y-144780000D02*
X74100000Y-144830000D01*
%TO.N,/A3*%
X66040000Y-142240000D02*
X74930000Y-142240000D01*
X82550000Y-38989000D02*
X91821000Y-38989000D01*
X120903000Y-123190000D02*
X122173000Y-121920000D01*
X72600000Y-91738000D02*
X49066000Y-91738000D01*
X101600000Y-121920000D02*
X105410000Y-121920000D01*
X105410000Y-121920000D02*
X106680000Y-123190000D01*
X49037000Y-127000000D02*
X49021000Y-127016000D01*
X106680000Y-123190000D02*
X120903000Y-123190000D01*
X105366000Y-91738000D02*
X105410000Y-91694000D01*
X72600000Y-91738000D02*
X105366000Y-91738000D01*
X45678775Y-38989000D02*
X33782000Y-38862000D01*
X49022000Y-91694000D02*
X33782000Y-91694000D01*
X122173000Y-121920000D02*
X126238000Y-121920000D01*
X58165000Y-127000000D02*
X49037000Y-127000000D01*
X49066000Y-91738000D02*
X49022000Y-91694000D01*
%TO.N,/A2*%
X48260000Y-90932000D02*
X35306000Y-90932000D01*
X122173000Y-124460000D02*
X126238000Y-124460000D01*
X73406000Y-90932000D02*
X48260000Y-90932000D01*
X120903000Y-125730000D02*
X122173000Y-124460000D01*
X48275000Y-124460000D02*
X48259000Y-124476000D01*
X104648000Y-124460000D02*
X101600000Y-124460000D01*
X105918000Y-125730000D02*
X120903000Y-125730000D01*
X35306000Y-36449000D02*
X45678775Y-36449000D01*
X83312000Y-36449000D02*
X91821000Y-36449000D01*
X104648000Y-124460000D02*
X105918000Y-125730000D01*
X73406000Y-90932000D02*
X104648000Y-90932000D01*
X58165000Y-124460000D02*
X48275000Y-124460000D01*
X66040000Y-139700000D02*
X75692000Y-139700000D01*
%TO.N,/A1*%
X84074000Y-33909000D02*
X91821000Y-33909000D01*
X105156000Y-128270000D02*
X120838795Y-128270000D01*
X74168000Y-90170000D02*
X47498000Y-90170000D01*
X120838795Y-128270000D02*
X122108795Y-127000000D01*
X103886000Y-90170000D02*
X76454000Y-90170000D01*
X103886000Y-127000000D02*
X105156000Y-128270000D01*
X101600000Y-127000000D02*
X103886000Y-127000000D01*
X66040000Y-137160000D02*
X76454000Y-137160000D01*
X58165000Y-121920000D02*
X47513000Y-121920000D01*
X122108795Y-127000000D02*
X126238000Y-127000000D01*
X45678775Y-33909000D02*
X36784779Y-33909000D01*
X76454000Y-90170000D02*
X74168000Y-90170000D01*
X47498000Y-90170000D02*
X36830000Y-90170000D01*
%TO.N,/A0*%
X46736000Y-89408000D02*
X37592000Y-89408000D01*
X66040000Y-134620000D02*
X77216000Y-134620000D01*
X101600000Y-129540000D02*
X103124000Y-129540000D01*
X58165000Y-119380000D02*
X46751000Y-119380000D01*
X120903000Y-130810000D02*
X122173000Y-129540000D01*
X46751000Y-119380000D02*
X46735000Y-119396000D01*
X84836000Y-31242000D02*
X91694000Y-31242000D01*
X103124000Y-129540000D02*
X104394000Y-130810000D01*
X122173000Y-129540000D02*
X126238000Y-129540000D01*
X77216000Y-89408000D02*
X46736000Y-89408000D01*
X103124000Y-89408000D02*
X84836000Y-89408000D01*
X84836000Y-89408000D02*
X77216000Y-89408000D01*
X104394000Y-130810000D02*
X120903000Y-130810000D01*
X37546779Y-31369000D02*
X45678775Y-31369000D01*
%TO.N,ECLOCK*%
X78740000Y-174244000D02*
X83820000Y-179324000D01*
%TO.N,Net-(J9-Pad1)*%
X73660000Y-170763903D02*
X78630791Y-170763903D01*
%TO.N,Net-(R1-Pad1)*%
X66040000Y-116840000D02*
X63221634Y-116840000D01*
%TO.N,Net-(R2-Pad2)*%
X81288779Y-119380000D02*
X83820000Y-119380000D01*
X83820000Y-119380000D02*
X88900000Y-114300000D01*
%TO.N,/ROMCSB*%
X110236000Y-166116000D02*
X111760000Y-167640000D01*
X125730000Y-158750000D02*
X120650000Y-158750000D01*
X133350000Y-161290000D02*
X128270000Y-161290000D01*
X128270000Y-161290000D02*
X125730000Y-158750000D01*
X106680000Y-160020000D02*
X110236000Y-163576000D01*
X139954000Y-127000000D02*
X141478000Y-127000000D01*
X144780000Y-160020000D02*
X134620000Y-160020000D01*
X104140000Y-160020000D02*
X106680000Y-160020000D01*
X120650000Y-158750000D02*
X111760000Y-167640000D01*
X134620000Y-160020000D02*
X133350000Y-161290000D01*
X110236000Y-163576000D02*
X110236000Y-166116000D01*
%TO.N,/IOCSB*%
X64007000Y-153686000D02*
X60213000Y-157480000D01*
X60213000Y-157480000D02*
X58165000Y-157480000D01*
X111438814Y-153686000D02*
X64007000Y-153686000D01*
X111962814Y-153162000D02*
X111438814Y-153686000D01*
X134620000Y-153162000D02*
X111962814Y-153162000D01*
%TO.N,/RAMCSB*%
X116840000Y-127000000D02*
X114808000Y-127000000D01*
%TO.N,Net-(U6-Pad1)*%
X139700000Y-168910000D02*
X151130000Y-168910000D01*
X137160000Y-171450000D02*
X139700000Y-168910000D01*
X113030000Y-171450000D02*
X137160000Y-171450000D01*
X151130000Y-168910000D02*
X152400000Y-170180000D01*
X111760000Y-170180000D02*
X113030000Y-171450000D01*
%TO.N,Net-(U7-Pad2)*%
X124460000Y-165100000D02*
X122936000Y-163576000D01*
X124460000Y-165100000D02*
X125730000Y-166370000D01*
X122936000Y-161544000D02*
X124460000Y-160020000D01*
X125730000Y-166370000D02*
X137160000Y-166370000D01*
X122936000Y-163576000D02*
X122936000Y-161544000D01*
X137160000Y-166370000D02*
X138430000Y-165100000D01*
X138430000Y-165100000D02*
X144780000Y-165100000D01*
%TO.N,Net-(U7-Pad8)*%
X137160000Y-172720000D02*
X139700000Y-170180000D01*
X139700000Y-170180000D02*
X144780000Y-170180000D01*
X132080000Y-172720000D02*
X137160000Y-172720000D01*
%TO.N,/A15*%
X81280000Y-152400000D02*
X144780000Y-152400000D01*
%TO.N,Net-(J3-Pad8)*%
X63619771Y-50419000D02*
X70344138Y-50419000D01*
%TO.N,Net-(J3-Pad7)*%
X63619771Y-47879000D02*
X70344138Y-47879000D01*
%TO.N,Net-(J3-Pad6)*%
X63619771Y-45339000D02*
X70344138Y-45339000D01*
%TO.N,Net-(J3-Pad5)*%
X63619771Y-42799000D02*
X70344138Y-42799000D01*
%TO.N,Net-(J3-Pad4)*%
X63619771Y-40259000D02*
X70344138Y-40259000D01*
%TO.N,Net-(J3-Pad3)*%
X63619771Y-37719000D02*
X70344138Y-37719000D01*
%TO.N,Net-(J3-Pad2)*%
X63619771Y-35179000D02*
X70344138Y-35179000D01*
%TO.N,Net-(J3-Pad1)*%
X63619771Y-32639000D02*
X70344138Y-32639000D01*
%TO.N,Net-(J7-Pad9)*%
X57658000Y-54229000D02*
X60099700Y-54229000D01*
X53361129Y-61726652D02*
X54864000Y-60125519D01*
X54864000Y-57023000D02*
X57658000Y-54229000D01*
X54864000Y-60125519D02*
X54864000Y-57023000D01*
%TO.N,Net-(J7-Pad8)*%
X53298775Y-51689000D02*
X60099700Y-51689000D01*
%TO.N,Net-(J7-Pad7)*%
X53298775Y-49149000D02*
X60099700Y-49149000D01*
%TO.N,Net-(J7-Pad6)*%
X53298775Y-46609000D02*
X60099700Y-46609000D01*
%TO.N,Net-(J7-Pad5)*%
X53298775Y-44069000D02*
X60099700Y-44069000D01*
%TO.N,Net-(J7-Pad4)*%
X53298775Y-41529000D02*
X60099700Y-41529000D01*
%TO.N,Net-(J7-Pad3)*%
X53298775Y-38989000D02*
X60099700Y-38989000D01*
%TO.N,Net-(J7-Pad2)*%
X53298775Y-36449000D02*
X60099700Y-36449000D01*
%TO.N,Net-(J7-Pad1)*%
X53298775Y-33909000D02*
X60099700Y-33909000D01*
%TO.N,Net-(J4-Pad8)*%
X110226918Y-50434715D02*
X116951285Y-50434715D01*
%TO.N,Net-(J4-Pad7)*%
X110226918Y-47894715D02*
X116951285Y-47894715D01*
%TO.N,Net-(J4-Pad6)*%
X110226918Y-45354715D02*
X116951285Y-45354715D01*
%TO.N,Net-(J4-Pad5)*%
X110226918Y-42814715D02*
X116951285Y-42814715D01*
%TO.N,Net-(J4-Pad4)*%
X110226918Y-40274715D02*
X116951285Y-40274715D01*
%TO.N,Net-(J4-Pad3)*%
X110226918Y-37734715D02*
X116951285Y-37734715D01*
%TO.N,Net-(J4-Pad2)*%
X110226918Y-35194715D02*
X116951285Y-35194715D01*
%TO.N,Net-(J4-Pad1)*%
X110226918Y-32654715D02*
X116951285Y-32654715D01*
%TO.N,Net-(J8-Pad9)*%
X104265147Y-54244715D02*
X106706847Y-54244715D01*
X99441000Y-61722000D02*
X102235000Y-58928000D01*
X102235000Y-58928000D02*
X102235000Y-56274862D01*
X102235000Y-56274862D02*
X104265147Y-54244715D01*
%TO.N,Net-(J8-Pad8)*%
X99905922Y-51704715D02*
X106706847Y-51704715D01*
%TO.N,Net-(J8-Pad7)*%
X99905922Y-49164715D02*
X106706847Y-49164715D01*
%TO.N,Net-(J8-Pad6)*%
X99905922Y-46624715D02*
X106706847Y-46624715D01*
%TO.N,Net-(J8-Pad5)*%
X99905922Y-44084715D02*
X106706847Y-44084715D01*
%TO.N,Net-(J8-Pad4)*%
X99905922Y-41544715D02*
X106706847Y-41544715D01*
%TO.N,Net-(J8-Pad3)*%
X99905922Y-39004715D02*
X106706847Y-39004715D01*
%TO.N,Net-(J8-Pad2)*%
X99905922Y-36464715D02*
X106706847Y-36464715D01*
%TO.N,Net-(J8-Pad1)*%
X99905922Y-33924715D02*
X106706847Y-33924715D01*
%TO.N,/RW*%
X110236000Y-52959000D02*
X115570000Y-52959000D01*
X66421000Y-52959000D02*
X63619771Y-52959000D01*
X67818000Y-57277000D02*
X67818000Y-54356000D01*
X91186000Y-88646000D02*
X115570000Y-88646000D01*
X91186000Y-88646000D02*
X49784000Y-88646000D01*
X67818000Y-54356000D02*
X66421000Y-52959000D01*
X81280000Y-129540000D02*
X91186000Y-129540000D01*
%TO.N,/PORT1B*%
X38354000Y-81788000D02*
X121412000Y-81788000D01*
X50600519Y-28829000D02*
X53140519Y-31369000D01*
X38354000Y-56642000D02*
X45736477Y-56642000D01*
X45741129Y-56646652D02*
X50821129Y-56646652D01*
X50821129Y-56646652D02*
X53361129Y-59186652D01*
X45520519Y-28829000D02*
X50600519Y-28829000D01*
%TO.N,/CLOCK*%
X92964000Y-60579000D02*
X98044000Y-65659000D01*
X100711000Y-65659000D02*
X105791000Y-60579000D01*
X63619771Y-60579000D02*
X77978000Y-60579000D01*
X58165000Y-152400000D02*
X62737000Y-152400000D01*
X77978000Y-60579000D02*
X92964000Y-60579000D01*
X64007000Y-151130000D02*
X115570000Y-151130000D01*
X98044000Y-65659000D02*
X100711000Y-65659000D01*
X81280000Y-170873112D02*
X81280000Y-173413112D01*
X62737000Y-152400000D02*
X64007000Y-151130000D01*
X77977000Y-121936000D02*
X81280000Y-121920000D01*
X105791000Y-60579000D02*
X110236000Y-60579000D01*
%TO.N,/PORT2B*%
X97207666Y-28844715D02*
X99747666Y-31384715D01*
X91821000Y-56769000D02*
X96901000Y-56769000D01*
X96901000Y-56769000D02*
X99441000Y-59309000D01*
X92127666Y-28844715D02*
X97207666Y-28844715D01*
X110236000Y-55499000D02*
X122936000Y-55499000D01*
%TO.N,/NMIB*%
X105791000Y-58039000D02*
X110236000Y-58039000D01*
X92964000Y-58039000D02*
X98044000Y-63119000D01*
X68071000Y-127000000D02*
X66040000Y-127000000D01*
X98044000Y-63119000D02*
X100711000Y-63119000D01*
X100711000Y-63119000D02*
X105791000Y-58039000D01*
X66929000Y-58039000D02*
X92964000Y-58039000D01*
%TD*%
M02*
