M48
; DRILL file {KiCad 7.0.6} date Sat 08 Jul 2023 05:28:57 PM +08
; FORMAT={-:-/ absolute / inch / decimal}
; #@! TF.CreationDate,2023-07-08T17:28:57+08:00
; #@! TF.GenerationSoftware,Kicad,Pcbnew,7.0.6
; #@! TF.FileFunction,Plated,1,2,PTH
FMAT,2
INCH
; #@! TA.AperFunction,Plated,PTH,ViaDrill
T1C0.0118
; #@! TA.AperFunction,Plated,PTH,ComponentDrill
T2C0.0295
; #@! TA.AperFunction,Plated,PTH,ComponentDrill
T3C0.0315
; #@! TA.AperFunction,Plated,PTH,ComponentDrill
T4C0.0354
; #@! TA.AperFunction,Plated,PTH,ComponentDrill
T5C0.0390
; #@! TA.AperFunction,Plated,PTH,ComponentDrill
T6C0.0394
; #@! TA.AperFunction,Plated,PTH,ComponentDrill
T7C0.0433
; #@! TA.AperFunction,Plated,PTH,ComponentDrill
T8C0.0472
; #@! TA.AperFunction,Plated,PTH,ComponentDrill
T9C0.0512
; #@! TA.AperFunction,Plated,PTH,ComponentDrill
T10C0.0551
%
G90
G05
T1
X0.2394Y-2.3094
X0.2394Y-3.2794
X0.4894Y-3.1144
X0.8394Y-5.2894
X0.8794Y-3.2494
X0.9394Y-2.2894
X0.9394Y-5.2394
X1.0394Y-5.1894
X1.0894Y-4.5894
X1.1394Y-5.1394
X1.1894Y-3.2144
X1.2394Y-5.3394
X1.3144Y-3.0644
X1.3144Y-4.5394
X1.3394Y-5.0894
X1.3644Y-3.1644
X1.4144Y-3.2494
X1.4394Y-5.0394
X1.4894Y-5.0894
X1.5394Y-4.9894
X1.5694Y-2.8896
X1.5894Y-5.0394
X1.6394Y-2.2994
X1.6394Y-3.1644
X1.6394Y-4.9394
X1.6894Y-4.9894
X1.7394Y-4.8894
X1.7894Y-4.9394
X1.8394Y-4.8394
X1.8894Y-3.1644
X1.8894Y-4.8894
X1.9394Y-4.7894
X1.9894Y-4.8394
X2.0394Y-0.4894
X2.0394Y-4.7394
X2.0894Y-0.3894
X2.1144Y-4.7394
X2.1594Y-4.7894
X2.2144Y-3.9894
X2.2144Y-4.0894
X2.2144Y-4.1894
X2.2644Y-4.3394
X2.2894Y-5.3894
X2.3144Y-0.2894
X2.3394Y-1.6394
X2.3394Y-4.6894
X2.4394Y-4.6394
X2.4644Y-3.1144
X2.5144Y-3.2144
X2.5394Y-4.5894
X2.5644Y-3.1644
X2.5894Y-2.2894
X2.5894Y-3.0644
X2.6694Y-4.6894
X2.6994Y-4.5394
X2.7394Y-1.6894
X2.7394Y-4.2894
X2.7894Y-1.4894
X2.7894Y-4.1892
X2.8394Y-0.1394
X2.8394Y-5.3894
X2.8894Y-1.5394
X2.8894Y-5.3394
X2.9394Y-1.3894
X2.9394Y-3.1394
X2.9394Y-4.6394
X2.9894Y-1.3394
X2.9894Y-3.2394
X2.9894Y-5.0894
X3.0394Y-1.2394
X3.0394Y-3.3394
X3.0394Y-5.0394
X3.0894Y-1.1394
X3.0894Y-3.4394
X3.0894Y-4.9894
X3.1394Y-1.0394
X3.1394Y-3.5394
X3.1394Y-4.9394
X3.1894Y-0.9394
X3.1894Y-3.6394
X3.1894Y-4.8894
X3.2394Y-0.8394
X3.2394Y-3.7394
X3.2394Y-4.8394
X3.2894Y-0.7394
X3.2894Y-3.8394
X3.2894Y-4.7894
X3.3394Y-0.6394
X3.3394Y-3.9394
X3.3394Y-4.7394
X3.3894Y-1.2894
X3.3894Y-3.3894
X3.3894Y-5.2894
X3.4394Y-1.1894
X3.4394Y-3.4894
X3.4394Y-5.2394
X3.4394Y-5.2894
X3.4894Y-1.0894
X3.4894Y-3.5894
X3.4894Y-5.1894
X3.5394Y-0.9894
X3.5394Y-3.6894
X3.5394Y-5.1394
X3.5394Y-5.2394
X3.5894Y-0.8894
X3.5894Y-3.7894
X3.6394Y-0.7894
X3.6394Y-3.8894
X3.6394Y-5.1894
X3.6894Y-0.6894
X3.6894Y-3.9894
X3.7394Y-0.5894
X3.7394Y-4.0894
X3.7394Y-5.1394
X3.7894Y-0.4894
X3.7894Y-4.1894
X3.8394Y-0.3894
X3.8394Y-4.2894
X3.8394Y-5.3394
X3.8894Y-0.2894
X3.8894Y-4.3894
X3.9394Y-0.1894
X3.9394Y-4.4394
X3.9394Y-5.0894
X3.9894Y-0.2394
X3.9894Y-4.3394
X4.0394Y-0.3394
X4.0394Y-4.2394
X4.0394Y-5.0394
X4.0894Y-0.4394
X4.0894Y-4.1394
X4.1394Y-0.5394
X4.1394Y-4.0394
X4.1394Y-4.9894
X4.1894Y-1.6394
X4.1894Y-1.8394
X4.1894Y-2.9394
X4.2394Y-4.9394
X4.3394Y-4.8894
X4.4394Y-4.8394
X4.5394Y-4.7894
X4.5694Y-1.7394
X4.5694Y-2.2494
X4.5694Y-3.0894
X4.6394Y-4.7394
X4.8894Y-5.3894
X4.9394Y-4.5394
X5.0394Y-4.6394
X5.0894Y-1.5394
X5.1394Y-4.5894
X5.1894Y-3.9394
X5.2394Y-3.8394
X5.2894Y-3.7394
X5.3394Y-3.6394
X5.4144Y-3.5394
X5.5644Y-1.6894
X5.5894Y-3.3394
X5.5894Y-3.5894
X5.6394Y-3.4394
X5.6394Y-3.6894
X5.6894Y-3.5394
X5.6894Y-3.7894
X5.7394Y-4.0394
X5.7894Y-4.1394
X5.8394Y-4.3894
X5.8894Y-4.1894
X5.9394Y-3.9894
X5.9894Y-3.9394
X6.0394Y-3.6441
X6.1394Y-3.8394
X6.1894Y-4.4394
X6.2894Y-4.5394
X6.3394Y-4.3394
X6.3894Y-4.2394
X6.4394Y-4.2894
T2
X4.9894Y-0.9894
X5.0394Y-0.9894
X5.0894Y-0.9894
T3
X0.0894Y-4.3644
X0.0894Y-4.4644
X0.0894Y-4.5644
X0.0894Y-4.6644
X0.0894Y-4.7644
X0.0894Y-4.8644
X0.0894Y-4.9644
X0.0894Y-5.0644
X0.1094Y-2.5446
X0.1094Y-2.9446
X0.1894Y-5.2394
X0.2878Y-5.2394
X0.2894Y-4.1644
X0.3878Y-4.1644
X0.3894Y-3.3594
X0.3894Y-4.3644
X0.3894Y-4.4644
X0.3894Y-4.5644
X0.3894Y-4.6644
X0.3894Y-4.7644
X0.3894Y-4.8644
X0.3894Y-4.9644
X0.3894Y-5.0644
X0.4894Y-3.6894
X0.4894Y-3.9894
X0.5894Y-3.6894
X0.5894Y-3.9894
X0.6144Y-4.3644
X0.6144Y-4.9644
X0.6394Y-5.4394
X0.6394Y-6.0394
X0.6894Y-3.6894
X0.6894Y-3.9894
X0.7394Y-5.4394
X0.7394Y-6.0394
X0.7894Y-2.5394
X0.7894Y-2.9394
X0.7894Y-3.3594
X0.7894Y-3.6894
X0.7894Y-3.9894
X0.8394Y-5.4394
X0.8394Y-6.0394
X0.8894Y-3.6894
X0.8894Y-3.9894
X0.9144Y-4.3644
X0.9144Y-4.9644
X0.9394Y-5.4394
X0.9394Y-6.0394
X1.0394Y-5.4394
X1.0394Y-6.0394
X1.1394Y-5.4394
X1.1394Y-6.0394
X1.1898Y-3.39
X1.1898Y-3.49
X1.1898Y-3.59
X1.1898Y-3.69
X1.1898Y-3.79
X1.1898Y-3.89
X1.1898Y-3.99
X1.1898Y-4.09
X1.2394Y-5.4394
X1.2394Y-6.0394
X1.3394Y-5.4394
X1.3394Y-6.0394
X1.4394Y-5.4394
X1.4394Y-6.0394
X1.4894Y-2.5394
X1.4894Y-2.9394
X1.4898Y-3.39
X1.4898Y-3.49
X1.4898Y-3.59
X1.4898Y-3.69
X1.4898Y-3.79
X1.4898Y-3.89
X1.4898Y-3.99
X1.4898Y-4.09
X1.5152Y-3.2644
X1.5394Y-5.4394
X1.5394Y-6.0394
X1.6136Y-3.2644
X1.6394Y-5.4394
X1.6394Y-6.0394
X1.7394Y-3.3894
X1.7394Y-3.4894
X1.7394Y-3.5894
X1.7394Y-3.6894
X1.7394Y-3.7894
X1.7394Y-3.8894
X1.7394Y-3.9894
X1.7394Y-4.0894
X1.7394Y-4.1894
X1.7394Y-4.2894
X1.7394Y-5.4394
X1.7394Y-6.0394
X1.8394Y-5.4394
X1.8394Y-6.0394
X1.9394Y-3.2644
X1.9394Y-5.4394
X1.9394Y-6.0394
X2.0378Y-3.2644
X2.0394Y-3.3894
X2.0394Y-3.4894
X2.0394Y-3.5894
X2.0394Y-3.6894
X2.0394Y-3.7894
X2.0394Y-3.8894
X2.0394Y-3.9894
X2.0394Y-4.0894
X2.0394Y-4.1894
X2.0394Y-4.2894
X2.0394Y-5.4394
X2.0394Y-6.0394
X2.1394Y-5.4394
X2.1394Y-6.0394
X2.1894Y-2.5394
X2.1894Y-2.9394
X2.2394Y-5.4394
X2.2394Y-6.0394
X2.3148Y-3.3892
X2.3148Y-3.4892
X2.3148Y-3.5892
X2.3148Y-3.6892
X2.3148Y-3.7892
X2.3148Y-3.8892
X2.3148Y-3.9892
X2.3148Y-4.0892
X2.3148Y-4.1892
X2.3148Y-4.2892
X2.3148Y-4.3892
X2.3148Y-4.4892
X2.3394Y-5.4394
X2.3394Y-6.0394
X2.4394Y-5.4394
X2.4394Y-6.0394
X2.5394Y-5.4394
X2.5394Y-6.0394
X2.6148Y-3.3892
X2.6148Y-3.4892
X2.6148Y-3.5892
X2.6148Y-3.6892
X2.6148Y-3.7892
X2.6148Y-3.8892
X2.6148Y-3.9892
X2.6148Y-4.0892
X2.6148Y-4.1892
X2.6148Y-4.2892
X2.6148Y-4.3892
X2.6148Y-4.4892
X2.6644Y-3.1644
X2.6644Y-3.2628
X2.7394Y-5.9378
X2.7394Y-6.0362
X3.2394Y-5.4394
X3.2394Y-6.0394
X3.3394Y-5.4394
X3.3394Y-6.0394
X3.4394Y-5.4394
X3.4394Y-6.0394
X3.5394Y-5.4394
X3.5394Y-6.0394
X3.6394Y-5.4394
X3.6394Y-6.0394
X3.7394Y-5.4394
X3.7394Y-6.0394
X3.8394Y-5.4394
X3.8394Y-6.0394
X3.9394Y-5.4394
X3.9394Y-6.0394
X4.0394Y-5.4394
X4.0394Y-6.0394
X4.1394Y-5.4394
X4.1394Y-6.0394
X4.2394Y-5.4394
X4.2394Y-6.0394
X4.2606Y-3.0144
X4.3394Y-3.0144
X4.3394Y-5.4394
X4.3394Y-6.0394
X4.3644Y-3.1894
X4.3644Y-3.2878
X4.4394Y-5.4394
X4.4394Y-6.0394
X4.4892Y-2.5896
X4.4892Y-2.6896
X4.4892Y-2.7896
X4.4892Y-2.8896
X4.4892Y-2.9896
X4.4892Y-3.0896
X4.4892Y-3.1896
X4.4892Y-3.2896
X4.4892Y-3.3896
X4.4892Y-3.4896
X4.4892Y-3.5896
X4.4892Y-3.6896
X4.4892Y-3.7896
X4.4892Y-3.8896
X4.4892Y-3.9896
X4.4892Y-4.0896
X4.4892Y-4.1896
X4.4892Y-4.2896
X4.4892Y-4.3896
X4.4892Y-4.4896
X4.5394Y-5.4394
X4.5394Y-6.0394
X4.5894Y-0.3894
X4.5894Y-0.4878
X4.6394Y-1.7894
X4.6394Y-1.9894
X4.6394Y-2.1994
X4.6394Y-2.3894
X4.6394Y-5.4394
X4.6394Y-6.0394
X4.7394Y-0.3894
X4.7394Y-0.7894
X4.7394Y-5.4394
X4.7394Y-6.0394
X4.8394Y-5.4394
X4.8394Y-6.0394
X4.8894Y-0.3894
X4.8894Y-0.7894
X4.9394Y-5.4394
X4.9394Y-6.0394
X5.0394Y-1.7894
X5.0394Y-1.9894
X5.0394Y-2.1994
X5.0394Y-2.3894
X5.0394Y-5.4394
X5.0394Y-6.0394
X5.0892Y-2.5896
X5.0892Y-2.6896
X5.0892Y-2.7896
X5.0892Y-2.8896
X5.0892Y-2.9896
X5.0892Y-3.0896
X5.0892Y-3.1896
X5.0892Y-3.2896
X5.0892Y-3.3896
X5.0892Y-3.4896
X5.0892Y-3.5896
X5.0892Y-3.6896
X5.0892Y-3.7896
X5.0892Y-3.8896
X5.0892Y-3.9896
X5.0892Y-4.0896
X5.0892Y-4.1896
X5.0892Y-4.2896
X5.0892Y-4.3896
X5.0892Y-4.4896
X5.0898Y-0.3898
X5.0898Y-0.4898
X5.0898Y-0.5898
X5.0898Y-0.6898
X5.1394Y-5.4394
X5.1394Y-6.0394
X5.2394Y-1.0394
X5.3394Y-5.9409
X5.3394Y-6.0394
X5.3898Y-0.3898
X5.3898Y-0.4898
X5.3898Y-0.5898
X5.3898Y-0.6898
X5.4894Y-2.5894
X5.4894Y-2.6894
X5.4894Y-2.7894
X5.4894Y-2.8894
X5.4894Y-2.9894
X5.4894Y-3.0894
X5.4894Y-3.1894
X5.4894Y-3.2894
X5.4894Y-3.3894
X5.4894Y-3.4894
X5.4894Y-3.5894
X5.4894Y-3.6894
X5.4894Y-3.7894
X5.4894Y-3.8894
X5.5394Y-0.6894
X5.5394Y-0.7878
X5.6394Y-1.0394
X5.7894Y-0.7394
X5.7894Y-1.1394
X6.0894Y-2.5894
X6.0894Y-2.6894
X6.0894Y-2.7894
X6.0894Y-2.8894
X6.0894Y-2.9894
X6.0894Y-3.0894
X6.0894Y-3.1894
X6.0894Y-3.2894
X6.0894Y-3.3894
X6.0894Y-3.4894
X6.0894Y-3.5894
X6.0894Y-3.6894
X6.0894Y-3.7894
X6.0894Y-3.8894
X6.2394Y-2.5909
X6.2394Y-2.6894
T4
X5.5244Y-0.0817
X5.6819Y-0.0817
X5.7894Y-0.4394
X5.7894Y-0.5394
X5.8394Y-0.0817
T5
X4.8126Y0.0087
X4.9898Y0.0087
T6
X0.0394Y-5.2394
X0.0394Y-5.3394
X0.0394Y-5.4394
X0.0394Y-5.5394
X0.1094Y-2.3044
X0.1094Y-2.4044
X0.1994Y-5.3894
X0.1994Y-5.4894
X0.2994Y-5.3894
X0.2994Y-5.4894
X0.3694Y-0.0394
X0.3694Y-0.1394
X0.3694Y-0.2394
X0.3694Y-0.3394
X0.3694Y-0.4394
X0.3694Y-0.5394
X0.3694Y-0.6394
X0.3694Y-0.7394
X0.3694Y-0.8394
X0.3694Y-0.9394
X0.3694Y-1.0394
X0.3694Y-1.1394
X0.3694Y-1.2394
X0.3694Y-1.3394
X0.3694Y-1.4394
X0.3694Y-1.5394
X0.3694Y-1.6394
X0.3694Y-1.7394
X0.3694Y-1.8394
X0.3694Y-1.9394
X0.3694Y-2.0394
X0.3694Y-2.1394
X0.3694Y-2.2394
X0.3694Y-2.3394
X0.3694Y-2.4394
X0.3694Y-2.5394
X0.3694Y-2.6394
X0.3694Y-2.7394
X0.3694Y-2.8394
X0.3694Y-2.9394
X0.4394Y-6.3394
X0.5394Y-6.3394
X0.5694Y-0.0394
X0.5694Y-0.1394
X0.5694Y-0.2394
X0.5694Y-0.3394
X0.5694Y-0.4394
X0.5694Y-0.5394
X0.5694Y-0.6394
X0.5694Y-0.7394
X0.5694Y-0.8394
X0.5694Y-0.9394
X0.5694Y-1.0394
X0.5694Y-1.1394
X0.5694Y-1.2394
X0.5694Y-1.3394
X0.5694Y-1.4394
X0.5694Y-1.5394
X0.5694Y-1.6394
X0.5694Y-1.7394
X0.5694Y-1.8394
X0.5694Y-1.9394
X0.5694Y-2.0394
X0.5694Y-2.1394
X0.5694Y-2.2394
X0.5694Y-2.3394
X0.5694Y-2.4394
X0.5694Y-2.5394
X0.5694Y-2.6394
X0.5694Y-2.7394
X0.5694Y-2.8394
X0.5694Y-2.9394
X0.6394Y-6.3394
X0.7394Y-6.3394
X0.7894Y-2.2892
X0.7894Y-2.3892
X0.8394Y-6.3394
X0.9144Y-3.3594
X0.9394Y-6.3394
X1.0144Y-3.3594
X1.0394Y-6.3394
X1.0644Y-0.0394
X1.0644Y-0.1394
X1.0644Y-0.2394
X1.0644Y-0.3394
X1.0644Y-0.4394
X1.0644Y-0.5394
X1.0644Y-0.6394
X1.0644Y-0.7394
X1.0644Y-0.8394
X1.0644Y-0.9394
X1.0644Y-1.0394
X1.0644Y-1.1394
X1.0644Y-1.2394
X1.0644Y-1.3394
X1.0644Y-1.4394
X1.0644Y-1.5394
X1.0644Y-1.6394
X1.0644Y-1.7394
X1.0644Y-1.8394
X1.0644Y-1.9394
X1.0644Y-2.0394
X1.0644Y-2.1394
X1.0644Y-2.2394
X1.0644Y-2.3394
X1.0644Y-2.4394
X1.0644Y-2.5394
X1.0644Y-2.6394
X1.0644Y-2.7394
X1.0644Y-2.8394
X1.0644Y-2.9394
X1.1394Y-6.3394
X1.2394Y-6.3394
X1.2644Y-0.0394
X1.2644Y-0.1394
X1.2644Y-0.2394
X1.2644Y-0.3394
X1.2644Y-0.4394
X1.2644Y-0.5394
X1.2644Y-0.6394
X1.2644Y-0.7394
X1.2644Y-0.8394
X1.2644Y-0.9394
X1.2644Y-1.0394
X1.2644Y-1.1394
X1.2644Y-1.2394
X1.2644Y-1.3394
X1.2644Y-1.4394
X1.2644Y-1.5394
X1.2644Y-1.6394
X1.2644Y-1.7394
X1.2644Y-1.8394
X1.2644Y-1.9394
X1.2644Y-2.0394
X1.2644Y-2.1394
X1.2644Y-2.2394
X1.2644Y-2.3394
X1.2644Y-2.4394
X1.2644Y-2.5394
X1.2644Y-2.6394
X1.2644Y-2.7394
X1.2644Y-2.8394
X1.2644Y-2.9394
X1.3394Y-6.3394
X1.4894Y-2.2994
X1.4894Y-2.3994
X1.5394Y-6.3394
X1.6394Y-6.3394
X1.7394Y-6.3394
X1.7644Y-0.0394
X1.7644Y-0.1394
X1.7644Y-0.2394
X1.7644Y-0.3394
X1.7644Y-0.4394
X1.7644Y-0.5394
X1.7644Y-0.6394
X1.7644Y-0.7394
X1.7644Y-0.8394
X1.7644Y-0.9394
X1.7644Y-1.0394
X1.7644Y-1.1394
X1.7644Y-1.2394
X1.7644Y-1.3394
X1.7644Y-1.4394
X1.7644Y-1.5394
X1.7644Y-1.6394
X1.7644Y-1.7394
X1.7644Y-1.8394
X1.7644Y-1.9394
X1.7644Y-2.0394
X1.7644Y-2.1394
X1.7644Y-2.2394
X1.7644Y-2.3394
X1.7644Y-2.4394
X1.7644Y-2.5394
X1.7644Y-2.6394
X1.7644Y-2.7394
X1.7644Y-2.8394
X1.7644Y-2.9394
X1.8394Y-6.3394
X1.9394Y-6.3394
X1.9644Y-0.0394
X1.9644Y-0.1394
X1.9644Y-0.2394
X1.9644Y-0.3394
X1.9644Y-0.4394
X1.9644Y-0.5394
X1.9644Y-0.6394
X1.9644Y-0.7394
X1.9644Y-0.8394
X1.9644Y-0.9394
X1.9644Y-1.0394
X1.9644Y-1.1394
X1.9644Y-1.2394
X1.9644Y-1.3394
X1.9644Y-1.4394
X1.9644Y-1.5394
X1.9644Y-1.6394
X1.9644Y-1.7394
X1.9644Y-1.8394
X1.9644Y-1.9394
X1.9644Y-2.0394
X1.9644Y-2.1394
X1.9644Y-2.2394
X1.9644Y-2.3394
X1.9644Y-2.4394
X1.9644Y-2.5394
X1.9644Y-2.6394
X1.9644Y-2.7394
X1.9644Y-2.8394
X1.9644Y-2.9394
X2.0394Y-6.3394
X2.1394Y-6.3394
X2.1894Y-2.2892
X2.1894Y-2.3892
X2.2394Y-6.3394
X2.3394Y-6.3394
X2.4394Y-6.3394
X2.4642Y-0.0394
X2.4642Y-0.1394
X2.4642Y-0.2394
X2.4642Y-0.3394
X2.4642Y-0.4394
X2.4642Y-0.5394
X2.4642Y-0.6394
X2.4642Y-0.7394
X2.4642Y-0.8394
X2.4642Y-0.9394
X2.4642Y-1.0394
X2.4642Y-1.1394
X2.4642Y-1.2394
X2.4642Y-1.3394
X2.4642Y-1.4394
X2.4642Y-1.5394
X2.4642Y-1.6394
X2.4642Y-1.7394
X2.4642Y-1.8394
X2.4642Y-1.9394
X2.4642Y-2.0394
X2.4642Y-2.1394
X2.4642Y-2.2394
X2.4642Y-2.3394
X2.4642Y-2.4394
X2.4642Y-2.5394
X2.4642Y-2.6394
X2.4642Y-2.7394
X2.4642Y-2.8394
X2.4642Y-2.9394
X2.6394Y-6.3394
X2.6642Y-0.0394
X2.6642Y-0.1394
X2.6642Y-0.2394
X2.6642Y-0.3394
X2.6642Y-0.4394
X2.6642Y-0.5394
X2.6642Y-0.6394
X2.6642Y-0.7394
X2.6642Y-0.8394
X2.6642Y-0.9394
X2.6642Y-1.0394
X2.6642Y-1.1394
X2.6642Y-1.2394
X2.6642Y-1.3394
X2.6642Y-1.4394
X2.6642Y-1.5394
X2.6642Y-1.6394
X2.6642Y-1.7394
X2.6642Y-1.8394
X2.6642Y-1.9394
X2.6642Y-2.0394
X2.6642Y-2.1394
X2.6642Y-2.2394
X2.6642Y-2.3394
X2.6642Y-2.4394
X2.6642Y-2.5394
X2.6642Y-2.6394
X2.6642Y-2.7394
X2.6642Y-2.8394
X2.6642Y-2.9394
X2.7394Y-6.3394
X3.0394Y-6.3394
X3.1394Y-6.3394
X3.2394Y-6.3394
X3.3394Y-6.3394
X3.4394Y-6.3394
X3.5394Y-6.3394
X3.6394Y-6.3394
X3.7394Y-6.3394
X3.8394Y-6.3394
X3.9394Y-6.3394
X4.1394Y-6.3394
X4.2394Y-6.3394
X4.3394Y-6.3394
X4.4394Y-6.3394
X4.4794Y-1.8392
X4.4794Y-1.9392
X4.4894Y-2.1496
X4.4894Y-2.2496
X4.5394Y-6.3394
X4.6394Y-6.3394
X4.7394Y-6.3394
X4.8394Y-6.3394
X4.9394Y-6.3394
X5.0394Y-6.3394
X5.2394Y-6.3394
X5.3394Y-6.3394
T7
X4.3144Y-1.8394
X4.3144Y-2.2394
T8
X5.4457Y0.0856
X5.4457Y-0.1506
X5.9181Y0.0856
X5.9181Y-0.1506
T9
X4.7634Y-0.0894
X5.0394Y-0.0894
T10
X6.1228Y-0.5472
X6.1228Y-0.7126
X6.1228Y-0.878
X6.1228Y-1.0433
X6.1228Y-1.2087
X6.1228Y-1.374
X6.1228Y-1.5394
X6.1228Y-1.7047
X6.1228Y-1.8701
X6.1228Y-2.0354
X6.1228Y-2.2008
X6.1228Y-2.3661
X6.3394Y-0.5472
X6.3394Y-0.7126
X6.3394Y-0.878
X6.3394Y-1.0433
X6.3394Y-1.2087
X6.3394Y-1.374
X6.3394Y-1.5394
X6.3394Y-1.7047
X6.3394Y-1.8701
X6.3394Y-2.0354
X6.3394Y-2.2008
X6.3394Y-2.3661
T0
M30
