%TF.GenerationSoftware,KiCad,Pcbnew,(5.99.0-7356-g63088e8bdb)*%
%TF.CreationDate,2021-06-15T10:51:38+08:00*%
%TF.ProjectId,AdapterCartdrige,41646170-7465-4724-9361-727464726967,rev?*%
%TF.SameCoordinates,Original*%
%TF.FileFunction,Copper,L2,Bot*%
%TF.FilePolarity,Positive*%
%FSLAX46Y46*%
G04 Gerber Fmt 4.6, Leading zero omitted, Abs format (unit mm)*
G04 Created by KiCad (PCBNEW (5.99.0-7356-g63088e8bdb)) date 2021-06-15 10:51:38*
%MOMM*%
%LPD*%
G01*
G04 APERTURE LIST*
%TA.AperFunction,ComponentPad*%
%ADD10R,1.700000X1.700000*%
%TD*%
%TA.AperFunction,ComponentPad*%
%ADD11O,1.700000X1.700000*%
%TD*%
%TA.AperFunction,ComponentPad*%
%ADD12C,1.600000*%
%TD*%
%TA.AperFunction,ComponentPad*%
%ADD13R,1.600000X1.600000*%
%TD*%
%TA.AperFunction,ComponentPad*%
%ADD14O,1.600000X1.600000*%
%TD*%
%TA.AperFunction,Conductor*%
%ADD15C,0.250000*%
%TD*%
G04 APERTURE END LIST*
D10*
%TO.P,J1,1,Pin_1*%
%TO.N,/A14*%
X121920000Y-51054000D03*
D11*
%TO.P,J1,2,Pin_2*%
%TO.N,/A12*%
X124460000Y-51054000D03*
%TO.P,J1,3,Pin_3*%
%TO.N,/A7*%
X121920000Y-53594000D03*
%TO.P,J1,4,Pin_4*%
%TO.N,/A6*%
X124460000Y-53594000D03*
%TO.P,J1,5,Pin_5*%
%TO.N,/A5*%
X121920000Y-56134000D03*
%TO.P,J1,6,Pin_6*%
%TO.N,/A4*%
X124460000Y-56134000D03*
%TO.P,J1,7,Pin_7*%
%TO.N,/A3*%
X121920000Y-58674000D03*
%TO.P,J1,8,Pin_8*%
%TO.N,/A2*%
X124460000Y-58674000D03*
%TO.P,J1,9,Pin_9*%
%TO.N,/A1*%
X121920000Y-61214000D03*
%TO.P,J1,10,Pin_10*%
%TO.N,/A0*%
X124460000Y-61214000D03*
%TO.P,J1,11,Pin_11*%
%TO.N,/D0*%
X121920000Y-63754000D03*
%TO.P,J1,12,Pin_12*%
%TO.N,/D1*%
X124460000Y-63754000D03*
%TO.P,J1,13,Pin_13*%
%TO.N,/D2*%
X121920000Y-66294000D03*
%TO.P,J1,14,Pin_14*%
%TO.N,GND*%
X124460000Y-66294000D03*
%TO.P,J1,15,Pin_15*%
%TO.N,/D3*%
X121920000Y-68834000D03*
%TO.P,J1,16,Pin_16*%
%TO.N,/D4*%
X124460000Y-68834000D03*
%TO.P,J1,17,Pin_17*%
%TO.N,/D5*%
X121920000Y-71374000D03*
%TO.P,J1,18,Pin_18*%
%TO.N,/D6*%
X124460000Y-71374000D03*
%TO.P,J1,19,Pin_19*%
%TO.N,/D7*%
X121920000Y-73914000D03*
%TO.P,J1,20,Pin_20*%
%TO.N,CS*%
X124460000Y-73914000D03*
%TO.P,J1,21,Pin_21*%
%TO.N,/A10*%
X121920000Y-76454000D03*
%TO.P,J1,22,Pin_22*%
%TO.N,OE*%
X124460000Y-76454000D03*
%TO.P,J1,23,Pin_23*%
%TO.N,/A11*%
X121920000Y-78994000D03*
%TO.P,J1,24,Pin_24*%
%TO.N,/A9*%
X124460000Y-78994000D03*
%TO.P,J1,25,Pin_25*%
%TO.N,/A8*%
X121920000Y-81534000D03*
%TO.P,J1,26,Pin_26*%
%TO.N,/A13*%
X124460000Y-81534000D03*
%TO.P,J1,27,Pin_27*%
%TO.N,+5V*%
X121920000Y-84074000D03*
%TO.P,J1,28,Pin_28*%
X124460000Y-84074000D03*
%TO.P,J1,29,Pin_29*%
%TO.N,GND*%
X121920000Y-86614000D03*
%TO.P,J1,30,Pin_30*%
X124460000Y-86614000D03*
%TD*%
D12*
%TO.P,C1,1*%
%TO.N,+5V*%
X117348000Y-47498000D03*
%TO.P,C1,2*%
%TO.N,GND*%
X119848000Y-47498000D03*
%TD*%
D13*
%TO.P,U1,1,A14*%
%TO.N,/A14*%
X101854000Y-51054000D03*
D14*
%TO.P,U1,2,A12*%
%TO.N,/A12*%
X101854000Y-53594000D03*
%TO.P,U1,3,A7*%
%TO.N,/A7*%
X101854000Y-56134000D03*
%TO.P,U1,4,A6*%
%TO.N,/A6*%
X101854000Y-58674000D03*
%TO.P,U1,5,A5*%
%TO.N,/A5*%
X101854000Y-61214000D03*
%TO.P,U1,6,A4*%
%TO.N,/A4*%
X101854000Y-63754000D03*
%TO.P,U1,7,A3*%
%TO.N,/A3*%
X101854000Y-66294000D03*
%TO.P,U1,8,A2*%
%TO.N,/A2*%
X101854000Y-68834000D03*
%TO.P,U1,9,A1*%
%TO.N,/A1*%
X101854000Y-71374000D03*
%TO.P,U1,10,A0*%
%TO.N,/A0*%
X101854000Y-73914000D03*
%TO.P,U1,11,D0*%
%TO.N,/D0*%
X101854000Y-76454000D03*
%TO.P,U1,12,D1*%
%TO.N,/D1*%
X101854000Y-78994000D03*
%TO.P,U1,13,D2*%
%TO.N,/D2*%
X101854000Y-81534000D03*
%TO.P,U1,14,GND*%
%TO.N,GND*%
X101854000Y-84074000D03*
%TO.P,U1,15,D3*%
%TO.N,/D3*%
X117094000Y-84074000D03*
%TO.P,U1,16,D4*%
%TO.N,/D4*%
X117094000Y-81534000D03*
%TO.P,U1,17,D5*%
%TO.N,/D5*%
X117094000Y-78994000D03*
%TO.P,U1,18,D6*%
%TO.N,/D6*%
X117094000Y-76454000D03*
%TO.P,U1,19,D7*%
%TO.N,/D7*%
X117094000Y-73914000D03*
%TO.P,U1,20,~CS*%
%TO.N,CS*%
X117094000Y-71374000D03*
%TO.P,U1,21,A10*%
%TO.N,/A10*%
X117094000Y-68834000D03*
%TO.P,U1,22,~OE*%
%TO.N,OE*%
X117094000Y-66294000D03*
%TO.P,U1,23,A11*%
%TO.N,/A11*%
X117094000Y-63754000D03*
%TO.P,U1,24,A9*%
%TO.N,/A9*%
X117094000Y-61214000D03*
%TO.P,U1,25,A8*%
%TO.N,/A8*%
X117094000Y-58674000D03*
%TO.P,U1,26,A13*%
%TO.N,/A13*%
X117094000Y-56134000D03*
%TO.P,U1,27,~WE*%
%TO.N,+5V*%
X117094000Y-53594000D03*
%TO.P,U1,28,VCC*%
X117094000Y-51054000D03*
%TD*%
D15*
%TO.N,CS*%
X123190000Y-72644000D02*
X124460000Y-73914000D01*
X118364000Y-72644000D02*
X123190000Y-72644000D01*
X117094000Y-71374000D02*
X118364000Y-72644000D01*
%TO.N,/D7*%
X117094000Y-73914000D02*
X121920000Y-73914000D01*
%TO.N,/D6*%
X125222000Y-75184000D02*
X125984000Y-74422000D01*
X117094000Y-76454000D02*
X118364000Y-75184000D01*
X125984000Y-74422000D02*
X125984000Y-71882000D01*
X125476000Y-71374000D02*
X124460000Y-71374000D01*
X118364000Y-75184000D02*
X125222000Y-75184000D01*
X125984000Y-71882000D02*
X125476000Y-71374000D01*
%TO.N,/D5*%
X118364000Y-77724000D02*
X125730000Y-77724000D01*
X125730000Y-77724000D02*
X126492000Y-76962000D01*
X126492000Y-76962000D02*
X126492000Y-70612000D01*
X125984000Y-70104000D02*
X123190000Y-70104000D01*
X117094000Y-78994000D02*
X118364000Y-77724000D01*
X126492000Y-70612000D02*
X125984000Y-70104000D01*
X123190000Y-70104000D02*
X121920000Y-71374000D01*
%TO.N,/D4*%
X118364000Y-80264000D02*
X125730000Y-80264000D01*
X125984000Y-68834000D02*
X124460000Y-68834000D01*
X117094000Y-81534000D02*
X118364000Y-80264000D01*
X127000000Y-69850000D02*
X125984000Y-68834000D01*
X127000000Y-78994000D02*
X127000000Y-69850000D01*
X125730000Y-80264000D02*
X127000000Y-78994000D01*
%TO.N,/D3*%
X125984000Y-67564000D02*
X127508000Y-69088000D01*
X125889001Y-82898999D02*
X118269001Y-82898999D01*
X127508000Y-69088000D02*
X127508000Y-81280000D01*
X122428000Y-68834000D02*
X123698000Y-67564000D01*
X127508000Y-81280000D02*
X125889001Y-82898999D01*
X121920000Y-68834000D02*
X122428000Y-68834000D01*
X118269001Y-82898999D02*
X117094000Y-84074000D01*
X123698000Y-67564000D02*
X125984000Y-67564000D01*
%TO.N,GND*%
X124460000Y-66294000D02*
X123952000Y-66294000D01*
%TO.N,/D1*%
X124460000Y-63754000D02*
X123095001Y-65118999D01*
X115729001Y-65118999D02*
X101854000Y-78994000D01*
X123095001Y-65118999D02*
X115729001Y-65118999D01*
%TO.N,/A0*%
X113189001Y-62578999D02*
X101854000Y-73914000D01*
X123095001Y-62578999D02*
X113189001Y-62578999D01*
X124460000Y-61214000D02*
X123095001Y-62578999D01*
%TO.N,/A2*%
X124460000Y-58674000D02*
X123095001Y-60038999D01*
X123095001Y-60038999D02*
X110649001Y-60038999D01*
X110649001Y-60038999D02*
X101854000Y-68834000D01*
%TO.N,/A4*%
X123095001Y-57498999D02*
X108109001Y-57498999D01*
X124460000Y-56134000D02*
X123095001Y-57498999D01*
X108109001Y-57498999D02*
X101854000Y-63754000D01*
%TO.N,/A6*%
X124460000Y-53594000D02*
X123095001Y-54958999D01*
X105569001Y-54958999D02*
X101854000Y-58674000D01*
X123095001Y-54958999D02*
X105569001Y-54958999D01*
%TO.N,/A12*%
X123095001Y-52418999D02*
X103029001Y-52418999D01*
X124460000Y-51054000D02*
X123095001Y-52418999D01*
X103029001Y-52418999D02*
X101854000Y-53594000D01*
%TD*%
%TA.AperFunction,Conductor*%
%TO.N,GND*%
G36*
X117091038Y-45994002D02*
G01*
X117137531Y-46047658D01*
X117147635Y-46117932D01*
X117118141Y-46182512D01*
X117055528Y-46221707D01*
X116904067Y-46262291D01*
X116904065Y-46262292D01*
X116898757Y-46263714D01*
X116893776Y-46266036D01*
X116893775Y-46266037D01*
X116696237Y-46358150D01*
X116696232Y-46358153D01*
X116691250Y-46360476D01*
X116686743Y-46363632D01*
X116686741Y-46363633D01*
X116508209Y-46488642D01*
X116508206Y-46488644D01*
X116503698Y-46491801D01*
X116341801Y-46653698D01*
X116338644Y-46658206D01*
X116338642Y-46658209D01*
X116213633Y-46836741D01*
X116210476Y-46841250D01*
X116208153Y-46846232D01*
X116208150Y-46846237D01*
X116190277Y-46884567D01*
X116113714Y-47048757D01*
X116112292Y-47054065D01*
X116112291Y-47054067D01*
X116091017Y-47133461D01*
X116054455Y-47269913D01*
X116034500Y-47498000D01*
X116054455Y-47726087D01*
X116055879Y-47731400D01*
X116055879Y-47731402D01*
X116092157Y-47866790D01*
X116113714Y-47947243D01*
X116116036Y-47952224D01*
X116116037Y-47952225D01*
X116208150Y-48149763D01*
X116208153Y-48149768D01*
X116210476Y-48154750D01*
X116213632Y-48159257D01*
X116213633Y-48159259D01*
X116255763Y-48219426D01*
X116341801Y-48342302D01*
X116503698Y-48504199D01*
X116508206Y-48507356D01*
X116508209Y-48507358D01*
X116599914Y-48571570D01*
X116691250Y-48635524D01*
X116696232Y-48637847D01*
X116696237Y-48637850D01*
X116892763Y-48729491D01*
X116898757Y-48732286D01*
X116904065Y-48733708D01*
X116904067Y-48733709D01*
X117114598Y-48790121D01*
X117114600Y-48790121D01*
X117119913Y-48791545D01*
X117348000Y-48811500D01*
X117576087Y-48791545D01*
X117581400Y-48790121D01*
X117581402Y-48790121D01*
X117791933Y-48733709D01*
X117791935Y-48733708D01*
X117797243Y-48732286D01*
X117803237Y-48729491D01*
X117999763Y-48637850D01*
X117999768Y-48637847D01*
X118004750Y-48635524D01*
X118078242Y-48584064D01*
X119126490Y-48584064D01*
X119135784Y-48596078D01*
X119186992Y-48631934D01*
X119196487Y-48637417D01*
X119393943Y-48729491D01*
X119404239Y-48733239D01*
X119614690Y-48789630D01*
X119625477Y-48791532D01*
X119842525Y-48810521D01*
X119853475Y-48810521D01*
X120070523Y-48791532D01*
X120081310Y-48789630D01*
X120291761Y-48733239D01*
X120302057Y-48729491D01*
X120499513Y-48637417D01*
X120509008Y-48631934D01*
X120561050Y-48595494D01*
X120569426Y-48585015D01*
X120562359Y-48571570D01*
X119860811Y-47870021D01*
X119846868Y-47862408D01*
X119845034Y-47862539D01*
X119838420Y-47866790D01*
X119132917Y-48572294D01*
X119126490Y-48584064D01*
X118078242Y-48584064D01*
X118096086Y-48571570D01*
X118187791Y-48507358D01*
X118187794Y-48507356D01*
X118192302Y-48504199D01*
X118354199Y-48342302D01*
X118440179Y-48219510D01*
X118482370Y-48159255D01*
X118482372Y-48159252D01*
X118485524Y-48154750D01*
X118487847Y-48149768D01*
X118489171Y-48147475D01*
X118540554Y-48098483D01*
X118610268Y-48085048D01*
X118676178Y-48111435D01*
X118707409Y-48147479D01*
X118714062Y-48159004D01*
X118750506Y-48211050D01*
X118760985Y-48219426D01*
X118774430Y-48212359D01*
X119475979Y-47510811D01*
X119482355Y-47499132D01*
X120212408Y-47499132D01*
X120212539Y-47500966D01*
X120216790Y-47507580D01*
X120922294Y-48213083D01*
X120934064Y-48219510D01*
X120946078Y-48210216D01*
X120981934Y-48159008D01*
X120987417Y-48149513D01*
X121079491Y-47952057D01*
X121083239Y-47941761D01*
X121139630Y-47731310D01*
X121141532Y-47720523D01*
X121160521Y-47503475D01*
X121160521Y-47492525D01*
X121141532Y-47275477D01*
X121139630Y-47264690D01*
X121083239Y-47054239D01*
X121079491Y-47043943D01*
X120987417Y-46846487D01*
X120981934Y-46836992D01*
X120945494Y-46784950D01*
X120935015Y-46776574D01*
X120921570Y-46783641D01*
X120220021Y-47485189D01*
X120212408Y-47499132D01*
X119482355Y-47499132D01*
X119483592Y-47496868D01*
X119483461Y-47495034D01*
X119479210Y-47488420D01*
X118773706Y-46782917D01*
X118761936Y-46776490D01*
X118749922Y-46785784D01*
X118714062Y-46836996D01*
X118707409Y-46848521D01*
X118656027Y-46897515D01*
X118586314Y-46910953D01*
X118520403Y-46884567D01*
X118489171Y-46848525D01*
X118487847Y-46846232D01*
X118485524Y-46841250D01*
X118446687Y-46785784D01*
X118357358Y-46658209D01*
X118357356Y-46658206D01*
X118354199Y-46653698D01*
X118192302Y-46491801D01*
X118187794Y-46488644D01*
X118187791Y-46488642D01*
X118009259Y-46363633D01*
X118009257Y-46363632D01*
X118004750Y-46360476D01*
X117999768Y-46358153D01*
X117999763Y-46358150D01*
X117802225Y-46266037D01*
X117802224Y-46266036D01*
X117797243Y-46263714D01*
X117791935Y-46262292D01*
X117791933Y-46262291D01*
X117640472Y-46221707D01*
X117579849Y-46184755D01*
X117548828Y-46120894D01*
X117557256Y-46050400D01*
X117602459Y-45995653D01*
X117673083Y-45974000D01*
X119524840Y-45974000D01*
X119592961Y-45994002D01*
X119639454Y-46047658D01*
X119649558Y-46117932D01*
X119620064Y-46182512D01*
X119557452Y-46221707D01*
X119404239Y-46262761D01*
X119393943Y-46266509D01*
X119196487Y-46358583D01*
X119186992Y-46364066D01*
X119134950Y-46400506D01*
X119126574Y-46410985D01*
X119133641Y-46424430D01*
X119835189Y-47125979D01*
X119849132Y-47133592D01*
X119850966Y-47133461D01*
X119857580Y-47129210D01*
X120563083Y-46423706D01*
X120569510Y-46411936D01*
X120560216Y-46399922D01*
X120509008Y-46364066D01*
X120499513Y-46358583D01*
X120302057Y-46266509D01*
X120291761Y-46262761D01*
X120138548Y-46221707D01*
X120077926Y-46184755D01*
X120046904Y-46120894D01*
X120055333Y-46050400D01*
X120100536Y-45995653D01*
X120171160Y-45974000D01*
X127551405Y-45974000D01*
X127573783Y-45976003D01*
X127579677Y-45977067D01*
X127579680Y-45977067D01*
X127584466Y-45977931D01*
X127666491Y-45979907D01*
X127675845Y-45980481D01*
X127676001Y-45980496D01*
X127677283Y-45980623D01*
X127689473Y-45982433D01*
X127768846Y-45998221D01*
X127792483Y-46005391D01*
X127860656Y-46033629D01*
X127882440Y-46045273D01*
X127943797Y-46086270D01*
X127943798Y-46086271D01*
X127962891Y-46101941D01*
X128015060Y-46154110D01*
X128030730Y-46173203D01*
X128071725Y-46234556D01*
X128083369Y-46256340D01*
X128111609Y-46324518D01*
X128118779Y-46348154D01*
X128134569Y-46427534D01*
X128136380Y-46439740D01*
X128136522Y-46441180D01*
X128137093Y-46450510D01*
X128138990Y-46529257D01*
X128139733Y-46533682D01*
X128139733Y-46533683D01*
X128141261Y-46542783D01*
X128143000Y-46563645D01*
X128143000Y-68522906D01*
X128122998Y-68591027D01*
X128069342Y-68637520D01*
X127999068Y-68647624D01*
X127934488Y-68618130D01*
X127927905Y-68612001D01*
X126487391Y-67171487D01*
X126480031Y-67163399D01*
X126475973Y-67157005D01*
X126427121Y-67111130D01*
X126424280Y-67108376D01*
X126403966Y-67088062D01*
X126400555Y-67085417D01*
X126391533Y-67077711D01*
X126365077Y-67052867D01*
X126359301Y-67047443D01*
X126352357Y-67043626D01*
X126352355Y-67043624D01*
X126341547Y-67037682D01*
X126325023Y-67026828D01*
X126315286Y-67019275D01*
X126315285Y-67019275D01*
X126309023Y-67014417D01*
X126301750Y-67011270D01*
X126301747Y-67011268D01*
X126281335Y-67002435D01*
X126268458Y-66996863D01*
X126257800Y-66991642D01*
X126225994Y-66974156D01*
X126225990Y-66974154D01*
X126219048Y-66970338D01*
X126211373Y-66968368D01*
X126211372Y-66968367D01*
X126199426Y-66965300D01*
X126180719Y-66958895D01*
X126169410Y-66954001D01*
X126169408Y-66954001D01*
X126162135Y-66950853D01*
X126154307Y-66949613D01*
X126154306Y-66949613D01*
X126118473Y-66943938D01*
X126106848Y-66941530D01*
X126069782Y-66932013D01*
X126069780Y-66932013D01*
X126064025Y-66930535D01*
X126063469Y-66930500D01*
X126043546Y-66930500D01*
X126023837Y-66928949D01*
X126004055Y-66925816D01*
X125996163Y-66926562D01*
X125960418Y-66929941D01*
X125948560Y-66930500D01*
X125858244Y-66930500D01*
X125790123Y-66910498D01*
X125743630Y-66856842D01*
X125733526Y-66786568D01*
X125736915Y-66770510D01*
X125795968Y-66559718D01*
X125794430Y-66551351D01*
X125782137Y-66548000D01*
X124332000Y-66548000D01*
X124263879Y-66527998D01*
X124217386Y-66474342D01*
X124206000Y-66422000D01*
X124206000Y-66166000D01*
X124226002Y-66097879D01*
X124279658Y-66051386D01*
X124332000Y-66040000D01*
X125779079Y-66040000D01*
X125792610Y-66036027D01*
X125793876Y-66027218D01*
X125746954Y-65846433D01*
X125743419Y-65836395D01*
X125653147Y-65635998D01*
X125647967Y-65626692D01*
X125525218Y-65444366D01*
X125518557Y-65436080D01*
X125366830Y-65277030D01*
X125358873Y-65269990D01*
X125182524Y-65138783D01*
X125169981Y-65131005D01*
X125122628Y-65078107D01*
X125111391Y-65008005D01*
X125139838Y-64942957D01*
X125163122Y-64921409D01*
X125343711Y-64792357D01*
X125447823Y-64687334D01*
X125502277Y-64632403D01*
X125502278Y-64632402D01*
X125506030Y-64628617D01*
X125582913Y-64519021D01*
X125635375Y-64444236D01*
X125635376Y-64444234D01*
X125638439Y-64439868D01*
X125737153Y-64231508D01*
X125799349Y-64009494D01*
X125801652Y-63987402D01*
X125822941Y-63783127D01*
X125823249Y-63780176D01*
X125823500Y-63754000D01*
X125823250Y-63751052D01*
X125804458Y-63529576D01*
X125804457Y-63529572D01*
X125804007Y-63524265D01*
X125787965Y-63462456D01*
X125747426Y-63306269D01*
X125746084Y-63301098D01*
X125722798Y-63249404D01*
X125653578Y-63095743D01*
X125653577Y-63095741D01*
X125651388Y-63090882D01*
X125522627Y-62899626D01*
X125363482Y-62732799D01*
X125178504Y-62595171D01*
X125173743Y-62592751D01*
X125170425Y-62590693D01*
X125123071Y-62537796D01*
X125111832Y-62467695D01*
X125140277Y-62402645D01*
X125163564Y-62381093D01*
X125179360Y-62369805D01*
X125343711Y-62252357D01*
X125475256Y-62119660D01*
X125502277Y-62092403D01*
X125502278Y-62092402D01*
X125506030Y-62088617D01*
X125562324Y-62008370D01*
X125635375Y-61904236D01*
X125635376Y-61904234D01*
X125638439Y-61899868D01*
X125737153Y-61691508D01*
X125799349Y-61469494D01*
X125801652Y-61447402D01*
X125810712Y-61360466D01*
X125823249Y-61240176D01*
X125823378Y-61226745D01*
X125823472Y-61216963D01*
X125823472Y-61216954D01*
X125823500Y-61214000D01*
X125823250Y-61211052D01*
X125804458Y-60989576D01*
X125804457Y-60989572D01*
X125804007Y-60984265D01*
X125770143Y-60853791D01*
X125747426Y-60766269D01*
X125746084Y-60761098D01*
X125722798Y-60709404D01*
X125653578Y-60555743D01*
X125653577Y-60555741D01*
X125651388Y-60550882D01*
X125522627Y-60359626D01*
X125363482Y-60192799D01*
X125178504Y-60055171D01*
X125173743Y-60052751D01*
X125170425Y-60050693D01*
X125123071Y-59997796D01*
X125111832Y-59927695D01*
X125140277Y-59862645D01*
X125163564Y-59841093D01*
X125179360Y-59829805D01*
X125343711Y-59712357D01*
X125447823Y-59607334D01*
X125502277Y-59552403D01*
X125502278Y-59552402D01*
X125506030Y-59548617D01*
X125582913Y-59439021D01*
X125635375Y-59364236D01*
X125635376Y-59364234D01*
X125638439Y-59359868D01*
X125737153Y-59151508D01*
X125799349Y-58929494D01*
X125801652Y-58907402D01*
X125822941Y-58703127D01*
X125823249Y-58700176D01*
X125823500Y-58674000D01*
X125823250Y-58671052D01*
X125804458Y-58449576D01*
X125804457Y-58449572D01*
X125804007Y-58444265D01*
X125787965Y-58382456D01*
X125747426Y-58226269D01*
X125746084Y-58221098D01*
X125722798Y-58169404D01*
X125653578Y-58015743D01*
X125653577Y-58015741D01*
X125651388Y-58010882D01*
X125522627Y-57819626D01*
X125363482Y-57652799D01*
X125178504Y-57515171D01*
X125173743Y-57512751D01*
X125170425Y-57510693D01*
X125123071Y-57457796D01*
X125111832Y-57387695D01*
X125140277Y-57322645D01*
X125163564Y-57301093D01*
X125179360Y-57289805D01*
X125343711Y-57172357D01*
X125475256Y-57039660D01*
X125502277Y-57012403D01*
X125502278Y-57012402D01*
X125506030Y-57008617D01*
X125562324Y-56928370D01*
X125635375Y-56824236D01*
X125635376Y-56824234D01*
X125638439Y-56819868D01*
X125737153Y-56611508D01*
X125799349Y-56389494D01*
X125801652Y-56367402D01*
X125810712Y-56280466D01*
X125823249Y-56160176D01*
X125823378Y-56146745D01*
X125823472Y-56136963D01*
X125823472Y-56136954D01*
X125823500Y-56134000D01*
X125823250Y-56131052D01*
X125804458Y-55909576D01*
X125804457Y-55909572D01*
X125804007Y-55904265D01*
X125770143Y-55773791D01*
X125747426Y-55686269D01*
X125746084Y-55681098D01*
X125722798Y-55629404D01*
X125653578Y-55475743D01*
X125653577Y-55475741D01*
X125651388Y-55470882D01*
X125522627Y-55279626D01*
X125363482Y-55112799D01*
X125178504Y-54975171D01*
X125173743Y-54972751D01*
X125170425Y-54970693D01*
X125123071Y-54917796D01*
X125111832Y-54847695D01*
X125140277Y-54782645D01*
X125163564Y-54761093D01*
X125179360Y-54749805D01*
X125343711Y-54632357D01*
X125447823Y-54527334D01*
X125502277Y-54472403D01*
X125502278Y-54472402D01*
X125506030Y-54468617D01*
X125509090Y-54464255D01*
X125635375Y-54284236D01*
X125635376Y-54284234D01*
X125638439Y-54279868D01*
X125737153Y-54071508D01*
X125799349Y-53849494D01*
X125801652Y-53827402D01*
X125822941Y-53623127D01*
X125823249Y-53620176D01*
X125823500Y-53594000D01*
X125823250Y-53591052D01*
X125804458Y-53369576D01*
X125804457Y-53369572D01*
X125804007Y-53364265D01*
X125787965Y-53302456D01*
X125747426Y-53146269D01*
X125746084Y-53141098D01*
X125722798Y-53089404D01*
X125653578Y-52935743D01*
X125653577Y-52935741D01*
X125651388Y-52930882D01*
X125522627Y-52739626D01*
X125363482Y-52572799D01*
X125178504Y-52435171D01*
X125173743Y-52432751D01*
X125170425Y-52430693D01*
X125123071Y-52377796D01*
X125111832Y-52307695D01*
X125140277Y-52242645D01*
X125163564Y-52221093D01*
X125217302Y-52182691D01*
X125343711Y-52092357D01*
X125506030Y-51928617D01*
X125556796Y-51856250D01*
X125635375Y-51744236D01*
X125635376Y-51744234D01*
X125638439Y-51739868D01*
X125737153Y-51531508D01*
X125799349Y-51309494D01*
X125801652Y-51287402D01*
X125822941Y-51083127D01*
X125823249Y-51080176D01*
X125823500Y-51054000D01*
X125823250Y-51051052D01*
X125804458Y-50829576D01*
X125804457Y-50829572D01*
X125804007Y-50824265D01*
X125746084Y-50601098D01*
X125651388Y-50390882D01*
X125640338Y-50374468D01*
X125577886Y-50281705D01*
X125522627Y-50199626D01*
X125504784Y-50180921D01*
X125427507Y-50099915D01*
X125363482Y-50032799D01*
X125178504Y-49895171D01*
X125173753Y-49892755D01*
X125173749Y-49892753D01*
X124977740Y-49793097D01*
X124977739Y-49793097D01*
X124972982Y-49790678D01*
X124835566Y-49748009D01*
X124757895Y-49723891D01*
X124757889Y-49723890D01*
X124752792Y-49722307D01*
X124647798Y-49708391D01*
X124529515Y-49692714D01*
X124529510Y-49692714D01*
X124524230Y-49692014D01*
X124518900Y-49692214D01*
X124518899Y-49692214D01*
X124425320Y-49695727D01*
X124293831Y-49700663D01*
X124249246Y-49710018D01*
X124073411Y-49746912D01*
X124073408Y-49746913D01*
X124068184Y-49748009D01*
X123853740Y-49832697D01*
X123656631Y-49952306D01*
X123652601Y-49955803D01*
X123526406Y-50065309D01*
X123482492Y-50103415D01*
X123477339Y-50109700D01*
X123476364Y-50110365D01*
X123475390Y-50111366D01*
X123475186Y-50111168D01*
X123418681Y-50149695D01*
X123347710Y-50151628D01*
X123286961Y-50114885D01*
X123259008Y-50065309D01*
X123239634Y-49999329D01*
X123237096Y-49990684D01*
X123191393Y-49919569D01*
X123162949Y-49875309D01*
X123162947Y-49875306D01*
X123158077Y-49867729D01*
X123112133Y-49827918D01*
X123054431Y-49777918D01*
X123054428Y-49777916D01*
X123047619Y-49772016D01*
X123025422Y-49761879D01*
X122922864Y-49715042D01*
X122922863Y-49715042D01*
X122914670Y-49711300D01*
X122905755Y-49710018D01*
X122905754Y-49710018D01*
X122774448Y-49691139D01*
X122774441Y-49691138D01*
X122770000Y-49690500D01*
X121070000Y-49690500D01*
X120996921Y-49695727D01*
X120943884Y-49711300D01*
X120865330Y-49734365D01*
X120865328Y-49734366D01*
X120856684Y-49736904D01*
X120836350Y-49749972D01*
X120741309Y-49811051D01*
X120741306Y-49811053D01*
X120733729Y-49815923D01*
X120727828Y-49822733D01*
X120643918Y-49919569D01*
X120643916Y-49919572D01*
X120638016Y-49926381D01*
X120577300Y-50059330D01*
X120576018Y-50068245D01*
X120576018Y-50068246D01*
X120557139Y-50199552D01*
X120557138Y-50199559D01*
X120556500Y-50204000D01*
X120556500Y-51659499D01*
X120536498Y-51727620D01*
X120482842Y-51774113D01*
X120430500Y-51785499D01*
X118394449Y-51785499D01*
X118326328Y-51765497D01*
X118279835Y-51711841D01*
X118269731Y-51641567D01*
X118280254Y-51606250D01*
X118325961Y-51508230D01*
X118325963Y-51508225D01*
X118328286Y-51503243D01*
X118378824Y-51314636D01*
X118386121Y-51287402D01*
X118386121Y-51287400D01*
X118387545Y-51282087D01*
X118407500Y-51054000D01*
X118387545Y-50825913D01*
X118328286Y-50604757D01*
X118324309Y-50596229D01*
X118233850Y-50402237D01*
X118233847Y-50402232D01*
X118231524Y-50397250D01*
X118100199Y-50209698D01*
X117938302Y-50047801D01*
X117933794Y-50044644D01*
X117933791Y-50044642D01*
X117755259Y-49919633D01*
X117755257Y-49919632D01*
X117750750Y-49916476D01*
X117745768Y-49914153D01*
X117745763Y-49914150D01*
X117548225Y-49822037D01*
X117548224Y-49822036D01*
X117543243Y-49819714D01*
X117537935Y-49818292D01*
X117537933Y-49818291D01*
X117327402Y-49761879D01*
X117327400Y-49761879D01*
X117322087Y-49760455D01*
X117094000Y-49740500D01*
X116865913Y-49760455D01*
X116860600Y-49761879D01*
X116860598Y-49761879D01*
X116650067Y-49818291D01*
X116650065Y-49818292D01*
X116644757Y-49819714D01*
X116639776Y-49822036D01*
X116639775Y-49822037D01*
X116442237Y-49914150D01*
X116442232Y-49914153D01*
X116437250Y-49916476D01*
X116432743Y-49919632D01*
X116432741Y-49919633D01*
X116254209Y-50044642D01*
X116254206Y-50044644D01*
X116249698Y-50047801D01*
X116087801Y-50209698D01*
X115956476Y-50397250D01*
X115954153Y-50402232D01*
X115954150Y-50402237D01*
X115863691Y-50596229D01*
X115859714Y-50604757D01*
X115800455Y-50825913D01*
X115780500Y-51054000D01*
X115800455Y-51282087D01*
X115801879Y-51287400D01*
X115801879Y-51287402D01*
X115809177Y-51314636D01*
X115859714Y-51503243D01*
X115862037Y-51508225D01*
X115862039Y-51508230D01*
X115907746Y-51606250D01*
X115918407Y-51676441D01*
X115889427Y-51741254D01*
X115830007Y-51780110D01*
X115793551Y-51785499D01*
X103293500Y-51785499D01*
X103225379Y-51765497D01*
X103178886Y-51711841D01*
X103167500Y-51659499D01*
X103167500Y-50254000D01*
X103162273Y-50180921D01*
X103129189Y-50068246D01*
X103123635Y-50049330D01*
X103123634Y-50049328D01*
X103121096Y-50040684D01*
X103066546Y-49955803D01*
X103046949Y-49925309D01*
X103046947Y-49925306D01*
X103042077Y-49917729D01*
X103016044Y-49895171D01*
X102938431Y-49827918D01*
X102938428Y-49827916D01*
X102931619Y-49822016D01*
X102907609Y-49811051D01*
X102806864Y-49765042D01*
X102806863Y-49765042D01*
X102798670Y-49761300D01*
X102789755Y-49760018D01*
X102789754Y-49760018D01*
X102658448Y-49741139D01*
X102658441Y-49741138D01*
X102654000Y-49740500D01*
X101054000Y-49740500D01*
X100980921Y-49745727D01*
X100930762Y-49760455D01*
X100849330Y-49784365D01*
X100849328Y-49784366D01*
X100840684Y-49786904D01*
X100833105Y-49791775D01*
X100725309Y-49861051D01*
X100725306Y-49861053D01*
X100717729Y-49865923D01*
X100711828Y-49872733D01*
X100627918Y-49969569D01*
X100627916Y-49969572D01*
X100622016Y-49976381D01*
X100618272Y-49984579D01*
X100580063Y-50068246D01*
X100561300Y-50109330D01*
X100560018Y-50118245D01*
X100560018Y-50118246D01*
X100541139Y-50249552D01*
X100541138Y-50249559D01*
X100540500Y-50254000D01*
X100540500Y-51854000D01*
X100545727Y-51927079D01*
X100586904Y-52067316D01*
X100591775Y-52074895D01*
X100661051Y-52182691D01*
X100661053Y-52182694D01*
X100665923Y-52190271D01*
X100672733Y-52196172D01*
X100769569Y-52280082D01*
X100769572Y-52280084D01*
X100776381Y-52285984D01*
X100909330Y-52346700D01*
X100918245Y-52347982D01*
X100918246Y-52347982D01*
X100963122Y-52354434D01*
X101027703Y-52383927D01*
X101066087Y-52443653D01*
X101066087Y-52514650D01*
X101027704Y-52574376D01*
X101017465Y-52582362D01*
X101009698Y-52587801D01*
X100847801Y-52749698D01*
X100716476Y-52937250D01*
X100714153Y-52942232D01*
X100714150Y-52942237D01*
X100628387Y-53126157D01*
X100619714Y-53144757D01*
X100618292Y-53150065D01*
X100618291Y-53150067D01*
X100593107Y-53244054D01*
X100560455Y-53365913D01*
X100540500Y-53594000D01*
X100560455Y-53822087D01*
X100561879Y-53827400D01*
X100561879Y-53827402D01*
X100569177Y-53854636D01*
X100619714Y-54043243D01*
X100622036Y-54048224D01*
X100622037Y-54048225D01*
X100714150Y-54245763D01*
X100714153Y-54245768D01*
X100716476Y-54250750D01*
X100719632Y-54255257D01*
X100719633Y-54255259D01*
X100843376Y-54431982D01*
X100847801Y-54438302D01*
X101009698Y-54600199D01*
X101014206Y-54603356D01*
X101014209Y-54603358D01*
X101192741Y-54728367D01*
X101197250Y-54731524D01*
X101202232Y-54733847D01*
X101202237Y-54733850D01*
X101236454Y-54749805D01*
X101289739Y-54796722D01*
X101309200Y-54864999D01*
X101288658Y-54932959D01*
X101236454Y-54978195D01*
X101202237Y-54994150D01*
X101202232Y-54994153D01*
X101197250Y-54996476D01*
X101192743Y-54999632D01*
X101192741Y-54999633D01*
X101014209Y-55124642D01*
X101014206Y-55124644D01*
X101009698Y-55127801D01*
X100847801Y-55289698D01*
X100716476Y-55477250D01*
X100714153Y-55482232D01*
X100714150Y-55482237D01*
X100628387Y-55666157D01*
X100619714Y-55684757D01*
X100618292Y-55690065D01*
X100618291Y-55690067D01*
X100593107Y-55784054D01*
X100560455Y-55905913D01*
X100540500Y-56134000D01*
X100560455Y-56362087D01*
X100561879Y-56367400D01*
X100561879Y-56367402D01*
X100569177Y-56394636D01*
X100619714Y-56583243D01*
X100622036Y-56588224D01*
X100622037Y-56588225D01*
X100714150Y-56785763D01*
X100714153Y-56785768D01*
X100716476Y-56790750D01*
X100719632Y-56795257D01*
X100719633Y-56795259D01*
X100843376Y-56971982D01*
X100847801Y-56978302D01*
X101009698Y-57140199D01*
X101014206Y-57143356D01*
X101014209Y-57143358D01*
X101192741Y-57268367D01*
X101197250Y-57271524D01*
X101202232Y-57273847D01*
X101202237Y-57273850D01*
X101236454Y-57289805D01*
X101289739Y-57336722D01*
X101309200Y-57404999D01*
X101288658Y-57472959D01*
X101236454Y-57518195D01*
X101202237Y-57534150D01*
X101202232Y-57534153D01*
X101197250Y-57536476D01*
X101192743Y-57539632D01*
X101192741Y-57539633D01*
X101014209Y-57664642D01*
X101014206Y-57664644D01*
X101009698Y-57667801D01*
X100847801Y-57829698D01*
X100716476Y-58017250D01*
X100714153Y-58022232D01*
X100714150Y-58022237D01*
X100628387Y-58206157D01*
X100619714Y-58224757D01*
X100618292Y-58230065D01*
X100618291Y-58230067D01*
X100593107Y-58324054D01*
X100560455Y-58445913D01*
X100540500Y-58674000D01*
X100560455Y-58902087D01*
X100561879Y-58907400D01*
X100561879Y-58907402D01*
X100569177Y-58934636D01*
X100619714Y-59123243D01*
X100622036Y-59128224D01*
X100622037Y-59128225D01*
X100714150Y-59325763D01*
X100714153Y-59325768D01*
X100716476Y-59330750D01*
X100719632Y-59335257D01*
X100719633Y-59335259D01*
X100841260Y-59508960D01*
X100847801Y-59518302D01*
X101009698Y-59680199D01*
X101014206Y-59683356D01*
X101014209Y-59683358D01*
X101192741Y-59808367D01*
X101197250Y-59811524D01*
X101202232Y-59813847D01*
X101202237Y-59813850D01*
X101236454Y-59829805D01*
X101289739Y-59876722D01*
X101309200Y-59944999D01*
X101288658Y-60012959D01*
X101236454Y-60058195D01*
X101202237Y-60074150D01*
X101202232Y-60074153D01*
X101197250Y-60076476D01*
X101192743Y-60079632D01*
X101192741Y-60079633D01*
X101014209Y-60204642D01*
X101014206Y-60204644D01*
X101009698Y-60207801D01*
X100847801Y-60369698D01*
X100716476Y-60557250D01*
X100714153Y-60562232D01*
X100714150Y-60562237D01*
X100628387Y-60746157D01*
X100619714Y-60764757D01*
X100618292Y-60770065D01*
X100618291Y-60770067D01*
X100593107Y-60864054D01*
X100560455Y-60985913D01*
X100540500Y-61214000D01*
X100560455Y-61442087D01*
X100561879Y-61447400D01*
X100561879Y-61447402D01*
X100569177Y-61474636D01*
X100619714Y-61663243D01*
X100622036Y-61668224D01*
X100622037Y-61668225D01*
X100714150Y-61865763D01*
X100714153Y-61865768D01*
X100716476Y-61870750D01*
X100719632Y-61875257D01*
X100719633Y-61875259D01*
X100843376Y-62051982D01*
X100847801Y-62058302D01*
X101009698Y-62220199D01*
X101014206Y-62223356D01*
X101014209Y-62223358D01*
X101192741Y-62348367D01*
X101197250Y-62351524D01*
X101202232Y-62353847D01*
X101202237Y-62353850D01*
X101236454Y-62369805D01*
X101289739Y-62416722D01*
X101309200Y-62484999D01*
X101288658Y-62552959D01*
X101236454Y-62598195D01*
X101202237Y-62614150D01*
X101202232Y-62614153D01*
X101197250Y-62616476D01*
X101192743Y-62619632D01*
X101192741Y-62619633D01*
X101014209Y-62744642D01*
X101014206Y-62744644D01*
X101009698Y-62747801D01*
X100847801Y-62909698D01*
X100716476Y-63097250D01*
X100714153Y-63102232D01*
X100714150Y-63102237D01*
X100628387Y-63286157D01*
X100619714Y-63304757D01*
X100618292Y-63310065D01*
X100618291Y-63310067D01*
X100593107Y-63404054D01*
X100560455Y-63525913D01*
X100540500Y-63754000D01*
X100560455Y-63982087D01*
X100561879Y-63987400D01*
X100561879Y-63987402D01*
X100569177Y-64014636D01*
X100619714Y-64203243D01*
X100622036Y-64208224D01*
X100622037Y-64208225D01*
X100714150Y-64405763D01*
X100714153Y-64405768D01*
X100716476Y-64410750D01*
X100719632Y-64415257D01*
X100719633Y-64415259D01*
X100841260Y-64588960D01*
X100847801Y-64598302D01*
X101009698Y-64760199D01*
X101014206Y-64763356D01*
X101014209Y-64763358D01*
X101192741Y-64888367D01*
X101197250Y-64891524D01*
X101202232Y-64893847D01*
X101202237Y-64893850D01*
X101236454Y-64909805D01*
X101289739Y-64956722D01*
X101309200Y-65024999D01*
X101288658Y-65092959D01*
X101236454Y-65138195D01*
X101202237Y-65154150D01*
X101202232Y-65154153D01*
X101197250Y-65156476D01*
X101192743Y-65159632D01*
X101192741Y-65159633D01*
X101014209Y-65284642D01*
X101014206Y-65284644D01*
X101009698Y-65287801D01*
X100847801Y-65449698D01*
X100844644Y-65454206D01*
X100844642Y-65454209D01*
X100726353Y-65623144D01*
X100716476Y-65637250D01*
X100714153Y-65642232D01*
X100714150Y-65642237D01*
X100628387Y-65826157D01*
X100619714Y-65844757D01*
X100618292Y-65850065D01*
X100618291Y-65850067D01*
X100561879Y-66060598D01*
X100560455Y-66065913D01*
X100540500Y-66294000D01*
X100560455Y-66522087D01*
X100619714Y-66743243D01*
X100622036Y-66748224D01*
X100622037Y-66748225D01*
X100714150Y-66945763D01*
X100714153Y-66945768D01*
X100716476Y-66950750D01*
X100719632Y-66955257D01*
X100719633Y-66955259D01*
X100828776Y-67111131D01*
X100847801Y-67138302D01*
X101009698Y-67300199D01*
X101014206Y-67303356D01*
X101014209Y-67303358D01*
X101123764Y-67380069D01*
X101197250Y-67431524D01*
X101202232Y-67433847D01*
X101202237Y-67433850D01*
X101236454Y-67449805D01*
X101289739Y-67496722D01*
X101309200Y-67564999D01*
X101288658Y-67632959D01*
X101236454Y-67678195D01*
X101202237Y-67694150D01*
X101202232Y-67694153D01*
X101197250Y-67696476D01*
X101192743Y-67699632D01*
X101192741Y-67699633D01*
X101014209Y-67824642D01*
X101014206Y-67824644D01*
X101009698Y-67827801D01*
X100847801Y-67989698D01*
X100844644Y-67994206D01*
X100844642Y-67994209D01*
X100797381Y-68061705D01*
X100716476Y-68177250D01*
X100714153Y-68182232D01*
X100714150Y-68182237D01*
X100674579Y-68267098D01*
X100619714Y-68384757D01*
X100618292Y-68390065D01*
X100618291Y-68390067D01*
X100593107Y-68484054D01*
X100560455Y-68605913D01*
X100540500Y-68834000D01*
X100560455Y-69062087D01*
X100561879Y-69067400D01*
X100561879Y-69067402D01*
X100586096Y-69157778D01*
X100619714Y-69283243D01*
X100622036Y-69288224D01*
X100622037Y-69288225D01*
X100714150Y-69485763D01*
X100714153Y-69485768D01*
X100716476Y-69490750D01*
X100847801Y-69678302D01*
X101009698Y-69840199D01*
X101014206Y-69843356D01*
X101014209Y-69843358D01*
X101123764Y-69920069D01*
X101197250Y-69971524D01*
X101202232Y-69973847D01*
X101202237Y-69973850D01*
X101236454Y-69989805D01*
X101289739Y-70036722D01*
X101309200Y-70104999D01*
X101288658Y-70172959D01*
X101236454Y-70218195D01*
X101202237Y-70234150D01*
X101202232Y-70234153D01*
X101197250Y-70236476D01*
X101192743Y-70239632D01*
X101192741Y-70239633D01*
X101014209Y-70364642D01*
X101014206Y-70364644D01*
X101009698Y-70367801D01*
X100847801Y-70529698D01*
X100844644Y-70534206D01*
X100844642Y-70534209D01*
X100797381Y-70601705D01*
X100716476Y-70717250D01*
X100714153Y-70722232D01*
X100714150Y-70722237D01*
X100674579Y-70807098D01*
X100619714Y-70924757D01*
X100618292Y-70930065D01*
X100618291Y-70930067D01*
X100593107Y-71024054D01*
X100560455Y-71145913D01*
X100540500Y-71374000D01*
X100560455Y-71602087D01*
X100619714Y-71823243D01*
X100622036Y-71828224D01*
X100622037Y-71828225D01*
X100714150Y-72025763D01*
X100714153Y-72025768D01*
X100716476Y-72030750D01*
X100847801Y-72218302D01*
X101009698Y-72380199D01*
X101014206Y-72383356D01*
X101014209Y-72383358D01*
X101045843Y-72405508D01*
X101197250Y-72511524D01*
X101202232Y-72513847D01*
X101202237Y-72513850D01*
X101236454Y-72529805D01*
X101289739Y-72576722D01*
X101309200Y-72644999D01*
X101288658Y-72712959D01*
X101236454Y-72758195D01*
X101202237Y-72774150D01*
X101202232Y-72774153D01*
X101197250Y-72776476D01*
X101192743Y-72779632D01*
X101192741Y-72779633D01*
X101014209Y-72904642D01*
X101014206Y-72904644D01*
X101009698Y-72907801D01*
X100847801Y-73069698D01*
X100716476Y-73257250D01*
X100714153Y-73262232D01*
X100714150Y-73262237D01*
X100707033Y-73277500D01*
X100619714Y-73464757D01*
X100618292Y-73470065D01*
X100618291Y-73470067D01*
X100596477Y-73551479D01*
X100560455Y-73685913D01*
X100540500Y-73914000D01*
X100560455Y-74142087D01*
X100619714Y-74363243D01*
X100622036Y-74368224D01*
X100622037Y-74368225D01*
X100714150Y-74565763D01*
X100714153Y-74565768D01*
X100716476Y-74570750D01*
X100847801Y-74758302D01*
X101009698Y-74920199D01*
X101014206Y-74923356D01*
X101014209Y-74923358D01*
X101192741Y-75048367D01*
X101197250Y-75051524D01*
X101202232Y-75053847D01*
X101202237Y-75053850D01*
X101236454Y-75069805D01*
X101289739Y-75116722D01*
X101309200Y-75184999D01*
X101288658Y-75252959D01*
X101236454Y-75298195D01*
X101202237Y-75314150D01*
X101202232Y-75314153D01*
X101197250Y-75316476D01*
X101192743Y-75319632D01*
X101192741Y-75319633D01*
X101014209Y-75444642D01*
X101014206Y-75444644D01*
X101009698Y-75447801D01*
X100847801Y-75609698D01*
X100716476Y-75797250D01*
X100714153Y-75802232D01*
X100714150Y-75802237D01*
X100622037Y-75999775D01*
X100619714Y-76004757D01*
X100618292Y-76010065D01*
X100618291Y-76010067D01*
X100593107Y-76104054D01*
X100560455Y-76225913D01*
X100540500Y-76454000D01*
X100560455Y-76682087D01*
X100561879Y-76687400D01*
X100561879Y-76687402D01*
X100565147Y-76699596D01*
X100619714Y-76903243D01*
X100622036Y-76908224D01*
X100622037Y-76908225D01*
X100714150Y-77105763D01*
X100714153Y-77105768D01*
X100716476Y-77110750D01*
X100847801Y-77298302D01*
X101009698Y-77460199D01*
X101014206Y-77463356D01*
X101014209Y-77463358D01*
X101192741Y-77588367D01*
X101197250Y-77591524D01*
X101202232Y-77593847D01*
X101202237Y-77593850D01*
X101236454Y-77609805D01*
X101289739Y-77656722D01*
X101309200Y-77724999D01*
X101288658Y-77792959D01*
X101236454Y-77838195D01*
X101202237Y-77854150D01*
X101202232Y-77854153D01*
X101197250Y-77856476D01*
X101192743Y-77859632D01*
X101192741Y-77859633D01*
X101014209Y-77984642D01*
X101014206Y-77984644D01*
X101009698Y-77987801D01*
X100847801Y-78149698D01*
X100844644Y-78154206D01*
X100844642Y-78154209D01*
X100724239Y-78326163D01*
X100716476Y-78337250D01*
X100714153Y-78342232D01*
X100714150Y-78342237D01*
X100627109Y-78528898D01*
X100619714Y-78544757D01*
X100618292Y-78550065D01*
X100618291Y-78550067D01*
X100565382Y-78747526D01*
X100560455Y-78765913D01*
X100540500Y-78994000D01*
X100560455Y-79222087D01*
X100619714Y-79443243D01*
X100622036Y-79448224D01*
X100622037Y-79448225D01*
X100714150Y-79645763D01*
X100714153Y-79645768D01*
X100716476Y-79650750D01*
X100847801Y-79838302D01*
X101009698Y-80000199D01*
X101014206Y-80003356D01*
X101014209Y-80003358D01*
X101192741Y-80128367D01*
X101197250Y-80131524D01*
X101202232Y-80133847D01*
X101202237Y-80133850D01*
X101236454Y-80149805D01*
X101289739Y-80196722D01*
X101309200Y-80264999D01*
X101288658Y-80332959D01*
X101236454Y-80378195D01*
X101202237Y-80394150D01*
X101202232Y-80394153D01*
X101197250Y-80396476D01*
X101192743Y-80399632D01*
X101192741Y-80399633D01*
X101014209Y-80524642D01*
X101014206Y-80524644D01*
X101009698Y-80527801D01*
X100847801Y-80689698D01*
X100844644Y-80694206D01*
X100844642Y-80694209D01*
X100724239Y-80866163D01*
X100716476Y-80877250D01*
X100714153Y-80882232D01*
X100714150Y-80882237D01*
X100627109Y-81068898D01*
X100619714Y-81084757D01*
X100618292Y-81090065D01*
X100618291Y-81090067D01*
X100593107Y-81184054D01*
X100560455Y-81305913D01*
X100540500Y-81534000D01*
X100560455Y-81762087D01*
X100561879Y-81767400D01*
X100561879Y-81767402D01*
X100598948Y-81905742D01*
X100619714Y-81983243D01*
X100622036Y-81988224D01*
X100622037Y-81988225D01*
X100714150Y-82185763D01*
X100714153Y-82185768D01*
X100716476Y-82190750D01*
X100719632Y-82195257D01*
X100719633Y-82195259D01*
X100768816Y-82265499D01*
X100847801Y-82378302D01*
X101009698Y-82540199D01*
X101014206Y-82543356D01*
X101014209Y-82543358D01*
X101192741Y-82668367D01*
X101197250Y-82671524D01*
X101202237Y-82673850D01*
X101202238Y-82673850D01*
X101237043Y-82690080D01*
X101290328Y-82736998D01*
X101309789Y-82805275D01*
X101289247Y-82873235D01*
X101237042Y-82918470D01*
X101202491Y-82934581D01*
X101192991Y-82940066D01*
X101014531Y-83065025D01*
X101006123Y-83072081D01*
X100852081Y-83226123D01*
X100845025Y-83234531D01*
X100720066Y-83412991D01*
X100714583Y-83422487D01*
X100622509Y-83619943D01*
X100618761Y-83630239D01*
X100572602Y-83802503D01*
X100572938Y-83816599D01*
X100580880Y-83820000D01*
X103121971Y-83820000D01*
X103135502Y-83816027D01*
X103136731Y-83807478D01*
X103089239Y-83630239D01*
X103085491Y-83619943D01*
X102993417Y-83422487D01*
X102987934Y-83412991D01*
X102862975Y-83234531D01*
X102855919Y-83226123D01*
X102701877Y-83072081D01*
X102693469Y-83065025D01*
X102515009Y-82940066D01*
X102505509Y-82934581D01*
X102470958Y-82918470D01*
X102417672Y-82871553D01*
X102398211Y-82803276D01*
X102418753Y-82735316D01*
X102470957Y-82690080D01*
X102505762Y-82673850D01*
X102505763Y-82673850D01*
X102510750Y-82671524D01*
X102515259Y-82668367D01*
X102693791Y-82543358D01*
X102693794Y-82543356D01*
X102698302Y-82540199D01*
X102860199Y-82378302D01*
X102939185Y-82265499D01*
X102988367Y-82195259D01*
X102988368Y-82195257D01*
X102991524Y-82190750D01*
X102993847Y-82185768D01*
X102993850Y-82185763D01*
X103085963Y-81988225D01*
X103085964Y-81988224D01*
X103088286Y-81983243D01*
X103109053Y-81905742D01*
X103146121Y-81767402D01*
X103146121Y-81767400D01*
X103147545Y-81762087D01*
X103167500Y-81534000D01*
X103147545Y-81305913D01*
X103114893Y-81184054D01*
X103089709Y-81090067D01*
X103089708Y-81090065D01*
X103088286Y-81084757D01*
X103080891Y-81068898D01*
X102993850Y-80882237D01*
X102993847Y-80882232D01*
X102991524Y-80877250D01*
X102983761Y-80866163D01*
X102863358Y-80694209D01*
X102863356Y-80694206D01*
X102860199Y-80689698D01*
X102698302Y-80527801D01*
X102693794Y-80524644D01*
X102693791Y-80524642D01*
X102515259Y-80399633D01*
X102515257Y-80399632D01*
X102510750Y-80396476D01*
X102505768Y-80394153D01*
X102505763Y-80394150D01*
X102471546Y-80378195D01*
X102418261Y-80331278D01*
X102398800Y-80263001D01*
X102419342Y-80195041D01*
X102471546Y-80149805D01*
X102505763Y-80133850D01*
X102505768Y-80133847D01*
X102510750Y-80131524D01*
X102515259Y-80128367D01*
X102693791Y-80003358D01*
X102693794Y-80003356D01*
X102698302Y-80000199D01*
X102860199Y-79838302D01*
X102991524Y-79650750D01*
X102993847Y-79645768D01*
X102993850Y-79645763D01*
X103085963Y-79448225D01*
X103085964Y-79448224D01*
X103088286Y-79443243D01*
X103147545Y-79222087D01*
X103167500Y-78994000D01*
X103147545Y-78765913D01*
X103130542Y-78702456D01*
X103132232Y-78631479D01*
X103163154Y-78580750D01*
X115567409Y-66176495D01*
X115629721Y-66142469D01*
X115700536Y-66147534D01*
X115757372Y-66190081D01*
X115782183Y-66256601D01*
X115782024Y-66276573D01*
X115780979Y-66288515D01*
X115780979Y-66288525D01*
X115780500Y-66294000D01*
X115800455Y-66522087D01*
X115859714Y-66743243D01*
X115862036Y-66748224D01*
X115862037Y-66748225D01*
X115954150Y-66945763D01*
X115954153Y-66945768D01*
X115956476Y-66950750D01*
X115959632Y-66955257D01*
X115959633Y-66955259D01*
X116068776Y-67111131D01*
X116087801Y-67138302D01*
X116249698Y-67300199D01*
X116254206Y-67303356D01*
X116254209Y-67303358D01*
X116363764Y-67380069D01*
X116437250Y-67431524D01*
X116442232Y-67433847D01*
X116442237Y-67433850D01*
X116476454Y-67449805D01*
X116529739Y-67496722D01*
X116549200Y-67564999D01*
X116528658Y-67632959D01*
X116476454Y-67678195D01*
X116442237Y-67694150D01*
X116442232Y-67694153D01*
X116437250Y-67696476D01*
X116432743Y-67699632D01*
X116432741Y-67699633D01*
X116254209Y-67824642D01*
X116254206Y-67824644D01*
X116249698Y-67827801D01*
X116087801Y-67989698D01*
X116084644Y-67994206D01*
X116084642Y-67994209D01*
X116037381Y-68061705D01*
X115956476Y-68177250D01*
X115954153Y-68182232D01*
X115954150Y-68182237D01*
X115914579Y-68267098D01*
X115859714Y-68384757D01*
X115858292Y-68390065D01*
X115858291Y-68390067D01*
X115833107Y-68484054D01*
X115800455Y-68605913D01*
X115780500Y-68834000D01*
X115800455Y-69062087D01*
X115801879Y-69067400D01*
X115801879Y-69067402D01*
X115826096Y-69157778D01*
X115859714Y-69283243D01*
X115862036Y-69288224D01*
X115862037Y-69288225D01*
X115954150Y-69485763D01*
X115954153Y-69485768D01*
X115956476Y-69490750D01*
X116087801Y-69678302D01*
X116249698Y-69840199D01*
X116254206Y-69843356D01*
X116254209Y-69843358D01*
X116363764Y-69920069D01*
X116437250Y-69971524D01*
X116442232Y-69973847D01*
X116442237Y-69973850D01*
X116476454Y-69989805D01*
X116529739Y-70036722D01*
X116549200Y-70104999D01*
X116528658Y-70172959D01*
X116476454Y-70218195D01*
X116442237Y-70234150D01*
X116442232Y-70234153D01*
X116437250Y-70236476D01*
X116432743Y-70239632D01*
X116432741Y-70239633D01*
X116254209Y-70364642D01*
X116254206Y-70364644D01*
X116249698Y-70367801D01*
X116087801Y-70529698D01*
X116084644Y-70534206D01*
X116084642Y-70534209D01*
X116037381Y-70601705D01*
X115956476Y-70717250D01*
X115954153Y-70722232D01*
X115954150Y-70722237D01*
X115914579Y-70807098D01*
X115859714Y-70924757D01*
X115858292Y-70930065D01*
X115858291Y-70930067D01*
X115833107Y-71024054D01*
X115800455Y-71145913D01*
X115780500Y-71374000D01*
X115800455Y-71602087D01*
X115859714Y-71823243D01*
X115862036Y-71828224D01*
X115862037Y-71828225D01*
X115954150Y-72025763D01*
X115954153Y-72025768D01*
X115956476Y-72030750D01*
X116087801Y-72218302D01*
X116249698Y-72380199D01*
X116254206Y-72383356D01*
X116254209Y-72383358D01*
X116285843Y-72405508D01*
X116437250Y-72511524D01*
X116442232Y-72513847D01*
X116442237Y-72513850D01*
X116476454Y-72529805D01*
X116529739Y-72576722D01*
X116549200Y-72644999D01*
X116528658Y-72712959D01*
X116476454Y-72758195D01*
X116442237Y-72774150D01*
X116442232Y-72774153D01*
X116437250Y-72776476D01*
X116432743Y-72779632D01*
X116432741Y-72779633D01*
X116254209Y-72904642D01*
X116254206Y-72904644D01*
X116249698Y-72907801D01*
X116087801Y-73069698D01*
X115956476Y-73257250D01*
X115954153Y-73262232D01*
X115954150Y-73262237D01*
X115947033Y-73277500D01*
X115859714Y-73464757D01*
X115858292Y-73470065D01*
X115858291Y-73470067D01*
X115836477Y-73551479D01*
X115800455Y-73685913D01*
X115780500Y-73914000D01*
X115800455Y-74142087D01*
X115859714Y-74363243D01*
X115862036Y-74368224D01*
X115862037Y-74368225D01*
X115954150Y-74565763D01*
X115954153Y-74565768D01*
X115956476Y-74570750D01*
X116087801Y-74758302D01*
X116249698Y-74920199D01*
X116254206Y-74923356D01*
X116254209Y-74923358D01*
X116432741Y-75048367D01*
X116437250Y-75051524D01*
X116442232Y-75053847D01*
X116442237Y-75053850D01*
X116476454Y-75069805D01*
X116529739Y-75116722D01*
X116549200Y-75184999D01*
X116528658Y-75252959D01*
X116476454Y-75298195D01*
X116442237Y-75314150D01*
X116442232Y-75314153D01*
X116437250Y-75316476D01*
X116432743Y-75319632D01*
X116432741Y-75319633D01*
X116254209Y-75444642D01*
X116254206Y-75444644D01*
X116249698Y-75447801D01*
X116087801Y-75609698D01*
X115956476Y-75797250D01*
X115954153Y-75802232D01*
X115954150Y-75802237D01*
X115862037Y-75999775D01*
X115859714Y-76004757D01*
X115858292Y-76010065D01*
X115858291Y-76010067D01*
X115833107Y-76104054D01*
X115800455Y-76225913D01*
X115780500Y-76454000D01*
X115800455Y-76682087D01*
X115801879Y-76687400D01*
X115801879Y-76687402D01*
X115805147Y-76699596D01*
X115859714Y-76903243D01*
X115862036Y-76908224D01*
X115862037Y-76908225D01*
X115954150Y-77105763D01*
X115954153Y-77105768D01*
X115956476Y-77110750D01*
X116087801Y-77298302D01*
X116249698Y-77460199D01*
X116254206Y-77463356D01*
X116254209Y-77463358D01*
X116432741Y-77588367D01*
X116437250Y-77591524D01*
X116442232Y-77593847D01*
X116442237Y-77593850D01*
X116476454Y-77609805D01*
X116529739Y-77656722D01*
X116549200Y-77724999D01*
X116528658Y-77792959D01*
X116476454Y-77838195D01*
X116442237Y-77854150D01*
X116442232Y-77854153D01*
X116437250Y-77856476D01*
X116432743Y-77859632D01*
X116432741Y-77859633D01*
X116254209Y-77984642D01*
X116254206Y-77984644D01*
X116249698Y-77987801D01*
X116087801Y-78149698D01*
X116084644Y-78154206D01*
X116084642Y-78154209D01*
X115964239Y-78326163D01*
X115956476Y-78337250D01*
X115954153Y-78342232D01*
X115954150Y-78342237D01*
X115867109Y-78528898D01*
X115859714Y-78544757D01*
X115858292Y-78550065D01*
X115858291Y-78550067D01*
X115805382Y-78747526D01*
X115800455Y-78765913D01*
X115780500Y-78994000D01*
X115800455Y-79222087D01*
X115859714Y-79443243D01*
X115862036Y-79448224D01*
X115862037Y-79448225D01*
X115954150Y-79645763D01*
X115954153Y-79645768D01*
X115956476Y-79650750D01*
X116087801Y-79838302D01*
X116249698Y-80000199D01*
X116254206Y-80003356D01*
X116254209Y-80003358D01*
X116432741Y-80128367D01*
X116437250Y-80131524D01*
X116442232Y-80133847D01*
X116442237Y-80133850D01*
X116476454Y-80149805D01*
X116529739Y-80196722D01*
X116549200Y-80264999D01*
X116528658Y-80332959D01*
X116476454Y-80378195D01*
X116442237Y-80394150D01*
X116442232Y-80394153D01*
X116437250Y-80396476D01*
X116432743Y-80399632D01*
X116432741Y-80399633D01*
X116254209Y-80524642D01*
X116254206Y-80524644D01*
X116249698Y-80527801D01*
X116087801Y-80689698D01*
X116084644Y-80694206D01*
X116084642Y-80694209D01*
X115964239Y-80866163D01*
X115956476Y-80877250D01*
X115954153Y-80882232D01*
X115954150Y-80882237D01*
X115867109Y-81068898D01*
X115859714Y-81084757D01*
X115858292Y-81090065D01*
X115858291Y-81090067D01*
X115833107Y-81184054D01*
X115800455Y-81305913D01*
X115780500Y-81534000D01*
X115800455Y-81762087D01*
X115801879Y-81767400D01*
X115801879Y-81767402D01*
X115838948Y-81905742D01*
X115859714Y-81983243D01*
X115862036Y-81988224D01*
X115862037Y-81988225D01*
X115954150Y-82185763D01*
X115954153Y-82185768D01*
X115956476Y-82190750D01*
X115959632Y-82195257D01*
X115959633Y-82195259D01*
X116008816Y-82265499D01*
X116087801Y-82378302D01*
X116249698Y-82540199D01*
X116254206Y-82543356D01*
X116254209Y-82543358D01*
X116432741Y-82668367D01*
X116437250Y-82671524D01*
X116442232Y-82673847D01*
X116442237Y-82673850D01*
X116476454Y-82689805D01*
X116529739Y-82736722D01*
X116549200Y-82804999D01*
X116528658Y-82872959D01*
X116476454Y-82918195D01*
X116442237Y-82934150D01*
X116442232Y-82934153D01*
X116437250Y-82936476D01*
X116432743Y-82939632D01*
X116432741Y-82939633D01*
X116254209Y-83064642D01*
X116254206Y-83064644D01*
X116249698Y-83067801D01*
X116087801Y-83229698D01*
X116084644Y-83234206D01*
X116084642Y-83234209D01*
X115976214Y-83389061D01*
X115956476Y-83417250D01*
X115954153Y-83422232D01*
X115954150Y-83422237D01*
X115868387Y-83606157D01*
X115859714Y-83624757D01*
X115858292Y-83630065D01*
X115858291Y-83630067D01*
X115833107Y-83724054D01*
X115800455Y-83845913D01*
X115780500Y-84074000D01*
X115800455Y-84302087D01*
X115801879Y-84307400D01*
X115801879Y-84307402D01*
X115811029Y-84341548D01*
X115859714Y-84523243D01*
X115862036Y-84528224D01*
X115862037Y-84528225D01*
X115954150Y-84725763D01*
X115954153Y-84725768D01*
X115956476Y-84730750D01*
X115959632Y-84735257D01*
X115959633Y-84735259D01*
X115976865Y-84759868D01*
X116087801Y-84918302D01*
X116249698Y-85080199D01*
X116254206Y-85083356D01*
X116254209Y-85083358D01*
X116363764Y-85160069D01*
X116437250Y-85211524D01*
X116442232Y-85213847D01*
X116442237Y-85213850D01*
X116591472Y-85283439D01*
X116644757Y-85308286D01*
X116650065Y-85309708D01*
X116650067Y-85309709D01*
X116860598Y-85366121D01*
X116860600Y-85366121D01*
X116865913Y-85367545D01*
X117094000Y-85387500D01*
X117322087Y-85367545D01*
X117327400Y-85366121D01*
X117327402Y-85366121D01*
X117537933Y-85309709D01*
X117537935Y-85309708D01*
X117543243Y-85308286D01*
X117596528Y-85283439D01*
X117745763Y-85213850D01*
X117745768Y-85213847D01*
X117750750Y-85211524D01*
X117824236Y-85160069D01*
X117933791Y-85083358D01*
X117933794Y-85083356D01*
X117938302Y-85080199D01*
X118100199Y-84918302D01*
X118211136Y-84759868D01*
X118228367Y-84735259D01*
X118228368Y-84735257D01*
X118231524Y-84730750D01*
X118233847Y-84725768D01*
X118233850Y-84725763D01*
X118325963Y-84528225D01*
X118325964Y-84528224D01*
X118328286Y-84523243D01*
X118376972Y-84341548D01*
X118386121Y-84307402D01*
X118386121Y-84307400D01*
X118387545Y-84302087D01*
X118407500Y-84074000D01*
X118387545Y-83845913D01*
X118380602Y-83820000D01*
X118370542Y-83782456D01*
X118372232Y-83711479D01*
X118403154Y-83660750D01*
X118494500Y-83569404D01*
X118556812Y-83535378D01*
X118583595Y-83532499D01*
X120491423Y-83532499D01*
X120559544Y-83552501D01*
X120606037Y-83606157D01*
X120616141Y-83676431D01*
X120609863Y-83701487D01*
X120603578Y-83718802D01*
X120602629Y-83724051D01*
X120602628Y-83724054D01*
X120563501Y-83940429D01*
X120562551Y-83945683D01*
X120562500Y-83951023D01*
X120561097Y-84097210D01*
X120560338Y-84176233D01*
X120597002Y-84403861D01*
X120671494Y-84622056D01*
X120781685Y-84824580D01*
X120924424Y-85005644D01*
X120928389Y-85009220D01*
X121091659Y-85156489D01*
X121091665Y-85156494D01*
X121095629Y-85160069D01*
X121100142Y-85162928D01*
X121100144Y-85162929D01*
X121218712Y-85238029D01*
X121265557Y-85291377D01*
X121276124Y-85361583D01*
X121247057Y-85426357D01*
X121216656Y-85452192D01*
X121121486Y-85509942D01*
X121112896Y-85516206D01*
X120946884Y-85660264D01*
X120939464Y-85667895D01*
X120800100Y-85837860D01*
X120794075Y-85846627D01*
X120685342Y-86037644D01*
X120680877Y-86047308D01*
X120605882Y-86253916D01*
X120603111Y-86264184D01*
X120589008Y-86342174D01*
X120590427Y-86355414D01*
X120605062Y-86360000D01*
X125779079Y-86360000D01*
X125792610Y-86356027D01*
X125793876Y-86347218D01*
X125746954Y-86166433D01*
X125743419Y-86156395D01*
X125653147Y-85955998D01*
X125647967Y-85946692D01*
X125525218Y-85764366D01*
X125518557Y-85756080D01*
X125366830Y-85597030D01*
X125358873Y-85589990D01*
X125182524Y-85458783D01*
X125169981Y-85451005D01*
X125122628Y-85398107D01*
X125111391Y-85328005D01*
X125139838Y-85262957D01*
X125163122Y-85241409D01*
X125343711Y-85112357D01*
X125506030Y-84948617D01*
X125596330Y-84819895D01*
X125635375Y-84764236D01*
X125635376Y-84764234D01*
X125638439Y-84759868D01*
X125737153Y-84551508D01*
X125799349Y-84329494D01*
X125801652Y-84307402D01*
X125822941Y-84103127D01*
X125823249Y-84100176D01*
X125823500Y-84074000D01*
X125823250Y-84071052D01*
X125804458Y-83849576D01*
X125804457Y-83849572D01*
X125804007Y-83844265D01*
X125764119Y-83690584D01*
X125766366Y-83619625D01*
X125806620Y-83561143D01*
X125872102Y-83533709D01*
X125882117Y-83532993D01*
X125891464Y-83532699D01*
X125895858Y-83532561D01*
X125899812Y-83532499D01*
X125928579Y-83532499D01*
X125932503Y-83532003D01*
X125932505Y-83532003D01*
X125932853Y-83531959D01*
X125944699Y-83531026D01*
X125988884Y-83529637D01*
X126008340Y-83523985D01*
X126027680Y-83519980D01*
X126047789Y-83517439D01*
X126055159Y-83514521D01*
X126055163Y-83514520D01*
X126088901Y-83501162D01*
X126100131Y-83497317D01*
X126134969Y-83487196D01*
X126134970Y-83487196D01*
X126142579Y-83484985D01*
X126160013Y-83474675D01*
X126177765Y-83465979D01*
X126189226Y-83461441D01*
X126189225Y-83461441D01*
X126196601Y-83458521D01*
X126232376Y-83432529D01*
X126242295Y-83426013D01*
X126248680Y-83422237D01*
X126280342Y-83403512D01*
X126280760Y-83403144D01*
X126294843Y-83389061D01*
X126309868Y-83376227D01*
X126326084Y-83364445D01*
X126354031Y-83330663D01*
X126362020Y-83321884D01*
X127900513Y-81783391D01*
X127908601Y-81776031D01*
X127914995Y-81771973D01*
X127925150Y-81761159D01*
X127986363Y-81725194D01*
X128057302Y-81728031D01*
X128115447Y-81768772D01*
X128142335Y-81834480D01*
X128143000Y-81847412D01*
X128143000Y-87800404D01*
X128140997Y-87822781D01*
X128139069Y-87833465D01*
X128138952Y-87838333D01*
X128137093Y-87915489D01*
X128136522Y-87924820D01*
X128136380Y-87926260D01*
X128134568Y-87938467D01*
X128125112Y-87986009D01*
X128118778Y-88017850D01*
X128111608Y-88041486D01*
X128083371Y-88109657D01*
X128071726Y-88131442D01*
X128030731Y-88192794D01*
X128015063Y-88211886D01*
X127962889Y-88264061D01*
X127943795Y-88279731D01*
X127882441Y-88320726D01*
X127882435Y-88320730D01*
X127860654Y-88332371D01*
X127792484Y-88360609D01*
X127768849Y-88367779D01*
X127755910Y-88370352D01*
X127689476Y-88383566D01*
X127677313Y-88385374D01*
X127676455Y-88385459D01*
X127675860Y-88385518D01*
X127666487Y-88386093D01*
X127587743Y-88387990D01*
X127574214Y-88390261D01*
X127553355Y-88392000D01*
X99651596Y-88392000D01*
X99629218Y-88389997D01*
X99623324Y-88388933D01*
X99623321Y-88388933D01*
X99618535Y-88388069D01*
X99536510Y-88386093D01*
X99527193Y-88385523D01*
X99525734Y-88385379D01*
X99513533Y-88383568D01*
X99465991Y-88374112D01*
X99434150Y-88367778D01*
X99410514Y-88360608D01*
X99342343Y-88332371D01*
X99320558Y-88320726D01*
X99259206Y-88279731D01*
X99240114Y-88264063D01*
X99187939Y-88211889D01*
X99172268Y-88192794D01*
X99131270Y-88131435D01*
X99119628Y-88109653D01*
X99112397Y-88092196D01*
X99091391Y-88041484D01*
X99084221Y-88017848D01*
X99068434Y-87938476D01*
X99066626Y-87926313D01*
X99066483Y-87924869D01*
X99065907Y-87915487D01*
X99064118Y-87841235D01*
X99064010Y-87836743D01*
X99061739Y-87823214D01*
X99060000Y-87802355D01*
X99060000Y-86886423D01*
X120588255Y-86886423D01*
X120596638Y-86938471D01*
X120599212Y-86948793D01*
X120670230Y-87156810D01*
X120674497Y-87166533D01*
X120779556Y-87359625D01*
X120785402Y-87368491D01*
X120921486Y-87541113D01*
X120928750Y-87548875D01*
X121091967Y-87696094D01*
X121100444Y-87702528D01*
X121286122Y-87820136D01*
X121295567Y-87825053D01*
X121498406Y-87909694D01*
X121508545Y-87912950D01*
X121648345Y-87945096D01*
X121662422Y-87944257D01*
X121666000Y-87934999D01*
X121666000Y-86886115D01*
X121664659Y-86881548D01*
X122174000Y-86881548D01*
X122174000Y-87933941D01*
X122178151Y-87948079D01*
X122188798Y-87949774D01*
X122192192Y-87949096D01*
X122403333Y-87887954D01*
X122413259Y-87884143D01*
X122611065Y-87788307D01*
X122620212Y-87782876D01*
X122799041Y-87655083D01*
X122807149Y-87648182D01*
X122961893Y-87492082D01*
X122968706Y-87483933D01*
X123087687Y-87314327D01*
X123143183Y-87270047D01*
X123213809Y-87262800D01*
X123277141Y-87294886D01*
X123301516Y-87326469D01*
X123319556Y-87359625D01*
X123325402Y-87368491D01*
X123461486Y-87541113D01*
X123468750Y-87548875D01*
X123631967Y-87696094D01*
X123640444Y-87702528D01*
X123826122Y-87820136D01*
X123835567Y-87825053D01*
X124038406Y-87909694D01*
X124048545Y-87912950D01*
X124188345Y-87945096D01*
X124202422Y-87944257D01*
X124206000Y-87934999D01*
X124206000Y-86886115D01*
X124204659Y-86881548D01*
X124714000Y-86881548D01*
X124714000Y-87933941D01*
X124718151Y-87948079D01*
X124728798Y-87949774D01*
X124732192Y-87949096D01*
X124943333Y-87887954D01*
X124953259Y-87884143D01*
X125151065Y-87788307D01*
X125160212Y-87782876D01*
X125339041Y-87655083D01*
X125347149Y-87648182D01*
X125501893Y-87492082D01*
X125508706Y-87483933D01*
X125634940Y-87303988D01*
X125640295Y-87294787D01*
X125734399Y-87096156D01*
X125738123Y-87086197D01*
X125795968Y-86879718D01*
X125794430Y-86871351D01*
X125782137Y-86868000D01*
X124732115Y-86868000D01*
X124716876Y-86872475D01*
X124715671Y-86873865D01*
X124714000Y-86881548D01*
X124204659Y-86881548D01*
X124201525Y-86870876D01*
X124200135Y-86869671D01*
X124192452Y-86868000D01*
X122192115Y-86868000D01*
X122176876Y-86872475D01*
X122175671Y-86873865D01*
X122174000Y-86881548D01*
X121664659Y-86881548D01*
X121661525Y-86870876D01*
X121660135Y-86869671D01*
X121652452Y-86868000D01*
X120603403Y-86868000D01*
X120590222Y-86871870D01*
X120588255Y-86886423D01*
X99060000Y-86886423D01*
X99060000Y-84340522D01*
X100571269Y-84340522D01*
X100618761Y-84517761D01*
X100622509Y-84528057D01*
X100714583Y-84725513D01*
X100720066Y-84735009D01*
X100845025Y-84913469D01*
X100852081Y-84921877D01*
X101006123Y-85075919D01*
X101014531Y-85082975D01*
X101192991Y-85207934D01*
X101202487Y-85213417D01*
X101399943Y-85305491D01*
X101410239Y-85309239D01*
X101582503Y-85355398D01*
X101596599Y-85355062D01*
X101600000Y-85347120D01*
X101600000Y-84346115D01*
X101598659Y-84341548D01*
X102108000Y-84341548D01*
X102108000Y-85341971D01*
X102111973Y-85355502D01*
X102120522Y-85356731D01*
X102297761Y-85309239D01*
X102308057Y-85305491D01*
X102505513Y-85213417D01*
X102515009Y-85207934D01*
X102693469Y-85082975D01*
X102701877Y-85075919D01*
X102855919Y-84921877D01*
X102862975Y-84913469D01*
X102987934Y-84735009D01*
X102993417Y-84725513D01*
X103085491Y-84528057D01*
X103089239Y-84517761D01*
X103135398Y-84345497D01*
X103135062Y-84331401D01*
X103127120Y-84328000D01*
X102126115Y-84328000D01*
X102110876Y-84332475D01*
X102109671Y-84333865D01*
X102108000Y-84341548D01*
X101598659Y-84341548D01*
X101595525Y-84330876D01*
X101594135Y-84329671D01*
X101586452Y-84328000D01*
X100586029Y-84328000D01*
X100572498Y-84331973D01*
X100571269Y-84340522D01*
X99060000Y-84340522D01*
X99060000Y-46565595D01*
X99062003Y-46543217D01*
X99063067Y-46537323D01*
X99063067Y-46537320D01*
X99063931Y-46532534D01*
X99065907Y-46450509D01*
X99066481Y-46441154D01*
X99066623Y-46439717D01*
X99068433Y-46427527D01*
X99084221Y-46348154D01*
X99091391Y-46324517D01*
X99119629Y-46256344D01*
X99131273Y-46234560D01*
X99172271Y-46173202D01*
X99187941Y-46154109D01*
X99240110Y-46101940D01*
X99259203Y-46086270D01*
X99320556Y-46045275D01*
X99342340Y-46033631D01*
X99410518Y-46005391D01*
X99434154Y-45998221D01*
X99455364Y-45994002D01*
X99513534Y-45982431D01*
X99525734Y-45980621D01*
X99527193Y-45980477D01*
X99536510Y-45979907D01*
X99615257Y-45978010D01*
X99628786Y-45975739D01*
X99649645Y-45974000D01*
X117022917Y-45974000D01*
X117091038Y-45994002D01*
G37*
%TD.AperFunction*%
%TD*%
M02*
