%TF.GenerationSoftware,KiCad,Pcbnew,(5.99.0-7356-g63088e8bdb)*%
%TF.CreationDate,2021-06-15T10:51:38+08:00*%
%TF.ProjectId,AdapterCartdrige,41646170-7465-4724-9361-727464726967,rev?*%
%TF.SameCoordinates,Original*%
%TF.FileFunction,Legend,Top*%
%TF.FilePolarity,Positive*%
%FSLAX46Y46*%
G04 Gerber Fmt 4.6, Leading zero omitted, Abs format (unit mm)*
G04 Created by KiCad (PCBNEW (5.99.0-7356-g63088e8bdb)) date 2021-06-15 10:51:38*
%MOMM*%
%LPD*%
G01*
G04 APERTURE LIST*
%ADD10C,0.150000*%
%ADD11C,0.120000*%
G04 APERTURE END LIST*
D10*
%TO.C,J1*%
X127241666Y-48236380D02*
X127241666Y-48950666D01*
X127194047Y-49093523D01*
X127098809Y-49188761D01*
X126955952Y-49236380D01*
X126860714Y-49236380D01*
X128241666Y-49236380D02*
X127670238Y-49236380D01*
X127955952Y-49236380D02*
X127955952Y-48236380D01*
X127860714Y-48379238D01*
X127765476Y-48474476D01*
X127670238Y-48522095D01*
%TO.C,C1*%
X118431333Y-45355142D02*
X118383714Y-45402761D01*
X118240857Y-45450380D01*
X118145619Y-45450380D01*
X118002761Y-45402761D01*
X117907523Y-45307523D01*
X117859904Y-45212285D01*
X117812285Y-45021809D01*
X117812285Y-44878952D01*
X117859904Y-44688476D01*
X117907523Y-44593238D01*
X118002761Y-44498000D01*
X118145619Y-44450380D01*
X118240857Y-44450380D01*
X118383714Y-44498000D01*
X118431333Y-44545619D01*
X119383714Y-45450380D02*
X118812285Y-45450380D01*
X119098000Y-45450380D02*
X119098000Y-44450380D01*
X119002761Y-44593238D01*
X118907523Y-44688476D01*
X118812285Y-44736095D01*
%TO.C,U1*%
X108712095Y-48176380D02*
X108712095Y-48985904D01*
X108759714Y-49081142D01*
X108807333Y-49128761D01*
X108902571Y-49176380D01*
X109093047Y-49176380D01*
X109188285Y-49128761D01*
X109235904Y-49081142D01*
X109283523Y-48985904D01*
X109283523Y-48176380D01*
X110283523Y-49176380D02*
X109712095Y-49176380D01*
X109997809Y-49176380D02*
X109997809Y-48176380D01*
X109902571Y-48319238D01*
X109807333Y-48414476D01*
X109712095Y-48462095D01*
D11*
%TO.C,J1*%
X125900000Y-49724000D02*
X125900000Y-87944000D01*
X128560000Y-73534000D02*
X134560000Y-73534000D01*
X125502929Y-76834000D02*
X125900000Y-76834000D01*
X122962929Y-61594000D02*
X123417071Y-61594000D01*
X125502929Y-73534000D02*
X125900000Y-73534000D01*
X134560000Y-71754000D02*
X128560000Y-71754000D01*
X125502929Y-83694000D02*
X125900000Y-83694000D01*
X122962929Y-71754000D02*
X123417071Y-71754000D01*
X125502929Y-76074000D02*
X125900000Y-76074000D01*
X122962929Y-56514000D02*
X123417071Y-56514000D01*
X122962929Y-86994000D02*
X123417071Y-86994000D01*
X125900000Y-52324000D02*
X128560000Y-52324000D01*
X125900000Y-72644000D02*
X128560000Y-72644000D01*
X122962929Y-53974000D02*
X123417071Y-53974000D01*
X134560000Y-83694000D02*
X134560000Y-84454000D01*
X134560000Y-81914000D02*
X128560000Y-81914000D01*
X125900000Y-65024000D02*
X128560000Y-65024000D01*
X134560000Y-79374000D02*
X128560000Y-79374000D01*
X125900000Y-67564000D02*
X128560000Y-67564000D01*
X125502929Y-79374000D02*
X125900000Y-79374000D01*
X125502929Y-60834000D02*
X125900000Y-60834000D01*
X128560000Y-51334000D02*
X134560000Y-51334000D01*
X128560000Y-83694000D02*
X134560000Y-83694000D01*
X120650000Y-49784000D02*
X121920000Y-49784000D01*
X122962929Y-53214000D02*
X123417071Y-53214000D01*
X128560000Y-49724000D02*
X125900000Y-49724000D01*
X125502929Y-51434000D02*
X125900000Y-51434000D01*
X125502929Y-70994000D02*
X125900000Y-70994000D01*
X122962929Y-68454000D02*
X123417071Y-68454000D01*
X122962929Y-74294000D02*
X123417071Y-74294000D01*
X122962929Y-70994000D02*
X123417071Y-70994000D01*
X122962929Y-81914000D02*
X123417071Y-81914000D01*
X122962929Y-63374000D02*
X123417071Y-63374000D01*
X134560000Y-78614000D02*
X134560000Y-79374000D01*
X134560000Y-68454000D02*
X134560000Y-69214000D01*
X125502929Y-81914000D02*
X125900000Y-81914000D01*
X122962929Y-76834000D02*
X123417071Y-76834000D01*
X128560000Y-60834000D02*
X134560000Y-60834000D01*
X123030000Y-50674000D02*
X123417071Y-50674000D01*
X122962929Y-58294000D02*
X123417071Y-58294000D01*
X128560000Y-87944000D02*
X128560000Y-49724000D01*
X125900000Y-87944000D02*
X128560000Y-87944000D01*
X134560000Y-76074000D02*
X134560000Y-76834000D01*
X128560000Y-63374000D02*
X134560000Y-63374000D01*
X134560000Y-65914000D02*
X134560000Y-66674000D01*
X134560000Y-64134000D02*
X128560000Y-64134000D01*
X125502929Y-50674000D02*
X125900000Y-50674000D01*
X134560000Y-76834000D02*
X128560000Y-76834000D01*
X128560000Y-70994000D02*
X134560000Y-70994000D01*
X134560000Y-56514000D02*
X128560000Y-56514000D01*
X122962929Y-81154000D02*
X123417071Y-81154000D01*
X125502929Y-59054000D02*
X125900000Y-59054000D01*
X128560000Y-65914000D02*
X134560000Y-65914000D01*
X122962929Y-79374000D02*
X123417071Y-79374000D01*
X134560000Y-58294000D02*
X134560000Y-59054000D01*
X134560000Y-69214000D02*
X128560000Y-69214000D01*
X125900000Y-82804000D02*
X128560000Y-82804000D01*
X128560000Y-51214000D02*
X134560000Y-51214000D01*
X122962929Y-84454000D02*
X123417071Y-84454000D01*
X125502929Y-58294000D02*
X125900000Y-58294000D01*
X125502929Y-69214000D02*
X125900000Y-69214000D01*
X125900000Y-77724000D02*
X128560000Y-77724000D01*
X128560000Y-50854000D02*
X134560000Y-50854000D01*
X122962929Y-69214000D02*
X123417071Y-69214000D01*
X125900000Y-70104000D02*
X128560000Y-70104000D01*
X122962929Y-83694000D02*
X123417071Y-83694000D01*
X128560000Y-50674000D02*
X134560000Y-50674000D01*
X122962929Y-60834000D02*
X123417071Y-60834000D01*
X120650000Y-51054000D02*
X120650000Y-49784000D01*
X125900000Y-75184000D02*
X128560000Y-75184000D01*
X134560000Y-61594000D02*
X128560000Y-61594000D01*
X122962929Y-78614000D02*
X123417071Y-78614000D01*
X122962929Y-86234000D02*
X123417071Y-86234000D01*
X134560000Y-60834000D02*
X134560000Y-61594000D01*
X125900000Y-57404000D02*
X128560000Y-57404000D01*
X125502929Y-66674000D02*
X125900000Y-66674000D01*
X134560000Y-73534000D02*
X134560000Y-74294000D01*
X125900000Y-59944000D02*
X128560000Y-59944000D01*
X125502929Y-55754000D02*
X125900000Y-55754000D01*
X125502929Y-74294000D02*
X125900000Y-74294000D01*
X122962929Y-76074000D02*
X123417071Y-76074000D01*
X128560000Y-68454000D02*
X134560000Y-68454000D01*
X125502929Y-78614000D02*
X125900000Y-78614000D01*
X128560000Y-50734000D02*
X134560000Y-50734000D01*
X122962929Y-66674000D02*
X123417071Y-66674000D01*
X125502929Y-53974000D02*
X125900000Y-53974000D01*
X134560000Y-53214000D02*
X134560000Y-53974000D01*
X125900000Y-62484000D02*
X128560000Y-62484000D01*
X123030000Y-51434000D02*
X123417071Y-51434000D01*
X128560000Y-55754000D02*
X134560000Y-55754000D01*
X134560000Y-53974000D02*
X128560000Y-53974000D01*
X128560000Y-78614000D02*
X134560000Y-78614000D01*
X125502929Y-56514000D02*
X125900000Y-56514000D01*
X125502929Y-84454000D02*
X125900000Y-84454000D01*
X122962929Y-73534000D02*
X123417071Y-73534000D01*
X134560000Y-86234000D02*
X134560000Y-86994000D01*
X134560000Y-50674000D02*
X134560000Y-51434000D01*
X128560000Y-58294000D02*
X134560000Y-58294000D01*
X125502929Y-71754000D02*
X125900000Y-71754000D01*
X128560000Y-53214000D02*
X134560000Y-53214000D01*
X128560000Y-86234000D02*
X134560000Y-86234000D01*
X134560000Y-59054000D02*
X128560000Y-59054000D01*
X125502929Y-65914000D02*
X125900000Y-65914000D01*
X125502929Y-86234000D02*
X125900000Y-86234000D01*
X125502929Y-61594000D02*
X125900000Y-61594000D01*
X125502929Y-63374000D02*
X125900000Y-63374000D01*
X125502929Y-81154000D02*
X125900000Y-81154000D01*
X134560000Y-84454000D02*
X128560000Y-84454000D01*
X134560000Y-70994000D02*
X134560000Y-71754000D01*
X122962929Y-64134000D02*
X123417071Y-64134000D01*
X125502929Y-68454000D02*
X125900000Y-68454000D01*
X125502929Y-86994000D02*
X125900000Y-86994000D01*
X134560000Y-74294000D02*
X128560000Y-74294000D01*
X134560000Y-81154000D02*
X134560000Y-81914000D01*
X125900000Y-80264000D02*
X128560000Y-80264000D01*
X128560000Y-76074000D02*
X134560000Y-76074000D01*
X134560000Y-86994000D02*
X128560000Y-86994000D01*
X125900000Y-54864000D02*
X128560000Y-54864000D01*
X122962929Y-59054000D02*
X123417071Y-59054000D01*
X122962929Y-65914000D02*
X123417071Y-65914000D01*
X128560000Y-51094000D02*
X134560000Y-51094000D01*
X134560000Y-63374000D02*
X134560000Y-64134000D01*
X125502929Y-64134000D02*
X125900000Y-64134000D01*
X128560000Y-81154000D02*
X134560000Y-81154000D01*
X125900000Y-85344000D02*
X128560000Y-85344000D01*
X125502929Y-53214000D02*
X125900000Y-53214000D01*
X134560000Y-66674000D02*
X128560000Y-66674000D01*
X122962929Y-55754000D02*
X123417071Y-55754000D01*
X134560000Y-55754000D02*
X134560000Y-56514000D01*
X134560000Y-51434000D02*
X128560000Y-51434000D01*
X128560000Y-50974000D02*
X134560000Y-50974000D01*
%TO.C,C1*%
X115978000Y-46128000D02*
X115978000Y-48868000D01*
X115978000Y-46128000D02*
X121218000Y-46128000D01*
X121218000Y-46128000D02*
X121218000Y-48868000D01*
X115978000Y-48868000D02*
X121218000Y-48868000D01*
%TO.C,U1*%
X115934000Y-49724000D02*
X110474000Y-49724000D01*
X103014000Y-85404000D02*
X115934000Y-85404000D01*
X103014000Y-49724000D02*
X103014000Y-85404000D01*
X108474000Y-49724000D02*
X103014000Y-49724000D01*
X115934000Y-85404000D02*
X115934000Y-49724000D01*
X110474000Y-49724000D02*
G75*
G02*
X108474000Y-49724000I-1000000J0D01*
G01*
%TD*%
M02*
