M48
; DRILL file {KiCad (5.99.0-7356-g63088e8bdb)} date Tue Jun 15 12:35:07 2021
; FORMAT={-:-/ absolute / metric / decimal}
; #@! TF.CreationDate,2021-06-15T12:35:07+08:00
; #@! TF.GenerationSoftware,Kicad,Pcbnew,(5.99.0-7356-g63088e8bdb)
; #@! TF.FileFunction,Plated,1,2,PTH
FMAT,2
METRIC
T1C0.400
T2C0.800
%
G90
G05
T1
X28.822Y-59.308
X31.362Y-59.308
X33.902Y-59.308
X36.442Y-59.308
X69.462Y-59.308
T2
X42.926Y-34.798
X42.926Y-50.038
X45.466Y-34.798
X45.466Y-50.038
X48.006Y-34.798
X48.006Y-50.038
X50.546Y-34.798
X50.546Y-50.038
X53.086Y-34.798
X53.086Y-50.038
X55.626Y-34.798
X55.626Y-50.038
X58.166Y-34.798
X58.166Y-50.038
X60.706Y-34.798
X60.706Y-50.038
X63.246Y-34.798
X63.246Y-50.038
X65.786Y-34.798
X65.786Y-50.038
X68.326Y-34.798
X68.326Y-50.038
X70.866Y-34.798
X70.866Y-50.038
X73.406Y-34.798
X73.406Y-50.038
X73.566Y-53.466
X75.946Y-34.798
X75.946Y-50.038
X76.066Y-53.466
T0
M30
