%TF.GenerationSoftware,KiCad,Pcbnew,7.0.3*%
%TF.CreationDate,2023-05-19T23:31:06+08:00*%
%TF.ProjectId,Cartdrige,43617274-6472-4696-9765-2e6b69636164,rev?*%
%TF.SameCoordinates,Original*%
%TF.FileFunction,Legend,Top*%
%TF.FilePolarity,Positive*%
%FSLAX46Y46*%
G04 Gerber Fmt 4.6, Leading zero omitted, Abs format (unit mm)*
G04 Created by KiCad (PCBNEW 7.0.3) date 2023-05-19 23:31:06*
%MOMM*%
%LPD*%
G01*
G04 APERTURE LIST*
%ADD10C,0.150000*%
%ADD11C,0.300000*%
%ADD12C,0.120000*%
G04 APERTURE END LIST*
D10*
X148164779Y-86610866D02*
X148926684Y-86610866D01*
X148545731Y-86991819D02*
X148545731Y-86229914D01*
%TO.C,C1*%
X134003580Y-75759982D02*
X134051200Y-75807601D01*
X134051200Y-75807601D02*
X134098819Y-75950458D01*
X134098819Y-75950458D02*
X134098819Y-76045696D01*
X134098819Y-76045696D02*
X134051200Y-76188553D01*
X134051200Y-76188553D02*
X133955961Y-76283791D01*
X133955961Y-76283791D02*
X133860723Y-76331410D01*
X133860723Y-76331410D02*
X133670247Y-76379029D01*
X133670247Y-76379029D02*
X133527390Y-76379029D01*
X133527390Y-76379029D02*
X133336914Y-76331410D01*
X133336914Y-76331410D02*
X133241676Y-76283791D01*
X133241676Y-76283791D02*
X133146438Y-76188553D01*
X133146438Y-76188553D02*
X133098819Y-76045696D01*
X133098819Y-76045696D02*
X133098819Y-75950458D01*
X133098819Y-75950458D02*
X133146438Y-75807601D01*
X133146438Y-75807601D02*
X133194057Y-75759982D01*
X134098819Y-74807601D02*
X134098819Y-75379029D01*
X134098819Y-75093315D02*
X133098819Y-75093315D01*
X133098819Y-75093315D02*
X133241676Y-75188553D01*
X133241676Y-75188553D02*
X133336914Y-75283791D01*
X133336914Y-75283791D02*
X133384533Y-75379029D01*
D11*
%TO.C,XiaoNiuNiu*%
X85178512Y-84001431D02*
X86194512Y-85525431D01*
X86194512Y-84001431D02*
X85178512Y-85525431D01*
X86775084Y-85525431D02*
X86775084Y-84509431D01*
X86775084Y-84001431D02*
X86702512Y-84074002D01*
X86702512Y-84074002D02*
X86775084Y-84146574D01*
X86775084Y-84146574D02*
X86847655Y-84074002D01*
X86847655Y-84074002D02*
X86775084Y-84001431D01*
X86775084Y-84001431D02*
X86775084Y-84146574D01*
X88153941Y-85525431D02*
X88153941Y-84727145D01*
X88153941Y-84727145D02*
X88081369Y-84582002D01*
X88081369Y-84582002D02*
X87936226Y-84509431D01*
X87936226Y-84509431D02*
X87645941Y-84509431D01*
X87645941Y-84509431D02*
X87500798Y-84582002D01*
X88153941Y-85452860D02*
X88008798Y-85525431D01*
X88008798Y-85525431D02*
X87645941Y-85525431D01*
X87645941Y-85525431D02*
X87500798Y-85452860D01*
X87500798Y-85452860D02*
X87428226Y-85307717D01*
X87428226Y-85307717D02*
X87428226Y-85162574D01*
X87428226Y-85162574D02*
X87500798Y-85017431D01*
X87500798Y-85017431D02*
X87645941Y-84944860D01*
X87645941Y-84944860D02*
X88008798Y-84944860D01*
X88008798Y-84944860D02*
X88153941Y-84872288D01*
X89097369Y-85525431D02*
X88952226Y-85452860D01*
X88952226Y-85452860D02*
X88879655Y-85380288D01*
X88879655Y-85380288D02*
X88807083Y-85235145D01*
X88807083Y-85235145D02*
X88807083Y-84799717D01*
X88807083Y-84799717D02*
X88879655Y-84654574D01*
X88879655Y-84654574D02*
X88952226Y-84582002D01*
X88952226Y-84582002D02*
X89097369Y-84509431D01*
X89097369Y-84509431D02*
X89315083Y-84509431D01*
X89315083Y-84509431D02*
X89460226Y-84582002D01*
X89460226Y-84582002D02*
X89532798Y-84654574D01*
X89532798Y-84654574D02*
X89605369Y-84799717D01*
X89605369Y-84799717D02*
X89605369Y-85235145D01*
X89605369Y-85235145D02*
X89532798Y-85380288D01*
X89532798Y-85380288D02*
X89460226Y-85452860D01*
X89460226Y-85452860D02*
X89315083Y-85525431D01*
X89315083Y-85525431D02*
X89097369Y-85525431D01*
X90258512Y-85525431D02*
X90258512Y-84001431D01*
X90258512Y-84001431D02*
X91129369Y-85525431D01*
X91129369Y-85525431D02*
X91129369Y-84001431D01*
X91855083Y-85525431D02*
X91855083Y-84509431D01*
X91855083Y-84001431D02*
X91782511Y-84074002D01*
X91782511Y-84074002D02*
X91855083Y-84146574D01*
X91855083Y-84146574D02*
X91927654Y-84074002D01*
X91927654Y-84074002D02*
X91855083Y-84001431D01*
X91855083Y-84001431D02*
X91855083Y-84146574D01*
X93233940Y-84509431D02*
X93233940Y-85525431D01*
X92580797Y-84509431D02*
X92580797Y-85307717D01*
X92580797Y-85307717D02*
X92653368Y-85452860D01*
X92653368Y-85452860D02*
X92798511Y-85525431D01*
X92798511Y-85525431D02*
X93016225Y-85525431D01*
X93016225Y-85525431D02*
X93161368Y-85452860D01*
X93161368Y-85452860D02*
X93233940Y-85380288D01*
X93959654Y-85525431D02*
X93959654Y-84001431D01*
X93959654Y-84001431D02*
X94830511Y-85525431D01*
X94830511Y-85525431D02*
X94830511Y-84001431D01*
X95556225Y-85525431D02*
X95556225Y-84509431D01*
X95556225Y-84001431D02*
X95483653Y-84074002D01*
X95483653Y-84074002D02*
X95556225Y-84146574D01*
X95556225Y-84146574D02*
X95628796Y-84074002D01*
X95628796Y-84074002D02*
X95556225Y-84001431D01*
X95556225Y-84001431D02*
X95556225Y-84146574D01*
X96935082Y-84509431D02*
X96935082Y-85525431D01*
X96281939Y-84509431D02*
X96281939Y-85307717D01*
X96281939Y-85307717D02*
X96354510Y-85452860D01*
X96354510Y-85452860D02*
X96499653Y-85525431D01*
X96499653Y-85525431D02*
X96717367Y-85525431D01*
X96717367Y-85525431D02*
X96862510Y-85452860D01*
X96862510Y-85452860D02*
X96935082Y-85380288D01*
D10*
%TO.C,U1*%
X130054819Y-70005220D02*
X130864342Y-70005220D01*
X130864342Y-70005220D02*
X130959580Y-69957601D01*
X130959580Y-69957601D02*
X131007200Y-69909982D01*
X131007200Y-69909982D02*
X131054819Y-69814744D01*
X131054819Y-69814744D02*
X131054819Y-69624268D01*
X131054819Y-69624268D02*
X131007200Y-69529030D01*
X131007200Y-69529030D02*
X130959580Y-69481411D01*
X130959580Y-69481411D02*
X130864342Y-69433792D01*
X130864342Y-69433792D02*
X130054819Y-69433792D01*
X131054819Y-68433792D02*
X131054819Y-69005220D01*
X131054819Y-68719506D02*
X130054819Y-68719506D01*
X130054819Y-68719506D02*
X130197676Y-68814744D01*
X130197676Y-68814744D02*
X130292914Y-68909982D01*
X130292914Y-68909982D02*
X130340533Y-69005220D01*
D12*
%TO.C,C1*%
X134774000Y-78312000D02*
X137514000Y-78312000D01*
X134774000Y-78312000D02*
X134774000Y-73072000D01*
X137514000Y-78312000D02*
X137514000Y-73072000D01*
X134774000Y-73072000D02*
X137514000Y-73072000D01*
%TO.C,XiaoNiuNiu*%
G36*
X81886799Y-78961460D02*
G01*
X81971540Y-79016643D01*
X82028926Y-79099313D01*
X82050956Y-79198455D01*
X82029631Y-79303057D01*
X81967950Y-79391577D01*
X81861669Y-79463394D01*
X81749038Y-79477303D01*
X81638022Y-79432340D01*
X81637036Y-79431652D01*
X81559216Y-79344675D01*
X81527606Y-79237161D01*
X81541058Y-79126358D01*
X81598425Y-79029514D01*
X81667253Y-78977607D01*
X81782703Y-78944777D01*
X81886799Y-78961460D01*
G37*
G36*
X80374901Y-78962764D02*
G01*
X80462648Y-79012597D01*
X80527223Y-79089366D01*
X80557214Y-79185849D01*
X80541209Y-79294824D01*
X80527305Y-79325870D01*
X80447264Y-79428021D01*
X80347109Y-79476591D01*
X80237651Y-79469860D01*
X80129700Y-79406108D01*
X80114361Y-79391577D01*
X80042400Y-79285253D01*
X80029327Y-79173168D01*
X80075676Y-79061974D01*
X80086751Y-79047092D01*
X80175541Y-78972790D01*
X80275395Y-78947088D01*
X80374901Y-78962764D01*
G37*
G36*
X80638141Y-81143826D02*
G01*
X80742281Y-81207951D01*
X80818932Y-81302038D01*
X80862687Y-81411063D01*
X80868142Y-81520000D01*
X80829892Y-81613825D01*
X80813828Y-81632205D01*
X80733878Y-81684239D01*
X80648580Y-81680366D01*
X80550263Y-81620122D01*
X80545385Y-81616058D01*
X80467323Y-81525444D01*
X80415156Y-81416506D01*
X80397841Y-81311396D01*
X80404745Y-81268150D01*
X80456737Y-81187428D01*
X80538616Y-81141103D01*
X80628830Y-81140656D01*
X80638141Y-81143826D01*
G37*
G36*
X81532748Y-81125096D02*
G01*
X81587829Y-81163845D01*
X81601895Y-81177551D01*
X81651855Y-81266497D01*
X81658601Y-81375870D01*
X81626519Y-81488558D01*
X81559994Y-81587448D01*
X81481646Y-81646847D01*
X81387378Y-81685650D01*
X81319640Y-81683328D01*
X81259223Y-81638536D01*
X81252057Y-81630802D01*
X81204888Y-81537536D01*
X81203097Y-81426448D01*
X81241853Y-81313680D01*
X81316323Y-81215377D01*
X81392719Y-81160847D01*
X81475680Y-81124733D01*
X81532748Y-81125096D01*
G37*
G36*
X81666521Y-76556009D02*
G01*
X82091821Y-76651233D01*
X82492320Y-76795487D01*
X82525899Y-76810462D01*
X82711681Y-76894700D01*
X82906967Y-76794102D01*
X83099661Y-76708234D01*
X83271760Y-76657874D01*
X83416864Y-76643487D01*
X83528572Y-76665537D01*
X83600483Y-76724488D01*
X83610615Y-76743084D01*
X83626786Y-76837391D01*
X83612250Y-76968759D01*
X83569915Y-77123804D01*
X83502689Y-77289139D01*
X83483532Y-77328159D01*
X83436841Y-77434793D01*
X83420498Y-77507401D01*
X83434713Y-77539850D01*
X83476674Y-77527919D01*
X83538031Y-77517826D01*
X83641360Y-77529811D01*
X83773628Y-77560476D01*
X83921797Y-77606424D01*
X84072834Y-77664257D01*
X84171174Y-77708955D01*
X84313158Y-77783408D01*
X84435309Y-77860762D01*
X84555583Y-77954048D01*
X84691937Y-78076297D01*
X84739491Y-78121358D01*
X84847002Y-78228060D01*
X84936217Y-78324074D01*
X84998784Y-78399853D01*
X85026350Y-78445849D01*
X85026955Y-78449920D01*
X84998801Y-78493939D01*
X84922239Y-78540909D01*
X84809120Y-78587160D01*
X84671292Y-78629019D01*
X84520605Y-78662815D01*
X84368909Y-78684876D01*
X84246818Y-78691661D01*
X84088042Y-78692109D01*
X84251779Y-78920312D01*
X84509063Y-79330685D01*
X84714207Y-79771880D01*
X84867045Y-80243513D01*
X84910779Y-80427867D01*
X84952378Y-80688212D01*
X84975765Y-80983705D01*
X84980985Y-81294340D01*
X84968080Y-81600109D01*
X84937095Y-81881005D01*
X84907284Y-82040754D01*
X84768653Y-82525902D01*
X84579764Y-82977433D01*
X84339737Y-83396894D01*
X84047694Y-83785835D01*
X83721196Y-84128539D01*
X83445204Y-84388347D01*
X83508218Y-84476842D01*
X83616636Y-84673133D01*
X83688606Y-84897512D01*
X83712386Y-85057265D01*
X83714564Y-85207386D01*
X83689990Y-85315136D01*
X83630928Y-85395708D01*
X83529643Y-85464290D01*
X83496287Y-85481608D01*
X83445650Y-85505803D01*
X83397045Y-85524366D01*
X83341582Y-85538185D01*
X83270369Y-85548150D01*
X83174517Y-85555150D01*
X83045135Y-85560074D01*
X82873333Y-85563812D01*
X82650220Y-85567253D01*
X82638371Y-85567422D01*
X82317201Y-85569260D01*
X82050809Y-85564033D01*
X81833637Y-85550568D01*
X81660130Y-85527691D01*
X81524730Y-85494229D01*
X81421882Y-85449007D01*
X81346030Y-85390853D01*
X81291616Y-85318593D01*
X81271566Y-85278745D01*
X81244526Y-85225335D01*
X81212172Y-85197469D01*
X81156496Y-85187858D01*
X81059489Y-85189209D01*
X81051144Y-85189510D01*
X80950023Y-85195436D01*
X80890498Y-85210041D01*
X80853548Y-85242520D01*
X80820733Y-85300900D01*
X80742134Y-85400984D01*
X80615879Y-85477309D01*
X80437358Y-85532465D01*
X80391289Y-85541887D01*
X80292992Y-85553718D01*
X80148029Y-85562343D01*
X79968228Y-85567866D01*
X79765414Y-85570388D01*
X79551414Y-85570014D01*
X79338054Y-85566847D01*
X79137160Y-85560990D01*
X78960558Y-85552546D01*
X78820074Y-85541619D01*
X78727535Y-85528312D01*
X78723264Y-85527319D01*
X78568196Y-85471923D01*
X78464593Y-85389333D01*
X78406761Y-85272556D01*
X78389007Y-85116650D01*
X78407649Y-84931338D01*
X78458268Y-84740890D01*
X78532903Y-84571843D01*
X78570185Y-84512640D01*
X78635158Y-84421394D01*
X78274702Y-84064926D01*
X78014562Y-83790524D01*
X77798890Y-83522993D01*
X77615950Y-83246491D01*
X77471643Y-82981012D01*
X77287079Y-82543467D01*
X77158523Y-82089828D01*
X77124286Y-81872474D01*
X77248363Y-81872474D01*
X77255361Y-81923543D01*
X77274601Y-82013469D01*
X77302535Y-82132324D01*
X77429348Y-82545024D01*
X77608311Y-82950224D01*
X77832704Y-83337026D01*
X78095807Y-83694531D01*
X78390899Y-84011842D01*
X78547621Y-84151419D01*
X78724044Y-84298240D01*
X78874987Y-84189799D01*
X79114992Y-84052225D01*
X79368162Y-83970874D01*
X79626936Y-83945141D01*
X79883753Y-83974425D01*
X80131051Y-84058120D01*
X80361270Y-84195623D01*
X80504572Y-84319918D01*
X80641934Y-84484847D01*
X80750637Y-84670615D01*
X80820238Y-84857751D01*
X80836133Y-84938069D01*
X80852120Y-85057265D01*
X81044569Y-85057265D01*
X81149440Y-85055727D01*
X81208971Y-85047091D01*
X81238432Y-85025321D01*
X81253093Y-84984381D01*
X81255472Y-84973911D01*
X81321195Y-84743228D01*
X81411169Y-84553306D01*
X81535382Y-84385987D01*
X81634168Y-84285450D01*
X81843949Y-84127541D01*
X82080248Y-84016544D01*
X82331349Y-83956044D01*
X82585539Y-83949623D01*
X82687169Y-83963314D01*
X82820713Y-83997118D01*
X82963127Y-84047935D01*
X83097060Y-84108045D01*
X83205161Y-84169730D01*
X83266907Y-84221259D01*
X83315858Y-84261277D01*
X83370128Y-84257048D01*
X83443833Y-84206491D01*
X83459662Y-84192832D01*
X83513493Y-84138929D01*
X83525631Y-84097650D01*
X83505609Y-84049816D01*
X83488297Y-83987798D01*
X83472905Y-83868239D01*
X83459720Y-83694197D01*
X83449032Y-83468731D01*
X83447835Y-83435665D01*
X83440571Y-83239562D01*
X83433098Y-83090751D01*
X83423344Y-82975933D01*
X83409238Y-82881810D01*
X83388707Y-82795082D01*
X83359681Y-82702450D01*
X83320087Y-82590614D01*
X83313277Y-82571823D01*
X83246761Y-82370782D01*
X83208478Y-82209351D01*
X83195503Y-82076859D01*
X83197345Y-81972865D01*
X83211773Y-81906443D01*
X83247008Y-81854705D01*
X83290077Y-81813515D01*
X83381540Y-81747126D01*
X83489581Y-81702115D01*
X83626754Y-81675371D01*
X83805618Y-81663783D01*
X83898871Y-81662684D01*
X84063209Y-81657227D01*
X84195426Y-81642140D01*
X84277749Y-81620504D01*
X84341340Y-81580289D01*
X84430674Y-81507425D01*
X84531015Y-81414387D01*
X84581992Y-81362867D01*
X84673151Y-81271041D01*
X84750951Y-81198673D01*
X84804767Y-81155335D01*
X84821383Y-81147241D01*
X84837423Y-81119306D01*
X84843274Y-81042942D01*
X84839867Y-80929314D01*
X84828138Y-80789584D01*
X84809018Y-80634915D01*
X84783442Y-80476470D01*
X84752848Y-80327581D01*
X84723431Y-80204051D01*
X84698533Y-80104888D01*
X84681575Y-80043440D01*
X84676620Y-80030210D01*
X84644351Y-80020321D01*
X84567471Y-80003782D01*
X84461182Y-79983803D01*
X84435835Y-79979347D01*
X84312768Y-79953176D01*
X84204106Y-79921658D01*
X84131582Y-79891194D01*
X84127097Y-79888414D01*
X84088043Y-79859181D01*
X84066066Y-79825015D01*
X84057662Y-79770367D01*
X84059330Y-79679688D01*
X84063447Y-79605863D01*
X84087436Y-79412075D01*
X84134887Y-79263206D01*
X84145051Y-79242333D01*
X84181313Y-79155197D01*
X84196387Y-79083697D01*
X84193902Y-79061306D01*
X84165823Y-79009855D01*
X84116966Y-78937162D01*
X84059734Y-78859758D01*
X84006533Y-78794175D01*
X83969768Y-78756943D01*
X83963045Y-78753667D01*
X83957328Y-78780027D01*
X83961979Y-78848843D01*
X83970754Y-78911859D01*
X83990609Y-79081938D01*
X84001342Y-79279886D01*
X84003211Y-79488634D01*
X83996473Y-79691112D01*
X83981387Y-79870253D01*
X83958211Y-80008988D01*
X83953916Y-80025761D01*
X83823639Y-80390740D01*
X83636335Y-80746274D01*
X83395358Y-81088337D01*
X83104059Y-81412901D01*
X82765790Y-81715936D01*
X82383903Y-81993415D01*
X82242022Y-82082861D01*
X82123494Y-82149905D01*
X81985499Y-82220330D01*
X81841367Y-82288212D01*
X81704431Y-82347627D01*
X81588022Y-82392650D01*
X81505472Y-82417359D01*
X81482698Y-82420272D01*
X81444931Y-82445566D01*
X81409090Y-82504236D01*
X81390177Y-82570465D01*
X81389723Y-82580288D01*
X81408893Y-82620008D01*
X81460481Y-82692239D01*
X81535604Y-82785116D01*
X81589775Y-82847496D01*
X81718211Y-83000072D01*
X81804680Y-83124964D01*
X81854759Y-83232095D01*
X81874028Y-83331391D01*
X81874688Y-83354434D01*
X81846427Y-83475155D01*
X81769571Y-83586023D01*
X81656011Y-83681229D01*
X81517638Y-83754961D01*
X81366343Y-83801409D01*
X81214017Y-83814764D01*
X81072550Y-83789213D01*
X81026062Y-83769110D01*
X80920628Y-83687705D01*
X80826341Y-83566649D01*
X80759155Y-83426722D01*
X80756141Y-83417578D01*
X80692779Y-83265178D01*
X80601342Y-83125464D01*
X80475628Y-82992772D01*
X80309434Y-82861436D01*
X80096560Y-82725794D01*
X79850388Y-82590363D01*
X79647282Y-82478641D01*
X79499678Y-82383999D01*
X79405415Y-82304801D01*
X79362335Y-82239413D01*
X79358936Y-82218148D01*
X79375399Y-82139179D01*
X79415751Y-82047385D01*
X79466431Y-81969644D01*
X79500069Y-81938403D01*
X79538831Y-81909907D01*
X79525020Y-81887118D01*
X79502294Y-81872837D01*
X79363362Y-81775447D01*
X79201128Y-81638843D01*
X79026347Y-81473961D01*
X78849776Y-81291732D01*
X78682172Y-81103093D01*
X78534293Y-80918978D01*
X78454196Y-80807429D01*
X78369229Y-80663078D01*
X78280932Y-80481236D01*
X78198579Y-80283707D01*
X78131447Y-80092295D01*
X78097174Y-79968075D01*
X78075775Y-79834057D01*
X78061481Y-79659007D01*
X78054553Y-79462125D01*
X78055253Y-79262612D01*
X78063841Y-79079669D01*
X78080580Y-78932496D01*
X78082906Y-78919442D01*
X78098374Y-78828574D01*
X78102116Y-78773196D01*
X78090529Y-78755913D01*
X78060006Y-78779330D01*
X78006942Y-78846052D01*
X77927732Y-78958683D01*
X77831216Y-79101298D01*
X77672135Y-79353812D01*
X77545889Y-79592673D01*
X77439085Y-79843443D01*
X77430428Y-79866250D01*
X77384539Y-79996336D01*
X77364874Y-80084304D01*
X77372801Y-80143332D01*
X77409688Y-80186594D01*
X77467418Y-80222206D01*
X77586365Y-80306192D01*
X77701411Y-80421247D01*
X77797239Y-80549088D01*
X77858527Y-80671431D01*
X77866547Y-80698562D01*
X77885353Y-80790211D01*
X77907112Y-80918401D01*
X77927885Y-81059446D01*
X77933098Y-81098864D01*
X77954215Y-81235534D01*
X77980003Y-81362422D01*
X78005844Y-81457706D01*
X78013280Y-81477742D01*
X78082080Y-81599595D01*
X78171573Y-81699167D01*
X78266229Y-81760105D01*
X78288204Y-81767218D01*
X78362134Y-81814463D01*
X78418473Y-81905228D01*
X78456231Y-82025097D01*
X78474416Y-82159656D01*
X78472039Y-82294488D01*
X78448108Y-82415180D01*
X78401636Y-82507317D01*
X78342184Y-82552995D01*
X78261475Y-82570830D01*
X78174769Y-82560631D01*
X78075602Y-82518788D01*
X77957509Y-82441688D01*
X77814026Y-82325720D01*
X77638687Y-82167273D01*
X77619466Y-82149249D01*
X77503005Y-82041546D01*
X77400948Y-81950544D01*
X77321850Y-81883615D01*
X77274268Y-81848131D01*
X77265645Y-81844377D01*
X77252245Y-81849629D01*
X77248363Y-81872474D01*
X77124286Y-81872474D01*
X77085435Y-81625841D01*
X77067274Y-81157253D01*
X77103498Y-80689811D01*
X77193568Y-80229262D01*
X77336942Y-79781352D01*
X77533078Y-79351828D01*
X77781438Y-78946436D01*
X77861735Y-78836083D01*
X77970472Y-78692109D01*
X77808439Y-78691661D01*
X77664248Y-78682648D01*
X77511179Y-78658786D01*
X77361031Y-78623717D01*
X77225604Y-78581082D01*
X77116696Y-78534522D01*
X77046107Y-78487678D01*
X77025046Y-78449920D01*
X77045303Y-78411141D01*
X77237217Y-78411141D01*
X77264881Y-78435314D01*
X77338019Y-78462809D01*
X77441853Y-78490284D01*
X77561603Y-78514401D01*
X77682491Y-78531818D01*
X77789738Y-78539195D01*
X77803941Y-78539228D01*
X77923300Y-78528509D01*
X78042009Y-78503429D01*
X78070750Y-78494219D01*
X78175860Y-78459218D01*
X78245038Y-78448552D01*
X78282569Y-78469156D01*
X78292737Y-78527967D01*
X78279828Y-78631921D01*
X78249186Y-78783040D01*
X78223832Y-78941681D01*
X78206584Y-79133192D01*
X78197674Y-79340460D01*
X78197337Y-79546373D01*
X78205807Y-79733820D01*
X78223316Y-79885688D01*
X78233443Y-79934830D01*
X78286337Y-80101078D01*
X78366296Y-80295263D01*
X78463767Y-80497014D01*
X78569194Y-80685958D01*
X78631404Y-80783392D01*
X78769652Y-80966173D01*
X78944000Y-81164839D01*
X79139077Y-81363247D01*
X79339516Y-81545253D01*
X79419556Y-81611289D01*
X79646883Y-81792747D01*
X79660975Y-81681245D01*
X79843786Y-81681245D01*
X79847133Y-81800027D01*
X79861162Y-81884066D01*
X79862912Y-81888964D01*
X79903148Y-81931784D01*
X79989849Y-81987888D01*
X80111705Y-82052202D01*
X80257407Y-82119655D01*
X80415646Y-82185171D01*
X80575113Y-82243679D01*
X80724498Y-82290104D01*
X80798673Y-82308741D01*
X80951238Y-82324944D01*
X81136649Y-82316823D01*
X81332851Y-82285754D01*
X81392452Y-82271669D01*
X81527018Y-82231015D01*
X81680467Y-82175188D01*
X81835934Y-82111335D01*
X81976551Y-82046600D01*
X82085453Y-81988132D01*
X82126413Y-81960701D01*
X82182272Y-81882684D01*
X82211837Y-81765316D01*
X82215729Y-81623562D01*
X82194566Y-81472389D01*
X82148969Y-81326763D01*
X82095948Y-81225281D01*
X81938798Y-81037086D01*
X81744996Y-80889419D01*
X81523524Y-80782907D01*
X81283367Y-80718179D01*
X81033510Y-80695862D01*
X80782935Y-80716582D01*
X80540629Y-80780968D01*
X80315573Y-80889647D01*
X80116754Y-81043247D01*
X80076390Y-81084237D01*
X79994735Y-81179967D01*
X79925647Y-81275824D01*
X79887551Y-81343925D01*
X79865023Y-81430446D01*
X79850092Y-81550469D01*
X79843786Y-81681245D01*
X79660975Y-81681245D01*
X79668951Y-81618145D01*
X79696241Y-81483999D01*
X79740391Y-81342161D01*
X79764743Y-81282505D01*
X79898036Y-81060933D01*
X80079150Y-80874998D01*
X80309148Y-80723789D01*
X80528303Y-80627487D01*
X80706367Y-80582753D01*
X80918057Y-80560559D01*
X81140724Y-80560905D01*
X81351718Y-80583791D01*
X81523697Y-80627487D01*
X81783392Y-80747500D01*
X82002093Y-80901206D01*
X82175617Y-81083860D01*
X82299786Y-81290719D01*
X82370417Y-81517038D01*
X82381827Y-81601195D01*
X82393719Y-81697252D01*
X82407988Y-81763384D01*
X82419501Y-81783756D01*
X82449599Y-81765400D01*
X82516226Y-81715351D01*
X82609690Y-81641144D01*
X82720298Y-81550310D01*
X82726121Y-81545453D01*
X83045453Y-81248667D01*
X83317427Y-80932382D01*
X83538740Y-80601546D01*
X83706087Y-80261108D01*
X83816165Y-79916016D01*
X83817271Y-79911230D01*
X83835315Y-79787041D01*
X83845035Y-79619517D01*
X83846692Y-79425335D01*
X83840552Y-79221169D01*
X83826878Y-79023695D01*
X83805935Y-78849588D01*
X83799895Y-78813350D01*
X83772203Y-78650794D01*
X83759919Y-78540653D01*
X83767095Y-78475795D01*
X83797785Y-78449087D01*
X83856042Y-78453398D01*
X83945919Y-78481593D01*
X83981251Y-78494219D01*
X84090748Y-78522106D01*
X84214751Y-78537971D01*
X84248060Y-78539228D01*
X84351933Y-78533672D01*
X84471698Y-78517568D01*
X84592576Y-78494256D01*
X84699787Y-78467076D01*
X84778552Y-78439369D01*
X84814093Y-78414474D01*
X84814783Y-78411141D01*
X84791900Y-78368817D01*
X84730165Y-78300400D01*
X84639953Y-78215178D01*
X84531637Y-78122439D01*
X84415591Y-78031471D01*
X84302189Y-77951561D01*
X84299509Y-77949806D01*
X84020580Y-77798773D01*
X83724805Y-77701907D01*
X83511442Y-77664982D01*
X83381667Y-77652701D01*
X83295407Y-77653849D01*
X83236885Y-77669232D01*
X83216983Y-77680005D01*
X83142807Y-77712895D01*
X83091780Y-77722181D01*
X83064186Y-77727915D01*
X83045947Y-77752595D01*
X83034258Y-77807441D01*
X83026316Y-77903672D01*
X83021389Y-78003860D01*
X83005431Y-78191557D01*
X82972918Y-78331104D01*
X82918600Y-78433906D01*
X82837230Y-78511371D01*
X82768840Y-78552757D01*
X82622854Y-78603367D01*
X82440145Y-78627033D01*
X82232417Y-78626150D01*
X82011373Y-78603111D01*
X81788716Y-78560310D01*
X81576149Y-78500140D01*
X81385375Y-78424994D01*
X81228097Y-78337268D01*
X81116018Y-78239354D01*
X81094198Y-78210240D01*
X81036170Y-78070586D01*
X81027158Y-77912340D01*
X81064732Y-77748970D01*
X81146459Y-77593944D01*
X81221635Y-77504502D01*
X81289516Y-77454924D01*
X81394144Y-77398588D01*
X81514371Y-77346717D01*
X81529787Y-77340980D01*
X81706577Y-77269302D01*
X81825837Y-77201170D01*
X81889986Y-77131146D01*
X81901445Y-77053792D01*
X81862634Y-76963671D01*
X81775974Y-76855343D01*
X81755597Y-76833613D01*
X81606197Y-76676998D01*
X81149173Y-76665851D01*
X80694704Y-76674626D01*
X80282156Y-76724581D01*
X79908435Y-76816296D01*
X79570443Y-76950353D01*
X79532271Y-76969245D01*
X79461929Y-77007836D01*
X79437556Y-77036987D01*
X79450222Y-77072968D01*
X79464073Y-77093510D01*
X79504554Y-77199769D01*
X79503913Y-77328449D01*
X79465928Y-77461240D01*
X79394375Y-77579831D01*
X79355264Y-77620962D01*
X79236811Y-77692863D01*
X79090363Y-77730242D01*
X78941445Y-77727050D01*
X78923309Y-77723357D01*
X78841268Y-77699686D01*
X78785452Y-77674671D01*
X78778814Y-77669458D01*
X78731862Y-77656734D01*
X78641102Y-77657453D01*
X78521345Y-77669621D01*
X78387404Y-77691245D01*
X78254094Y-77720330D01*
X78136227Y-77754884D01*
X78131370Y-77756590D01*
X78010027Y-77807993D01*
X77871075Y-77879183D01*
X77752492Y-77949806D01*
X77639286Y-78029325D01*
X77523180Y-78120132D01*
X77414549Y-78212939D01*
X77323764Y-78298458D01*
X77261201Y-78367402D01*
X77237232Y-78410483D01*
X77237217Y-78411141D01*
X77045303Y-78411141D01*
X77046021Y-78409767D01*
X77103379Y-78338252D01*
X77188766Y-78244923D01*
X77293829Y-78139329D01*
X77312509Y-78121358D01*
X77457346Y-77987678D01*
X77580623Y-77886936D01*
X77700297Y-77806102D01*
X77834326Y-77732145D01*
X77880826Y-77708955D01*
X78049371Y-77635226D01*
X78217564Y-77577251D01*
X78372306Y-77538300D01*
X78500500Y-77521644D01*
X78589047Y-77530556D01*
X78591505Y-77531462D01*
X78625807Y-77534553D01*
X78626687Y-77522417D01*
X78607877Y-77483508D01*
X78569974Y-77405580D01*
X78520495Y-77304082D01*
X78510313Y-77283216D01*
X78424000Y-77061800D01*
X78394580Y-76899707D01*
X78389874Y-76799959D01*
X78398139Y-76740744D01*
X78425477Y-76702366D01*
X78464557Y-76673838D01*
X78519873Y-76644002D01*
X78577024Y-76634494D01*
X78658446Y-76643674D01*
X78718046Y-76655336D01*
X78833396Y-76687641D01*
X78971980Y-76738356D01*
X79103980Y-76796557D01*
X79105123Y-76797119D01*
X79321119Y-76903406D01*
X79516501Y-76814815D01*
X79916452Y-76665111D01*
X80341386Y-76564365D01*
X80781346Y-76512589D01*
X81226377Y-76509799D01*
X81666521Y-76556009D01*
G37*
%TO.C,U1*%
X129600000Y-62882000D02*
X93920000Y-62882000D01*
X93920000Y-62882000D02*
X93920000Y-75802000D01*
X129600000Y-68342000D02*
X129600000Y-62882000D01*
X129600000Y-75802000D02*
X129600000Y-70342000D01*
X93920000Y-75802000D02*
X129600000Y-75802000D01*
X129600000Y-68342000D02*
G75*
G03*
X129600000Y-70342000I0J-1000000D01*
G01*
%TD*%
M02*
