M48
; DRILL file {KiCad (5.99.0-7356-g63088e8bdb)} date Tue Dec 15 21:10:02 2020
; FORMAT={-:-/ absolute / metric / decimal}
; #@! TF.CreationDate,2020-12-15T21:10:02+08:00
; #@! TF.GenerationSoftware,Kicad,Pcbnew,(5.99.0-7356-g63088e8bdb)
; #@! TF.FileFunction,Plated,1,2,PTH
FMAT,2
METRIC
T1C0.400
T2C0.800
T3C1.000
%
G90
G05
T1
X114.808Y-72.273
X115.179Y-54.493
X116.078Y-72.273
X116.449Y-54.493
X117.348Y-72.273
X117.719Y-54.493
T2
X157.734Y-101.386
X157.734Y-103.886
X164.186Y-44.237
X164.186Y-46.737
T3
X135.89Y-103.886
X135.89Y-106.426
X135.89Y-108.966
X135.89Y-111.506
X135.89Y-114.046
X135.89Y-116.586
X135.89Y-119.126
X135.89Y-121.666
X135.89Y-124.206
X135.89Y-126.746
X135.89Y-129.286
X135.89Y-131.826
X135.89Y-134.366
X135.89Y-136.906
X142.596Y-46.737
X142.596Y-49.277
X142.596Y-51.817
X142.596Y-54.357
X142.596Y-56.897
X142.596Y-59.437
X142.596Y-61.977
X142.596Y-64.517
X142.596Y-67.057
X142.596Y-69.597
X142.596Y-72.137
X142.596Y-74.677
X142.596Y-77.217
X142.596Y-79.757
X151.13Y-103.886
X151.13Y-106.426
X151.13Y-108.966
X151.13Y-111.506
X151.13Y-114.046
X151.13Y-116.586
X151.13Y-119.126
X151.13Y-121.666
X151.13Y-124.206
X151.13Y-126.746
X151.13Y-129.286
X151.13Y-131.826
X151.13Y-134.366
X151.13Y-136.906
X157.836Y-46.737
X157.836Y-49.277
X157.836Y-51.817
X157.836Y-54.357
X157.836Y-56.897
X157.836Y-59.437
X157.836Y-61.977
X157.836Y-64.517
X157.836Y-67.057
X157.836Y-69.597
X157.836Y-72.137
X157.836Y-74.677
X157.836Y-77.217
X157.836Y-79.757
T0
M30
