%TF.GenerationSoftware,KiCad,Pcbnew,7.0.3*%
%TF.CreationDate,2023-05-19T23:31:03+08:00*%
%TF.ProjectId,Cartdrige,43617274-6472-4696-9765-2e6b69636164,rev?*%
%TF.SameCoordinates,Original*%
%TF.FileFunction,Drillmap*%
%TF.FilePolarity,Positive*%
%FSLAX45Y45*%
G04 Gerber Fmt 4.5, Leading zero omitted, Abs format (unit mm)*
G04 Created by KiCad (PCBNEW 7.0.3) date 2023-05-19 23:31:03*
%MOMM*%
%LPD*%
G01*
G04 APERTURE LIST*
%ADD10C,0.100000*%
%ADD11C,0.200000*%
%ADD12C,0.040000*%
%ADD13C,0.080000*%
G04 APERTURE END LIST*
D10*
X15163800Y-8661400D02*
X15165605Y-5488205D01*
X7418605Y-5234205D02*
G75*
G03*
X7164605Y-5488205I0J-254000D01*
G01*
X14911605Y-5234205D02*
X7418605Y-5234205D01*
X15165605Y-5488205D02*
G75*
G03*
X14911605Y-5234205I-253985J15D01*
G01*
X7164605Y-5488205D02*
X7162800Y-8661400D01*
D11*
D12*
X7473000Y-8590600D02*
X7513000Y-8630600D01*
X7513000Y-8590600D02*
X7473000Y-8630600D01*
X9378000Y-7854000D02*
X9418000Y-7894000D01*
X9418000Y-7854000D02*
X9378000Y-7894000D01*
X9632000Y-7930200D02*
X9672000Y-7970200D01*
X9672000Y-7930200D02*
X9632000Y-7970200D01*
X9886000Y-8006400D02*
X9926000Y-8046400D01*
X9926000Y-8006400D02*
X9886000Y-8046400D01*
X10140000Y-8082600D02*
X10180000Y-8122600D01*
X10180000Y-8082600D02*
X10140000Y-8122600D01*
X10394000Y-8158800D02*
X10434000Y-8198800D01*
X10434000Y-8158800D02*
X10394000Y-8198800D01*
X10648000Y-8235000D02*
X10688000Y-8275000D01*
X10688000Y-8235000D02*
X10648000Y-8275000D01*
X10902000Y-8311200D02*
X10942000Y-8351200D01*
X10942000Y-8311200D02*
X10902000Y-8351200D01*
X11156000Y-8438200D02*
X11196000Y-8478200D01*
X11196000Y-8438200D02*
X11156000Y-8478200D01*
X11410000Y-6330000D02*
X11450000Y-6370000D01*
X11450000Y-6330000D02*
X11410000Y-6370000D01*
X11664000Y-6406200D02*
X11704000Y-6446200D01*
X11704000Y-6406200D02*
X11664000Y-6446200D01*
X11918000Y-6482400D02*
X11958000Y-6522400D01*
X11958000Y-6482400D02*
X11918000Y-6522400D01*
X12172000Y-6711000D02*
X12212000Y-6751000D01*
X12212000Y-6711000D02*
X12172000Y-6751000D01*
X12426000Y-6787200D02*
X12466000Y-6827200D01*
X12466000Y-6787200D02*
X12426000Y-6827200D01*
X12680000Y-6863400D02*
X12720000Y-6903400D01*
X12720000Y-6863400D02*
X12680000Y-6903400D01*
X12934000Y-6939600D02*
X12974000Y-6979600D01*
X12974000Y-6939600D02*
X12934000Y-6979600D01*
X13188000Y-7015800D02*
X13228000Y-7055800D01*
X13228000Y-7015800D02*
X13188000Y-7055800D01*
X13391200Y-7244400D02*
X13431200Y-7284400D01*
X13431200Y-7244400D02*
X13391200Y-7284400D01*
X13391200Y-8285800D02*
X13431200Y-8325800D01*
X13431200Y-8285800D02*
X13391200Y-8325800D01*
X13823000Y-6139500D02*
X13863000Y-6179500D01*
X13863000Y-6139500D02*
X13823000Y-6179500D01*
X13950000Y-7168200D02*
X13990000Y-7208200D01*
X13990000Y-7168200D02*
X13950000Y-7208200D01*
X13950000Y-8616000D02*
X13990000Y-8656000D01*
X13990000Y-8616000D02*
X13950000Y-8656000D01*
X14077000Y-7828600D02*
X14117000Y-7868600D01*
X14117000Y-7828600D02*
X14077000Y-7868600D01*
X14331000Y-6368100D02*
X14371000Y-6408100D01*
X14371000Y-6368100D02*
X14331000Y-6408100D01*
X14585000Y-7092000D02*
X14625000Y-7132000D01*
X14625000Y-7092000D02*
X14585000Y-7132000D01*
D13*
X9565000Y-6172200D02*
G75*
G03*
X9565000Y-6172200I-40000J0D01*
G01*
X9565000Y-7696200D02*
G75*
G03*
X9565000Y-7696200I-40000J0D01*
G01*
X9819000Y-6172200D02*
G75*
G03*
X9819000Y-6172200I-40000J0D01*
G01*
X9819000Y-7696200D02*
G75*
G03*
X9819000Y-7696200I-40000J0D01*
G01*
X10073000Y-6172200D02*
G75*
G03*
X10073000Y-6172200I-40000J0D01*
G01*
X10073000Y-7696200D02*
G75*
G03*
X10073000Y-7696200I-40000J0D01*
G01*
X10327000Y-6172200D02*
G75*
G03*
X10327000Y-6172200I-40000J0D01*
G01*
X10327000Y-7696200D02*
G75*
G03*
X10327000Y-7696200I-40000J0D01*
G01*
X10581000Y-6172200D02*
G75*
G03*
X10581000Y-6172200I-40000J0D01*
G01*
X10581000Y-7696200D02*
G75*
G03*
X10581000Y-7696200I-40000J0D01*
G01*
X10835000Y-6172200D02*
G75*
G03*
X10835000Y-6172200I-40000J0D01*
G01*
X10835000Y-7696200D02*
G75*
G03*
X10835000Y-7696200I-40000J0D01*
G01*
X11089000Y-6172200D02*
G75*
G03*
X11089000Y-6172200I-40000J0D01*
G01*
X11089000Y-7696200D02*
G75*
G03*
X11089000Y-7696200I-40000J0D01*
G01*
X11343000Y-6172200D02*
G75*
G03*
X11343000Y-6172200I-40000J0D01*
G01*
X11343000Y-7696200D02*
G75*
G03*
X11343000Y-7696200I-40000J0D01*
G01*
X11597000Y-6172200D02*
G75*
G03*
X11597000Y-6172200I-40000J0D01*
G01*
X11597000Y-7696200D02*
G75*
G03*
X11597000Y-7696200I-40000J0D01*
G01*
X11851000Y-6172200D02*
G75*
G03*
X11851000Y-6172200I-40000J0D01*
G01*
X11851000Y-7696200D02*
G75*
G03*
X11851000Y-7696200I-40000J0D01*
G01*
X12105000Y-6172200D02*
G75*
G03*
X12105000Y-6172200I-40000J0D01*
G01*
X12105000Y-7696200D02*
G75*
G03*
X12105000Y-7696200I-40000J0D01*
G01*
X12359000Y-6172200D02*
G75*
G03*
X12359000Y-6172200I-40000J0D01*
G01*
X12359000Y-7696200D02*
G75*
G03*
X12359000Y-7696200I-40000J0D01*
G01*
X12613000Y-6172200D02*
G75*
G03*
X12613000Y-6172200I-40000J0D01*
G01*
X12613000Y-7696200D02*
G75*
G03*
X12613000Y-7696200I-40000J0D01*
G01*
X12867000Y-6172200D02*
G75*
G03*
X12867000Y-6172200I-40000J0D01*
G01*
X12867000Y-7696200D02*
G75*
G03*
X12867000Y-7696200I-40000J0D01*
G01*
X13654400Y-7444200D02*
G75*
G03*
X13654400Y-7444200I-40000J0D01*
G01*
X13654400Y-7694200D02*
G75*
G03*
X13654400Y-7694200I-40000J0D01*
G01*
D11*
X7417577Y-9893284D02*
X7417577Y-9693284D01*
X7417577Y-9693284D02*
X7465196Y-9693284D01*
X7465196Y-9693284D02*
X7493767Y-9702808D01*
X7493767Y-9702808D02*
X7512815Y-9721855D01*
X7512815Y-9721855D02*
X7522339Y-9740903D01*
X7522339Y-9740903D02*
X7531862Y-9778998D01*
X7531862Y-9778998D02*
X7531862Y-9807570D01*
X7531862Y-9807570D02*
X7522339Y-9845665D01*
X7522339Y-9845665D02*
X7512815Y-9864712D01*
X7512815Y-9864712D02*
X7493767Y-9883760D01*
X7493767Y-9883760D02*
X7465196Y-9893284D01*
X7465196Y-9893284D02*
X7417577Y-9893284D01*
X7617577Y-9893284D02*
X7617577Y-9759950D01*
X7617577Y-9798046D02*
X7627101Y-9778998D01*
X7627101Y-9778998D02*
X7636624Y-9769474D01*
X7636624Y-9769474D02*
X7655672Y-9759950D01*
X7655672Y-9759950D02*
X7674720Y-9759950D01*
X7741386Y-9893284D02*
X7741386Y-9759950D01*
X7741386Y-9693284D02*
X7731862Y-9702808D01*
X7731862Y-9702808D02*
X7741386Y-9712331D01*
X7741386Y-9712331D02*
X7750910Y-9702808D01*
X7750910Y-9702808D02*
X7741386Y-9693284D01*
X7741386Y-9693284D02*
X7741386Y-9712331D01*
X7865196Y-9893284D02*
X7846148Y-9883760D01*
X7846148Y-9883760D02*
X7836624Y-9864712D01*
X7836624Y-9864712D02*
X7836624Y-9693284D01*
X7969958Y-9893284D02*
X7950910Y-9883760D01*
X7950910Y-9883760D02*
X7941386Y-9864712D01*
X7941386Y-9864712D02*
X7941386Y-9693284D01*
X8198529Y-9893284D02*
X8198529Y-9693284D01*
X8198529Y-9693284D02*
X8265196Y-9836141D01*
X8265196Y-9836141D02*
X8331862Y-9693284D01*
X8331862Y-9693284D02*
X8331862Y-9893284D01*
X8512815Y-9893284D02*
X8512815Y-9788522D01*
X8512815Y-9788522D02*
X8503291Y-9769474D01*
X8503291Y-9769474D02*
X8484244Y-9759950D01*
X8484244Y-9759950D02*
X8446148Y-9759950D01*
X8446148Y-9759950D02*
X8427101Y-9769474D01*
X8512815Y-9883760D02*
X8493767Y-9893284D01*
X8493767Y-9893284D02*
X8446148Y-9893284D01*
X8446148Y-9893284D02*
X8427101Y-9883760D01*
X8427101Y-9883760D02*
X8417577Y-9864712D01*
X8417577Y-9864712D02*
X8417577Y-9845665D01*
X8417577Y-9845665D02*
X8427101Y-9826617D01*
X8427101Y-9826617D02*
X8446148Y-9817093D01*
X8446148Y-9817093D02*
X8493767Y-9817093D01*
X8493767Y-9817093D02*
X8512815Y-9807570D01*
X8608053Y-9759950D02*
X8608053Y-9959950D01*
X8608053Y-9769474D02*
X8627101Y-9759950D01*
X8627101Y-9759950D02*
X8665196Y-9759950D01*
X8665196Y-9759950D02*
X8684244Y-9769474D01*
X8684244Y-9769474D02*
X8693767Y-9778998D01*
X8693767Y-9778998D02*
X8703291Y-9798046D01*
X8703291Y-9798046D02*
X8703291Y-9855189D01*
X8703291Y-9855189D02*
X8693767Y-9874236D01*
X8693767Y-9874236D02*
X8684244Y-9883760D01*
X8684244Y-9883760D02*
X8665196Y-9893284D01*
X8665196Y-9893284D02*
X8627101Y-9893284D01*
X8627101Y-9893284D02*
X8608053Y-9883760D01*
X8789005Y-9874236D02*
X8798529Y-9883760D01*
X8798529Y-9883760D02*
X8789005Y-9893284D01*
X8789005Y-9893284D02*
X8779482Y-9883760D01*
X8779482Y-9883760D02*
X8789005Y-9874236D01*
X8789005Y-9874236D02*
X8789005Y-9893284D01*
X8789005Y-9769474D02*
X8798529Y-9778998D01*
X8798529Y-9778998D02*
X8789005Y-9788522D01*
X8789005Y-9788522D02*
X8779482Y-9778998D01*
X8779482Y-9778998D02*
X8789005Y-9769474D01*
X8789005Y-9769474D02*
X8789005Y-9788522D01*
D12*
X7116800Y-10201800D02*
X7156800Y-10241800D01*
X7156800Y-10201800D02*
X7116800Y-10241800D01*
D11*
X7455672Y-10113284D02*
X7474720Y-10113284D01*
X7474720Y-10113284D02*
X7493767Y-10122808D01*
X7493767Y-10122808D02*
X7503291Y-10132331D01*
X7503291Y-10132331D02*
X7512815Y-10151379D01*
X7512815Y-10151379D02*
X7522339Y-10189474D01*
X7522339Y-10189474D02*
X7522339Y-10237093D01*
X7522339Y-10237093D02*
X7512815Y-10275189D01*
X7512815Y-10275189D02*
X7503291Y-10294236D01*
X7503291Y-10294236D02*
X7493767Y-10303760D01*
X7493767Y-10303760D02*
X7474720Y-10313284D01*
X7474720Y-10313284D02*
X7455672Y-10313284D01*
X7455672Y-10313284D02*
X7436624Y-10303760D01*
X7436624Y-10303760D02*
X7427101Y-10294236D01*
X7427101Y-10294236D02*
X7417577Y-10275189D01*
X7417577Y-10275189D02*
X7408053Y-10237093D01*
X7408053Y-10237093D02*
X7408053Y-10189474D01*
X7408053Y-10189474D02*
X7417577Y-10151379D01*
X7417577Y-10151379D02*
X7427101Y-10132331D01*
X7427101Y-10132331D02*
X7436624Y-10122808D01*
X7436624Y-10122808D02*
X7455672Y-10113284D01*
X7608053Y-10294236D02*
X7617577Y-10303760D01*
X7617577Y-10303760D02*
X7608053Y-10313284D01*
X7608053Y-10313284D02*
X7598529Y-10303760D01*
X7598529Y-10303760D02*
X7608053Y-10294236D01*
X7608053Y-10294236D02*
X7608053Y-10313284D01*
X7789005Y-10179950D02*
X7789005Y-10313284D01*
X7741386Y-10103760D02*
X7693767Y-10246617D01*
X7693767Y-10246617D02*
X7817577Y-10246617D01*
X7931862Y-10113284D02*
X7950910Y-10113284D01*
X7950910Y-10113284D02*
X7969958Y-10122808D01*
X7969958Y-10122808D02*
X7979482Y-10132331D01*
X7979482Y-10132331D02*
X7989005Y-10151379D01*
X7989005Y-10151379D02*
X7998529Y-10189474D01*
X7998529Y-10189474D02*
X7998529Y-10237093D01*
X7998529Y-10237093D02*
X7989005Y-10275189D01*
X7989005Y-10275189D02*
X7979482Y-10294236D01*
X7979482Y-10294236D02*
X7969958Y-10303760D01*
X7969958Y-10303760D02*
X7950910Y-10313284D01*
X7950910Y-10313284D02*
X7931862Y-10313284D01*
X7931862Y-10313284D02*
X7912815Y-10303760D01*
X7912815Y-10303760D02*
X7903291Y-10294236D01*
X7903291Y-10294236D02*
X7893767Y-10275189D01*
X7893767Y-10275189D02*
X7884243Y-10237093D01*
X7884243Y-10237093D02*
X7884243Y-10189474D01*
X7884243Y-10189474D02*
X7893767Y-10151379D01*
X7893767Y-10151379D02*
X7903291Y-10132331D01*
X7903291Y-10132331D02*
X7912815Y-10122808D01*
X7912815Y-10122808D02*
X7931862Y-10113284D01*
X8122339Y-10113284D02*
X8141386Y-10113284D01*
X8141386Y-10113284D02*
X8160434Y-10122808D01*
X8160434Y-10122808D02*
X8169958Y-10132331D01*
X8169958Y-10132331D02*
X8179482Y-10151379D01*
X8179482Y-10151379D02*
X8189005Y-10189474D01*
X8189005Y-10189474D02*
X8189005Y-10237093D01*
X8189005Y-10237093D02*
X8179482Y-10275189D01*
X8179482Y-10275189D02*
X8169958Y-10294236D01*
X8169958Y-10294236D02*
X8160434Y-10303760D01*
X8160434Y-10303760D02*
X8141386Y-10313284D01*
X8141386Y-10313284D02*
X8122339Y-10313284D01*
X8122339Y-10313284D02*
X8103291Y-10303760D01*
X8103291Y-10303760D02*
X8093767Y-10294236D01*
X8093767Y-10294236D02*
X8084243Y-10275189D01*
X8084243Y-10275189D02*
X8074720Y-10237093D01*
X8074720Y-10237093D02*
X8074720Y-10189474D01*
X8074720Y-10189474D02*
X8084243Y-10151379D01*
X8084243Y-10151379D02*
X8093767Y-10132331D01*
X8093767Y-10132331D02*
X8103291Y-10122808D01*
X8103291Y-10122808D02*
X8122339Y-10113284D01*
X8274720Y-10313284D02*
X8274720Y-10179950D01*
X8274720Y-10198998D02*
X8284243Y-10189474D01*
X8284243Y-10189474D02*
X8303291Y-10179950D01*
X8303291Y-10179950D02*
X8331863Y-10179950D01*
X8331863Y-10179950D02*
X8350910Y-10189474D01*
X8350910Y-10189474D02*
X8360434Y-10208522D01*
X8360434Y-10208522D02*
X8360434Y-10313284D01*
X8360434Y-10208522D02*
X8369958Y-10189474D01*
X8369958Y-10189474D02*
X8389005Y-10179950D01*
X8389005Y-10179950D02*
X8417577Y-10179950D01*
X8417577Y-10179950D02*
X8436625Y-10189474D01*
X8436625Y-10189474D02*
X8446148Y-10208522D01*
X8446148Y-10208522D02*
X8446148Y-10313284D01*
X8541386Y-10313284D02*
X8541386Y-10179950D01*
X8541386Y-10198998D02*
X8550910Y-10189474D01*
X8550910Y-10189474D02*
X8569958Y-10179950D01*
X8569958Y-10179950D02*
X8598529Y-10179950D01*
X8598529Y-10179950D02*
X8617577Y-10189474D01*
X8617577Y-10189474D02*
X8627101Y-10208522D01*
X8627101Y-10208522D02*
X8627101Y-10313284D01*
X8627101Y-10208522D02*
X8636625Y-10189474D01*
X8636625Y-10189474D02*
X8655672Y-10179950D01*
X8655672Y-10179950D02*
X8684244Y-10179950D01*
X8684244Y-10179950D02*
X8703291Y-10189474D01*
X8703291Y-10189474D02*
X8712815Y-10208522D01*
X8712815Y-10208522D02*
X8712815Y-10313284D01*
X9103291Y-10103760D02*
X8931863Y-10360903D01*
X9360434Y-10113284D02*
X9379482Y-10113284D01*
X9379482Y-10113284D02*
X9398529Y-10122808D01*
X9398529Y-10122808D02*
X9408053Y-10132331D01*
X9408053Y-10132331D02*
X9417577Y-10151379D01*
X9417577Y-10151379D02*
X9427101Y-10189474D01*
X9427101Y-10189474D02*
X9427101Y-10237093D01*
X9427101Y-10237093D02*
X9417577Y-10275189D01*
X9417577Y-10275189D02*
X9408053Y-10294236D01*
X9408053Y-10294236D02*
X9398529Y-10303760D01*
X9398529Y-10303760D02*
X9379482Y-10313284D01*
X9379482Y-10313284D02*
X9360434Y-10313284D01*
X9360434Y-10313284D02*
X9341387Y-10303760D01*
X9341387Y-10303760D02*
X9331863Y-10294236D01*
X9331863Y-10294236D02*
X9322339Y-10275189D01*
X9322339Y-10275189D02*
X9312815Y-10237093D01*
X9312815Y-10237093D02*
X9312815Y-10189474D01*
X9312815Y-10189474D02*
X9322339Y-10151379D01*
X9322339Y-10151379D02*
X9331863Y-10132331D01*
X9331863Y-10132331D02*
X9341387Y-10122808D01*
X9341387Y-10122808D02*
X9360434Y-10113284D01*
X9512815Y-10294236D02*
X9522339Y-10303760D01*
X9522339Y-10303760D02*
X9512815Y-10313284D01*
X9512815Y-10313284D02*
X9503291Y-10303760D01*
X9503291Y-10303760D02*
X9512815Y-10294236D01*
X9512815Y-10294236D02*
X9512815Y-10313284D01*
X9646148Y-10113284D02*
X9665196Y-10113284D01*
X9665196Y-10113284D02*
X9684244Y-10122808D01*
X9684244Y-10122808D02*
X9693768Y-10132331D01*
X9693768Y-10132331D02*
X9703291Y-10151379D01*
X9703291Y-10151379D02*
X9712815Y-10189474D01*
X9712815Y-10189474D02*
X9712815Y-10237093D01*
X9712815Y-10237093D02*
X9703291Y-10275189D01*
X9703291Y-10275189D02*
X9693768Y-10294236D01*
X9693768Y-10294236D02*
X9684244Y-10303760D01*
X9684244Y-10303760D02*
X9665196Y-10313284D01*
X9665196Y-10313284D02*
X9646148Y-10313284D01*
X9646148Y-10313284D02*
X9627101Y-10303760D01*
X9627101Y-10303760D02*
X9617577Y-10294236D01*
X9617577Y-10294236D02*
X9608053Y-10275189D01*
X9608053Y-10275189D02*
X9598529Y-10237093D01*
X9598529Y-10237093D02*
X9598529Y-10189474D01*
X9598529Y-10189474D02*
X9608053Y-10151379D01*
X9608053Y-10151379D02*
X9617577Y-10132331D01*
X9617577Y-10132331D02*
X9627101Y-10122808D01*
X9627101Y-10122808D02*
X9646148Y-10113284D01*
X9903291Y-10313284D02*
X9789006Y-10313284D01*
X9846148Y-10313284D02*
X9846148Y-10113284D01*
X9846148Y-10113284D02*
X9827101Y-10141855D01*
X9827101Y-10141855D02*
X9808053Y-10160903D01*
X9808053Y-10160903D02*
X9789006Y-10170427D01*
X10084244Y-10113284D02*
X9989006Y-10113284D01*
X9989006Y-10113284D02*
X9979482Y-10208522D01*
X9979482Y-10208522D02*
X9989006Y-10198998D01*
X9989006Y-10198998D02*
X10008053Y-10189474D01*
X10008053Y-10189474D02*
X10055672Y-10189474D01*
X10055672Y-10189474D02*
X10074720Y-10198998D01*
X10074720Y-10198998D02*
X10084244Y-10208522D01*
X10084244Y-10208522D02*
X10093768Y-10227570D01*
X10093768Y-10227570D02*
X10093768Y-10275189D01*
X10093768Y-10275189D02*
X10084244Y-10294236D01*
X10084244Y-10294236D02*
X10074720Y-10303760D01*
X10074720Y-10303760D02*
X10055672Y-10313284D01*
X10055672Y-10313284D02*
X10008053Y-10313284D01*
X10008053Y-10313284D02*
X9989006Y-10303760D01*
X9989006Y-10303760D02*
X9979482Y-10294236D01*
X10160434Y-10113284D02*
X10293768Y-10113284D01*
X10293768Y-10113284D02*
X10208053Y-10313284D01*
X10360434Y-10113284D02*
X10360434Y-10151379D01*
X10436625Y-10113284D02*
X10436625Y-10151379D01*
X10731863Y-10389474D02*
X10722339Y-10379950D01*
X10722339Y-10379950D02*
X10703291Y-10351379D01*
X10703291Y-10351379D02*
X10693768Y-10332331D01*
X10693768Y-10332331D02*
X10684244Y-10303760D01*
X10684244Y-10303760D02*
X10674720Y-10256141D01*
X10674720Y-10256141D02*
X10674720Y-10218046D01*
X10674720Y-10218046D02*
X10684244Y-10170427D01*
X10684244Y-10170427D02*
X10693768Y-10141855D01*
X10693768Y-10141855D02*
X10703291Y-10122808D01*
X10703291Y-10122808D02*
X10722339Y-10094236D01*
X10722339Y-10094236D02*
X10731863Y-10084712D01*
X10798530Y-10132331D02*
X10808053Y-10122808D01*
X10808053Y-10122808D02*
X10827101Y-10113284D01*
X10827101Y-10113284D02*
X10874720Y-10113284D01*
X10874720Y-10113284D02*
X10893768Y-10122808D01*
X10893768Y-10122808D02*
X10903291Y-10132331D01*
X10903291Y-10132331D02*
X10912815Y-10151379D01*
X10912815Y-10151379D02*
X10912815Y-10170427D01*
X10912815Y-10170427D02*
X10903291Y-10198998D01*
X10903291Y-10198998D02*
X10789006Y-10313284D01*
X10789006Y-10313284D02*
X10912815Y-10313284D01*
X11093768Y-10113284D02*
X10998530Y-10113284D01*
X10998530Y-10113284D02*
X10989006Y-10208522D01*
X10989006Y-10208522D02*
X10998530Y-10198998D01*
X10998530Y-10198998D02*
X11017577Y-10189474D01*
X11017577Y-10189474D02*
X11065196Y-10189474D01*
X11065196Y-10189474D02*
X11084244Y-10198998D01*
X11084244Y-10198998D02*
X11093768Y-10208522D01*
X11093768Y-10208522D02*
X11103291Y-10227570D01*
X11103291Y-10227570D02*
X11103291Y-10275189D01*
X11103291Y-10275189D02*
X11093768Y-10294236D01*
X11093768Y-10294236D02*
X11084244Y-10303760D01*
X11084244Y-10303760D02*
X11065196Y-10313284D01*
X11065196Y-10313284D02*
X11017577Y-10313284D01*
X11017577Y-10313284D02*
X10998530Y-10303760D01*
X10998530Y-10303760D02*
X10989006Y-10294236D01*
X11341387Y-10313284D02*
X11341387Y-10113284D01*
X11427101Y-10313284D02*
X11427101Y-10208522D01*
X11427101Y-10208522D02*
X11417577Y-10189474D01*
X11417577Y-10189474D02*
X11398530Y-10179950D01*
X11398530Y-10179950D02*
X11369958Y-10179950D01*
X11369958Y-10179950D02*
X11350910Y-10189474D01*
X11350910Y-10189474D02*
X11341387Y-10198998D01*
X11550910Y-10313284D02*
X11531863Y-10303760D01*
X11531863Y-10303760D02*
X11522339Y-10294236D01*
X11522339Y-10294236D02*
X11512815Y-10275189D01*
X11512815Y-10275189D02*
X11512815Y-10218046D01*
X11512815Y-10218046D02*
X11522339Y-10198998D01*
X11522339Y-10198998D02*
X11531863Y-10189474D01*
X11531863Y-10189474D02*
X11550910Y-10179950D01*
X11550910Y-10179950D02*
X11579482Y-10179950D01*
X11579482Y-10179950D02*
X11598530Y-10189474D01*
X11598530Y-10189474D02*
X11608053Y-10198998D01*
X11608053Y-10198998D02*
X11617577Y-10218046D01*
X11617577Y-10218046D02*
X11617577Y-10275189D01*
X11617577Y-10275189D02*
X11608053Y-10294236D01*
X11608053Y-10294236D02*
X11598530Y-10303760D01*
X11598530Y-10303760D02*
X11579482Y-10313284D01*
X11579482Y-10313284D02*
X11550910Y-10313284D01*
X11731863Y-10313284D02*
X11712815Y-10303760D01*
X11712815Y-10303760D02*
X11703291Y-10284712D01*
X11703291Y-10284712D02*
X11703291Y-10113284D01*
X11884244Y-10303760D02*
X11865196Y-10313284D01*
X11865196Y-10313284D02*
X11827101Y-10313284D01*
X11827101Y-10313284D02*
X11808053Y-10303760D01*
X11808053Y-10303760D02*
X11798530Y-10284712D01*
X11798530Y-10284712D02*
X11798530Y-10208522D01*
X11798530Y-10208522D02*
X11808053Y-10189474D01*
X11808053Y-10189474D02*
X11827101Y-10179950D01*
X11827101Y-10179950D02*
X11865196Y-10179950D01*
X11865196Y-10179950D02*
X11884244Y-10189474D01*
X11884244Y-10189474D02*
X11893768Y-10208522D01*
X11893768Y-10208522D02*
X11893768Y-10227570D01*
X11893768Y-10227570D02*
X11798530Y-10246617D01*
X11969958Y-10303760D02*
X11989006Y-10313284D01*
X11989006Y-10313284D02*
X12027101Y-10313284D01*
X12027101Y-10313284D02*
X12046149Y-10303760D01*
X12046149Y-10303760D02*
X12055672Y-10284712D01*
X12055672Y-10284712D02*
X12055672Y-10275189D01*
X12055672Y-10275189D02*
X12046149Y-10256141D01*
X12046149Y-10256141D02*
X12027101Y-10246617D01*
X12027101Y-10246617D02*
X11998530Y-10246617D01*
X11998530Y-10246617D02*
X11979482Y-10237093D01*
X11979482Y-10237093D02*
X11969958Y-10218046D01*
X11969958Y-10218046D02*
X11969958Y-10208522D01*
X11969958Y-10208522D02*
X11979482Y-10189474D01*
X11979482Y-10189474D02*
X11998530Y-10179950D01*
X11998530Y-10179950D02*
X12027101Y-10179950D01*
X12027101Y-10179950D02*
X12046149Y-10189474D01*
X12122339Y-10389474D02*
X12131863Y-10379950D01*
X12131863Y-10379950D02*
X12150911Y-10351379D01*
X12150911Y-10351379D02*
X12160434Y-10332331D01*
X12160434Y-10332331D02*
X12169958Y-10303760D01*
X12169958Y-10303760D02*
X12179482Y-10256141D01*
X12179482Y-10256141D02*
X12179482Y-10218046D01*
X12179482Y-10218046D02*
X12169958Y-10170427D01*
X12169958Y-10170427D02*
X12160434Y-10141855D01*
X12160434Y-10141855D02*
X12150911Y-10122808D01*
X12150911Y-10122808D02*
X12131863Y-10094236D01*
X12131863Y-10094236D02*
X12122339Y-10084712D01*
D13*
X7156800Y-10485800D02*
G75*
G03*
X7156800Y-10485800I-40000J0D01*
G01*
D11*
X7455672Y-10377284D02*
X7474720Y-10377284D01*
X7474720Y-10377284D02*
X7493767Y-10386808D01*
X7493767Y-10386808D02*
X7503291Y-10396331D01*
X7503291Y-10396331D02*
X7512815Y-10415379D01*
X7512815Y-10415379D02*
X7522339Y-10453474D01*
X7522339Y-10453474D02*
X7522339Y-10501093D01*
X7522339Y-10501093D02*
X7512815Y-10539189D01*
X7512815Y-10539189D02*
X7503291Y-10558236D01*
X7503291Y-10558236D02*
X7493767Y-10567760D01*
X7493767Y-10567760D02*
X7474720Y-10577284D01*
X7474720Y-10577284D02*
X7455672Y-10577284D01*
X7455672Y-10577284D02*
X7436624Y-10567760D01*
X7436624Y-10567760D02*
X7427101Y-10558236D01*
X7427101Y-10558236D02*
X7417577Y-10539189D01*
X7417577Y-10539189D02*
X7408053Y-10501093D01*
X7408053Y-10501093D02*
X7408053Y-10453474D01*
X7408053Y-10453474D02*
X7417577Y-10415379D01*
X7417577Y-10415379D02*
X7427101Y-10396331D01*
X7427101Y-10396331D02*
X7436624Y-10386808D01*
X7436624Y-10386808D02*
X7455672Y-10377284D01*
X7608053Y-10558236D02*
X7617577Y-10567760D01*
X7617577Y-10567760D02*
X7608053Y-10577284D01*
X7608053Y-10577284D02*
X7598529Y-10567760D01*
X7598529Y-10567760D02*
X7608053Y-10558236D01*
X7608053Y-10558236D02*
X7608053Y-10577284D01*
X7731862Y-10462998D02*
X7712815Y-10453474D01*
X7712815Y-10453474D02*
X7703291Y-10443950D01*
X7703291Y-10443950D02*
X7693767Y-10424903D01*
X7693767Y-10424903D02*
X7693767Y-10415379D01*
X7693767Y-10415379D02*
X7703291Y-10396331D01*
X7703291Y-10396331D02*
X7712815Y-10386808D01*
X7712815Y-10386808D02*
X7731862Y-10377284D01*
X7731862Y-10377284D02*
X7769958Y-10377284D01*
X7769958Y-10377284D02*
X7789005Y-10386808D01*
X7789005Y-10386808D02*
X7798529Y-10396331D01*
X7798529Y-10396331D02*
X7808053Y-10415379D01*
X7808053Y-10415379D02*
X7808053Y-10424903D01*
X7808053Y-10424903D02*
X7798529Y-10443950D01*
X7798529Y-10443950D02*
X7789005Y-10453474D01*
X7789005Y-10453474D02*
X7769958Y-10462998D01*
X7769958Y-10462998D02*
X7731862Y-10462998D01*
X7731862Y-10462998D02*
X7712815Y-10472522D01*
X7712815Y-10472522D02*
X7703291Y-10482046D01*
X7703291Y-10482046D02*
X7693767Y-10501093D01*
X7693767Y-10501093D02*
X7693767Y-10539189D01*
X7693767Y-10539189D02*
X7703291Y-10558236D01*
X7703291Y-10558236D02*
X7712815Y-10567760D01*
X7712815Y-10567760D02*
X7731862Y-10577284D01*
X7731862Y-10577284D02*
X7769958Y-10577284D01*
X7769958Y-10577284D02*
X7789005Y-10567760D01*
X7789005Y-10567760D02*
X7798529Y-10558236D01*
X7798529Y-10558236D02*
X7808053Y-10539189D01*
X7808053Y-10539189D02*
X7808053Y-10501093D01*
X7808053Y-10501093D02*
X7798529Y-10482046D01*
X7798529Y-10482046D02*
X7789005Y-10472522D01*
X7789005Y-10472522D02*
X7769958Y-10462998D01*
X7931862Y-10377284D02*
X7950910Y-10377284D01*
X7950910Y-10377284D02*
X7969958Y-10386808D01*
X7969958Y-10386808D02*
X7979482Y-10396331D01*
X7979482Y-10396331D02*
X7989005Y-10415379D01*
X7989005Y-10415379D02*
X7998529Y-10453474D01*
X7998529Y-10453474D02*
X7998529Y-10501093D01*
X7998529Y-10501093D02*
X7989005Y-10539189D01*
X7989005Y-10539189D02*
X7979482Y-10558236D01*
X7979482Y-10558236D02*
X7969958Y-10567760D01*
X7969958Y-10567760D02*
X7950910Y-10577284D01*
X7950910Y-10577284D02*
X7931862Y-10577284D01*
X7931862Y-10577284D02*
X7912815Y-10567760D01*
X7912815Y-10567760D02*
X7903291Y-10558236D01*
X7903291Y-10558236D02*
X7893767Y-10539189D01*
X7893767Y-10539189D02*
X7884243Y-10501093D01*
X7884243Y-10501093D02*
X7884243Y-10453474D01*
X7884243Y-10453474D02*
X7893767Y-10415379D01*
X7893767Y-10415379D02*
X7903291Y-10396331D01*
X7903291Y-10396331D02*
X7912815Y-10386808D01*
X7912815Y-10386808D02*
X7931862Y-10377284D01*
X8122339Y-10377284D02*
X8141386Y-10377284D01*
X8141386Y-10377284D02*
X8160434Y-10386808D01*
X8160434Y-10386808D02*
X8169958Y-10396331D01*
X8169958Y-10396331D02*
X8179482Y-10415379D01*
X8179482Y-10415379D02*
X8189005Y-10453474D01*
X8189005Y-10453474D02*
X8189005Y-10501093D01*
X8189005Y-10501093D02*
X8179482Y-10539189D01*
X8179482Y-10539189D02*
X8169958Y-10558236D01*
X8169958Y-10558236D02*
X8160434Y-10567760D01*
X8160434Y-10567760D02*
X8141386Y-10577284D01*
X8141386Y-10577284D02*
X8122339Y-10577284D01*
X8122339Y-10577284D02*
X8103291Y-10567760D01*
X8103291Y-10567760D02*
X8093767Y-10558236D01*
X8093767Y-10558236D02*
X8084243Y-10539189D01*
X8084243Y-10539189D02*
X8074720Y-10501093D01*
X8074720Y-10501093D02*
X8074720Y-10453474D01*
X8074720Y-10453474D02*
X8084243Y-10415379D01*
X8084243Y-10415379D02*
X8093767Y-10396331D01*
X8093767Y-10396331D02*
X8103291Y-10386808D01*
X8103291Y-10386808D02*
X8122339Y-10377284D01*
X8274720Y-10577284D02*
X8274720Y-10443950D01*
X8274720Y-10462998D02*
X8284243Y-10453474D01*
X8284243Y-10453474D02*
X8303291Y-10443950D01*
X8303291Y-10443950D02*
X8331863Y-10443950D01*
X8331863Y-10443950D02*
X8350910Y-10453474D01*
X8350910Y-10453474D02*
X8360434Y-10472522D01*
X8360434Y-10472522D02*
X8360434Y-10577284D01*
X8360434Y-10472522D02*
X8369958Y-10453474D01*
X8369958Y-10453474D02*
X8389005Y-10443950D01*
X8389005Y-10443950D02*
X8417577Y-10443950D01*
X8417577Y-10443950D02*
X8436625Y-10453474D01*
X8436625Y-10453474D02*
X8446148Y-10472522D01*
X8446148Y-10472522D02*
X8446148Y-10577284D01*
X8541386Y-10577284D02*
X8541386Y-10443950D01*
X8541386Y-10462998D02*
X8550910Y-10453474D01*
X8550910Y-10453474D02*
X8569958Y-10443950D01*
X8569958Y-10443950D02*
X8598529Y-10443950D01*
X8598529Y-10443950D02*
X8617577Y-10453474D01*
X8617577Y-10453474D02*
X8627101Y-10472522D01*
X8627101Y-10472522D02*
X8627101Y-10577284D01*
X8627101Y-10472522D02*
X8636625Y-10453474D01*
X8636625Y-10453474D02*
X8655672Y-10443950D01*
X8655672Y-10443950D02*
X8684244Y-10443950D01*
X8684244Y-10443950D02*
X8703291Y-10453474D01*
X8703291Y-10453474D02*
X8712815Y-10472522D01*
X8712815Y-10472522D02*
X8712815Y-10577284D01*
X9103291Y-10367760D02*
X8931863Y-10624903D01*
X9360434Y-10377284D02*
X9379482Y-10377284D01*
X9379482Y-10377284D02*
X9398529Y-10386808D01*
X9398529Y-10386808D02*
X9408053Y-10396331D01*
X9408053Y-10396331D02*
X9417577Y-10415379D01*
X9417577Y-10415379D02*
X9427101Y-10453474D01*
X9427101Y-10453474D02*
X9427101Y-10501093D01*
X9427101Y-10501093D02*
X9417577Y-10539189D01*
X9417577Y-10539189D02*
X9408053Y-10558236D01*
X9408053Y-10558236D02*
X9398529Y-10567760D01*
X9398529Y-10567760D02*
X9379482Y-10577284D01*
X9379482Y-10577284D02*
X9360434Y-10577284D01*
X9360434Y-10577284D02*
X9341387Y-10567760D01*
X9341387Y-10567760D02*
X9331863Y-10558236D01*
X9331863Y-10558236D02*
X9322339Y-10539189D01*
X9322339Y-10539189D02*
X9312815Y-10501093D01*
X9312815Y-10501093D02*
X9312815Y-10453474D01*
X9312815Y-10453474D02*
X9322339Y-10415379D01*
X9322339Y-10415379D02*
X9331863Y-10396331D01*
X9331863Y-10396331D02*
X9341387Y-10386808D01*
X9341387Y-10386808D02*
X9360434Y-10377284D01*
X9512815Y-10558236D02*
X9522339Y-10567760D01*
X9522339Y-10567760D02*
X9512815Y-10577284D01*
X9512815Y-10577284D02*
X9503291Y-10567760D01*
X9503291Y-10567760D02*
X9512815Y-10558236D01*
X9512815Y-10558236D02*
X9512815Y-10577284D01*
X9646148Y-10377284D02*
X9665196Y-10377284D01*
X9665196Y-10377284D02*
X9684244Y-10386808D01*
X9684244Y-10386808D02*
X9693768Y-10396331D01*
X9693768Y-10396331D02*
X9703291Y-10415379D01*
X9703291Y-10415379D02*
X9712815Y-10453474D01*
X9712815Y-10453474D02*
X9712815Y-10501093D01*
X9712815Y-10501093D02*
X9703291Y-10539189D01*
X9703291Y-10539189D02*
X9693768Y-10558236D01*
X9693768Y-10558236D02*
X9684244Y-10567760D01*
X9684244Y-10567760D02*
X9665196Y-10577284D01*
X9665196Y-10577284D02*
X9646148Y-10577284D01*
X9646148Y-10577284D02*
X9627101Y-10567760D01*
X9627101Y-10567760D02*
X9617577Y-10558236D01*
X9617577Y-10558236D02*
X9608053Y-10539189D01*
X9608053Y-10539189D02*
X9598529Y-10501093D01*
X9598529Y-10501093D02*
X9598529Y-10453474D01*
X9598529Y-10453474D02*
X9608053Y-10415379D01*
X9608053Y-10415379D02*
X9617577Y-10396331D01*
X9617577Y-10396331D02*
X9627101Y-10386808D01*
X9627101Y-10386808D02*
X9646148Y-10377284D01*
X9779482Y-10377284D02*
X9903291Y-10377284D01*
X9903291Y-10377284D02*
X9836625Y-10453474D01*
X9836625Y-10453474D02*
X9865196Y-10453474D01*
X9865196Y-10453474D02*
X9884244Y-10462998D01*
X9884244Y-10462998D02*
X9893768Y-10472522D01*
X9893768Y-10472522D02*
X9903291Y-10491570D01*
X9903291Y-10491570D02*
X9903291Y-10539189D01*
X9903291Y-10539189D02*
X9893768Y-10558236D01*
X9893768Y-10558236D02*
X9884244Y-10567760D01*
X9884244Y-10567760D02*
X9865196Y-10577284D01*
X9865196Y-10577284D02*
X9808053Y-10577284D01*
X9808053Y-10577284D02*
X9789006Y-10567760D01*
X9789006Y-10567760D02*
X9779482Y-10558236D01*
X10093768Y-10577284D02*
X9979482Y-10577284D01*
X10036625Y-10577284D02*
X10036625Y-10377284D01*
X10036625Y-10377284D02*
X10017577Y-10405855D01*
X10017577Y-10405855D02*
X9998529Y-10424903D01*
X9998529Y-10424903D02*
X9979482Y-10434427D01*
X10274720Y-10377284D02*
X10179482Y-10377284D01*
X10179482Y-10377284D02*
X10169958Y-10472522D01*
X10169958Y-10472522D02*
X10179482Y-10462998D01*
X10179482Y-10462998D02*
X10198529Y-10453474D01*
X10198529Y-10453474D02*
X10246149Y-10453474D01*
X10246149Y-10453474D02*
X10265196Y-10462998D01*
X10265196Y-10462998D02*
X10274720Y-10472522D01*
X10274720Y-10472522D02*
X10284244Y-10491570D01*
X10284244Y-10491570D02*
X10284244Y-10539189D01*
X10284244Y-10539189D02*
X10274720Y-10558236D01*
X10274720Y-10558236D02*
X10265196Y-10567760D01*
X10265196Y-10567760D02*
X10246149Y-10577284D01*
X10246149Y-10577284D02*
X10198529Y-10577284D01*
X10198529Y-10577284D02*
X10179482Y-10567760D01*
X10179482Y-10567760D02*
X10169958Y-10558236D01*
X10360434Y-10377284D02*
X10360434Y-10415379D01*
X10436625Y-10377284D02*
X10436625Y-10415379D01*
X10731863Y-10653474D02*
X10722339Y-10643950D01*
X10722339Y-10643950D02*
X10703291Y-10615379D01*
X10703291Y-10615379D02*
X10693768Y-10596331D01*
X10693768Y-10596331D02*
X10684244Y-10567760D01*
X10684244Y-10567760D02*
X10674720Y-10520141D01*
X10674720Y-10520141D02*
X10674720Y-10482046D01*
X10674720Y-10482046D02*
X10684244Y-10434427D01*
X10684244Y-10434427D02*
X10693768Y-10405855D01*
X10693768Y-10405855D02*
X10703291Y-10386808D01*
X10703291Y-10386808D02*
X10722339Y-10358236D01*
X10722339Y-10358236D02*
X10731863Y-10348712D01*
X10789006Y-10377284D02*
X10912815Y-10377284D01*
X10912815Y-10377284D02*
X10846149Y-10453474D01*
X10846149Y-10453474D02*
X10874720Y-10453474D01*
X10874720Y-10453474D02*
X10893768Y-10462998D01*
X10893768Y-10462998D02*
X10903291Y-10472522D01*
X10903291Y-10472522D02*
X10912815Y-10491570D01*
X10912815Y-10491570D02*
X10912815Y-10539189D01*
X10912815Y-10539189D02*
X10903291Y-10558236D01*
X10903291Y-10558236D02*
X10893768Y-10567760D01*
X10893768Y-10567760D02*
X10874720Y-10577284D01*
X10874720Y-10577284D02*
X10817577Y-10577284D01*
X10817577Y-10577284D02*
X10798530Y-10567760D01*
X10798530Y-10567760D02*
X10789006Y-10558236D01*
X11036625Y-10377284D02*
X11055672Y-10377284D01*
X11055672Y-10377284D02*
X11074720Y-10386808D01*
X11074720Y-10386808D02*
X11084244Y-10396331D01*
X11084244Y-10396331D02*
X11093768Y-10415379D01*
X11093768Y-10415379D02*
X11103291Y-10453474D01*
X11103291Y-10453474D02*
X11103291Y-10501093D01*
X11103291Y-10501093D02*
X11093768Y-10539189D01*
X11093768Y-10539189D02*
X11084244Y-10558236D01*
X11084244Y-10558236D02*
X11074720Y-10567760D01*
X11074720Y-10567760D02*
X11055672Y-10577284D01*
X11055672Y-10577284D02*
X11036625Y-10577284D01*
X11036625Y-10577284D02*
X11017577Y-10567760D01*
X11017577Y-10567760D02*
X11008053Y-10558236D01*
X11008053Y-10558236D02*
X10998530Y-10539189D01*
X10998530Y-10539189D02*
X10989006Y-10501093D01*
X10989006Y-10501093D02*
X10989006Y-10453474D01*
X10989006Y-10453474D02*
X10998530Y-10415379D01*
X10998530Y-10415379D02*
X11008053Y-10396331D01*
X11008053Y-10396331D02*
X11017577Y-10386808D01*
X11017577Y-10386808D02*
X11036625Y-10377284D01*
X11341387Y-10577284D02*
X11341387Y-10377284D01*
X11427101Y-10577284D02*
X11427101Y-10472522D01*
X11427101Y-10472522D02*
X11417577Y-10453474D01*
X11417577Y-10453474D02*
X11398530Y-10443950D01*
X11398530Y-10443950D02*
X11369958Y-10443950D01*
X11369958Y-10443950D02*
X11350910Y-10453474D01*
X11350910Y-10453474D02*
X11341387Y-10462998D01*
X11550910Y-10577284D02*
X11531863Y-10567760D01*
X11531863Y-10567760D02*
X11522339Y-10558236D01*
X11522339Y-10558236D02*
X11512815Y-10539189D01*
X11512815Y-10539189D02*
X11512815Y-10482046D01*
X11512815Y-10482046D02*
X11522339Y-10462998D01*
X11522339Y-10462998D02*
X11531863Y-10453474D01*
X11531863Y-10453474D02*
X11550910Y-10443950D01*
X11550910Y-10443950D02*
X11579482Y-10443950D01*
X11579482Y-10443950D02*
X11598530Y-10453474D01*
X11598530Y-10453474D02*
X11608053Y-10462998D01*
X11608053Y-10462998D02*
X11617577Y-10482046D01*
X11617577Y-10482046D02*
X11617577Y-10539189D01*
X11617577Y-10539189D02*
X11608053Y-10558236D01*
X11608053Y-10558236D02*
X11598530Y-10567760D01*
X11598530Y-10567760D02*
X11579482Y-10577284D01*
X11579482Y-10577284D02*
X11550910Y-10577284D01*
X11731863Y-10577284D02*
X11712815Y-10567760D01*
X11712815Y-10567760D02*
X11703291Y-10548712D01*
X11703291Y-10548712D02*
X11703291Y-10377284D01*
X11884244Y-10567760D02*
X11865196Y-10577284D01*
X11865196Y-10577284D02*
X11827101Y-10577284D01*
X11827101Y-10577284D02*
X11808053Y-10567760D01*
X11808053Y-10567760D02*
X11798530Y-10548712D01*
X11798530Y-10548712D02*
X11798530Y-10472522D01*
X11798530Y-10472522D02*
X11808053Y-10453474D01*
X11808053Y-10453474D02*
X11827101Y-10443950D01*
X11827101Y-10443950D02*
X11865196Y-10443950D01*
X11865196Y-10443950D02*
X11884244Y-10453474D01*
X11884244Y-10453474D02*
X11893768Y-10472522D01*
X11893768Y-10472522D02*
X11893768Y-10491570D01*
X11893768Y-10491570D02*
X11798530Y-10510617D01*
X11969958Y-10567760D02*
X11989006Y-10577284D01*
X11989006Y-10577284D02*
X12027101Y-10577284D01*
X12027101Y-10577284D02*
X12046149Y-10567760D01*
X12046149Y-10567760D02*
X12055672Y-10548712D01*
X12055672Y-10548712D02*
X12055672Y-10539189D01*
X12055672Y-10539189D02*
X12046149Y-10520141D01*
X12046149Y-10520141D02*
X12027101Y-10510617D01*
X12027101Y-10510617D02*
X11998530Y-10510617D01*
X11998530Y-10510617D02*
X11979482Y-10501093D01*
X11979482Y-10501093D02*
X11969958Y-10482046D01*
X11969958Y-10482046D02*
X11969958Y-10472522D01*
X11969958Y-10472522D02*
X11979482Y-10453474D01*
X11979482Y-10453474D02*
X11998530Y-10443950D01*
X11998530Y-10443950D02*
X12027101Y-10443950D01*
X12027101Y-10443950D02*
X12046149Y-10453474D01*
X12122339Y-10653474D02*
X12131863Y-10643950D01*
X12131863Y-10643950D02*
X12150911Y-10615379D01*
X12150911Y-10615379D02*
X12160434Y-10596331D01*
X12160434Y-10596331D02*
X12169958Y-10567760D01*
X12169958Y-10567760D02*
X12179482Y-10520141D01*
X12179482Y-10520141D02*
X12179482Y-10482046D01*
X12179482Y-10482046D02*
X12169958Y-10434427D01*
X12169958Y-10434427D02*
X12160434Y-10405855D01*
X12160434Y-10405855D02*
X12150911Y-10386808D01*
X12150911Y-10386808D02*
X12131863Y-10358236D01*
X12131863Y-10358236D02*
X12122339Y-10348712D01*
M02*
