%TF.GenerationSoftware,KiCad,Pcbnew,7.0.3*%
%TF.CreationDate,2023-05-28T22:07:45+08:00*%
%TF.ProjectId,Cartdrige,43617274-6472-4696-9765-2e6b69636164,rev?*%
%TF.SameCoordinates,Original*%
%TF.FileFunction,Soldermask,Bot*%
%TF.FilePolarity,Negative*%
%FSLAX46Y46*%
G04 Gerber Fmt 4.6, Leading zero omitted, Abs format (unit mm)*
G04 Created by KiCad (PCBNEW 7.0.3) date 2023-05-28 22:07:45*
%MOMM*%
%LPD*%
G01*
G04 APERTURE LIST*
%ADD10C,1.600000*%
%ADD11R,1.780000X7.620000*%
%ADD12R,1.600000X1.600000*%
%ADD13O,1.600000X1.600000*%
G04 APERTURE END LIST*
D10*
%TO.C,C1*%
X145923000Y-76962000D03*
X145923000Y-74462000D03*
%TD*%
D11*
%TO.C,J2*%
X148590000Y-91694000D03*
X146050000Y-91694000D03*
X143510000Y-91694000D03*
X140970000Y-91694000D03*
X138430000Y-91694000D03*
X135890000Y-91694000D03*
X133350000Y-91694000D03*
X130810000Y-91694000D03*
X128270000Y-91694000D03*
X125730000Y-91694000D03*
X123190000Y-91694000D03*
X120650000Y-91694000D03*
X118110000Y-91694000D03*
X115570000Y-91694000D03*
X113030000Y-91694000D03*
X110490000Y-91694000D03*
X107950000Y-91694000D03*
X105410000Y-91694000D03*
X102870000Y-91694000D03*
X100330000Y-91694000D03*
X97790000Y-91694000D03*
X95250000Y-91694000D03*
X92710000Y-91694000D03*
X90170000Y-91694000D03*
X87630000Y-91694000D03*
X85090000Y-91694000D03*
X82550000Y-91694000D03*
X80010000Y-91694000D03*
X77470000Y-91694000D03*
X74930000Y-91694000D03*
%TD*%
D12*
%TO.C,U1*%
X128270000Y-61722000D03*
D13*
X125730000Y-61722000D03*
X123190000Y-61722000D03*
X120650000Y-61722000D03*
X118110000Y-61722000D03*
X115570000Y-61722000D03*
X113030000Y-61722000D03*
X110490000Y-61722000D03*
X107950000Y-61722000D03*
X105410000Y-61722000D03*
X102870000Y-61722000D03*
X100330000Y-61722000D03*
X97790000Y-61722000D03*
X95250000Y-61722000D03*
X95250000Y-76962000D03*
X97790000Y-76962000D03*
X100330000Y-76962000D03*
X102870000Y-76962000D03*
X105410000Y-76962000D03*
X107950000Y-76962000D03*
X110490000Y-76962000D03*
X113030000Y-76962000D03*
X115570000Y-76962000D03*
X118110000Y-76962000D03*
X120650000Y-76962000D03*
X123190000Y-76962000D03*
X125730000Y-76962000D03*
X128270000Y-76962000D03*
%TD*%
M02*
