%TF.GenerationSoftware,KiCad,Pcbnew,(5.99.0-7356-g63088e8bdb)*%
%TF.CreationDate,2021-06-15T12:35:09+08:00*%
%TF.ProjectId,Cartdrige,43617274-6472-4696-9765-2e6b69636164,rev?*%
%TF.SameCoordinates,Original*%
%TF.FileFunction,Copper,L2,Bot*%
%TF.FilePolarity,Positive*%
%FSLAX46Y46*%
G04 Gerber Fmt 4.6, Leading zero omitted, Abs format (unit mm)*
G04 Created by KiCad (PCBNEW (5.99.0-7356-g63088e8bdb)) date 2021-06-15 12:35:09*
%MOMM*%
%LPD*%
G01*
G04 APERTURE LIST*
%TA.AperFunction,ComponentPad*%
%ADD10C,1.600000*%
%TD*%
%TA.AperFunction,ComponentPad*%
%ADD11R,1.600000X1.600000*%
%TD*%
%TA.AperFunction,ComponentPad*%
%ADD12O,1.600000X1.600000*%
%TD*%
%TA.AperFunction,ConnectorPad*%
%ADD13R,1.780000X7.620000*%
%TD*%
%TA.AperFunction,ViaPad*%
%ADD14C,0.800000*%
%TD*%
%TA.AperFunction,Conductor*%
%ADD15C,0.500000*%
%TD*%
%TA.AperFunction,Conductor*%
%ADD16C,0.250000*%
%TD*%
G04 APERTURE END LIST*
D10*
%TO.P,C1,1*%
%TO.N,+5V*%
X76066000Y-53466000D03*
%TO.P,C1,2*%
%TO.N,GND*%
X73566000Y-53466000D03*
%TD*%
D11*
%TO.P,U1,1,A14*%
%TO.N,/A14*%
X75946000Y-34798000D03*
D12*
%TO.P,U1,2,A12*%
%TO.N,/A12*%
X73406000Y-34798000D03*
%TO.P,U1,3,A7*%
%TO.N,/A7*%
X70866000Y-34798000D03*
%TO.P,U1,4,A6*%
%TO.N,/A6*%
X68326000Y-34798000D03*
%TO.P,U1,5,A5*%
%TO.N,/A5*%
X65786000Y-34798000D03*
%TO.P,U1,6,A4*%
%TO.N,/A4*%
X63246000Y-34798000D03*
%TO.P,U1,7,A3*%
%TO.N,/A3*%
X60706000Y-34798000D03*
%TO.P,U1,8,A2*%
%TO.N,/A2*%
X58166000Y-34798000D03*
%TO.P,U1,9,A1*%
%TO.N,/A1*%
X55626000Y-34798000D03*
%TO.P,U1,10,A0*%
%TO.N,/A0*%
X53086000Y-34798000D03*
%TO.P,U1,11,D0*%
%TO.N,/D0*%
X50546000Y-34798000D03*
%TO.P,U1,12,D1*%
%TO.N,/D1*%
X48006000Y-34798000D03*
%TO.P,U1,13,D2*%
%TO.N,/D2*%
X45466000Y-34798000D03*
%TO.P,U1,14,GND*%
%TO.N,GND*%
X42926000Y-34798000D03*
%TO.P,U1,15,D3*%
%TO.N,/D3*%
X42926000Y-50038000D03*
%TO.P,U1,16,D4*%
%TO.N,/D4*%
X45466000Y-50038000D03*
%TO.P,U1,17,D5*%
%TO.N,/D5*%
X48006000Y-50038000D03*
%TO.P,U1,18,D6*%
%TO.N,/D6*%
X50546000Y-50038000D03*
%TO.P,U1,19,D7*%
%TO.N,/D7*%
X53086000Y-50038000D03*
%TO.P,U1,20,~CS*%
%TO.N,CS*%
X55626000Y-50038000D03*
%TO.P,U1,21,A10*%
%TO.N,/A10*%
X58166000Y-50038000D03*
%TO.P,U1,22,~OE*%
%TO.N,OE*%
X60706000Y-50038000D03*
%TO.P,U1,23,A11*%
%TO.N,/A11*%
X63246000Y-50038000D03*
%TO.P,U1,24,A9*%
%TO.N,/A9*%
X65786000Y-50038000D03*
%TO.P,U1,25,A8*%
%TO.N,/A8*%
X68326000Y-50038000D03*
%TO.P,U1,26,A13*%
%TO.N,/A13*%
X70866000Y-50038000D03*
%TO.P,U1,27,~WE*%
%TO.N,+5V*%
X73406000Y-50038000D03*
%TO.P,U1,28,VCC*%
X75946000Y-50038000D03*
%TD*%
D13*
%TO.P,J1,1,Pin_1*%
%TO.N,N/C*%
X102482000Y-64642000D03*
%TO.P,J1,2,Pin_2*%
X99942000Y-64642000D03*
%TO.P,J1,3,Pin_3*%
X97402000Y-64642000D03*
%TO.P,J1,4,Pin_4*%
X94862000Y-64642000D03*
%TO.P,J1,5,Pin_5*%
X92322000Y-64642000D03*
%TO.P,J1,6,Pin_6*%
X89782000Y-64642000D03*
%TO.P,J1,7,Pin_7*%
X87242000Y-64642000D03*
%TO.P,J1,8,Pin_8*%
X84702000Y-64642000D03*
%TO.P,J1,9,Pin_9*%
X82162000Y-64642000D03*
%TO.P,J1,10,Pin_10*%
X79622000Y-64642000D03*
%TO.P,J1,11,Pin_11*%
X77082000Y-64642000D03*
%TO.P,J1,12,Pin_12*%
X74542000Y-64642000D03*
%TO.P,J1,13,Pin_13*%
X72002000Y-64642000D03*
%TO.P,J1,14,Pin_14*%
%TO.N,GND*%
X69462000Y-64642000D03*
%TO.P,J1,15,Pin_15*%
%TO.N,/D3*%
X66922000Y-64642000D03*
%TO.P,J1,16,Pin_16*%
%TO.N,/D4*%
X64382000Y-64642000D03*
%TO.P,J1,17,Pin_17*%
%TO.N,/D5*%
X61842000Y-64642000D03*
%TO.P,J1,18,Pin_18*%
%TO.N,/D6*%
X59302000Y-64642000D03*
%TO.P,J1,19,Pin_19*%
%TO.N,/D7*%
X56762000Y-64642000D03*
%TO.P,J1,20,Pin_20*%
%TO.N,CS*%
X54222000Y-64642000D03*
%TO.P,J1,21,Pin_21*%
%TO.N,/A10*%
X51682000Y-64642000D03*
%TO.P,J1,22,Pin_22*%
%TO.N,OE*%
X49142000Y-64642000D03*
%TO.P,J1,23,Pin_23*%
%TO.N,N/C*%
X46602000Y-64642000D03*
%TO.P,J1,24,Pin_24*%
X44062000Y-64642000D03*
%TO.P,J1,25,Pin_25*%
X41522000Y-64642000D03*
%TO.P,J1,26,Pin_26*%
X38982000Y-64642000D03*
%TO.P,J1,27,Pin_27*%
%TO.N,+5V*%
X36442000Y-64642000D03*
%TO.P,J1,28,Pin_28*%
X33902000Y-64642000D03*
%TO.P,J1,29,Pin_29*%
%TO.N,GND*%
X31362000Y-64642000D03*
%TO.P,J1,30,Pin_30*%
X28822000Y-64642000D03*
%TD*%
D14*
%TO.N,GND*%
X28822000Y-59308000D03*
X31362000Y-59308000D03*
X69462000Y-59308000D03*
%TO.N,+5V*%
X33902000Y-59308000D03*
X36442000Y-59308000D03*
%TD*%
D15*
%TO.N,+5V*%
X33902000Y-59308000D02*
X36442000Y-59308000D01*
X36442000Y-59308000D02*
X36442000Y-64642000D01*
X33902000Y-59308000D02*
X33902000Y-64642000D01*
D16*
%TO.N,OE*%
X53845590Y-43814000D02*
X40252000Y-43814000D01*
X40252000Y-43814000D02*
X36696000Y-47370000D01*
X36696000Y-53466000D02*
X40252000Y-57022000D01*
X40252000Y-57022000D02*
X48126000Y-57022000D01*
X60069590Y-50038000D02*
X53845590Y-43814000D01*
X36696000Y-47370000D02*
X36696000Y-53466000D01*
X49142000Y-58038000D02*
X49142000Y-64642000D01*
X48126000Y-57022000D02*
X49142000Y-58038000D01*
%TO.N,/A10*%
X37458000Y-47624000D02*
X37458000Y-53212000D01*
X37458000Y-53212000D02*
X40506000Y-56260000D01*
X50793000Y-56260000D02*
X51682000Y-57149000D01*
X58166000Y-50038000D02*
X52704000Y-44576000D01*
X40506000Y-44576000D02*
X37458000Y-47624000D01*
X51682000Y-57149000D02*
X51682000Y-64642000D01*
X52704000Y-44576000D02*
X40506000Y-44576000D01*
X40506000Y-56260000D02*
X50793000Y-56260000D01*
%TO.N,CS*%
X38220000Y-47878000D02*
X38220000Y-52958000D01*
X54222000Y-57530000D02*
X54222000Y-64642000D01*
X40760000Y-55498000D02*
X52190000Y-55498000D01*
X40760000Y-45338000D02*
X38220000Y-47878000D01*
X38220000Y-52958000D02*
X40760000Y-55498000D01*
X50926000Y-45338000D02*
X40760000Y-45338000D01*
X52190000Y-55498000D02*
X54222000Y-57530000D01*
X55626000Y-50038000D02*
X50926000Y-45338000D01*
%TO.N,/D7*%
X41014000Y-46100000D02*
X38982000Y-48132000D01*
X41014000Y-54736000D02*
X52444000Y-54736000D01*
X38982000Y-52704000D02*
X41014000Y-54736000D01*
X52444000Y-54736000D02*
X56762000Y-59054000D01*
X53086000Y-50038000D02*
X49148000Y-46100000D01*
X49148000Y-46100000D02*
X41014000Y-46100000D01*
X38982000Y-48132000D02*
X38982000Y-52704000D01*
X56762000Y-59054000D02*
X56762000Y-64642000D01*
%TO.N,/D6*%
X41268000Y-53974000D02*
X52698000Y-53974000D01*
X47370000Y-46862000D02*
X41268000Y-46862000D01*
X50546000Y-50038000D02*
X47370000Y-46862000D01*
X59302000Y-64642000D02*
X59302000Y-60578000D01*
X52698000Y-53974000D02*
X59302000Y-60578000D01*
X41268000Y-46862000D02*
X39744000Y-48386000D01*
X39744000Y-52450000D02*
X41268000Y-53974000D01*
X39744000Y-48386000D02*
X39744000Y-52450000D01*
%TO.N,/D5*%
X41522000Y-53212000D02*
X54476000Y-53212000D01*
X54476000Y-53212000D02*
X61842000Y-60578000D01*
X45592000Y-47624000D02*
X41522000Y-47624000D01*
X41522000Y-47624000D02*
X40506000Y-48640000D01*
X40506000Y-52196000D02*
X41522000Y-53212000D01*
X61842000Y-60578000D02*
X61842000Y-64642000D01*
X40506000Y-48640000D02*
X40506000Y-52196000D01*
X48006000Y-50038000D02*
X45592000Y-47624000D01*
%TO.N,/D4*%
X41268000Y-49148000D02*
X41268000Y-51688000D01*
X41268000Y-51688000D02*
X42030000Y-52450000D01*
X45466000Y-50038000D02*
X43814000Y-48386000D01*
X56254000Y-52450000D02*
X64382000Y-60578000D01*
X64382000Y-60578000D02*
X64382000Y-64642000D01*
X43814000Y-48386000D02*
X42030000Y-48386000D01*
X42030000Y-48386000D02*
X41268000Y-49148000D01*
X42030000Y-52450000D02*
X56254000Y-52450000D01*
%TO.N,/D3*%
X42926000Y-50806000D02*
X43808000Y-51688000D01*
X43808000Y-51688000D02*
X58032000Y-51688000D01*
X66922000Y-60578000D02*
X66922000Y-64642000D01*
X58032000Y-51688000D02*
X66922000Y-60578000D01*
X42926000Y-50038000D02*
X42926000Y-50806000D01*
%TD*%
%TA.AperFunction,Conductor*%
%TO.N,GND*%
G36*
X102947212Y-25799833D02*
G01*
X102962717Y-25802469D01*
X102967581Y-25802537D01*
X102967584Y-25802537D01*
X103093654Y-25804293D01*
X103099506Y-25804511D01*
X103109227Y-25805099D01*
X103146403Y-25807348D01*
X103153969Y-25808035D01*
X103350259Y-25831869D01*
X103357774Y-25833013D01*
X103389211Y-25838774D01*
X103396634Y-25840367D01*
X103588603Y-25887683D01*
X103595930Y-25889725D01*
X103626461Y-25899239D01*
X103633655Y-25901722D01*
X103748002Y-25945088D01*
X103818525Y-25971834D01*
X103825549Y-25974744D01*
X103854665Y-25987848D01*
X103861488Y-25991170D01*
X104036583Y-26083065D01*
X104043189Y-26086791D01*
X104062851Y-26098677D01*
X104070571Y-26103344D01*
X104076959Y-26107475D01*
X104239656Y-26219777D01*
X104245785Y-26224286D01*
X104270955Y-26244006D01*
X104276788Y-26248867D01*
X104309508Y-26277854D01*
X104424782Y-26379977D01*
X104430324Y-26385195D01*
X104452907Y-26407778D01*
X104458125Y-26413320D01*
X104589235Y-26561314D01*
X104594099Y-26567150D01*
X104613815Y-26592316D01*
X104618315Y-26598430D01*
X104730642Y-26761164D01*
X104734761Y-26767535D01*
X104751310Y-26794911D01*
X104755048Y-26801540D01*
X104846923Y-26976594D01*
X104850241Y-26983407D01*
X104863373Y-27012585D01*
X104866268Y-27019575D01*
X104932040Y-27193001D01*
X104936378Y-27204439D01*
X104938861Y-27211635D01*
X104948373Y-27242161D01*
X104950417Y-27249492D01*
X104997731Y-27441456D01*
X104999328Y-27448894D01*
X105005087Y-27480316D01*
X105006232Y-27487841D01*
X105028580Y-27671885D01*
X105030066Y-27684125D01*
X105030754Y-27691696D01*
X105033593Y-27738631D01*
X105033809Y-27744428D01*
X105035588Y-27872108D01*
X105038473Y-27890428D01*
X105040005Y-27910090D01*
X105022360Y-58930723D01*
X105022355Y-58938785D01*
X105002314Y-59006894D01*
X104948632Y-59053356D01*
X104930993Y-59059858D01*
X104923992Y-59061859D01*
X104907250Y-59065434D01*
X104878018Y-59069620D01*
X104869847Y-59073335D01*
X104869844Y-59073336D01*
X104854693Y-59080225D01*
X104837169Y-59086673D01*
X104821157Y-59091249D01*
X104821154Y-59091250D01*
X104812527Y-59093716D01*
X104787559Y-59109470D01*
X104772483Y-59117604D01*
X104753785Y-59126105D01*
X104753782Y-59126107D01*
X104745611Y-59129822D01*
X104726189Y-59146557D01*
X104711186Y-59157658D01*
X104689515Y-59171331D01*
X104683574Y-59178058D01*
X104683573Y-59178059D01*
X104669978Y-59193453D01*
X104657782Y-59205500D01*
X104642226Y-59218903D01*
X104642224Y-59218905D01*
X104635422Y-59224766D01*
X104621478Y-59246278D01*
X104610193Y-59261146D01*
X104593232Y-59280351D01*
X104580691Y-59307063D01*
X104572369Y-59322045D01*
X104556310Y-59346821D01*
X104548963Y-59371387D01*
X104542305Y-59388823D01*
X104531417Y-59412013D01*
X104527512Y-59437091D01*
X104526876Y-59441174D01*
X104523094Y-59457887D01*
X104514635Y-59486174D01*
X104514580Y-59495146D01*
X104514580Y-59495147D01*
X104514434Y-59519013D01*
X104514316Y-59521841D01*
X104514001Y-59523865D01*
X104514001Y-59561997D01*
X104514000Y-59562000D01*
X104514000Y-59589624D01*
X104513998Y-59590394D01*
X104513746Y-59631622D01*
X104513984Y-59632454D01*
X104514000Y-59632692D01*
X104514000Y-68072000D01*
X104493998Y-68140121D01*
X104440342Y-68186614D01*
X104388000Y-68198000D01*
X104011500Y-68198000D01*
X103943379Y-68177998D01*
X103896886Y-68124342D01*
X103885500Y-68072000D01*
X103885500Y-60832000D01*
X103880273Y-60758921D01*
X103839096Y-60618684D01*
X103793567Y-60547840D01*
X103764949Y-60503309D01*
X103764947Y-60503306D01*
X103760077Y-60495729D01*
X103705164Y-60448146D01*
X103656431Y-60405918D01*
X103656428Y-60405916D01*
X103649619Y-60400016D01*
X103641421Y-60396272D01*
X103524864Y-60343042D01*
X103524863Y-60343042D01*
X103516670Y-60339300D01*
X103507755Y-60338018D01*
X103507754Y-60338018D01*
X103376448Y-60319139D01*
X103376441Y-60319138D01*
X103372000Y-60318500D01*
X101592000Y-60318500D01*
X101518921Y-60323727D01*
X101451502Y-60343523D01*
X101387330Y-60362365D01*
X101387328Y-60362366D01*
X101378684Y-60364904D01*
X101371105Y-60369775D01*
X101280281Y-60428144D01*
X101212160Y-60448146D01*
X101144039Y-60428144D01*
X101129649Y-60417371D01*
X101116435Y-60405921D01*
X101116430Y-60405918D01*
X101109619Y-60400016D01*
X101101421Y-60396272D01*
X100984864Y-60343042D01*
X100984863Y-60343042D01*
X100976670Y-60339300D01*
X100967755Y-60338018D01*
X100967754Y-60338018D01*
X100836448Y-60319139D01*
X100836441Y-60319138D01*
X100832000Y-60318500D01*
X99052000Y-60318500D01*
X98978921Y-60323727D01*
X98911502Y-60343523D01*
X98847330Y-60362365D01*
X98847328Y-60362366D01*
X98838684Y-60364904D01*
X98831105Y-60369775D01*
X98740281Y-60428144D01*
X98672160Y-60448146D01*
X98604039Y-60428144D01*
X98589649Y-60417371D01*
X98576435Y-60405921D01*
X98576430Y-60405918D01*
X98569619Y-60400016D01*
X98561421Y-60396272D01*
X98444864Y-60343042D01*
X98444863Y-60343042D01*
X98436670Y-60339300D01*
X98427755Y-60338018D01*
X98427754Y-60338018D01*
X98296448Y-60319139D01*
X98296441Y-60319138D01*
X98292000Y-60318500D01*
X96512000Y-60318500D01*
X96438921Y-60323727D01*
X96371502Y-60343523D01*
X96307330Y-60362365D01*
X96307328Y-60362366D01*
X96298684Y-60364904D01*
X96291105Y-60369775D01*
X96200281Y-60428144D01*
X96132160Y-60448146D01*
X96064039Y-60428144D01*
X96049649Y-60417371D01*
X96036435Y-60405921D01*
X96036430Y-60405918D01*
X96029619Y-60400016D01*
X96021421Y-60396272D01*
X95904864Y-60343042D01*
X95904863Y-60343042D01*
X95896670Y-60339300D01*
X95887755Y-60338018D01*
X95887754Y-60338018D01*
X95756448Y-60319139D01*
X95756441Y-60319138D01*
X95752000Y-60318500D01*
X93972000Y-60318500D01*
X93898921Y-60323727D01*
X93831502Y-60343523D01*
X93767330Y-60362365D01*
X93767328Y-60362366D01*
X93758684Y-60364904D01*
X93751105Y-60369775D01*
X93660281Y-60428144D01*
X93592160Y-60448146D01*
X93524039Y-60428144D01*
X93509649Y-60417371D01*
X93496435Y-60405921D01*
X93496430Y-60405918D01*
X93489619Y-60400016D01*
X93481421Y-60396272D01*
X93364864Y-60343042D01*
X93364863Y-60343042D01*
X93356670Y-60339300D01*
X93347755Y-60338018D01*
X93347754Y-60338018D01*
X93216448Y-60319139D01*
X93216441Y-60319138D01*
X93212000Y-60318500D01*
X91432000Y-60318500D01*
X91358921Y-60323727D01*
X91291502Y-60343523D01*
X91227330Y-60362365D01*
X91227328Y-60362366D01*
X91218684Y-60364904D01*
X91211105Y-60369775D01*
X91120281Y-60428144D01*
X91052160Y-60448146D01*
X90984039Y-60428144D01*
X90969649Y-60417371D01*
X90956435Y-60405921D01*
X90956430Y-60405918D01*
X90949619Y-60400016D01*
X90941421Y-60396272D01*
X90824864Y-60343042D01*
X90824863Y-60343042D01*
X90816670Y-60339300D01*
X90807755Y-60338018D01*
X90807754Y-60338018D01*
X90676448Y-60319139D01*
X90676441Y-60319138D01*
X90672000Y-60318500D01*
X88892000Y-60318500D01*
X88818921Y-60323727D01*
X88751502Y-60343523D01*
X88687330Y-60362365D01*
X88687328Y-60362366D01*
X88678684Y-60364904D01*
X88671105Y-60369775D01*
X88580281Y-60428144D01*
X88512160Y-60448146D01*
X88444039Y-60428144D01*
X88429649Y-60417371D01*
X88416435Y-60405921D01*
X88416430Y-60405918D01*
X88409619Y-60400016D01*
X88401421Y-60396272D01*
X88284864Y-60343042D01*
X88284863Y-60343042D01*
X88276670Y-60339300D01*
X88267755Y-60338018D01*
X88267754Y-60338018D01*
X88136448Y-60319139D01*
X88136441Y-60319138D01*
X88132000Y-60318500D01*
X86352000Y-60318500D01*
X86278921Y-60323727D01*
X86211502Y-60343523D01*
X86147330Y-60362365D01*
X86147328Y-60362366D01*
X86138684Y-60364904D01*
X86131105Y-60369775D01*
X86040281Y-60428144D01*
X85972160Y-60448146D01*
X85904039Y-60428144D01*
X85889649Y-60417371D01*
X85876435Y-60405921D01*
X85876430Y-60405918D01*
X85869619Y-60400016D01*
X85861421Y-60396272D01*
X85744864Y-60343042D01*
X85744863Y-60343042D01*
X85736670Y-60339300D01*
X85727755Y-60338018D01*
X85727754Y-60338018D01*
X85596448Y-60319139D01*
X85596441Y-60319138D01*
X85592000Y-60318500D01*
X83812000Y-60318500D01*
X83738921Y-60323727D01*
X83671502Y-60343523D01*
X83607330Y-60362365D01*
X83607328Y-60362366D01*
X83598684Y-60364904D01*
X83591105Y-60369775D01*
X83500281Y-60428144D01*
X83432160Y-60448146D01*
X83364039Y-60428144D01*
X83349649Y-60417371D01*
X83336435Y-60405921D01*
X83336430Y-60405918D01*
X83329619Y-60400016D01*
X83321421Y-60396272D01*
X83204864Y-60343042D01*
X83204863Y-60343042D01*
X83196670Y-60339300D01*
X83187755Y-60338018D01*
X83187754Y-60338018D01*
X83056448Y-60319139D01*
X83056441Y-60319138D01*
X83052000Y-60318500D01*
X81272000Y-60318500D01*
X81198921Y-60323727D01*
X81131502Y-60343523D01*
X81067330Y-60362365D01*
X81067328Y-60362366D01*
X81058684Y-60364904D01*
X81051105Y-60369775D01*
X80960281Y-60428144D01*
X80892160Y-60448146D01*
X80824039Y-60428144D01*
X80809649Y-60417371D01*
X80796435Y-60405921D01*
X80796430Y-60405918D01*
X80789619Y-60400016D01*
X80781421Y-60396272D01*
X80664864Y-60343042D01*
X80664863Y-60343042D01*
X80656670Y-60339300D01*
X80647755Y-60338018D01*
X80647754Y-60338018D01*
X80516448Y-60319139D01*
X80516441Y-60319138D01*
X80512000Y-60318500D01*
X78732000Y-60318500D01*
X78658921Y-60323727D01*
X78591502Y-60343523D01*
X78527330Y-60362365D01*
X78527328Y-60362366D01*
X78518684Y-60364904D01*
X78511105Y-60369775D01*
X78420281Y-60428144D01*
X78352160Y-60448146D01*
X78284039Y-60428144D01*
X78269649Y-60417371D01*
X78256435Y-60405921D01*
X78256430Y-60405918D01*
X78249619Y-60400016D01*
X78241421Y-60396272D01*
X78124864Y-60343042D01*
X78124863Y-60343042D01*
X78116670Y-60339300D01*
X78107755Y-60338018D01*
X78107754Y-60338018D01*
X77976448Y-60319139D01*
X77976441Y-60319138D01*
X77972000Y-60318500D01*
X76192000Y-60318500D01*
X76118921Y-60323727D01*
X76051502Y-60343523D01*
X75987330Y-60362365D01*
X75987328Y-60362366D01*
X75978684Y-60364904D01*
X75971105Y-60369775D01*
X75880281Y-60428144D01*
X75812160Y-60448146D01*
X75744039Y-60428144D01*
X75729649Y-60417371D01*
X75716435Y-60405921D01*
X75716430Y-60405918D01*
X75709619Y-60400016D01*
X75701421Y-60396272D01*
X75584864Y-60343042D01*
X75584863Y-60343042D01*
X75576670Y-60339300D01*
X75567755Y-60338018D01*
X75567754Y-60338018D01*
X75436448Y-60319139D01*
X75436441Y-60319138D01*
X75432000Y-60318500D01*
X73652000Y-60318500D01*
X73578921Y-60323727D01*
X73511502Y-60343523D01*
X73447330Y-60362365D01*
X73447328Y-60362366D01*
X73438684Y-60364904D01*
X73431105Y-60369775D01*
X73340281Y-60428144D01*
X73272160Y-60448146D01*
X73204039Y-60428144D01*
X73189649Y-60417371D01*
X73176435Y-60405921D01*
X73176430Y-60405918D01*
X73169619Y-60400016D01*
X73161421Y-60396272D01*
X73044864Y-60343042D01*
X73044863Y-60343042D01*
X73036670Y-60339300D01*
X73027755Y-60338018D01*
X73027754Y-60338018D01*
X72896448Y-60319139D01*
X72896441Y-60319138D01*
X72892000Y-60318500D01*
X71112000Y-60318500D01*
X71038921Y-60323727D01*
X70971502Y-60343523D01*
X70907330Y-60362365D01*
X70907328Y-60362366D01*
X70898684Y-60364904D01*
X70891105Y-60369775D01*
X70799847Y-60428423D01*
X70731726Y-60448425D01*
X70663605Y-60428423D01*
X70649214Y-60417650D01*
X70636160Y-60406338D01*
X70621152Y-60396693D01*
X70504725Y-60343523D01*
X70487612Y-60338498D01*
X70356446Y-60319639D01*
X70347505Y-60319000D01*
X69734115Y-60319000D01*
X69718876Y-60323475D01*
X69717671Y-60324865D01*
X69716000Y-60332548D01*
X69716000Y-64770000D01*
X69695998Y-64838121D01*
X69642342Y-64884614D01*
X69590000Y-64896000D01*
X69334000Y-64896000D01*
X69265879Y-64875998D01*
X69219386Y-64822342D01*
X69208000Y-64770000D01*
X69208000Y-60337115D01*
X69203525Y-60321876D01*
X69202135Y-60320671D01*
X69194452Y-60319000D01*
X68574257Y-60319000D01*
X68569750Y-60319161D01*
X68505731Y-60323740D01*
X68492509Y-60326126D01*
X68367542Y-60362819D01*
X68351308Y-60370233D01*
X68260669Y-60428482D01*
X68192548Y-60448484D01*
X68124427Y-60428481D01*
X68110035Y-60417707D01*
X68109970Y-60417650D01*
X68089619Y-60400016D01*
X68081421Y-60396272D01*
X67964864Y-60343042D01*
X67964863Y-60343042D01*
X67956670Y-60339300D01*
X67947755Y-60338018D01*
X67947754Y-60338018D01*
X67816448Y-60319139D01*
X67816441Y-60319138D01*
X67812000Y-60318500D01*
X67580669Y-60318500D01*
X67512548Y-60298498D01*
X67478732Y-60266560D01*
X67455531Y-60234626D01*
X67449016Y-60224707D01*
X67429529Y-60191758D01*
X67429527Y-60191755D01*
X67426513Y-60186659D01*
X67426145Y-60186241D01*
X67412062Y-60172158D01*
X67399228Y-60157133D01*
X67387446Y-60140917D01*
X67353665Y-60112971D01*
X67344886Y-60104982D01*
X61791968Y-54552064D01*
X72844490Y-54552064D01*
X72853784Y-54564078D01*
X72904992Y-54599934D01*
X72914487Y-54605417D01*
X73111943Y-54697491D01*
X73122239Y-54701239D01*
X73332690Y-54757630D01*
X73343477Y-54759532D01*
X73560525Y-54778521D01*
X73571475Y-54778521D01*
X73788523Y-54759532D01*
X73799310Y-54757630D01*
X74009761Y-54701239D01*
X74020057Y-54697491D01*
X74217513Y-54605417D01*
X74227008Y-54599934D01*
X74279050Y-54563494D01*
X74287426Y-54553015D01*
X74280359Y-54539570D01*
X73578811Y-53838021D01*
X73564868Y-53830408D01*
X73563034Y-53830539D01*
X73556420Y-53834790D01*
X72850917Y-54540294D01*
X72844490Y-54552064D01*
X61791968Y-54552064D01*
X60700429Y-53460525D01*
X72253479Y-53460525D01*
X72253479Y-53471475D01*
X72272468Y-53688523D01*
X72274370Y-53699310D01*
X72330761Y-53909761D01*
X72334509Y-53920057D01*
X72426583Y-54117513D01*
X72432066Y-54127008D01*
X72468506Y-54179050D01*
X72478985Y-54187426D01*
X72492430Y-54180359D01*
X73193979Y-53478811D01*
X73200355Y-53467132D01*
X73930408Y-53467132D01*
X73930539Y-53468966D01*
X73934790Y-53475580D01*
X74640294Y-54181083D01*
X74652064Y-54187510D01*
X74664078Y-54178216D01*
X74699938Y-54127004D01*
X74706591Y-54115479D01*
X74757973Y-54066485D01*
X74827686Y-54053047D01*
X74893597Y-54079433D01*
X74924829Y-54115475D01*
X74926153Y-54117768D01*
X74928476Y-54122750D01*
X74931628Y-54127252D01*
X74931630Y-54127255D01*
X74973821Y-54187510D01*
X75059801Y-54310302D01*
X75221698Y-54472199D01*
X75226206Y-54475356D01*
X75226209Y-54475358D01*
X75317914Y-54539570D01*
X75409250Y-54603524D01*
X75414232Y-54605847D01*
X75414237Y-54605850D01*
X75610763Y-54697491D01*
X75616757Y-54700286D01*
X75622065Y-54701708D01*
X75622067Y-54701709D01*
X75832598Y-54758121D01*
X75832600Y-54758121D01*
X75837913Y-54759545D01*
X76066000Y-54779500D01*
X76294087Y-54759545D01*
X76299400Y-54758121D01*
X76299402Y-54758121D01*
X76509933Y-54701709D01*
X76509935Y-54701708D01*
X76515243Y-54700286D01*
X76521237Y-54697491D01*
X76717763Y-54605850D01*
X76717768Y-54605847D01*
X76722750Y-54603524D01*
X76814086Y-54539570D01*
X76905791Y-54475358D01*
X76905794Y-54475356D01*
X76910302Y-54472199D01*
X77072199Y-54310302D01*
X77158238Y-54187426D01*
X77200367Y-54127259D01*
X77200368Y-54127257D01*
X77203524Y-54122750D01*
X77205847Y-54117768D01*
X77205850Y-54117763D01*
X77297963Y-53920225D01*
X77297964Y-53920224D01*
X77300286Y-53915243D01*
X77311916Y-53871842D01*
X77358121Y-53699402D01*
X77358121Y-53699400D01*
X77359545Y-53694087D01*
X77379500Y-53466000D01*
X77359545Y-53237913D01*
X77324904Y-53108632D01*
X77301709Y-53022067D01*
X77301708Y-53022065D01*
X77300286Y-53016757D01*
X77229762Y-52865517D01*
X77205850Y-52814237D01*
X77205847Y-52814232D01*
X77203524Y-52809250D01*
X77200367Y-52804741D01*
X77075358Y-52626209D01*
X77075356Y-52626206D01*
X77072199Y-52621698D01*
X76910302Y-52459801D01*
X76905794Y-52456644D01*
X76905791Y-52456642D01*
X76727259Y-52331633D01*
X76727257Y-52331632D01*
X76722750Y-52328476D01*
X76717768Y-52326153D01*
X76717763Y-52326150D01*
X76520225Y-52234037D01*
X76520224Y-52234036D01*
X76515243Y-52231714D01*
X76509935Y-52230292D01*
X76509933Y-52230291D01*
X76299402Y-52173879D01*
X76299400Y-52173879D01*
X76294087Y-52172455D01*
X76066000Y-52152500D01*
X75837913Y-52172455D01*
X75832600Y-52173879D01*
X75832598Y-52173879D01*
X75622067Y-52230291D01*
X75622065Y-52230292D01*
X75616757Y-52231714D01*
X75611776Y-52234036D01*
X75611775Y-52234037D01*
X75414237Y-52326150D01*
X75414232Y-52326153D01*
X75409250Y-52328476D01*
X75404743Y-52331632D01*
X75404741Y-52331633D01*
X75226209Y-52456642D01*
X75226206Y-52456644D01*
X75221698Y-52459801D01*
X75059801Y-52621698D01*
X75056644Y-52626206D01*
X75056642Y-52626209D01*
X74967314Y-52753784D01*
X74928476Y-52809250D01*
X74926153Y-52814232D01*
X74924829Y-52816525D01*
X74873446Y-52865517D01*
X74803732Y-52878952D01*
X74737822Y-52852565D01*
X74706591Y-52816521D01*
X74699938Y-52804996D01*
X74663494Y-52752950D01*
X74653015Y-52744574D01*
X74639570Y-52751641D01*
X73938021Y-53453189D01*
X73930408Y-53467132D01*
X73200355Y-53467132D01*
X73201592Y-53464868D01*
X73201461Y-53463034D01*
X73197210Y-53456420D01*
X72491706Y-52750917D01*
X72479936Y-52744490D01*
X72467922Y-52753784D01*
X72432066Y-52804992D01*
X72426583Y-52814487D01*
X72334509Y-53011943D01*
X72330761Y-53022239D01*
X72274370Y-53232690D01*
X72272468Y-53243477D01*
X72253479Y-53460525D01*
X60700429Y-53460525D01*
X59618889Y-52378985D01*
X72844574Y-52378985D01*
X72851641Y-52392430D01*
X73553189Y-53093979D01*
X73567132Y-53101592D01*
X73568966Y-53101461D01*
X73575580Y-53097210D01*
X74281083Y-52391706D01*
X74287510Y-52379936D01*
X74278216Y-52367922D01*
X74227008Y-52332066D01*
X74217513Y-52326583D01*
X74020057Y-52234509D01*
X74009761Y-52230761D01*
X73799310Y-52174370D01*
X73788523Y-52172468D01*
X73571475Y-52153479D01*
X73560525Y-52153479D01*
X73343477Y-52172468D01*
X73332690Y-52174370D01*
X73122239Y-52230761D01*
X73111943Y-52234509D01*
X72914487Y-52326583D01*
X72904992Y-52332066D01*
X72852950Y-52368506D01*
X72844574Y-52378985D01*
X59618889Y-52378985D01*
X58672204Y-51432300D01*
X58638178Y-51369988D01*
X58643243Y-51299173D01*
X58685790Y-51242337D01*
X58708049Y-51229010D01*
X58817763Y-51177850D01*
X58817768Y-51177847D01*
X58822750Y-51175524D01*
X58844825Y-51160067D01*
X59005791Y-51047358D01*
X59005794Y-51047356D01*
X59010302Y-51044199D01*
X59172199Y-50882302D01*
X59190456Y-50856229D01*
X59300367Y-50699259D01*
X59300368Y-50699257D01*
X59303524Y-50694750D01*
X59305847Y-50689768D01*
X59305850Y-50689763D01*
X59321805Y-50655546D01*
X59368722Y-50602261D01*
X59436999Y-50582800D01*
X59504959Y-50603342D01*
X59550195Y-50655546D01*
X59566150Y-50689763D01*
X59566153Y-50689768D01*
X59568476Y-50694750D01*
X59571632Y-50699257D01*
X59571633Y-50699259D01*
X59681545Y-50856229D01*
X59699801Y-50882302D01*
X59861698Y-51044199D01*
X59866206Y-51047356D01*
X59866209Y-51047358D01*
X60027175Y-51160067D01*
X60049250Y-51175524D01*
X60054232Y-51177847D01*
X60054237Y-51177850D01*
X60163951Y-51229010D01*
X60256757Y-51272286D01*
X60262065Y-51273708D01*
X60262067Y-51273709D01*
X60472598Y-51330121D01*
X60472600Y-51330121D01*
X60477913Y-51331545D01*
X60706000Y-51351500D01*
X60934087Y-51331545D01*
X60939400Y-51330121D01*
X60939402Y-51330121D01*
X61149933Y-51273709D01*
X61149935Y-51273708D01*
X61155243Y-51272286D01*
X61248049Y-51229010D01*
X61357763Y-51177850D01*
X61357768Y-51177847D01*
X61362750Y-51175524D01*
X61384825Y-51160067D01*
X61545791Y-51047358D01*
X61545794Y-51047356D01*
X61550302Y-51044199D01*
X61712199Y-50882302D01*
X61730456Y-50856229D01*
X61840367Y-50699259D01*
X61840368Y-50699257D01*
X61843524Y-50694750D01*
X61845847Y-50689768D01*
X61845850Y-50689763D01*
X61861805Y-50655546D01*
X61908722Y-50602261D01*
X61976999Y-50582800D01*
X62044959Y-50603342D01*
X62090195Y-50655546D01*
X62106150Y-50689763D01*
X62106153Y-50689768D01*
X62108476Y-50694750D01*
X62111632Y-50699257D01*
X62111633Y-50699259D01*
X62221545Y-50856229D01*
X62239801Y-50882302D01*
X62401698Y-51044199D01*
X62406206Y-51047356D01*
X62406209Y-51047358D01*
X62567175Y-51160067D01*
X62589250Y-51175524D01*
X62594232Y-51177847D01*
X62594237Y-51177850D01*
X62703951Y-51229010D01*
X62796757Y-51272286D01*
X62802065Y-51273708D01*
X62802067Y-51273709D01*
X63012598Y-51330121D01*
X63012600Y-51330121D01*
X63017913Y-51331545D01*
X63246000Y-51351500D01*
X63474087Y-51331545D01*
X63479400Y-51330121D01*
X63479402Y-51330121D01*
X63689933Y-51273709D01*
X63689935Y-51273708D01*
X63695243Y-51272286D01*
X63788049Y-51229010D01*
X63897763Y-51177850D01*
X63897768Y-51177847D01*
X63902750Y-51175524D01*
X63924825Y-51160067D01*
X64085791Y-51047358D01*
X64085794Y-51047356D01*
X64090302Y-51044199D01*
X64252199Y-50882302D01*
X64270456Y-50856229D01*
X64380367Y-50699259D01*
X64380368Y-50699257D01*
X64383524Y-50694750D01*
X64385847Y-50689768D01*
X64385850Y-50689763D01*
X64401805Y-50655546D01*
X64448722Y-50602261D01*
X64516999Y-50582800D01*
X64584959Y-50603342D01*
X64630195Y-50655546D01*
X64646150Y-50689763D01*
X64646153Y-50689768D01*
X64648476Y-50694750D01*
X64651632Y-50699257D01*
X64651633Y-50699259D01*
X64761545Y-50856229D01*
X64779801Y-50882302D01*
X64941698Y-51044199D01*
X64946206Y-51047356D01*
X64946209Y-51047358D01*
X65107175Y-51160067D01*
X65129250Y-51175524D01*
X65134232Y-51177847D01*
X65134237Y-51177850D01*
X65243951Y-51229010D01*
X65336757Y-51272286D01*
X65342065Y-51273708D01*
X65342067Y-51273709D01*
X65552598Y-51330121D01*
X65552600Y-51330121D01*
X65557913Y-51331545D01*
X65786000Y-51351500D01*
X66014087Y-51331545D01*
X66019400Y-51330121D01*
X66019402Y-51330121D01*
X66229933Y-51273709D01*
X66229935Y-51273708D01*
X66235243Y-51272286D01*
X66328049Y-51229010D01*
X66437763Y-51177850D01*
X66437768Y-51177847D01*
X66442750Y-51175524D01*
X66464825Y-51160067D01*
X66625791Y-51047358D01*
X66625794Y-51047356D01*
X66630302Y-51044199D01*
X66792199Y-50882302D01*
X66810456Y-50856229D01*
X66920367Y-50699259D01*
X66920368Y-50699257D01*
X66923524Y-50694750D01*
X66925847Y-50689768D01*
X66925850Y-50689763D01*
X66941805Y-50655546D01*
X66988722Y-50602261D01*
X67056999Y-50582800D01*
X67124959Y-50603342D01*
X67170195Y-50655546D01*
X67186150Y-50689763D01*
X67186153Y-50689768D01*
X67188476Y-50694750D01*
X67191632Y-50699257D01*
X67191633Y-50699259D01*
X67301545Y-50856229D01*
X67319801Y-50882302D01*
X67481698Y-51044199D01*
X67486206Y-51047356D01*
X67486209Y-51047358D01*
X67647175Y-51160067D01*
X67669250Y-51175524D01*
X67674232Y-51177847D01*
X67674237Y-51177850D01*
X67783951Y-51229010D01*
X67876757Y-51272286D01*
X67882065Y-51273708D01*
X67882067Y-51273709D01*
X68092598Y-51330121D01*
X68092600Y-51330121D01*
X68097913Y-51331545D01*
X68326000Y-51351500D01*
X68554087Y-51331545D01*
X68559400Y-51330121D01*
X68559402Y-51330121D01*
X68769933Y-51273709D01*
X68769935Y-51273708D01*
X68775243Y-51272286D01*
X68868049Y-51229010D01*
X68977763Y-51177850D01*
X68977768Y-51177847D01*
X68982750Y-51175524D01*
X69004825Y-51160067D01*
X69165791Y-51047358D01*
X69165794Y-51047356D01*
X69170302Y-51044199D01*
X69332199Y-50882302D01*
X69350456Y-50856229D01*
X69460367Y-50699259D01*
X69460368Y-50699257D01*
X69463524Y-50694750D01*
X69465847Y-50689768D01*
X69465850Y-50689763D01*
X69481805Y-50655546D01*
X69528722Y-50602261D01*
X69596999Y-50582800D01*
X69664959Y-50603342D01*
X69710195Y-50655546D01*
X69726150Y-50689763D01*
X69726153Y-50689768D01*
X69728476Y-50694750D01*
X69731632Y-50699257D01*
X69731633Y-50699259D01*
X69841545Y-50856229D01*
X69859801Y-50882302D01*
X70021698Y-51044199D01*
X70026206Y-51047356D01*
X70026209Y-51047358D01*
X70187175Y-51160067D01*
X70209250Y-51175524D01*
X70214232Y-51177847D01*
X70214237Y-51177850D01*
X70323951Y-51229010D01*
X70416757Y-51272286D01*
X70422065Y-51273708D01*
X70422067Y-51273709D01*
X70632598Y-51330121D01*
X70632600Y-51330121D01*
X70637913Y-51331545D01*
X70866000Y-51351500D01*
X71094087Y-51331545D01*
X71099400Y-51330121D01*
X71099402Y-51330121D01*
X71309933Y-51273709D01*
X71309935Y-51273708D01*
X71315243Y-51272286D01*
X71408049Y-51229010D01*
X71517763Y-51177850D01*
X71517768Y-51177847D01*
X71522750Y-51175524D01*
X71544825Y-51160067D01*
X71705791Y-51047358D01*
X71705794Y-51047356D01*
X71710302Y-51044199D01*
X71872199Y-50882302D01*
X71890456Y-50856229D01*
X72000367Y-50699259D01*
X72000368Y-50699257D01*
X72003524Y-50694750D01*
X72005847Y-50689768D01*
X72005850Y-50689763D01*
X72021805Y-50655546D01*
X72068722Y-50602261D01*
X72136999Y-50582800D01*
X72204959Y-50603342D01*
X72250195Y-50655546D01*
X72266150Y-50689763D01*
X72266153Y-50689768D01*
X72268476Y-50694750D01*
X72271632Y-50699257D01*
X72271633Y-50699259D01*
X72381545Y-50856229D01*
X72399801Y-50882302D01*
X72561698Y-51044199D01*
X72566206Y-51047356D01*
X72566209Y-51047358D01*
X72727175Y-51160067D01*
X72749250Y-51175524D01*
X72754232Y-51177847D01*
X72754237Y-51177850D01*
X72863951Y-51229010D01*
X72956757Y-51272286D01*
X72962065Y-51273708D01*
X72962067Y-51273709D01*
X73172598Y-51330121D01*
X73172600Y-51330121D01*
X73177913Y-51331545D01*
X73406000Y-51351500D01*
X73634087Y-51331545D01*
X73639400Y-51330121D01*
X73639402Y-51330121D01*
X73849933Y-51273709D01*
X73849935Y-51273708D01*
X73855243Y-51272286D01*
X73948049Y-51229010D01*
X74057763Y-51177850D01*
X74057768Y-51177847D01*
X74062750Y-51175524D01*
X74084825Y-51160067D01*
X74245791Y-51047358D01*
X74245794Y-51047356D01*
X74250302Y-51044199D01*
X74412199Y-50882302D01*
X74430456Y-50856229D01*
X74540367Y-50699259D01*
X74540368Y-50699257D01*
X74543524Y-50694750D01*
X74545847Y-50689768D01*
X74545850Y-50689763D01*
X74561805Y-50655546D01*
X74608722Y-50602261D01*
X74676999Y-50582800D01*
X74744959Y-50603342D01*
X74790195Y-50655546D01*
X74806150Y-50689763D01*
X74806153Y-50689768D01*
X74808476Y-50694750D01*
X74811632Y-50699257D01*
X74811633Y-50699259D01*
X74921545Y-50856229D01*
X74939801Y-50882302D01*
X75101698Y-51044199D01*
X75106206Y-51047356D01*
X75106209Y-51047358D01*
X75267175Y-51160067D01*
X75289250Y-51175524D01*
X75294232Y-51177847D01*
X75294237Y-51177850D01*
X75403951Y-51229010D01*
X75496757Y-51272286D01*
X75502065Y-51273708D01*
X75502067Y-51273709D01*
X75712598Y-51330121D01*
X75712600Y-51330121D01*
X75717913Y-51331545D01*
X75946000Y-51351500D01*
X76174087Y-51331545D01*
X76179400Y-51330121D01*
X76179402Y-51330121D01*
X76389933Y-51273709D01*
X76389935Y-51273708D01*
X76395243Y-51272286D01*
X76488049Y-51229010D01*
X76597763Y-51177850D01*
X76597768Y-51177847D01*
X76602750Y-51175524D01*
X76624825Y-51160067D01*
X76785791Y-51047358D01*
X76785794Y-51047356D01*
X76790302Y-51044199D01*
X76952199Y-50882302D01*
X76970456Y-50856229D01*
X77080367Y-50699259D01*
X77080368Y-50699257D01*
X77083524Y-50694750D01*
X77085847Y-50689768D01*
X77085850Y-50689763D01*
X77177963Y-50492225D01*
X77177964Y-50492224D01*
X77180286Y-50487243D01*
X77239545Y-50266087D01*
X77259500Y-50038000D01*
X77239545Y-49809913D01*
X77180286Y-49588757D01*
X77135727Y-49493200D01*
X77085850Y-49386237D01*
X77085847Y-49386232D01*
X77083524Y-49381250D01*
X76952199Y-49193698D01*
X76790302Y-49031801D01*
X76785794Y-49028644D01*
X76785791Y-49028642D01*
X76607259Y-48903633D01*
X76607257Y-48903632D01*
X76602750Y-48900476D01*
X76597768Y-48898153D01*
X76597763Y-48898150D01*
X76400225Y-48806037D01*
X76400224Y-48806036D01*
X76395243Y-48803714D01*
X76389935Y-48802292D01*
X76389933Y-48802291D01*
X76179402Y-48745879D01*
X76179400Y-48745879D01*
X76174087Y-48744455D01*
X75946000Y-48724500D01*
X75717913Y-48744455D01*
X75712600Y-48745879D01*
X75712598Y-48745879D01*
X75502067Y-48802291D01*
X75502065Y-48802292D01*
X75496757Y-48803714D01*
X75491776Y-48806036D01*
X75491775Y-48806037D01*
X75294237Y-48898150D01*
X75294232Y-48898153D01*
X75289250Y-48900476D01*
X75284743Y-48903632D01*
X75284741Y-48903633D01*
X75106209Y-49028642D01*
X75106206Y-49028644D01*
X75101698Y-49031801D01*
X74939801Y-49193698D01*
X74808476Y-49381250D01*
X74806153Y-49386232D01*
X74806150Y-49386237D01*
X74790195Y-49420454D01*
X74743278Y-49473739D01*
X74675001Y-49493200D01*
X74607041Y-49472658D01*
X74561805Y-49420454D01*
X74545850Y-49386237D01*
X74545847Y-49386232D01*
X74543524Y-49381250D01*
X74412199Y-49193698D01*
X74250302Y-49031801D01*
X74245794Y-49028644D01*
X74245791Y-49028642D01*
X74067259Y-48903633D01*
X74067257Y-48903632D01*
X74062750Y-48900476D01*
X74057768Y-48898153D01*
X74057763Y-48898150D01*
X73860225Y-48806037D01*
X73860224Y-48806036D01*
X73855243Y-48803714D01*
X73849935Y-48802292D01*
X73849933Y-48802291D01*
X73639402Y-48745879D01*
X73639400Y-48745879D01*
X73634087Y-48744455D01*
X73406000Y-48724500D01*
X73177913Y-48744455D01*
X73172600Y-48745879D01*
X73172598Y-48745879D01*
X72962067Y-48802291D01*
X72962065Y-48802292D01*
X72956757Y-48803714D01*
X72951776Y-48806036D01*
X72951775Y-48806037D01*
X72754237Y-48898150D01*
X72754232Y-48898153D01*
X72749250Y-48900476D01*
X72744743Y-48903632D01*
X72744741Y-48903633D01*
X72566209Y-49028642D01*
X72566206Y-49028644D01*
X72561698Y-49031801D01*
X72399801Y-49193698D01*
X72268476Y-49381250D01*
X72266153Y-49386232D01*
X72266150Y-49386237D01*
X72250195Y-49420454D01*
X72203278Y-49473739D01*
X72135001Y-49493200D01*
X72067041Y-49472658D01*
X72021805Y-49420454D01*
X72005850Y-49386237D01*
X72005847Y-49386232D01*
X72003524Y-49381250D01*
X71872199Y-49193698D01*
X71710302Y-49031801D01*
X71705794Y-49028644D01*
X71705791Y-49028642D01*
X71527259Y-48903633D01*
X71527257Y-48903632D01*
X71522750Y-48900476D01*
X71517768Y-48898153D01*
X71517763Y-48898150D01*
X71320225Y-48806037D01*
X71320224Y-48806036D01*
X71315243Y-48803714D01*
X71309935Y-48802292D01*
X71309933Y-48802291D01*
X71099402Y-48745879D01*
X71099400Y-48745879D01*
X71094087Y-48744455D01*
X70866000Y-48724500D01*
X70637913Y-48744455D01*
X70632600Y-48745879D01*
X70632598Y-48745879D01*
X70422067Y-48802291D01*
X70422065Y-48802292D01*
X70416757Y-48803714D01*
X70411776Y-48806036D01*
X70411775Y-48806037D01*
X70214237Y-48898150D01*
X70214232Y-48898153D01*
X70209250Y-48900476D01*
X70204743Y-48903632D01*
X70204741Y-48903633D01*
X70026209Y-49028642D01*
X70026206Y-49028644D01*
X70021698Y-49031801D01*
X69859801Y-49193698D01*
X69728476Y-49381250D01*
X69726153Y-49386232D01*
X69726150Y-49386237D01*
X69710195Y-49420454D01*
X69663278Y-49473739D01*
X69595001Y-49493200D01*
X69527041Y-49472658D01*
X69481805Y-49420454D01*
X69465850Y-49386237D01*
X69465847Y-49386232D01*
X69463524Y-49381250D01*
X69332199Y-49193698D01*
X69170302Y-49031801D01*
X69165794Y-49028644D01*
X69165791Y-49028642D01*
X68987259Y-48903633D01*
X68987257Y-48903632D01*
X68982750Y-48900476D01*
X68977768Y-48898153D01*
X68977763Y-48898150D01*
X68780225Y-48806037D01*
X68780224Y-48806036D01*
X68775243Y-48803714D01*
X68769935Y-48802292D01*
X68769933Y-48802291D01*
X68559402Y-48745879D01*
X68559400Y-48745879D01*
X68554087Y-48744455D01*
X68326000Y-48724500D01*
X68097913Y-48744455D01*
X68092600Y-48745879D01*
X68092598Y-48745879D01*
X67882067Y-48802291D01*
X67882065Y-48802292D01*
X67876757Y-48803714D01*
X67871776Y-48806036D01*
X67871775Y-48806037D01*
X67674237Y-48898150D01*
X67674232Y-48898153D01*
X67669250Y-48900476D01*
X67664743Y-48903632D01*
X67664741Y-48903633D01*
X67486209Y-49028642D01*
X67486206Y-49028644D01*
X67481698Y-49031801D01*
X67319801Y-49193698D01*
X67188476Y-49381250D01*
X67186153Y-49386232D01*
X67186150Y-49386237D01*
X67170195Y-49420454D01*
X67123278Y-49473739D01*
X67055001Y-49493200D01*
X66987041Y-49472658D01*
X66941805Y-49420454D01*
X66925850Y-49386237D01*
X66925847Y-49386232D01*
X66923524Y-49381250D01*
X66792199Y-49193698D01*
X66630302Y-49031801D01*
X66625794Y-49028644D01*
X66625791Y-49028642D01*
X66447259Y-48903633D01*
X66447257Y-48903632D01*
X66442750Y-48900476D01*
X66437768Y-48898153D01*
X66437763Y-48898150D01*
X66240225Y-48806037D01*
X66240224Y-48806036D01*
X66235243Y-48803714D01*
X66229935Y-48802292D01*
X66229933Y-48802291D01*
X66019402Y-48745879D01*
X66019400Y-48745879D01*
X66014087Y-48744455D01*
X65786000Y-48724500D01*
X65557913Y-48744455D01*
X65552600Y-48745879D01*
X65552598Y-48745879D01*
X65342067Y-48802291D01*
X65342065Y-48802292D01*
X65336757Y-48803714D01*
X65331776Y-48806036D01*
X65331775Y-48806037D01*
X65134237Y-48898150D01*
X65134232Y-48898153D01*
X65129250Y-48900476D01*
X65124743Y-48903632D01*
X65124741Y-48903633D01*
X64946209Y-49028642D01*
X64946206Y-49028644D01*
X64941698Y-49031801D01*
X64779801Y-49193698D01*
X64648476Y-49381250D01*
X64646153Y-49386232D01*
X64646150Y-49386237D01*
X64630195Y-49420454D01*
X64583278Y-49473739D01*
X64515001Y-49493200D01*
X64447041Y-49472658D01*
X64401805Y-49420454D01*
X64385850Y-49386237D01*
X64385847Y-49386232D01*
X64383524Y-49381250D01*
X64252199Y-49193698D01*
X64090302Y-49031801D01*
X64085794Y-49028644D01*
X64085791Y-49028642D01*
X63907259Y-48903633D01*
X63907257Y-48903632D01*
X63902750Y-48900476D01*
X63897768Y-48898153D01*
X63897763Y-48898150D01*
X63700225Y-48806037D01*
X63700224Y-48806036D01*
X63695243Y-48803714D01*
X63689935Y-48802292D01*
X63689933Y-48802291D01*
X63479402Y-48745879D01*
X63479400Y-48745879D01*
X63474087Y-48744455D01*
X63246000Y-48724500D01*
X63017913Y-48744455D01*
X63012600Y-48745879D01*
X63012598Y-48745879D01*
X62802067Y-48802291D01*
X62802065Y-48802292D01*
X62796757Y-48803714D01*
X62791776Y-48806036D01*
X62791775Y-48806037D01*
X62594237Y-48898150D01*
X62594232Y-48898153D01*
X62589250Y-48900476D01*
X62584743Y-48903632D01*
X62584741Y-48903633D01*
X62406209Y-49028642D01*
X62406206Y-49028644D01*
X62401698Y-49031801D01*
X62239801Y-49193698D01*
X62108476Y-49381250D01*
X62106153Y-49386232D01*
X62106150Y-49386237D01*
X62090195Y-49420454D01*
X62043278Y-49473739D01*
X61975001Y-49493200D01*
X61907041Y-49472658D01*
X61861805Y-49420454D01*
X61845850Y-49386237D01*
X61845847Y-49386232D01*
X61843524Y-49381250D01*
X61712199Y-49193698D01*
X61550302Y-49031801D01*
X61545794Y-49028644D01*
X61545791Y-49028642D01*
X61367259Y-48903633D01*
X61367257Y-48903632D01*
X61362750Y-48900476D01*
X61357768Y-48898153D01*
X61357763Y-48898150D01*
X61160225Y-48806037D01*
X61160224Y-48806036D01*
X61155243Y-48803714D01*
X61149935Y-48802292D01*
X61149933Y-48802291D01*
X60939402Y-48745879D01*
X60939400Y-48745879D01*
X60934087Y-48744455D01*
X60706000Y-48724500D01*
X60477913Y-48744455D01*
X60472600Y-48745879D01*
X60472598Y-48745879D01*
X60262067Y-48802291D01*
X60262065Y-48802292D01*
X60256757Y-48803714D01*
X60251776Y-48806036D01*
X60251775Y-48806037D01*
X60054237Y-48898150D01*
X60054232Y-48898153D01*
X60049250Y-48900476D01*
X60005706Y-48930966D01*
X59938435Y-48953653D01*
X59869574Y-48936369D01*
X59844342Y-48916847D01*
X54348981Y-43421487D01*
X54341621Y-43413399D01*
X54337563Y-43407005D01*
X54288711Y-43361130D01*
X54285870Y-43358376D01*
X54265556Y-43338062D01*
X54262145Y-43335417D01*
X54253123Y-43327711D01*
X54234110Y-43309856D01*
X54220891Y-43297443D01*
X54213947Y-43293626D01*
X54213945Y-43293624D01*
X54203137Y-43287682D01*
X54186613Y-43276828D01*
X54176876Y-43269275D01*
X54176875Y-43269275D01*
X54170613Y-43264417D01*
X54163340Y-43261270D01*
X54163337Y-43261268D01*
X54140907Y-43251562D01*
X54130048Y-43246863D01*
X54119390Y-43241642D01*
X54087584Y-43224156D01*
X54087580Y-43224154D01*
X54080638Y-43220338D01*
X54072963Y-43218368D01*
X54072962Y-43218367D01*
X54061016Y-43215300D01*
X54042309Y-43208895D01*
X54031000Y-43204001D01*
X54030998Y-43204001D01*
X54023725Y-43200853D01*
X54015897Y-43199613D01*
X54015896Y-43199613D01*
X53980063Y-43193938D01*
X53968438Y-43191530D01*
X53931372Y-43182013D01*
X53931370Y-43182013D01*
X53925615Y-43180535D01*
X53925059Y-43180500D01*
X53905136Y-43180500D01*
X53885427Y-43178949D01*
X53865645Y-43175816D01*
X53857753Y-43176562D01*
X53822008Y-43179941D01*
X53810150Y-43180500D01*
X40330383Y-43180500D01*
X40319479Y-43179986D01*
X40312088Y-43178334D01*
X40304163Y-43178583D01*
X40304162Y-43178583D01*
X40245147Y-43180438D01*
X40241189Y-43180500D01*
X40212422Y-43180500D01*
X40208137Y-43181041D01*
X40196303Y-43181973D01*
X40170286Y-43182791D01*
X40160036Y-43183113D01*
X40160035Y-43183113D01*
X40152116Y-43183362D01*
X40144508Y-43185572D01*
X40144503Y-43185573D01*
X40132661Y-43189013D01*
X40113307Y-43193021D01*
X40101079Y-43194566D01*
X40093212Y-43195560D01*
X40085844Y-43198477D01*
X40085837Y-43198479D01*
X40052099Y-43211837D01*
X40040869Y-43215682D01*
X40006031Y-43225803D01*
X40006030Y-43225804D01*
X39998421Y-43228014D01*
X39980988Y-43238324D01*
X39963241Y-43247018D01*
X39944400Y-43254478D01*
X39930720Y-43264417D01*
X39908629Y-43280467D01*
X39898712Y-43286982D01*
X39860658Y-43309487D01*
X39860240Y-43309856D01*
X39846158Y-43323938D01*
X39831133Y-43336772D01*
X39814917Y-43348554D01*
X39786971Y-43382335D01*
X39778981Y-43391115D01*
X36303486Y-46866610D01*
X36295399Y-46873969D01*
X36289005Y-46878027D01*
X36283580Y-46883804D01*
X36283579Y-46883805D01*
X36243137Y-46926872D01*
X36240381Y-46929715D01*
X36220062Y-46950034D01*
X36217638Y-46953159D01*
X36217631Y-46953167D01*
X36217411Y-46953451D01*
X36209703Y-46962476D01*
X36179443Y-46994700D01*
X36169687Y-47012446D01*
X36158836Y-47028965D01*
X36151278Y-47038709D01*
X36151275Y-47038714D01*
X36146417Y-47044977D01*
X36143268Y-47052255D01*
X36128861Y-47085547D01*
X36123638Y-47096208D01*
X36102338Y-47134953D01*
X36100366Y-47142635D01*
X36100365Y-47142636D01*
X36097298Y-47154578D01*
X36090898Y-47173273D01*
X36082853Y-47191865D01*
X36081613Y-47199694D01*
X36075937Y-47235529D01*
X36073530Y-47247150D01*
X36064013Y-47284219D01*
X36062535Y-47289976D01*
X36062500Y-47290532D01*
X36062500Y-47310454D01*
X36060949Y-47330163D01*
X36057816Y-47349945D01*
X36058562Y-47357837D01*
X36061941Y-47393583D01*
X36062500Y-47405441D01*
X36062501Y-53387600D01*
X36061986Y-53398520D01*
X36060334Y-53405912D01*
X36060583Y-53413835D01*
X36062439Y-53472884D01*
X36062501Y-53476842D01*
X36062501Y-53505578D01*
X36062996Y-53509495D01*
X36063040Y-53509844D01*
X36063972Y-53521678D01*
X36065362Y-53565883D01*
X36067575Y-53573499D01*
X36067575Y-53573501D01*
X36071014Y-53585339D01*
X36075023Y-53604698D01*
X36077561Y-53624788D01*
X36080481Y-53632163D01*
X36093833Y-53665889D01*
X36097678Y-53677118D01*
X36104126Y-53699310D01*
X36110014Y-53719578D01*
X36114049Y-53726401D01*
X36120327Y-53737017D01*
X36129023Y-53754769D01*
X36136479Y-53773600D01*
X36141141Y-53780016D01*
X36162468Y-53809371D01*
X36168983Y-53819289D01*
X36191487Y-53857341D01*
X36191855Y-53857759D01*
X36205938Y-53871842D01*
X36218779Y-53886875D01*
X36230555Y-53903083D01*
X36264330Y-53931024D01*
X36273110Y-53939014D01*
X39748609Y-57414513D01*
X39755969Y-57422601D01*
X39760027Y-57428995D01*
X39765804Y-57434420D01*
X39808878Y-57474869D01*
X39811720Y-57477624D01*
X39832033Y-57497937D01*
X39835444Y-57500582D01*
X39844464Y-57508286D01*
X39876699Y-57538557D01*
X39883644Y-57542375D01*
X39883647Y-57542377D01*
X39894452Y-57548317D01*
X39910979Y-57559173D01*
X39926976Y-57571582D01*
X39967555Y-57589143D01*
X39978187Y-57594351D01*
X40016952Y-57615662D01*
X40024629Y-57617633D01*
X40024634Y-57617635D01*
X40036566Y-57620698D01*
X40055274Y-57627103D01*
X40059613Y-57628980D01*
X40066592Y-57632001D01*
X40066596Y-57632002D01*
X40073863Y-57635147D01*
X40081687Y-57636386D01*
X40081690Y-57636387D01*
X40102501Y-57639683D01*
X40117537Y-57642064D01*
X40129145Y-57644468D01*
X40171975Y-57655465D01*
X40172531Y-57655500D01*
X40192453Y-57655500D01*
X40212162Y-57657051D01*
X40231944Y-57660184D01*
X40239835Y-57659438D01*
X40275579Y-57656059D01*
X40287437Y-57655500D01*
X47811405Y-57655500D01*
X47879526Y-57675502D01*
X47900501Y-57692405D01*
X48471596Y-58263501D01*
X48505621Y-58325813D01*
X48508500Y-58352596D01*
X48508500Y-60192500D01*
X48488498Y-60260621D01*
X48434842Y-60307114D01*
X48382500Y-60318500D01*
X48252000Y-60318500D01*
X48178921Y-60323727D01*
X48111502Y-60343523D01*
X48047330Y-60362365D01*
X48047328Y-60362366D01*
X48038684Y-60364904D01*
X48031105Y-60369775D01*
X47940281Y-60428144D01*
X47872160Y-60448146D01*
X47804039Y-60428144D01*
X47789649Y-60417371D01*
X47776435Y-60405921D01*
X47776430Y-60405918D01*
X47769619Y-60400016D01*
X47761421Y-60396272D01*
X47644864Y-60343042D01*
X47644863Y-60343042D01*
X47636670Y-60339300D01*
X47627755Y-60338018D01*
X47627754Y-60338018D01*
X47496448Y-60319139D01*
X47496441Y-60319138D01*
X47492000Y-60318500D01*
X45712000Y-60318500D01*
X45638921Y-60323727D01*
X45571502Y-60343523D01*
X45507330Y-60362365D01*
X45507328Y-60362366D01*
X45498684Y-60364904D01*
X45491105Y-60369775D01*
X45400281Y-60428144D01*
X45332160Y-60448146D01*
X45264039Y-60428144D01*
X45249649Y-60417371D01*
X45236435Y-60405921D01*
X45236430Y-60405918D01*
X45229619Y-60400016D01*
X45221421Y-60396272D01*
X45104864Y-60343042D01*
X45104863Y-60343042D01*
X45096670Y-60339300D01*
X45087755Y-60338018D01*
X45087754Y-60338018D01*
X44956448Y-60319139D01*
X44956441Y-60319138D01*
X44952000Y-60318500D01*
X43172000Y-60318500D01*
X43098921Y-60323727D01*
X43031502Y-60343523D01*
X42967330Y-60362365D01*
X42967328Y-60362366D01*
X42958684Y-60364904D01*
X42951105Y-60369775D01*
X42860281Y-60428144D01*
X42792160Y-60448146D01*
X42724039Y-60428144D01*
X42709649Y-60417371D01*
X42696435Y-60405921D01*
X42696430Y-60405918D01*
X42689619Y-60400016D01*
X42681421Y-60396272D01*
X42564864Y-60343042D01*
X42564863Y-60343042D01*
X42556670Y-60339300D01*
X42547755Y-60338018D01*
X42547754Y-60338018D01*
X42416448Y-60319139D01*
X42416441Y-60319138D01*
X42412000Y-60318500D01*
X40632000Y-60318500D01*
X40558921Y-60323727D01*
X40491502Y-60343523D01*
X40427330Y-60362365D01*
X40427328Y-60362366D01*
X40418684Y-60364904D01*
X40411105Y-60369775D01*
X40320281Y-60428144D01*
X40252160Y-60448146D01*
X40184039Y-60428144D01*
X40169649Y-60417371D01*
X40156435Y-60405921D01*
X40156430Y-60405918D01*
X40149619Y-60400016D01*
X40141421Y-60396272D01*
X40024864Y-60343042D01*
X40024863Y-60343042D01*
X40016670Y-60339300D01*
X40007755Y-60338018D01*
X40007754Y-60338018D01*
X39876448Y-60319139D01*
X39876441Y-60319138D01*
X39872000Y-60318500D01*
X38092000Y-60318500D01*
X38018921Y-60323727D01*
X37951502Y-60343523D01*
X37887330Y-60362365D01*
X37887328Y-60362366D01*
X37878684Y-60364904D01*
X37871105Y-60369775D01*
X37780281Y-60428144D01*
X37712160Y-60448146D01*
X37644039Y-60428144D01*
X37629649Y-60417371D01*
X37616435Y-60405921D01*
X37616430Y-60405918D01*
X37609619Y-60400016D01*
X37601421Y-60396272D01*
X37484864Y-60343042D01*
X37484863Y-60343042D01*
X37476670Y-60339300D01*
X37467755Y-60338018D01*
X37467754Y-60338018D01*
X37336448Y-60319139D01*
X37336441Y-60319138D01*
X37332000Y-60318500D01*
X37326500Y-60318500D01*
X37326177Y-60318405D01*
X37323014Y-60318179D01*
X37323063Y-60317491D01*
X37258379Y-60298498D01*
X37211886Y-60244842D01*
X37200500Y-60192500D01*
X37200500Y-59844992D01*
X37217381Y-59781992D01*
X37273220Y-59685277D01*
X37273221Y-59685276D01*
X37276524Y-59679554D01*
X37302235Y-59600423D01*
X37333498Y-59504206D01*
X37333498Y-59504205D01*
X37335538Y-59497927D01*
X37339973Y-59455736D01*
X37354810Y-59314565D01*
X37355500Y-59308000D01*
X37339699Y-59157660D01*
X37336228Y-59124637D01*
X37336228Y-59124636D01*
X37335538Y-59118073D01*
X37330054Y-59101193D01*
X37278566Y-58942731D01*
X37276524Y-58936446D01*
X37181037Y-58771058D01*
X37053251Y-58629137D01*
X37047909Y-58625256D01*
X37047907Y-58625254D01*
X36904092Y-58520767D01*
X36904091Y-58520766D01*
X36898750Y-58516886D01*
X36892722Y-58514202D01*
X36892720Y-58514201D01*
X36730318Y-58441895D01*
X36730317Y-58441895D01*
X36724287Y-58439210D01*
X36630887Y-58419357D01*
X36543944Y-58400876D01*
X36543939Y-58400876D01*
X36537487Y-58399504D01*
X36346513Y-58399504D01*
X36340061Y-58400876D01*
X36340056Y-58400876D01*
X36253113Y-58419357D01*
X36159713Y-58439210D01*
X36153683Y-58441895D01*
X36153682Y-58441895D01*
X35991278Y-58514202D01*
X35985250Y-58516886D01*
X35979914Y-58520763D01*
X35979912Y-58520764D01*
X35973479Y-58525438D01*
X35899420Y-58549500D01*
X34444580Y-58549500D01*
X34370521Y-58525438D01*
X34364088Y-58520764D01*
X34364086Y-58520763D01*
X34358750Y-58516886D01*
X34352722Y-58514202D01*
X34190318Y-58441895D01*
X34190317Y-58441895D01*
X34184287Y-58439210D01*
X34090887Y-58419357D01*
X34003944Y-58400876D01*
X34003939Y-58400876D01*
X33997487Y-58399504D01*
X33806513Y-58399504D01*
X33800061Y-58400876D01*
X33800056Y-58400876D01*
X33713113Y-58419357D01*
X33619713Y-58439210D01*
X33613683Y-58441895D01*
X33613682Y-58441895D01*
X33451280Y-58514201D01*
X33451278Y-58514202D01*
X33445250Y-58516886D01*
X33439909Y-58520766D01*
X33439908Y-58520767D01*
X33296093Y-58625254D01*
X33296091Y-58625256D01*
X33290749Y-58629137D01*
X33162963Y-58771058D01*
X33067476Y-58936446D01*
X33065434Y-58942731D01*
X33013947Y-59101193D01*
X33008462Y-59118073D01*
X33007772Y-59124636D01*
X33007772Y-59124637D01*
X33004301Y-59157660D01*
X32988500Y-59308000D01*
X32989190Y-59314565D01*
X33004028Y-59455736D01*
X33008462Y-59497927D01*
X33010502Y-59504205D01*
X33010502Y-59504206D01*
X33041765Y-59600423D01*
X33067476Y-59679554D01*
X33070779Y-59685276D01*
X33070780Y-59685277D01*
X33126619Y-59781992D01*
X33143500Y-59844992D01*
X33143500Y-60192500D01*
X33123498Y-60260621D01*
X33069842Y-60307114D01*
X33017500Y-60318500D01*
X33012000Y-60318500D01*
X32938921Y-60323727D01*
X32871502Y-60343523D01*
X32807330Y-60362365D01*
X32807328Y-60362366D01*
X32798684Y-60364904D01*
X32791105Y-60369775D01*
X32699847Y-60428423D01*
X32631726Y-60448425D01*
X32563605Y-60428423D01*
X32549214Y-60417650D01*
X32536160Y-60406338D01*
X32521152Y-60396693D01*
X32404725Y-60343523D01*
X32387612Y-60338498D01*
X32256446Y-60319639D01*
X32247505Y-60319000D01*
X31634115Y-60319000D01*
X31618876Y-60323475D01*
X31617671Y-60324865D01*
X31616000Y-60332548D01*
X31616000Y-64770000D01*
X31595998Y-64838121D01*
X31542342Y-64884614D01*
X31490000Y-64896000D01*
X27437115Y-64896000D01*
X27421876Y-64900475D01*
X27420671Y-64901865D01*
X27419000Y-64909548D01*
X27419000Y-68072000D01*
X27398998Y-68140121D01*
X27345342Y-68186614D01*
X27293000Y-68198000D01*
X26662000Y-68198000D01*
X26593879Y-68177998D01*
X26547386Y-68124342D01*
X26536000Y-68072000D01*
X26536000Y-60836495D01*
X27419000Y-60836495D01*
X27419000Y-64369885D01*
X27423475Y-64385124D01*
X27424865Y-64386329D01*
X27432548Y-64388000D01*
X28549885Y-64388000D01*
X28565124Y-64383525D01*
X28566329Y-64382135D01*
X28568000Y-64374452D01*
X28568000Y-60337115D01*
X28566659Y-60332548D01*
X29076000Y-60332548D01*
X29076000Y-64369885D01*
X29080475Y-64385124D01*
X29081865Y-64386329D01*
X29089548Y-64388000D01*
X31089885Y-64388000D01*
X31105124Y-64383525D01*
X31106329Y-64382135D01*
X31108000Y-64374452D01*
X31108000Y-60337115D01*
X31103525Y-60321876D01*
X31102135Y-60320671D01*
X31094452Y-60319000D01*
X30474257Y-60319000D01*
X30469750Y-60319161D01*
X30405731Y-60323740D01*
X30392509Y-60326126D01*
X30267542Y-60362819D01*
X30251308Y-60370233D01*
X30160236Y-60428761D01*
X30092116Y-60448763D01*
X30023995Y-60428761D01*
X30009604Y-60417988D01*
X29996160Y-60406338D01*
X29981152Y-60396693D01*
X29864725Y-60343523D01*
X29847612Y-60338498D01*
X29716446Y-60319639D01*
X29707505Y-60319000D01*
X29094115Y-60319000D01*
X29078876Y-60323475D01*
X29077671Y-60324865D01*
X29076000Y-60332548D01*
X28566659Y-60332548D01*
X28563525Y-60321876D01*
X28562135Y-60320671D01*
X28554452Y-60319000D01*
X27934257Y-60319000D01*
X27929750Y-60319161D01*
X27865731Y-60323740D01*
X27852509Y-60326126D01*
X27727542Y-60362819D01*
X27711308Y-60370233D01*
X27603640Y-60439426D01*
X27590153Y-60451112D01*
X27506338Y-60547840D01*
X27496693Y-60562848D01*
X27443523Y-60679275D01*
X27438498Y-60696388D01*
X27419639Y-60827554D01*
X27419000Y-60836495D01*
X26536000Y-60836495D01*
X26536000Y-59534378D01*
X26536002Y-59533608D01*
X26536032Y-59528736D01*
X26536254Y-59492378D01*
X26532024Y-59477576D01*
X26528141Y-59463987D01*
X26524564Y-59447230D01*
X26521653Y-59426903D01*
X26521652Y-59426900D01*
X26520380Y-59418018D01*
X26516665Y-59409848D01*
X26516664Y-59409844D01*
X26509776Y-59394695D01*
X26503327Y-59377167D01*
X26498752Y-59361158D01*
X26498749Y-59361151D01*
X26496284Y-59352526D01*
X26480528Y-59327555D01*
X26472395Y-59312481D01*
X26460178Y-59285611D01*
X26443450Y-59266197D01*
X26432346Y-59251190D01*
X26418669Y-59229514D01*
X26396544Y-59209974D01*
X26384500Y-59197781D01*
X26371095Y-59182223D01*
X26371091Y-59182220D01*
X26365234Y-59175422D01*
X26343730Y-59161484D01*
X26328855Y-59150193D01*
X26316377Y-59139173D01*
X26309649Y-59133231D01*
X26282923Y-59120684D01*
X26267946Y-59112364D01*
X26250712Y-59101193D01*
X26250710Y-59101192D01*
X26243178Y-59096310D01*
X26234504Y-59093716D01*
X26218626Y-59088967D01*
X26201180Y-59082305D01*
X26186112Y-59075231D01*
X26186113Y-59075231D01*
X26177987Y-59071416D01*
X26169122Y-59070036D01*
X26169120Y-59070035D01*
X26154556Y-59067768D01*
X26148814Y-59066874D01*
X26132107Y-59063093D01*
X26118248Y-59058948D01*
X26058717Y-59020266D01*
X26029549Y-58955537D01*
X26028355Y-58938161D01*
X26029333Y-57218778D01*
X26029452Y-57010309D01*
X26041935Y-35064521D01*
X41643269Y-35064521D01*
X41690761Y-35241762D01*
X41694507Y-35252054D01*
X41786583Y-35449513D01*
X41792066Y-35459009D01*
X41917025Y-35637469D01*
X41924081Y-35645877D01*
X42078123Y-35799919D01*
X42086531Y-35806975D01*
X42264991Y-35931934D01*
X42274487Y-35937417D01*
X42471943Y-36029491D01*
X42482239Y-36033239D01*
X42654503Y-36079398D01*
X42668599Y-36079062D01*
X42672000Y-36071120D01*
X42672001Y-35070115D01*
X42667526Y-35054876D01*
X42666136Y-35053671D01*
X42658453Y-35052000D01*
X41658029Y-35051999D01*
X41644498Y-35055972D01*
X41643269Y-35064521D01*
X26041935Y-35064521D01*
X26042241Y-34526503D01*
X41644602Y-34526503D01*
X41644938Y-34540599D01*
X41652880Y-34544000D01*
X42653885Y-34544001D01*
X42653895Y-34543998D01*
X43179999Y-34543998D01*
X43180000Y-34544004D01*
X43179999Y-36065971D01*
X43183972Y-36079502D01*
X43192521Y-36080731D01*
X43369762Y-36033239D01*
X43380054Y-36029493D01*
X43577513Y-35937417D01*
X43587009Y-35931934D01*
X43765469Y-35806975D01*
X43773877Y-35799919D01*
X43927919Y-35645877D01*
X43934975Y-35637469D01*
X44059934Y-35459009D01*
X44065419Y-35449509D01*
X44081530Y-35414958D01*
X44128447Y-35361672D01*
X44196724Y-35342211D01*
X44264684Y-35362753D01*
X44309920Y-35414957D01*
X44310195Y-35415546D01*
X44328476Y-35454750D01*
X44459801Y-35642302D01*
X44621698Y-35804199D01*
X44626206Y-35807356D01*
X44626209Y-35807358D01*
X44733425Y-35882431D01*
X44809250Y-35935524D01*
X44814232Y-35937847D01*
X44814237Y-35937850D01*
X44903057Y-35979267D01*
X45016757Y-36032286D01*
X45022065Y-36033708D01*
X45022067Y-36033709D01*
X45232598Y-36090121D01*
X45232600Y-36090121D01*
X45237913Y-36091545D01*
X45466000Y-36111500D01*
X45694087Y-36091545D01*
X45699400Y-36090121D01*
X45699402Y-36090121D01*
X45909933Y-36033709D01*
X45909935Y-36033708D01*
X45915243Y-36032286D01*
X46028943Y-35979267D01*
X46117763Y-35937850D01*
X46117768Y-35937847D01*
X46122750Y-35935524D01*
X46198575Y-35882431D01*
X46305791Y-35807358D01*
X46305794Y-35807356D01*
X46310302Y-35804199D01*
X46472199Y-35642302D01*
X46603524Y-35454750D01*
X46605847Y-35449768D01*
X46605850Y-35449763D01*
X46621805Y-35415546D01*
X46668722Y-35362261D01*
X46736999Y-35342800D01*
X46804959Y-35363342D01*
X46850195Y-35415546D01*
X46866150Y-35449763D01*
X46866153Y-35449768D01*
X46868476Y-35454750D01*
X46999801Y-35642302D01*
X47161698Y-35804199D01*
X47166206Y-35807356D01*
X47166209Y-35807358D01*
X47273425Y-35882431D01*
X47349250Y-35935524D01*
X47354232Y-35937847D01*
X47354237Y-35937850D01*
X47443057Y-35979267D01*
X47556757Y-36032286D01*
X47562065Y-36033708D01*
X47562067Y-36033709D01*
X47772598Y-36090121D01*
X47772600Y-36090121D01*
X47777913Y-36091545D01*
X48006000Y-36111500D01*
X48234087Y-36091545D01*
X48239400Y-36090121D01*
X48239402Y-36090121D01*
X48449933Y-36033709D01*
X48449935Y-36033708D01*
X48455243Y-36032286D01*
X48568943Y-35979267D01*
X48657763Y-35937850D01*
X48657768Y-35937847D01*
X48662750Y-35935524D01*
X48738575Y-35882431D01*
X48845791Y-35807358D01*
X48845794Y-35807356D01*
X48850302Y-35804199D01*
X49012199Y-35642302D01*
X49143524Y-35454750D01*
X49145847Y-35449768D01*
X49145850Y-35449763D01*
X49161805Y-35415546D01*
X49208722Y-35362261D01*
X49276999Y-35342800D01*
X49344959Y-35363342D01*
X49390195Y-35415546D01*
X49406150Y-35449763D01*
X49406153Y-35449768D01*
X49408476Y-35454750D01*
X49539801Y-35642302D01*
X49701698Y-35804199D01*
X49706206Y-35807356D01*
X49706209Y-35807358D01*
X49813425Y-35882431D01*
X49889250Y-35935524D01*
X49894232Y-35937847D01*
X49894237Y-35937850D01*
X49983057Y-35979267D01*
X50096757Y-36032286D01*
X50102065Y-36033708D01*
X50102067Y-36033709D01*
X50312598Y-36090121D01*
X50312600Y-36090121D01*
X50317913Y-36091545D01*
X50546000Y-36111500D01*
X50774087Y-36091545D01*
X50779400Y-36090121D01*
X50779402Y-36090121D01*
X50989933Y-36033709D01*
X50989935Y-36033708D01*
X50995243Y-36032286D01*
X51108943Y-35979267D01*
X51197763Y-35937850D01*
X51197768Y-35937847D01*
X51202750Y-35935524D01*
X51278575Y-35882431D01*
X51385791Y-35807358D01*
X51385794Y-35807356D01*
X51390302Y-35804199D01*
X51552199Y-35642302D01*
X51683524Y-35454750D01*
X51685847Y-35449768D01*
X51685850Y-35449763D01*
X51701805Y-35415546D01*
X51748722Y-35362261D01*
X51816999Y-35342800D01*
X51884959Y-35363342D01*
X51930195Y-35415546D01*
X51946150Y-35449763D01*
X51946153Y-35449768D01*
X51948476Y-35454750D01*
X52079801Y-35642302D01*
X52241698Y-35804199D01*
X52246206Y-35807356D01*
X52246209Y-35807358D01*
X52353425Y-35882431D01*
X52429250Y-35935524D01*
X52434232Y-35937847D01*
X52434237Y-35937850D01*
X52523057Y-35979267D01*
X52636757Y-36032286D01*
X52642065Y-36033708D01*
X52642067Y-36033709D01*
X52852598Y-36090121D01*
X52852600Y-36090121D01*
X52857913Y-36091545D01*
X53086000Y-36111500D01*
X53314087Y-36091545D01*
X53319400Y-36090121D01*
X53319402Y-36090121D01*
X53529933Y-36033709D01*
X53529935Y-36033708D01*
X53535243Y-36032286D01*
X53648943Y-35979267D01*
X53737763Y-35937850D01*
X53737768Y-35937847D01*
X53742750Y-35935524D01*
X53818575Y-35882431D01*
X53925791Y-35807358D01*
X53925794Y-35807356D01*
X53930302Y-35804199D01*
X54092199Y-35642302D01*
X54223524Y-35454750D01*
X54225847Y-35449768D01*
X54225850Y-35449763D01*
X54241805Y-35415546D01*
X54288722Y-35362261D01*
X54356999Y-35342800D01*
X54424959Y-35363342D01*
X54470195Y-35415546D01*
X54486150Y-35449763D01*
X54486153Y-35449768D01*
X54488476Y-35454750D01*
X54619801Y-35642302D01*
X54781698Y-35804199D01*
X54786206Y-35807356D01*
X54786209Y-35807358D01*
X54893425Y-35882431D01*
X54969250Y-35935524D01*
X54974232Y-35937847D01*
X54974237Y-35937850D01*
X55063057Y-35979267D01*
X55176757Y-36032286D01*
X55182065Y-36033708D01*
X55182067Y-36033709D01*
X55392598Y-36090121D01*
X55392600Y-36090121D01*
X55397913Y-36091545D01*
X55626000Y-36111500D01*
X55854087Y-36091545D01*
X55859400Y-36090121D01*
X55859402Y-36090121D01*
X56069933Y-36033709D01*
X56069935Y-36033708D01*
X56075243Y-36032286D01*
X56188943Y-35979267D01*
X56277763Y-35937850D01*
X56277768Y-35937847D01*
X56282750Y-35935524D01*
X56358575Y-35882431D01*
X56465791Y-35807358D01*
X56465794Y-35807356D01*
X56470302Y-35804199D01*
X56632199Y-35642302D01*
X56763524Y-35454750D01*
X56765847Y-35449768D01*
X56765850Y-35449763D01*
X56781805Y-35415546D01*
X56828722Y-35362261D01*
X56896999Y-35342800D01*
X56964959Y-35363342D01*
X57010195Y-35415546D01*
X57026150Y-35449763D01*
X57026153Y-35449768D01*
X57028476Y-35454750D01*
X57159801Y-35642302D01*
X57321698Y-35804199D01*
X57326206Y-35807356D01*
X57326209Y-35807358D01*
X57433425Y-35882431D01*
X57509250Y-35935524D01*
X57514232Y-35937847D01*
X57514237Y-35937850D01*
X57603057Y-35979267D01*
X57716757Y-36032286D01*
X57722065Y-36033708D01*
X57722067Y-36033709D01*
X57932598Y-36090121D01*
X57932600Y-36090121D01*
X57937913Y-36091545D01*
X58166000Y-36111500D01*
X58394087Y-36091545D01*
X58399400Y-36090121D01*
X58399402Y-36090121D01*
X58609933Y-36033709D01*
X58609935Y-36033708D01*
X58615243Y-36032286D01*
X58728943Y-35979267D01*
X58817763Y-35937850D01*
X58817768Y-35937847D01*
X58822750Y-35935524D01*
X58898575Y-35882431D01*
X59005791Y-35807358D01*
X59005794Y-35807356D01*
X59010302Y-35804199D01*
X59172199Y-35642302D01*
X59303524Y-35454750D01*
X59305847Y-35449768D01*
X59305850Y-35449763D01*
X59321805Y-35415546D01*
X59368722Y-35362261D01*
X59436999Y-35342800D01*
X59504959Y-35363342D01*
X59550195Y-35415546D01*
X59566150Y-35449763D01*
X59566153Y-35449768D01*
X59568476Y-35454750D01*
X59699801Y-35642302D01*
X59861698Y-35804199D01*
X59866206Y-35807356D01*
X59866209Y-35807358D01*
X59973425Y-35882431D01*
X60049250Y-35935524D01*
X60054232Y-35937847D01*
X60054237Y-35937850D01*
X60143057Y-35979267D01*
X60256757Y-36032286D01*
X60262065Y-36033708D01*
X60262067Y-36033709D01*
X60472598Y-36090121D01*
X60472600Y-36090121D01*
X60477913Y-36091545D01*
X60706000Y-36111500D01*
X60934087Y-36091545D01*
X60939400Y-36090121D01*
X60939402Y-36090121D01*
X61149933Y-36033709D01*
X61149935Y-36033708D01*
X61155243Y-36032286D01*
X61268943Y-35979267D01*
X61357763Y-35937850D01*
X61357768Y-35937847D01*
X61362750Y-35935524D01*
X61438575Y-35882431D01*
X61545791Y-35807358D01*
X61545794Y-35807356D01*
X61550302Y-35804199D01*
X61712199Y-35642302D01*
X61843524Y-35454750D01*
X61845847Y-35449768D01*
X61845850Y-35449763D01*
X61861805Y-35415546D01*
X61908722Y-35362261D01*
X61976999Y-35342800D01*
X62044959Y-35363342D01*
X62090195Y-35415546D01*
X62106150Y-35449763D01*
X62106153Y-35449768D01*
X62108476Y-35454750D01*
X62239801Y-35642302D01*
X62401698Y-35804199D01*
X62406206Y-35807356D01*
X62406209Y-35807358D01*
X62513425Y-35882431D01*
X62589250Y-35935524D01*
X62594232Y-35937847D01*
X62594237Y-35937850D01*
X62683057Y-35979267D01*
X62796757Y-36032286D01*
X62802065Y-36033708D01*
X62802067Y-36033709D01*
X63012598Y-36090121D01*
X63012600Y-36090121D01*
X63017913Y-36091545D01*
X63246000Y-36111500D01*
X63474087Y-36091545D01*
X63479400Y-36090121D01*
X63479402Y-36090121D01*
X63689933Y-36033709D01*
X63689935Y-36033708D01*
X63695243Y-36032286D01*
X63808943Y-35979267D01*
X63897763Y-35937850D01*
X63897768Y-35937847D01*
X63902750Y-35935524D01*
X63978575Y-35882431D01*
X64085791Y-35807358D01*
X64085794Y-35807356D01*
X64090302Y-35804199D01*
X64252199Y-35642302D01*
X64383524Y-35454750D01*
X64385847Y-35449768D01*
X64385850Y-35449763D01*
X64401805Y-35415546D01*
X64448722Y-35362261D01*
X64516999Y-35342800D01*
X64584959Y-35363342D01*
X64630195Y-35415546D01*
X64646150Y-35449763D01*
X64646153Y-35449768D01*
X64648476Y-35454750D01*
X64779801Y-35642302D01*
X64941698Y-35804199D01*
X64946206Y-35807356D01*
X64946209Y-35807358D01*
X65053425Y-35882431D01*
X65129250Y-35935524D01*
X65134232Y-35937847D01*
X65134237Y-35937850D01*
X65223057Y-35979267D01*
X65336757Y-36032286D01*
X65342065Y-36033708D01*
X65342067Y-36033709D01*
X65552598Y-36090121D01*
X65552600Y-36090121D01*
X65557913Y-36091545D01*
X65786000Y-36111500D01*
X66014087Y-36091545D01*
X66019400Y-36090121D01*
X66019402Y-36090121D01*
X66229933Y-36033709D01*
X66229935Y-36033708D01*
X66235243Y-36032286D01*
X66348943Y-35979267D01*
X66437763Y-35937850D01*
X66437768Y-35937847D01*
X66442750Y-35935524D01*
X66518575Y-35882431D01*
X66625791Y-35807358D01*
X66625794Y-35807356D01*
X66630302Y-35804199D01*
X66792199Y-35642302D01*
X66923524Y-35454750D01*
X66925847Y-35449768D01*
X66925850Y-35449763D01*
X66941805Y-35415546D01*
X66988722Y-35362261D01*
X67056999Y-35342800D01*
X67124959Y-35363342D01*
X67170195Y-35415546D01*
X67186150Y-35449763D01*
X67186153Y-35449768D01*
X67188476Y-35454750D01*
X67319801Y-35642302D01*
X67481698Y-35804199D01*
X67486206Y-35807356D01*
X67486209Y-35807358D01*
X67593425Y-35882431D01*
X67669250Y-35935524D01*
X67674232Y-35937847D01*
X67674237Y-35937850D01*
X67763057Y-35979267D01*
X67876757Y-36032286D01*
X67882065Y-36033708D01*
X67882067Y-36033709D01*
X68092598Y-36090121D01*
X68092600Y-36090121D01*
X68097913Y-36091545D01*
X68326000Y-36111500D01*
X68554087Y-36091545D01*
X68559400Y-36090121D01*
X68559402Y-36090121D01*
X68769933Y-36033709D01*
X68769935Y-36033708D01*
X68775243Y-36032286D01*
X68888943Y-35979267D01*
X68977763Y-35937850D01*
X68977768Y-35937847D01*
X68982750Y-35935524D01*
X69058575Y-35882431D01*
X69165791Y-35807358D01*
X69165794Y-35807356D01*
X69170302Y-35804199D01*
X69332199Y-35642302D01*
X69463524Y-35454750D01*
X69465847Y-35449768D01*
X69465850Y-35449763D01*
X69481805Y-35415546D01*
X69528722Y-35362261D01*
X69596999Y-35342800D01*
X69664959Y-35363342D01*
X69710195Y-35415546D01*
X69726150Y-35449763D01*
X69726153Y-35449768D01*
X69728476Y-35454750D01*
X69859801Y-35642302D01*
X70021698Y-35804199D01*
X70026206Y-35807356D01*
X70026209Y-35807358D01*
X70133425Y-35882431D01*
X70209250Y-35935524D01*
X70214232Y-35937847D01*
X70214237Y-35937850D01*
X70303057Y-35979267D01*
X70416757Y-36032286D01*
X70422065Y-36033708D01*
X70422067Y-36033709D01*
X70632598Y-36090121D01*
X70632600Y-36090121D01*
X70637913Y-36091545D01*
X70866000Y-36111500D01*
X71094087Y-36091545D01*
X71099400Y-36090121D01*
X71099402Y-36090121D01*
X71309933Y-36033709D01*
X71309935Y-36033708D01*
X71315243Y-36032286D01*
X71428943Y-35979267D01*
X71517763Y-35937850D01*
X71517768Y-35937847D01*
X71522750Y-35935524D01*
X71598575Y-35882431D01*
X71705791Y-35807358D01*
X71705794Y-35807356D01*
X71710302Y-35804199D01*
X71872199Y-35642302D01*
X72003524Y-35454750D01*
X72005847Y-35449768D01*
X72005850Y-35449763D01*
X72021805Y-35415546D01*
X72068722Y-35362261D01*
X72136999Y-35342800D01*
X72204959Y-35363342D01*
X72250195Y-35415546D01*
X72266150Y-35449763D01*
X72266153Y-35449768D01*
X72268476Y-35454750D01*
X72399801Y-35642302D01*
X72561698Y-35804199D01*
X72566206Y-35807356D01*
X72566209Y-35807358D01*
X72673425Y-35882431D01*
X72749250Y-35935524D01*
X72754232Y-35937847D01*
X72754237Y-35937850D01*
X72843057Y-35979267D01*
X72956757Y-36032286D01*
X72962065Y-36033708D01*
X72962067Y-36033709D01*
X73172598Y-36090121D01*
X73172600Y-36090121D01*
X73177913Y-36091545D01*
X73406000Y-36111500D01*
X73634087Y-36091545D01*
X73639400Y-36090121D01*
X73639402Y-36090121D01*
X73849933Y-36033709D01*
X73849935Y-36033708D01*
X73855243Y-36032286D01*
X73968943Y-35979267D01*
X74057763Y-35937850D01*
X74057768Y-35937847D01*
X74062750Y-35935524D01*
X74138575Y-35882431D01*
X74245791Y-35807358D01*
X74245794Y-35807356D01*
X74250302Y-35804199D01*
X74412199Y-35642302D01*
X74415358Y-35637791D01*
X74418893Y-35633578D01*
X74419933Y-35634450D01*
X74470314Y-35594182D01*
X74540934Y-35586876D01*
X74604293Y-35618909D01*
X74638962Y-35675285D01*
X74675558Y-35799919D01*
X74678904Y-35811316D01*
X74683775Y-35818895D01*
X74753051Y-35926691D01*
X74753053Y-35926694D01*
X74757923Y-35934271D01*
X74764733Y-35940172D01*
X74861569Y-36024082D01*
X74861572Y-36024084D01*
X74868381Y-36029984D01*
X75001330Y-36090700D01*
X75010245Y-36091982D01*
X75010246Y-36091982D01*
X75141552Y-36110861D01*
X75141559Y-36110862D01*
X75146000Y-36111500D01*
X76746000Y-36111500D01*
X76819079Y-36106273D01*
X76906068Y-36080731D01*
X76950670Y-36067635D01*
X76950672Y-36067634D01*
X76959316Y-36065096D01*
X77023135Y-36024082D01*
X77074691Y-35990949D01*
X77074694Y-35990947D01*
X77082271Y-35986077D01*
X77122048Y-35940172D01*
X77172082Y-35882431D01*
X77172084Y-35882428D01*
X77177984Y-35875619D01*
X77238700Y-35742670D01*
X77239982Y-35733754D01*
X77258861Y-35602448D01*
X77258862Y-35602441D01*
X77259500Y-35598000D01*
X77259500Y-33998000D01*
X77254273Y-33924921D01*
X77230846Y-33845136D01*
X77215635Y-33793330D01*
X77215634Y-33793328D01*
X77213096Y-33784684D01*
X77167393Y-33713569D01*
X77138949Y-33669309D01*
X77138947Y-33669306D01*
X77134077Y-33661729D01*
X77127267Y-33655828D01*
X77030431Y-33571918D01*
X77030428Y-33571916D01*
X77023619Y-33566016D01*
X76890670Y-33505300D01*
X76881755Y-33504018D01*
X76881754Y-33504018D01*
X76750448Y-33485139D01*
X76750441Y-33485138D01*
X76746000Y-33484500D01*
X75146000Y-33484500D01*
X75072921Y-33489727D01*
X75022762Y-33504455D01*
X74941330Y-33528365D01*
X74941328Y-33528366D01*
X74932684Y-33530904D01*
X74925105Y-33535775D01*
X74817309Y-33605051D01*
X74817306Y-33605053D01*
X74809729Y-33609923D01*
X74803828Y-33616733D01*
X74719918Y-33713569D01*
X74719916Y-33713572D01*
X74714016Y-33720381D01*
X74653300Y-33853330D01*
X74652018Y-33862245D01*
X74652018Y-33862246D01*
X74645566Y-33907122D01*
X74616073Y-33971703D01*
X74556347Y-34010087D01*
X74485350Y-34010087D01*
X74425624Y-33971704D01*
X74417638Y-33961465D01*
X74412199Y-33953698D01*
X74250302Y-33791801D01*
X74245794Y-33788644D01*
X74245791Y-33788642D01*
X74067259Y-33663633D01*
X74067257Y-33663632D01*
X74062750Y-33660476D01*
X74057768Y-33658153D01*
X74057763Y-33658150D01*
X73860225Y-33566037D01*
X73860224Y-33566036D01*
X73855243Y-33563714D01*
X73849935Y-33562292D01*
X73849933Y-33562291D01*
X73639402Y-33505879D01*
X73639400Y-33505879D01*
X73634087Y-33504455D01*
X73406000Y-33484500D01*
X73177913Y-33504455D01*
X73172600Y-33505879D01*
X73172598Y-33505879D01*
X72962067Y-33562291D01*
X72962065Y-33562292D01*
X72956757Y-33563714D01*
X72951776Y-33566036D01*
X72951775Y-33566037D01*
X72754237Y-33658150D01*
X72754232Y-33658153D01*
X72749250Y-33660476D01*
X72744743Y-33663632D01*
X72744741Y-33663633D01*
X72566209Y-33788642D01*
X72566206Y-33788644D01*
X72561698Y-33791801D01*
X72399801Y-33953698D01*
X72396644Y-33958206D01*
X72396642Y-33958209D01*
X72387193Y-33971704D01*
X72268476Y-34141250D01*
X72266153Y-34146232D01*
X72266150Y-34146237D01*
X72250195Y-34180454D01*
X72203278Y-34233739D01*
X72135001Y-34253200D01*
X72067041Y-34232658D01*
X72021805Y-34180454D01*
X72005850Y-34146237D01*
X72005847Y-34146232D01*
X72003524Y-34141250D01*
X71884807Y-33971704D01*
X71875358Y-33958209D01*
X71875356Y-33958206D01*
X71872199Y-33953698D01*
X71710302Y-33791801D01*
X71705794Y-33788644D01*
X71705791Y-33788642D01*
X71527259Y-33663633D01*
X71527257Y-33663632D01*
X71522750Y-33660476D01*
X71517768Y-33658153D01*
X71517763Y-33658150D01*
X71320225Y-33566037D01*
X71320224Y-33566036D01*
X71315243Y-33563714D01*
X71309935Y-33562292D01*
X71309933Y-33562291D01*
X71099402Y-33505879D01*
X71099400Y-33505879D01*
X71094087Y-33504455D01*
X70866000Y-33484500D01*
X70637913Y-33504455D01*
X70632600Y-33505879D01*
X70632598Y-33505879D01*
X70422067Y-33562291D01*
X70422065Y-33562292D01*
X70416757Y-33563714D01*
X70411776Y-33566036D01*
X70411775Y-33566037D01*
X70214237Y-33658150D01*
X70214232Y-33658153D01*
X70209250Y-33660476D01*
X70204743Y-33663632D01*
X70204741Y-33663633D01*
X70026209Y-33788642D01*
X70026206Y-33788644D01*
X70021698Y-33791801D01*
X69859801Y-33953698D01*
X69856644Y-33958206D01*
X69856642Y-33958209D01*
X69847193Y-33971704D01*
X69728476Y-34141250D01*
X69726153Y-34146232D01*
X69726150Y-34146237D01*
X69710195Y-34180454D01*
X69663278Y-34233739D01*
X69595001Y-34253200D01*
X69527041Y-34232658D01*
X69481805Y-34180454D01*
X69465850Y-34146237D01*
X69465847Y-34146232D01*
X69463524Y-34141250D01*
X69344807Y-33971704D01*
X69335358Y-33958209D01*
X69335356Y-33958206D01*
X69332199Y-33953698D01*
X69170302Y-33791801D01*
X69165794Y-33788644D01*
X69165791Y-33788642D01*
X68987259Y-33663633D01*
X68987257Y-33663632D01*
X68982750Y-33660476D01*
X68977768Y-33658153D01*
X68977763Y-33658150D01*
X68780225Y-33566037D01*
X68780224Y-33566036D01*
X68775243Y-33563714D01*
X68769935Y-33562292D01*
X68769933Y-33562291D01*
X68559402Y-33505879D01*
X68559400Y-33505879D01*
X68554087Y-33504455D01*
X68326000Y-33484500D01*
X68097913Y-33504455D01*
X68092600Y-33505879D01*
X68092598Y-33505879D01*
X67882067Y-33562291D01*
X67882065Y-33562292D01*
X67876757Y-33563714D01*
X67871776Y-33566036D01*
X67871775Y-33566037D01*
X67674237Y-33658150D01*
X67674232Y-33658153D01*
X67669250Y-33660476D01*
X67664743Y-33663632D01*
X67664741Y-33663633D01*
X67486209Y-33788642D01*
X67486206Y-33788644D01*
X67481698Y-33791801D01*
X67319801Y-33953698D01*
X67316644Y-33958206D01*
X67316642Y-33958209D01*
X67307193Y-33971704D01*
X67188476Y-34141250D01*
X67186153Y-34146232D01*
X67186150Y-34146237D01*
X67170195Y-34180454D01*
X67123278Y-34233739D01*
X67055001Y-34253200D01*
X66987041Y-34232658D01*
X66941805Y-34180454D01*
X66925850Y-34146237D01*
X66925847Y-34146232D01*
X66923524Y-34141250D01*
X66804807Y-33971704D01*
X66795358Y-33958209D01*
X66795356Y-33958206D01*
X66792199Y-33953698D01*
X66630302Y-33791801D01*
X66625794Y-33788644D01*
X66625791Y-33788642D01*
X66447259Y-33663633D01*
X66447257Y-33663632D01*
X66442750Y-33660476D01*
X66437768Y-33658153D01*
X66437763Y-33658150D01*
X66240225Y-33566037D01*
X66240224Y-33566036D01*
X66235243Y-33563714D01*
X66229935Y-33562292D01*
X66229933Y-33562291D01*
X66019402Y-33505879D01*
X66019400Y-33505879D01*
X66014087Y-33504455D01*
X65786000Y-33484500D01*
X65557913Y-33504455D01*
X65552600Y-33505879D01*
X65552598Y-33505879D01*
X65342067Y-33562291D01*
X65342065Y-33562292D01*
X65336757Y-33563714D01*
X65331776Y-33566036D01*
X65331775Y-33566037D01*
X65134237Y-33658150D01*
X65134232Y-33658153D01*
X65129250Y-33660476D01*
X65124743Y-33663632D01*
X65124741Y-33663633D01*
X64946209Y-33788642D01*
X64946206Y-33788644D01*
X64941698Y-33791801D01*
X64779801Y-33953698D01*
X64776644Y-33958206D01*
X64776642Y-33958209D01*
X64767193Y-33971704D01*
X64648476Y-34141250D01*
X64646153Y-34146232D01*
X64646150Y-34146237D01*
X64630195Y-34180454D01*
X64583278Y-34233739D01*
X64515001Y-34253200D01*
X64447041Y-34232658D01*
X64401805Y-34180454D01*
X64385850Y-34146237D01*
X64385847Y-34146232D01*
X64383524Y-34141250D01*
X64264807Y-33971704D01*
X64255358Y-33958209D01*
X64255356Y-33958206D01*
X64252199Y-33953698D01*
X64090302Y-33791801D01*
X64085794Y-33788644D01*
X64085791Y-33788642D01*
X63907259Y-33663633D01*
X63907257Y-33663632D01*
X63902750Y-33660476D01*
X63897768Y-33658153D01*
X63897763Y-33658150D01*
X63700225Y-33566037D01*
X63700224Y-33566036D01*
X63695243Y-33563714D01*
X63689935Y-33562292D01*
X63689933Y-33562291D01*
X63479402Y-33505879D01*
X63479400Y-33505879D01*
X63474087Y-33504455D01*
X63246000Y-33484500D01*
X63017913Y-33504455D01*
X63012600Y-33505879D01*
X63012598Y-33505879D01*
X62802067Y-33562291D01*
X62802065Y-33562292D01*
X62796757Y-33563714D01*
X62791776Y-33566036D01*
X62791775Y-33566037D01*
X62594237Y-33658150D01*
X62594232Y-33658153D01*
X62589250Y-33660476D01*
X62584743Y-33663632D01*
X62584741Y-33663633D01*
X62406209Y-33788642D01*
X62406206Y-33788644D01*
X62401698Y-33791801D01*
X62239801Y-33953698D01*
X62236644Y-33958206D01*
X62236642Y-33958209D01*
X62227193Y-33971704D01*
X62108476Y-34141250D01*
X62106153Y-34146232D01*
X62106150Y-34146237D01*
X62090195Y-34180454D01*
X62043278Y-34233739D01*
X61975001Y-34253200D01*
X61907041Y-34232658D01*
X61861805Y-34180454D01*
X61845850Y-34146237D01*
X61845847Y-34146232D01*
X61843524Y-34141250D01*
X61724807Y-33971704D01*
X61715358Y-33958209D01*
X61715356Y-33958206D01*
X61712199Y-33953698D01*
X61550302Y-33791801D01*
X61545794Y-33788644D01*
X61545791Y-33788642D01*
X61367259Y-33663633D01*
X61367257Y-33663632D01*
X61362750Y-33660476D01*
X61357768Y-33658153D01*
X61357763Y-33658150D01*
X61160225Y-33566037D01*
X61160224Y-33566036D01*
X61155243Y-33563714D01*
X61149935Y-33562292D01*
X61149933Y-33562291D01*
X60939402Y-33505879D01*
X60939400Y-33505879D01*
X60934087Y-33504455D01*
X60706000Y-33484500D01*
X60477913Y-33504455D01*
X60472600Y-33505879D01*
X60472598Y-33505879D01*
X60262067Y-33562291D01*
X60262065Y-33562292D01*
X60256757Y-33563714D01*
X60251776Y-33566036D01*
X60251775Y-33566037D01*
X60054237Y-33658150D01*
X60054232Y-33658153D01*
X60049250Y-33660476D01*
X60044743Y-33663632D01*
X60044741Y-33663633D01*
X59866209Y-33788642D01*
X59866206Y-33788644D01*
X59861698Y-33791801D01*
X59699801Y-33953698D01*
X59696644Y-33958206D01*
X59696642Y-33958209D01*
X59687193Y-33971704D01*
X59568476Y-34141250D01*
X59566153Y-34146232D01*
X59566150Y-34146237D01*
X59550195Y-34180454D01*
X59503278Y-34233739D01*
X59435001Y-34253200D01*
X59367041Y-34232658D01*
X59321805Y-34180454D01*
X59305850Y-34146237D01*
X59305847Y-34146232D01*
X59303524Y-34141250D01*
X59184807Y-33971704D01*
X59175358Y-33958209D01*
X59175356Y-33958206D01*
X59172199Y-33953698D01*
X59010302Y-33791801D01*
X59005794Y-33788644D01*
X59005791Y-33788642D01*
X58827259Y-33663633D01*
X58827257Y-33663632D01*
X58822750Y-33660476D01*
X58817768Y-33658153D01*
X58817763Y-33658150D01*
X58620225Y-33566037D01*
X58620224Y-33566036D01*
X58615243Y-33563714D01*
X58609935Y-33562292D01*
X58609933Y-33562291D01*
X58399402Y-33505879D01*
X58399400Y-33505879D01*
X58394087Y-33504455D01*
X58166000Y-33484500D01*
X57937913Y-33504455D01*
X57932600Y-33505879D01*
X57932598Y-33505879D01*
X57722067Y-33562291D01*
X57722065Y-33562292D01*
X57716757Y-33563714D01*
X57711776Y-33566036D01*
X57711775Y-33566037D01*
X57514237Y-33658150D01*
X57514232Y-33658153D01*
X57509250Y-33660476D01*
X57504743Y-33663632D01*
X57504741Y-33663633D01*
X57326209Y-33788642D01*
X57326206Y-33788644D01*
X57321698Y-33791801D01*
X57159801Y-33953698D01*
X57156644Y-33958206D01*
X57156642Y-33958209D01*
X57147193Y-33971704D01*
X57028476Y-34141250D01*
X57026153Y-34146232D01*
X57026150Y-34146237D01*
X57010195Y-34180454D01*
X56963278Y-34233739D01*
X56895001Y-34253200D01*
X56827041Y-34232658D01*
X56781805Y-34180454D01*
X56765850Y-34146237D01*
X56765847Y-34146232D01*
X56763524Y-34141250D01*
X56644807Y-33971704D01*
X56635358Y-33958209D01*
X56635356Y-33958206D01*
X56632199Y-33953698D01*
X56470302Y-33791801D01*
X56465794Y-33788644D01*
X56465791Y-33788642D01*
X56287259Y-33663633D01*
X56287257Y-33663632D01*
X56282750Y-33660476D01*
X56277768Y-33658153D01*
X56277763Y-33658150D01*
X56080225Y-33566037D01*
X56080224Y-33566036D01*
X56075243Y-33563714D01*
X56069935Y-33562292D01*
X56069933Y-33562291D01*
X55859402Y-33505879D01*
X55859400Y-33505879D01*
X55854087Y-33504455D01*
X55626000Y-33484500D01*
X55397913Y-33504455D01*
X55392600Y-33505879D01*
X55392598Y-33505879D01*
X55182067Y-33562291D01*
X55182065Y-33562292D01*
X55176757Y-33563714D01*
X55171776Y-33566036D01*
X55171775Y-33566037D01*
X54974237Y-33658150D01*
X54974232Y-33658153D01*
X54969250Y-33660476D01*
X54964743Y-33663632D01*
X54964741Y-33663633D01*
X54786209Y-33788642D01*
X54786206Y-33788644D01*
X54781698Y-33791801D01*
X54619801Y-33953698D01*
X54616644Y-33958206D01*
X54616642Y-33958209D01*
X54607193Y-33971704D01*
X54488476Y-34141250D01*
X54486153Y-34146232D01*
X54486150Y-34146237D01*
X54470195Y-34180454D01*
X54423278Y-34233739D01*
X54355001Y-34253200D01*
X54287041Y-34232658D01*
X54241805Y-34180454D01*
X54225850Y-34146237D01*
X54225847Y-34146232D01*
X54223524Y-34141250D01*
X54104807Y-33971704D01*
X54095358Y-33958209D01*
X54095356Y-33958206D01*
X54092199Y-33953698D01*
X53930302Y-33791801D01*
X53925794Y-33788644D01*
X53925791Y-33788642D01*
X53747259Y-33663633D01*
X53747257Y-33663632D01*
X53742750Y-33660476D01*
X53737768Y-33658153D01*
X53737763Y-33658150D01*
X53540225Y-33566037D01*
X53540224Y-33566036D01*
X53535243Y-33563714D01*
X53529935Y-33562292D01*
X53529933Y-33562291D01*
X53319402Y-33505879D01*
X53319400Y-33505879D01*
X53314087Y-33504455D01*
X53086000Y-33484500D01*
X52857913Y-33504455D01*
X52852600Y-33505879D01*
X52852598Y-33505879D01*
X52642067Y-33562291D01*
X52642065Y-33562292D01*
X52636757Y-33563714D01*
X52631776Y-33566036D01*
X52631775Y-33566037D01*
X52434237Y-33658150D01*
X52434232Y-33658153D01*
X52429250Y-33660476D01*
X52424743Y-33663632D01*
X52424741Y-33663633D01*
X52246209Y-33788642D01*
X52246206Y-33788644D01*
X52241698Y-33791801D01*
X52079801Y-33953698D01*
X52076644Y-33958206D01*
X52076642Y-33958209D01*
X52067193Y-33971704D01*
X51948476Y-34141250D01*
X51946153Y-34146232D01*
X51946150Y-34146237D01*
X51930195Y-34180454D01*
X51883278Y-34233739D01*
X51815001Y-34253200D01*
X51747041Y-34232658D01*
X51701805Y-34180454D01*
X51685850Y-34146237D01*
X51685847Y-34146232D01*
X51683524Y-34141250D01*
X51564807Y-33971704D01*
X51555358Y-33958209D01*
X51555356Y-33958206D01*
X51552199Y-33953698D01*
X51390302Y-33791801D01*
X51385794Y-33788644D01*
X51385791Y-33788642D01*
X51207259Y-33663633D01*
X51207257Y-33663632D01*
X51202750Y-33660476D01*
X51197768Y-33658153D01*
X51197763Y-33658150D01*
X51000225Y-33566037D01*
X51000224Y-33566036D01*
X50995243Y-33563714D01*
X50989935Y-33562292D01*
X50989933Y-33562291D01*
X50779402Y-33505879D01*
X50779400Y-33505879D01*
X50774087Y-33504455D01*
X50546000Y-33484500D01*
X50317913Y-33504455D01*
X50312600Y-33505879D01*
X50312598Y-33505879D01*
X50102067Y-33562291D01*
X50102065Y-33562292D01*
X50096757Y-33563714D01*
X50091776Y-33566036D01*
X50091775Y-33566037D01*
X49894237Y-33658150D01*
X49894232Y-33658153D01*
X49889250Y-33660476D01*
X49884743Y-33663632D01*
X49884741Y-33663633D01*
X49706209Y-33788642D01*
X49706206Y-33788644D01*
X49701698Y-33791801D01*
X49539801Y-33953698D01*
X49536644Y-33958206D01*
X49536642Y-33958209D01*
X49527193Y-33971704D01*
X49408476Y-34141250D01*
X49406153Y-34146232D01*
X49406150Y-34146237D01*
X49390195Y-34180454D01*
X49343278Y-34233739D01*
X49275001Y-34253200D01*
X49207041Y-34232658D01*
X49161805Y-34180454D01*
X49145850Y-34146237D01*
X49145847Y-34146232D01*
X49143524Y-34141250D01*
X49024807Y-33971704D01*
X49015358Y-33958209D01*
X49015356Y-33958206D01*
X49012199Y-33953698D01*
X48850302Y-33791801D01*
X48845794Y-33788644D01*
X48845791Y-33788642D01*
X48667259Y-33663633D01*
X48667257Y-33663632D01*
X48662750Y-33660476D01*
X48657768Y-33658153D01*
X48657763Y-33658150D01*
X48460225Y-33566037D01*
X48460224Y-33566036D01*
X48455243Y-33563714D01*
X48449935Y-33562292D01*
X48449933Y-33562291D01*
X48239402Y-33505879D01*
X48239400Y-33505879D01*
X48234087Y-33504455D01*
X48006000Y-33484500D01*
X47777913Y-33504455D01*
X47772600Y-33505879D01*
X47772598Y-33505879D01*
X47562067Y-33562291D01*
X47562065Y-33562292D01*
X47556757Y-33563714D01*
X47551776Y-33566036D01*
X47551775Y-33566037D01*
X47354237Y-33658150D01*
X47354232Y-33658153D01*
X47349250Y-33660476D01*
X47344743Y-33663632D01*
X47344741Y-33663633D01*
X47166209Y-33788642D01*
X47166206Y-33788644D01*
X47161698Y-33791801D01*
X46999801Y-33953698D01*
X46996644Y-33958206D01*
X46996642Y-33958209D01*
X46987193Y-33971704D01*
X46868476Y-34141250D01*
X46866153Y-34146232D01*
X46866150Y-34146237D01*
X46850195Y-34180454D01*
X46803278Y-34233739D01*
X46735001Y-34253200D01*
X46667041Y-34232658D01*
X46621805Y-34180454D01*
X46605850Y-34146237D01*
X46605847Y-34146232D01*
X46603524Y-34141250D01*
X46484807Y-33971704D01*
X46475358Y-33958209D01*
X46475356Y-33958206D01*
X46472199Y-33953698D01*
X46310302Y-33791801D01*
X46305794Y-33788644D01*
X46305791Y-33788642D01*
X46127259Y-33663633D01*
X46127257Y-33663632D01*
X46122750Y-33660476D01*
X46117768Y-33658153D01*
X46117763Y-33658150D01*
X45920225Y-33566037D01*
X45920224Y-33566036D01*
X45915243Y-33563714D01*
X45909935Y-33562292D01*
X45909933Y-33562291D01*
X45699402Y-33505879D01*
X45699400Y-33505879D01*
X45694087Y-33504455D01*
X45466000Y-33484500D01*
X45237913Y-33504455D01*
X45232600Y-33505879D01*
X45232598Y-33505879D01*
X45022067Y-33562291D01*
X45022065Y-33562292D01*
X45016757Y-33563714D01*
X45011776Y-33566036D01*
X45011775Y-33566037D01*
X44814237Y-33658150D01*
X44814232Y-33658153D01*
X44809250Y-33660476D01*
X44804743Y-33663632D01*
X44804741Y-33663633D01*
X44626209Y-33788642D01*
X44626206Y-33788644D01*
X44621698Y-33791801D01*
X44459801Y-33953698D01*
X44456644Y-33958206D01*
X44456642Y-33958209D01*
X44447193Y-33971704D01*
X44328476Y-34141250D01*
X44326150Y-34146237D01*
X44326150Y-34146238D01*
X44309920Y-34181043D01*
X44263002Y-34234328D01*
X44194725Y-34253789D01*
X44126765Y-34233247D01*
X44081530Y-34181042D01*
X44065419Y-34146491D01*
X44059934Y-34136991D01*
X43934975Y-33958531D01*
X43927919Y-33950123D01*
X43773877Y-33796081D01*
X43765469Y-33789025D01*
X43587009Y-33664066D01*
X43577513Y-33658583D01*
X43380057Y-33566509D01*
X43369761Y-33562761D01*
X43197497Y-33516602D01*
X43183401Y-33516938D01*
X43180000Y-33524880D01*
X43179999Y-34543998D01*
X42653895Y-34543998D01*
X42669124Y-34539526D01*
X42670329Y-34538136D01*
X42672000Y-34530453D01*
X42672001Y-33530029D01*
X42668028Y-33516498D01*
X42659479Y-33515269D01*
X42482238Y-33562761D01*
X42471946Y-33566507D01*
X42274487Y-33658583D01*
X42264991Y-33664066D01*
X42086531Y-33789025D01*
X42078123Y-33796081D01*
X41924081Y-33950123D01*
X41917025Y-33958531D01*
X41792066Y-34136991D01*
X41786583Y-34146487D01*
X41694509Y-34343943D01*
X41690761Y-34354239D01*
X41644602Y-34526503D01*
X26042241Y-34526503D01*
X26046004Y-27912212D01*
X26047786Y-27891169D01*
X26049653Y-27880188D01*
X26049654Y-27880182D01*
X26050469Y-27875385D01*
X26052293Y-27744446D01*
X26052511Y-27738594D01*
X26055347Y-27691706D01*
X26056036Y-27684125D01*
X26079868Y-27487852D01*
X26081013Y-27480328D01*
X26086774Y-27448891D01*
X26088367Y-27441468D01*
X26135684Y-27249492D01*
X26137725Y-27242172D01*
X26147239Y-27211641D01*
X26149722Y-27204447D01*
X26219831Y-27019585D01*
X26222744Y-27012553D01*
X26235848Y-26983437D01*
X26239170Y-26976614D01*
X26331065Y-26801519D01*
X26334792Y-26794911D01*
X26346677Y-26775251D01*
X26351344Y-26767531D01*
X26355475Y-26761143D01*
X26467777Y-26598446D01*
X26472287Y-26592316D01*
X26492006Y-26567147D01*
X26496872Y-26561308D01*
X26504317Y-26552905D01*
X26627977Y-26413320D01*
X26633195Y-26407778D01*
X26655778Y-26385195D01*
X26661320Y-26379977D01*
X26809314Y-26248867D01*
X26815150Y-26244003D01*
X26840320Y-26224284D01*
X26846430Y-26219787D01*
X27009164Y-26107460D01*
X27015535Y-26103341D01*
X27042911Y-26086792D01*
X27049540Y-26083054D01*
X27072036Y-26071247D01*
X27224602Y-25991175D01*
X27231407Y-25987861D01*
X27260585Y-25974729D01*
X27267582Y-25971831D01*
X27452438Y-25901724D01*
X27459635Y-25899241D01*
X27490161Y-25889729D01*
X27497492Y-25887685D01*
X27689456Y-25840371D01*
X27696894Y-25838774D01*
X27728316Y-25833015D01*
X27735841Y-25831870D01*
X27932133Y-25808035D01*
X27939699Y-25807348D01*
X27986627Y-25804509D01*
X27992426Y-25804293D01*
X28120108Y-25802514D01*
X28138722Y-25799583D01*
X28158308Y-25798051D01*
X102926094Y-25798051D01*
X102947212Y-25799833D01*
G37*
%TD.AperFunction*%
%TD*%
M02*
