M48
; DRILL file {KiCad 7.0.3} date Fri 19 May 2023 11:31:03 PM +08
; FORMAT={-:-/ absolute / inch / decimal}
; #@! TF.CreationDate,2023-05-19T23:31:03+08:00
; #@! TF.GenerationSoftware,Kicad,Pcbnew,7.0.3
; #@! TF.FileFunction,Plated,1,2,PTH
FMAT,2
INCH
; #@! TA.AperFunction,Plated,PTH,ViaDrill
T1C0.0157
; #@! TA.AperFunction,Plated,PTH,ComponentDrill
T2C0.0315
%
G90
G05
T1
X2.95Y-3.39
X3.7Y-3.1
X3.8Y-3.13
X3.9Y-3.16
X4.0Y-3.19
X4.1Y-3.22
X4.2Y-3.25
X4.3Y-3.28
X4.4Y-3.33
X4.5Y-2.5
X4.6Y-2.53
X4.7Y-2.56
X4.8Y-2.65
X4.9Y-2.68
X5.0Y-2.71
X5.1Y-2.74
X5.2Y-2.77
X5.28Y-2.86
X5.28Y-3.27
X5.45Y-2.425
X5.5Y-2.83
X5.5Y-3.4
X5.55Y-3.09
X5.65Y-2.515
X5.75Y-2.8
T2
X3.75Y-2.43
X3.75Y-3.03
X3.85Y-2.43
X3.85Y-3.03
X3.95Y-2.43
X3.95Y-3.03
X4.05Y-2.43
X4.05Y-3.03
X4.15Y-2.43
X4.15Y-3.03
X4.25Y-2.43
X4.25Y-3.03
X4.35Y-2.43
X4.35Y-3.03
X4.45Y-2.43
X4.45Y-3.03
X4.55Y-2.43
X4.55Y-3.03
X4.65Y-2.43
X4.65Y-3.03
X4.75Y-2.43
X4.75Y-3.03
X4.85Y-2.43
X4.85Y-3.03
X4.95Y-2.43
X4.95Y-3.03
X5.05Y-2.43
X5.05Y-3.03
X5.36Y-2.9308
X5.36Y-3.0292
T0
M30
