%TF.GenerationSoftware,KiCad,Pcbnew,7.0.3*%
%TF.CreationDate,2023-05-28T22:07:45+08:00*%
%TF.ProjectId,Cartdrige,43617274-6472-4696-9765-2e6b69636164,rev?*%
%TF.SameCoordinates,Original*%
%TF.FileFunction,Copper,L2,Bot*%
%TF.FilePolarity,Positive*%
%FSLAX46Y46*%
G04 Gerber Fmt 4.6, Leading zero omitted, Abs format (unit mm)*
G04 Created by KiCad (PCBNEW 7.0.3) date 2023-05-28 22:07:45*
%MOMM*%
%LPD*%
G01*
G04 APERTURE LIST*
%TA.AperFunction,ComponentPad*%
%ADD10C,1.600000*%
%TD*%
%TA.AperFunction,ConnectorPad*%
%ADD11R,1.780000X7.620000*%
%TD*%
%TA.AperFunction,ComponentPad*%
%ADD12R,1.600000X1.600000*%
%TD*%
%TA.AperFunction,ComponentPad*%
%ADD13O,1.600000X1.600000*%
%TD*%
%TA.AperFunction,ViaPad*%
%ADD14C,0.800000*%
%TD*%
%TA.AperFunction,Conductor*%
%ADD15C,0.500000*%
%TD*%
%TA.AperFunction,Conductor*%
%ADD16C,0.300000*%
%TD*%
G04 APERTURE END LIST*
D10*
%TO.P,C1,1*%
%TO.N,+5V*%
X145923000Y-76962000D03*
%TO.P,C1,2*%
%TO.N,GND*%
X145923000Y-74462000D03*
%TD*%
D11*
%TO.P,J2,1,Pin_1*%
%TO.N,GND*%
X148590000Y-91694000D03*
%TO.P,J2,3,Pin_3*%
%TO.N,/A11*%
X146050000Y-91694000D03*
%TO.P,J2,5,Pin_5*%
%TO.N,/A10*%
X143510000Y-91694000D03*
%TO.P,J2,7,Pin_7*%
%TO.N,/A9*%
X140970000Y-91694000D03*
%TO.P,J2,9,Pin_9*%
%TO.N,/A8*%
X138430000Y-91694000D03*
%TO.P,J2,11,Pin_11*%
%TO.N,/A7*%
X135890000Y-91694000D03*
%TO.P,J2,13,Pin_13*%
%TO.N,/A6*%
X133350000Y-91694000D03*
%TO.P,J2,15,Pin_15*%
%TO.N,/A5*%
X130810000Y-91694000D03*
%TO.P,J2,17,Pin_17*%
%TO.N,/A4*%
X128270000Y-91694000D03*
%TO.P,J2,19,Pin_19*%
%TO.N,/A3*%
X125730000Y-91694000D03*
%TO.P,J2,21,Pin_21*%
%TO.N,/A2*%
X123190000Y-91694000D03*
%TO.P,J2,23,Pin_23*%
%TO.N,/A1*%
X120650000Y-91694000D03*
%TO.P,J2,25,Pin_25*%
%TO.N,/A0*%
X118110000Y-91694000D03*
%TO.P,J2,27,Pin_27*%
%TO.N,/RW*%
X115570000Y-91694000D03*
%TO.P,J2,29,Pin_29*%
%TO.N,/IRQ3B*%
X113030000Y-91694000D03*
%TO.P,J2,31,Pin_31*%
%TO.N,GND*%
X110490000Y-91694000D03*
%TO.P,J2,33,Pin_33*%
%TO.N,/RAMCSB*%
X107950000Y-91694000D03*
%TO.P,J2,35,Pin_35*%
%TO.N,unconnected-(J2-Pin_35-Pad35)*%
X105410000Y-91694000D03*
%TO.P,J2,37,Pin_37*%
%TO.N,unconnected-(J2-Pin_37-Pad37)*%
X102870000Y-91694000D03*
%TO.P,J2,39,Pin_39*%
%TO.N,unconnected-(J2-Pin_39-Pad39)*%
X100330000Y-91694000D03*
%TO.P,J2,41,Pin_41*%
%TO.N,unconnected-(J2-Pin_41-Pad41)*%
X97790000Y-91694000D03*
%TO.P,J2,43,Pin_43*%
%TO.N,unconnected-(J2-Pin_43-Pad43)*%
X95250000Y-91694000D03*
%TO.P,J2,45,Pin_45*%
%TO.N,unconnected-(J2-Pin_45-Pad45)*%
X92710000Y-91694000D03*
%TO.P,J2,47,Pin_47*%
%TO.N,unconnected-(J2-Pin_47-Pad47)*%
X90170000Y-91694000D03*
%TO.P,J2,49,Pin_49*%
%TO.N,unconnected-(J2-Pin_49-Pad49)*%
X87630000Y-91694000D03*
%TO.P,J2,51,Pin_51*%
%TO.N,unconnected-(J2-Pin_51-Pad51)*%
X85090000Y-91694000D03*
%TO.P,J2,53,Pin_53*%
%TO.N,unconnected-(J2-Pin_53-Pad53)*%
X82550000Y-91694000D03*
%TO.P,J2,55,Pin_55*%
%TO.N,unconnected-(J2-Pin_55-Pad55)*%
X80010000Y-91694000D03*
%TO.P,J2,57,Pin_57*%
%TO.N,unconnected-(J2-Pin_57-Pad57)*%
X77470000Y-91694000D03*
%TO.P,J2,59,Pin_59*%
%TO.N,+5V*%
X74930000Y-91694000D03*
%TD*%
D12*
%TO.P,U1,1,A14*%
%TO.N,/A14*%
X128270000Y-61722000D03*
D13*
%TO.P,U1,2,A12*%
%TO.N,/A12*%
X125730000Y-61722000D03*
%TO.P,U1,3,A7*%
%TO.N,/A7*%
X123190000Y-61722000D03*
%TO.P,U1,4,A6*%
%TO.N,/A6*%
X120650000Y-61722000D03*
%TO.P,U1,5,A5*%
%TO.N,/A5*%
X118110000Y-61722000D03*
%TO.P,U1,6,A4*%
%TO.N,/A4*%
X115570000Y-61722000D03*
%TO.P,U1,7,A3*%
%TO.N,/A3*%
X113030000Y-61722000D03*
%TO.P,U1,8,A2*%
%TO.N,/A2*%
X110490000Y-61722000D03*
%TO.P,U1,9,A1*%
%TO.N,/A1*%
X107950000Y-61722000D03*
%TO.P,U1,10,A0*%
%TO.N,/A0*%
X105410000Y-61722000D03*
%TO.P,U1,11,D0*%
%TO.N,/D0*%
X102870000Y-61722000D03*
%TO.P,U1,12,D1*%
%TO.N,/D1*%
X100330000Y-61722000D03*
%TO.P,U1,13,D2*%
%TO.N,/D2*%
X97790000Y-61722000D03*
%TO.P,U1,14,GND*%
%TO.N,GND*%
X95250000Y-61722000D03*
%TO.P,U1,15,D3*%
%TO.N,/D3*%
X95250000Y-76962000D03*
%TO.P,U1,16,D4*%
%TO.N,/D4*%
X97790000Y-76962000D03*
%TO.P,U1,17,D5*%
%TO.N,/D5*%
X100330000Y-76962000D03*
%TO.P,U1,18,D6*%
%TO.N,/D6*%
X102870000Y-76962000D03*
%TO.P,U1,19,D7*%
%TO.N,/D7*%
X105410000Y-76962000D03*
%TO.P,U1,20,~{CS}*%
%TO.N,/PORT1CSB*%
X107950000Y-76962000D03*
%TO.P,U1,21,A10*%
%TO.N,/A10*%
X110490000Y-76962000D03*
%TO.P,U1,22,~{OE}*%
%TO.N,GND*%
X113030000Y-76962000D03*
%TO.P,U1,23,A11*%
%TO.N,/A11*%
X115570000Y-76962000D03*
%TO.P,U1,24,A9*%
%TO.N,/A9*%
X118110000Y-76962000D03*
%TO.P,U1,25,A8*%
%TO.N,/A8*%
X120650000Y-76962000D03*
%TO.P,U1,26,A13*%
%TO.N,/A13*%
X123190000Y-76962000D03*
%TO.P,U1,27,~{WE}*%
%TO.N,+5V*%
X125730000Y-76962000D03*
%TO.P,U1,28,VCC*%
X128270000Y-76962000D03*
%TD*%
D14*
%TO.N,+5V*%
X74930000Y-86106000D03*
%TO.N,/A13*%
X140970000Y-78486000D03*
%TO.N,/A8*%
X137414000Y-74422000D03*
X137414000Y-86360000D03*
%TO.N,/A9*%
X139700000Y-86360000D03*
X139700000Y-72644000D03*
%TO.N,/D7*%
X132080000Y-70358000D03*
%TO.N,/D6*%
X129540000Y-69596000D03*
%TO.N,/D5*%
X127000000Y-68834000D03*
%TO.N,/D4*%
X124460000Y-68072000D03*
%TO.N,/D3*%
X121920000Y-67310000D03*
%TO.N,/D2*%
X119380000Y-65024000D03*
%TO.N,/D1*%
X116840000Y-64262000D03*
%TO.N,/D0*%
X114300000Y-63500000D03*
%TO.N,/A0*%
X106680000Y-82550000D03*
%TO.N,/A1*%
X109220000Y-83312000D03*
%TO.N,/A2*%
X111760000Y-84582000D03*
%TO.N,/A3*%
X104140000Y-81788000D03*
%TO.N,/A4*%
X101600000Y-81026000D03*
%TO.N,/A5*%
X99060000Y-80264000D03*
%TO.N,/A6*%
X96520000Y-79502000D03*
%TO.N,/A7*%
X93980000Y-78740000D03*
%TO.N,/A12*%
X143510000Y-63881000D03*
%TO.N,/A14*%
X138430000Y-61595000D03*
%TD*%
D15*
%TO.N,+5V*%
X74930000Y-91694000D02*
X74930000Y-86106000D01*
X125730000Y-76962000D02*
X128270000Y-76962000D01*
X128270000Y-76962000D02*
X145923000Y-76962000D01*
D16*
%TO.N,/A13*%
X123190000Y-76962000D02*
X124714000Y-78486000D01*
X124714000Y-78486000D02*
X140970000Y-78486000D01*
%TO.N,/A8*%
X137414000Y-86360000D02*
X138430000Y-87376000D01*
X137414000Y-74422000D02*
X123190000Y-74422000D01*
X123190000Y-74422000D02*
X120650000Y-76962000D01*
X138430000Y-87376000D02*
X138430000Y-91694000D01*
%TO.N,/A9*%
X139700000Y-72644000D02*
X122428000Y-72644000D01*
X122428000Y-72644000D02*
X118110000Y-76962000D01*
X140970000Y-87630000D02*
X140970000Y-91694000D01*
X139700000Y-86360000D02*
X140970000Y-87630000D01*
%TO.N,/A11*%
X137668000Y-79248000D02*
X117856000Y-79248000D01*
X146050000Y-91694000D02*
X146050000Y-87630000D01*
X117856000Y-79248000D02*
X115570000Y-76962000D01*
X146050000Y-87630000D02*
X137668000Y-79248000D01*
%TO.N,/A10*%
X110490000Y-76962000D02*
X111506000Y-77978000D01*
X143510000Y-87630000D02*
X143510000Y-91694000D01*
X111506000Y-77978000D02*
X112268000Y-77978000D01*
X114300000Y-80010000D02*
X135890000Y-80010000D01*
X135890000Y-80010000D02*
X143510000Y-87630000D01*
X112268000Y-77978000D02*
X114300000Y-80010000D01*
%TO.N,/D7*%
X132080000Y-70358000D02*
X112014000Y-70358000D01*
X112014000Y-70358000D02*
X105410000Y-76962000D01*
%TO.N,/D6*%
X110236000Y-69596000D02*
X102870000Y-76962000D01*
X129540000Y-69596000D02*
X110236000Y-69596000D01*
%TO.N,/D5*%
X127000000Y-68834000D02*
X108458000Y-68834000D01*
X108458000Y-68834000D02*
X100330000Y-76962000D01*
%TO.N,/D4*%
X106680000Y-68072000D02*
X97790000Y-76962000D01*
X124460000Y-68072000D02*
X106680000Y-68072000D01*
%TO.N,/D3*%
X121920000Y-67310000D02*
X104902000Y-67310000D01*
X104902000Y-67310000D02*
X95250000Y-76962000D01*
%TO.N,/D2*%
X101092000Y-65024000D02*
X97790000Y-61722000D01*
X119380000Y-65024000D02*
X101092000Y-65024000D01*
%TO.N,/D1*%
X100330000Y-61722000D02*
X102870000Y-64262000D01*
X102870000Y-64262000D02*
X116840000Y-64262000D01*
%TO.N,/D0*%
X104648000Y-63500000D02*
X114300000Y-63500000D01*
X102870000Y-61722000D02*
X104648000Y-63500000D01*
%TO.N,/A0*%
X110236000Y-86106000D02*
X116633625Y-86106000D01*
X118110000Y-87582375D02*
X118110000Y-91694000D01*
X106680000Y-82550000D02*
X110236000Y-86106000D01*
X116633625Y-86106000D02*
X118110000Y-87582375D01*
%TO.N,/A1*%
X118364000Y-85344000D02*
X120650000Y-87630000D01*
X109220000Y-83312000D02*
X111252000Y-85344000D01*
X120650000Y-87630000D02*
X120650000Y-91694000D01*
X111252000Y-85344000D02*
X118364000Y-85344000D01*
%TO.N,/A2*%
X111760000Y-84582000D02*
X120142000Y-84582000D01*
X123190000Y-87630000D02*
X123190000Y-91694000D01*
X120142000Y-84582000D02*
X123190000Y-87630000D01*
%TO.N,/A3*%
X109728000Y-81788000D02*
X111760000Y-83820000D01*
X104140000Y-81788000D02*
X109728000Y-81788000D01*
X125730000Y-87630000D02*
X125730000Y-91694000D01*
X111760000Y-83820000D02*
X121920000Y-83820000D01*
X121920000Y-83820000D02*
X125730000Y-87630000D01*
%TO.N,/A4*%
X101600000Y-81026000D02*
X110236000Y-81026000D01*
X128270000Y-87630000D02*
X128270000Y-91694000D01*
X123698000Y-83058000D02*
X128270000Y-87630000D01*
X110236000Y-81026000D02*
X112268000Y-83058000D01*
X112268000Y-83058000D02*
X123698000Y-83058000D01*
%TO.N,/A5*%
X130810000Y-87630000D02*
X130810000Y-91694000D01*
X110757724Y-80264000D02*
X112789724Y-82296000D01*
X112789724Y-82296000D02*
X125476000Y-82296000D01*
X99060000Y-80264000D02*
X110757724Y-80264000D01*
X125476000Y-82296000D02*
X130810000Y-87630000D01*
%TO.N,/A6*%
X96520000Y-79502000D02*
X111252000Y-79502000D01*
X113284000Y-81534000D02*
X127254000Y-81534000D01*
X127254000Y-81534000D02*
X133350000Y-87630000D01*
X133350000Y-87630000D02*
X133350000Y-91694000D01*
X111252000Y-79502000D02*
X113284000Y-81534000D01*
%TO.N,/A7*%
X93980000Y-78740000D02*
X111760000Y-78740000D01*
X135890000Y-87630000D02*
X135890000Y-91694000D01*
X113792000Y-80772000D02*
X129032000Y-80772000D01*
X111760000Y-78740000D02*
X113792000Y-80772000D01*
X129032000Y-80772000D02*
X135890000Y-87630000D01*
%TO.N,/A12*%
X127889000Y-63881000D02*
X125730000Y-61722000D01*
X143510000Y-63881000D02*
X127889000Y-63881000D01*
%TO.N,/A14*%
X138303000Y-61722000D02*
X138430000Y-61595000D01*
X128270000Y-61722000D02*
X138303000Y-61722000D01*
%TD*%
%TA.AperFunction,Conductor*%
%TO.N,GND*%
G36*
X149117813Y-52342649D02*
G01*
X149231904Y-52349051D01*
X149403672Y-52359431D01*
X149410398Y-52360204D01*
X149546584Y-52383336D01*
X149695225Y-52410569D01*
X149701308Y-52411999D01*
X149837564Y-52451248D01*
X149838804Y-52451620D01*
X149978836Y-52495251D01*
X149984184Y-52497187D01*
X150116719Y-52552080D01*
X150118404Y-52552809D01*
X150250649Y-52612323D01*
X150255246Y-52614623D01*
X150381491Y-52684393D01*
X150383585Y-52685604D01*
X150506984Y-52760198D01*
X150510846Y-52762731D01*
X150628838Y-52846449D01*
X150631211Y-52848219D01*
X150744386Y-52936884D01*
X150747489Y-52939481D01*
X150855525Y-53036027D01*
X150858070Y-53038433D01*
X150959678Y-53140041D01*
X150962069Y-53142571D01*
X151058619Y-53250611D01*
X151061212Y-53253709D01*
X151149883Y-53366893D01*
X151151671Y-53369290D01*
X151235373Y-53487260D01*
X151237908Y-53491126D01*
X151312478Y-53614485D01*
X151313702Y-53616602D01*
X151359542Y-53699546D01*
X151383482Y-53742865D01*
X151385786Y-53747470D01*
X151445292Y-53879698D01*
X151446033Y-53881415D01*
X151500909Y-54013908D01*
X151502853Y-54019277D01*
X151546472Y-54159273D01*
X151546863Y-54160576D01*
X151586101Y-54296797D01*
X151587532Y-54302885D01*
X151614770Y-54451556D01*
X151636221Y-54577835D01*
X151638000Y-54598936D01*
X151638000Y-85734438D01*
X151637578Y-86477558D01*
X151637572Y-86487572D01*
X151617531Y-86555681D01*
X151563849Y-86602143D01*
X151511572Y-86613500D01*
X151155158Y-86613500D01*
X151154952Y-86613459D01*
X151129996Y-86613459D01*
X151129798Y-86613541D01*
X151129620Y-86613614D01*
X151129617Y-86613617D01*
X151129459Y-86614000D01*
X151129476Y-86639014D01*
X151129471Y-86639014D01*
X151129500Y-86639157D01*
X151129500Y-95631500D01*
X151109498Y-95699621D01*
X151055842Y-95746114D01*
X151003500Y-95757500D01*
X150106242Y-95757500D01*
X150038121Y-95737498D01*
X149991628Y-95683842D01*
X149980964Y-95618030D01*
X149987999Y-95552597D01*
X149988000Y-95552585D01*
X149988000Y-91948000D01*
X148462000Y-91948000D01*
X148393879Y-91927998D01*
X148347386Y-91874342D01*
X148336000Y-91822000D01*
X148336000Y-87376000D01*
X148844000Y-87376000D01*
X148844000Y-91440000D01*
X149988000Y-91440000D01*
X149988000Y-87835414D01*
X149987999Y-87835402D01*
X149981494Y-87774906D01*
X149930444Y-87638035D01*
X149930444Y-87638034D01*
X149842904Y-87521095D01*
X149725965Y-87433555D01*
X149589093Y-87382505D01*
X149528597Y-87376000D01*
X148844000Y-87376000D01*
X148336000Y-87376000D01*
X147651402Y-87376000D01*
X147590906Y-87382505D01*
X147454035Y-87433555D01*
X147395924Y-87477056D01*
X147329403Y-87501866D01*
X147260029Y-87486774D01*
X147244907Y-87477055D01*
X147186207Y-87433112D01*
X147186202Y-87433110D01*
X147049204Y-87382011D01*
X147049196Y-87382009D01*
X146988649Y-87375500D01*
X146988638Y-87375500D01*
X146742026Y-87375500D01*
X146673905Y-87355498D01*
X146637095Y-87316076D01*
X146636295Y-87316658D01*
X146609613Y-87279935D01*
X146602736Y-87270470D01*
X146599482Y-87265517D01*
X146574453Y-87223193D01*
X146574452Y-87223191D01*
X146559288Y-87208027D01*
X146546447Y-87192993D01*
X146533841Y-87175643D01*
X146533836Y-87175638D01*
X146512718Y-87158169D01*
X146495950Y-87144297D01*
X146491577Y-87140317D01*
X138710855Y-79359595D01*
X138676829Y-79297283D01*
X138681894Y-79226468D01*
X138724441Y-79169632D01*
X138790961Y-79144821D01*
X138799950Y-79144500D01*
X140289776Y-79144500D01*
X140357897Y-79164502D01*
X140363834Y-79168562D01*
X140513248Y-79277118D01*
X140687712Y-79354794D01*
X140874513Y-79394500D01*
X141065487Y-79394500D01*
X141252288Y-79354794D01*
X141426752Y-79277118D01*
X141581253Y-79164866D01*
X141599591Y-79144500D01*
X141709034Y-79022951D01*
X141709035Y-79022949D01*
X141709040Y-79022944D01*
X141804527Y-78857556D01*
X141863542Y-78675928D01*
X141883504Y-78486000D01*
X141863542Y-78296072D01*
X141804527Y-78114444D01*
X141709040Y-77949056D01*
X141709038Y-77949054D01*
X141709034Y-77949048D01*
X141692612Y-77930810D01*
X141661894Y-77866803D01*
X141670659Y-77796349D01*
X141716122Y-77741818D01*
X141783849Y-77720523D01*
X141786248Y-77720500D01*
X144791132Y-77720500D01*
X144859253Y-77740502D01*
X144894344Y-77774228D01*
X144909834Y-77796349D01*
X144916802Y-77806300D01*
X145078700Y-77968198D01*
X145266251Y-78099523D01*
X145473757Y-78196284D01*
X145694913Y-78255543D01*
X145923000Y-78275498D01*
X146151087Y-78255543D01*
X146372243Y-78196284D01*
X146579749Y-78099523D01*
X146767300Y-77968198D01*
X146929198Y-77806300D01*
X147060523Y-77618749D01*
X147157284Y-77411243D01*
X147216543Y-77190087D01*
X147236498Y-76962000D01*
X147216543Y-76733913D01*
X147157284Y-76512757D01*
X147060523Y-76305251D01*
X146929198Y-76117700D01*
X146767300Y-75955802D01*
X146767296Y-75955799D01*
X146579746Y-75824474D01*
X146574985Y-75821726D01*
X146576023Y-75819927D01*
X146529532Y-75778963D01*
X146510095Y-75710679D01*
X146530661Y-75642726D01*
X146575782Y-75603664D01*
X146574730Y-75601841D01*
X146579496Y-75599088D01*
X146650888Y-75549099D01*
X146650888Y-75549097D01*
X145962518Y-74860727D01*
X146048148Y-74847165D01*
X146161045Y-74789641D01*
X146250641Y-74700045D01*
X146308165Y-74587148D01*
X146321727Y-74501518D01*
X147010097Y-75189888D01*
X147010099Y-75189888D01*
X147060088Y-75118497D01*
X147156811Y-74911073D01*
X147156813Y-74911068D01*
X147216048Y-74690002D01*
X147235995Y-74462000D01*
X147216048Y-74233997D01*
X147156813Y-74012931D01*
X147156811Y-74012926D01*
X147060086Y-73805498D01*
X147010100Y-73734110D01*
X147010098Y-73734110D01*
X146321727Y-74422481D01*
X146308165Y-74336852D01*
X146250641Y-74223955D01*
X146161045Y-74134359D01*
X146048148Y-74076835D01*
X145962514Y-74063272D01*
X146650888Y-73374899D01*
X146650888Y-73374898D01*
X146579501Y-73324913D01*
X146372073Y-73228188D01*
X146372068Y-73228186D01*
X146151000Y-73168951D01*
X146151004Y-73168951D01*
X145922999Y-73149004D01*
X145694997Y-73168951D01*
X145473931Y-73228186D01*
X145473926Y-73228188D01*
X145266500Y-73324913D01*
X145195109Y-73374899D01*
X145883483Y-74063272D01*
X145797852Y-74076835D01*
X145684955Y-74134359D01*
X145595359Y-74223955D01*
X145537835Y-74336852D01*
X145524272Y-74422481D01*
X144835900Y-73734109D01*
X144785913Y-73805500D01*
X144689188Y-74012926D01*
X144689186Y-74012931D01*
X144629951Y-74233997D01*
X144610004Y-74462000D01*
X144629951Y-74690002D01*
X144689186Y-74911068D01*
X144689188Y-74911073D01*
X144785913Y-75118501D01*
X144835899Y-75189888D01*
X145524272Y-74501516D01*
X145537835Y-74587148D01*
X145595359Y-74700045D01*
X145684955Y-74789641D01*
X145797852Y-74847165D01*
X145883482Y-74860727D01*
X145195110Y-75549098D01*
X145195110Y-75549100D01*
X145266498Y-75599086D01*
X145271266Y-75601839D01*
X145270178Y-75603721D01*
X145316420Y-75644409D01*
X145335904Y-75712680D01*
X145315386Y-75780647D01*
X145270015Y-75819995D01*
X145271015Y-75821726D01*
X145266253Y-75824474D01*
X145078703Y-75955799D01*
X145078697Y-75955804D01*
X144916804Y-76117697D01*
X144916797Y-76117706D01*
X144894344Y-76149772D01*
X144838887Y-76194100D01*
X144791132Y-76203500D01*
X129401868Y-76203500D01*
X129333747Y-76183498D01*
X129298656Y-76149772D01*
X129280414Y-76123721D01*
X129276198Y-76117700D01*
X129114300Y-75955802D01*
X128926749Y-75824477D01*
X128832755Y-75780647D01*
X128719246Y-75727717D01*
X128719240Y-75727715D01*
X128603923Y-75696816D01*
X128498087Y-75668457D01*
X128270000Y-75648502D01*
X128041913Y-75668457D01*
X127820759Y-75727715D01*
X127820753Y-75727717D01*
X127613250Y-75824477D01*
X127425703Y-75955799D01*
X127425697Y-75955804D01*
X127263804Y-76117697D01*
X127263797Y-76117706D01*
X127241344Y-76149772D01*
X127185887Y-76194100D01*
X127138132Y-76203500D01*
X126861868Y-76203500D01*
X126793747Y-76183498D01*
X126758656Y-76149772D01*
X126740414Y-76123721D01*
X126736198Y-76117700D01*
X126574300Y-75955802D01*
X126386749Y-75824477D01*
X126292755Y-75780647D01*
X126179246Y-75727717D01*
X126179240Y-75727715D01*
X126063923Y-75696816D01*
X125958087Y-75668457D01*
X125730000Y-75648502D01*
X125501913Y-75668457D01*
X125280759Y-75727715D01*
X125280753Y-75727717D01*
X125073250Y-75824477D01*
X124885703Y-75955799D01*
X124885697Y-75955804D01*
X124723804Y-76117697D01*
X124723799Y-76117703D01*
X124592477Y-76305250D01*
X124574195Y-76344457D01*
X124527278Y-76397742D01*
X124459001Y-76417203D01*
X124391041Y-76396661D01*
X124345805Y-76344457D01*
X124343894Y-76340359D01*
X124327523Y-76305251D01*
X124196198Y-76117700D01*
X124034300Y-75955802D01*
X123846749Y-75824477D01*
X123752755Y-75780647D01*
X123639246Y-75727717D01*
X123639240Y-75727715D01*
X123523923Y-75696816D01*
X123418087Y-75668457D01*
X123190000Y-75648502D01*
X123189997Y-75648502D01*
X123187687Y-75648300D01*
X123121569Y-75622436D01*
X123079930Y-75564933D01*
X123075989Y-75494046D01*
X123109571Y-75433687D01*
X123425856Y-75117402D01*
X123488166Y-75083379D01*
X123514949Y-75080500D01*
X136733776Y-75080500D01*
X136801897Y-75100502D01*
X136807834Y-75104562D01*
X136957248Y-75213118D01*
X137131712Y-75290794D01*
X137318513Y-75330500D01*
X137509487Y-75330500D01*
X137696288Y-75290794D01*
X137870752Y-75213118D01*
X138025253Y-75100866D01*
X138025581Y-75100502D01*
X138153034Y-74958951D01*
X138153035Y-74958949D01*
X138153040Y-74958944D01*
X138248527Y-74793556D01*
X138307542Y-74611928D01*
X138327504Y-74422000D01*
X138307542Y-74232072D01*
X138248527Y-74050444D01*
X138153040Y-73885056D01*
X138153038Y-73885054D01*
X138153034Y-73885048D01*
X138025255Y-73743135D01*
X137870752Y-73630882D01*
X137696284Y-73553204D01*
X137689423Y-73551746D01*
X137626950Y-73518018D01*
X137592629Y-73455868D01*
X137597357Y-73385029D01*
X137639634Y-73327992D01*
X137706035Y-73302865D01*
X137715621Y-73302500D01*
X139019776Y-73302500D01*
X139087897Y-73322502D01*
X139093834Y-73326562D01*
X139243248Y-73435118D01*
X139417712Y-73512794D01*
X139604513Y-73552500D01*
X139795487Y-73552500D01*
X139982288Y-73512794D01*
X140156752Y-73435118D01*
X140311253Y-73322866D01*
X140311581Y-73322502D01*
X140439034Y-73180951D01*
X140439035Y-73180949D01*
X140439040Y-73180944D01*
X140534527Y-73015556D01*
X140593542Y-72833928D01*
X140613504Y-72644000D01*
X140593542Y-72454072D01*
X140534527Y-72272444D01*
X140439040Y-72107056D01*
X140439038Y-72107054D01*
X140439034Y-72107048D01*
X140311255Y-71965135D01*
X140156752Y-71852882D01*
X139982288Y-71775206D01*
X139795487Y-71735500D01*
X139604513Y-71735500D01*
X139417711Y-71775206D01*
X139243247Y-71852882D01*
X139093837Y-71961436D01*
X139026969Y-71985294D01*
X139019776Y-71985500D01*
X122514611Y-71985500D01*
X122498379Y-71983708D01*
X122498356Y-71983958D01*
X122490463Y-71983211D01*
X122418642Y-71985469D01*
X122416663Y-71985500D01*
X122386568Y-71985500D01*
X122379222Y-71986427D01*
X122373309Y-71986893D01*
X122324172Y-71988437D01*
X122324170Y-71988437D01*
X122324169Y-71988438D01*
X122303571Y-71994421D01*
X122284221Y-71998428D01*
X122262940Y-72001116D01*
X122262935Y-72001118D01*
X122217214Y-72019219D01*
X122211599Y-72021141D01*
X122164406Y-72034852D01*
X122164398Y-72034855D01*
X122145941Y-72045771D01*
X122128193Y-72054466D01*
X122108244Y-72062364D01*
X122108244Y-72062365D01*
X122108239Y-72062368D01*
X122068461Y-72091268D01*
X122063510Y-72094520D01*
X122042315Y-72107056D01*
X122021191Y-72119549D01*
X122006029Y-72134711D01*
X121991002Y-72147545D01*
X121973646Y-72160156D01*
X121973643Y-72160158D01*
X121942294Y-72198051D01*
X121938298Y-72202442D01*
X118495363Y-75645376D01*
X118433051Y-75679402D01*
X118373659Y-75677988D01*
X118338088Y-75668457D01*
X118110000Y-75648502D01*
X117881913Y-75668457D01*
X117660759Y-75727715D01*
X117660753Y-75727717D01*
X117453250Y-75824477D01*
X117265703Y-75955799D01*
X117265697Y-75955804D01*
X117103804Y-76117697D01*
X117103799Y-76117703D01*
X116972477Y-76305250D01*
X116954195Y-76344457D01*
X116907278Y-76397742D01*
X116839001Y-76417203D01*
X116771041Y-76396661D01*
X116725805Y-76344457D01*
X116723894Y-76340359D01*
X116707523Y-76305251D01*
X116576198Y-76117700D01*
X116414300Y-75955802D01*
X116226749Y-75824477D01*
X116132755Y-75780647D01*
X116019246Y-75727717D01*
X116019240Y-75727715D01*
X115903923Y-75696816D01*
X115798087Y-75668457D01*
X115570000Y-75648502D01*
X115341913Y-75668457D01*
X115120759Y-75727715D01*
X115120753Y-75727717D01*
X114913250Y-75824477D01*
X114725703Y-75955799D01*
X114725697Y-75955804D01*
X114563804Y-76117697D01*
X114563799Y-76117703D01*
X114432475Y-76305252D01*
X114413918Y-76345049D01*
X114367001Y-76398333D01*
X114298724Y-76417794D01*
X114230764Y-76397252D01*
X114185530Y-76345049D01*
X114167089Y-76305503D01*
X114035815Y-76118025D01*
X114035810Y-76118019D01*
X113873980Y-75956189D01*
X113873974Y-75956184D01*
X113686498Y-75824912D01*
X113479073Y-75728188D01*
X113479071Y-75728187D01*
X113284000Y-75675917D01*
X113284000Y-76650314D01*
X113268045Y-76634359D01*
X113155148Y-76576835D01*
X113061481Y-76562000D01*
X112998519Y-76562000D01*
X112904852Y-76576835D01*
X112791955Y-76634359D01*
X112776000Y-76650314D01*
X112776000Y-75675917D01*
X112775999Y-75675917D01*
X112580928Y-75728187D01*
X112580926Y-75728188D01*
X112373501Y-75824912D01*
X112186025Y-75956184D01*
X112186019Y-75956189D01*
X112024189Y-76118019D01*
X112024184Y-76118025D01*
X111892910Y-76305504D01*
X111874468Y-76345051D01*
X111827550Y-76398335D01*
X111759272Y-76417794D01*
X111691313Y-76397250D01*
X111646080Y-76345047D01*
X111627641Y-76305504D01*
X111627523Y-76305251D01*
X111496198Y-76117700D01*
X111334300Y-75955802D01*
X111146749Y-75824477D01*
X111052755Y-75780647D01*
X110939246Y-75727717D01*
X110939240Y-75727715D01*
X110823923Y-75696816D01*
X110718087Y-75668457D01*
X110490000Y-75648502D01*
X110261913Y-75668457D01*
X110040759Y-75727715D01*
X110040753Y-75727717D01*
X109833250Y-75824477D01*
X109645703Y-75955799D01*
X109645697Y-75955804D01*
X109483804Y-76117697D01*
X109483799Y-76117703D01*
X109352477Y-76305250D01*
X109334195Y-76344457D01*
X109287278Y-76397742D01*
X109219001Y-76417203D01*
X109151041Y-76396661D01*
X109105805Y-76344457D01*
X109103894Y-76340359D01*
X109087523Y-76305251D01*
X108956198Y-76117700D01*
X108794300Y-75955802D01*
X108606749Y-75824477D01*
X108512755Y-75780647D01*
X108399246Y-75727717D01*
X108399240Y-75727715D01*
X108283923Y-75696816D01*
X108178087Y-75668457D01*
X107950000Y-75648502D01*
X107949997Y-75648502D01*
X107947686Y-75648300D01*
X107881568Y-75622436D01*
X107839929Y-75564933D01*
X107835988Y-75494046D01*
X107869571Y-75433686D01*
X112249853Y-71053405D01*
X112312166Y-71019379D01*
X112338949Y-71016500D01*
X131399776Y-71016500D01*
X131467897Y-71036502D01*
X131473834Y-71040562D01*
X131623248Y-71149118D01*
X131797712Y-71226794D01*
X131984513Y-71266500D01*
X132175487Y-71266500D01*
X132362288Y-71226794D01*
X132536752Y-71149118D01*
X132691253Y-71036866D01*
X132691581Y-71036502D01*
X132819034Y-70894951D01*
X132819035Y-70894949D01*
X132819040Y-70894944D01*
X132914527Y-70729556D01*
X132973542Y-70547928D01*
X132993504Y-70358000D01*
X132973542Y-70168072D01*
X132914527Y-69986444D01*
X132819040Y-69821056D01*
X132819038Y-69821054D01*
X132819034Y-69821048D01*
X132691255Y-69679135D01*
X132536752Y-69566882D01*
X132362288Y-69489206D01*
X132175487Y-69449500D01*
X131984513Y-69449500D01*
X131797711Y-69489206D01*
X131623247Y-69566882D01*
X131473837Y-69675436D01*
X131406969Y-69699294D01*
X131399776Y-69699500D01*
X130577833Y-69699500D01*
X130509712Y-69679498D01*
X130463219Y-69625842D01*
X130452523Y-69586670D01*
X130450443Y-69566882D01*
X130433542Y-69406072D01*
X130374527Y-69224444D01*
X130279040Y-69059056D01*
X130279038Y-69059054D01*
X130279034Y-69059048D01*
X130151255Y-68917135D01*
X129996752Y-68804882D01*
X129822288Y-68727206D01*
X129635487Y-68687500D01*
X129444513Y-68687500D01*
X129257711Y-68727206D01*
X129083247Y-68804882D01*
X128933837Y-68913436D01*
X128866969Y-68937294D01*
X128859776Y-68937500D01*
X128037833Y-68937500D01*
X127969712Y-68917498D01*
X127923219Y-68863842D01*
X127912523Y-68824670D01*
X127910443Y-68804882D01*
X127893542Y-68644072D01*
X127834527Y-68462444D01*
X127739040Y-68297056D01*
X127739038Y-68297054D01*
X127739034Y-68297048D01*
X127611255Y-68155135D01*
X127456752Y-68042882D01*
X127282288Y-67965206D01*
X127095487Y-67925500D01*
X126904513Y-67925500D01*
X126717711Y-67965206D01*
X126543247Y-68042882D01*
X126393837Y-68151436D01*
X126326969Y-68175294D01*
X126319776Y-68175500D01*
X125497833Y-68175500D01*
X125429712Y-68155498D01*
X125383219Y-68101842D01*
X125372523Y-68062670D01*
X125370443Y-68042882D01*
X125353542Y-67882072D01*
X125294527Y-67700444D01*
X125199040Y-67535056D01*
X125199038Y-67535054D01*
X125199034Y-67535048D01*
X125071255Y-67393135D01*
X124916752Y-67280882D01*
X124742288Y-67203206D01*
X124555487Y-67163500D01*
X124364513Y-67163500D01*
X124177711Y-67203206D01*
X124003247Y-67280882D01*
X123853837Y-67389436D01*
X123786969Y-67413294D01*
X123779776Y-67413500D01*
X122957833Y-67413500D01*
X122889712Y-67393498D01*
X122843219Y-67339842D01*
X122832523Y-67300670D01*
X122830443Y-67280882D01*
X122813542Y-67120072D01*
X122754527Y-66938444D01*
X122659040Y-66773056D01*
X122659038Y-66773054D01*
X122659034Y-66773048D01*
X122531255Y-66631135D01*
X122376752Y-66518882D01*
X122202288Y-66441206D01*
X122015487Y-66401500D01*
X121824513Y-66401500D01*
X121637711Y-66441206D01*
X121463247Y-66518882D01*
X121313837Y-66627436D01*
X121246969Y-66651294D01*
X121239776Y-66651500D01*
X104988611Y-66651500D01*
X104972379Y-66649708D01*
X104972356Y-66649958D01*
X104964463Y-66649211D01*
X104892642Y-66651469D01*
X104890663Y-66651500D01*
X104860568Y-66651500D01*
X104853222Y-66652427D01*
X104847309Y-66652893D01*
X104798172Y-66654437D01*
X104798170Y-66654437D01*
X104798169Y-66654438D01*
X104777571Y-66660421D01*
X104758221Y-66664428D01*
X104736940Y-66667116D01*
X104736935Y-66667118D01*
X104691214Y-66685219D01*
X104685599Y-66687141D01*
X104638406Y-66700852D01*
X104638398Y-66700855D01*
X104619941Y-66711771D01*
X104602193Y-66720466D01*
X104582244Y-66728364D01*
X104582244Y-66728365D01*
X104582239Y-66728368D01*
X104542461Y-66757268D01*
X104537510Y-66760520D01*
X104516315Y-66773056D01*
X104495191Y-66785549D01*
X104480029Y-66800711D01*
X104465002Y-66813545D01*
X104447646Y-66826156D01*
X104447643Y-66826158D01*
X104416294Y-66864051D01*
X104412298Y-66868442D01*
X95635362Y-75645376D01*
X95573050Y-75679402D01*
X95513657Y-75677988D01*
X95478088Y-75668457D01*
X95250000Y-75648502D01*
X95021913Y-75668457D01*
X94800759Y-75727715D01*
X94800753Y-75727717D01*
X94593250Y-75824477D01*
X94405703Y-75955799D01*
X94405697Y-75955804D01*
X94243804Y-76117697D01*
X94243799Y-76117703D01*
X94112477Y-76305250D01*
X94015717Y-76512753D01*
X94015715Y-76512759D01*
X93980000Y-76646049D01*
X93956457Y-76733913D01*
X93936502Y-76962000D01*
X93956457Y-77190087D01*
X93980000Y-77277950D01*
X94015715Y-77411240D01*
X94015717Y-77411246D01*
X94112477Y-77618749D01*
X94122616Y-77633229D01*
X94145304Y-77700503D01*
X94128019Y-77769363D01*
X94076250Y-77817947D01*
X94019403Y-77831500D01*
X93884513Y-77831500D01*
X93697711Y-77871206D01*
X93523247Y-77948882D01*
X93368744Y-78061135D01*
X93240965Y-78203048D01*
X93240958Y-78203058D01*
X93145476Y-78368438D01*
X93145473Y-78368445D01*
X93086457Y-78550072D01*
X93066496Y-78739999D01*
X93086457Y-78929927D01*
X93116526Y-79022470D01*
X93145473Y-79111556D01*
X93145476Y-79111561D01*
X93240958Y-79276941D01*
X93240965Y-79276951D01*
X93368744Y-79418864D01*
X93368747Y-79418866D01*
X93523248Y-79531118D01*
X93697712Y-79608794D01*
X93884513Y-79648500D01*
X94075487Y-79648500D01*
X94262288Y-79608794D01*
X94436752Y-79531118D01*
X94586163Y-79422563D01*
X94653031Y-79398706D01*
X94660224Y-79398500D01*
X95482167Y-79398500D01*
X95550288Y-79418502D01*
X95596781Y-79472158D01*
X95607476Y-79511327D01*
X95613229Y-79566061D01*
X95626457Y-79691927D01*
X95656526Y-79784470D01*
X95685473Y-79873556D01*
X95685476Y-79873561D01*
X95780958Y-80038941D01*
X95780965Y-80038951D01*
X95908744Y-80180864D01*
X95908747Y-80180866D01*
X96063248Y-80293118D01*
X96237712Y-80370794D01*
X96424513Y-80410500D01*
X96615487Y-80410500D01*
X96802288Y-80370794D01*
X96976752Y-80293118D01*
X97126163Y-80184563D01*
X97193031Y-80160706D01*
X97200224Y-80160500D01*
X98022167Y-80160500D01*
X98090288Y-80180502D01*
X98136781Y-80234158D01*
X98147476Y-80273327D01*
X98153229Y-80328061D01*
X98166457Y-80453927D01*
X98196526Y-80546470D01*
X98225473Y-80635556D01*
X98225476Y-80635561D01*
X98320958Y-80800941D01*
X98320965Y-80800951D01*
X98448744Y-80942864D01*
X98448747Y-80942866D01*
X98603248Y-81055118D01*
X98777712Y-81132794D01*
X98964513Y-81172500D01*
X99155487Y-81172500D01*
X99342288Y-81132794D01*
X99516752Y-81055118D01*
X99666163Y-80946563D01*
X99733031Y-80922706D01*
X99740224Y-80922500D01*
X100562167Y-80922500D01*
X100630288Y-80942502D01*
X100676781Y-80996158D01*
X100687476Y-81035327D01*
X100693229Y-81090061D01*
X100706457Y-81215927D01*
X100736526Y-81308470D01*
X100765473Y-81397556D01*
X100765476Y-81397561D01*
X100860958Y-81562941D01*
X100860965Y-81562951D01*
X100988744Y-81704864D01*
X100988747Y-81704866D01*
X101143248Y-81817118D01*
X101317712Y-81894794D01*
X101504513Y-81934500D01*
X101695487Y-81934500D01*
X101882288Y-81894794D01*
X102056752Y-81817118D01*
X102206163Y-81708563D01*
X102273031Y-81684706D01*
X102280224Y-81684500D01*
X103102167Y-81684500D01*
X103170288Y-81704502D01*
X103216781Y-81758158D01*
X103227476Y-81797327D01*
X103233229Y-81852061D01*
X103246457Y-81977927D01*
X103276526Y-82070470D01*
X103305473Y-82159556D01*
X103305476Y-82159561D01*
X103400958Y-82324941D01*
X103400965Y-82324951D01*
X103528744Y-82466864D01*
X103528747Y-82466866D01*
X103683248Y-82579118D01*
X103857712Y-82656794D01*
X104044513Y-82696500D01*
X104235487Y-82696500D01*
X104422288Y-82656794D01*
X104596752Y-82579118D01*
X104746163Y-82470563D01*
X104813031Y-82446706D01*
X104820224Y-82446500D01*
X105642167Y-82446500D01*
X105710288Y-82466502D01*
X105756781Y-82520158D01*
X105767476Y-82559327D01*
X105770746Y-82590432D01*
X105786457Y-82739927D01*
X105816526Y-82832470D01*
X105845473Y-82921556D01*
X105845476Y-82921561D01*
X105940958Y-83086941D01*
X105940965Y-83086951D01*
X106068744Y-83228864D01*
X106068747Y-83228866D01*
X106223248Y-83341118D01*
X106397712Y-83418794D01*
X106584513Y-83458500D01*
X106605050Y-83458500D01*
X106673171Y-83478502D01*
X106694145Y-83495405D01*
X109709124Y-86510383D01*
X109719340Y-86523133D01*
X109719533Y-86522974D01*
X109724584Y-86529080D01*
X109776994Y-86578296D01*
X109778383Y-86579642D01*
X109799667Y-86600926D01*
X109805523Y-86605468D01*
X109810020Y-86609310D01*
X109845867Y-86642972D01*
X109864660Y-86653303D01*
X109881184Y-86664158D01*
X109898132Y-86677305D01*
X109943255Y-86696831D01*
X109948589Y-86699444D01*
X109991657Y-86723121D01*
X109991659Y-86723122D01*
X109991663Y-86723124D01*
X110012440Y-86728458D01*
X110031132Y-86734857D01*
X110050823Y-86743379D01*
X110099402Y-86751072D01*
X110105171Y-86752267D01*
X110152812Y-86764500D01*
X110174258Y-86764500D01*
X110193968Y-86766050D01*
X110215151Y-86769406D01*
X110250642Y-86766051D01*
X110264092Y-86764780D01*
X110270025Y-86764500D01*
X116308675Y-86764500D01*
X116376796Y-86784502D01*
X116397770Y-86801405D01*
X116812209Y-87215844D01*
X116846235Y-87278156D01*
X116841170Y-87348971D01*
X116798623Y-87405807D01*
X116732103Y-87430618D01*
X116679083Y-87422995D01*
X116569201Y-87382011D01*
X116569199Y-87382010D01*
X116569197Y-87382010D01*
X116569196Y-87382009D01*
X116508649Y-87375500D01*
X116508638Y-87375500D01*
X114631362Y-87375500D01*
X114631350Y-87375500D01*
X114570803Y-87382009D01*
X114570795Y-87382011D01*
X114433797Y-87433110D01*
X114375509Y-87476744D01*
X114308988Y-87501554D01*
X114239614Y-87486462D01*
X114224491Y-87476744D01*
X114206900Y-87463575D01*
X114166204Y-87433111D01*
X114166202Y-87433110D01*
X114029204Y-87382011D01*
X114029196Y-87382009D01*
X113968649Y-87375500D01*
X113968638Y-87375500D01*
X112091362Y-87375500D01*
X112091350Y-87375500D01*
X112030803Y-87382009D01*
X112030795Y-87382011D01*
X111893797Y-87433110D01*
X111893792Y-87433112D01*
X111835092Y-87477056D01*
X111768572Y-87501867D01*
X111699198Y-87486776D01*
X111684073Y-87477056D01*
X111625963Y-87433554D01*
X111489093Y-87382505D01*
X111428597Y-87376000D01*
X110744000Y-87376000D01*
X110744000Y-91822000D01*
X110723998Y-91890121D01*
X110670342Y-91936614D01*
X110618000Y-91948000D01*
X110362000Y-91948000D01*
X110293879Y-91927998D01*
X110247386Y-91874342D01*
X110236000Y-91822000D01*
X110236000Y-87376000D01*
X109551402Y-87376000D01*
X109490906Y-87382505D01*
X109354035Y-87433555D01*
X109295924Y-87477056D01*
X109229403Y-87501866D01*
X109160029Y-87486774D01*
X109144907Y-87477055D01*
X109086207Y-87433112D01*
X109086202Y-87433110D01*
X108949204Y-87382011D01*
X108949196Y-87382009D01*
X108888649Y-87375500D01*
X108888638Y-87375500D01*
X107011362Y-87375500D01*
X107011350Y-87375500D01*
X106950803Y-87382009D01*
X106950795Y-87382011D01*
X106813797Y-87433110D01*
X106755509Y-87476744D01*
X106688988Y-87501554D01*
X106619614Y-87486462D01*
X106604491Y-87476744D01*
X106586900Y-87463575D01*
X106546204Y-87433111D01*
X106546202Y-87433110D01*
X106409204Y-87382011D01*
X106409196Y-87382009D01*
X106348649Y-87375500D01*
X106348638Y-87375500D01*
X104471362Y-87375500D01*
X104471350Y-87375500D01*
X104410803Y-87382009D01*
X104410795Y-87382011D01*
X104273797Y-87433110D01*
X104215509Y-87476744D01*
X104148988Y-87501554D01*
X104079614Y-87486462D01*
X104064491Y-87476744D01*
X104046900Y-87463575D01*
X104006204Y-87433111D01*
X104006202Y-87433110D01*
X103869204Y-87382011D01*
X103869196Y-87382009D01*
X103808649Y-87375500D01*
X103808638Y-87375500D01*
X101931362Y-87375500D01*
X101931350Y-87375500D01*
X101870803Y-87382009D01*
X101870795Y-87382011D01*
X101733797Y-87433110D01*
X101675509Y-87476744D01*
X101608988Y-87501554D01*
X101539614Y-87486462D01*
X101524491Y-87476744D01*
X101506900Y-87463575D01*
X101466204Y-87433111D01*
X101466202Y-87433110D01*
X101329204Y-87382011D01*
X101329196Y-87382009D01*
X101268649Y-87375500D01*
X101268638Y-87375500D01*
X99391362Y-87375500D01*
X99391350Y-87375500D01*
X99330803Y-87382009D01*
X99330795Y-87382011D01*
X99193797Y-87433110D01*
X99135509Y-87476744D01*
X99068988Y-87501554D01*
X98999614Y-87486462D01*
X98984491Y-87476744D01*
X98966900Y-87463575D01*
X98926204Y-87433111D01*
X98926202Y-87433110D01*
X98789204Y-87382011D01*
X98789196Y-87382009D01*
X98728649Y-87375500D01*
X98728638Y-87375500D01*
X96851362Y-87375500D01*
X96851350Y-87375500D01*
X96790803Y-87382009D01*
X96790795Y-87382011D01*
X96653797Y-87433110D01*
X96595509Y-87476744D01*
X96528988Y-87501554D01*
X96459614Y-87486462D01*
X96444491Y-87476744D01*
X96426900Y-87463575D01*
X96386204Y-87433111D01*
X96386202Y-87433110D01*
X96249204Y-87382011D01*
X96249196Y-87382009D01*
X96188649Y-87375500D01*
X96188638Y-87375500D01*
X94311362Y-87375500D01*
X94311350Y-87375500D01*
X94250803Y-87382009D01*
X94250795Y-87382011D01*
X94113797Y-87433110D01*
X94055509Y-87476744D01*
X93988988Y-87501554D01*
X93919614Y-87486462D01*
X93904491Y-87476744D01*
X93886900Y-87463575D01*
X93846204Y-87433111D01*
X93846202Y-87433110D01*
X93709204Y-87382011D01*
X93709196Y-87382009D01*
X93648649Y-87375500D01*
X93648638Y-87375500D01*
X91771362Y-87375500D01*
X91771350Y-87375500D01*
X91710803Y-87382009D01*
X91710795Y-87382011D01*
X91573797Y-87433110D01*
X91573793Y-87433112D01*
X91515507Y-87476744D01*
X91448986Y-87501554D01*
X91379612Y-87486462D01*
X91364490Y-87476743D01*
X91306207Y-87433112D01*
X91306202Y-87433110D01*
X91169204Y-87382011D01*
X91169196Y-87382009D01*
X91108649Y-87375500D01*
X91108638Y-87375500D01*
X89231362Y-87375500D01*
X89231350Y-87375500D01*
X89170803Y-87382009D01*
X89170795Y-87382011D01*
X89033797Y-87433110D01*
X88975509Y-87476744D01*
X88908988Y-87501554D01*
X88839614Y-87486462D01*
X88824491Y-87476744D01*
X88806900Y-87463575D01*
X88766204Y-87433111D01*
X88766202Y-87433110D01*
X88629204Y-87382011D01*
X88629196Y-87382009D01*
X88568649Y-87375500D01*
X88568638Y-87375500D01*
X86691362Y-87375500D01*
X86691350Y-87375500D01*
X86630803Y-87382009D01*
X86630795Y-87382011D01*
X86493797Y-87433110D01*
X86435509Y-87476744D01*
X86368988Y-87501554D01*
X86299614Y-87486462D01*
X86284491Y-87476744D01*
X86266900Y-87463575D01*
X86226204Y-87433111D01*
X86226202Y-87433110D01*
X86089204Y-87382011D01*
X86089196Y-87382009D01*
X86028649Y-87375500D01*
X86028638Y-87375500D01*
X84151362Y-87375500D01*
X84151350Y-87375500D01*
X84090803Y-87382009D01*
X84090795Y-87382011D01*
X83953797Y-87433110D01*
X83895509Y-87476744D01*
X83828988Y-87501554D01*
X83759614Y-87486462D01*
X83744491Y-87476744D01*
X83726900Y-87463575D01*
X83686204Y-87433111D01*
X83686202Y-87433110D01*
X83549204Y-87382011D01*
X83549196Y-87382009D01*
X83488649Y-87375500D01*
X83488638Y-87375500D01*
X81611362Y-87375500D01*
X81611350Y-87375500D01*
X81550803Y-87382009D01*
X81550795Y-87382011D01*
X81413797Y-87433110D01*
X81413793Y-87433112D01*
X81355507Y-87476744D01*
X81288986Y-87501554D01*
X81219612Y-87486462D01*
X81204490Y-87476743D01*
X81146207Y-87433112D01*
X81146202Y-87433110D01*
X81009204Y-87382011D01*
X81009196Y-87382009D01*
X80948649Y-87375500D01*
X80948638Y-87375500D01*
X79071362Y-87375500D01*
X79071350Y-87375500D01*
X79010803Y-87382009D01*
X79010795Y-87382011D01*
X78873797Y-87433110D01*
X78815509Y-87476744D01*
X78748988Y-87501554D01*
X78679614Y-87486462D01*
X78664491Y-87476744D01*
X78646900Y-87463575D01*
X78606204Y-87433111D01*
X78606202Y-87433110D01*
X78469204Y-87382011D01*
X78469196Y-87382009D01*
X78408649Y-87375500D01*
X78408638Y-87375500D01*
X76531362Y-87375500D01*
X76531350Y-87375500D01*
X76470803Y-87382009D01*
X76470795Y-87382011D01*
X76333797Y-87433110D01*
X76275509Y-87476744D01*
X76208988Y-87501554D01*
X76139614Y-87486462D01*
X76124491Y-87476744D01*
X76106900Y-87463575D01*
X76066204Y-87433111D01*
X76066202Y-87433110D01*
X75929204Y-87382011D01*
X75929196Y-87382009D01*
X75868649Y-87375500D01*
X75868638Y-87375500D01*
X75814500Y-87375500D01*
X75746379Y-87355498D01*
X75699886Y-87301842D01*
X75688500Y-87249500D01*
X75688500Y-86642999D01*
X75705380Y-86580000D01*
X75764527Y-86477556D01*
X75823542Y-86295928D01*
X75843504Y-86106000D01*
X75823542Y-85916072D01*
X75764527Y-85734444D01*
X75669040Y-85569056D01*
X75669038Y-85569054D01*
X75669034Y-85569048D01*
X75541255Y-85427135D01*
X75386752Y-85314882D01*
X75212288Y-85237206D01*
X75025487Y-85197500D01*
X74834513Y-85197500D01*
X74647711Y-85237206D01*
X74473247Y-85314882D01*
X74318744Y-85427135D01*
X74190965Y-85569048D01*
X74190958Y-85569058D01*
X74095476Y-85734438D01*
X74095473Y-85734444D01*
X74080999Y-85778986D01*
X74036457Y-85916072D01*
X74016496Y-86106000D01*
X74036457Y-86295927D01*
X74057276Y-86360000D01*
X74095473Y-86477556D01*
X74154619Y-86580000D01*
X74171500Y-86642999D01*
X74171500Y-87249500D01*
X74151498Y-87317621D01*
X74097842Y-87364114D01*
X74045500Y-87375500D01*
X73991350Y-87375500D01*
X73930803Y-87382009D01*
X73930795Y-87382011D01*
X73793797Y-87433110D01*
X73793792Y-87433112D01*
X73676738Y-87520738D01*
X73589112Y-87637792D01*
X73589110Y-87637797D01*
X73538011Y-87774795D01*
X73538009Y-87774803D01*
X73531500Y-87835350D01*
X73531500Y-95552649D01*
X73538530Y-95618032D01*
X73525924Y-95687900D01*
X73477546Y-95739862D01*
X73413252Y-95757500D01*
X72262500Y-95757500D01*
X72194379Y-95737498D01*
X72147886Y-95683842D01*
X72136500Y-95631500D01*
X72136500Y-86639157D01*
X72136528Y-86639014D01*
X72136524Y-86639014D01*
X72136539Y-86614002D01*
X72136541Y-86614000D01*
X72136383Y-86613617D01*
X72136381Y-86613616D01*
X72136380Y-86613614D01*
X72136201Y-86613541D01*
X72136003Y-86613459D01*
X72111048Y-86613459D01*
X72110842Y-86613500D01*
X71754572Y-86613500D01*
X71686451Y-86593498D01*
X71639958Y-86539842D01*
X71628572Y-86487428D01*
X71642805Y-61468000D01*
X93963917Y-61468000D01*
X94938314Y-61468000D01*
X94922359Y-61483955D01*
X94864835Y-61596852D01*
X94845014Y-61722000D01*
X94864835Y-61847148D01*
X94922359Y-61960045D01*
X94938314Y-61976000D01*
X93963918Y-61976000D01*
X94016186Y-62171068D01*
X94016188Y-62171073D01*
X94112912Y-62378498D01*
X94244184Y-62565974D01*
X94244189Y-62565980D01*
X94406019Y-62727810D01*
X94406025Y-62727815D01*
X94593501Y-62859087D01*
X94800926Y-62955811D01*
X94800931Y-62955813D01*
X94996000Y-63008081D01*
X94996000Y-62033686D01*
X95011955Y-62049641D01*
X95124852Y-62107165D01*
X95218519Y-62122000D01*
X95281481Y-62122000D01*
X95375148Y-62107165D01*
X95488045Y-62049641D01*
X95504000Y-62033685D01*
X95504000Y-63008081D01*
X95699068Y-62955813D01*
X95699073Y-62955811D01*
X95906498Y-62859087D01*
X96093974Y-62727815D01*
X96093980Y-62727810D01*
X96255810Y-62565980D01*
X96255815Y-62565974D01*
X96387087Y-62378498D01*
X96405529Y-62338951D01*
X96452446Y-62285666D01*
X96520723Y-62266205D01*
X96588683Y-62286747D01*
X96633919Y-62338951D01*
X96652477Y-62378749D01*
X96783802Y-62566300D01*
X96945700Y-62728198D01*
X97133251Y-62859523D01*
X97340757Y-62956284D01*
X97561913Y-63015543D01*
X97790000Y-63035498D01*
X98018087Y-63015543D01*
X98053655Y-63006012D01*
X98124628Y-63007698D01*
X98175362Y-63038622D01*
X100565125Y-65428385D01*
X100575338Y-65441131D01*
X100575531Y-65440972D01*
X100580583Y-65447079D01*
X100632978Y-65496281D01*
X100634367Y-65497627D01*
X100655667Y-65518927D01*
X100655675Y-65518933D01*
X100661517Y-65523465D01*
X100666033Y-65527322D01*
X100701867Y-65560972D01*
X100720669Y-65571308D01*
X100737175Y-65582151D01*
X100754132Y-65595304D01*
X100799269Y-65614837D01*
X100804569Y-65617433D01*
X100847663Y-65641124D01*
X100861950Y-65644792D01*
X100868429Y-65646456D01*
X100887132Y-65652859D01*
X100891886Y-65654916D01*
X100906823Y-65661380D01*
X100955399Y-65669073D01*
X100961191Y-65670273D01*
X100979922Y-65675082D01*
X101008811Y-65682500D01*
X101008812Y-65682500D01*
X101030258Y-65682500D01*
X101049967Y-65684051D01*
X101054507Y-65684769D01*
X101071152Y-65687406D01*
X101108880Y-65683839D01*
X101120094Y-65682780D01*
X101126027Y-65682500D01*
X118699776Y-65682500D01*
X118767897Y-65702502D01*
X118773834Y-65706562D01*
X118923248Y-65815118D01*
X119097712Y-65892794D01*
X119284513Y-65932500D01*
X119475487Y-65932500D01*
X119662288Y-65892794D01*
X119836752Y-65815118D01*
X119991253Y-65702866D01*
X120008194Y-65684051D01*
X120119034Y-65560951D01*
X120119035Y-65560949D01*
X120119040Y-65560944D01*
X120214527Y-65395556D01*
X120273542Y-65213928D01*
X120293504Y-65024000D01*
X120273542Y-64834072D01*
X120214527Y-64652444D01*
X120119040Y-64487056D01*
X120119038Y-64487054D01*
X120119034Y-64487048D01*
X119991255Y-64345135D01*
X119836752Y-64232882D01*
X119662288Y-64155206D01*
X119475487Y-64115500D01*
X119284513Y-64115500D01*
X119097711Y-64155206D01*
X118923247Y-64232882D01*
X118773837Y-64341436D01*
X118706969Y-64365294D01*
X118699776Y-64365500D01*
X117877833Y-64365500D01*
X117809712Y-64345498D01*
X117763219Y-64291842D01*
X117752523Y-64252670D01*
X117750443Y-64232882D01*
X117733542Y-64072072D01*
X117674527Y-63890444D01*
X117579040Y-63725056D01*
X117579038Y-63725054D01*
X117579034Y-63725048D01*
X117451255Y-63583135D01*
X117296752Y-63470882D01*
X117122288Y-63393206D01*
X116935487Y-63353500D01*
X116744513Y-63353500D01*
X116557711Y-63393206D01*
X116383247Y-63470882D01*
X116233837Y-63579436D01*
X116166969Y-63603294D01*
X116159776Y-63603500D01*
X115337833Y-63603500D01*
X115269712Y-63583498D01*
X115223219Y-63529842D01*
X115212523Y-63490670D01*
X115210443Y-63470882D01*
X115193542Y-63310072D01*
X115146277Y-63164609D01*
X115144250Y-63093646D01*
X115180912Y-63032847D01*
X115244624Y-63001522D01*
X115298722Y-63003969D01*
X115341913Y-63015543D01*
X115570000Y-63035498D01*
X115798087Y-63015543D01*
X116019243Y-62956284D01*
X116226749Y-62859523D01*
X116414300Y-62728198D01*
X116576198Y-62566300D01*
X116707523Y-62378749D01*
X116725804Y-62339543D01*
X116772721Y-62286258D01*
X116840998Y-62266796D01*
X116908958Y-62287337D01*
X116954195Y-62339543D01*
X116972477Y-62378749D01*
X117103802Y-62566300D01*
X117265700Y-62728198D01*
X117453251Y-62859523D01*
X117660757Y-62956284D01*
X117881913Y-63015543D01*
X118110000Y-63035498D01*
X118338087Y-63015543D01*
X118559243Y-62956284D01*
X118766749Y-62859523D01*
X118954300Y-62728198D01*
X119116198Y-62566300D01*
X119247523Y-62378749D01*
X119265804Y-62339543D01*
X119312721Y-62286258D01*
X119380998Y-62266796D01*
X119448958Y-62287337D01*
X119494195Y-62339543D01*
X119512477Y-62378749D01*
X119643802Y-62566300D01*
X119805700Y-62728198D01*
X119993251Y-62859523D01*
X120200757Y-62956284D01*
X120421913Y-63015543D01*
X120650000Y-63035498D01*
X120878087Y-63015543D01*
X121099243Y-62956284D01*
X121306749Y-62859523D01*
X121494300Y-62728198D01*
X121656198Y-62566300D01*
X121787523Y-62378749D01*
X121805804Y-62339543D01*
X121852721Y-62286258D01*
X121920998Y-62266796D01*
X121988958Y-62287337D01*
X122034195Y-62339543D01*
X122052477Y-62378749D01*
X122183802Y-62566300D01*
X122345700Y-62728198D01*
X122533251Y-62859523D01*
X122740757Y-62956284D01*
X122961913Y-63015543D01*
X123190000Y-63035498D01*
X123418087Y-63015543D01*
X123639243Y-62956284D01*
X123846749Y-62859523D01*
X124034300Y-62728198D01*
X124196198Y-62566300D01*
X124327523Y-62378749D01*
X124345804Y-62339543D01*
X124392721Y-62286258D01*
X124460998Y-62266796D01*
X124528958Y-62287337D01*
X124574195Y-62339543D01*
X124592477Y-62378749D01*
X124723802Y-62566300D01*
X124885700Y-62728198D01*
X125073251Y-62859523D01*
X125280757Y-62956284D01*
X125501913Y-63015543D01*
X125730000Y-63035498D01*
X125958087Y-63015543D01*
X125993655Y-63006012D01*
X126064628Y-63007698D01*
X126115362Y-63038622D01*
X127362125Y-64285385D01*
X127372338Y-64298131D01*
X127372531Y-64297972D01*
X127377583Y-64304079D01*
X127429978Y-64353281D01*
X127431367Y-64354627D01*
X127452667Y-64375927D01*
X127452675Y-64375933D01*
X127458517Y-64380465D01*
X127463033Y-64384322D01*
X127498867Y-64417972D01*
X127517669Y-64428308D01*
X127534175Y-64439151D01*
X127551132Y-64452304D01*
X127596254Y-64471829D01*
X127601580Y-64474439D01*
X127644659Y-64498123D01*
X127644663Y-64498124D01*
X127665432Y-64503456D01*
X127684134Y-64509859D01*
X127703824Y-64518380D01*
X127752395Y-64526072D01*
X127758189Y-64527271D01*
X127805812Y-64539500D01*
X127827259Y-64539500D01*
X127846967Y-64541050D01*
X127868152Y-64544406D01*
X127905880Y-64540839D01*
X127917094Y-64539780D01*
X127923027Y-64539500D01*
X142829776Y-64539500D01*
X142897897Y-64559502D01*
X142903834Y-64563562D01*
X143053248Y-64672118D01*
X143227712Y-64749794D01*
X143414513Y-64789500D01*
X143605487Y-64789500D01*
X143792288Y-64749794D01*
X143966752Y-64672118D01*
X144121253Y-64559866D01*
X144138194Y-64541051D01*
X144249034Y-64417951D01*
X144249035Y-64417949D01*
X144249040Y-64417944D01*
X144344527Y-64252556D01*
X144403542Y-64070928D01*
X144423504Y-63881000D01*
X144403542Y-63691072D01*
X144344527Y-63509444D01*
X144249040Y-63344056D01*
X144249038Y-63344054D01*
X144249034Y-63344048D01*
X144121255Y-63202135D01*
X143966752Y-63089882D01*
X143792288Y-63012206D01*
X143605487Y-62972500D01*
X143414513Y-62972500D01*
X143227711Y-63012206D01*
X143053247Y-63089882D01*
X142903837Y-63198436D01*
X142836969Y-63222294D01*
X142829776Y-63222500D01*
X129345341Y-63222500D01*
X129277220Y-63202498D01*
X129230727Y-63148842D01*
X129220623Y-63078568D01*
X129250117Y-63013988D01*
X129301304Y-62978446D01*
X129316204Y-62972889D01*
X129433261Y-62885261D01*
X129466020Y-62841500D01*
X129520887Y-62768207D01*
X129520887Y-62768206D01*
X129520889Y-62768204D01*
X129564960Y-62650045D01*
X129571988Y-62631204D01*
X129571990Y-62631196D01*
X129578499Y-62570649D01*
X129578500Y-62570632D01*
X129578500Y-62506500D01*
X129598502Y-62438379D01*
X129652158Y-62391886D01*
X129704500Y-62380500D01*
X137933847Y-62380500D01*
X137985095Y-62391392D01*
X138147712Y-62463794D01*
X138334513Y-62503500D01*
X138525487Y-62503500D01*
X138712288Y-62463794D01*
X138886752Y-62386118D01*
X139041253Y-62273866D01*
X139169040Y-62131944D01*
X139264527Y-61966556D01*
X139323542Y-61784928D01*
X139343504Y-61595000D01*
X139323542Y-61405072D01*
X139264527Y-61223444D01*
X139169040Y-61058056D01*
X139169038Y-61058054D01*
X139169034Y-61058048D01*
X139041255Y-60916135D01*
X138886752Y-60803882D01*
X138712288Y-60726206D01*
X138525487Y-60686500D01*
X138334513Y-60686500D01*
X138147711Y-60726206D01*
X137973247Y-60803882D01*
X137818744Y-60916135D01*
X137723595Y-61021810D01*
X137663149Y-61059050D01*
X137629959Y-61063500D01*
X129704500Y-61063500D01*
X129636379Y-61043498D01*
X129589886Y-60989842D01*
X129578500Y-60937500D01*
X129578500Y-60873367D01*
X129578499Y-60873350D01*
X129571990Y-60812803D01*
X129571988Y-60812795D01*
X129535811Y-60715804D01*
X129520889Y-60675796D01*
X129520888Y-60675794D01*
X129520887Y-60675792D01*
X129433261Y-60558738D01*
X129316207Y-60471112D01*
X129316202Y-60471110D01*
X129179204Y-60420011D01*
X129179196Y-60420009D01*
X129118649Y-60413500D01*
X129118638Y-60413500D01*
X127421362Y-60413500D01*
X127421350Y-60413500D01*
X127360803Y-60420009D01*
X127360795Y-60420011D01*
X127223797Y-60471110D01*
X127223792Y-60471112D01*
X127106738Y-60558738D01*
X127019112Y-60675792D01*
X127019110Y-60675797D01*
X126968011Y-60812795D01*
X126968009Y-60812803D01*
X126967000Y-60822197D01*
X126939831Y-60887790D01*
X126881513Y-60928281D01*
X126810562Y-60930815D01*
X126749504Y-60894588D01*
X126738510Y-60881001D01*
X126736203Y-60877706D01*
X126736195Y-60877697D01*
X126574302Y-60715804D01*
X126574296Y-60715799D01*
X126386749Y-60584477D01*
X126179246Y-60487717D01*
X126179240Y-60487715D01*
X126085771Y-60462670D01*
X125958087Y-60428457D01*
X125730000Y-60408502D01*
X125501913Y-60428457D01*
X125280759Y-60487715D01*
X125280753Y-60487717D01*
X125073250Y-60584477D01*
X124885703Y-60715799D01*
X124885697Y-60715804D01*
X124723804Y-60877697D01*
X124723799Y-60877703D01*
X124592477Y-61065250D01*
X124574195Y-61104457D01*
X124527278Y-61157742D01*
X124459001Y-61177203D01*
X124391041Y-61156661D01*
X124345805Y-61104457D01*
X124343894Y-61100359D01*
X124327523Y-61065251D01*
X124196198Y-60877700D01*
X124034300Y-60715802D01*
X123846749Y-60584477D01*
X123639246Y-60487717D01*
X123639240Y-60487715D01*
X123545771Y-60462670D01*
X123418087Y-60428457D01*
X123190000Y-60408502D01*
X122961913Y-60428457D01*
X122740759Y-60487715D01*
X122740753Y-60487717D01*
X122533250Y-60584477D01*
X122345703Y-60715799D01*
X122345697Y-60715804D01*
X122183804Y-60877697D01*
X122183799Y-60877703D01*
X122052477Y-61065250D01*
X122034195Y-61104457D01*
X121987278Y-61157742D01*
X121919001Y-61177203D01*
X121851041Y-61156661D01*
X121805805Y-61104457D01*
X121803894Y-61100359D01*
X121787523Y-61065251D01*
X121656198Y-60877700D01*
X121494300Y-60715802D01*
X121306749Y-60584477D01*
X121099246Y-60487717D01*
X121099240Y-60487715D01*
X121005771Y-60462670D01*
X120878087Y-60428457D01*
X120650000Y-60408502D01*
X120421913Y-60428457D01*
X120200759Y-60487715D01*
X120200753Y-60487717D01*
X119993250Y-60584477D01*
X119805703Y-60715799D01*
X119805697Y-60715804D01*
X119643804Y-60877697D01*
X119643799Y-60877703D01*
X119512477Y-61065250D01*
X119494195Y-61104457D01*
X119447278Y-61157742D01*
X119379001Y-61177203D01*
X119311041Y-61156661D01*
X119265805Y-61104457D01*
X119263894Y-61100359D01*
X119247523Y-61065251D01*
X119116198Y-60877700D01*
X118954300Y-60715802D01*
X118766749Y-60584477D01*
X118559246Y-60487717D01*
X118559240Y-60487715D01*
X118465771Y-60462670D01*
X118338087Y-60428457D01*
X118110000Y-60408502D01*
X117881913Y-60428457D01*
X117660759Y-60487715D01*
X117660753Y-60487717D01*
X117453250Y-60584477D01*
X117265703Y-60715799D01*
X117265697Y-60715804D01*
X117103804Y-60877697D01*
X117103799Y-60877703D01*
X116972477Y-61065250D01*
X116954195Y-61104457D01*
X116907278Y-61157742D01*
X116839001Y-61177203D01*
X116771041Y-61156661D01*
X116725805Y-61104457D01*
X116723894Y-61100359D01*
X116707523Y-61065251D01*
X116576198Y-60877700D01*
X116414300Y-60715802D01*
X116226749Y-60584477D01*
X116019246Y-60487717D01*
X116019240Y-60487715D01*
X115925771Y-60462670D01*
X115798087Y-60428457D01*
X115570000Y-60408502D01*
X115341913Y-60428457D01*
X115120759Y-60487715D01*
X115120753Y-60487717D01*
X114913250Y-60584477D01*
X114725703Y-60715799D01*
X114725697Y-60715804D01*
X114563804Y-60877697D01*
X114563799Y-60877703D01*
X114432477Y-61065250D01*
X114414195Y-61104457D01*
X114367278Y-61157742D01*
X114299001Y-61177203D01*
X114231041Y-61156661D01*
X114185805Y-61104457D01*
X114183894Y-61100359D01*
X114167523Y-61065251D01*
X114036198Y-60877700D01*
X113874300Y-60715802D01*
X113686749Y-60584477D01*
X113686748Y-60584477D01*
X113479246Y-60487717D01*
X113479240Y-60487715D01*
X113385771Y-60462670D01*
X113258087Y-60428457D01*
X113030000Y-60408502D01*
X112801913Y-60428457D01*
X112580759Y-60487715D01*
X112580753Y-60487717D01*
X112373250Y-60584477D01*
X112185703Y-60715799D01*
X112185697Y-60715804D01*
X112023804Y-60877697D01*
X112023799Y-60877703D01*
X111892476Y-61065251D01*
X111874193Y-61104459D01*
X111827275Y-61157743D01*
X111758997Y-61177203D01*
X111691038Y-61156660D01*
X111645805Y-61104457D01*
X111627523Y-61065251D01*
X111622486Y-61058058D01*
X111498509Y-60881001D01*
X111496198Y-60877700D01*
X111334300Y-60715802D01*
X111146749Y-60584477D01*
X111146748Y-60584477D01*
X110939246Y-60487717D01*
X110939240Y-60487715D01*
X110845771Y-60462670D01*
X110718087Y-60428457D01*
X110490000Y-60408502D01*
X110261913Y-60428457D01*
X110040759Y-60487715D01*
X110040753Y-60487717D01*
X109833250Y-60584477D01*
X109645703Y-60715799D01*
X109645697Y-60715804D01*
X109483804Y-60877697D01*
X109483799Y-60877703D01*
X109352477Y-61065250D01*
X109334195Y-61104457D01*
X109287278Y-61157742D01*
X109219001Y-61177203D01*
X109151041Y-61156661D01*
X109105805Y-61104457D01*
X109103894Y-61100359D01*
X109087523Y-61065251D01*
X108956198Y-60877700D01*
X108794300Y-60715802D01*
X108606749Y-60584477D01*
X108606748Y-60584477D01*
X108399246Y-60487717D01*
X108399240Y-60487715D01*
X108305771Y-60462670D01*
X108178087Y-60428457D01*
X107950000Y-60408502D01*
X107721913Y-60428457D01*
X107500759Y-60487715D01*
X107500753Y-60487717D01*
X107293250Y-60584477D01*
X107105703Y-60715799D01*
X107105697Y-60715804D01*
X106943804Y-60877697D01*
X106943799Y-60877703D01*
X106812477Y-61065250D01*
X106794195Y-61104457D01*
X106747278Y-61157742D01*
X106679001Y-61177203D01*
X106611041Y-61156661D01*
X106565805Y-61104457D01*
X106563894Y-61100359D01*
X106547523Y-61065251D01*
X106416198Y-60877700D01*
X106254300Y-60715802D01*
X106066749Y-60584477D01*
X106066748Y-60584477D01*
X105859246Y-60487717D01*
X105859240Y-60487715D01*
X105765771Y-60462670D01*
X105638087Y-60428457D01*
X105410000Y-60408502D01*
X105181913Y-60428457D01*
X104960759Y-60487715D01*
X104960753Y-60487717D01*
X104753250Y-60584477D01*
X104565703Y-60715799D01*
X104565697Y-60715804D01*
X104403804Y-60877697D01*
X104403799Y-60877703D01*
X104272477Y-61065250D01*
X104254195Y-61104457D01*
X104207278Y-61157742D01*
X104139001Y-61177203D01*
X104071041Y-61156661D01*
X104025805Y-61104457D01*
X104023894Y-61100359D01*
X104007523Y-61065251D01*
X103876198Y-60877700D01*
X103714300Y-60715802D01*
X103526749Y-60584477D01*
X103526748Y-60584477D01*
X103319246Y-60487717D01*
X103319240Y-60487715D01*
X103225771Y-60462670D01*
X103098087Y-60428457D01*
X102870000Y-60408502D01*
X102641913Y-60428457D01*
X102420759Y-60487715D01*
X102420753Y-60487717D01*
X102213250Y-60584477D01*
X102025703Y-60715799D01*
X102025697Y-60715804D01*
X101863804Y-60877697D01*
X101863799Y-60877703D01*
X101732477Y-61065250D01*
X101714195Y-61104457D01*
X101667278Y-61157742D01*
X101599001Y-61177203D01*
X101531041Y-61156661D01*
X101485805Y-61104457D01*
X101483894Y-61100359D01*
X101467523Y-61065251D01*
X101336198Y-60877700D01*
X101174300Y-60715802D01*
X100986749Y-60584477D01*
X100779246Y-60487717D01*
X100779240Y-60487715D01*
X100685771Y-60462670D01*
X100558087Y-60428457D01*
X100330000Y-60408502D01*
X100101913Y-60428457D01*
X99880759Y-60487715D01*
X99880753Y-60487717D01*
X99673250Y-60584477D01*
X99485703Y-60715799D01*
X99485697Y-60715804D01*
X99323804Y-60877697D01*
X99323799Y-60877703D01*
X99192477Y-61065250D01*
X99174195Y-61104457D01*
X99127278Y-61157742D01*
X99059001Y-61177203D01*
X98991041Y-61156661D01*
X98945805Y-61104457D01*
X98943894Y-61100359D01*
X98927523Y-61065251D01*
X98796198Y-60877700D01*
X98634300Y-60715802D01*
X98446749Y-60584477D01*
X98446748Y-60584476D01*
X98239246Y-60487717D01*
X98239240Y-60487715D01*
X98145771Y-60462670D01*
X98018087Y-60428457D01*
X97790000Y-60408502D01*
X97561913Y-60428457D01*
X97340759Y-60487715D01*
X97340753Y-60487717D01*
X97133250Y-60584477D01*
X96945703Y-60715799D01*
X96945697Y-60715804D01*
X96783804Y-60877697D01*
X96783799Y-60877703D01*
X96652475Y-61065252D01*
X96633918Y-61105049D01*
X96587001Y-61158333D01*
X96518724Y-61177794D01*
X96450764Y-61157252D01*
X96405530Y-61105049D01*
X96387089Y-61065503D01*
X96255815Y-60878025D01*
X96255810Y-60878019D01*
X96093980Y-60716189D01*
X96093974Y-60716184D01*
X95906498Y-60584912D01*
X95699073Y-60488188D01*
X95699071Y-60488187D01*
X95504000Y-60435917D01*
X95504000Y-61410314D01*
X95488045Y-61394359D01*
X95375148Y-61336835D01*
X95281481Y-61322000D01*
X95218519Y-61322000D01*
X95124852Y-61336835D01*
X95011955Y-61394359D01*
X94996000Y-61410313D01*
X94996000Y-60435917D01*
X94995999Y-60435917D01*
X94800928Y-60488187D01*
X94800926Y-60488188D01*
X94593501Y-60584912D01*
X94406025Y-60716184D01*
X94406019Y-60716189D01*
X94244189Y-60878019D01*
X94244184Y-60878025D01*
X94112912Y-61065501D01*
X94016188Y-61272926D01*
X94016186Y-61272931D01*
X93963917Y-61468000D01*
X71642805Y-61468000D01*
X71646550Y-54883803D01*
X71646649Y-54880307D01*
X71646857Y-54876596D01*
X71653043Y-54766450D01*
X71663449Y-54594420D01*
X71664223Y-54587685D01*
X71687329Y-54451692D01*
X71714606Y-54302848D01*
X71716026Y-54296806D01*
X71755267Y-54160599D01*
X71755592Y-54159514D01*
X71799292Y-54019277D01*
X71801226Y-54013932D01*
X71856139Y-53881360D01*
X71856787Y-53879860D01*
X71916383Y-53747443D01*
X71918664Y-53742885D01*
X71988444Y-53616628D01*
X71989615Y-53614604D01*
X72064267Y-53491115D01*
X72066769Y-53487300D01*
X72150531Y-53369249D01*
X72152205Y-53367006D01*
X72240976Y-53253697D01*
X72243527Y-53250651D01*
X72340091Y-53142595D01*
X72342435Y-53140116D01*
X72444116Y-53038435D01*
X72446595Y-53036091D01*
X72554651Y-52939527D01*
X72557697Y-52936976D01*
X72671006Y-52848205D01*
X72673249Y-52846531D01*
X72791300Y-52762769D01*
X72795115Y-52760267D01*
X72918604Y-52685615D01*
X72920628Y-52684444D01*
X73046885Y-52614664D01*
X73051443Y-52612383D01*
X73183860Y-52552787D01*
X73185360Y-52552139D01*
X73317932Y-52497226D01*
X73323283Y-52495290D01*
X73324973Y-52494763D01*
X73463514Y-52451592D01*
X73464599Y-52451267D01*
X73600806Y-52412026D01*
X73606848Y-52410606D01*
X73755692Y-52383329D01*
X73891693Y-52360221D01*
X73898420Y-52359449D01*
X74070450Y-52349043D01*
X74181253Y-52342820D01*
X74184289Y-52342650D01*
X74187822Y-52342551D01*
X149114289Y-52342551D01*
X149117813Y-52342649D01*
G37*
%TD.AperFunction*%
%TD*%
M02*
