%TF.GenerationSoftware,KiCad,Pcbnew,(5.99.0-7356-g63088e8bdb)*%
%TF.CreationDate,2021-06-15T12:35:09+08:00*%
%TF.ProjectId,Cartdrige,43617274-6472-4696-9765-2e6b69636164,rev?*%
%TF.SameCoordinates,Original*%
%TF.FileFunction,Copper,L1,Top*%
%TF.FilePolarity,Positive*%
%FSLAX46Y46*%
G04 Gerber Fmt 4.6, Leading zero omitted, Abs format (unit mm)*
G04 Created by KiCad (PCBNEW (5.99.0-7356-g63088e8bdb)) date 2021-06-15 12:35:09*
%MOMM*%
%LPD*%
G01*
G04 APERTURE LIST*
%TA.AperFunction,ComponentPad*%
%ADD10C,1.600000*%
%TD*%
%TA.AperFunction,ComponentPad*%
%ADD11R,1.600000X1.600000*%
%TD*%
%TA.AperFunction,ComponentPad*%
%ADD12O,1.600000X1.600000*%
%TD*%
%TA.AperFunction,ConnectorPad*%
%ADD13R,1.780000X7.620000*%
%TD*%
%TA.AperFunction,ViaPad*%
%ADD14C,0.800000*%
%TD*%
%TA.AperFunction,Conductor*%
%ADD15C,0.500000*%
%TD*%
%TA.AperFunction,Conductor*%
%ADD16C,0.250000*%
%TD*%
G04 APERTURE END LIST*
D10*
%TO.P,C1,1*%
%TO.N,+5V*%
X76066000Y-53466000D03*
%TO.P,C1,2*%
%TO.N,GND*%
X73566000Y-53466000D03*
%TD*%
D11*
%TO.P,U1,1,A14*%
%TO.N,/A14*%
X75946000Y-34798000D03*
D12*
%TO.P,U1,2,A12*%
%TO.N,/A12*%
X73406000Y-34798000D03*
%TO.P,U1,3,A7*%
%TO.N,/A7*%
X70866000Y-34798000D03*
%TO.P,U1,4,A6*%
%TO.N,/A6*%
X68326000Y-34798000D03*
%TO.P,U1,5,A5*%
%TO.N,/A5*%
X65786000Y-34798000D03*
%TO.P,U1,6,A4*%
%TO.N,/A4*%
X63246000Y-34798000D03*
%TO.P,U1,7,A3*%
%TO.N,/A3*%
X60706000Y-34798000D03*
%TO.P,U1,8,A2*%
%TO.N,/A2*%
X58166000Y-34798000D03*
%TO.P,U1,9,A1*%
%TO.N,/A1*%
X55626000Y-34798000D03*
%TO.P,U1,10,A0*%
%TO.N,/A0*%
X53086000Y-34798000D03*
%TO.P,U1,11,D0*%
%TO.N,/D0*%
X50546000Y-34798000D03*
%TO.P,U1,12,D1*%
%TO.N,/D1*%
X48006000Y-34798000D03*
%TO.P,U1,13,D2*%
%TO.N,/D2*%
X45466000Y-34798000D03*
%TO.P,U1,14,GND*%
%TO.N,GND*%
X42926000Y-34798000D03*
%TO.P,U1,15,D3*%
%TO.N,/D3*%
X42926000Y-50038000D03*
%TO.P,U1,16,D4*%
%TO.N,/D4*%
X45466000Y-50038000D03*
%TO.P,U1,17,D5*%
%TO.N,/D5*%
X48006000Y-50038000D03*
%TO.P,U1,18,D6*%
%TO.N,/D6*%
X50546000Y-50038000D03*
%TO.P,U1,19,D7*%
%TO.N,/D7*%
X53086000Y-50038000D03*
%TO.P,U1,20,~CS*%
%TO.N,CS*%
X55626000Y-50038000D03*
%TO.P,U1,21,A10*%
%TO.N,/A10*%
X58166000Y-50038000D03*
%TO.P,U1,22,~OE*%
%TO.N,OE*%
X60706000Y-50038000D03*
%TO.P,U1,23,A11*%
%TO.N,/A11*%
X63246000Y-50038000D03*
%TO.P,U1,24,A9*%
%TO.N,/A9*%
X65786000Y-50038000D03*
%TO.P,U1,25,A8*%
%TO.N,/A8*%
X68326000Y-50038000D03*
%TO.P,U1,26,A13*%
%TO.N,/A13*%
X70866000Y-50038000D03*
%TO.P,U1,27,~WE*%
%TO.N,+5V*%
X73406000Y-50038000D03*
%TO.P,U1,28,VCC*%
X75946000Y-50038000D03*
%TD*%
D13*
%TO.P,J1,1,Pin_1*%
%TO.N,/A14*%
X102482000Y-64642000D03*
%TO.P,J1,2,Pin_2*%
%TO.N,/A12*%
X99942000Y-64642000D03*
%TO.P,J1,3,Pin_3*%
%TO.N,/A7*%
X97402000Y-64642000D03*
%TO.P,J1,4,Pin_4*%
%TO.N,/A6*%
X94862000Y-64642000D03*
%TO.P,J1,5,Pin_5*%
%TO.N,/A5*%
X92322000Y-64642000D03*
%TO.P,J1,6,Pin_6*%
%TO.N,/A4*%
X89782000Y-64642000D03*
%TO.P,J1,7,Pin_7*%
%TO.N,/A3*%
X87242000Y-64642000D03*
%TO.P,J1,8,Pin_8*%
%TO.N,/A2*%
X84702000Y-64642000D03*
%TO.P,J1,9,Pin_9*%
%TO.N,/A1*%
X82162000Y-64642000D03*
%TO.P,J1,10,Pin_10*%
%TO.N,/A0*%
X79622000Y-64642000D03*
%TO.P,J1,11,Pin_11*%
%TO.N,/D0*%
X77082000Y-64642000D03*
%TO.P,J1,12,Pin_12*%
%TO.N,/D1*%
X74542000Y-64642000D03*
%TO.P,J1,13,Pin_13*%
%TO.N,/D2*%
X72002000Y-64642000D03*
%TO.P,J1,14,Pin_14*%
%TO.N,GND*%
X69462000Y-64642000D03*
%TO.P,J1,15,Pin_15*%
%TO.N,N/C*%
X66922000Y-64642000D03*
%TO.P,J1,16,Pin_16*%
X64382000Y-64642000D03*
%TO.P,J1,17,Pin_17*%
X61842000Y-64642000D03*
%TO.P,J1,18,Pin_18*%
X59302000Y-64642000D03*
%TO.P,J1,19,Pin_19*%
X56762000Y-64642000D03*
%TO.P,J1,20,Pin_20*%
X54222000Y-64642000D03*
%TO.P,J1,21,Pin_21*%
X51682000Y-64642000D03*
%TO.P,J1,22,Pin_22*%
X49142000Y-64642000D03*
%TO.P,J1,23,Pin_23*%
%TO.N,/A11*%
X46602000Y-64642000D03*
%TO.P,J1,24,Pin_24*%
%TO.N,/A9*%
X44062000Y-64642000D03*
%TO.P,J1,25,Pin_25*%
%TO.N,/A8*%
X41522000Y-64642000D03*
%TO.P,J1,26,Pin_26*%
%TO.N,/A13*%
X38982000Y-64642000D03*
%TO.P,J1,27,Pin_27*%
%TO.N,+5V*%
X36442000Y-64642000D03*
%TO.P,J1,28,Pin_28*%
X33902000Y-64642000D03*
%TO.P,J1,29,Pin_29*%
%TO.N,GND*%
X31362000Y-64642000D03*
%TO.P,J1,30,Pin_30*%
X28822000Y-64642000D03*
%TD*%
D14*
%TO.N,GND*%
X28822000Y-59308000D03*
X31362000Y-59308000D03*
X69462000Y-59308000D03*
%TO.N,+5V*%
X33902000Y-59308000D03*
X36442000Y-59308000D03*
%TD*%
D15*
%TO.N,GND*%
X31362000Y-59308000D02*
X31362000Y-64642000D01*
X69462000Y-59308000D02*
X69462000Y-64642000D01*
X28822000Y-59308000D02*
X28822000Y-64642000D01*
%TO.N,+5V*%
X36442000Y-49402000D02*
X36442000Y-59308000D01*
D16*
X76072000Y-50164000D02*
X75946000Y-50038000D01*
D15*
X75946000Y-50038000D02*
X73406000Y-50038000D01*
X68452000Y-45084000D02*
X40760000Y-45084000D01*
X36442000Y-59308000D02*
X33902000Y-59308000D01*
X73406000Y-50038000D02*
X68452000Y-45084000D01*
D16*
X75946000Y-50038000D02*
X76066000Y-50158000D01*
D15*
X76066000Y-50158000D02*
X76066000Y-53466000D01*
X33902000Y-59308000D02*
X33902000Y-64642000D01*
X36442000Y-59308000D02*
X36442000Y-64642000D01*
X40760000Y-45084000D02*
X36442000Y-49402000D01*
D16*
%TO.N,/A13*%
X37712000Y-59308000D02*
X37712000Y-49402000D01*
X38982000Y-64642000D02*
X38982000Y-60578000D01*
X66674000Y-45846000D02*
X70866000Y-50038000D01*
X41268000Y-45846000D02*
X66674000Y-45846000D01*
X38982000Y-60578000D02*
X37712000Y-59308000D01*
X37712000Y-49402000D02*
X41268000Y-45846000D01*
%TO.N,/A8*%
X41522000Y-60578000D02*
X38474000Y-57530000D01*
X41522000Y-64642000D02*
X41522000Y-60578000D01*
X41522000Y-46608000D02*
X64896000Y-46608000D01*
X38474000Y-57530000D02*
X38474000Y-49656000D01*
X64896000Y-46608000D02*
X68326000Y-50038000D01*
X38474000Y-49656000D02*
X41522000Y-46608000D01*
%TO.N,/A9*%
X65786000Y-49790000D02*
X63366000Y-47370000D01*
X44062000Y-60578000D02*
X44062000Y-64642000D01*
X65786000Y-50038000D02*
X65786000Y-49790000D01*
X39236000Y-50164000D02*
X39236000Y-55752000D01*
X63366000Y-47370000D02*
X42030000Y-47370000D01*
X42030000Y-47370000D02*
X39236000Y-50164000D01*
X39236000Y-55752000D02*
X44062000Y-60578000D01*
%TO.N,/A11*%
X63246000Y-50038000D02*
X61340000Y-48132000D01*
X39998000Y-50672000D02*
X39998000Y-53974000D01*
X61340000Y-48132000D02*
X42538000Y-48132000D01*
X42538000Y-48132000D02*
X39998000Y-50672000D01*
X39998000Y-53974000D02*
X46602000Y-60578000D01*
X46602000Y-60578000D02*
X46602000Y-64642000D01*
%TO.N,OE*%
X60706000Y-50038000D02*
X60069590Y-50038000D01*
%TO.N,/D2*%
X74034000Y-58800000D02*
X72002000Y-60832000D01*
X72002000Y-60832000D02*
X72002000Y-64642000D01*
X54990000Y-44322000D02*
X74542000Y-44322000D01*
X77336000Y-47116000D02*
X77336000Y-58038000D01*
X77336000Y-58038000D02*
X76574000Y-58800000D01*
X45466000Y-34798000D02*
X54990000Y-44322000D01*
X76574000Y-58800000D02*
X74034000Y-58800000D01*
X74542000Y-44322000D02*
X77336000Y-47116000D01*
%TO.N,/D1*%
X75304000Y-43560000D02*
X78098000Y-46354000D01*
X75772183Y-59562000D02*
X74542000Y-60792183D01*
X78098000Y-58800000D02*
X77336000Y-59562000D01*
X77336000Y-59562000D02*
X75772183Y-59562000D01*
X78098000Y-46354000D02*
X78098000Y-58800000D01*
X48006000Y-34798000D02*
X56768000Y-43560000D01*
X74542000Y-60792183D02*
X74542000Y-64642000D01*
X56768000Y-43560000D02*
X75304000Y-43560000D01*
%TO.N,/D0*%
X78860000Y-59054000D02*
X77082000Y-60832000D01*
X77082000Y-60832000D02*
X77082000Y-64642000D01*
X50546000Y-34798000D02*
X58546000Y-42798000D01*
X58546000Y-42798000D02*
X75812000Y-42798000D01*
X75812000Y-42798000D02*
X78860000Y-45846000D01*
X78860000Y-45846000D02*
X78860000Y-59054000D01*
%TO.N,/A0*%
X76066000Y-42036000D02*
X79622000Y-45592000D01*
X53086000Y-34798000D02*
X60324000Y-42036000D01*
X79622000Y-45592000D02*
X79622000Y-64642000D01*
X60324000Y-42036000D02*
X76066000Y-42036000D01*
%TO.N,/A1*%
X76580000Y-41274000D02*
X82017001Y-46711001D01*
X55626000Y-34798000D02*
X62102000Y-41274000D01*
X82017001Y-64497001D02*
X82162000Y-64642000D01*
X82017001Y-46711001D02*
X82017001Y-64497001D01*
X62102000Y-41274000D02*
X76580000Y-41274000D01*
%TO.N,/A2*%
X58166000Y-34798000D02*
X63880000Y-40512000D01*
X84702000Y-42030000D02*
X84702000Y-64642000D01*
X83184000Y-40512000D02*
X84702000Y-42030000D01*
X63880000Y-40512000D02*
X83184000Y-40512000D01*
%TO.N,/A3*%
X87242000Y-43554000D02*
X87242000Y-64642000D01*
X83438000Y-39750000D02*
X87242000Y-43554000D01*
X60706000Y-34798000D02*
X65658000Y-39750000D01*
X65658000Y-39750000D02*
X83438000Y-39750000D01*
%TO.N,/A4*%
X63246000Y-34798000D02*
X67436000Y-38988000D01*
X83692000Y-38988000D02*
X89782000Y-45078000D01*
X67436000Y-38988000D02*
X83692000Y-38988000D01*
X89782000Y-45078000D02*
X89782000Y-64642000D01*
%TO.N,/A5*%
X65786000Y-34798000D02*
X69214000Y-38226000D01*
X92322000Y-46602000D02*
X92322000Y-64642000D01*
X83946000Y-38226000D02*
X92322000Y-46602000D01*
X69214000Y-38226000D02*
X83946000Y-38226000D01*
%TO.N,/A6*%
X70992000Y-37464000D02*
X84200000Y-37464000D01*
X94862000Y-48126000D02*
X94862000Y-64642000D01*
X84200000Y-37464000D02*
X94862000Y-48126000D01*
X68326000Y-34798000D02*
X70992000Y-37464000D01*
%TO.N,/A7*%
X70866000Y-34798000D02*
X72770000Y-36702000D01*
X97402000Y-49650000D02*
X97402000Y-64642000D01*
X84454000Y-36702000D02*
X97402000Y-49650000D01*
X72770000Y-36702000D02*
X84454000Y-36702000D01*
%TO.N,/A12*%
X74548000Y-35940000D02*
X73406000Y-34798000D01*
X99942000Y-64642000D02*
X99942000Y-51174000D01*
X99942000Y-51174000D02*
X84708000Y-35940000D01*
X84708000Y-35940000D02*
X74548000Y-35940000D01*
%TO.N,/A14*%
X84962000Y-35178000D02*
X102482000Y-52698000D01*
X76326000Y-35178000D02*
X84962000Y-35178000D01*
X75946000Y-34798000D02*
X76326000Y-35178000D01*
X102482000Y-52698000D02*
X102482000Y-64642000D01*
%TD*%
M02*
