%TF.GenerationSoftware,KiCad,Pcbnew,(5.99.0-7129-g2932fe1e64)*%
%TF.CreationDate,2020-12-05T18:13:35+08:00*%
%TF.ProjectId,Adapter,41646170-7465-4722-9e6b-696361645f70,rev?*%
%TF.SameCoordinates,Original*%
%TF.FileFunction,Copper,L1,Top*%
%TF.FilePolarity,Positive*%
%FSLAX46Y46*%
G04 Gerber Fmt 4.6, Leading zero omitted, Abs format (unit mm)*
G04 Created by KiCad (PCBNEW (5.99.0-7129-g2932fe1e64)) date 2020-12-05 18:13:35*
%MOMM*%
%LPD*%
G01*
G04 APERTURE LIST*
%TA.AperFunction,ComponentPad*%
%ADD10R,1.600000X1.600000*%
%TD*%
%TA.AperFunction,ComponentPad*%
%ADD11O,1.600000X1.600000*%
%TD*%
%TA.AperFunction,Conductor*%
%ADD12C,0.500000*%
%TD*%
%TA.AperFunction,Conductor*%
%ADD13C,0.300000*%
%TD*%
G04 APERTURE END LIST*
D10*
%TO.P,U2,1*%
%TO.N,A1*%
X125730000Y-76200000D03*
D11*
%TO.P,U2,2*%
%TO.N,A2*%
X125730000Y-78740000D03*
%TO.P,U2,3*%
%TO.N,A4*%
X125730000Y-81280000D03*
%TO.P,U2,4*%
%TO.N,A5*%
X125730000Y-83820000D03*
%TO.P,U2,5*%
%TO.N,A6*%
X125730000Y-86360000D03*
%TO.P,U2,6*%
%TO.N,Y2*%
X125730000Y-88900000D03*
%TO.P,U2,7,GND*%
%TO.N,GND*%
X125730000Y-91440000D03*
%TO.P,U2,8*%
%TO.N,Y3*%
X133350000Y-91440000D03*
%TO.P,U2,9*%
%TO.N,A7*%
X133350000Y-88900000D03*
%TO.P,U2,10*%
%TO.N,A8*%
X133350000Y-86360000D03*
%TO.P,U2,11*%
%TO.N,A9*%
X133350000Y-83820000D03*
%TO.P,U2,12*%
%TO.N,Y1*%
X133350000Y-81280000D03*
%TO.P,U2,13*%
%TO.N,A3*%
X133350000Y-78740000D03*
%TO.P,U2,14,VCC*%
%TO.N,+5V*%
X133350000Y-76200000D03*
%TD*%
D10*
%TO.P,U3,1*%
%TO.N,X1*%
X115570000Y-76200000D03*
D11*
%TO.P,U3,2*%
%TO.N,B1*%
X115570000Y-78740000D03*
%TO.P,U3,3*%
%TO.N,B2*%
X115570000Y-81280000D03*
%TO.P,U3,4*%
%TO.N,B3*%
X115570000Y-83820000D03*
%TO.P,U3,5*%
%TO.N,B4*%
X115570000Y-86360000D03*
%TO.P,U3,6*%
%TO.N,N/C*%
X115570000Y-88900000D03*
%TO.P,U3,7,VSS*%
%TO.N,GND*%
X115570000Y-91440000D03*
%TO.P,U3,8*%
%TO.N,N/C*%
X123190000Y-91440000D03*
%TO.P,U3,9*%
%TO.N,B5*%
X123190000Y-88900000D03*
%TO.P,U3,10*%
%TO.N,B6*%
X123190000Y-86360000D03*
%TO.P,U3,11*%
%TO.N,B7*%
X123190000Y-83820000D03*
%TO.P,U3,12*%
%TO.N,B8*%
X123190000Y-81280000D03*
%TO.P,U3,13*%
%TO.N,X2*%
X123190000Y-78740000D03*
%TO.P,U3,14,VDD*%
%TO.N,+5V*%
X123190000Y-76200000D03*
%TD*%
D10*
%TO.P,U4,1*%
%TO.N,B1*%
X105482000Y-76200000D03*
D11*
%TO.P,U4,2*%
%TO.N,B2*%
X105482000Y-78740000D03*
%TO.P,U4,3*%
%TO.N,N/C*%
X105482000Y-81280000D03*
%TO.P,U4,4*%
%TO.N,B3*%
X105482000Y-83820000D03*
%TO.P,U4,5*%
%TO.N,B4*%
X105482000Y-86360000D03*
%TO.P,U4,6*%
%TO.N,X1*%
X105482000Y-88900000D03*
%TO.P,U4,7,GND*%
%TO.N,GND*%
X105482000Y-91440000D03*
%TO.P,U4,8*%
%TO.N,X2*%
X113102000Y-91440000D03*
%TO.P,U4,9*%
%TO.N,B5*%
X113102000Y-88900000D03*
%TO.P,U4,10*%
%TO.N,B6*%
X113102000Y-86360000D03*
%TO.P,U4,11*%
%TO.N,N/C*%
X113102000Y-83820000D03*
%TO.P,U4,12*%
%TO.N,B7*%
X113102000Y-81280000D03*
%TO.P,U4,13*%
%TO.N,B8*%
X113102000Y-78740000D03*
%TO.P,U4,14,VCC*%
%TO.N,+5V*%
X113102000Y-76200000D03*
%TD*%
D10*
%TO.P,U1,1*%
%TO.N,A1*%
X135890000Y-76200000D03*
D11*
%TO.P,U1,2*%
%TO.N,A2*%
X135890000Y-78740000D03*
%TO.P,U1,3*%
%TO.N,A4*%
X135890000Y-81280000D03*
%TO.P,U1,4*%
%TO.N,A5*%
X135890000Y-83820000D03*
%TO.P,U1,5*%
%TO.N,A6*%
X135890000Y-86360000D03*
%TO.P,U1,6*%
%TO.N,Y2*%
X135890000Y-88900000D03*
%TO.P,U1,7,VSS*%
%TO.N,GND*%
X135890000Y-91440000D03*
%TO.P,U1,8*%
%TO.N,A3*%
X143510000Y-91440000D03*
%TO.P,U1,9*%
%TO.N,Y1*%
X143510000Y-88900000D03*
%TO.P,U1,10*%
%TO.N,Y3*%
X143510000Y-86360000D03*
%TO.P,U1,11*%
%TO.N,A7*%
X143510000Y-83820000D03*
%TO.P,U1,12*%
%TO.N,A8*%
X143510000Y-81280000D03*
%TO.P,U1,13*%
%TO.N,A9*%
X143510000Y-78740000D03*
%TO.P,U1,14,VDD*%
%TO.N,+5V*%
X143510000Y-76200000D03*
%TD*%
D12*
%TO.N,+5V*%
X113102000Y-76200000D02*
X114626000Y-74676000D01*
X123190000Y-76200000D02*
X123317000Y-76200000D01*
X133350000Y-76200000D02*
X133350000Y-74676000D01*
X123190000Y-74676000D02*
X123190000Y-76200000D01*
X141986000Y-74676000D02*
X143510000Y-76200000D01*
X114626000Y-74676000D02*
X141986000Y-74676000D01*
D13*
%TO.N,Y2*%
X127000000Y-90170000D02*
X134620000Y-90170000D01*
X125730000Y-88900000D02*
X127000000Y-90170000D01*
X134620000Y-90170000D02*
X135890000Y-88900000D01*
%TO.N,A6*%
X134620000Y-87630000D02*
X135890000Y-86360000D01*
X125730000Y-86360000D02*
X127000000Y-87630000D01*
X127000000Y-87630000D02*
X134620000Y-87630000D01*
%TO.N,A5*%
X127000000Y-85090000D02*
X134620000Y-85090000D01*
X125730000Y-83820000D02*
X127000000Y-85090000D01*
X134620000Y-85090000D02*
X135890000Y-83820000D01*
%TO.N,A4*%
X134620000Y-82550000D02*
X135890000Y-81280000D01*
X125730000Y-81280000D02*
X127000000Y-82550000D01*
X127000000Y-82550000D02*
X134620000Y-82550000D01*
%TO.N,A2*%
X125730000Y-78740000D02*
X127000000Y-80010000D01*
X134620000Y-80010000D02*
X135890000Y-78740000D01*
X127000000Y-80010000D02*
X134620000Y-80010000D01*
%TO.N,A1*%
X125730000Y-76200000D02*
X127000000Y-77470000D01*
X134620000Y-77470000D02*
X135890000Y-76200000D01*
X127000000Y-77470000D02*
X134620000Y-77470000D01*
%TO.N,B4*%
X106752000Y-85090000D02*
X114300000Y-85090000D01*
X114300000Y-85090000D02*
X115570000Y-86360000D01*
X105482000Y-86360000D02*
X106752000Y-85090000D01*
%TO.N,B3*%
X114300000Y-82550000D02*
X115570000Y-83820000D01*
X105482000Y-83820000D02*
X106752000Y-82550000D01*
X106752000Y-82550000D02*
X114300000Y-82550000D01*
%TO.N,B6*%
X113102000Y-86360000D02*
X114372000Y-87630000D01*
X114372000Y-87630000D02*
X121920000Y-87630000D01*
X121920000Y-87630000D02*
X123190000Y-86360000D01*
%TO.N,B2*%
X114300000Y-80010000D02*
X115570000Y-81280000D01*
X105482000Y-78740000D02*
X106752000Y-80010000D01*
X106752000Y-80010000D02*
X114300000Y-80010000D01*
%TO.N,B5*%
X114372000Y-90170000D02*
X121920000Y-90170000D01*
X113102000Y-88900000D02*
X114372000Y-90170000D01*
X121920000Y-90170000D02*
X123190000Y-88900000D01*
%TO.N,B1*%
X114300000Y-77470000D02*
X115570000Y-78740000D01*
X105482000Y-76200000D02*
X106752000Y-77470000D01*
X106752000Y-77470000D02*
X114300000Y-77470000D01*
%TD*%
M02*
