M48
; DRILL file {KiCad (5.99.0-7129-g2932fe1e64)} date Sat Dec  5 18:13:30 2020
; FORMAT={-:-/ absolute / metric / decimal}
; #@! TF.CreationDate,2020-12-05T18:13:30+08:00
; #@! TF.GenerationSoftware,Kicad,Pcbnew,(5.99.0-7129-g2932fe1e64)
; #@! TF.FileFunction,Plated,1,2,PTH
FMAT,2
METRIC
T1C0.800
%
G90
G05
T1
X105.482Y-76.2
X105.482Y-78.74
X105.482Y-81.28
X105.482Y-83.82
X105.482Y-86.36
X105.482Y-88.9
X105.482Y-91.44
X113.102Y-76.2
X113.102Y-78.74
X113.102Y-81.28
X113.102Y-83.82
X113.102Y-86.36
X113.102Y-88.9
X113.102Y-91.44
X125.73Y-76.2
X125.73Y-78.74
X125.73Y-81.28
X125.73Y-83.82
X125.73Y-86.36
X125.73Y-88.9
X125.73Y-91.44
X133.35Y-76.2
X133.35Y-78.74
X133.35Y-81.28
X133.35Y-83.82
X133.35Y-86.36
X133.35Y-88.9
X133.35Y-91.44
X115.57Y-76.2
X115.57Y-78.74
X115.57Y-81.28
X115.57Y-83.82
X115.57Y-86.36
X115.57Y-88.9
X115.57Y-91.44
X123.19Y-76.2
X123.19Y-78.74
X123.19Y-81.28
X123.19Y-83.82
X123.19Y-86.36
X123.19Y-88.9
X123.19Y-91.44
X135.89Y-76.2
X135.89Y-78.74
X135.89Y-81.28
X135.89Y-83.82
X135.89Y-86.36
X135.89Y-88.9
X135.89Y-91.44
X143.51Y-76.2
X143.51Y-78.74
X143.51Y-81.28
X143.51Y-83.82
X143.51Y-86.36
X143.51Y-88.9
X143.51Y-91.44
T0
M30
