%TF.GenerationSoftware,KiCad,Pcbnew,(5.99.0-7129-g2932fe1e64)*%
%TF.CreationDate,2020-12-05T18:13:35+08:00*%
%TF.ProjectId,Adapter,41646170-7465-4722-9e6b-696361645f70,rev?*%
%TF.SameCoordinates,Original*%
%TF.FileFunction,Copper,L2,Bot*%
%TF.FilePolarity,Positive*%
%FSLAX46Y46*%
G04 Gerber Fmt 4.6, Leading zero omitted, Abs format (unit mm)*
G04 Created by KiCad (PCBNEW (5.99.0-7129-g2932fe1e64)) date 2020-12-05 18:13:35*
%MOMM*%
%LPD*%
G01*
G04 APERTURE LIST*
%TA.AperFunction,ComponentPad*%
%ADD10R,1.600000X1.600000*%
%TD*%
%TA.AperFunction,ComponentPad*%
%ADD11O,1.600000X1.600000*%
%TD*%
%TA.AperFunction,Conductor*%
%ADD12C,0.300000*%
%TD*%
G04 APERTURE END LIST*
D10*
%TO.P,U2,1*%
%TO.N,A1*%
X125730000Y-76200000D03*
D11*
%TO.P,U2,2*%
%TO.N,A2*%
X125730000Y-78740000D03*
%TO.P,U2,3*%
%TO.N,A4*%
X125730000Y-81280000D03*
%TO.P,U2,4*%
%TO.N,A5*%
X125730000Y-83820000D03*
%TO.P,U2,5*%
%TO.N,A6*%
X125730000Y-86360000D03*
%TO.P,U2,6*%
%TO.N,Y2*%
X125730000Y-88900000D03*
%TO.P,U2,7,GND*%
%TO.N,GND*%
X125730000Y-91440000D03*
%TO.P,U2,8*%
%TO.N,Y3*%
X133350000Y-91440000D03*
%TO.P,U2,9*%
%TO.N,A7*%
X133350000Y-88900000D03*
%TO.P,U2,10*%
%TO.N,A8*%
X133350000Y-86360000D03*
%TO.P,U2,11*%
%TO.N,A9*%
X133350000Y-83820000D03*
%TO.P,U2,12*%
%TO.N,Y1*%
X133350000Y-81280000D03*
%TO.P,U2,13*%
%TO.N,A3*%
X133350000Y-78740000D03*
%TO.P,U2,14,VCC*%
%TO.N,+5V*%
X133350000Y-76200000D03*
%TD*%
D10*
%TO.P,U3,1*%
%TO.N,X1*%
X115570000Y-76200000D03*
D11*
%TO.P,U3,2*%
%TO.N,B1*%
X115570000Y-78740000D03*
%TO.P,U3,3*%
%TO.N,B2*%
X115570000Y-81280000D03*
%TO.P,U3,4*%
%TO.N,B3*%
X115570000Y-83820000D03*
%TO.P,U3,5*%
%TO.N,B4*%
X115570000Y-86360000D03*
%TO.P,U3,6*%
%TO.N,N/C*%
X115570000Y-88900000D03*
%TO.P,U3,7,VSS*%
%TO.N,GND*%
X115570000Y-91440000D03*
%TO.P,U3,8*%
%TO.N,N/C*%
X123190000Y-91440000D03*
%TO.P,U3,9*%
%TO.N,B5*%
X123190000Y-88900000D03*
%TO.P,U3,10*%
%TO.N,B6*%
X123190000Y-86360000D03*
%TO.P,U3,11*%
%TO.N,B7*%
X123190000Y-83820000D03*
%TO.P,U3,12*%
%TO.N,B8*%
X123190000Y-81280000D03*
%TO.P,U3,13*%
%TO.N,X2*%
X123190000Y-78740000D03*
%TO.P,U3,14,VDD*%
%TO.N,+5V*%
X123190000Y-76200000D03*
%TD*%
D10*
%TO.P,U4,1*%
%TO.N,B1*%
X105482000Y-76200000D03*
D11*
%TO.P,U4,2*%
%TO.N,B2*%
X105482000Y-78740000D03*
%TO.P,U4,3*%
%TO.N,N/C*%
X105482000Y-81280000D03*
%TO.P,U4,4*%
%TO.N,B3*%
X105482000Y-83820000D03*
%TO.P,U4,5*%
%TO.N,B4*%
X105482000Y-86360000D03*
%TO.P,U4,6*%
%TO.N,X1*%
X105482000Y-88900000D03*
%TO.P,U4,7,GND*%
%TO.N,GND*%
X105482000Y-91440000D03*
%TO.P,U4,8*%
%TO.N,X2*%
X113102000Y-91440000D03*
%TO.P,U4,9*%
%TO.N,B5*%
X113102000Y-88900000D03*
%TO.P,U4,10*%
%TO.N,B6*%
X113102000Y-86360000D03*
%TO.P,U4,11*%
%TO.N,N/C*%
X113102000Y-83820000D03*
%TO.P,U4,12*%
%TO.N,B7*%
X113102000Y-81280000D03*
%TO.P,U4,13*%
%TO.N,B8*%
X113102000Y-78740000D03*
%TO.P,U4,14,VCC*%
%TO.N,+5V*%
X113102000Y-76200000D03*
%TD*%
D10*
%TO.P,U1,1*%
%TO.N,A1*%
X135890000Y-76200000D03*
D11*
%TO.P,U1,2*%
%TO.N,A2*%
X135890000Y-78740000D03*
%TO.P,U1,3*%
%TO.N,A4*%
X135890000Y-81280000D03*
%TO.P,U1,4*%
%TO.N,A5*%
X135890000Y-83820000D03*
%TO.P,U1,5*%
%TO.N,A6*%
X135890000Y-86360000D03*
%TO.P,U1,6*%
%TO.N,Y2*%
X135890000Y-88900000D03*
%TO.P,U1,7,VSS*%
%TO.N,GND*%
X135890000Y-91440000D03*
%TO.P,U1,8*%
%TO.N,A3*%
X143510000Y-91440000D03*
%TO.P,U1,9*%
%TO.N,Y1*%
X143510000Y-88900000D03*
%TO.P,U1,10*%
%TO.N,Y3*%
X143510000Y-86360000D03*
%TO.P,U1,11*%
%TO.N,A7*%
X143510000Y-83820000D03*
%TO.P,U1,12*%
%TO.N,A8*%
X143510000Y-81280000D03*
%TO.P,U1,13*%
%TO.N,A9*%
X143510000Y-78740000D03*
%TO.P,U1,14,VDD*%
%TO.N,+5V*%
X143510000Y-76200000D03*
%TD*%
D12*
%TO.N,A9*%
X133350000Y-83820000D02*
X134620000Y-82550000D01*
X134620000Y-82550000D02*
X139700000Y-82550000D01*
X139700000Y-82550000D02*
X143510000Y-78740000D01*
%TO.N,A8*%
X139700000Y-85090000D02*
X143510000Y-81280000D01*
X134620000Y-85090000D02*
X139700000Y-85090000D01*
X133350000Y-86360000D02*
X134620000Y-85090000D01*
%TO.N,A7*%
X133350000Y-88900000D02*
X134620000Y-87630000D01*
X139700000Y-87630000D02*
X143510000Y-83820000D01*
X134620000Y-87630000D02*
X139700000Y-87630000D01*
%TO.N,Y3*%
X134620000Y-90170000D02*
X139700000Y-90170000D01*
X133350000Y-91440000D02*
X134620000Y-90170000D01*
X139700000Y-90170000D02*
X143510000Y-86360000D01*
%TO.N,Y1*%
X133350000Y-81280000D02*
X134620000Y-80010000D01*
X139999000Y-80010000D02*
X142539000Y-77470000D01*
X134620000Y-80010000D02*
X139999000Y-80010000D01*
X145034000Y-87376000D02*
X143510000Y-88900000D01*
X144234001Y-77470000D02*
X145034000Y-78269999D01*
X142539000Y-77470000D02*
X144234001Y-77470000D01*
X145034000Y-78269999D02*
X145034000Y-87376000D01*
%TO.N,A3*%
X142494000Y-74676000D02*
X145034000Y-74676000D01*
X139819999Y-77350001D02*
X142494000Y-74676000D01*
X134739999Y-77350001D02*
X139819999Y-77350001D01*
X145034000Y-74676000D02*
X145796000Y-75438000D01*
X133350000Y-78740000D02*
X134739999Y-77350001D01*
X145796000Y-75438000D02*
X145796000Y-89154000D01*
X145796000Y-89154000D02*
X143510000Y-91440000D01*
%TO.N,X2*%
X114372000Y-90170000D02*
X123787001Y-90170000D01*
X124460000Y-84328000D02*
X124460000Y-80010000D01*
X113102000Y-91440000D02*
X114372000Y-90170000D01*
X123787001Y-90170000D02*
X124460000Y-89497001D01*
X124460000Y-89497001D02*
X124460000Y-84074000D01*
X124460000Y-80010000D02*
X123952000Y-79502000D01*
X123952000Y-79502000D02*
X123190000Y-78740000D01*
%TO.N,B8*%
X121920000Y-80010000D02*
X123190000Y-81280000D01*
X114372000Y-80010000D02*
X121920000Y-80010000D01*
X113102000Y-78740000D02*
X114372000Y-80010000D01*
%TO.N,B7*%
X113102000Y-81280000D02*
X114372000Y-82550000D01*
X114372000Y-82550000D02*
X121920000Y-82550000D01*
X121920000Y-82550000D02*
X123190000Y-83820000D01*
%TO.N,X1*%
X111506000Y-82876000D02*
X111506000Y-78232000D01*
X105482000Y-88900000D02*
X111506000Y-82876000D01*
X112268000Y-77470000D02*
X114300000Y-77470000D01*
X111506000Y-78232000D02*
X112268000Y-77470000D01*
X114300000Y-77470000D02*
X115570000Y-76200000D01*
%TD*%
%TA.AperFunction,Conductor*%
%TO.N,GND*%
G36*
X141580672Y-74442002D02*
G01*
X141627165Y-74495658D01*
X141637269Y-74565932D01*
X141607775Y-74630512D01*
X141601646Y-74637095D01*
X139584145Y-76654596D01*
X139521833Y-76688622D01*
X139495050Y-76691501D01*
X137329500Y-76691501D01*
X137261379Y-76671499D01*
X137214886Y-76617843D01*
X137203500Y-76565501D01*
X137203500Y-75400000D01*
X137198273Y-75326921D01*
X137157096Y-75186684D01*
X137111393Y-75115569D01*
X137082949Y-75071309D01*
X137082947Y-75071306D01*
X137078077Y-75063729D01*
X137071267Y-75057828D01*
X136974431Y-74973918D01*
X136974428Y-74973916D01*
X136967619Y-74968016D01*
X136834670Y-74907300D01*
X136825755Y-74906018D01*
X136825754Y-74906018D01*
X136694448Y-74887139D01*
X136694441Y-74887138D01*
X136690000Y-74886500D01*
X135090000Y-74886500D01*
X135016921Y-74891727D01*
X134966762Y-74906455D01*
X134885330Y-74930365D01*
X134885328Y-74930366D01*
X134876684Y-74932904D01*
X134869105Y-74937775D01*
X134761309Y-75007051D01*
X134761306Y-75007053D01*
X134753729Y-75011923D01*
X134747828Y-75018733D01*
X134663918Y-75115569D01*
X134663916Y-75115572D01*
X134658016Y-75122381D01*
X134597300Y-75255330D01*
X134596018Y-75264245D01*
X134596018Y-75264246D01*
X134589566Y-75309122D01*
X134560073Y-75373703D01*
X134500347Y-75412087D01*
X134429350Y-75412087D01*
X134369624Y-75373704D01*
X134361638Y-75363465D01*
X134356199Y-75355698D01*
X134194302Y-75193801D01*
X134189794Y-75190644D01*
X134189791Y-75190642D01*
X134011259Y-75065633D01*
X134011257Y-75065632D01*
X134006750Y-75062476D01*
X134001768Y-75060153D01*
X134001763Y-75060150D01*
X133804225Y-74968037D01*
X133804224Y-74968036D01*
X133799243Y-74965714D01*
X133793935Y-74964292D01*
X133793933Y-74964291D01*
X133583402Y-74907879D01*
X133583400Y-74907879D01*
X133578087Y-74906455D01*
X133350000Y-74886500D01*
X133121913Y-74906455D01*
X133116600Y-74907879D01*
X133116598Y-74907879D01*
X132906067Y-74964291D01*
X132906065Y-74964292D01*
X132900757Y-74965714D01*
X132895776Y-74968036D01*
X132895775Y-74968037D01*
X132698237Y-75060150D01*
X132698232Y-75060153D01*
X132693250Y-75062476D01*
X132688743Y-75065632D01*
X132688741Y-75065633D01*
X132510209Y-75190642D01*
X132510206Y-75190644D01*
X132505698Y-75193801D01*
X132343801Y-75355698D01*
X132340644Y-75360206D01*
X132340642Y-75360209D01*
X132276609Y-75451658D01*
X132212476Y-75543250D01*
X132210153Y-75548232D01*
X132210150Y-75548237D01*
X132195500Y-75579655D01*
X132115714Y-75750757D01*
X132114292Y-75756065D01*
X132114291Y-75756067D01*
X132088339Y-75852921D01*
X132056455Y-75971913D01*
X132036500Y-76200000D01*
X132056455Y-76428087D01*
X132115714Y-76649243D01*
X132118036Y-76654224D01*
X132118037Y-76654225D01*
X132210150Y-76851763D01*
X132210153Y-76851768D01*
X132212476Y-76856750D01*
X132215632Y-76861257D01*
X132215633Y-76861259D01*
X132332949Y-77028803D01*
X132343801Y-77044302D01*
X132505698Y-77206199D01*
X132510206Y-77209356D01*
X132510209Y-77209358D01*
X132617425Y-77284431D01*
X132693250Y-77337524D01*
X132698232Y-77339847D01*
X132698237Y-77339850D01*
X132732454Y-77355805D01*
X132785739Y-77402722D01*
X132805200Y-77470999D01*
X132784658Y-77538959D01*
X132732454Y-77584195D01*
X132698237Y-77600150D01*
X132698232Y-77600153D01*
X132693250Y-77602476D01*
X132688743Y-77605632D01*
X132688741Y-77605633D01*
X132510209Y-77730642D01*
X132510206Y-77730644D01*
X132505698Y-77733801D01*
X132343801Y-77895698D01*
X132340644Y-77900206D01*
X132340642Y-77900209D01*
X132261042Y-78013890D01*
X132212476Y-78083250D01*
X132210153Y-78088232D01*
X132210150Y-78088237D01*
X132118039Y-78285770D01*
X132115714Y-78290757D01*
X132056455Y-78511913D01*
X132036500Y-78740000D01*
X132056455Y-78968087D01*
X132115714Y-79189243D01*
X132118036Y-79194224D01*
X132118037Y-79194225D01*
X132210150Y-79391763D01*
X132210153Y-79391768D01*
X132212476Y-79396750D01*
X132343801Y-79584302D01*
X132505698Y-79746199D01*
X132510206Y-79749356D01*
X132510209Y-79749358D01*
X132688734Y-79874362D01*
X132693250Y-79877524D01*
X132698232Y-79879847D01*
X132698237Y-79879850D01*
X132732454Y-79895805D01*
X132785739Y-79942722D01*
X132805200Y-80010999D01*
X132784658Y-80078959D01*
X132732454Y-80124195D01*
X132698237Y-80140150D01*
X132698232Y-80140153D01*
X132693250Y-80142476D01*
X132688743Y-80145632D01*
X132688741Y-80145633D01*
X132510209Y-80270642D01*
X132510206Y-80270644D01*
X132505698Y-80273801D01*
X132343801Y-80435698D01*
X132340644Y-80440206D01*
X132340642Y-80440209D01*
X132229232Y-80599320D01*
X132212476Y-80623250D01*
X132210153Y-80628232D01*
X132210150Y-80628237D01*
X132118037Y-80825775D01*
X132115714Y-80830757D01*
X132114292Y-80836065D01*
X132114291Y-80836067D01*
X132080000Y-80964042D01*
X132056455Y-81051913D01*
X132036500Y-81280000D01*
X132056455Y-81508087D01*
X132057879Y-81513400D01*
X132057879Y-81513402D01*
X132085005Y-81614635D01*
X132115714Y-81729243D01*
X132118036Y-81734224D01*
X132118037Y-81734225D01*
X132210150Y-81931763D01*
X132210153Y-81931768D01*
X132212476Y-81936750D01*
X132343801Y-82124302D01*
X132505698Y-82286199D01*
X132510206Y-82289356D01*
X132510209Y-82289358D01*
X132580059Y-82338267D01*
X132693250Y-82417524D01*
X132698232Y-82419847D01*
X132698237Y-82419850D01*
X132732454Y-82435805D01*
X132785739Y-82482722D01*
X132805200Y-82550999D01*
X132784658Y-82618959D01*
X132732454Y-82664195D01*
X132698237Y-82680150D01*
X132698232Y-82680153D01*
X132693250Y-82682476D01*
X132688743Y-82685632D01*
X132688741Y-82685633D01*
X132510209Y-82810642D01*
X132510206Y-82810644D01*
X132505698Y-82813801D01*
X132343801Y-82975698D01*
X132340644Y-82980206D01*
X132340642Y-82980209D01*
X132229232Y-83139320D01*
X132212476Y-83163250D01*
X132210153Y-83168232D01*
X132210150Y-83168237D01*
X132118037Y-83365775D01*
X132115714Y-83370757D01*
X132114292Y-83376065D01*
X132114291Y-83376067D01*
X132080000Y-83504042D01*
X132056455Y-83591913D01*
X132036500Y-83820000D01*
X132056455Y-84048087D01*
X132057879Y-84053400D01*
X132057879Y-84053402D01*
X132085005Y-84154635D01*
X132115714Y-84269243D01*
X132118036Y-84274224D01*
X132118037Y-84274225D01*
X132210150Y-84471763D01*
X132210153Y-84471768D01*
X132212476Y-84476750D01*
X132215632Y-84481257D01*
X132215633Y-84481259D01*
X132340639Y-84659786D01*
X132343801Y-84664302D01*
X132505698Y-84826199D01*
X132510206Y-84829356D01*
X132510209Y-84829358D01*
X132688738Y-84954365D01*
X132693250Y-84957524D01*
X132698232Y-84959847D01*
X132698237Y-84959850D01*
X132732454Y-84975805D01*
X132785739Y-85022722D01*
X132805200Y-85090999D01*
X132784658Y-85158959D01*
X132732454Y-85204195D01*
X132698237Y-85220150D01*
X132698232Y-85220153D01*
X132693250Y-85222476D01*
X132688743Y-85225632D01*
X132688741Y-85225633D01*
X132510209Y-85350642D01*
X132510206Y-85350644D01*
X132505698Y-85353801D01*
X132343801Y-85515698D01*
X132340644Y-85520206D01*
X132340642Y-85520209D01*
X132229232Y-85679320D01*
X132212476Y-85703250D01*
X132210153Y-85708232D01*
X132210150Y-85708237D01*
X132118037Y-85905775D01*
X132115714Y-85910757D01*
X132056455Y-86131913D01*
X132036500Y-86360000D01*
X132056455Y-86588087D01*
X132057879Y-86593400D01*
X132057879Y-86593402D01*
X132085005Y-86694635D01*
X132115714Y-86809243D01*
X132118036Y-86814224D01*
X132118037Y-86814225D01*
X132210150Y-87011763D01*
X132210153Y-87011768D01*
X132212476Y-87016750D01*
X132215632Y-87021257D01*
X132215633Y-87021259D01*
X132340639Y-87199786D01*
X132343801Y-87204302D01*
X132505698Y-87366199D01*
X132510206Y-87369356D01*
X132510209Y-87369358D01*
X132688741Y-87494367D01*
X132693250Y-87497524D01*
X132698232Y-87499847D01*
X132698237Y-87499850D01*
X132732454Y-87515805D01*
X132785739Y-87562722D01*
X132805200Y-87630999D01*
X132784658Y-87698959D01*
X132732454Y-87744195D01*
X132698237Y-87760150D01*
X132698232Y-87760153D01*
X132693250Y-87762476D01*
X132688743Y-87765632D01*
X132688741Y-87765633D01*
X132510209Y-87890642D01*
X132510206Y-87890644D01*
X132505698Y-87893801D01*
X132343801Y-88055698D01*
X132340644Y-88060206D01*
X132340642Y-88060209D01*
X132229232Y-88219320D01*
X132212476Y-88243250D01*
X132210153Y-88248232D01*
X132210150Y-88248237D01*
X132124256Y-88432439D01*
X132115714Y-88450757D01*
X132114292Y-88456065D01*
X132114291Y-88456067D01*
X132084815Y-88566074D01*
X132056455Y-88671913D01*
X132036500Y-88900000D01*
X132056455Y-89128087D01*
X132115714Y-89349243D01*
X132118036Y-89354224D01*
X132118037Y-89354225D01*
X132210150Y-89551763D01*
X132210153Y-89551768D01*
X132212476Y-89556750D01*
X132343801Y-89744302D01*
X132505698Y-89906199D01*
X132510206Y-89909356D01*
X132510209Y-89909358D01*
X132658633Y-90013285D01*
X132693250Y-90037524D01*
X132698232Y-90039847D01*
X132698237Y-90039850D01*
X132732454Y-90055805D01*
X132785739Y-90102722D01*
X132805200Y-90170999D01*
X132784658Y-90238959D01*
X132732454Y-90284195D01*
X132698237Y-90300150D01*
X132698232Y-90300153D01*
X132693250Y-90302476D01*
X132688743Y-90305632D01*
X132688741Y-90305633D01*
X132510209Y-90430642D01*
X132510206Y-90430644D01*
X132505698Y-90433801D01*
X132343801Y-90595698D01*
X132340644Y-90600206D01*
X132340642Y-90600209D01*
X132229232Y-90759320D01*
X132212476Y-90783250D01*
X132210153Y-90788231D01*
X132210150Y-90788237D01*
X132174494Y-90864702D01*
X132115714Y-90990757D01*
X132114292Y-90996065D01*
X132114291Y-90996067D01*
X132057880Y-91206594D01*
X132056455Y-91211913D01*
X132036500Y-91440000D01*
X132056455Y-91668087D01*
X132057879Y-91673400D01*
X132057879Y-91673402D01*
X132067029Y-91707548D01*
X132115714Y-91889243D01*
X132118036Y-91894224D01*
X132118037Y-91894225D01*
X132210150Y-92091763D01*
X132210153Y-92091768D01*
X132212476Y-92096750D01*
X132215632Y-92101257D01*
X132215633Y-92101259D01*
X132340639Y-92279786D01*
X132343801Y-92284302D01*
X132505698Y-92446199D01*
X132510206Y-92449356D01*
X132510209Y-92449358D01*
X132688123Y-92573934D01*
X132693250Y-92577524D01*
X132698232Y-92579847D01*
X132698237Y-92579850D01*
X132894763Y-92671491D01*
X132900757Y-92674286D01*
X132906065Y-92675708D01*
X132906067Y-92675709D01*
X133116598Y-92732121D01*
X133116600Y-92732121D01*
X133121913Y-92733545D01*
X133350000Y-92753500D01*
X133578087Y-92733545D01*
X133583400Y-92732121D01*
X133583402Y-92732121D01*
X133793933Y-92675709D01*
X133793935Y-92675708D01*
X133799243Y-92674286D01*
X133805237Y-92671491D01*
X134001763Y-92579850D01*
X134001768Y-92579847D01*
X134006750Y-92577524D01*
X134011877Y-92573934D01*
X134189791Y-92449358D01*
X134189794Y-92449356D01*
X134194302Y-92446199D01*
X134356199Y-92284302D01*
X134359362Y-92279786D01*
X134484367Y-92101259D01*
X134484368Y-92101257D01*
X134487524Y-92096750D01*
X134492383Y-92086330D01*
X134506080Y-92056957D01*
X134552998Y-92003672D01*
X134621275Y-91984211D01*
X134689235Y-92004753D01*
X134734470Y-92056958D01*
X134750581Y-92091509D01*
X134756066Y-92101009D01*
X134881025Y-92279469D01*
X134888081Y-92287877D01*
X135042123Y-92441919D01*
X135050531Y-92448975D01*
X135228991Y-92573934D01*
X135238487Y-92579417D01*
X135435943Y-92671491D01*
X135446239Y-92675239D01*
X135618503Y-92721398D01*
X135632599Y-92721062D01*
X135636000Y-92713120D01*
X135636000Y-91707548D01*
X136144000Y-91707548D01*
X136144000Y-92707971D01*
X136147973Y-92721502D01*
X136156522Y-92722731D01*
X136333761Y-92675239D01*
X136344057Y-92671491D01*
X136541513Y-92579417D01*
X136551009Y-92573934D01*
X136729469Y-92448975D01*
X136737877Y-92441919D01*
X136891919Y-92287877D01*
X136898975Y-92279469D01*
X137023934Y-92101009D01*
X137029417Y-92091513D01*
X137121491Y-91894057D01*
X137125239Y-91883761D01*
X137171398Y-91711497D01*
X137171062Y-91697401D01*
X137163120Y-91694000D01*
X136162115Y-91694000D01*
X136146876Y-91698475D01*
X136145671Y-91699865D01*
X136144000Y-91707548D01*
X135636000Y-91707548D01*
X135636000Y-91312000D01*
X135656002Y-91243879D01*
X135709658Y-91197386D01*
X135762000Y-91186000D01*
X137157971Y-91186000D01*
X137171502Y-91182027D01*
X137172731Y-91173478D01*
X137123816Y-90990928D01*
X137125285Y-90990534D01*
X137121229Y-90926743D01*
X137155746Y-90864702D01*
X137218326Y-90831171D01*
X137244134Y-90828500D01*
X139620437Y-90828500D01*
X139630485Y-90828974D01*
X139637559Y-90830555D01*
X139645485Y-90830306D01*
X139645486Y-90830306D01*
X139700979Y-90828562D01*
X139704937Y-90828500D01*
X139739579Y-90828500D01*
X139745032Y-90827811D01*
X139745810Y-90827713D01*
X139757644Y-90826781D01*
X139803794Y-90825331D01*
X139824378Y-90819351D01*
X139843736Y-90815342D01*
X139865006Y-90812655D01*
X139872378Y-90809736D01*
X139872383Y-90809735D01*
X139907938Y-90795658D01*
X139919165Y-90791814D01*
X139955891Y-90781143D01*
X139955893Y-90781142D01*
X139963507Y-90778930D01*
X139981958Y-90768018D01*
X139999714Y-90759320D01*
X140012269Y-90754349D01*
X140019644Y-90751429D01*
X140057003Y-90724286D01*
X140066924Y-90717770D01*
X140101545Y-90697295D01*
X140101546Y-90697294D01*
X140106663Y-90694268D01*
X140109434Y-90691825D01*
X140123014Y-90678245D01*
X140138048Y-90665404D01*
X140147784Y-90658331D01*
X140147787Y-90658328D01*
X140154197Y-90653671D01*
X140182072Y-90619976D01*
X140190062Y-90611197D01*
X141981884Y-88819375D01*
X142044196Y-88785349D01*
X142115011Y-88790414D01*
X142171847Y-88832961D01*
X142196567Y-88899236D01*
X142196500Y-88900000D01*
X142216455Y-89128087D01*
X142275714Y-89349243D01*
X142278036Y-89354224D01*
X142278037Y-89354225D01*
X142370150Y-89551763D01*
X142370153Y-89551768D01*
X142372476Y-89556750D01*
X142503801Y-89744302D01*
X142665698Y-89906199D01*
X142670206Y-89909356D01*
X142670209Y-89909358D01*
X142818633Y-90013285D01*
X142853250Y-90037524D01*
X142858232Y-90039847D01*
X142858237Y-90039850D01*
X142892454Y-90055805D01*
X142945739Y-90102722D01*
X142965200Y-90170999D01*
X142944658Y-90238959D01*
X142892454Y-90284195D01*
X142858237Y-90300150D01*
X142858232Y-90300153D01*
X142853250Y-90302476D01*
X142848743Y-90305632D01*
X142848741Y-90305633D01*
X142670209Y-90430642D01*
X142670206Y-90430644D01*
X142665698Y-90433801D01*
X142503801Y-90595698D01*
X142500644Y-90600206D01*
X142500642Y-90600209D01*
X142389232Y-90759320D01*
X142372476Y-90783250D01*
X142370153Y-90788231D01*
X142370150Y-90788237D01*
X142334494Y-90864702D01*
X142275714Y-90990757D01*
X142274292Y-90996065D01*
X142274291Y-90996067D01*
X142217880Y-91206594D01*
X142216455Y-91211913D01*
X142196500Y-91440000D01*
X142216455Y-91668087D01*
X142217879Y-91673400D01*
X142217879Y-91673402D01*
X142227029Y-91707548D01*
X142275714Y-91889243D01*
X142278036Y-91894224D01*
X142278037Y-91894225D01*
X142370150Y-92091763D01*
X142370153Y-92091768D01*
X142372476Y-92096750D01*
X142375632Y-92101257D01*
X142375633Y-92101259D01*
X142500639Y-92279786D01*
X142503801Y-92284302D01*
X142665698Y-92446199D01*
X142670206Y-92449356D01*
X142670209Y-92449358D01*
X142848123Y-92573934D01*
X142853250Y-92577524D01*
X142858232Y-92579847D01*
X142858237Y-92579850D01*
X143054763Y-92671491D01*
X143060757Y-92674286D01*
X143066065Y-92675708D01*
X143066067Y-92675709D01*
X143276598Y-92732121D01*
X143276600Y-92732121D01*
X143281913Y-92733545D01*
X143510000Y-92753500D01*
X143738087Y-92733545D01*
X143743400Y-92732121D01*
X143743402Y-92732121D01*
X143953933Y-92675709D01*
X143953935Y-92675708D01*
X143959243Y-92674286D01*
X143965237Y-92671491D01*
X144161763Y-92579850D01*
X144161768Y-92579847D01*
X144166750Y-92577524D01*
X144171877Y-92573934D01*
X144349791Y-92449358D01*
X144349794Y-92449356D01*
X144354302Y-92446199D01*
X144516199Y-92284302D01*
X144519362Y-92279786D01*
X144644367Y-92101259D01*
X144644368Y-92101257D01*
X144647524Y-92096750D01*
X144649847Y-92091768D01*
X144649850Y-92091763D01*
X144741963Y-91894225D01*
X144741964Y-91894224D01*
X144744286Y-91889243D01*
X144792972Y-91707548D01*
X144802121Y-91673402D01*
X144802121Y-91673400D01*
X144803545Y-91668087D01*
X144823500Y-91440000D01*
X144803545Y-91211913D01*
X144802123Y-91206608D01*
X144802121Y-91206594D01*
X144794014Y-91176342D01*
X144795702Y-91105365D01*
X144826625Y-91054634D01*
X145834905Y-90046355D01*
X145897217Y-90012329D01*
X145968033Y-90017394D01*
X146024868Y-90059941D01*
X146049679Y-90126461D01*
X146050000Y-90135450D01*
X146050000Y-92879910D01*
X146047933Y-92902640D01*
X146046216Y-92912002D01*
X146046085Y-92916865D01*
X146044585Y-92972508D01*
X146041472Y-92997150D01*
X146033484Y-93032149D01*
X146024164Y-93058783D01*
X146012361Y-93083291D01*
X145997351Y-93107179D01*
X145980396Y-93128440D01*
X145960445Y-93148392D01*
X145939179Y-93165351D01*
X145915288Y-93180362D01*
X145890783Y-93192163D01*
X145864152Y-93201482D01*
X145829146Y-93209472D01*
X145804502Y-93212585D01*
X145751763Y-93214006D01*
X145751760Y-93214006D01*
X145747279Y-93214127D01*
X145736713Y-93215932D01*
X145735138Y-93216201D01*
X145713921Y-93218000D01*
X104000900Y-93218000D01*
X103978170Y-93215932D01*
X103976107Y-93215554D01*
X103973607Y-93215095D01*
X103973603Y-93215095D01*
X103968813Y-93214216D01*
X103931053Y-93213198D01*
X103908307Y-93212585D01*
X103883665Y-93209472D01*
X103848666Y-93201484D01*
X103822032Y-93192164D01*
X103797524Y-93180361D01*
X103773636Y-93165351D01*
X103752375Y-93148396D01*
X103732423Y-93128445D01*
X103715464Y-93107179D01*
X103700453Y-93083288D01*
X103688652Y-93058783D01*
X103679333Y-93032152D01*
X103671343Y-92997146D01*
X103668230Y-92972502D01*
X103666809Y-92919763D01*
X103666809Y-92919760D01*
X103666688Y-92915279D01*
X103664614Y-92903138D01*
X103662815Y-92881921D01*
X103662815Y-91706522D01*
X104199269Y-91706522D01*
X104246761Y-91883761D01*
X104250509Y-91894057D01*
X104342583Y-92091513D01*
X104348066Y-92101009D01*
X104473025Y-92279469D01*
X104480081Y-92287877D01*
X104634123Y-92441919D01*
X104642531Y-92448975D01*
X104820991Y-92573934D01*
X104830487Y-92579417D01*
X105027943Y-92671491D01*
X105038239Y-92675239D01*
X105210503Y-92721398D01*
X105224599Y-92721062D01*
X105228000Y-92713120D01*
X105228000Y-91712115D01*
X105226659Y-91707548D01*
X105736000Y-91707548D01*
X105736000Y-92707971D01*
X105739973Y-92721502D01*
X105748522Y-92722731D01*
X105925761Y-92675239D01*
X105936057Y-92671491D01*
X106133513Y-92579417D01*
X106143009Y-92573934D01*
X106321469Y-92448975D01*
X106329877Y-92441919D01*
X106483919Y-92287877D01*
X106490975Y-92279469D01*
X106615934Y-92101009D01*
X106621417Y-92091513D01*
X106713491Y-91894057D01*
X106717239Y-91883761D01*
X106763398Y-91711497D01*
X106763062Y-91697401D01*
X106755120Y-91694000D01*
X105754115Y-91694000D01*
X105738876Y-91698475D01*
X105737671Y-91699865D01*
X105736000Y-91707548D01*
X105226659Y-91707548D01*
X105223525Y-91696876D01*
X105222135Y-91695671D01*
X105214452Y-91694000D01*
X104214029Y-91694000D01*
X104200498Y-91697973D01*
X104199269Y-91706522D01*
X103662815Y-91706522D01*
X103662815Y-75400000D01*
X104168500Y-75400000D01*
X104168500Y-77000000D01*
X104173727Y-77073079D01*
X104214904Y-77213316D01*
X104227730Y-77233274D01*
X104289051Y-77328691D01*
X104289053Y-77328694D01*
X104293923Y-77336271D01*
X104300733Y-77342172D01*
X104397569Y-77426082D01*
X104397572Y-77426084D01*
X104404381Y-77431984D01*
X104412579Y-77435728D01*
X104489812Y-77470999D01*
X104537330Y-77492700D01*
X104546245Y-77493982D01*
X104546246Y-77493982D01*
X104591122Y-77500434D01*
X104655703Y-77529927D01*
X104694087Y-77589653D01*
X104694087Y-77660650D01*
X104655704Y-77720376D01*
X104645465Y-77728362D01*
X104637698Y-77733801D01*
X104475801Y-77895698D01*
X104472644Y-77900206D01*
X104472642Y-77900209D01*
X104393042Y-78013890D01*
X104344476Y-78083250D01*
X104342153Y-78088232D01*
X104342150Y-78088237D01*
X104250039Y-78285770D01*
X104247714Y-78290757D01*
X104188455Y-78511913D01*
X104168500Y-78740000D01*
X104188455Y-78968087D01*
X104247714Y-79189243D01*
X104250036Y-79194224D01*
X104250037Y-79194225D01*
X104342150Y-79391763D01*
X104342153Y-79391768D01*
X104344476Y-79396750D01*
X104475801Y-79584302D01*
X104637698Y-79746199D01*
X104642206Y-79749356D01*
X104642209Y-79749358D01*
X104820734Y-79874362D01*
X104825250Y-79877524D01*
X104830232Y-79879847D01*
X104830237Y-79879850D01*
X104864454Y-79895805D01*
X104917739Y-79942722D01*
X104937200Y-80010999D01*
X104916658Y-80078959D01*
X104864454Y-80124195D01*
X104830237Y-80140150D01*
X104830232Y-80140153D01*
X104825250Y-80142476D01*
X104820743Y-80145632D01*
X104820741Y-80145633D01*
X104642209Y-80270642D01*
X104642206Y-80270644D01*
X104637698Y-80273801D01*
X104475801Y-80435698D01*
X104472644Y-80440206D01*
X104472642Y-80440209D01*
X104361232Y-80599320D01*
X104344476Y-80623250D01*
X104342153Y-80628232D01*
X104342150Y-80628237D01*
X104250037Y-80825775D01*
X104247714Y-80830757D01*
X104246292Y-80836065D01*
X104246291Y-80836067D01*
X104212000Y-80964042D01*
X104188455Y-81051913D01*
X104168500Y-81280000D01*
X104188455Y-81508087D01*
X104189879Y-81513400D01*
X104189879Y-81513402D01*
X104217005Y-81614635D01*
X104247714Y-81729243D01*
X104250036Y-81734224D01*
X104250037Y-81734225D01*
X104342150Y-81931763D01*
X104342153Y-81931768D01*
X104344476Y-81936750D01*
X104475801Y-82124302D01*
X104637698Y-82286199D01*
X104642206Y-82289356D01*
X104642209Y-82289358D01*
X104712059Y-82338267D01*
X104825250Y-82417524D01*
X104830232Y-82419847D01*
X104830237Y-82419850D01*
X104864454Y-82435805D01*
X104917739Y-82482722D01*
X104937200Y-82550999D01*
X104916658Y-82618959D01*
X104864454Y-82664195D01*
X104830237Y-82680150D01*
X104830232Y-82680153D01*
X104825250Y-82682476D01*
X104820743Y-82685632D01*
X104820741Y-82685633D01*
X104642209Y-82810642D01*
X104642206Y-82810644D01*
X104637698Y-82813801D01*
X104475801Y-82975698D01*
X104472644Y-82980206D01*
X104472642Y-82980209D01*
X104361232Y-83139320D01*
X104344476Y-83163250D01*
X104342153Y-83168232D01*
X104342150Y-83168237D01*
X104250037Y-83365775D01*
X104247714Y-83370757D01*
X104246292Y-83376065D01*
X104246291Y-83376067D01*
X104212000Y-83504042D01*
X104188455Y-83591913D01*
X104168500Y-83820000D01*
X104188455Y-84048087D01*
X104189879Y-84053400D01*
X104189879Y-84053402D01*
X104217005Y-84154635D01*
X104247714Y-84269243D01*
X104250036Y-84274224D01*
X104250037Y-84274225D01*
X104342150Y-84471763D01*
X104342153Y-84471768D01*
X104344476Y-84476750D01*
X104347632Y-84481257D01*
X104347633Y-84481259D01*
X104472639Y-84659786D01*
X104475801Y-84664302D01*
X104637698Y-84826199D01*
X104642206Y-84829356D01*
X104642209Y-84829358D01*
X104820738Y-84954365D01*
X104825250Y-84957524D01*
X104830232Y-84959847D01*
X104830237Y-84959850D01*
X104864454Y-84975805D01*
X104917739Y-85022722D01*
X104937200Y-85090999D01*
X104916658Y-85158959D01*
X104864454Y-85204195D01*
X104830237Y-85220150D01*
X104830232Y-85220153D01*
X104825250Y-85222476D01*
X104820743Y-85225632D01*
X104820741Y-85225633D01*
X104642209Y-85350642D01*
X104642206Y-85350644D01*
X104637698Y-85353801D01*
X104475801Y-85515698D01*
X104472644Y-85520206D01*
X104472642Y-85520209D01*
X104361232Y-85679320D01*
X104344476Y-85703250D01*
X104342153Y-85708232D01*
X104342150Y-85708237D01*
X104250037Y-85905775D01*
X104247714Y-85910757D01*
X104188455Y-86131913D01*
X104168500Y-86360000D01*
X104188455Y-86588087D01*
X104189879Y-86593400D01*
X104189879Y-86593402D01*
X104217005Y-86694635D01*
X104247714Y-86809243D01*
X104250036Y-86814224D01*
X104250037Y-86814225D01*
X104342150Y-87011763D01*
X104342153Y-87011768D01*
X104344476Y-87016750D01*
X104347632Y-87021257D01*
X104347633Y-87021259D01*
X104472639Y-87199786D01*
X104475801Y-87204302D01*
X104637698Y-87366199D01*
X104642206Y-87369356D01*
X104642209Y-87369358D01*
X104820741Y-87494367D01*
X104825250Y-87497524D01*
X104830232Y-87499847D01*
X104830237Y-87499850D01*
X104864454Y-87515805D01*
X104917739Y-87562722D01*
X104937200Y-87630999D01*
X104916658Y-87698959D01*
X104864454Y-87744195D01*
X104830237Y-87760150D01*
X104830232Y-87760153D01*
X104825250Y-87762476D01*
X104820743Y-87765632D01*
X104820741Y-87765633D01*
X104642209Y-87890642D01*
X104642206Y-87890644D01*
X104637698Y-87893801D01*
X104475801Y-88055698D01*
X104472644Y-88060206D01*
X104472642Y-88060209D01*
X104361232Y-88219320D01*
X104344476Y-88243250D01*
X104342153Y-88248232D01*
X104342150Y-88248237D01*
X104256256Y-88432439D01*
X104247714Y-88450757D01*
X104246292Y-88456065D01*
X104246291Y-88456067D01*
X104216815Y-88566074D01*
X104188455Y-88671913D01*
X104168500Y-88900000D01*
X104188455Y-89128087D01*
X104247714Y-89349243D01*
X104250036Y-89354224D01*
X104250037Y-89354225D01*
X104342150Y-89551763D01*
X104342153Y-89551768D01*
X104344476Y-89556750D01*
X104475801Y-89744302D01*
X104637698Y-89906199D01*
X104642206Y-89909356D01*
X104642209Y-89909358D01*
X104790633Y-90013285D01*
X104825250Y-90037524D01*
X104830237Y-90039850D01*
X104830238Y-90039850D01*
X104865043Y-90056080D01*
X104918328Y-90102998D01*
X104937789Y-90171275D01*
X104917247Y-90239235D01*
X104865042Y-90284470D01*
X104830491Y-90300581D01*
X104820991Y-90306066D01*
X104642531Y-90431025D01*
X104634123Y-90438081D01*
X104480081Y-90592123D01*
X104473025Y-90600531D01*
X104348066Y-90778991D01*
X104342583Y-90788487D01*
X104250509Y-90985943D01*
X104246761Y-90996239D01*
X104200602Y-91168503D01*
X104200938Y-91182599D01*
X104208880Y-91186000D01*
X106749971Y-91186000D01*
X106763502Y-91182027D01*
X106764731Y-91173478D01*
X106717239Y-90996239D01*
X106713491Y-90985943D01*
X106621417Y-90788487D01*
X106615934Y-90778991D01*
X106490975Y-90600531D01*
X106483919Y-90592123D01*
X106329877Y-90438081D01*
X106321469Y-90431025D01*
X106143009Y-90306066D01*
X106133509Y-90300581D01*
X106098958Y-90284470D01*
X106045672Y-90237553D01*
X106026211Y-90169276D01*
X106046753Y-90101316D01*
X106098957Y-90056080D01*
X106133762Y-90039850D01*
X106133763Y-90039850D01*
X106138750Y-90037524D01*
X106173367Y-90013285D01*
X106321791Y-89909358D01*
X106321794Y-89909356D01*
X106326302Y-89906199D01*
X106488199Y-89744302D01*
X106619524Y-89556750D01*
X106621847Y-89551768D01*
X106621850Y-89551763D01*
X106713963Y-89354225D01*
X106713964Y-89354224D01*
X106716286Y-89349243D01*
X106775545Y-89128087D01*
X106795500Y-88900000D01*
X106775545Y-88671913D01*
X106774123Y-88666608D01*
X106774121Y-88666594D01*
X106766014Y-88636342D01*
X106767702Y-88565365D01*
X106798625Y-88514634D01*
X111573884Y-83739376D01*
X111636196Y-83705350D01*
X111707011Y-83710415D01*
X111763847Y-83752962D01*
X111788567Y-83819237D01*
X111788500Y-83820000D01*
X111808455Y-84048087D01*
X111809879Y-84053400D01*
X111809879Y-84053402D01*
X111837005Y-84154635D01*
X111867714Y-84269243D01*
X111870036Y-84274224D01*
X111870037Y-84274225D01*
X111962150Y-84471763D01*
X111962153Y-84471768D01*
X111964476Y-84476750D01*
X111967632Y-84481257D01*
X111967633Y-84481259D01*
X112092639Y-84659786D01*
X112095801Y-84664302D01*
X112257698Y-84826199D01*
X112262206Y-84829356D01*
X112262209Y-84829358D01*
X112440738Y-84954365D01*
X112445250Y-84957524D01*
X112450232Y-84959847D01*
X112450237Y-84959850D01*
X112484454Y-84975805D01*
X112537739Y-85022722D01*
X112557200Y-85090999D01*
X112536658Y-85158959D01*
X112484454Y-85204195D01*
X112450237Y-85220150D01*
X112450232Y-85220153D01*
X112445250Y-85222476D01*
X112440743Y-85225632D01*
X112440741Y-85225633D01*
X112262209Y-85350642D01*
X112262206Y-85350644D01*
X112257698Y-85353801D01*
X112095801Y-85515698D01*
X112092644Y-85520206D01*
X112092642Y-85520209D01*
X111981232Y-85679320D01*
X111964476Y-85703250D01*
X111962153Y-85708232D01*
X111962150Y-85708237D01*
X111870037Y-85905775D01*
X111867714Y-85910757D01*
X111808455Y-86131913D01*
X111788500Y-86360000D01*
X111808455Y-86588087D01*
X111809879Y-86593400D01*
X111809879Y-86593402D01*
X111837005Y-86694635D01*
X111867714Y-86809243D01*
X111870036Y-86814224D01*
X111870037Y-86814225D01*
X111962150Y-87011763D01*
X111962153Y-87011768D01*
X111964476Y-87016750D01*
X111967632Y-87021257D01*
X111967633Y-87021259D01*
X112092639Y-87199786D01*
X112095801Y-87204302D01*
X112257698Y-87366199D01*
X112262206Y-87369356D01*
X112262209Y-87369358D01*
X112440741Y-87494367D01*
X112445250Y-87497524D01*
X112450232Y-87499847D01*
X112450237Y-87499850D01*
X112484454Y-87515805D01*
X112537739Y-87562722D01*
X112557200Y-87630999D01*
X112536658Y-87698959D01*
X112484454Y-87744195D01*
X112450237Y-87760150D01*
X112450232Y-87760153D01*
X112445250Y-87762476D01*
X112440743Y-87765632D01*
X112440741Y-87765633D01*
X112262209Y-87890642D01*
X112262206Y-87890644D01*
X112257698Y-87893801D01*
X112095801Y-88055698D01*
X112092644Y-88060206D01*
X112092642Y-88060209D01*
X111981232Y-88219320D01*
X111964476Y-88243250D01*
X111962153Y-88248232D01*
X111962150Y-88248237D01*
X111876256Y-88432439D01*
X111867714Y-88450757D01*
X111866292Y-88456065D01*
X111866291Y-88456067D01*
X111836815Y-88566074D01*
X111808455Y-88671913D01*
X111788500Y-88900000D01*
X111808455Y-89128087D01*
X111867714Y-89349243D01*
X111870036Y-89354224D01*
X111870037Y-89354225D01*
X111962150Y-89551763D01*
X111962153Y-89551768D01*
X111964476Y-89556750D01*
X112095801Y-89744302D01*
X112257698Y-89906199D01*
X112262206Y-89909356D01*
X112262209Y-89909358D01*
X112410633Y-90013285D01*
X112445250Y-90037524D01*
X112450232Y-90039847D01*
X112450237Y-90039850D01*
X112484454Y-90055805D01*
X112537739Y-90102722D01*
X112557200Y-90170999D01*
X112536658Y-90238959D01*
X112484454Y-90284195D01*
X112450237Y-90300150D01*
X112450232Y-90300153D01*
X112445250Y-90302476D01*
X112440743Y-90305632D01*
X112440741Y-90305633D01*
X112262209Y-90430642D01*
X112262206Y-90430644D01*
X112257698Y-90433801D01*
X112095801Y-90595698D01*
X112092644Y-90600206D01*
X112092642Y-90600209D01*
X111981232Y-90759320D01*
X111964476Y-90783250D01*
X111962153Y-90788231D01*
X111962150Y-90788237D01*
X111926494Y-90864702D01*
X111867714Y-90990757D01*
X111866292Y-90996065D01*
X111866291Y-90996067D01*
X111809880Y-91206594D01*
X111808455Y-91211913D01*
X111788500Y-91440000D01*
X111808455Y-91668087D01*
X111809879Y-91673400D01*
X111809879Y-91673402D01*
X111819029Y-91707548D01*
X111867714Y-91889243D01*
X111870036Y-91894224D01*
X111870037Y-91894225D01*
X111962150Y-92091763D01*
X111962153Y-92091768D01*
X111964476Y-92096750D01*
X111967632Y-92101257D01*
X111967633Y-92101259D01*
X112092639Y-92279786D01*
X112095801Y-92284302D01*
X112257698Y-92446199D01*
X112262206Y-92449356D01*
X112262209Y-92449358D01*
X112440123Y-92573934D01*
X112445250Y-92577524D01*
X112450232Y-92579847D01*
X112450237Y-92579850D01*
X112646763Y-92671491D01*
X112652757Y-92674286D01*
X112658065Y-92675708D01*
X112658067Y-92675709D01*
X112868598Y-92732121D01*
X112868600Y-92732121D01*
X112873913Y-92733545D01*
X113102000Y-92753500D01*
X113330087Y-92733545D01*
X113335400Y-92732121D01*
X113335402Y-92732121D01*
X113545933Y-92675709D01*
X113545935Y-92675708D01*
X113551243Y-92674286D01*
X113557237Y-92671491D01*
X113753763Y-92579850D01*
X113753768Y-92579847D01*
X113758750Y-92577524D01*
X113763877Y-92573934D01*
X113941791Y-92449358D01*
X113941794Y-92449356D01*
X113946302Y-92446199D01*
X114108199Y-92284302D01*
X114111358Y-92279791D01*
X114111362Y-92279786D01*
X114233091Y-92105938D01*
X114288548Y-92061609D01*
X114359167Y-92054300D01*
X114422528Y-92086330D01*
X114439517Y-92105937D01*
X114561025Y-92279469D01*
X114568081Y-92287877D01*
X114722123Y-92441919D01*
X114730531Y-92448975D01*
X114908991Y-92573934D01*
X114918487Y-92579417D01*
X115115943Y-92671491D01*
X115126239Y-92675239D01*
X115298503Y-92721398D01*
X115312599Y-92721062D01*
X115316000Y-92713120D01*
X115316000Y-91707548D01*
X115824000Y-91707548D01*
X115824000Y-92707971D01*
X115827973Y-92721502D01*
X115836522Y-92722731D01*
X116013761Y-92675239D01*
X116024057Y-92671491D01*
X116221513Y-92579417D01*
X116231009Y-92573934D01*
X116409469Y-92448975D01*
X116417877Y-92441919D01*
X116571919Y-92287877D01*
X116578975Y-92279469D01*
X116703934Y-92101009D01*
X116709417Y-92091513D01*
X116801491Y-91894057D01*
X116805239Y-91883761D01*
X116851398Y-91711497D01*
X116851062Y-91697401D01*
X116843120Y-91694000D01*
X115842115Y-91694000D01*
X115826876Y-91698475D01*
X115825671Y-91699865D01*
X115824000Y-91707548D01*
X115316000Y-91707548D01*
X115316000Y-91312000D01*
X115336002Y-91243879D01*
X115389658Y-91197386D01*
X115442000Y-91186000D01*
X116837971Y-91186000D01*
X116851502Y-91182027D01*
X116852731Y-91173478D01*
X116803816Y-90990928D01*
X116805285Y-90990534D01*
X116801229Y-90926743D01*
X116835746Y-90864702D01*
X116898326Y-90831171D01*
X116924134Y-90828500D01*
X121835334Y-90828500D01*
X121903455Y-90848502D01*
X121949948Y-90902158D01*
X121960052Y-90972432D01*
X121955469Y-90990691D01*
X121955714Y-90990757D01*
X121900348Y-91197386D01*
X121896455Y-91211913D01*
X121876500Y-91440000D01*
X121896455Y-91668087D01*
X121897879Y-91673400D01*
X121897879Y-91673402D01*
X121907029Y-91707548D01*
X121955714Y-91889243D01*
X121958036Y-91894224D01*
X121958037Y-91894225D01*
X122050150Y-92091763D01*
X122050153Y-92091768D01*
X122052476Y-92096750D01*
X122055632Y-92101257D01*
X122055633Y-92101259D01*
X122180639Y-92279786D01*
X122183801Y-92284302D01*
X122345698Y-92446199D01*
X122350206Y-92449356D01*
X122350209Y-92449358D01*
X122528123Y-92573934D01*
X122533250Y-92577524D01*
X122538232Y-92579847D01*
X122538237Y-92579850D01*
X122734763Y-92671491D01*
X122740757Y-92674286D01*
X122746065Y-92675708D01*
X122746067Y-92675709D01*
X122956598Y-92732121D01*
X122956600Y-92732121D01*
X122961913Y-92733545D01*
X123190000Y-92753500D01*
X123418087Y-92733545D01*
X123423400Y-92732121D01*
X123423402Y-92732121D01*
X123633933Y-92675709D01*
X123633935Y-92675708D01*
X123639243Y-92674286D01*
X123645237Y-92671491D01*
X123841763Y-92579850D01*
X123841768Y-92579847D01*
X123846750Y-92577524D01*
X123851877Y-92573934D01*
X124029791Y-92449358D01*
X124029794Y-92449356D01*
X124034302Y-92446199D01*
X124196199Y-92284302D01*
X124199362Y-92279786D01*
X124324367Y-92101259D01*
X124324368Y-92101257D01*
X124327524Y-92096750D01*
X124332383Y-92086330D01*
X124346080Y-92056957D01*
X124392998Y-92003672D01*
X124461275Y-91984211D01*
X124529235Y-92004753D01*
X124574470Y-92056958D01*
X124590581Y-92091509D01*
X124596066Y-92101009D01*
X124721025Y-92279469D01*
X124728081Y-92287877D01*
X124882123Y-92441919D01*
X124890531Y-92448975D01*
X125068991Y-92573934D01*
X125078487Y-92579417D01*
X125275943Y-92671491D01*
X125286239Y-92675239D01*
X125458503Y-92721398D01*
X125472599Y-92721062D01*
X125476000Y-92713120D01*
X125476000Y-91707548D01*
X125984000Y-91707548D01*
X125984000Y-92707971D01*
X125987973Y-92721502D01*
X125996522Y-92722731D01*
X126173761Y-92675239D01*
X126184057Y-92671491D01*
X126381513Y-92579417D01*
X126391009Y-92573934D01*
X126569469Y-92448975D01*
X126577877Y-92441919D01*
X126731919Y-92287877D01*
X126738975Y-92279469D01*
X126863934Y-92101009D01*
X126869417Y-92091513D01*
X126961491Y-91894057D01*
X126965239Y-91883761D01*
X127011398Y-91711497D01*
X127011062Y-91697401D01*
X127003120Y-91694000D01*
X126002115Y-91694000D01*
X125986876Y-91698475D01*
X125985671Y-91699865D01*
X125984000Y-91707548D01*
X125476000Y-91707548D01*
X125476000Y-91312000D01*
X125496002Y-91243879D01*
X125549658Y-91197386D01*
X125602000Y-91186000D01*
X126997971Y-91186000D01*
X127011502Y-91182027D01*
X127012731Y-91173478D01*
X126965239Y-90996239D01*
X126961491Y-90985943D01*
X126869417Y-90788487D01*
X126863934Y-90778991D01*
X126738975Y-90600531D01*
X126731919Y-90592123D01*
X126577877Y-90438081D01*
X126569469Y-90431025D01*
X126391009Y-90306066D01*
X126381509Y-90300581D01*
X126346958Y-90284470D01*
X126293672Y-90237553D01*
X126274211Y-90169276D01*
X126294753Y-90101316D01*
X126346957Y-90056080D01*
X126381762Y-90039850D01*
X126381763Y-90039850D01*
X126386750Y-90037524D01*
X126421367Y-90013285D01*
X126569791Y-89909358D01*
X126569794Y-89909356D01*
X126574302Y-89906199D01*
X126736199Y-89744302D01*
X126867524Y-89556750D01*
X126869847Y-89551768D01*
X126869850Y-89551763D01*
X126961963Y-89354225D01*
X126961964Y-89354224D01*
X126964286Y-89349243D01*
X127023545Y-89128087D01*
X127043500Y-88900000D01*
X127023545Y-88671913D01*
X126995185Y-88566074D01*
X126965709Y-88456067D01*
X126965708Y-88456065D01*
X126964286Y-88450757D01*
X126955744Y-88432439D01*
X126869850Y-88248237D01*
X126869847Y-88248232D01*
X126867524Y-88243250D01*
X126850768Y-88219320D01*
X126739358Y-88060209D01*
X126739356Y-88060206D01*
X126736199Y-88055698D01*
X126574302Y-87893801D01*
X126569794Y-87890644D01*
X126569791Y-87890642D01*
X126391259Y-87765633D01*
X126391257Y-87765632D01*
X126386750Y-87762476D01*
X126381768Y-87760153D01*
X126381763Y-87760150D01*
X126347546Y-87744195D01*
X126294261Y-87697278D01*
X126274800Y-87629001D01*
X126295342Y-87561041D01*
X126347546Y-87515805D01*
X126381763Y-87499850D01*
X126381768Y-87499847D01*
X126386750Y-87497524D01*
X126391259Y-87494367D01*
X126569791Y-87369358D01*
X126569794Y-87369356D01*
X126574302Y-87366199D01*
X126736199Y-87204302D01*
X126739362Y-87199786D01*
X126864367Y-87021259D01*
X126864368Y-87021257D01*
X126867524Y-87016750D01*
X126869847Y-87011768D01*
X126869850Y-87011763D01*
X126961963Y-86814225D01*
X126961964Y-86814224D01*
X126964286Y-86809243D01*
X126994996Y-86694635D01*
X127022121Y-86593402D01*
X127022121Y-86593400D01*
X127023545Y-86588087D01*
X127043500Y-86360000D01*
X127023545Y-86131913D01*
X126964286Y-85910757D01*
X126961963Y-85905775D01*
X126869850Y-85708237D01*
X126869847Y-85708232D01*
X126867524Y-85703250D01*
X126850768Y-85679320D01*
X126739358Y-85520209D01*
X126739356Y-85520206D01*
X126736199Y-85515698D01*
X126574302Y-85353801D01*
X126569794Y-85350644D01*
X126569791Y-85350642D01*
X126391259Y-85225633D01*
X126391257Y-85225632D01*
X126386750Y-85222476D01*
X126381768Y-85220153D01*
X126381763Y-85220150D01*
X126347546Y-85204195D01*
X126294261Y-85157278D01*
X126274800Y-85089001D01*
X126295342Y-85021041D01*
X126347546Y-84975805D01*
X126381763Y-84959850D01*
X126381768Y-84959847D01*
X126386750Y-84957524D01*
X126391262Y-84954365D01*
X126569791Y-84829358D01*
X126569794Y-84829356D01*
X126574302Y-84826199D01*
X126736199Y-84664302D01*
X126739362Y-84659786D01*
X126864367Y-84481259D01*
X126864368Y-84481257D01*
X126867524Y-84476750D01*
X126869847Y-84471768D01*
X126869850Y-84471763D01*
X126961963Y-84274225D01*
X126961964Y-84274224D01*
X126964286Y-84269243D01*
X126994996Y-84154635D01*
X127022121Y-84053402D01*
X127022121Y-84053400D01*
X127023545Y-84048087D01*
X127043500Y-83820000D01*
X127023545Y-83591913D01*
X127000000Y-83504042D01*
X126965709Y-83376067D01*
X126965708Y-83376065D01*
X126964286Y-83370757D01*
X126961963Y-83365775D01*
X126869850Y-83168237D01*
X126869847Y-83168232D01*
X126867524Y-83163250D01*
X126850768Y-83139320D01*
X126739358Y-82980209D01*
X126739356Y-82980206D01*
X126736199Y-82975698D01*
X126574302Y-82813801D01*
X126569794Y-82810644D01*
X126569791Y-82810642D01*
X126391259Y-82685633D01*
X126391257Y-82685632D01*
X126386750Y-82682476D01*
X126381768Y-82680153D01*
X126381763Y-82680150D01*
X126347546Y-82664195D01*
X126294261Y-82617278D01*
X126274800Y-82549001D01*
X126295342Y-82481041D01*
X126347546Y-82435805D01*
X126381763Y-82419850D01*
X126381768Y-82419847D01*
X126386750Y-82417524D01*
X126499941Y-82338267D01*
X126569791Y-82289358D01*
X126569794Y-82289356D01*
X126574302Y-82286199D01*
X126736199Y-82124302D01*
X126867524Y-81936750D01*
X126869847Y-81931768D01*
X126869850Y-81931763D01*
X126961963Y-81734225D01*
X126961964Y-81734224D01*
X126964286Y-81729243D01*
X126994996Y-81614635D01*
X127022121Y-81513402D01*
X127022121Y-81513400D01*
X127023545Y-81508087D01*
X127043500Y-81280000D01*
X127023545Y-81051913D01*
X127000000Y-80964042D01*
X126965709Y-80836067D01*
X126965708Y-80836065D01*
X126964286Y-80830757D01*
X126961963Y-80825775D01*
X126869850Y-80628237D01*
X126869847Y-80628232D01*
X126867524Y-80623250D01*
X126850768Y-80599320D01*
X126739358Y-80440209D01*
X126739356Y-80440206D01*
X126736199Y-80435698D01*
X126574302Y-80273801D01*
X126569794Y-80270644D01*
X126569791Y-80270642D01*
X126391259Y-80145633D01*
X126391257Y-80145632D01*
X126386750Y-80142476D01*
X126381768Y-80140153D01*
X126381763Y-80140150D01*
X126347546Y-80124195D01*
X126294261Y-80077278D01*
X126274800Y-80009001D01*
X126295342Y-79941041D01*
X126347546Y-79895805D01*
X126381763Y-79879850D01*
X126381768Y-79879847D01*
X126386750Y-79877524D01*
X126391266Y-79874362D01*
X126569791Y-79749358D01*
X126569794Y-79749356D01*
X126574302Y-79746199D01*
X126736199Y-79584302D01*
X126867524Y-79396750D01*
X126869847Y-79391768D01*
X126869850Y-79391763D01*
X126961963Y-79194225D01*
X126961964Y-79194224D01*
X126964286Y-79189243D01*
X127023545Y-78968087D01*
X127043500Y-78740000D01*
X127023545Y-78511913D01*
X126964286Y-78290757D01*
X126961961Y-78285770D01*
X126869850Y-78088237D01*
X126869847Y-78088232D01*
X126867524Y-78083250D01*
X126818958Y-78013890D01*
X126739358Y-77900209D01*
X126739356Y-77900206D01*
X126736199Y-77895698D01*
X126574302Y-77733801D01*
X126569791Y-77730642D01*
X126565578Y-77727107D01*
X126566450Y-77726067D01*
X126526182Y-77675686D01*
X126518876Y-77605066D01*
X126550909Y-77541707D01*
X126607285Y-77507038D01*
X126734670Y-77469635D01*
X126734672Y-77469634D01*
X126743316Y-77467096D01*
X126807135Y-77426082D01*
X126858691Y-77392949D01*
X126858694Y-77392947D01*
X126866271Y-77388077D01*
X126906048Y-77342172D01*
X126956082Y-77284431D01*
X126956084Y-77284428D01*
X126961984Y-77277619D01*
X127022700Y-77144670D01*
X127032061Y-77079562D01*
X127042861Y-77004448D01*
X127042862Y-77004441D01*
X127043500Y-77000000D01*
X127043500Y-75400000D01*
X127038273Y-75326921D01*
X126997096Y-75186684D01*
X126951393Y-75115569D01*
X126922949Y-75071309D01*
X126922947Y-75071306D01*
X126918077Y-75063729D01*
X126911267Y-75057828D01*
X126814431Y-74973918D01*
X126814428Y-74973916D01*
X126807619Y-74968016D01*
X126674670Y-74907300D01*
X126665755Y-74906018D01*
X126665754Y-74906018D01*
X126534448Y-74887139D01*
X126534441Y-74887138D01*
X126530000Y-74886500D01*
X124930000Y-74886500D01*
X124856921Y-74891727D01*
X124806762Y-74906455D01*
X124725330Y-74930365D01*
X124725328Y-74930366D01*
X124716684Y-74932904D01*
X124709105Y-74937775D01*
X124601309Y-75007051D01*
X124601306Y-75007053D01*
X124593729Y-75011923D01*
X124587828Y-75018733D01*
X124503918Y-75115569D01*
X124503916Y-75115572D01*
X124498016Y-75122381D01*
X124437300Y-75255330D01*
X124436018Y-75264245D01*
X124436018Y-75264246D01*
X124429566Y-75309122D01*
X124400073Y-75373703D01*
X124340347Y-75412087D01*
X124269350Y-75412087D01*
X124209624Y-75373704D01*
X124201638Y-75363465D01*
X124196199Y-75355698D01*
X124034302Y-75193801D01*
X124029794Y-75190644D01*
X124029791Y-75190642D01*
X123851259Y-75065633D01*
X123851257Y-75065632D01*
X123846750Y-75062476D01*
X123841768Y-75060153D01*
X123841763Y-75060150D01*
X123644225Y-74968037D01*
X123644224Y-74968036D01*
X123639243Y-74965714D01*
X123633935Y-74964292D01*
X123633933Y-74964291D01*
X123423402Y-74907879D01*
X123423400Y-74907879D01*
X123418087Y-74906455D01*
X123190000Y-74886500D01*
X122961913Y-74906455D01*
X122956600Y-74907879D01*
X122956598Y-74907879D01*
X122746067Y-74964291D01*
X122746065Y-74964292D01*
X122740757Y-74965714D01*
X122735776Y-74968036D01*
X122735775Y-74968037D01*
X122538237Y-75060150D01*
X122538232Y-75060153D01*
X122533250Y-75062476D01*
X122528743Y-75065632D01*
X122528741Y-75065633D01*
X122350209Y-75190642D01*
X122350206Y-75190644D01*
X122345698Y-75193801D01*
X122183801Y-75355698D01*
X122180644Y-75360206D01*
X122180642Y-75360209D01*
X122116609Y-75451658D01*
X122052476Y-75543250D01*
X122050153Y-75548232D01*
X122050150Y-75548237D01*
X122035500Y-75579655D01*
X121955714Y-75750757D01*
X121954292Y-75756065D01*
X121954291Y-75756067D01*
X121928339Y-75852921D01*
X121896455Y-75971913D01*
X121876500Y-76200000D01*
X121896455Y-76428087D01*
X121955714Y-76649243D01*
X121958036Y-76654224D01*
X121958037Y-76654225D01*
X122050150Y-76851763D01*
X122050153Y-76851768D01*
X122052476Y-76856750D01*
X122055632Y-76861257D01*
X122055633Y-76861259D01*
X122172949Y-77028803D01*
X122183801Y-77044302D01*
X122345698Y-77206199D01*
X122350206Y-77209356D01*
X122350209Y-77209358D01*
X122457425Y-77284431D01*
X122533250Y-77337524D01*
X122538232Y-77339847D01*
X122538237Y-77339850D01*
X122572454Y-77355805D01*
X122625739Y-77402722D01*
X122645200Y-77470999D01*
X122624658Y-77538959D01*
X122572454Y-77584195D01*
X122538237Y-77600150D01*
X122538232Y-77600153D01*
X122533250Y-77602476D01*
X122528743Y-77605632D01*
X122528741Y-77605633D01*
X122350209Y-77730642D01*
X122350206Y-77730644D01*
X122345698Y-77733801D01*
X122183801Y-77895698D01*
X122180644Y-77900206D01*
X122180642Y-77900209D01*
X122101042Y-78013890D01*
X122052476Y-78083250D01*
X122050153Y-78088232D01*
X122050150Y-78088237D01*
X121958039Y-78285770D01*
X121955714Y-78290757D01*
X121896455Y-78511913D01*
X121876500Y-78740000D01*
X121896455Y-78968087D01*
X121897879Y-78973400D01*
X121897879Y-78973402D01*
X121955714Y-79189243D01*
X121954196Y-79189650D01*
X121958238Y-79253260D01*
X121923719Y-79315300D01*
X121861139Y-79348829D01*
X121835334Y-79351500D01*
X116924666Y-79351500D01*
X116856545Y-79331498D01*
X116810052Y-79277842D01*
X116799948Y-79207568D01*
X116804531Y-79189309D01*
X116804286Y-79189243D01*
X116862121Y-78973402D01*
X116862121Y-78973400D01*
X116863545Y-78968087D01*
X116883500Y-78740000D01*
X116863545Y-78511913D01*
X116804286Y-78290757D01*
X116801961Y-78285770D01*
X116709850Y-78088237D01*
X116709847Y-78088232D01*
X116707524Y-78083250D01*
X116658958Y-78013890D01*
X116579358Y-77900209D01*
X116579356Y-77900206D01*
X116576199Y-77895698D01*
X116414302Y-77733801D01*
X116409791Y-77730642D01*
X116405578Y-77727107D01*
X116406450Y-77726067D01*
X116366182Y-77675686D01*
X116358876Y-77605066D01*
X116390909Y-77541707D01*
X116447285Y-77507038D01*
X116574670Y-77469635D01*
X116574672Y-77469634D01*
X116583316Y-77467096D01*
X116647135Y-77426082D01*
X116698691Y-77392949D01*
X116698694Y-77392947D01*
X116706271Y-77388077D01*
X116746048Y-77342172D01*
X116796082Y-77284431D01*
X116796084Y-77284428D01*
X116801984Y-77277619D01*
X116862700Y-77144670D01*
X116872061Y-77079562D01*
X116882861Y-77004448D01*
X116882862Y-77004441D01*
X116883500Y-77000000D01*
X116883500Y-75400000D01*
X116878273Y-75326921D01*
X116837096Y-75186684D01*
X116791393Y-75115569D01*
X116762949Y-75071309D01*
X116762947Y-75071306D01*
X116758077Y-75063729D01*
X116751267Y-75057828D01*
X116654431Y-74973918D01*
X116654428Y-74973916D01*
X116647619Y-74968016D01*
X116514670Y-74907300D01*
X116505755Y-74906018D01*
X116505754Y-74906018D01*
X116374448Y-74887139D01*
X116374441Y-74887138D01*
X116370000Y-74886500D01*
X114770000Y-74886500D01*
X114696921Y-74891727D01*
X114646762Y-74906455D01*
X114565330Y-74930365D01*
X114565328Y-74930366D01*
X114556684Y-74932904D01*
X114549105Y-74937775D01*
X114441309Y-75007051D01*
X114441306Y-75007053D01*
X114433729Y-75011923D01*
X114427828Y-75018733D01*
X114343918Y-75115569D01*
X114343916Y-75115572D01*
X114338016Y-75122381D01*
X114277300Y-75255330D01*
X114276354Y-75261911D01*
X114238614Y-75320635D01*
X114174034Y-75350129D01*
X114103760Y-75340025D01*
X114067007Y-75314506D01*
X113946302Y-75193801D01*
X113941794Y-75190644D01*
X113941791Y-75190642D01*
X113763259Y-75065633D01*
X113763257Y-75065632D01*
X113758750Y-75062476D01*
X113753768Y-75060153D01*
X113753763Y-75060150D01*
X113556225Y-74968037D01*
X113556224Y-74968036D01*
X113551243Y-74965714D01*
X113545935Y-74964292D01*
X113545933Y-74964291D01*
X113335402Y-74907879D01*
X113335400Y-74907879D01*
X113330087Y-74906455D01*
X113102000Y-74886500D01*
X112873913Y-74906455D01*
X112868600Y-74907879D01*
X112868598Y-74907879D01*
X112658067Y-74964291D01*
X112658065Y-74964292D01*
X112652757Y-74965714D01*
X112647776Y-74968036D01*
X112647775Y-74968037D01*
X112450237Y-75060150D01*
X112450232Y-75060153D01*
X112445250Y-75062476D01*
X112440743Y-75065632D01*
X112440741Y-75065633D01*
X112262209Y-75190642D01*
X112262206Y-75190644D01*
X112257698Y-75193801D01*
X112095801Y-75355698D01*
X112092644Y-75360206D01*
X112092642Y-75360209D01*
X112028609Y-75451658D01*
X111964476Y-75543250D01*
X111962153Y-75548232D01*
X111962150Y-75548237D01*
X111947500Y-75579655D01*
X111867714Y-75750757D01*
X111866292Y-75756065D01*
X111866291Y-75756067D01*
X111840339Y-75852921D01*
X111808455Y-75971913D01*
X111788500Y-76200000D01*
X111808455Y-76428087D01*
X111867714Y-76649243D01*
X111870036Y-76654224D01*
X111870037Y-76654225D01*
X111926421Y-76775140D01*
X111937082Y-76845331D01*
X111908102Y-76910144D01*
X111876365Y-76936844D01*
X111861336Y-76945732D01*
X111858565Y-76948175D01*
X111844979Y-76961761D01*
X111829952Y-76974596D01*
X111813803Y-76986329D01*
X111808752Y-76992435D01*
X111808747Y-76992440D01*
X111785938Y-77020011D01*
X111777949Y-77028791D01*
X111096638Y-77710103D01*
X111089189Y-77716881D01*
X111083070Y-77720764D01*
X111077645Y-77726541D01*
X111039613Y-77767041D01*
X111036858Y-77769883D01*
X111012384Y-77794357D01*
X111008535Y-77799319D01*
X111000832Y-77808338D01*
X110969218Y-77842004D01*
X110965401Y-77848948D01*
X110965399Y-77848950D01*
X110958890Y-77860790D01*
X110948034Y-77877317D01*
X110934898Y-77894252D01*
X110916560Y-77936630D01*
X110911343Y-77947278D01*
X110895741Y-77975659D01*
X110889094Y-77987749D01*
X110883762Y-78008516D01*
X110877360Y-78027215D01*
X110871994Y-78039615D01*
X110871993Y-78039619D01*
X110868846Y-78046891D01*
X110863088Y-78083250D01*
X110861623Y-78092498D01*
X110859219Y-78104107D01*
X110847733Y-78148841D01*
X110847501Y-78152528D01*
X110847501Y-78171737D01*
X110845950Y-78191447D01*
X110842828Y-78211159D01*
X110843574Y-78219051D01*
X110846942Y-78254683D01*
X110847501Y-78266540D01*
X110847500Y-82551051D01*
X110827498Y-82619172D01*
X110810595Y-82640146D01*
X107010116Y-86440625D01*
X106947804Y-86474651D01*
X106876989Y-86469586D01*
X106820153Y-86427039D01*
X106795433Y-86360764D01*
X106795500Y-86360000D01*
X106775545Y-86131913D01*
X106716286Y-85910757D01*
X106713963Y-85905775D01*
X106621850Y-85708237D01*
X106621847Y-85708232D01*
X106619524Y-85703250D01*
X106602768Y-85679320D01*
X106491358Y-85520209D01*
X106491356Y-85520206D01*
X106488199Y-85515698D01*
X106326302Y-85353801D01*
X106321794Y-85350644D01*
X106321791Y-85350642D01*
X106143259Y-85225633D01*
X106143257Y-85225632D01*
X106138750Y-85222476D01*
X106133768Y-85220153D01*
X106133763Y-85220150D01*
X106099546Y-85204195D01*
X106046261Y-85157278D01*
X106026800Y-85089001D01*
X106047342Y-85021041D01*
X106099546Y-84975805D01*
X106133763Y-84959850D01*
X106133768Y-84959847D01*
X106138750Y-84957524D01*
X106143262Y-84954365D01*
X106321791Y-84829358D01*
X106321794Y-84829356D01*
X106326302Y-84826199D01*
X106488199Y-84664302D01*
X106491362Y-84659786D01*
X106616367Y-84481259D01*
X106616368Y-84481257D01*
X106619524Y-84476750D01*
X106621847Y-84471768D01*
X106621850Y-84471763D01*
X106713963Y-84274225D01*
X106713964Y-84274224D01*
X106716286Y-84269243D01*
X106746996Y-84154635D01*
X106774121Y-84053402D01*
X106774121Y-84053400D01*
X106775545Y-84048087D01*
X106795500Y-83820000D01*
X106775545Y-83591913D01*
X106752000Y-83504042D01*
X106717709Y-83376067D01*
X106717708Y-83376065D01*
X106716286Y-83370757D01*
X106713963Y-83365775D01*
X106621850Y-83168237D01*
X106621847Y-83168232D01*
X106619524Y-83163250D01*
X106602768Y-83139320D01*
X106491358Y-82980209D01*
X106491356Y-82980206D01*
X106488199Y-82975698D01*
X106326302Y-82813801D01*
X106321794Y-82810644D01*
X106321791Y-82810642D01*
X106143259Y-82685633D01*
X106143257Y-82685632D01*
X106138750Y-82682476D01*
X106133768Y-82680153D01*
X106133763Y-82680150D01*
X106099546Y-82664195D01*
X106046261Y-82617278D01*
X106026800Y-82549001D01*
X106047342Y-82481041D01*
X106099546Y-82435805D01*
X106133763Y-82419850D01*
X106133768Y-82419847D01*
X106138750Y-82417524D01*
X106251941Y-82338267D01*
X106321791Y-82289358D01*
X106321794Y-82289356D01*
X106326302Y-82286199D01*
X106488199Y-82124302D01*
X106619524Y-81936750D01*
X106621847Y-81931768D01*
X106621850Y-81931763D01*
X106713963Y-81734225D01*
X106713964Y-81734224D01*
X106716286Y-81729243D01*
X106746996Y-81614635D01*
X106774121Y-81513402D01*
X106774121Y-81513400D01*
X106775545Y-81508087D01*
X106795500Y-81280000D01*
X106775545Y-81051913D01*
X106752000Y-80964042D01*
X106717709Y-80836067D01*
X106717708Y-80836065D01*
X106716286Y-80830757D01*
X106713963Y-80825775D01*
X106621850Y-80628237D01*
X106621847Y-80628232D01*
X106619524Y-80623250D01*
X106602768Y-80599320D01*
X106491358Y-80440209D01*
X106491356Y-80440206D01*
X106488199Y-80435698D01*
X106326302Y-80273801D01*
X106321794Y-80270644D01*
X106321791Y-80270642D01*
X106143259Y-80145633D01*
X106143257Y-80145632D01*
X106138750Y-80142476D01*
X106133768Y-80140153D01*
X106133763Y-80140150D01*
X106099546Y-80124195D01*
X106046261Y-80077278D01*
X106026800Y-80009001D01*
X106047342Y-79941041D01*
X106099546Y-79895805D01*
X106133763Y-79879850D01*
X106133768Y-79879847D01*
X106138750Y-79877524D01*
X106143266Y-79874362D01*
X106321791Y-79749358D01*
X106321794Y-79749356D01*
X106326302Y-79746199D01*
X106488199Y-79584302D01*
X106619524Y-79396750D01*
X106621847Y-79391768D01*
X106621850Y-79391763D01*
X106713963Y-79194225D01*
X106713964Y-79194224D01*
X106716286Y-79189243D01*
X106775545Y-78968087D01*
X106795500Y-78740000D01*
X106775545Y-78511913D01*
X106716286Y-78290757D01*
X106713961Y-78285770D01*
X106621850Y-78088237D01*
X106621847Y-78088232D01*
X106619524Y-78083250D01*
X106570958Y-78013890D01*
X106491358Y-77900209D01*
X106491356Y-77900206D01*
X106488199Y-77895698D01*
X106326302Y-77733801D01*
X106321791Y-77730642D01*
X106317578Y-77727107D01*
X106318450Y-77726067D01*
X106278182Y-77675686D01*
X106270876Y-77605066D01*
X106302909Y-77541707D01*
X106359285Y-77507038D01*
X106486670Y-77469635D01*
X106486672Y-77469634D01*
X106495316Y-77467096D01*
X106559135Y-77426082D01*
X106610691Y-77392949D01*
X106610694Y-77392947D01*
X106618271Y-77388077D01*
X106658048Y-77342172D01*
X106708082Y-77284431D01*
X106708084Y-77284428D01*
X106713984Y-77277619D01*
X106774700Y-77144670D01*
X106784061Y-77079562D01*
X106794861Y-77004448D01*
X106794862Y-77004441D01*
X106795500Y-77000000D01*
X106795500Y-75400000D01*
X106790273Y-75326921D01*
X106749096Y-75186684D01*
X106703393Y-75115569D01*
X106674949Y-75071309D01*
X106674947Y-75071306D01*
X106670077Y-75063729D01*
X106663267Y-75057828D01*
X106566431Y-74973918D01*
X106566428Y-74973916D01*
X106559619Y-74968016D01*
X106426670Y-74907300D01*
X106417755Y-74906018D01*
X106417754Y-74906018D01*
X106286448Y-74887139D01*
X106286441Y-74887138D01*
X106282000Y-74886500D01*
X104682000Y-74886500D01*
X104608921Y-74891727D01*
X104558762Y-74906455D01*
X104477330Y-74930365D01*
X104477328Y-74930366D01*
X104468684Y-74932904D01*
X104461105Y-74937775D01*
X104353309Y-75007051D01*
X104353306Y-75007053D01*
X104345729Y-75011923D01*
X104339828Y-75018733D01*
X104255918Y-75115569D01*
X104255916Y-75115572D01*
X104250016Y-75122381D01*
X104189300Y-75255330D01*
X104188018Y-75264245D01*
X104188018Y-75264246D01*
X104169139Y-75395552D01*
X104169138Y-75395559D01*
X104168500Y-75400000D01*
X103662815Y-75400000D01*
X103662815Y-74760085D01*
X103664883Y-74737352D01*
X103665720Y-74732792D01*
X103665720Y-74732788D01*
X103666599Y-74727998D01*
X103668230Y-74667496D01*
X103671343Y-74642852D01*
X103679333Y-74607847D01*
X103688652Y-74581217D01*
X103700452Y-74556714D01*
X103715464Y-74532822D01*
X103732425Y-74511554D01*
X103752373Y-74491606D01*
X103759450Y-74485962D01*
X103773638Y-74474648D01*
X103797527Y-74459637D01*
X103822031Y-74447837D01*
X103848659Y-74438519D01*
X103883668Y-74430528D01*
X103908313Y-74427415D01*
X103961052Y-74425994D01*
X103961055Y-74425994D01*
X103965536Y-74425873D01*
X103977677Y-74423799D01*
X103998894Y-74422000D01*
X141512551Y-74422000D01*
X141580672Y-74442002D01*
G37*
%TD.AperFunction*%
%TD*%
M02*
