%TF.GenerationSoftware,KiCad,Pcbnew,(5.99.0-7129-g2932fe1e64)*%
%TF.CreationDate,2020-12-05T18:13:35+08:00*%
%TF.ProjectId,Adapter,41646170-7465-4722-9e6b-696361645f70,rev?*%
%TF.SameCoordinates,Original*%
%TF.FileFunction,Legend,Top*%
%TF.FilePolarity,Positive*%
%FSLAX46Y46*%
G04 Gerber Fmt 4.6, Leading zero omitted, Abs format (unit mm)*
G04 Created by KiCad (PCBNEW (5.99.0-7129-g2932fe1e64)) date 2020-12-05 18:13:35*
%MOMM*%
%LPD*%
G01*
G04 APERTURE LIST*
%ADD10C,0.150000*%
%ADD11C,0.120000*%
G04 APERTURE END LIST*
D10*
%TO.C,U4*%
X108530095Y-73322380D02*
X108530095Y-74131904D01*
X108577714Y-74227142D01*
X108625333Y-74274761D01*
X108720571Y-74322380D01*
X108911047Y-74322380D01*
X109006285Y-74274761D01*
X109053904Y-74227142D01*
X109101523Y-74131904D01*
X109101523Y-73322380D01*
X110006285Y-73655714D02*
X110006285Y-74322380D01*
X109768190Y-73274761D02*
X109530095Y-73989047D01*
X110149142Y-73989047D01*
D11*
%TO.C,U2*%
X126890000Y-92770000D02*
X132190000Y-92770000D01*
X128540000Y-74870000D02*
X126890000Y-74870000D01*
X132190000Y-74870000D02*
X130540000Y-74870000D01*
X126890000Y-74870000D02*
X126890000Y-92770000D01*
X132190000Y-92770000D02*
X132190000Y-74870000D01*
X130540000Y-74870000D02*
G75*
G02*
X128540000Y-74870000I-1000000J0D01*
G01*
%TO.C,U3*%
X122030000Y-74870000D02*
X120380000Y-74870000D01*
X118380000Y-74870000D02*
X116730000Y-74870000D01*
X122030000Y-92770000D02*
X122030000Y-74870000D01*
X116730000Y-74870000D02*
X116730000Y-92770000D01*
X116730000Y-92770000D02*
X122030000Y-92770000D01*
X120380000Y-74870000D02*
G75*
G02*
X118380000Y-74870000I-1000000J0D01*
G01*
%TO.C,U4*%
X106642000Y-74870000D02*
X106642000Y-92770000D01*
X108292000Y-74870000D02*
X106642000Y-74870000D01*
X111942000Y-74870000D02*
X110292000Y-74870000D01*
X106642000Y-92770000D02*
X111942000Y-92770000D01*
X111942000Y-92770000D02*
X111942000Y-74870000D01*
X110292000Y-74870000D02*
G75*
G02*
X108292000Y-74870000I-1000000J0D01*
G01*
%TO.C,U1*%
X142350000Y-74870000D02*
X140700000Y-74870000D01*
X137050000Y-74870000D02*
X137050000Y-92770000D01*
X138700000Y-74870000D02*
X137050000Y-74870000D01*
X137050000Y-92770000D02*
X142350000Y-92770000D01*
X142350000Y-92770000D02*
X142350000Y-74870000D01*
X140700000Y-74870000D02*
G75*
G02*
X138700000Y-74870000I-1000000J0D01*
G01*
%TD*%
M02*
